<?xml version="1.0" encoding="UTF-8"?>
<svg width="558px" height="389px" viewBox="0 0 558 389" version="1.1" xmlns="http://www.w3.org/2000/svg" xmlns:xlink="http://www.w3.org/1999/xlink">
    <!-- Generator: Sketch 48.2 (47327) - http://www.bohemiancoding.com/sketch -->
    <title>cbal-cycle</title>
    <desc>Created with Sketch.</desc>
    <defs>
        <linearGradient x1="50%" y1="0%" x2="50%" y2="100%" id="linearGradient-1">
            <stop stop-color="#E69877" offset="0%"></stop>
            <stop stop-color="#F3C68D" offset="100%"></stop>
        </linearGradient>
    </defs>
    <g id="Page-1" stroke="none" stroke-width="1" fill="none" fill-rule="evenodd">
        <rect id="Background" fill="url(#linearGradient-1)" x="-7" y="-8" width="574" height="404"></rect>
        <g id="Arrows" transform="translate(121.000000, 18.000000)">
            <path d="M25.00787,156.4322 C25.00787,82.79136 84.705593,23.09364 158.34647,23.09364 C193.710056,23.09364 227.62525,37.141766 252.63108,62.147595 C277.636909,87.153424 291.685066,121.068615 291.685066,156.432205 C291.685066,230.073075 231.987343,289.770805 158.346466,289.770805 C84.705596,289.770805 25.007866,230.073082 25.007866,156.432205 L25.00787,156.4322 Z M67.854885,156.4322 C67.854885,206.40931 108.36935,246.92378 158.346465,246.92378 C208.323575,246.92378 248.838015,206.409315 248.838015,156.4322 C248.838015,106.45512 208.32358,65.94065 158.346465,65.94065 C108.369355,65.94065 67.854885,106.455115 67.854885,156.4322 Z" id="Shape" fill="#CB4343"></path>
            <g id="p.1-link" transform="translate(158.000000, 15.000000)" fill="#2F6070">
                <g id="p.1">
                    <path d="M0.7038,0.76863 C65.92621,1.04215905 122.48139,45.9353 137.54755,109.39432 L113.0647,115.206942 C100.682376,63.052522 54.201938,26.156652 0.59827,25.931842 L0.7038,0.76863 Z" id="Shape"></path>
                </g>
            </g>
            <g id="p.1" transform="translate(158.000000, 14.000000)" fill="#2F6070">
                <path d="M0.7038,0.76863 C65.92621,1.04215905 122.48139,45.9353 137.54755,109.39432 L113.0647,115.206942 C100.682376,63.052522 54.201938,26.156652 0.59827,25.931842 L0.7038,0.76863 Z" id="Shape"></path>
            </g>
            <g id="p.2-link" transform="translate(227.000000, 123.000000)" fill="#76C9AC">
                <g id="p.2">
                    <path d="M15.34598,147.59048 C61.30475,113.798274 82.41956,55.67419 68.86597,0.26284 L44.56403,6.2070844 C55.716435,51.8017504 38.3422893,99.6285944 0.52561,127.434164 L15.34598,147.59048 Z" id="Shape"></path>
                </g>
            </g>
            <g id="p.2" transform="translate(227.000000, 122.000000)" fill="#76C9AC">
                <path d="M15.34598,147.59048 C61.30475,113.798274 82.41956,55.67419 68.86597,0.26284 L44.56403,6.2070844 C55.716435,51.8017504 38.3422893,99.6285944 0.52561,127.434164 L15.34598,147.59048 Z" id="Shape"></path>
            </g>
            <polygon id="Shape" fill="#2F6070" points="289.6126 140.47293 255.628347 123.18161 306.903921 106.488678"></polygon>
            <g id="p.3-link" transform="translate(21.000000, 15.000000)" fill="#D2EADC">
                <g id="p.3">
                    <path d="M139.62427,0.37749 C75.24735,-0.8540316 18.14853,41.51308 0.66703,103.48328 L24.772316,110.283268 C39.160988,59.276828 86.157876,24.405308 139.145241,25.418948 L139.62427,0.37749 Z" id="Shape"></path>
                </g>
            </g>
            <g id="p.3" transform="translate(21.000000, 14.000000)" fill="#D2EADC">
                <path d="M139.62427,0.37749 C75.24735,-0.8540316 18.14853,41.51308 0.66703,103.48328 L24.772316,110.283268 C39.160988,59.276828 86.157876,24.405308 139.145241,25.418948 L139.62427,0.37749 Z" id="Shape"></path>
            </g>
            <g id="p.4-link" transform="translate(15.000000, 108.000000)">
                <g id="p.4">
                    <path d="M57.9269,162.74786 C7.442433,125.498623 -12.413936,59.40863 9.181478,0.50341 L33.938619,9.579673 C16.375509,57.486137 32.5242818,111.235803 73.582296,141.529873 L57.9269,162.74786 Z" id="Shape" fill="#76C9AC"></path>
                    <path d="M57.9269,162.74786 C7.442433,125.498623 -12.413936,59.40863 9.181478,0.50341 L33.938619,9.579673 C16.375509,57.486137 32.5242818,111.235803 73.582296,141.529873 L57.9269,162.74786 Z" id="Shape"></path>
                </g>
            </g>
            <g id="p.4" transform="translate(17.000000, 107.000000)">
                <path d="M57.9269,162.74786 C7.442433,125.498623 -12.413936,59.40863 9.181478,0.50341 L33.938619,9.579673 C16.375509,57.486137 32.5242818,111.235803 73.582296,141.529873 L57.9269,162.74786 Z" id="Shape" fill="#76C9AC"></path>
                <path d="M57.9269,162.74786 C7.442433,125.498623 -12.413936,59.40863 9.181478,0.50341 L33.938619,9.579673 C16.375509,57.486137 32.5242818,111.235803 73.582296,141.529873 L57.9269,162.74786 Z" id="Shape"></path>
            </g>
            <g id="p.5-link" transform="translate(70.000000, 248.000000)" fill="#2F6070">
                <g id="p.5">
                    <path d="M0.46597,21.0426 C48.28369,57.970212 114.29577,60.388425 164.68725,27.058469 L150.566004,5.708615 C109.308497,32.997159 55.261744,31.01727 16.111474,0.7831694 L0.46597,21.0426 Z" id="Shape"></path>
                </g>
            </g>
            <g id="p.5" transform="translate(70.000000, 247.000000)" fill="#2F6070">
                <path d="M0.46597,21.0426 C48.28369,57.970212 114.29577,60.388425 164.68725,27.058469 L150.566004,5.708615 C109.308497,32.997159 55.261744,31.01727 16.111474,0.7831694 L0.46597,21.0426 Z" id="Shape"></path>
            </g>
            <polygon id="Shape" fill="#76C9AC" points="44.05728 89.30698 60.781676 123.606205 9.758056 106.031406"></polygon>
            <polygon id="Shape" fill="#76C9AC" points="213.89456 276.06427 219.154417 238.332 251.62686 281.324126"></polygon>
            <polygon id="Shape" fill="#2F6070" points="59.65088 244.00287 97.288667 238.018617 65.635133 281.640657"></polygon>
            <polygon id="Shape" fill="#D2EADC" points="184.9659 27.63289 158.005268 54.593522 158.005268 0.672257"></polygon>
        </g>
        <g id="es" transform="translate(7.000000, 22.000000)" font-family="HiraMaruProN-W4, Hiragino Maru Gothic ProN" font-size="24" font-weight="normal">
            <text id="Conversar-en-clase" fill="#CB4343">
                <tspan x="57.008" y="21">Conversar</tspan>
                <tspan x="69.788" y="45">en clase</tspan>
            </text>
            <text id="Leer-el-pr칩ximo-reto" fill="#2F6070">
                <tspan x="414.3" y="21">Leer el</tspan>
                <tspan x="379.584" y="45">pr칩ximo reto</tspan>
            </text>
            <text id="Consultar-el-materia" fill="#2F6070">
                <tspan x="412.384" y="205">Consultar</tspan>
                <tspan x="408.532" y="229">el material</tspan>
                <tspan x="389.32" y="253">recomendado</tspan>
            </text>
            <text id="Feedback-instant치neo" fill="#2F6070">
                <tspan x="12.444" y="203">Feedback</tspan>
                <tspan x="0.624" y="227">instant치neo</tspan>
            </text>
            <text id="Determinar-la-respue" fill="#2F6070">
                <tspan x="201.36" y="321">Determinar</tspan>
                <tspan x="195.168" y="345">la respuesta</tspan>
            </text>
        </g>
    </g>
</svg>