<?xml version="1.0" encoding="UTF-8"?>
<svg width="558px" height="389px" viewBox="0 0 558 389" version="1.1" xmlns="http://www.w3.org/2000/svg" xmlns:xlink="http://www.w3.org/1999/xlink">
    <!-- Generator: Sketch 48.2 (47327) - http://www.bohemiancoding.com/sketch -->
    <title>cbal-cycle</title>
    <desc>Created with Sketch.</desc>
    <defs>
        <linearGradient x1="50%" y1="0%" x2="50%" y2="100%" id="linearGradient-1">
            <stop stop-color="#E69877" offset="0%"></stop>
            <stop stop-color="#F3C68D" offset="100%"></stop>
        </linearGradient>
    </defs>
    <g id="Page-1" stroke="none" stroke-width="1" fill="none" fill-rule="evenodd">
        <rect id="Background" fill="url(#linearGradient-1)" x="-7" y="-8" width="574" height="404"></rect>
        <g id="Arrows" transform="translate(121.000000, 18.000000)">
            <path d="M25.00787,156.4322 C25.00787,82.79136 84.705593,23.09364 158.34647,23.09364 C193.710056,23.09364 227.62525,37.141766 252.63108,62.147595 C277.636909,87.153424 291.685066,121.068615 291.685066,156.432205 C291.685066,230.073075 231.987343,289.770805 158.346466,289.770805 C84.705596,289.770805 25.007866,230.073082 25.007866,156.432205 L25.00787,156.4322 Z M67.854885,156.4322 C67.854885,206.40931 108.36935,246.92378 158.346465,246.92378 C208.323575,246.92378 248.838015,206.409315 248.838015,156.4322 C248.838015,106.45512 208.32358,65.94065 158.346465,65.94065 C108.369355,65.94065 67.854885,106.455115 67.854885,156.4322 Z" id="Shape" fill="#CB4343"></path>
            <g id="p.1-link" transform="translate(158.000000, 15.000000)" fill="#2F6070">
                <g id="p.1">
                    <path d="M0.7038,0.76863 C65.92621,1.04215905 122.48139,45.9353 137.54755,109.39432 L113.0647,115.206942 C100.682376,63.052522 54.201938,26.156652 0.59827,25.931842 L0.7038,0.76863 Z" id="Shape"></path>
                </g>
            </g>
            <g id="p.1" transform="translate(158.000000, 14.000000)" fill="#2F6070">
                <path d="M0.7038,0.76863 C65.92621,1.04215905 122.48139,45.9353 137.54755,109.39432 L113.0647,115.206942 C100.682376,63.052522 54.201938,26.156652 0.59827,25.931842 L0.7038,0.76863 Z" id="Shape"></path>
            </g>
            <g id="p.2-link" transform="translate(227.000000, 123.000000)" fill="#76C9AC">
                <g id="p.2">
                    <path d="M15.34598,147.59048 C61.30475,113.798274 82.41956,55.67419 68.86597,0.26284 L44.56403,6.2070844 C55.716435,51.8017504 38.3422893,99.6285944 0.52561,127.434164 L15.34598,147.59048 Z" id="Shape"></path>
                </g>
            </g>
            <g id="p.2" transform="translate(227.000000, 122.000000)" fill="#76C9AC">
                <path d="M15.34598,147.59048 C61.30475,113.798274 82.41956,55.67419 68.86597,0.26284 L44.56403,6.2070844 C55.716435,51.8017504 38.3422893,99.6285944 0.52561,127.434164 L15.34598,147.59048 Z" id="Shape"></path>
            </g>
            <polygon id="Shape" fill="#2F6070" points="289.6126 140.47293 255.628347 123.18161 306.903921 106.488678"></polygon>
            <g id="p.3-link" transform="translate(21.000000, 15.000000)" fill="#D2EADC">
                <g id="p.3">
                    <path d="M139.62427,0.37749 C75.24735,-0.8540316 18.14853,41.51308 0.66703,103.48328 L24.772316,110.283268 C39.160988,59.276828 86.157876,24.405308 139.145241,25.418948 L139.62427,0.37749 Z" id="Shape"></path>
                </g>
            </g>
            <g id="p.3" transform="translate(21.000000, 14.000000)" fill="#D2EADC">
                <path d="M139.62427,0.37749 C75.24735,-0.8540316 18.14853,41.51308 0.66703,103.48328 L24.772316,110.283268 C39.160988,59.276828 86.157876,24.405308 139.145241,25.418948 L139.62427,0.37749 Z" id="Shape"></path>
            </g>
            <g id="p.4-link" transform="translate(15.000000, 108.000000)">
                <g id="p.4">
                    <path d="M57.9269,162.74786 C7.442433,125.498623 -12.413936,59.40863 9.181478,0.50341 L33.938619,9.579673 C16.375509,57.486137 32.5242818,111.235803 73.582296,141.529873 L57.9269,162.74786 Z" id="Shape" fill="#76C9AC"></path>
                    <path d="M57.9269,162.74786 C7.442433,125.498623 -12.413936,59.40863 9.181478,0.50341 L33.938619,9.579673 C16.375509,57.486137 32.5242818,111.235803 73.582296,141.529873 L57.9269,162.74786 Z" id="Shape"></path>
                </g>
            </g>
            <g id="p.4" transform="translate(17.000000, 107.000000)">
                <path d="M57.9269,162.74786 C7.442433,125.498623 -12.413936,59.40863 9.181478,0.50341 L33.938619,9.579673 C16.375509,57.486137 32.5242818,111.235803 73.582296,141.529873 L57.9269,162.74786 Z" id="Shape" fill="#76C9AC"></path>
                <path d="M57.9269,162.74786 C7.442433,125.498623 -12.413936,59.40863 9.181478,0.50341 L33.938619,9.579673 C16.375509,57.486137 32.5242818,111.235803 73.582296,141.529873 L57.9269,162.74786 Z" id="Shape"></path>
            </g>
            <g id="p.5-link" transform="translate(70.000000, 248.000000)" fill="#2F6070">
                <g id="p.5">
                    <path d="M0.46597,21.0426 C48.28369,57.970212 114.29577,60.388425 164.68725,27.058469 L150.566004,5.708615 C109.308497,32.997159 55.261744,31.01727 16.111474,0.7831694 L0.46597,21.0426 Z" id="Shape"></path>
                </g>
            </g>
            <g id="p.5" transform="translate(70.000000, 247.000000)" fill="#2F6070">
                <path d="M0.46597,21.0426 C48.28369,57.970212 114.29577,60.388425 164.68725,27.058469 L150.566004,5.708615 C109.308497,32.997159 55.261744,31.01727 16.111474,0.7831694 L0.46597,21.0426 Z" id="Shape"></path>
            </g>
            <polygon id="Shape" fill="#76C9AC" points="44.05728 89.30698 60.781676 123.606205 9.758056 106.031406"></polygon>
            <polygon id="Shape" fill="#76C9AC" points="213.89456 276.06427 219.154417 238.332 251.62686 281.324126"></polygon>
            <polygon id="Shape" fill="#2F6070" points="59.65088 244.00287 97.288667 238.018617 65.635133 281.640657"></polygon>
            <polygon id="Shape" fill="#D2EADC" points="184.9659 27.63289 158.005268 54.593522 158.005268 0.672257"></polygon>
        </g>
        <g id="ja" transform="translate(40.000000, 22.000000)" fill="#2F6070">
            <path d="M36.1242388,12.0957136 C36.2442228,11.9519045 36.4121432,11.88 36.628,11.88 L45.46,11.88 C46.612,11.88 47.212,12.48 47.212,13.32 C47.212,13.752 47.044,14.256 46.708,14.76 C45.844,16.08 44.716,17.328 43.372,18.456 C45.124,19.68 47.116,20.472 49.228,21 C49.684,21.12 49.876,21.432 49.876,21.816 C49.876,21.912 49.852,22.008 49.828,22.104 C49.732,22.608 49.348,22.872 48.916,22.872 C48.82,22.872 48.724,22.848 48.604,22.824 C46.18,22.152 43.9,21.072 41.932,19.56 C39.796,21.048 37.3,22.224 34.756,22.92 C34.66,22.944 34.564,22.944 34.468,22.944 C34.06,22.944 33.724,22.728 33.604,22.296 C33.58,22.176 33.556,22.08 33.556,21.96 C33.556,21.576 33.772,21.288 34.228,21.168 C36.508,20.544 38.692,19.584 40.588,18.36 C39.124,16.944 38.044,15.288 37.156,13.488 L36.628,13.488 C36.172,13.488 35.932,13.152 35.932,12.696 C35.932,12.576 35.956,12.48 35.98,12.384 C35.812,12.552 35.572,12.624 35.284,12.624 C34.756,12.624 34.396,12.384 34.396,11.928 L34.396,9.96 C34.396,8.688 35.02,8.16 36.316,8.16 L44.404,8.16 C45.364,6.648 46.036,5.28 46.492,4.176 C46.636,3.792 46.924,3.6 47.26,3.6 C47.38,3.6 47.5,3.624 47.644,3.672 C48.028,3.792 48.244,4.08 48.244,4.416 C48.244,4.536 48.22,4.656 48.172,4.8 C47.764,5.736 47.02,6.984 46.204,8.16 L47.476,8.16 C48.796,8.16 49.396,8.688 49.396,9.96 L49.396,11.952 C49.396,12.408 49.06,12.672 48.508,12.672 C47.98,12.672 47.596,12.408 47.596,11.952 L47.596,10.296 C47.596,9.864 47.38,9.72 46.972,9.72 L36.772,9.72 C36.364,9.72 36.148,9.864 36.148,10.296 L36.148,11.928 C36.148,11.9740362 36.148,12.0421488 36.1268268,12.0899914 L36.1242388,12.0957136 Z M44.74,13.488 L38.956,13.488 C39.748,14.928 40.756,16.248 41.98,17.352 C43.156,16.416 44.164,15.336 44.932,14.16 C45.076,13.968 45.124,13.824 45.124,13.728 C45.124,13.56 44.98,13.488 44.74,13.488 Z M31.972,5.424 L33.772,5.424 C34.204,5.424 34.42,5.76 34.42,6.24 C34.42,6.72 34.204,7.08 33.772,7.08 L31.972,7.08 L31.972,11.592 C32.356,11.424 32.74,11.232 33.1,11.04 C33.22,10.968 33.34,10.944 33.46,10.944 C33.724,10.944 33.94,11.112 34.06,11.424 C34.132,11.592 34.156,11.736 34.156,11.88 C34.156,12.168 34.012,12.408 33.652,12.6 C33.124,12.888 32.572,13.176 31.972,13.44 L31.972,20.712 C31.972,22.296 31.42,22.824 29.716,22.824 C29.164,22.824 28.636,22.776 28.276,22.704 C27.892,22.632 27.628,22.32 27.628,21.888 C27.628,21.84 27.628,21.768 27.652,21.696 C27.724,21.24 27.964,21.024 28.3,21.024 C28.348,21.024 28.42,21.024 28.492,21.048 C28.732,21.096 29.164,21.144 29.5,21.144 C30.076,21.144 30.22,21.072 30.22,20.424 L30.22,14.232 C29.572,14.496 28.924,14.736 28.348,14.952 C28.228,15 28.108,15.024 28.012,15.024 C27.676,15.024 27.412,14.784 27.268,14.328 C27.244,14.208 27.22,14.088 27.22,13.968 C27.22,13.608 27.388,13.368 27.748,13.248 C28.564,12.984 29.404,12.696 30.22,12.36 L30.22,7.08 L28.084,7.08 C27.652,7.08 27.436,6.72 27.436,6.24 C27.436,5.76 27.652,5.424 28.084,5.424 L30.22,5.424 L30.22,1.416 C30.22,0.96 30.556,0.72 31.084,0.72 C31.66,0.72 31.972,0.96 31.972,1.416 L31.972,5.424 Z M47.38,0.936 C47.452,0.912 47.548,0.912 47.62,0.912 C47.98,0.912 48.244,1.152 48.364,1.56 C48.388,1.68 48.412,1.776 48.412,1.896 C48.412,2.256 48.22,2.52 47.812,2.616 C43.996,3.48 39.508,3.864 35.548,3.96 L35.5,3.96 C34.948,3.96 34.708,3.624 34.708,3.144 L34.708,3.096 C34.708,2.64 34.996,2.304 35.452,2.304 C39.316,2.232 43.708,1.824 47.38,0.936 Z M36.34,4.368 C36.46,4.32 36.58,4.296 36.676,4.296 C36.988,4.296 37.276,4.464 37.444,4.752 C37.78,5.304 38.14,6.024 38.356,6.6 C38.38,6.696 38.404,6.816 38.404,6.912 C38.404,7.272 38.188,7.536 37.876,7.68 C37.756,7.728 37.636,7.752 37.516,7.752 C37.204,7.752 36.916,7.56 36.796,7.248 C36.604,6.72 36.268,6.024 35.956,5.472 C35.884,5.328 35.836,5.184 35.836,5.064 C35.836,4.752 36.028,4.488 36.34,4.368 Z M40.876,4.128 C40.996,4.104 41.116,4.08 41.212,4.08 C41.524,4.08 41.812,4.248 41.98,4.536 C42.34,5.16 42.7,5.928 42.892,6.552 C42.916,6.672 42.94,6.816 42.94,6.912 C42.94,7.272 42.748,7.536 42.364,7.68 C42.244,7.704 42.124,7.728 42.028,7.728 C41.692,7.728 41.428,7.56 41.284,7.2 C41.068,6.552 40.756,5.808 40.444,5.232 C40.372,5.088 40.324,4.92 40.324,4.8 C40.324,4.488 40.516,4.224 40.876,4.128 Z M57.316,6.12 L52.204,6.12 C51.796,6.12 51.556,5.832 51.556,5.352 C51.556,4.872 51.796,4.56 52.204,4.56 L55.684,4.56 C55.3,3.864 54.748,3.12 54.292,2.568 C54.172,2.424 54.1,2.256 54.1,2.112 C54.1,1.872 54.268,1.656 54.58,1.488 C54.748,1.416 54.916,1.368 55.084,1.368 C55.348,1.368 55.588,1.512 55.804,1.752 C56.452,2.568 57.1,3.6 57.58,4.56 L59.356,4.56 L59.356,1.392 C59.356,0.912 59.716,0.696 60.22,0.696 C60.796,0.696 61.084,0.912 61.084,1.392 L61.084,4.56 L63.508,4.56 L63.508,1.416 C63.508,0.936 63.844,0.72 64.372,0.72 C64.948,0.72 65.236,0.936 65.236,1.416 L65.236,4.56 L67.3,4.56 C68.02,3.648 68.596,2.688 69.028,1.872 C69.22,1.512 69.46,1.368 69.772,1.368 C69.892,1.368 70.036,1.392 70.18,1.44 C70.54,1.56 70.732,1.872 70.732,2.16 C70.732,2.28 70.708,2.4 70.636,2.496 C70.276,3.096 69.772,3.816 69.196,4.56 L72.796,4.56 C73.204,4.56 73.444,4.872 73.444,5.352 C73.444,5.832 73.204,6.12 72.796,6.12 L67.468,6.12 C67.132,7.008 66.7,7.872 66.22,8.688 L71.884,8.688 C72.268,8.688 72.484,8.976 72.484,9.408 C72.484,9.864 72.268,10.152 71.884,10.152 L63.22,10.152 L63.22,11.808 L70.444,11.808 C70.828,11.808 71.044,12.096 71.044,12.528 C71.044,12.96 70.828,13.272 70.444,13.272 L63.22,13.272 L63.22,14.952 L72.748,14.952 C73.132,14.952 73.372,15.24 73.372,15.696 C73.372,16.152 73.132,16.44 72.748,16.44 L64.492,16.44 C66.796,18.336 69.628,19.584 73.036,20.352 C73.492,20.448 73.708,20.808 73.708,21.192 C73.708,21.312 73.684,21.408 73.66,21.504 C73.54,21.96 73.228,22.224 72.796,22.224 C72.7,22.224 72.604,22.224 72.508,22.176 C68.932,21.24 65.212,19.392 62.98,16.944 C63.124,17.448 63.22,18.072 63.22,18.672 L63.22,22.488 C63.22,22.896 62.884,23.184 62.332,23.184 C61.828,23.184 61.492,22.896 61.492,22.488 L61.492,18.672 C61.492,18.072 61.564,17.496 61.756,16.944 C59.596,19.248 56.428,21.072 52.66,22.152 C52.54,22.176 52.42,22.2 52.3,22.2 C51.892,22.2 51.58,21.96 51.46,21.552 C51.412,21.408 51.388,21.288 51.388,21.192 C51.388,20.808 51.604,20.544 51.964,20.448 C55.444,19.536 58.204,18.216 60.268,16.44 L52.204,16.44 C51.844,16.44 51.58,16.152 51.58,15.696 C51.58,15.24 51.844,14.952 52.204,14.952 L61.492,14.952 L61.492,13.272 L54.508,13.272 C54.124,13.272 53.908,12.96 53.908,12.528 C53.908,12.096 54.124,11.808 54.508,11.808 L61.492,11.808 L61.492,10.152 L53.14,10.152 C52.756,10.152 52.54,9.864 52.54,9.408 C52.54,8.976 52.756,8.688 53.14,8.688 L58.492,8.688 C58.18,7.8 57.796,6.936 57.316,6.12 Z M65.596,6.12 L59.188,6.12 C59.644,6.936 59.98,7.8 60.292,8.688 L64.372,8.688 C64.852,7.872 65.26,7.008 65.596,6.12 Z M90.196,5.136 L90.172,4.992 C88.996,5.232 87.964,5.352 87.172,5.424 C83.74,5.712 80.38,6.024 77.332,6.264 L77.212,6.264 C76.588,6.264 76.228,5.928 76.18,5.352 L76.18,5.256 C76.18,4.728 76.54,4.296 77.068,4.248 C82.924,3.792 89.26,3.384 95.068,3.12 L95.14,3.12 C95.812,3.12 96.124,3.504 96.172,4.056 L96.172,4.128 C96.172,4.632 95.956,5.088 95.236,5.16 C94.828,5.208 94.444,5.256 93.892,5.352 C88.708,6.216 85.084,9.672 85.084,13.536 C85.084,15.936 86.428,17.376 88.156,18.168 C89.428,18.768 91.036,19.032 92.644,19.056 C93.34,19.056 93.7,19.488 93.7,20.04 L93.7,20.16 C93.652,20.856 93.268,21.24 92.548,21.24 C90.556,21.24 88.66,20.856 87.148,20.136 C84.676,18.936 83.02,16.752 83.02,13.704 C83.02,10.08 85.564,6.792 90.196,5.136 Z M91.492,9.12 C91.492,8.808 91.804,8.472 92.188,8.472 C92.452,8.472 92.62,8.544 92.812,8.736 C93.556,9.48 94.42,10.632 94.876,11.424 C94.948,11.568 95.044,11.736 95.044,12.048 C95.044,12.408 94.708,12.72 94.252,12.72 C93.964,12.72 93.772,12.6 93.628,12.312 C93.124,11.424 92.404,10.44 91.732,9.696 C91.588,9.528 91.492,9.336 91.492,9.12 Z M94.132,7.56 C94.132,7.248 94.492,6.936 94.828,6.936 C95.092,6.936 95.26,7.032 95.476,7.224 C96.1,7.824 97.012,9.072 97.444,9.84 C97.516,9.984 97.588,10.176 97.588,10.44 C97.588,10.728 97.3,11.112 96.844,11.112 C96.556,11.112 96.388,10.992 96.22,10.728 C95.692,9.816 95.068,8.88 94.42,8.184 C94.204,7.968 94.132,7.848 94.132,7.56 Z M111.58,4.896 C111.364,8.544 110.836,11.904 109.996,14.472 C109.156,16.944 108.46,18.024 107.62,18.816 C106.852,19.56 105.844,19.872 104.86,19.872 C102.364,19.872 100.372,17.448 100.372,13.416 C100.372,7.44 104.548,3.12 111.1,3.12 C116.764,3.12 120.508,6.816 120.508,12.096 C120.508,15.48 119.044,18.048 116.548,19.632 C115.156,20.52 113.428,21.072 111.508,21.36 C111.412,21.384 111.316,21.384 111.244,21.384 C110.74,21.384 110.332,21.144 110.236,20.544 C110.212,20.472 110.212,20.376 110.212,20.304 C110.212,19.824 110.524,19.464 111.076,19.368 C112.828,19.128 114.676,18.528 115.876,17.64 C117.388,16.512 118.492,14.568 118.492,12.048 C118.492,7.992 115.828,5.04 111.58,4.896 Z M109.588,4.968 C105.196,5.376 102.316,8.736 102.316,13.392 C102.316,16.272 103.54,17.784 104.812,17.784 C105.364,17.784 105.916,17.592 106.42,17.088 C106.948,16.584 107.5,15.552 108.076,13.8 C108.82,11.544 109.42,8.256 109.588,4.968 Z M63.292,40.632 L60.988,40.632 L60.988,46.44 C60.988,46.872 60.652,47.088 60.148,47.088 C59.668,47.088 59.308,46.872 59.308,46.44 L59.308,36 C59.308,34.752 59.932,34.2 61.18,34.2 L71.116,34.2 C72.388,34.2 72.964,34.752 72.964,36 L72.964,44.928 C72.964,46.368 72.196,46.848 70.948,46.848 C70.396,46.848 69.892,46.776 69.508,46.656 C69.196,46.56 69.004,46.344 69.004,45.984 C69.004,45.912 69.004,45.816 69.028,45.72 C69.124,45.288 69.388,45.12 69.676,45.12 C69.748,45.12 69.796,45.12 69.868,45.144 C70.06,45.192 70.444,45.24 70.732,45.24 C71.212,45.24 71.332,45.12 71.332,44.52 L71.332,40.632 L68.764,40.632 L68.764,45.984 C68.764,46.344 68.404,46.536 67.948,46.536 C67.54,46.536 67.18,46.344 67.18,45.984 L67.18,40.632 L64.876,40.632 L64.876,45.984 C64.876,46.344 64.516,46.536 64.084,46.536 C63.7,46.536 63.292,46.344 63.292,45.984 L63.292,40.632 Z M63.292,39.12 L63.292,35.736 L61.636,35.736 C61.204,35.736 60.988,35.856 60.988,36.312 L60.988,39.12 L63.292,39.12 Z M64.876,39.12 L67.18,39.12 L67.18,35.736 L64.876,35.736 L64.876,39.12 Z M68.764,39.12 L71.332,39.12 L71.332,36.312 C71.332,35.856 71.116,35.736 70.684,35.736 L68.764,35.736 L68.764,39.12 Z M62.332,30.672 L69.604,30.672 C70.036,30.672 70.252,30.96 70.252,31.464 C70.252,31.92 70.036,32.28 69.604,32.28 L62.332,32.28 C61.9,32.28 61.684,31.92 61.684,31.464 C61.684,30.984 61.9,30.672 62.332,30.672 Z M58.06,30.648 L51.82,30.648 C51.388,30.648 51.172,30.288 51.172,29.808 C51.172,29.328 51.388,29.016 51.82,29.016 L58.06,29.016 C58.468,29.016 58.684,29.328 58.684,29.808 C58.684,30.288 58.468,30.648 58.06,30.648 Z M57.556,34.08 L52.348,34.08 C51.94,34.08 51.748,33.72 51.748,33.288 C51.748,32.856 51.94,32.544 52.348,32.544 L57.556,32.544 C57.94,32.544 58.156,32.856 58.156,33.288 C58.156,33.72 57.94,34.08 57.556,34.08 Z M57.556,37.512 L52.348,37.512 C51.94,37.512 51.748,37.152 51.748,36.744 C51.748,36.312 51.94,35.976 52.348,35.976 L57.556,35.976 C57.94,35.976 58.156,36.288 58.156,36.72 C58.156,37.152 57.94,37.512 57.556,37.512 Z M57.652,27.12 L52.348,27.12 C51.964,27.12 51.724,26.808 51.724,26.352 C51.724,25.872 51.964,25.584 52.348,25.584 L57.652,25.584 C58.06,25.584 58.3,25.872 58.3,26.352 C58.3,26.808 58.06,27.12 57.652,27.12 Z M58.132,41.088 L58.132,44.784 C58.132,46.008 57.532,46.512 56.284,46.512 L53.668,46.512 C52.42,46.512 51.82,46.008 51.82,44.784 L51.82,41.088 C51.82,39.864 52.42,39.384 53.668,39.384 L56.284,39.384 C57.532,39.384 58.132,39.864 58.132,41.088 Z M55.852,40.824 L54.1,40.824 C53.668,40.824 53.452,40.944 53.452,41.4 L53.452,44.424 C53.452,44.88 53.668,45 54.1,45 L55.852,45 C56.284,45 56.5,44.88 56.5,44.424 L56.5,41.4 C56.5,40.944 56.284,40.824 55.852,40.824 Z M67.132,25.296 C68.62,27.12 71.164,29.064 73.252,30.024 C73.612,30.192 73.804,30.504 73.804,30.864 C73.804,30.984 73.78,31.128 73.708,31.272 C73.564,31.608 73.276,31.776 72.964,31.776 C72.796,31.776 72.604,31.728 72.412,31.632 C70.276,30.552 67.684,28.536 66.22,26.832 C66.076,26.664 65.956,26.592 65.836,26.592 C65.716,26.592 65.596,26.664 65.476,26.832 C64.228,28.488 61.948,30.48 59.764,31.704 C59.62,31.776 59.452,31.824 59.308,31.824 C58.996,31.824 58.708,31.68 58.54,31.392 C58.42,31.224 58.372,31.056 58.372,30.912 C58.372,30.624 58.54,30.384 58.804,30.192 C60.916,29.064 63.22,27.096 64.492,25.368 C64.804,24.936 65.332,24.72 65.86,24.72 C66.34,24.72 66.82,24.912 67.132,25.296 Z M90.652,28.2 L90.652,29.64 L95.452,29.64 C95.788,29.64 95.956,29.952 95.956,30.288 C95.956,30.648 95.788,30.96 95.452,30.96 L90.652,30.96 L90.652,32.52 L96.796,32.52 C97.18,32.52 97.372,32.808 97.372,33.168 C97.372,33.552 97.18,33.84 96.796,33.84 L83.524,33.84 C83.14,33.84 82.948,33.552 82.948,33.168 C82.948,32.808 83.14,32.52 83.524,32.52 L89.02,32.52 L89.02,30.96 L84.7,30.96 C84.364,30.96 84.196,30.648 84.196,30.288 C84.196,29.952 84.364,29.64 84.7,29.64 L89.02,29.64 L89.02,28.2 L83.932,28.2 C83.572,28.2 83.404,27.912 83.404,27.528 C83.404,27.144 83.572,26.88 83.932,26.88 L86.932,26.88 C86.692,26.352 86.404,25.896 86.116,25.512 C86.044,25.392 85.996,25.296 85.996,25.176 C85.996,24.96 86.14,24.768 86.428,24.648 C86.596,24.576 86.764,24.528 86.932,24.528 C87.148,24.528 87.34,24.6 87.484,24.768 C87.964,25.344 88.3,26.016 88.708,26.88 L91.324,26.88 C91.804,26.136 92.164,25.488 92.38,24.936 C92.476,24.672 92.74,24.528 93.052,24.528 C93.172,24.528 93.292,24.552 93.436,24.576 C93.82,24.672 94.036,24.912 94.036,25.2 C94.036,25.296 94.012,25.368 93.988,25.464 C93.772,25.896 93.484,26.376 93.148,26.88 L96.292,26.88 C96.652,26.88 96.82,27.144 96.82,27.528 C96.82,27.912 96.652,28.2 96.292,28.2 L90.652,28.2 Z M87.388,37.824 L90.844,37.8 C90.748,36.96 90.676,36.096 90.652,35.208 L90.652,35.16 C90.652,34.728 90.988,34.512 91.444,34.512 C91.948,34.512 92.236,34.728 92.236,35.208 C92.26,36.12 92.308,36.984 92.404,37.776 L96.844,37.728 C97.228,37.728 97.42,37.968 97.42,38.376 C97.42,38.808 97.252,39.12 96.844,39.12 L92.62,39.168 C92.812,40.104 93.052,41.064 93.46,41.952 C94.084,41.352 94.636,40.68 95.092,39.984 C95.236,39.768 95.428,39.672 95.644,39.672 C95.812,39.672 95.98,39.72 96.148,39.84 C96.364,39.984 96.484,40.176 96.484,40.392 C96.484,40.536 96.436,40.704 96.292,40.872 C95.644,41.76 94.948,42.576 94.156,43.296 C94.564,43.968 95.044,44.52 95.596,44.976 C95.716,45.072 95.812,45.12 95.908,45.12 C96.028,45.12 96.124,45.048 96.196,44.88 C96.46,44.376 96.508,43.848 96.58,43.32 C96.628,43.008 96.868,42.84 97.204,42.84 C97.276,42.84 97.324,42.84 97.396,42.864 C97.876,42.912 98.044,43.176 98.044,43.536 L98.044,43.608 C97.972,44.592 97.588,45.744 97.132,46.368 C96.892,46.704 96.556,46.848 96.172,46.848 C95.788,46.848 95.404,46.728 95.044,46.488 C94.252,45.984 93.556,45.24 92.956,44.328 C91.948,45.096 90.82,45.792 89.62,46.344 C89.476,46.416 89.356,46.44 89.236,46.44 C88.972,46.44 88.756,46.296 88.612,46.008 C88.516,45.888 88.492,45.744 88.492,45.6 C88.492,45.312 88.66,45.072 88.948,44.952 C90.1,44.448 91.228,43.776 92.236,43.008 C91.66,41.784 91.324,40.488 91.06,39.192 L87.388,39.216 L87.388,41.208 C88.204,41.016 88.996,40.8 89.692,40.56 C89.788,40.536 89.86,40.512 89.932,40.512 C90.22,40.512 90.412,40.68 90.484,41.016 C90.508,41.112 90.532,41.184 90.532,41.256 C90.532,41.568 90.364,41.784 90.028,41.88 C89.212,42.168 88.324,42.408 87.388,42.648 L87.388,45.192 C87.388,46.464 86.764,47.04 85.372,47.04 C84.796,47.04 84.172,46.992 83.692,46.872 C83.452,46.8 83.212,46.536 83.212,46.152 C83.212,46.08 83.212,46.008 83.236,45.936 C83.332,45.528 83.62,45.384 83.836,45.384 C83.884,45.384 83.932,45.384 83.98,45.408 C84.292,45.504 84.772,45.552 85.108,45.552 C85.66,45.552 85.852,45.456 85.852,44.832 L85.852,43.008 C85.036,43.176 84.196,43.32 83.428,43.44 C83.38,43.464 83.308,43.464 83.284,43.464 C82.924,43.464 82.708,43.224 82.66,42.816 C82.636,42.768 82.636,42.72 82.636,42.648 C82.636,42.264 82.876,42.048 83.236,42 C84.076,41.88 84.964,41.736 85.852,41.568 L85.852,39.24 L83.212,39.264 C82.828,39.264 82.636,38.952 82.636,38.544 C82.636,38.112 82.828,37.872 83.212,37.872 L85.852,37.848 L85.852,36.504 C85.156,36.624 84.46,36.744 83.812,36.816 L83.74,36.816 C83.428,36.816 83.188,36.552 83.164,36.192 L83.164,36.12 C83.164,35.76 83.38,35.52 83.692,35.496 C85.396,35.328 87.436,34.896 88.852,34.296 C88.972,34.248 89.068,34.224 89.164,34.224 C89.404,34.224 89.596,34.368 89.716,34.632 C89.788,34.752 89.812,34.872 89.812,34.968 C89.812,35.232 89.668,35.424 89.428,35.52 C88.828,35.76 88.132,35.952 87.388,36.144 L87.388,37.824 Z M94.3,34.488 C94.924,34.92 95.548,35.448 96.148,36.072 C96.268,36.216 96.34,36.384 96.34,36.552 C96.34,36.744 96.244,36.936 96.1,37.08 C95.932,37.224 95.716,37.32 95.524,37.32 C95.356,37.32 95.188,37.248 95.044,37.104 C94.564,36.6 93.892,36 93.34,35.568 C93.196,35.448 93.124,35.304 93.124,35.136 C93.124,34.968 93.196,34.776 93.34,34.632 C93.532,34.44 93.724,34.368 93.916,34.368 C94.06,34.368 94.18,34.416 94.3,34.488 Z M76.54,32.424 L81.508,32.424 C81.916,32.424 82.108,32.736 82.108,33.192 C82.108,33.624 81.916,34.008 81.508,34.008 L76.54,34.008 C76.156,34.008 75.94,33.624 75.94,33.192 C75.94,32.736 76.156,32.424 76.54,32.424 Z M76.564,25.416 L81.724,25.416 C82.108,25.416 82.324,25.728 82.324,26.184 C82.324,26.64 82.108,27 81.724,27 L76.564,27 C76.156,27 75.94,26.64 75.94,26.208 C75.94,25.752 76.156,25.416 76.564,25.416 Z M75.964,28.92 L81.988,28.92 C82.42,28.92 82.636,29.232 82.636,29.712 C82.636,30.168 82.42,30.552 81.988,30.552 L75.964,30.552 C75.532,30.552 75.316,30.192 75.316,29.736 C75.316,29.256 75.532,28.92 75.964,28.92 Z M82.084,40.992 L82.084,44.736 C82.084,45.984 81.508,46.488 80.308,46.488 L77.668,46.488 C76.444,46.488 75.844,45.984 75.844,44.736 L75.844,40.992 C75.844,39.768 76.444,39.264 77.668,39.264 L80.308,39.264 C81.508,39.264 82.084,39.768 82.084,40.992 Z M77.476,41.256 L77.476,44.448 C77.476,44.88 77.716,45 78.124,45 L79.828,45 C80.236,45 80.452,44.88 80.452,44.448 L80.452,41.256 C80.452,40.824 80.236,40.704 79.828,40.704 L78.124,40.704 C77.716,40.704 77.476,40.824 77.476,41.256 Z M76.54,35.904 L81.508,35.904 C81.892,35.904 82.108,36.216 82.108,36.672 C82.108,37.104 81.892,37.488 81.508,37.488 L76.54,37.488 C76.132,37.488 75.94,37.104 75.94,36.672 C75.94,36.216 76.132,35.904 76.54,35.904 Z" id="授業での-論議-copy"></path>
            <path d="M417.276,6.024 L409.068,6.024 C408.228,7.848 407.196,9.576 406.044,10.944 C405.804,11.232 405.516,11.376 405.252,11.376 C405.036,11.376 404.82,11.304 404.604,11.136 C404.364,10.944 404.244,10.704 404.244,10.464 C404.244,10.224 404.364,9.984 404.532,9.792 C406.5,7.584 408.132,4.344 408.78,1.488 C408.9,1.032 409.212,0.816 409.644,0.816 C409.74,0.816 409.836,0.816 409.956,0.84 C410.412,0.96 410.652,1.224 410.652,1.608 C410.652,1.728 410.628,1.824 410.604,1.944 C410.364,2.736 410.1,3.528 409.788,4.344 L417.924,4.344 C419.196,4.344 419.892,4.92 419.892,5.88 C419.892,6.288 419.772,6.744 419.508,7.272 C418.836,8.736 417.564,10.608 416.508,11.712 C416.268,11.976 415.98,12.144 415.692,12.144 C415.5,12.144 415.332,12.072 415.14,11.928 C414.9,11.76 414.756,11.496 414.756,11.208 C414.756,11.016 414.852,10.776 415.044,10.584 C415.98,9.696 417.036,8.256 417.684,6.96 C417.804,6.744 417.852,6.552 417.852,6.408 C417.852,6.144 417.66,6.024 417.276,6.024 Z M400.764,2.424 C401.892,3.288 403.284,4.608 404.364,5.808 C404.508,5.976 404.58,6.192 404.58,6.408 C404.58,6.72 404.46,7.008 404.268,7.224 C404.052,7.416 403.812,7.512 403.572,7.512 C403.332,7.512 403.092,7.416 402.9,7.176 C401.916,6 400.524,4.704 399.348,3.768 C399.18,3.624 399.084,3.432 399.084,3.192 C399.084,2.976 399.18,2.736 399.372,2.544 C399.588,2.328 399.876,2.208 400.164,2.208 C400.38,2.208 400.572,2.28 400.764,2.424 Z M404.196,13.056 C404.364,12.84 404.604,12.744 404.844,12.744 C405.084,12.744 405.3,12.84 405.516,13.008 C405.708,13.2 405.828,13.44 405.828,13.704 C405.828,13.944 405.732,14.184 405.564,14.376 C403.98,16.224 401.916,17.88 400.02,19.056 C399.828,19.176 399.612,19.248 399.42,19.248 C399.108,19.248 398.796,19.104 398.604,18.768 C398.484,18.576 398.436,18.384 398.436,18.216 C398.436,17.904 398.58,17.592 398.892,17.424 C400.716,16.32 402.708,14.784 404.196,13.056 Z M411.372,13.104 C410.556,17.616 407.82,20.976 403.668,22.776 C403.5,22.848 403.356,22.872 403.188,22.872 C402.852,22.872 402.54,22.704 402.396,22.368 C402.3,22.2 402.252,22.008 402.252,21.864 C402.252,21.504 402.468,21.192 402.852,21.024 C405.636,19.824 407.964,17.544 409.092,15.024 C409.908,13.2 410.316,11.28 410.316,8.232 C410.316,7.752 410.7,7.488 411.252,7.488 C411.828,7.488 412.212,7.752 412.212,8.232 C412.236,11.184 412.62,12.936 413.652,14.976 C414.972,17.568 417.42,19.608 420.204,20.832 C420.516,20.976 420.684,21.288 420.684,21.672 C420.684,21.84 420.636,22.032 420.564,22.224 C420.372,22.584 420.036,22.752 419.676,22.752 C419.508,22.752 419.34,22.704 419.172,22.656 C414.996,20.568 412.092,17.376 411.372,13.104 Z M434.58,4.896 C434.364,8.544 433.836,11.904 432.996,14.472 C432.156,16.944 431.46,18.024 430.62,18.816 C429.852,19.56 428.844,19.872 427.86,19.872 C425.364,19.872 423.372,17.448 423.372,13.416 C423.372,7.44 427.548,3.12 434.1,3.12 C439.764,3.12 443.508,6.816 443.508,12.096 C443.508,15.48 442.044,18.048 439.548,19.632 C438.156,20.52 436.428,21.072 434.508,21.36 C434.412,21.384 434.316,21.384 434.244,21.384 C433.74,21.384 433.332,21.144 433.236,20.544 C433.212,20.472 433.212,20.376 433.212,20.304 C433.212,19.824 433.524,19.464 434.076,19.368 C435.828,19.128 437.676,18.528 438.876,17.64 C440.388,16.512 441.492,14.568 441.492,12.048 C441.492,7.992 438.828,5.04 434.58,4.896 Z M432.588,4.968 C428.196,5.376 425.316,8.736 425.316,13.392 C425.316,16.272 426.54,17.784 427.812,17.784 C428.364,17.784 428.916,17.592 429.42,17.088 C429.948,16.584 430.5,15.552 431.076,13.8 C431.82,11.544 432.42,8.256 432.588,4.968 Z M363.54,34.008 L370.932,34.008 C371.556,34.008 371.82,34.416 371.82,34.92 C371.82,35.448 371.556,35.88 370.932,35.88 L363.468,35.88 C363.444,36.288 363.42,36.672 363.396,37.032 C363.012,41.76 360.108,44.736 355.764,46.08 C355.572,46.152 355.404,46.176 355.236,46.176 C354.876,46.176 354.588,46.008 354.42,45.624 C354.348,45.48 354.324,45.312 354.324,45.168 C354.324,44.712 354.564,44.328 354.996,44.184 C358.524,43.032 360.996,40.968 361.332,36.576 C361.356,36.336 361.356,36.096 361.38,35.88 L352.164,35.88 C351.564,35.88 351.3,35.448 351.3,34.92 C351.3,34.416 351.564,34.008 352.188,34.008 L361.476,34.008 C361.524,32.616 361.524,31.08 361.524,29.688 C358.956,30.048 355.908,30.336 353.844,30.36 C353.244,30.36 352.932,30.048 352.884,29.52 L352.884,29.424 C352.884,28.92 353.22,28.512 353.7,28.512 C355.98,28.512 359.124,28.176 361.74,27.744 C364.092,27.36 366.756,26.76 368.532,26.064 C368.676,25.992 368.844,25.968 368.988,25.968 C369.348,25.968 369.66,26.16 369.852,26.496 C369.924,26.664 369.972,26.832 369.972,27 C369.972,27.36 369.756,27.72 369.348,27.864 C367.788,28.416 365.676,28.992 363.588,29.376 C363.588,30.984 363.588,32.544 363.54,34.008 Z M383.772,33.456 L391.068,32.28 C391.26,32.256 391.452,32.232 391.62,32.232 C392.292,32.232 392.748,32.448 393.084,32.784 C393.396,33.096 393.54,33.528 393.54,34.032 C393.54,34.44 393.444,34.872 393.252,35.352 C392.532,37.296 390.588,39.408 388.572,40.56 C388.404,40.656 388.236,40.704 388.068,40.704 C387.756,40.704 387.492,40.536 387.324,40.296 C387.204,40.128 387.156,39.96 387.156,39.768 C387.156,39.456 387.3,39.144 387.588,38.976 C389.412,37.92 390.732,36.36 391.356,34.968 C391.428,34.776 391.476,34.608 391.476,34.488 C391.476,34.224 391.308,34.08 390.996,34.08 C390.9,34.08 390.828,34.08 390.732,34.104 L384.132,35.208 L386.172,45.312 L386.172,45.456 C386.172,45.888 385.812,46.224 385.356,46.32 C385.26,46.344 385.188,46.344 385.116,46.344 C384.756,46.344 384.42,46.128 384.324,45.672 L382.26,35.52 L378.18,36.192 C378.108,36.216 378.06,36.216 378.012,36.216 C377.604,36.216 377.268,35.976 377.196,35.496 C377.172,35.424 377.172,35.352 377.172,35.304 C377.172,34.848 377.436,34.464 377.844,34.392 L381.9,33.744 L381.276,30.696 C381.252,30.624 381.252,30.552 381.252,30.48 C381.252,30.024 381.588,29.712 382.02,29.664 C382.092,29.64 382.164,29.64 382.236,29.64 C382.668,29.64 383.052,29.856 383.148,30.312 L383.772,33.456 Z M402.468,42.072 L402.54,27.096 C402.54,26.52 402.972,26.136 403.62,26.136 C404.268,26.136 404.7,26.52 404.7,27.096 L404.604,41.544 C404.604,42.504 404.964,42.912 405.732,42.912 C405.828,42.912 405.924,42.912 406.044,42.888 C410.028,42.36 414.78,39.72 417.348,35.352 C417.564,34.968 417.876,34.776 418.236,34.776 C418.428,34.776 418.62,34.848 418.812,34.968 C419.124,35.184 419.268,35.496 419.268,35.832 C419.268,36.024 419.196,36.264 419.1,36.456 C416.436,41.232 410.988,44.52 406.02,45.072 C405.804,45.072 405.588,45.096 405.372,45.096 C404.532,45.096 403.86,44.88 403.356,44.472 C402.78,43.968 402.468,43.2 402.468,42.072 Z M426.588,27.624 C428.34,28.728 430.524,30.432 431.916,32.136 C432.108,32.376 432.204,32.64 432.204,32.904 C432.204,33.192 432.084,33.48 431.868,33.72 C431.676,33.936 431.412,34.056 431.124,34.056 C430.836,34.056 430.524,33.912 430.236,33.6 C428.916,32.088 426.948,30.384 425.22,29.208 C424.956,29.016 424.836,28.728 424.836,28.44 C424.836,28.2 424.932,27.936 425.1,27.744 C425.316,27.48 425.58,27.384 425.868,27.384 C426.132,27.384 426.372,27.48 426.588,27.624 Z M442.668,29.376 C443.172,29.52 443.484,29.856 443.484,30.36 C443.484,30.504 443.46,30.648 443.436,30.792 C442.452,34.872 440.172,38.76 436.836,41.28 C433.932,43.464 429.492,44.88 425.772,45.024 L425.724,45.024 C425.1,45.024 424.644,44.664 424.596,44.064 L424.596,43.944 C424.596,43.368 424.956,42.912 425.556,42.888 C429.108,42.72 433.188,41.328 435.588,39.48 C438.396,37.296 440.484,33.792 441.348,30.24 C441.516,29.592 441.876,29.328 442.308,29.328 C442.428,29.328 442.548,29.352 442.668,29.376 Z M456.876,29.424 C457.212,29.664 457.38,29.976 457.38,30.288 C457.38,30.48 457.332,30.672 457.236,30.84 C457.044,31.2 456.684,31.392 456.3,31.392 C456.108,31.392 455.916,31.344 455.748,31.224 C454.14,30.192 452.148,29.112 450.492,28.44 C450.132,28.296 449.94,28.008 449.94,27.648 C449.94,27.48 449.988,27.288 450.108,27.12 C450.324,26.76 450.636,26.568 450.996,26.568 C451.164,26.568 451.332,26.592 451.524,26.664 C453.156,27.312 455.196,28.344 456.876,29.424 Z M449.532,32.496 C451.308,33.192 453.564,34.392 455.22,35.424 C455.556,35.64 455.7,35.952 455.7,36.264 C455.7,36.48 455.628,36.72 455.532,36.912 C455.34,37.248 454.98,37.416 454.62,37.416 C454.404,37.416 454.164,37.344 453.972,37.2 C452.58,36.24 450.372,35.04 448.572,34.272 C448.236,34.128 448.044,33.864 448.044,33.528 C448.044,33.336 448.092,33.144 448.212,32.952 C448.404,32.568 448.692,32.4 449.028,32.4 C449.196,32.4 449.34,32.424 449.532,32.496 Z M466.332,30.936 C466.788,31.08 467.076,31.416 467.076,31.896 C467.076,32.016 467.052,32.136 467.028,32.28 C465.9,36.336 463.572,39.768 460.476,42.072 C457.668,44.16 453.444,45.504 449.628,45.768 L449.484,45.768 C448.884,45.768 448.452,45.432 448.404,44.784 C448.38,44.736 448.38,44.664 448.38,44.616 C448.38,44.088 448.692,43.728 449.34,43.68 C452.844,43.44 456.804,42.24 459.324,40.32 C462.036,38.256 464.052,35.376 465.036,31.704 C465.156,31.2 465.468,30.888 465.948,30.888 C466.068,30.888 466.188,30.888 466.332,30.936 Z M462.996,26.256 C462.996,25.944 463.308,25.608 463.692,25.608 C463.956,25.608 464.124,25.68 464.316,25.872 C465.06,26.616 465.924,27.768 466.38,28.56 C466.452,28.704 466.548,28.872 466.548,29.184 C466.548,29.544 466.212,29.856 465.756,29.856 C465.468,29.856 465.276,29.736 465.132,29.448 C464.628,28.56 463.908,27.576 463.236,26.832 C463.092,26.664 462.996,26.472 462.996,26.256 Z M465.708,24.792 C465.708,24.48 466.068,24.168 466.404,24.168 C466.668,24.168 466.836,24.264 467.052,24.456 C467.676,25.056 468.588,26.304 469.02,27.072 C469.092,27.216 469.164,27.408 469.164,27.672 C469.164,27.96 468.876,28.344 468.42,28.344 C468.132,28.344 467.964,28.224 467.796,27.96 C467.268,27.048 466.644,26.112 465.996,25.416 C465.78,25.2 465.708,25.08 465.708,24.792 Z M476.244,34.368 L476.34,34.512 C478.212,33.192 479.556,32.544 481.044,32.544 C482.772,32.544 484.044,33.288 484.356,35.352 C486.516,34.584 488.604,33.936 490.26,33.456 C490.404,33.432 490.548,33.408 490.668,33.408 C491.1,33.408 491.412,33.624 491.556,34.056 C491.58,34.2 491.604,34.32 491.604,34.44 C491.604,34.872 491.364,35.208 490.836,35.328 C489.084,35.784 486.828,36.384 484.524,37.224 C484.572,38.088 484.596,38.928 484.596,39.792 C484.596,40.248 484.596,40.704 484.572,41.16 C484.548,41.76 484.164,42.072 483.636,42.072 C483.084,42.072 482.748,41.76 482.748,41.16 L482.748,37.8 C479.388,39.096 477.9,40.536 477.9,42.024 C477.9,43.44 479.46,44.184 482.844,44.184 C485.148,44.184 487.548,43.968 489.324,43.656 C489.444,43.632 489.54,43.632 489.66,43.632 C490.14,43.632 490.452,43.872 490.548,44.376 C490.572,44.472 490.572,44.544 490.572,44.616 C490.572,45.12 490.236,45.528 489.684,45.6 C487.884,45.912 485.556,46.104 482.988,46.104 C478.476,46.104 475.932,44.856 475.932,42.096 C475.932,39.816 478.14,37.584 482.604,35.976 C482.46,34.512 481.74,34.104 480.684,34.104 C478.644,34.104 476.004,35.688 473.124,38.616 C472.908,38.856 472.62,38.976 472.356,38.976 C472.116,38.976 471.9,38.88 471.708,38.688 C471.492,38.496 471.396,38.232 471.396,37.968 C471.396,37.68 471.516,37.416 471.732,37.2 C473.796,35.28 475.86,32.784 477.42,30.312 L476.316,30.312 C475.116,30.312 473.748,30.288 472.668,30.24 C472.14,30.216 471.828,29.832 471.828,29.352 L471.828,29.256 C471.876,28.776 472.212,28.368 472.692,28.368 L472.764,28.368 C473.892,28.464 475.428,28.488 477.012,28.488 L478.38,28.488 C478.86,27.624 479.292,26.736 479.58,25.872 C479.748,25.368 480.084,25.176 480.468,25.176 C480.588,25.176 480.684,25.2 480.804,25.224 C481.284,25.32 481.548,25.608 481.548,25.968 C481.548,26.088 481.524,26.232 481.452,26.376 C481.164,27.072 480.852,27.72 480.492,28.44 C482.532,28.368 485.388,28.08 488.028,27.696 C488.1,27.672 488.172,27.672 488.244,27.672 C488.724,27.672 489.036,27.936 489.108,28.44 L489.108,28.608 C489.108,29.064 488.82,29.4 488.292,29.496 C485.268,29.928 482.268,30.192 479.532,30.264 C478.596,31.848 477.492,33.288 476.244,34.368 Z M414.084,54.984 L418.836,54.984 C419.244,54.984 419.46,55.32 419.46,55.776 C419.46,56.208 419.244,56.568 418.836,56.568 L407.748,56.568 C407.34,56.568 407.124,56.208 407.124,55.776 C407.124,55.32 407.34,54.984 407.748,54.984 L412.38,54.984 L412.38,52.68 L407.244,52.68 C406.812,52.68 406.596,52.344 406.596,51.888 C406.596,51.408 406.812,51.096 407.244,51.096 L412.38,51.096 L412.38,49.464 C412.38,49.032 412.692,48.744 413.244,48.744 C413.796,48.744 414.084,49.032 414.084,49.464 L414.084,51.096 L419.94,51.096 C420.372,51.096 420.612,51.384 420.612,51.864 C420.612,52.344 420.372,52.68 419.94,52.68 L414.084,52.68 L414.084,54.984 Z M414.06,68.784 L414.06,62.016 C414.06,61.584 414.372,61.32 414.948,61.32 C415.476,61.32 415.836,61.584 415.836,62.016 L415.836,68.376 C415.836,68.904 415.956,69.024 417.06,69.024 C418.212,69.024 418.5,68.904 418.668,68.592 C418.86,68.208 418.956,67.368 419.028,66.432 C419.052,66.048 419.316,65.784 419.772,65.784 L419.892,65.784 C420.396,65.832 420.684,66.072 420.684,66.48 L420.684,66.528 C420.612,68.016 420.396,69.192 420.012,69.768 C419.58,70.392 418.884,70.656 416.964,70.656 C414.516,70.656 414.06,70.272 414.06,68.784 Z M411.012,61.32 C411.54,61.32 411.9,61.56 411.9,62.016 C411.9,66.6 410.364,69.072 407.7,70.68 C407.46,70.848 407.22,70.92 407.028,70.92 C406.74,70.92 406.5,70.776 406.332,70.488 C406.236,70.32 406.188,70.152 406.188,69.984 C406.188,69.648 406.38,69.336 406.716,69.144 C409.452,67.608 410.148,65.28 410.148,62.016 C410.148,61.56 410.436,61.32 411.012,61.32 Z M405.18,50.952 L399.684,50.952 C399.276,50.952 399.06,50.568 399.06,50.136 C399.06,49.68 399.276,49.368 399.684,49.368 L405.18,49.368 C405.564,49.368 405.78,49.68 405.78,50.136 C405.78,50.568 405.564,50.952 405.18,50.952 Z M405.156,57.936 L399.612,57.936 C399.204,57.936 399.012,57.576 399.012,57.144 C399.012,56.712 399.204,56.352 399.612,56.352 L405.156,56.352 C405.54,56.352 405.756,56.712 405.756,57.144 C405.756,57.552 405.54,57.936 405.156,57.936 Z M398.94,52.848 L405.588,52.848 C406.02,52.848 406.236,53.16 406.236,53.64 C406.236,54.096 406.02,54.48 405.588,54.48 L398.94,54.48 C398.508,54.48 398.292,54.12 398.292,53.64 C398.292,53.16 398.508,52.848 398.94,52.848 Z M405.804,64.944 L405.804,68.64 C405.804,69.888 405.228,70.416 404.028,70.416 L400.788,70.416 C399.564,70.416 398.988,69.888 398.988,68.64 L398.988,64.944 C398.988,63.72 399.564,63.216 400.788,63.216 L404.028,63.216 C405.228,63.216 405.804,63.72 405.804,64.944 Z M401.316,68.928 L403.5,68.928 C403.908,68.928 404.124,68.784 404.124,68.352 L404.124,65.208 C404.124,64.776 403.908,64.632 403.5,64.632 L401.316,64.632 C400.884,64.632 400.668,64.776 400.668,65.208 L400.668,68.352 C400.668,68.784 400.884,68.928 401.316,68.928 Z M405.156,61.368 L399.588,61.368 C399.18,61.368 398.988,61.008 398.988,60.576 C398.988,60.144 399.18,59.784 399.588,59.784 L405.156,59.784 C405.54,59.784 405.756,60.144 405.756,60.576 C405.756,61.008 405.54,61.368 405.156,61.368 Z M408.492,58.392 L418.356,58.392 C419.796,58.392 420.348,58.872 420.348,60.168 L420.348,62.208 C420.348,62.664 420.012,62.88 419.46,62.88 C418.932,62.88 418.572,62.664 418.572,62.256 L418.572,60.504 C418.572,60.096 418.308,59.952 417.828,59.952 L408.948,59.952 C408.492,59.952 408.252,60.096 408.252,60.504 L408.252,62.208 C408.252,62.616 407.916,62.856 407.412,62.856 C406.884,62.856 406.548,62.64 406.548,62.184 L406.548,60.168 C406.548,58.872 407.124,58.392 408.492,58.392 Z M443.892,56.136 C444.012,56.304 444.084,56.52 444.084,56.736 C444.084,57.024 443.964,57.336 443.7,57.552 C443.532,57.696 443.292,57.768 443.052,57.768 C442.764,57.768 442.452,57.648 442.236,57.36 C441.108,55.824 439.62,54.312 437.988,53.088 C437.796,52.92 437.7,52.68 437.7,52.44 C437.7,52.2 437.796,51.96 437.988,51.744 C438.18,51.528 438.468,51.408 438.732,51.408 C438.948,51.408 439.164,51.48 439.356,51.624 C440.988,52.824 442.692,54.48 443.892,56.136 Z M427.932,64.92 L427.836,64.776 C427.404,65.088 426.996,65.256 426.516,65.256 L426.42,65.256 C424.932,65.184 423.54,63.912 423.54,61.512 C423.54,58.608 425.388,56.664 427.62,56.664 C428.052,56.664 428.46,56.76 428.724,56.88 C428.724,56.04 428.724,55.128 428.748,54.336 C427.716,54.408 426.732,54.432 425.796,54.432 C425.34,54.432 424.884,54.432 424.452,54.408 C423.996,54.408 423.636,54.096 423.636,53.544 C423.636,53.04 423.972,52.656 424.404,52.656 C424.74,52.68 425.124,52.68 425.484,52.68 C426.516,52.68 427.62,52.656 428.772,52.608 C428.796,51.864 428.796,51.096 428.796,50.208 C428.82,49.56 429.156,49.272 429.732,49.272 C430.404,49.272 430.692,49.608 430.692,50.136 C430.692,50.952 430.668,51.72 430.644,52.512 C432.252,52.416 433.86,52.272 435.228,52.08 L435.372,52.08 C435.78,52.08 436.068,52.344 436.164,52.848 L436.164,53.016 C436.164,53.448 435.876,53.736 435.468,53.808 C434.052,54 432.348,54.168 430.596,54.264 C430.572,55.464 430.572,56.76 430.572,58.056 C430.956,58.752 431.1,59.664 431.1,60.504 C431.1,61.872 430.716,62.976 429.972,64.032 C429.252,65.088 428.964,65.736 428.964,66.36 C428.964,67.656 430.212,68.04 433.284,68.04 C435.684,68.04 437.604,67.776 438.636,67.248 C439.524,66.792 440.028,66.072 440.028,64.848 C440.028,64.008 439.644,62.784 439.14,61.8 C439.068,61.656 439.02,61.488 439.02,61.344 C439.02,60.984 439.236,60.624 439.644,60.504 C439.788,60.456 439.908,60.432 440.052,60.432 C440.46,60.432 440.796,60.648 440.988,61.056 C441.564,62.232 442.044,63.72 442.044,64.992 C442.044,66.984 441.276,68.184 439.74,68.928 C438.348,69.6 436.38,69.936 433.308,69.936 C428.868,69.936 427.092,68.952 427.092,66.96 C427.092,66.12 427.38,65.496 427.932,64.92 Z M429.276,60.504 C429.276,59.184 428.82,58.272 427.668,58.272 C426.396,58.272 425.316,59.496 425.316,61.368 C425.316,62.88 426.18,63.6 427.044,63.6 C428.292,63.6 429.276,62.016 429.276,60.504 Z" id="次の-チャレンジを-読む-copy"></path>
            <path d="M420.496,192.616 L425.368,192.616 C425.752,192.616 425.992,192.928 425.992,193.408 C425.992,193.912 425.752,194.248 425.368,194.248 L414.736,194.248 C413.344,194.248 412.672,193.648 412.672,192.208 L412.672,183.448 C412.672,182.56 412.744,181.552 412.864,180.616 C412.624,181 412.384,181.384 412.12,181.696 C411.88,181.96 411.616,182.104 411.352,182.104 C411.16,182.104 410.968,182.032 410.776,181.864 C410.584,181.672 410.488,181.456 410.488,181.24 C410.488,181 410.584,180.76 410.8,180.52 C412.504,178.696 414.04,175.888 414.904,173.296 C415.048,172.888 415.312,172.744 415.672,172.744 C415.792,172.744 415.912,172.768 416.032,172.792 C416.44,172.888 416.68,173.128 416.68,173.512 C416.68,173.608 416.656,173.728 416.608,173.848 C416.248,174.832 415.792,175.864 415.24,176.896 C415.648,176.824 416.056,176.776 416.464,176.776 L419.032,176.776 C419.632,175.624 420.136,174.448 420.472,173.44 C420.616,173.008 420.904,172.84 421.264,172.84 C421.36,172.84 421.456,172.84 421.552,172.864 C421.96,172.96 422.224,173.2 422.224,173.56 C422.224,173.68 422.2,173.8 422.152,173.944 C421.84,174.832 421.384,175.816 420.832,176.776 L424.936,176.776 C425.32,176.776 425.56,177.088 425.56,177.568 C425.56,178.072 425.32,178.408 424.936,178.408 L420.496,178.408 L420.496,181.816 L424.6,181.816 C424.984,181.816 425.224,182.152 425.224,182.608 C425.224,183.088 424.984,183.4 424.6,183.4 L420.496,183.4 L420.496,187 L424.6,187 C424.984,187 425.224,187.312 425.224,187.792 C425.224,188.272 424.984,188.584 424.6,188.584 L420.496,188.584 L420.496,192.616 Z M414.4,187 L418.816,187 L418.816,183.4 L414.4,183.4 L414.4,187 Z M414.4,188.584 L414.4,191.896 C414.4,192.448 414.616,192.616 415.144,192.616 L418.816,192.616 L418.816,188.584 L414.4,188.584 Z M418.816,178.408 L415.144,178.408 C414.616,178.408 414.4,178.576 414.4,179.128 L414.4,181.816 L418.816,181.816 L418.816,178.408 Z M409.024,177.424 L410.92,177.424 C411.376,177.424 411.592,177.76 411.592,178.24 C411.592,178.72 411.376,179.08 410.92,179.08 L409.024,179.08 L409.024,183.784 C409.6,183.544 410.128,183.304 410.608,183.064 C410.728,183.016 410.848,182.992 410.944,182.992 C411.208,182.992 411.424,183.16 411.568,183.496 C411.64,183.64 411.664,183.784 411.664,183.904 C411.664,184.192 411.52,184.48 411.208,184.624 C410.56,184.96 409.816,185.296 409.024,185.608 L409.024,192.688 C409.024,194.248 408.328,194.824 406.648,194.824 C406,194.824 405.4,194.776 404.92,194.656 C404.512,194.56 404.32,194.272 404.32,193.888 C404.32,193.792 404.32,193.72 404.344,193.624 C404.416,193.192 404.68,193 405.016,193 C405.088,193 405.184,193 405.256,193.024 C405.544,193.072 406.048,193.144 406.456,193.144 C407.128,193.144 407.272,192.952 407.272,192.352 L407.272,186.328 C406.504,186.616 405.712,186.904 404.992,187.168 C404.896,187.192 404.8,187.216 404.704,187.216 C404.344,187.216 404.032,187 403.912,186.568 C403.864,186.424 403.84,186.304 403.84,186.184 C403.84,185.848 404.008,185.584 404.368,185.488 C405.328,185.2 406.312,184.864 407.272,184.48 L407.272,179.08 L404.632,179.08 C404.2,179.08 403.96,178.744 403.96,178.24 C403.96,177.76 404.2,177.424 404.632,177.424 L407.272,177.424 L407.272,173.344 C407.272,172.888 407.608,172.648 408.16,172.648 C408.712,172.648 409.024,172.888 409.024,173.344 L409.024,177.424 Z M434.296,184.6 L431.272,184.6 C431.152,189.04 430.48,191.776 429.28,194.152 C429.064,194.584 428.8,194.8 428.464,194.8 C428.32,194.8 428.176,194.752 428.008,194.68 C427.648,194.488 427.48,194.224 427.48,193.912 C427.48,193.744 427.528,193.576 427.624,193.36 C429.016,190.816 429.568,188.008 429.568,182.728 L429.568,179.44 C429.568,177.928 430.336,177.352 431.752,177.352 L438.112,177.352 L438.112,176.68 C438.112,176.248 438.448,176.056 438.952,176.056 C439.456,176.056 439.816,176.248 439.816,176.68 L439.816,177.352 L449.008,177.352 C449.44,177.352 449.656,177.664 449.656,178.12 C449.656,178.6 449.44,178.84 449.008,178.84 L442.552,178.84 L442.552,180.208 L446.704,180.208 C447.904,180.208 448.48,180.568 448.48,181.552 L448.48,183.256 C448.48,184.24 447.904,184.6 446.704,184.6 L435.904,184.6 C435.808,184.864 435.712,185.128 435.64,185.392 C435.592,185.536 435.544,185.656 435.496,185.8 L448.84,185.8 C449.272,185.8 449.488,186.04 449.488,186.448 C449.488,186.904 449.272,187.192 448.84,187.192 L435.04,187.192 C434.944,187.456 434.848,187.72 434.752,187.96 C434.704,188.056 434.68,188.152 434.68,188.224 C434.68,188.368 434.8,188.44 434.992,188.44 L447.424,188.44 C448.792,188.44 449.296,189.04 449.296,189.952 C449.296,190.048 449.296,190.12 449.272,190.216 C449.152,191.416 448.888,192.448 448.648,193.12 C448.288,194.104 447.544,194.728 446.2,194.728 C445.552,194.728 444.664,194.704 444.04,194.584 C443.704,194.512 443.488,194.224 443.488,193.84 C443.488,193.792 443.488,193.72 443.512,193.672 C443.56,193.312 443.8,193.12 444.136,193.12 C444.208,193.12 444.28,193.12 444.352,193.144 C444.832,193.24 445.432,193.264 445.864,193.264 C446.488,193.264 446.944,193.024 447.16,192.376 C447.304,191.992 447.52,191.128 447.568,190.36 L447.568,190.288 C447.568,189.952 447.376,189.832 446.944,189.832 L434.248,189.832 C433.288,189.832 432.808,189.376 432.808,188.752 C432.808,188.56 432.856,188.344 432.952,188.128 C433.384,187.264 433.888,185.848 434.296,184.6 Z M431.296,183.304 L435.376,183.304 L435.376,181.504 L431.296,181.504 L431.296,183.304 Z M431.296,180.208 L435.376,180.208 L435.376,178.84 L432.256,178.84 C431.512,178.84 431.296,179.08 431.296,179.8 L431.296,180.208 Z M436.912,178.84 L436.912,180.208 L441.016,180.208 L441.016,178.84 L436.912,178.84 Z M436.912,183.304 L441.016,183.304 L441.016,181.504 L436.912,181.504 L436.912,183.304 Z M442.552,183.304 L446.128,183.304 C446.608,183.304 446.848,183.208 446.848,182.824 L446.848,181.984 C446.848,181.6 446.608,181.504 446.128,181.504 L442.552,181.504 L442.552,183.304 Z M443.512,175.552 L443.512,176.344 C443.512,176.8 443.224,176.992 442.648,176.992 C442.096,176.992 441.808,176.8 441.808,176.344 L441.808,175.552 L436.192,175.552 L436.192,176.344 C436.192,176.8 435.904,176.992 435.328,176.992 C434.776,176.992 434.488,176.8 434.488,176.344 L434.488,175.552 L428.8,175.552 C428.416,175.552 428.176,175.264 428.176,174.832 C428.176,174.376 428.416,174.088 428.8,174.088 L434.488,174.088 L434.488,173.2 C434.488,172.72 434.776,172.552 435.328,172.552 C435.904,172.552 436.192,172.72 436.192,173.2 L436.192,174.088 L441.808,174.088 L441.808,173.2 C441.808,172.72 442.096,172.552 442.648,172.552 C443.224,172.552 443.512,172.72 443.512,173.2 L443.512,174.088 L449.464,174.088 C449.848,174.088 450.088,174.376 450.088,174.832 C450.088,175.264 449.848,175.552 449.464,175.552 L443.512,175.552 Z M445.24,191.704 C445.336,191.848 445.36,191.992 445.36,192.112 C445.36,192.376 445.216,192.568 444.976,192.688 C444.856,192.736 444.736,192.76 444.616,192.76 C444.352,192.76 444.088,192.64 443.944,192.376 C443.752,192.016 443.464,191.56 443.2,191.224 C443.08,191.056 443.032,190.912 443.032,190.768 C443.032,190.576 443.152,190.384 443.392,190.288 C443.536,190.216 443.68,190.192 443.8,190.192 C444.04,190.192 444.256,190.288 444.4,190.48 C444.712,190.84 445.072,191.32 445.24,191.704 Z M433.528,190.36 C433.864,190.456 434.056,190.72 434.056,191.032 C434.056,191.152 434.032,191.272 433.984,191.392 C433.624,192.352 432.952,193.504 432.232,194.32 C432.04,194.512 431.824,194.632 431.584,194.632 C431.416,194.632 431.248,194.584 431.08,194.464 C430.816,194.296 430.696,194.032 430.696,193.792 C430.696,193.6 430.744,193.432 430.864,193.312 C431.512,192.592 432.16,191.536 432.496,190.744 C432.616,190.456 432.904,190.312 433.192,190.312 C433.312,190.312 433.432,190.336 433.528,190.36 Z M436.288,193.888 C436.144,193.072 435.928,192.112 435.688,191.392 C435.64,191.296 435.616,191.176 435.616,191.08 C435.616,190.768 435.832,190.576 436.144,190.48 C436.216,190.456 436.312,190.456 436.384,190.456 C436.72,190.456 436.984,190.648 437.104,190.984 C437.44,191.776 437.68,192.712 437.848,193.552 C437.872,193.624 437.872,193.696 437.872,193.768 C437.872,194.152 437.632,194.416 437.224,194.488 C437.176,194.512 437.104,194.512 437.056,194.512 C436.672,194.512 436.36,194.272 436.288,193.888 Z M439.72,190.384 C439.84,190.336 439.96,190.312 440.056,190.312 C440.296,190.312 440.512,190.408 440.656,190.624 C441.088,191.248 441.496,192.04 441.712,192.64 C441.76,192.76 441.784,192.88 441.784,193 C441.784,193.288 441.64,193.528 441.352,193.672 C441.232,193.72 441.112,193.744 441.016,193.744 C440.704,193.744 440.44,193.576 440.296,193.24 C440.08,192.592 439.72,191.824 439.432,191.344 C439.336,191.224 439.312,191.08 439.312,190.96 C439.312,190.696 439.48,190.48 439.72,190.384 Z M464.56,175.864 L461.824,175.864 C461.248,176.56 460.6,177.208 459.928,177.736 C459.664,177.952 459.4,178.048 459.184,178.048 C458.968,178.048 458.752,177.952 458.584,177.736 C458.44,177.592 458.368,177.4 458.368,177.208 C458.368,176.968 458.488,176.728 458.728,176.536 C460,175.576 461.104,174.184 461.8,172.96 C461.944,172.696 462.208,172.552 462.496,172.552 C462.616,172.552 462.76,172.576 462.88,172.624 C463.24,172.768 463.432,172.984 463.432,173.272 C463.432,173.392 463.384,173.536 463.312,173.68 C463.168,173.92 463.024,174.184 462.88,174.424 L471.712,174.424 C472.768,174.424 473.272,174.952 473.272,175.576 C473.272,175.864 473.152,176.2 472.912,176.512 C472.336,177.28 471.568,177.952 470.968,178.36 C470.776,178.48 470.56,178.552 470.368,178.552 C470.128,178.552 469.888,178.456 469.744,178.24 C469.624,178.12 469.576,177.952 469.576,177.808 C469.576,177.568 469.696,177.328 469.936,177.184 C470.416,176.896 470.872,176.536 471.208,176.176 C471.28,176.08 471.304,176.032 471.304,175.984 C471.304,175.888 471.184,175.864 470.944,175.864 L466.36,175.864 C466.72,177.088 467.464,177.952 468.52,178.648 C470.008,179.608 471.712,180.064 473.44,180.376 C473.896,180.448 474.136,180.712 474.136,181.12 C474.136,181.192 474.136,181.288 474.112,181.384 C474.016,181.84 473.728,182.056 473.32,182.056 C473.224,182.056 473.128,182.056 473.032,182.032 C469.576,181.336 466.576,179.848 465.544,177.472 C464.584,179.728 462.256,180.784 459.352,181.264 C459.256,181.288 459.16,181.288 459.064,181.288 C458.656,181.288 458.344,181.096 458.272,180.664 C458.248,180.592 458.248,180.544 458.248,180.472 C458.248,180.088 458.512,179.824 458.944,179.752 C461.632,179.32 464.032,178.312 464.56,175.864 Z M454.264,173.392 C455.152,173.776 456.424,174.472 457.264,175.12 C457.528,175.312 457.648,175.552 457.648,175.816 C457.648,175.984 457.6,176.152 457.48,176.32 C457.288,176.584 457,176.728 456.712,176.728 C456.544,176.728 456.352,176.68 456.208,176.56 C455.368,175.96 454.264,175.288 453.376,174.832 C453.088,174.688 452.944,174.472 452.944,174.208 C452.944,174.04 452.992,173.848 453.088,173.68 C453.256,173.44 453.52,173.296 453.808,173.296 C453.976,173.296 454.12,173.32 454.264,173.392 Z M457.264,178.24 C457.48,178.144 457.648,178.096 457.816,178.096 C458.08,178.096 458.272,178.24 458.44,178.48 C458.536,178.648 458.584,178.792 458.584,178.96 C458.584,179.248 458.44,179.512 458.104,179.68 C456.616,180.472 454.792,181.24 453.232,181.744 C453.088,181.792 452.968,181.816 452.848,181.816 C452.44,181.816 452.128,181.576 451.984,181.168 C451.96,181.072 451.936,180.952 451.936,180.856 C451.936,180.496 452.152,180.184 452.584,180.064 C454.144,179.632 455.944,178.936 457.264,178.24 Z M459.016,191.896 C459.184,191.824 459.376,191.776 459.544,191.776 C459.808,191.776 460.072,191.872 460.24,192.064 C460.36,192.232 460.432,192.4 460.432,192.568 C460.432,192.832 460.288,193.072 460,193.216 C458.152,194.104 455.464,194.824 453.232,195.064 L453.064,195.064 C452.608,195.064 452.296,194.8 452.224,194.32 C452.2,194.248 452.2,194.2 452.2,194.152 C452.2,193.744 452.488,193.456 452.944,193.408 C455.056,193.216 457.264,192.688 459.016,191.896 Z M465.976,193.24 C465.688,193.096 465.52,192.856 465.52,192.592 C465.52,192.424 465.568,192.256 465.712,192.112 C465.88,191.896 466.144,191.776 466.432,191.776 C466.6,191.776 466.768,191.824 466.936,191.896 C468.568,192.64 470.872,193.192 473.056,193.384 C473.584,193.432 473.824,193.72 473.824,194.152 C473.824,194.176 473.824,194.224 473.8,194.272 C473.752,194.752 473.416,195.064 472.96,195.064 L472.792,195.064 C470.368,194.776 467.944,194.152 465.976,193.24 Z M469.456,191.32 L456.544,191.32 C455.176,191.32 454.6,190.816 454.6,189.592 L454.6,183.4 C454.6,182.176 455.248,181.648 456.688,181.648 L469.288,181.648 C470.824,181.648 471.424,182.176 471.424,183.4 L471.424,189.592 C471.424,190.816 470.824,191.32 469.456,191.32 Z M469.72,184.432 L469.72,183.568 C469.72,183.136 469.48,183.016 469.024,183.016 L456.976,183.016 C456.544,183.016 456.304,183.136 456.304,183.568 L456.304,184.432 L469.72,184.432 Z M469.72,187.144 L469.72,185.728 L456.304,185.728 L456.304,187.144 L469.72,187.144 Z M469.72,188.44 L456.304,188.44 L456.304,189.352 C456.304,189.808 456.544,189.928 456.976,189.928 L469.024,189.928 C469.48,189.928 469.72,189.808 469.72,189.352 L469.72,188.44 Z M495.352,186.544 L497.344,186.088 C497.392,186.064 497.464,186.064 497.512,186.064 C497.872,186.064 498.136,186.328 498.232,186.76 C498.256,186.856 498.256,186.952 498.256,187.024 C498.256,187.408 498.088,187.744 497.728,187.792 L495.352,188.344 L495.352,194.368 C495.352,194.824 494.992,195.04 494.416,195.04 C493.888,195.04 493.528,194.824 493.528,194.368 L493.528,188.776 L485.632,190.624 C485.584,190.648 485.512,190.648 485.464,190.648 C485.104,190.648 484.792,190.384 484.72,189.952 C484.696,189.88 484.696,189.808 484.696,189.712 C484.696,189.304 484.912,188.968 485.272,188.896 L493.528,186.976 L493.528,173.44 C493.528,172.984 493.888,172.768 494.416,172.768 C494.992,172.768 495.352,172.984 495.352,173.44 L495.352,186.544 Z M479.968,182.608 L476.824,182.608 C476.392,182.608 476.176,182.296 476.176,181.816 C476.176,181.336 476.392,181 476.824,181 L480.28,181 L480.28,173.392 C480.28,172.96 480.592,172.72 481.12,172.72 C481.672,172.72 481.984,172.96 481.984,173.392 L481.984,181 L484.624,181 C485.056,181 485.296,181.336 485.296,181.816 C485.296,182.296 485.056,182.608 484.624,182.608 L482.152,182.608 C483.04,184.312 484.192,185.752 485.296,186.856 C485.464,187.024 485.56,187.24 485.56,187.456 C485.56,187.672 485.464,187.888 485.296,188.08 C485.152,188.272 484.936,188.368 484.696,188.368 C484.504,188.368 484.312,188.296 484.144,188.128 C483.136,187.072 482.248,185.416 481.72,184.144 C481.864,185.152 481.984,186.472 481.984,187.36 L481.984,194.392 C481.984,194.824 481.672,195.064 481.12,195.064 C480.616,195.064 480.28,194.824 480.28,194.392 L480.28,188.488 C480.28,187.288 480.472,185.704 480.64,184.408 C480.064,186.568 478.72,189.184 477.376,190.744 C477.208,190.96 476.944,191.08 476.68,191.08 C476.488,191.08 476.296,191.008 476.104,190.864 C475.912,190.672 475.792,190.432 475.792,190.192 C475.792,189.976 475.864,189.76 476.056,189.568 C477.688,187.768 479.104,185.272 479.968,182.608 Z M488.488,174.832 C489.52,175.504 491.056,176.8 492.064,177.856 C492.232,178.048 492.328,178.312 492.328,178.576 C492.328,178.816 492.256,179.032 492.088,179.2 C491.896,179.368 491.656,179.464 491.416,179.464 C491.152,179.464 490.888,179.368 490.696,179.152 C489.736,178.096 488.392,176.944 487.264,176.152 C487.072,176.032 486.976,175.816 486.976,175.576 C486.976,175.36 487.048,175.144 487.216,174.952 C487.408,174.76 487.648,174.664 487.912,174.664 C488.104,174.664 488.32,174.712 488.488,174.832 Z M487.72,181 C488.848,181.744 490.264,182.944 491.248,184.024 C491.392,184.192 491.464,184.432 491.464,184.648 C491.464,184.864 491.392,185.08 491.248,185.248 C491.056,185.44 490.792,185.536 490.552,185.536 C490.312,185.536 490.072,185.44 489.928,185.272 C489.016,184.264 487.648,183.088 486.544,182.32 C486.328,182.176 486.232,181.96 486.232,181.72 C486.232,181.504 486.328,181.288 486.472,181.096 C486.64,180.928 486.88,180.832 487.12,180.832 C487.312,180.832 487.528,180.88 487.72,181 Z M476.944,174.424 C477.088,174.376 477.208,174.352 477.328,174.352 C477.616,174.352 477.856,174.52 478.024,174.808 C478.6,176.08 479.032,177.688 479.296,178.912 C479.32,179.008 479.32,179.104 479.32,179.176 C479.32,179.56 479.104,179.8 478.744,179.896 C478.624,179.92 478.504,179.944 478.408,179.944 C478.096,179.944 477.856,179.776 477.76,179.392 C477.496,178.192 477.04,176.56 476.488,175.384 C476.464,175.288 476.44,175.192 476.44,175.096 C476.44,174.808 476.608,174.544 476.944,174.424 Z M485.152,174.304 C485.536,174.4 485.728,174.64 485.728,174.976 C485.728,175.048 485.728,175.12 485.704,175.192 C485.416,176.488 484.768,178.288 484.144,179.536 C483.976,179.848 483.736,179.992 483.472,179.992 C483.376,179.992 483.256,179.968 483.16,179.92 C482.824,179.776 482.68,179.512 482.68,179.2 C482.68,179.104 482.704,178.984 482.728,178.888 C483.28,177.808 483.904,175.936 484.168,174.76 C484.24,174.424 484.552,174.28 484.888,174.28 C484.96,174.28 485.056,174.28 485.152,174.304 Z M434.848,205.504 L428.704,205.504 C428.296,205.504 428.056,205.192 428.056,204.736 C428.056,204.28 428.296,203.968 428.704,203.968 L436.168,203.968 C436.552,203.512 436.912,203.008 437.152,202.576 C437.296,202.264 437.584,202.096 437.92,202.096 C438.016,202.096 438.112,202.12 438.208,202.144 C438.616,202.216 438.88,202.504 438.88,202.816 C438.88,202.912 438.856,203.008 438.784,203.128 C438.64,203.368 438.424,203.68 438.208,203.968 L449.248,203.968 C449.656,203.968 449.92,204.28 449.92,204.736 C449.92,205.192 449.656,205.504 449.248,205.504 L442.672,205.504 C444.424,207.184 446.896,208.432 449.608,209.032 C450.016,209.128 450.184,209.416 450.184,209.8 C450.184,209.896 450.16,210.016 450.136,210.136 C450.016,210.544 449.752,210.784 449.344,210.784 C449.248,210.784 449.152,210.76 449.032,210.736 C445.984,209.944 442.768,208.144 440.608,205.504 L437.056,205.504 C434.848,207.808 432.064,209.392 429.04,210.256 C428.944,210.28 428.824,210.304 428.728,210.304 C428.344,210.304 428.08,210.088 427.936,209.632 C427.912,209.536 427.888,209.44 427.888,209.344 C427.888,209.008 428.08,208.744 428.488,208.624 C431.032,207.928 433.168,206.896 434.848,205.504 Z M435.688,200.464 C438.4,200.368 441.088,200.296 443.776,200.08 C443.2,199.624 442.648,199.192 442.096,198.808 C441.832,198.64 441.712,198.448 441.712,198.232 C441.712,198.04 441.808,197.872 441.976,197.704 C442.144,197.536 442.336,197.464 442.552,197.464 C442.744,197.464 442.96,197.536 443.152,197.656 C444.712,198.736 446.488,200.176 447.88,201.496 C448.072,201.688 448.168,201.904 448.168,202.096 C448.168,202.312 448.072,202.528 447.904,202.696 C447.712,202.864 447.496,202.96 447.256,202.96 C447.04,202.96 446.8,202.864 446.608,202.672 C446.2,202.24 445.72,201.784 445.24,201.328 C441.064,201.784 435.304,202.072 430.552,202.096 C430,202.096 429.712,201.832 429.688,201.304 L429.688,201.256 C429.688,200.8 429.976,200.488 430.48,200.488 L433.624,200.488 C434.44,199.576 435.4,198.28 436.072,197.104 C436.264,196.768 436.552,196.624 436.864,196.624 C437.008,196.624 437.152,196.648 437.32,196.696 C437.656,196.792 437.872,197.032 437.872,197.344 C437.872,197.464 437.824,197.632 437.728,197.776 C437.152,198.712 436.432,199.648 435.688,200.464 Z M439.432,206.992 C439.576,206.896 439.744,206.848 439.912,206.848 C440.104,206.848 440.32,206.92 440.488,207.088 C440.656,207.28 440.752,207.496 440.752,207.688 C440.752,207.88 440.656,208.072 440.512,208.216 C438.352,209.992 434.92,211.384 431.944,211.984 C431.872,212.008 431.824,212.008 431.752,212.008 C431.392,212.008 431.128,211.768 431.008,211.36 C430.984,211.288 430.984,211.192 430.984,211.12 C430.984,210.76 431.2,210.496 431.56,210.448 C434.416,209.896 437.56,208.576 439.432,206.992 Z M445.312,212.2 C445.48,212.056 445.648,212.008 445.84,212.008 C446.08,212.008 446.32,212.128 446.488,212.32 C446.656,212.512 446.752,212.728 446.752,212.92 C446.752,213.136 446.632,213.376 446.392,213.568 C443.008,216.376 437.464,218.584 432.256,219.088 L432.088,219.088 C431.608,219.088 431.296,218.8 431.248,218.344 C431.224,218.296 431.224,218.224 431.224,218.176 C431.224,217.768 431.464,217.48 431.944,217.432 C436.888,216.928 442.096,214.888 445.312,212.2 Z M442.288,209.464 C442.408,209.368 442.576,209.32 442.72,209.32 C442.936,209.32 443.176,209.416 443.368,209.608 C443.536,209.776 443.608,209.968 443.608,210.16 C443.608,210.4 443.512,210.616 443.32,210.784 C440.128,213.304 436.048,214.744 432.112,215.368 L431.968,215.368 C431.512,215.368 431.272,215.104 431.176,214.672 C431.152,214.6 431.152,214.528 431.152,214.48 C431.152,214.144 431.344,213.832 431.752,213.76 C435.592,213.16 439.408,211.792 442.288,209.464 Z M464.824,199.168 L461.488,199.168 C461.056,199.168 460.816,198.856 460.816,198.376 C460.816,197.872 461.056,197.56 461.488,197.56 L471.16,197.56 C472.552,197.56 473.224,198.064 473.224,199.36 L473.224,199.504 C473.2,200.608 473.032,201.928 472.768,202.792 C472.408,203.872 471.712,204.304 469.984,204.304 C469.072,204.304 468.256,204.208 467.584,204.016 C467.2,203.92 466.984,203.632 466.984,203.272 C466.984,203.176 467.008,203.08 467.032,202.96 C467.152,202.576 467.416,202.384 467.752,202.384 C467.824,202.384 467.896,202.384 467.992,202.408 C468.472,202.552 469.192,202.672 469.768,202.672 C470.68,202.672 470.992,202.48 471.136,202 C471.328,201.352 471.424,200.512 471.448,199.792 L471.448,199.72 C471.448,199.288 471.208,199.168 470.752,199.168 L466.648,199.168 C466.216,201.832 464.68,203.872 461.68,205.12 C461.536,205.192 461.392,205.216 461.272,205.216 C460.936,205.216 460.648,205.048 460.48,204.664 C460.432,204.544 460.408,204.424 460.408,204.304 C460.408,203.944 460.6,203.632 460.936,203.488 C463.12,202.624 464.512,201.16 464.824,199.168 Z M459.952,199.552 L459.952,210.016 C459.952,211.48 459.352,212.008 457.96,212.008 L454.936,212.008 C453.52,212.008 452.896,211.48 452.896,210.016 L452.896,199.552 C452.896,198.112 453.52,197.584 454.936,197.584 L457.96,197.584 C459.352,197.584 459.952,198.112 459.952,199.552 Z M454.624,203.824 L458.224,203.824 L458.224,199.816 C458.224,199.336 457.984,199.216 457.552,199.216 L455.296,199.216 C454.84,199.216 454.624,199.336 454.624,199.816 L454.624,203.824 Z M458.224,205.384 L454.624,205.384 L454.624,209.752 C454.624,210.232 454.84,210.376 455.296,210.376 L457.552,210.376 C457.984,210.376 458.224,210.232 458.224,209.752 L458.224,205.384 Z M463.528,205.672 L470.824,205.672 C472.144,205.672 472.792,206.248 472.792,207.592 L472.792,210.64 C472.792,211.984 472.144,212.56 470.824,212.56 L463.528,212.56 C462.184,212.56 461.56,211.984 461.56,210.64 L461.56,207.592 C461.56,206.248 462.184,205.672 463.528,205.672 Z M464.056,210.976 L470.296,210.976 C470.8,210.976 471.016,210.856 471.016,210.304 L471.016,207.928 C471.016,207.376 470.8,207.256 470.296,207.256 L464.056,207.256 C463.552,207.256 463.336,207.376 463.336,207.928 L463.336,210.304 C463.336,210.856 463.552,210.976 464.056,210.976 Z M456.784,214.432 C456.136,215.824 455.032,217.48 453.904,218.608 C453.688,218.824 453.424,218.944 453.184,218.944 C452.944,218.944 452.728,218.848 452.512,218.68 C452.296,218.488 452.176,218.224 452.176,217.984 C452.176,217.744 452.272,217.528 452.44,217.336 C453.496,216.256 454.504,214.864 455.128,213.592 C455.272,213.256 455.56,213.112 455.872,213.112 C456.04,213.112 456.208,213.16 456.4,213.232 C456.712,213.352 456.88,213.64 456.88,213.952 C456.88,214.12 456.856,214.264 456.784,214.432 Z M459.064,214.36 C459.04,214.288 459.04,214.24 459.04,214.168 C459.04,213.784 459.376,213.472 459.808,213.424 C459.88,213.4 459.928,213.4 460,213.4 C460.408,213.4 460.72,213.616 460.84,214.048 C461.128,215.32 461.368,216.712 461.488,217.888 L461.488,218.008 C461.488,218.512 461.2,218.848 460.648,218.92 L460.48,218.92 C459.976,218.92 459.64,218.632 459.616,218.152 C459.52,216.88 459.304,215.368 459.064,214.36 Z M464.128,214.48 C464.104,214.36 464.08,214.264 464.08,214.168 C464.08,213.832 464.296,213.568 464.68,213.448 C464.8,213.424 464.896,213.4 465.016,213.4 C465.4,213.4 465.712,213.616 465.856,213.952 C466.36,215.104 466.84,216.448 467.128,217.6 C467.152,217.72 467.176,217.816 467.176,217.912 C467.176,218.32 466.936,218.632 466.48,218.752 C466.36,218.776 466.264,218.8 466.168,218.8 C465.736,218.8 465.4,218.56 465.304,218.08 C465.064,217.144 464.56,215.512 464.128,214.48 Z M470.68,213.616 C471.64,214.624 472.864,216.184 473.56,217.336 C473.68,217.504 473.728,217.72 473.728,217.912 C473.728,218.224 473.584,218.536 473.32,218.704 C473.128,218.824 472.936,218.872 472.768,218.872 C472.432,218.872 472.12,218.704 471.904,218.392 C471.256,217.24 470.008,215.656 469.168,214.72 C469.048,214.576 468.976,214.384 468.976,214.192 C468.976,213.928 469.12,213.664 469.36,213.496 C469.552,213.4 469.768,213.328 469.984,213.328 C470.248,213.328 470.488,213.424 470.68,213.616 Z" id="推薦資料-参照-copy"></path>
            <path d="M12.96,181.312 L16.536,181.312 C16.968,181.312 17.232,181.624 17.232,182.128 C17.232,182.632 16.968,182.968 16.536,182.968 L12.96,182.968 L12.96,190.24 C12.96,190.672 12.648,190.936 12.096,190.936 C11.544,190.936 11.208,190.672 11.208,190.24 L11.208,182.968 L7.584,182.968 C7.152,182.968 6.888,182.632 6.888,182.128 C6.888,181.624 7.152,181.312 7.584,181.312 L11.208,181.312 L11.208,177.16 C11.208,176.704 11.544,176.464 12.096,176.464 C12.648,176.464 12.96,176.704 12.96,177.16 L12.96,181.312 Z M4.176,189.76 L4.176,184.48 C4.176,184 4.032,183.856 3.6,183.856 L1.464,183.856 C1.032,183.856 0.744,183.568 0.744,183.04 C0.744,182.488 1.032,182.2 1.464,182.2 L4.272,182.2 C5.496,182.2 6,182.824 6,184.096 L6,189.688 C6.672,191.176 7.992,191.944 9.432,192.208 C10.536,192.4 12.048,192.496 14.016,192.496 C16.992,192.496 19.848,192.328 22.296,192.112 L22.392,192.112 C22.944,192.112 23.256,192.472 23.28,193.048 L23.28,193.12 C23.28,193.648 22.968,193.984 22.368,194.032 C19.92,194.176 16.752,194.272 13.872,194.272 C11.808,194.272 10.008,194.176 8.856,193.888 C7.152,193.504 5.808,192.472 5.04,191.176 C4.248,192.184 3.024,193.36 2.016,194.104 C1.848,194.224 1.68,194.272 1.512,194.272 C1.248,194.272 0.984,194.128 0.792,193.84 C0.648,193.648 0.6,193.456 0.6,193.288 C0.6,193.024 0.72,192.76 0.984,192.592 C1.968,191.896 3.288,190.816 4.176,189.76 Z M3.048,173.512 C4.128,174.496 5.376,175.912 6.216,177.112 C6.36,177.328 6.432,177.52 6.432,177.712 C6.432,177.976 6.312,178.216 6.072,178.432 C5.856,178.6 5.616,178.696 5.4,178.696 C5.136,178.696 4.896,178.576 4.728,178.312 C3.912,177.088 2.76,175.768 1.704,174.76 C1.56,174.616 1.488,174.424 1.488,174.232 C1.488,174.016 1.584,173.8 1.824,173.608 C2.04,173.416 2.28,173.32 2.52,173.32 C2.712,173.32 2.88,173.392 3.048,173.512 Z M7.824,173.656 L17.544,173.656 C19.032,173.656 19.776,174.352 19.776,175.648 C19.776,182.176 20.016,186.136 21.144,188.272 C21.192,188.344 21.24,188.392 21.288,188.392 C21.336,188.392 21.384,188.344 21.408,188.2 C21.6,187.384 21.672,186.376 21.744,185.56 C21.792,185.128 22.104,184.936 22.464,184.936 L22.584,184.936 C22.992,184.984 23.28,185.248 23.28,185.704 L23.28,185.752 C23.208,187.264 22.968,188.848 22.44,189.808 C22.128,190.288 21.672,190.528 21.216,190.528 C20.808,190.528 20.352,190.312 20.016,189.904 C19.2,188.92 18.672,187.36 18.336,185.08 C18,182.944 17.88,179.944 17.88,176.128 C17.88,175.6 17.64,175.36 17.064,175.36 L7.824,175.36 C7.344,175.36 7.08,174.976 7.08,174.496 C7.08,174.04 7.32,173.656 7.824,173.656 Z M37.968,176.752 L31.824,176.752 C31.416,176.752 31.176,176.44 31.176,175.936 C31.176,175.456 31.416,175.144 31.824,175.144 L37.968,175.144 L37.968,173.368 C37.968,172.912 38.28,172.72 38.808,172.72 C39.312,172.72 39.672,172.912 39.672,173.368 L39.672,175.144 L46.2,175.144 C46.608,175.144 46.872,175.456 46.872,175.936 C46.872,176.416 46.608,176.752 46.2,176.752 L39.672,176.752 L39.672,178.6 L43.8,178.6 C45.192,178.6 45.768,179.056 45.768,180.352 L45.768,183.088 C45.768,184.36 45.192,184.84 43.872,184.84 L40.608,184.84 C42.288,186.64 44.568,188.08 46.584,188.848 C46.872,188.944 47.088,189.28 47.088,189.64 C47.088,189.784 47.064,189.904 46.992,190.048 C46.824,190.432 46.512,190.6 46.176,190.6 C46.056,190.6 45.912,190.576 45.768,190.528 C43.488,189.616 40.872,187.576 39.528,185.608 C39.6,186.16 39.672,186.976 39.672,187.792 L39.672,191.128 C39.672,191.56 39.312,191.776 38.808,191.776 C38.28,191.776 37.968,191.56 37.968,191.128 L37.968,187.816 C37.968,186.976 38.016,186.208 38.088,185.632 C36.672,187.48 34.584,189.088 32.472,190.168 C32.304,190.24 32.136,190.288 31.992,190.288 C31.656,190.288 31.392,190.12 31.2,189.808 C31.128,189.64 31.08,189.472 31.08,189.304 C31.08,189.016 31.248,188.728 31.584,188.584 C33.528,187.696 35.352,186.496 36.984,184.84 L33.936,184.84 C32.616,184.84 32.04,184.36 32.04,183.088 L32.04,180.352 C32.04,179.056 32.616,178.6 33.984,178.6 L37.968,178.6 L37.968,176.752 Z M39.672,183.424 L43.368,183.424 C43.848,183.424 44.04,183.28 44.04,182.848 L44.04,180.664 C44.04,180.232 43.848,180.112 43.368,180.112 L39.672,180.112 L39.672,183.424 Z M37.968,183.424 L37.968,180.112 L34.464,180.112 C33.984,180.112 33.768,180.232 33.768,180.664 L33.768,182.848 C33.768,183.28 33.984,183.424 34.464,183.424 L37.968,183.424 Z M30.024,184.288 L30.024,189.904 C30.744,191.44 32.088,192.16 33.528,192.4 C34.656,192.568 36.144,192.664 38.088,192.664 C41.04,192.664 43.968,192.544 46.416,192.328 L46.512,192.328 C47.064,192.328 47.352,192.664 47.376,193.24 L47.376,193.36 C47.376,193.864 47.064,194.176 46.488,194.224 C44.04,194.32 40.8,194.416 37.944,194.416 C35.88,194.416 34.056,194.32 32.88,194.032 C31.176,193.672 29.832,192.784 29.064,191.344 C28.224,192.424 27.096,193.552 26.136,194.296 C25.968,194.416 25.8,194.464 25.608,194.464 C25.368,194.464 25.104,194.344 24.912,194.08 C24.744,193.864 24.672,193.648 24.672,193.432 C24.672,193.192 24.792,192.952 25.008,192.808 C25.92,192.136 27.408,190.936 28.224,189.784 L28.224,184.696 C28.224,184.24 28.08,184.072 27.648,184.072 L25.56,184.072 C25.152,184.072 24.864,183.808 24.864,183.256 C24.864,182.704 25.152,182.416 25.56,182.416 L28.272,182.416 C29.496,182.416 30.024,183.016 30.024,184.288 Z M26.976,173.536 C28.056,174.496 29.304,175.96 30.12,177.16 C30.288,177.376 30.36,177.568 30.36,177.76 C30.36,178.024 30.216,178.24 29.952,178.456 C29.76,178.624 29.52,178.72 29.28,178.72 C29.04,178.72 28.824,178.624 28.632,178.36 C27.792,177.112 26.664,175.72 25.656,174.784 C25.512,174.64 25.416,174.448 25.416,174.256 C25.416,174.04 25.536,173.824 25.752,173.608 C25.992,173.416 26.208,173.32 26.448,173.32 C26.64,173.32 26.808,173.392 26.976,173.536 Z M64.488,176.584 C66.312,177.28 68.232,178.312 69.576,179.224 C69.912,179.44 70.056,179.8 70.056,180.112 C70.056,180.304 70.008,180.496 69.912,180.664 C69.72,180.952 69.408,181.12 69.096,181.12 C68.88,181.12 68.688,181.048 68.496,180.928 C67.08,179.944 65.28,179.008 63.48,178.288 C63.168,178.168 63.024,177.88 63.024,177.568 C63.024,177.376 63.072,177.184 63.168,177.016 C63.384,176.68 63.696,176.512 64.056,176.512 C64.2,176.512 64.344,176.536 64.488,176.584 Z M56.256,179.224 C55.104,182.992 53.544,186.784 51.744,189.928 C51.504,190.336 51.192,190.552 50.856,190.552 C50.64,190.552 50.424,190.48 50.184,190.336 C49.872,190.144 49.728,189.856 49.728,189.544 C49.728,189.328 49.8,189.064 49.944,188.824 C51.6,186.016 53.208,182.584 54.192,179.344 C53.304,179.392 52.368,179.416 51.432,179.416 L50.52,179.416 C49.968,179.416 49.68,179.056 49.68,178.48 C49.68,177.904 50.016,177.544 50.568,177.544 L51.6,177.544 C52.632,177.544 53.712,177.52 54.744,177.472 C55.08,176.296 55.368,175.096 55.608,173.872 C55.656,173.344 56.016,173.08 56.496,173.08 C56.568,173.08 56.64,173.08 56.736,173.104 C57.264,173.2 57.576,173.464 57.576,173.944 C57.576,174.04 57.576,174.136 57.552,174.256 C57.336,175.24 57.096,176.272 56.832,177.304 C58.008,177.208 59.136,177.112 60.144,176.968 C60.216,176.944 60.288,176.944 60.36,176.944 C60.84,176.944 61.128,177.232 61.224,177.736 L61.224,177.88 C61.224,178.336 60.936,178.696 60.36,178.792 C59.112,178.984 57.696,179.104 56.256,179.224 Z M65.4,187.384 C67.008,188.152 68.712,189.28 69.912,190.48 C70.152,190.72 70.272,191.008 70.272,191.272 C70.272,191.512 70.176,191.752 70.008,191.944 C69.792,192.16 69.552,192.28 69.312,192.28 C69.072,192.28 68.808,192.16 68.592,191.968 C67.656,191.032 66.48,190.048 65.472,189.472 C65.52,189.76 65.52,190.072 65.52,190.288 C65.4,192.904 63.72,194.128 60.456,194.128 C57.456,194.128 55.464,192.544 55.464,190.288 C55.464,187.984 57.504,186.328 60.48,186.328 C61.488,186.328 62.472,186.472 63.456,186.736 C63.312,185.392 63.192,183.496 63.192,181.936 C63.192,181.24 63.6,180.952 64.128,180.952 C64.704,180.952 65.112,181.264 65.112,181.936 C65.112,184 65.208,185.68 65.4,187.384 Z M63.6,188.656 C62.64,188.224 61.56,188.032 60.528,188.032 C58.584,188.032 57.36,188.944 57.36,190.264 C57.36,191.584 58.536,192.328 60.504,192.328 C62.544,192.328 63.648,191.56 63.648,189.856 C63.648,189.472 63.648,189.136 63.6,188.656 Z M19.8,205.504 L17.952,205.504 C17.784,210.664 16.944,214.984 14.928,218.152 C14.76,218.512 14.448,218.68 14.136,218.68 C13.944,218.68 13.752,218.632 13.56,218.512 C13.248,218.32 13.08,218.032 13.08,217.696 C13.08,217.528 13.128,217.36 13.2,217.192 C15.528,213.736 16.104,208.792 16.104,202.504 L16.104,200.272 C16.104,198.688 16.896,197.992 18.432,197.992 L33.744,197.992 C34.2,197.992 34.464,198.352 34.464,198.856 C34.464,199.384 34.2,199.768 33.744,199.768 L19.056,199.768 C18.264,199.768 18,200.008 18,200.776 L18,203.776 L30.6,203.776 C31.872,203.776 32.52,204.424 32.52,205.36 C32.52,205.72 32.448,206.08 32.28,206.488 C31.248,208.984 29.568,211.312 27.432,213.304 C29.568,214.84 31.968,215.944 34.2,216.688 C34.632,216.832 34.872,217.144 34.872,217.528 C34.872,217.696 34.848,217.84 34.776,218.008 C34.632,218.464 34.296,218.704 33.84,218.704 C33.72,218.704 33.576,218.68 33.432,218.632 C30.96,217.792 28.296,216.472 25.968,214.576 C23.856,216.256 21.408,217.624 18.792,218.584 C18.624,218.656 18.432,218.68 18.288,218.68 C17.904,218.68 17.592,218.488 17.448,218.128 C17.376,217.96 17.352,217.816 17.352,217.672 C17.352,217.288 17.592,216.976 18.144,216.784 C20.424,215.968 22.632,214.792 24.552,213.352 C23.208,212.056 22.08,210.592 21.192,208.984 C20.592,207.88 20.136,206.704 19.8,205.504 Z M29.808,205.504 L21.648,205.504 C22.416,208.12 23.976,210.352 25.992,212.152 C27.936,210.424 29.448,208.408 30.312,206.2 C30.384,206.056 30.408,205.936 30.408,205.84 C30.408,205.6 30.24,205.504 29.808,205.504 Z M49.392,199.336 L58.224,199.336 C58.728,199.336 58.896,199.72 58.896,200.2 C58.896,200.68 58.728,201.064 58.224,201.064 L41.616,201.064 C40.776,201.064 40.488,201.352 40.488,202.096 C40.488,205.024 40.392,208.792 40.152,211.048 C39.912,213.304 39.36,216.16 38.496,217.96 C38.28,218.416 37.968,218.656 37.584,218.656 C37.464,218.656 37.32,218.632 37.152,218.56 C36.792,218.368 36.6,218.152 36.6,217.84 C36.6,217.672 36.648,217.48 36.744,217.264 C37.536,215.56 38.088,213.256 38.352,210.328 C38.52,208.264 38.568,204.568 38.568,201.736 C38.568,200.128 39.432,199.336 40.968,199.336 L47.472,199.336 L47.472,197.392 C47.472,196.936 47.88,196.648 48.432,196.648 C49.008,196.648 49.392,196.936 49.392,197.392 L49.392,199.336 Z M46.176,216.472 L46.176,206.536 C46.176,206.128 46.56,205.84 47.112,205.84 C47.664,205.84 48.048,206.128 48.048,206.56 L48.048,216.064 C48.048,216.544 48.264,216.784 48.552,216.856 C49.008,217 49.656,217.024 50.4,217.024 C51.456,217.024 51.936,216.928 52.416,216.688 C52.896,216.448 52.968,216.184 53.088,215.44 C53.16,214.96 53.256,214.048 53.256,213.136 C53.256,212.608 53.592,212.296 54.12,212.296 L54.168,212.296 C54.72,212.32 55.032,212.68 55.032,213.184 C55.032,214.576 54.888,216.064 54.648,216.784 C54.36,217.624 53.952,218.08 53.256,218.392 C52.752,218.632 51.864,218.752 50.496,218.752 C48.72,218.752 47.904,218.728 47.28,218.464 C46.512,218.128 46.176,217.576 46.176,216.472 Z M42.576,208.336 C42.624,207.88 42.984,207.592 43.488,207.592 L43.584,207.592 C44.112,207.64 44.448,207.952 44.448,208.456 L44.448,208.624 C44.136,211.048 43.584,213.808 42.672,215.968 C42.504,216.352 42.192,216.544 41.832,216.544 C41.688,216.544 41.544,216.52 41.4,216.448 C41.016,216.28 40.8,216.016 40.8,215.656 C40.8,215.536 40.824,215.392 40.872,215.248 C41.784,213.28 42.336,210.688 42.576,208.336 Z M48.144,202.312 C49.704,203.08 51.552,204.28 52.968,205.384 C53.208,205.552 53.304,205.792 53.304,206.056 C53.304,206.272 53.232,206.488 53.088,206.704 C52.896,206.968 52.632,207.112 52.368,207.112 C52.152,207.112 51.96,207.04 51.768,206.896 C50.424,205.744 48.432,204.448 47.064,203.728 C46.776,203.56 46.632,203.368 46.632,203.128 C46.632,202.96 46.704,202.768 46.848,202.552 C47.064,202.264 47.304,202.144 47.568,202.144 C47.736,202.144 47.952,202.216 48.144,202.312 Z M54.72,208.624 C54.648,208.504 54.624,208.384 54.624,208.264 C54.624,207.928 54.864,207.64 55.224,207.472 C55.344,207.424 55.488,207.4 55.608,207.4 C55.968,207.4 56.28,207.616 56.424,207.904 C57.528,210.136 58.464,212.752 58.968,214.984 C58.992,215.08 58.992,215.176 58.992,215.248 C58.992,215.68 58.752,215.992 58.296,216.136 C58.176,216.16 58.08,216.184 57.96,216.184 C57.552,216.184 57.216,215.944 57.12,215.488 C56.664,213.232 55.776,210.664 54.72,208.624 Z" id="迅速な-反応-copy"></path>
            <path d="M164.04,320.008 L171.432,320.008 C172.056,320.008 172.32,320.416 172.32,320.92 C172.32,321.448 172.056,321.88 171.432,321.88 L163.968,321.88 C163.944,322.288 163.92,322.672 163.896,323.032 C163.512,327.76 160.608,330.736 156.264,332.08 C156.072,332.152 155.904,332.176 155.736,332.176 C155.376,332.176 155.088,332.008 154.92,331.624 C154.848,331.48 154.824,331.312 154.824,331.168 C154.824,330.712 155.064,330.328 155.496,330.184 C159.024,329.032 161.496,326.968 161.832,322.576 C161.856,322.336 161.856,322.096 161.88,321.88 L152.664,321.88 C152.064,321.88 151.8,321.448 151.8,320.92 C151.8,320.416 152.064,320.008 152.688,320.008 L161.976,320.008 C162.024,318.616 162.024,317.08 162.024,315.688 C159.456,316.048 156.408,316.336 154.344,316.36 C153.744,316.36 153.432,316.048 153.384,315.52 L153.384,315.424 C153.384,314.92 153.72,314.512 154.2,314.512 C156.48,314.512 159.624,314.176 162.24,313.744 C164.592,313.36 167.256,312.76 169.032,312.064 C169.176,311.992 169.344,311.968 169.488,311.968 C169.848,311.968 170.16,312.16 170.352,312.496 C170.424,312.664 170.472,312.832 170.472,313 C170.472,313.36 170.256,313.72 169.848,313.864 C168.288,314.416 166.176,314.992 164.088,315.376 C164.088,316.984 164.088,318.544 164.04,320.008 Z M184.272,319.456 L191.568,318.28 C191.76,318.256 191.952,318.232 192.12,318.232 C192.792,318.232 193.248,318.448 193.584,318.784 C193.896,319.096 194.04,319.528 194.04,320.032 C194.04,320.44 193.944,320.872 193.752,321.352 C193.032,323.296 191.088,325.408 189.072,326.56 C188.904,326.656 188.736,326.704 188.568,326.704 C188.256,326.704 187.992,326.536 187.824,326.296 C187.704,326.128 187.656,325.96 187.656,325.768 C187.656,325.456 187.8,325.144 188.088,324.976 C189.912,323.92 191.232,322.36 191.856,320.968 C191.928,320.776 191.976,320.608 191.976,320.488 C191.976,320.224 191.808,320.08 191.496,320.08 C191.4,320.08 191.328,320.08 191.232,320.104 L184.632,321.208 L186.672,331.312 L186.672,331.456 C186.672,331.888 186.312,332.224 185.856,332.32 C185.76,332.344 185.688,332.344 185.616,332.344 C185.256,332.344 184.92,332.128 184.824,331.672 L182.76,321.52 L178.68,322.192 C178.608,322.216 178.56,322.216 178.512,322.216 C178.104,322.216 177.768,321.976 177.696,321.496 C177.672,321.424 177.672,321.352 177.672,321.304 C177.672,320.848 177.936,320.464 178.344,320.392 L182.4,319.744 L181.776,316.696 C181.752,316.624 181.752,316.552 181.752,316.48 C181.752,316.024 182.088,315.712 182.52,315.664 C182.592,315.64 182.664,315.64 182.736,315.64 C183.168,315.64 183.552,315.856 183.648,316.312 L184.272,319.456 Z M202.968,328.072 L203.04,313.096 C203.04,312.52 203.472,312.136 204.12,312.136 C204.768,312.136 205.2,312.52 205.2,313.096 L205.104,327.544 C205.104,328.504 205.464,328.912 206.232,328.912 C206.328,328.912 206.424,328.912 206.544,328.888 C210.528,328.36 215.28,325.72 217.848,321.352 C218.064,320.968 218.376,320.776 218.736,320.776 C218.928,320.776 219.12,320.848 219.312,320.968 C219.624,321.184 219.768,321.496 219.768,321.832 C219.768,322.024 219.696,322.264 219.6,322.456 C216.936,327.232 211.488,330.52 206.52,331.072 C206.304,331.072 206.088,331.096 205.872,331.096 C205.032,331.096 204.36,330.88 203.856,330.472 C203.28,329.968 202.968,329.2 202.968,328.072 Z M227.088,313.624 C228.84,314.728 231.024,316.432 232.416,318.136 C232.608,318.376 232.704,318.64 232.704,318.904 C232.704,319.192 232.584,319.48 232.368,319.72 C232.176,319.936 231.912,320.056 231.624,320.056 C231.336,320.056 231.024,319.912 230.736,319.6 C229.416,318.088 227.448,316.384 225.72,315.208 C225.456,315.016 225.336,314.728 225.336,314.44 C225.336,314.2 225.432,313.936 225.6,313.744 C225.816,313.48 226.08,313.384 226.368,313.384 C226.632,313.384 226.872,313.48 227.088,313.624 Z M243.168,315.376 C243.672,315.52 243.984,315.856 243.984,316.36 C243.984,316.504 243.96,316.648 243.936,316.792 C242.952,320.872 240.672,324.76 237.336,327.28 C234.432,329.464 229.992,330.88 226.272,331.024 L226.224,331.024 C225.6,331.024 225.144,330.664 225.096,330.064 L225.096,329.944 C225.096,329.368 225.456,328.912 226.056,328.888 C229.608,328.72 233.688,327.328 236.088,325.48 C238.896,323.296 240.984,319.792 241.848,316.24 C242.016,315.592 242.376,315.328 242.808,315.328 C242.928,315.328 243.048,315.352 243.168,315.376 Z M257.376,315.424 C257.712,315.664 257.88,315.976 257.88,316.288 C257.88,316.48 257.832,316.672 257.736,316.84 C257.544,317.2 257.184,317.392 256.8,317.392 C256.608,317.392 256.416,317.344 256.248,317.224 C254.64,316.192 252.648,315.112 250.992,314.44 C250.632,314.296 250.44,314.008 250.44,313.648 C250.44,313.48 250.488,313.288 250.608,313.12 C250.824,312.76 251.136,312.568 251.496,312.568 C251.664,312.568 251.832,312.592 252.024,312.664 C253.656,313.312 255.696,314.344 257.376,315.424 Z M250.032,318.496 C251.808,319.192 254.064,320.392 255.72,321.424 C256.056,321.64 256.2,321.952 256.2,322.264 C256.2,322.48 256.128,322.72 256.032,322.912 C255.84,323.248 255.48,323.416 255.12,323.416 C254.904,323.416 254.664,323.344 254.472,323.2 C253.08,322.24 250.872,321.04 249.072,320.272 C248.736,320.128 248.544,319.864 248.544,319.528 C248.544,319.336 248.592,319.144 248.712,318.952 C248.904,318.568 249.192,318.4 249.528,318.4 C249.696,318.4 249.84,318.424 250.032,318.496 Z M266.832,316.936 C267.288,317.08 267.576,317.416 267.576,317.896 C267.576,318.016 267.552,318.136 267.528,318.28 C266.4,322.336 264.072,325.768 260.976,328.072 C258.168,330.16 253.944,331.504 250.128,331.768 L249.984,331.768 C249.384,331.768 248.952,331.432 248.904,330.784 C248.88,330.736 248.88,330.664 248.88,330.616 C248.88,330.088 249.192,329.728 249.84,329.68 C253.344,329.44 257.304,328.24 259.824,326.32 C262.536,324.256 264.552,321.376 265.536,317.704 C265.656,317.2 265.968,316.888 266.448,316.888 C266.568,316.888 266.688,316.888 266.832,316.936 Z M263.496,312.256 C263.496,311.944 263.808,311.608 264.192,311.608 C264.456,311.608 264.624,311.68 264.816,311.872 C265.56,312.616 266.424,313.768 266.88,314.56 C266.952,314.704 267.048,314.872 267.048,315.184 C267.048,315.544 266.712,315.856 266.256,315.856 C265.968,315.856 265.776,315.736 265.632,315.448 C265.128,314.56 264.408,313.576 263.736,312.832 C263.592,312.664 263.496,312.472 263.496,312.256 Z M266.208,310.792 C266.208,310.48 266.568,310.168 266.904,310.168 C267.168,310.168 267.336,310.264 267.552,310.456 C268.176,311.056 269.088,312.304 269.52,313.072 C269.592,313.216 269.664,313.408 269.664,313.672 C269.664,313.96 269.376,314.344 268.92,314.344 C268.632,314.344 268.464,314.224 268.296,313.96 C267.768,313.048 267.144,312.112 266.496,311.416 C266.28,311.2 266.208,311.08 266.208,310.792 Z M277.824,319.408 L280.968,319.408 C280.728,318.664 280.416,317.92 280.056,317.224 L277.392,317.224 C276.984,317.224 276.792,316.888 276.792,316.456 C276.792,316.048 276.984,315.736 277.392,315.736 L283.704,315.736 L283.704,314.032 L278.496,314.032 C278.112,314.032 277.896,313.672 277.896,313.24 C277.896,312.856 278.112,312.472 278.496,312.472 L283.704,312.472 L283.704,311.248 C283.704,310.816 284.064,310.624 284.592,310.624 C285.12,310.624 285.456,310.816 285.456,311.248 L285.456,312.472 L291.072,312.472 C291.432,312.472 291.672,312.856 291.672,313.24 C291.672,313.672 291.432,314.032 291.072,314.032 L285.456,314.032 L285.456,315.736 L292.152,315.736 C292.536,315.736 292.752,316.048 292.752,316.456 C292.752,316.888 292.536,317.224 292.152,317.224 L289.272,317.224 C289.008,317.968 288.648,318.688 288.288,319.408 L291.816,319.408 C292.2,319.408 292.416,319.72 292.416,320.128 C292.416,320.56 292.2,320.896 291.816,320.896 L285.504,320.896 L285.504,322.624 L290.88,322.624 C291.264,322.624 291.48,322.984 291.48,323.392 C291.48,323.8 291.264,324.16 290.88,324.16 L285.504,324.16 L285.504,325.888 L292.08,325.888 C292.464,325.888 292.656,326.272 292.656,326.656 C292.656,327.088 292.464,327.4 292.08,327.4 L285.504,327.4 L285.504,329.608 C285.504,330.064 285.144,330.304 284.616,330.304 C284.088,330.304 283.752,330.064 283.752,329.608 L283.752,327.4 L277.584,327.4 C277.2,327.4 276.96,327.064 276.96,326.656 C276.96,326.272 277.152,325.888 277.56,325.888 L283.752,325.888 L283.752,324.16 L278.664,324.16 C278.28,324.16 278.064,323.8 278.064,323.392 C278.064,322.984 278.28,322.624 278.664,322.624 L283.752,322.624 L283.752,320.896 L277.824,320.896 C277.44,320.896 277.224,320.56 277.224,320.128 C277.224,319.72 277.44,319.408 277.824,319.408 Z M282.744,319.408 L286.464,319.408 C286.848,318.712 287.136,317.968 287.424,317.224 L281.88,317.224 C282.216,317.92 282.504,318.664 282.744,319.408 Z M275.88,322.288 L275.88,327.928 C276.504,329.488 277.872,330.208 279.336,330.448 C280.464,330.616 282,330.712 283.92,330.712 C286.896,330.712 289.872,330.592 292.32,330.4 L292.44,330.4 C293.016,330.4 293.256,330.712 293.304,331.288 L293.304,331.36 C293.304,331.888 293.016,332.224 292.392,332.272 C289.944,332.368 286.656,332.464 283.776,332.464 C281.712,332.464 279.912,332.344 278.736,332.08 C277.032,331.696 275.664,330.808 274.92,329.368 C274.032,330.472 272.952,331.48 271.992,332.224 C271.824,332.32 271.632,332.392 271.44,332.392 C271.2,332.392 270.936,332.272 270.72,332.008 C270.576,331.816 270.504,331.6 270.504,331.408 C270.504,331.144 270.624,330.904 270.888,330.736 C271.824,330.088 273.168,328.96 274.08,327.88 L274.08,322.672 C274.08,322.216 273.912,322.072 273.48,322.072 L271.416,322.072 C270.984,322.072 270.696,321.784 270.696,321.232 C270.696,320.68 270.984,320.392 271.416,320.392 L274.128,320.392 C275.352,320.392 275.88,321.04 275.88,322.288 Z M273.048,311.632 C274.056,312.592 275.064,313.864 275.928,315.064 C276.048,315.256 276.096,315.448 276.096,315.616 C276.096,315.904 275.952,316.168 275.688,316.36 C275.496,316.528 275.28,316.624 275.064,316.624 C274.8,316.624 274.536,316.504 274.368,316.24 C273.624,315.064 272.616,313.768 271.68,312.856 C271.512,312.712 271.44,312.52 271.44,312.328 C271.44,312.088 271.56,311.848 271.776,311.656 C271.968,311.488 272.208,311.392 272.424,311.392 C272.64,311.392 272.856,311.464 273.048,311.632 Z M316.2,316.216 L308.928,316.216 C309.072,319.096 309.408,321.52 310.008,323.584 C310.128,323.992 310.248,324.4 310.416,324.808 C311.616,323.056 312.576,321.088 313.248,318.928 C313.368,318.568 313.632,318.4 313.944,318.4 C314.088,318.4 314.232,318.424 314.376,318.496 C314.784,318.616 315,318.88 315,319.24 C315,319.36 314.976,319.48 314.952,319.6 C314.112,322.216 312.84,324.616 311.232,326.68 C311.976,328.168 312.888,329.392 313.8,330.112 C314.064,330.328 314.304,330.424 314.472,330.424 C314.688,330.424 314.832,330.28 314.952,329.992 C315.12,329.584 315.312,328.672 315.384,327.688 C315.432,327.184 315.768,326.944 316.248,326.944 L316.32,326.944 C316.824,326.968 317.136,327.28 317.136,327.736 L317.136,327.784 C317.04,329.104 316.704,330.592 316.152,331.48 C315.744,332.152 315.216,332.488 314.616,332.488 C314.088,332.488 313.488,332.224 312.84,331.744 C311.832,330.952 310.824,329.68 309.96,328.168 C308.28,329.968 306.288,331.432 304.08,332.512 C303.888,332.608 303.696,332.656 303.504,332.656 C303.216,332.656 302.928,332.512 302.76,332.224 C302.64,332.032 302.592,331.84 302.592,331.672 C302.592,331.36 302.76,331.096 303.096,330.928 C305.424,329.848 307.464,328.312 309.12,326.416 C308.832,325.768 308.592,325.072 308.376,324.352 C307.704,322.12 307.32,319.456 307.152,316.216 L299.664,316.216 C299.016,316.216 298.752,316.48 298.752,317.152 L298.752,319.984 L303.168,319.984 C304.512,319.984 305.136,320.608 305.136,321.952 C305.136,323.752 304.872,326.128 304.536,327.4 C304.176,328.912 303.36,329.272 301.872,329.272 C301.248,329.272 300.312,329.2 299.712,329.032 C299.304,328.912 299.064,328.648 299.064,328.264 C299.064,328.168 299.088,328.048 299.112,327.952 C299.208,327.52 299.448,327.352 299.784,327.352 C299.88,327.352 299.976,327.376 300.096,327.4 C300.552,327.496 301.2,327.568 301.68,327.568 C302.496,327.568 302.736,327.448 302.88,326.824 C303.168,325.648 303.336,323.872 303.336,322.288 C303.336,321.784 303.12,321.64 302.616,321.64 L298.728,321.64 C298.632,325.816 298.008,329.152 296.544,332.104 C296.376,332.512 296.088,332.656 295.752,332.656 C295.56,332.656 295.344,332.608 295.152,332.488 C294.84,332.344 294.672,332.104 294.672,331.816 C294.672,331.648 294.72,331.456 294.816,331.24 C296.448,328.12 296.928,324.688 296.928,319.48 L296.928,316.72 C296.928,315.256 297.648,314.512 299.112,314.512 L307.08,314.512 C307.056,313.552 307.032,312.568 307.032,311.512 C307.032,311.056 307.416,310.816 307.92,310.816 C308.448,310.816 308.832,311.056 308.832,311.512 C308.832,312.568 308.832,313.552 308.88,314.512 L316.2,314.512 C316.656,314.512 316.848,314.872 316.848,315.352 C316.848,315.856 316.656,316.216 316.2,316.216 Z M311.928,311.008 C312.768,311.416 313.872,312.112 314.592,312.736 C314.832,312.928 314.928,313.168 314.928,313.384 C314.928,313.576 314.856,313.768 314.736,313.912 C314.568,314.128 314.304,314.248 314.064,314.248 C313.872,314.248 313.68,314.176 313.488,314.032 C312.768,313.432 311.808,312.784 311.016,312.352 C310.752,312.208 310.632,311.968 310.632,311.728 C310.632,311.56 310.68,311.392 310.8,311.248 C310.968,311.008 311.208,310.888 311.472,310.888 C311.616,310.888 311.784,310.936 311.928,311.008 Z" id="チャレンジ達成-copy"></path>
        </g>
    </g>
</svg>