<svg width="558" height="389" xmlns="http://www.w3.org/2000/svg"><defs><linearGradient x1="50%" y1="0%" x2="50%" y2="100%" id="a"><stop stop-color="#E69877" offset="0%"/><stop stop-color="#F3C68D" offset="100%"/></linearGradient></defs><g fill="none" fill-rule="evenodd"><path fill="url(#a)" d="M-7-8h574v404H-7z"/><path d="M146.008 174.432c0-73.64 59.698-133.338 133.338-133.338a133.339 133.339 0 01133.34 133.338c0 73.641-59.699 133.339-133.34 133.339-73.64 0-133.338-59.698-133.338-133.339zm42.847 0c0 49.977 40.514 90.492 90.491 90.492 49.978 0 90.492-40.515 90.492-90.492 0-49.977-40.514-90.491-90.492-90.491-49.977 0-90.491 40.514-90.491 90.491z" fill="#CB4343"/><path d="M279.704 33.769c65.222.273 121.777 45.166 136.844 108.625l-24.483 5.813c-12.383-52.154-58.863-89.05-112.467-89.275l.106-25.163z" fill="#2F6070"/><path d="M279.704 32.769c65.222.273 121.777 45.166 136.844 108.625l-24.483 5.813c-12.383-52.154-58.863-89.05-112.467-89.275l.106-25.163z" fill="#2F6070"/><path d="M363.346 288.59c45.959-33.792 67.074-91.916 53.52-147.327l-24.302 5.944c11.152 45.595-6.222 93.422-44.038 121.227l14.82 20.156z" fill="#76C9AC"/><path d="M363.346 287.59c45.959-33.792 67.074-91.916 53.52-147.327l-24.302 5.944c11.152 45.595-6.222 93.422-44.038 121.227l14.82 20.156z" fill="#76C9AC"/><path fill="#2F6070" d="M410.613 158.473l-33.985-17.291 51.276-16.693z"/><path d="M281.624 33.377c-64.377-1.231-121.475 41.136-138.957 103.106l24.105 6.8c14.389-51.006 61.386-85.878 114.373-84.864l.48-25.042z" fill="#D2EADC"/><path d="M281.624 32.377c-64.377-1.231-121.475 41.136-138.957 103.106l24.105 6.8c14.389-51.006 61.386-85.878 114.373-84.864l.48-25.042z" fill="#D2EADC"/><path d="M193.927 288.748c-50.485-37.25-70.34-103.34-48.746-162.245l24.758 9.077c-17.563 47.906-1.415 101.656 39.643 131.95l-15.655 21.218z" fill="#76C9AC"/><path d="M193.927 288.748c-50.485-37.25-70.34-103.34-48.746-162.245l24.758 9.077c-17.563 47.906-1.415 101.656 39.643 131.95l-15.655 21.218z"/><path d="M195.927 287.748c-50.485-37.25-70.34-103.34-48.746-162.245l24.758 9.077c-17.563 47.906-1.415 101.656 39.643 131.95l-15.655 21.218z" fill="#76C9AC"/><path d="M195.927 287.748c-50.485-37.25-70.34-103.34-48.746-162.245l24.758 9.077c-17.563 47.906-1.415 101.656 39.643 131.95l-15.655 21.218z"/><path d="M191.466 287.043c47.818 36.927 113.83 39.345 164.221 6.015l-14.121-21.35c-41.258 27.29-95.304 25.31-134.455-4.925l-15.645 20.26z" fill="#2F6070"/><path d="M191.466 286.043c47.818 36.927 113.83 39.345 164.221 6.015l-14.121-21.35c-41.258 27.29-95.304 25.31-134.455-4.925l-15.645 20.26z" fill="#2F6070"/><path fill="#76C9AC" d="M165.057 107.307l16.725 34.3-51.024-17.576zM334.895 294.064l5.26-37.732 32.472 42.992z"/><path fill="#2F6070" d="M180.65 262.003l37.639-5.984-31.654 43.622z"/><path fill="#D2EADC" d="M305.966 45.633l-26.96 26.96v-53.92z"/><g fill="#2F6070"><path d="M76.124 34.096c.12-.144.288-.216.504-.216h8.832c1.152 0 1.752.6 1.752 1.44 0 .432-.168.936-.504 1.44-.864 1.32-1.992 2.568-3.336 3.696 1.752 1.224 3.744 2.016 5.856 2.544.456.12.648.432.648.816 0 .096-.024.192-.048.288-.096.504-.48.768-.912.768-.096 0-.192-.024-.312-.048-2.424-.672-4.704-1.752-6.672-3.264a23.674 23.674 0 01-7.176 3.36c-.096.024-.192.024-.288.024-.408 0-.744-.216-.864-.648-.024-.12-.048-.216-.048-.336 0-.384.216-.672.672-.792 2.28-.624 4.464-1.584 6.36-2.808-1.464-1.416-2.544-3.072-3.432-4.872h-.528c-.456 0-.696-.336-.696-.792 0-.12.024-.216.048-.312-.168.168-.408.24-.696.24-.528 0-.888-.24-.888-.696V31.96c0-1.272.624-1.8 1.92-1.8h8.088a26.03 26.03 0 002.088-3.984c.144-.384.432-.576.768-.576.12 0 .24.024.384.072.384.12.6.408.6.744 0 .12-.024.24-.072.384-.408.936-1.152 2.184-1.968 3.36h1.272c1.32 0 1.92.528 1.92 1.8v1.992c0 .456-.336.72-.888.72-.528 0-.912-.264-.912-.72v-1.656c0-.432-.216-.576-.624-.576h-10.2c-.408 0-.624.144-.624.576v1.632c0 .046 0 .114-.021.162l-.003.006zm8.616 1.392h-5.784c.792 1.44 1.8 2.76 3.024 3.864 1.176-.936 2.184-2.016 2.952-3.192.144-.192.192-.336.192-.432 0-.168-.144-.24-.384-.24zm-12.768-8.064h1.8c.432 0 .648.336.648.816 0 .48-.216.84-.648.84h-1.8v4.512c.384-.168.768-.36 1.128-.552a.677.677 0 01.36-.096c.264 0 .48.168.6.48.072.168.096.312.096.456 0 .288-.144.528-.504.72-.528.288-1.08.576-1.68.84v7.272c0 1.584-.552 2.112-2.256 2.112a7.88 7.88 0 01-1.44-.12c-.384-.072-.648-.384-.648-.816 0-.048 0-.12.024-.192.072-.456.312-.672.648-.672.048 0 .12 0 .192.024.24.048.672.096 1.008.096.576 0 .72-.072.72-.72v-6.192c-.648.264-1.296.504-1.872.72a.942.942 0 01-.336.072c-.336 0-.6-.24-.744-.696a1.853 1.853 0 01-.048-.36c0-.36.168-.6.528-.72a33.95 33.95 0 002.472-.888v-5.28h-2.136c-.432 0-.648-.36-.648-.84s.216-.816.648-.816h2.136v-4.008c0-.456.336-.696.864-.696.576 0 .888.24.888.696v4.008zm15.408-4.488c.072-.024.168-.024.24-.024.36 0 .624.24.744.648.024.12.048.216.048.336 0 .36-.192.624-.6.72-3.816.864-8.304 1.248-12.264 1.344H75.5c-.552 0-.792-.336-.792-.816v-.048c0-.456.288-.792.744-.792 3.864-.072 8.256-.48 11.928-1.368zm-11.04 3.432a.942.942 0 01.336-.072c.312 0 .6.168.768.456.336.552.696 1.272.912 1.848.024.096.048.216.048.312 0 .36-.216.624-.528.768a.963.963 0 01-.36.072.772.772 0 01-.72-.504 13.108 13.108 0 00-.84-1.776.974.974 0 01-.12-.408c0-.312.192-.576.504-.696zm4.536-.24c.12-.024.24-.048.336-.048.312 0 .6.168.768.456.36.624.72 1.392.912 2.016.024.12.048.264.048.36 0 .36-.192.624-.576.768-.12.024-.24.048-.336.048-.336 0-.6-.168-.744-.528a13.115 13.115 0 00-.84-1.968 1.071 1.071 0 01-.12-.432c0-.312.192-.576.552-.672zm16.44 1.992h-5.112c-.408 0-.648-.288-.648-.768 0-.48.24-.792.648-.792h3.48c-.384-.696-.936-1.44-1.392-1.992-.12-.144-.192-.312-.192-.456 0-.24.168-.456.48-.624a1.29 1.29 0 01.504-.12c.264 0 .504.144.72.384a16.846 16.846 0 011.776 2.808h1.776v-3.168c0-.48.36-.696.864-.696.576 0 .864.216.864.696v3.168h2.424v-3.144c0-.48.336-.696.864-.696.576 0 .864.216.864.696v3.144h2.064a17.863 17.863 0 001.728-2.688c.192-.36.432-.504.744-.504.12 0 .264.024.408.072.36.12.552.432.552.72 0 .12-.024.24-.096.336-.36.6-.864 1.32-1.44 2.064h3.6c.408 0 .648.312.648.792 0 .48-.24.768-.648.768h-5.328a16.91 16.91 0 01-1.248 2.568h5.664c.384 0 .6.288.6.72 0 .456-.216.744-.6.744h-8.664v1.656h7.224c.384 0 .6.288.6.72s-.216.744-.6.744h-7.224v1.68h9.528c.384 0 .624.288.624.744s-.24.744-.624.744h-8.256c2.304 1.896 5.136 3.144 8.544 3.912.456.096.672.456.672.84 0 .12-.024.216-.048.312-.12.456-.432.72-.864.72-.096 0-.192 0-.288-.048-3.576-.936-7.296-2.784-9.528-5.232.144.504.24 1.128.24 1.728v3.816c0 .408-.336.696-.888.696-.504 0-.84-.288-.84-.696v-3.816c0-.6.072-1.176.264-1.728-2.16 2.304-5.328 4.128-9.096 5.208-.12.024-.24.048-.36.048-.408 0-.72-.24-.84-.648a1.185 1.185 0 01-.072-.36c0-.384.216-.648.576-.744 3.48-.912 6.24-2.232 8.304-4.008h-8.064c-.36 0-.624-.288-.624-.744s.264-.744.624-.744h9.288v-1.68h-6.984c-.384 0-.6-.312-.6-.744s.216-.72.6-.72h6.984v-1.656H93.14c-.384 0-.6-.288-.6-.744 0-.432.216-.72.6-.72h5.352a14.587 14.587 0 00-1.176-2.568zm8.28 0h-6.408c.456.816.792 1.68 1.104 2.568h4.08c.48-.816.888-1.68 1.224-2.568zm24.6-.984l-.024-.144c-1.176.24-2.208.36-3 .432-3.432.288-6.792.6-9.84.84h-.12c-.624 0-.984-.336-1.032-.912v-.096c0-.528.36-.96.888-1.008a574.854 574.854 0 0118-1.128h.072c.672 0 .984.384 1.032.936v.072c0 .504-.216.96-.936 1.032-.408.048-.792.096-1.344.192-5.184.864-8.808 4.32-8.808 8.184 0 2.4 1.344 3.84 3.072 4.632 1.272.6 2.88.864 4.488.888.696 0 1.056.432 1.056.984v.12c-.048.696-.432 1.08-1.152 1.08-1.992 0-3.888-.384-5.4-1.104-2.472-1.2-4.128-3.384-4.128-6.432 0-3.624 2.544-6.912 7.176-8.568zm1.296 3.984c0-.312.312-.648.696-.648.264 0 .432.072.624.264a14.893 14.893 0 012.064 2.688c.072.144.168.312.168.624 0 .36-.336.672-.792.672-.288 0-.48-.12-.624-.408a15.818 15.818 0 00-1.896-2.616c-.144-.168-.24-.36-.24-.576zm2.64-1.56c0-.312.36-.624.696-.624.264 0 .432.096.648.288.624.6 1.536 1.848 1.968 2.616.072.144.144.336.144.6 0 .288-.288.672-.744.672-.288 0-.456-.12-.624-.384-.528-.912-1.152-1.848-1.8-2.544-.216-.216-.288-.336-.288-.624zm17.448-2.664c-.216 3.648-.744 7.008-1.584 9.576-.84 2.472-1.536 3.552-2.376 4.344-.768.744-1.776 1.056-2.76 1.056-2.496 0-4.488-2.424-4.488-6.456 0-5.976 4.176-10.296 10.728-10.296 5.664 0 9.408 3.696 9.408 8.976 0 3.384-1.464 5.952-3.96 7.536-1.392.888-3.12 1.44-5.04 1.728-.096.024-.192.024-.264.024-.504 0-.912-.24-1.008-.84-.024-.072-.024-.168-.024-.24 0-.48.312-.84.864-.936 1.752-.24 3.6-.84 4.8-1.728 1.512-1.128 2.616-3.072 2.616-5.592 0-4.056-2.664-7.008-6.912-7.152zm-1.992.072c-4.392.408-7.272 3.768-7.272 8.424 0 2.88 1.224 4.392 2.496 4.392.552 0 1.104-.192 1.608-.696.528-.504 1.08-1.536 1.656-3.288.744-2.256 1.344-5.544 1.512-8.832zm-46.296 35.664h-2.304v5.808c0 .432-.336.648-.84.648-.48 0-.84-.216-.84-.648V58c0-1.248.624-1.8 1.872-1.8h9.936c1.272 0 1.848.552 1.848 1.8v8.928c0 1.44-.768 1.92-2.016 1.92-.552 0-1.056-.072-1.44-.192-.312-.096-.504-.312-.504-.672 0-.072 0-.168.024-.264.096-.432.36-.6.648-.6.072 0 .12 0 .192.024.192.048.576.096.864.096.48 0 .6-.12.6-.72v-3.888h-2.568v5.352c0 .36-.36.552-.816.552-.408 0-.768-.192-.768-.552v-5.352h-2.304v5.352c0 .36-.36.552-.792.552-.384 0-.792-.192-.792-.552v-5.352zm0-1.512v-3.384h-1.656c-.432 0-.648.12-.648.576v2.808h2.304zm1.584 0h2.304v-3.384h-2.304v3.384zm3.888 0h2.568v-2.808c0-.456-.216-.576-.648-.576h-1.92v3.384zm-6.432-8.448h7.272c.432 0 .648.288.648.792 0 .456-.216.816-.648.816h-7.272c-.432 0-.648-.36-.648-.816 0-.48.216-.792.648-.792zm-4.272-.024h-6.24c-.432 0-.648-.36-.648-.84s.216-.792.648-.792h6.24c.408 0 .624.312.624.792 0 .48-.216.84-.624.84zm-.504 3.432h-5.208c-.408 0-.6-.36-.6-.792 0-.432.192-.744.6-.744h5.208c.384 0 .6.312.6.744s-.216.792-.6.792zm0 3.432h-5.208c-.408 0-.6-.36-.6-.768 0-.432.192-.768.6-.768h5.208c.384 0 .6.312.6.744s-.216.792-.6.792zm.096-10.392h-5.304c-.384 0-.624-.312-.624-.768 0-.48.24-.768.624-.768h5.304c.408 0 .648.288.648.768 0 .456-.24.768-.648.768zm.48 13.968v3.696c0 1.224-.6 1.728-1.848 1.728h-2.616c-1.248 0-1.848-.504-1.848-1.728v-3.696c0-1.224.6-1.704 1.848-1.704h2.616c1.248 0 1.848.48 1.848 1.704zm-2.28-.264H94.1c-.432 0-.648.12-.648.576v3.024c0 .456.216.576.648.576h1.752c.432 0 .648-.12.648-.576V63.4c0-.456-.216-.576-.648-.576zm11.28-15.528c1.488 1.824 4.032 3.768 6.12 4.728a.914.914 0 01.456 1.248.792.792 0 01-.744.504 1.26 1.26 0 01-.552-.144c-2.136-1.08-4.728-3.096-6.192-4.8-.144-.168-.264-.24-.384-.24s-.24.072-.36.24c-1.248 1.656-3.528 3.648-5.712 4.872-.144.072-.312.12-.456.12a.865.865 0 01-.768-.432.832.832 0 01-.168-.48c0-.288.168-.528.432-.72 2.112-1.128 4.416-3.096 5.688-4.824.312-.432.84-.648 1.368-.648.48 0 .96.192 1.272.576zm23.52 2.904v1.44h4.8c.336 0 .504.312.504.648 0 .36-.168.672-.504.672h-4.8v1.56h6.144c.384 0 .576.288.576.648 0 .384-.192.672-.576.672h-13.272c-.384 0-.576-.288-.576-.672 0-.36.192-.648.576-.648h5.496v-1.56h-4.32c-.336 0-.504-.312-.504-.672 0-.336.168-.648.504-.648h4.32V50.2h-5.088c-.36 0-.528-.288-.528-.672 0-.384.168-.648.528-.648h3a7.36 7.36 0 00-.816-1.368c-.072-.12-.12-.216-.12-.336 0-.216.144-.408.432-.528a1.29 1.29 0 01.504-.12c.216 0 .408.072.552.24.48.576.816 1.248 1.224 2.112h2.616c.48-.744.84-1.392 1.056-1.944.096-.264.36-.408.672-.408.12 0 .24.024.384.048.384.096.6.336.6.624 0 .096-.024.168-.048.264-.216.432-.504.912-.84 1.416h3.144c.36 0 .528.264.528.648s-.168.672-.528.672h-5.64zm-3.264 9.624l3.456-.024a29.894 29.894 0 01-.192-2.592v-.048c0-.432.336-.648.792-.648.504 0 .792.216.792.696.024.912.072 1.776.168 2.568l4.44-.048c.384 0 .576.24.576.648 0 .432-.168.744-.576.744l-4.224.048c.192.936.432 1.896.84 2.784.624-.6 1.176-1.272 1.632-1.968.144-.216.336-.312.552-.312.168 0 .336.048.504.168.216.144.336.336.336.552a.73.73 0 01-.192.48c-.648.888-1.344 1.704-2.136 2.424a6.574 6.574 0 001.44 1.68c.12.096.216.144.312.144.12 0 .216-.072.288-.24.264-.504.312-1.032.384-1.56.048-.312.288-.48.624-.48.072 0 .12 0 .192.024.48.048.648.312.648.672v.072c-.072.984-.456 2.136-.912 2.76-.24.336-.576.48-.96.48s-.768-.12-1.128-.36c-.792-.504-1.488-1.248-2.088-2.16a17.873 17.873 0 01-3.336 2.016.823.823 0 01-.384.096c-.264 0-.48-.144-.624-.432a.628.628 0 01-.12-.408c0-.288.168-.528.456-.648a16.238 16.238 0 003.288-1.944c-.576-1.224-.912-2.52-1.176-3.816l-3.672.024v1.992a24.253 24.253 0 002.304-.648c.096-.024.168-.048.24-.048.288 0 .48.168.552.504.024.096.048.168.048.24 0 .312-.168.528-.504.624-.816.288-1.704.528-2.64.768v2.544c0 1.272-.624 1.848-2.016 1.848-.576 0-1.2-.048-1.68-.168-.24-.072-.48-.336-.48-.72 0-.072 0-.144.024-.216.096-.408.384-.552.6-.552.048 0 .096 0 .144.024.312.096.792.144 1.128.144.552 0 .744-.096.744-.72v-1.824a52.03 52.03 0 01-2.424.432c-.048.024-.12.024-.144.024-.36 0-.576-.24-.624-.648-.024-.048-.024-.096-.024-.168 0-.384.24-.6.6-.648.84-.12 1.728-.264 2.616-.432V61.24l-2.64.024c-.384 0-.576-.312-.576-.72 0-.432.192-.672.576-.672l2.64-.024v-1.344c-.696.12-1.392.24-2.04.312h-.072c-.312 0-.552-.264-.576-.624v-.072c0-.36.216-.6.528-.624 1.704-.168 3.744-.6 5.16-1.2a.829.829 0 01.312-.072c.24 0 .432.144.552.408.072.12.096.24.096.336a.57.57 0 01-.384.552c-.6.24-1.296.432-2.04.624v1.68zm6.912-3.336c.624.432 1.248.96 1.848 1.584.12.144.192.312.192.48a.77.77 0 01-.24.528c-.168.144-.384.24-.576.24a.679.679 0 01-.48-.216 17.271 17.271 0 00-1.704-1.536.545.545 0 01-.216-.432c0-.168.072-.36.216-.504.192-.192.384-.264.576-.264.144 0 .264.048.384.12zm-17.76-2.064h4.968c.408 0 .6.312.6.768 0 .432-.192.816-.6.816h-4.968c-.384 0-.6-.384-.6-.816 0-.456.216-.768.6-.768zm.024-7.008h5.16c.384 0 .6.312.6.768s-.216.816-.6.816h-5.16c-.408 0-.624-.36-.624-.792 0-.456.216-.792.624-.792zm-.6 3.504h6.024c.432 0 .648.312.648.792 0 .456-.216.84-.648.84h-6.024c-.432 0-.648-.36-.648-.816 0-.48.216-.816.648-.816zm6.12 12.072v3.744c0 1.248-.576 1.752-1.776 1.752h-2.64c-1.224 0-1.824-.504-1.824-1.752v-3.744c0-1.224.6-1.728 1.824-1.728h2.64c1.2 0 1.776.504 1.776 1.728zm-4.608.264v3.192c0 .432.24.552.648.552h1.704c.408 0 .624-.12.624-.552v-3.192c0-.432-.216-.552-.624-.552h-1.704c-.408 0-.648.12-.648.552zm-.936-5.352h4.968c.384 0 .6.312.6.768 0 .432-.216.816-.6.816h-4.968c-.408 0-.6-.384-.6-.816 0-.456.192-.768.6-.768zM457.276 28.024h-8.208c-.84 1.824-1.872 3.552-3.024 4.92-.24.288-.528.432-.792.432-.216 0-.432-.072-.648-.24-.24-.192-.36-.432-.36-.672 0-.24.12-.48.288-.672 1.968-2.208 3.6-5.448 4.248-8.304.12-.456.432-.672.864-.672.096 0 .192 0 .312.024.456.12.696.384.696.768 0 .12-.024.216-.048.336-.24.792-.504 1.584-.816 2.4h8.136c1.272 0 1.968.576 1.968 1.536 0 .408-.12.864-.384 1.392-.672 1.464-1.944 3.336-3 4.44-.24.264-.528.432-.816.432-.192 0-.36-.072-.552-.216a.878.878 0 01-.384-.72c0-.192.096-.432.288-.624.936-.888 1.992-2.328 2.64-3.624a1.18 1.18 0 00.168-.552c0-.264-.192-.384-.576-.384zm-16.512-3.6c1.128.864 2.52 2.184 3.6 3.384a.922.922 0 01.216.6c0 .312-.12.6-.312.816a1.046 1.046 0 01-.696.288.838.838 0 01-.672-.336c-.984-1.176-2.376-2.472-3.552-3.408a.73.73 0 01-.264-.576c0-.216.096-.456.288-.648a1.13 1.13 0 01.792-.336.97.97 0 01.6.216zm3.432 10.632a.805.805 0 01.648-.312c.24 0 .456.096.672.264a.986.986 0 01.312.696c0 .24-.096.48-.264.672-1.584 1.848-3.648 3.504-5.544 4.68-.192.12-.408.192-.6.192a.916.916 0 01-.816-.48 1.044 1.044 0 01-.168-.552c0-.312.144-.624.456-.792 1.824-1.104 3.816-2.64 5.304-4.368zm7.176.048c-.816 4.512-3.552 7.872-7.704 9.672a1.144 1.144 0 01-.48.096c-.336 0-.648-.168-.792-.504a1.08 1.08 0 01-.144-.504c0-.36.216-.672.6-.84 2.784-1.2 5.112-3.48 6.24-6 .816-1.824 1.224-3.744 1.224-6.792 0-.48.384-.744.936-.744.576 0 .96.264.96.744.024 2.952.408 4.704 1.44 6.744 1.32 2.592 3.768 4.632 6.552 5.856.312.144.48.456.48.84 0 .168-.048.36-.12.552a.974.974 0 01-.888.528 1.87 1.87 0 01-.504-.096c-4.176-2.088-7.08-5.28-7.8-9.552zm23.208-8.208c-.216 3.648-.744 7.008-1.584 9.576-.84 2.472-1.536 3.552-2.376 4.344-.768.744-1.776 1.056-2.76 1.056-2.496 0-4.488-2.424-4.488-6.456 0-5.976 4.176-10.296 10.728-10.296 5.664 0 9.408 3.696 9.408 8.976 0 3.384-1.464 5.952-3.96 7.536-1.392.888-3.12 1.44-5.04 1.728-.096.024-.192.024-.264.024-.504 0-.912-.24-1.008-.84-.024-.072-.024-.168-.024-.24 0-.48.312-.84.864-.936 1.752-.24 3.6-.84 4.8-1.728 1.512-1.128 2.616-3.072 2.616-5.592 0-4.056-2.664-7.008-6.912-7.152zm-1.992.072c-4.392.408-7.272 3.768-7.272 8.424 0 2.88 1.224 4.392 2.496 4.392.552 0 1.104-.192 1.608-.696.528-.504 1.08-1.536 1.656-3.288.744-2.256 1.344-5.544 1.512-8.832zm-69.048 29.04h7.392c.624 0 .888.408.888.912 0 .528-.264.96-.888.96h-7.464c-.024.408-.048.792-.072 1.152-.384 4.728-3.288 7.704-7.632 9.048-.192.072-.36.096-.528.096-.36 0-.648-.168-.816-.552a1.04 1.04 0 01-.096-.456c0-.456.24-.84.672-.984 3.528-1.152 6-3.216 6.336-7.608.024-.24.024-.48.048-.696h-9.216c-.6 0-.864-.432-.864-.96 0-.504.264-.912.888-.912h9.288c.048-1.392.048-2.928.048-4.32-2.568.36-5.616.648-7.68.672-.6 0-.912-.312-.96-.84v-.096c0-.504.336-.912.816-.912 2.28 0 5.424-.336 8.04-.768 2.352-.384 5.016-.984 6.792-1.68a1.04 1.04 0 01.456-.096c.36 0 .672.192.864.528.072.168.12.336.12.504 0 .36-.216.72-.624.864-1.56.552-3.672 1.128-5.76 1.512 0 1.608 0 3.168-.048 4.632zm20.232-.552l7.296-1.176c.192-.024.384-.048.552-.048.672 0 1.128.216 1.464.552.312.312.456.744.456 1.248 0 .408-.096.84-.288 1.32-.72 1.944-2.664 4.056-4.68 5.208a1.008 1.008 0 01-.504.144.91.91 0 01-.744-.408.864.864 0 01-.168-.528c0-.312.144-.624.432-.792 1.824-1.056 3.144-2.616 3.768-4.008.072-.192.12-.36.12-.48 0-.264-.168-.408-.48-.408-.096 0-.168 0-.264.024l-6.6 1.104 2.04 10.104v.144c0 .432-.36.768-.816.864-.096.024-.168.024-.24.024-.36 0-.696-.216-.792-.672L422.26 57.52l-4.08.672c-.072.024-.12.024-.168.024-.408 0-.744-.24-.816-.72-.024-.072-.024-.144-.024-.192 0-.456.264-.84.672-.912l4.056-.648-.624-3.048c-.024-.072-.024-.144-.024-.216 0-.456.336-.768.768-.816.072-.024.144-.024.216-.024.432 0 .816.216.912.672l.624 3.144zm18.696 8.616l.072-14.976c0-.576.432-.96 1.08-.96.648 0 1.08.384 1.08.96l-.096 14.448c0 .96.36 1.368 1.128 1.368.096 0 .192 0 .312-.024 3.984-.528 8.736-3.168 11.304-7.536.216-.384.528-.576.888-.576.192 0 .384.072.576.192.312.216.456.528.456.864 0 .192-.072.432-.168.624-2.664 4.776-8.112 8.064-13.08 8.616-.216 0-.432.024-.648.024-.84 0-1.512-.216-2.016-.624-.576-.504-.888-1.272-.888-2.4zm24.12-14.448c1.752 1.104 3.936 2.808 5.328 4.512.192.24.288.504.288.768 0 .288-.12.576-.336.816a.984.984 0 01-.744.336c-.288 0-.6-.144-.888-.456-1.32-1.512-3.288-3.216-5.016-4.392a.932.932 0 01-.384-.768c0-.24.096-.504.264-.696a.939.939 0 01.768-.36c.264 0 .504.096.72.24zm16.08 1.752c.504.144.816.48.816.984 0 .144-.024.288-.048.432-.984 4.08-3.264 7.968-6.6 10.488-2.904 2.184-7.344 3.6-11.064 3.744h-.048c-.624 0-1.08-.36-1.128-.96v-.12c0-.576.36-1.032.96-1.056 3.552-.168 7.632-1.56 10.032-3.408 2.808-2.184 4.896-5.688 5.76-9.24.168-.648.528-.912.96-.912.12 0 .24.024.36.048zm14.208.048c.336.24.504.552.504.864 0 .192-.048.384-.144.552-.192.36-.552.552-.936.552a.934.934 0 01-.552-.168c-1.608-1.032-3.6-2.112-5.256-2.784-.36-.144-.552-.432-.552-.792 0-.168.048-.36.168-.528.216-.36.528-.552.888-.552.168 0 .336.024.528.096a33.432 33.432 0 015.352 2.76zm-7.344 3.072c1.776.696 4.032 1.896 5.688 2.928.336.216.48.528.48.84 0 .216-.072.456-.168.648-.192.336-.552.504-.912.504-.216 0-.456-.072-.648-.216-1.392-.96-3.6-2.16-5.4-2.928-.336-.144-.528-.408-.528-.744 0-.192.048-.384.168-.576.192-.384.48-.552.816-.552.168 0 .312.024.504.096zm16.8-1.56c.456.144.744.48.744.96 0 .12-.024.24-.048.384-1.128 4.056-3.456 7.488-6.552 9.792-2.808 2.088-7.032 3.432-10.848 3.696h-.144c-.6 0-1.032-.336-1.08-.984-.024-.048-.024-.12-.024-.168 0-.528.312-.888.96-.936 3.504-.24 7.464-1.44 9.984-3.36 2.712-2.064 4.728-4.944 5.712-8.616.12-.504.432-.816.912-.816.12 0 .24 0 .384.048zm-3.336-4.68c0-.312.312-.648.696-.648.264 0 .432.072.624.264a14.893 14.893 0 012.064 2.688c.072.144.168.312.168.624 0 .36-.336.672-.792.672-.288 0-.48-.12-.624-.408a15.818 15.818 0 00-1.896-2.616c-.144-.168-.24-.36-.24-.576zm2.712-1.464c0-.312.36-.624.696-.624.264 0 .432.096.648.288.624.6 1.536 1.848 1.968 2.616.072.144.144.336.144.6 0 .288-.288.672-.744.672-.288 0-.456-.12-.624-.384-.528-.912-1.152-1.848-1.8-2.544-.216-.216-.288-.336-.288-.624zm10.536 9.576l.096.144c1.872-1.32 3.216-1.968 4.704-1.968 1.728 0 3 .744 3.312 2.808 2.16-.768 4.248-1.416 5.904-1.896.144-.024.288-.048.408-.048.432 0 .744.216.888.648.024.144.048.264.048.384 0 .432-.24.768-.768.888-1.752.456-4.008 1.056-6.312 1.896.048.864.072 1.704.072 2.568 0 .456 0 .912-.024 1.368-.024.6-.408.912-.936.912-.552 0-.888-.312-.888-.912V59.8c-3.36 1.296-4.848 2.736-4.848 4.224 0 1.416 1.56 2.16 4.944 2.16 2.304 0 4.704-.216 6.48-.528.12-.024.216-.024.336-.024.48 0 .792.24.888.744.024.096.024.168.024.24 0 .504-.336.912-.888.984-1.8.312-4.128.504-6.696.504-4.512 0-7.056-1.248-7.056-4.008 0-2.28 2.208-4.512 6.672-6.12-.144-1.464-.864-1.872-1.92-1.872-2.04 0-4.68 1.584-7.56 4.512-.216.24-.504.36-.768.36a.895.895 0 01-.648-.288.947.947 0 01-.312-.72c0-.288.12-.552.336-.768 2.064-1.92 4.128-4.416 5.688-6.888h-1.104c-1.2 0-2.568-.024-3.648-.072-.528-.024-.84-.408-.84-.888v-.096c.048-.48.384-.888.864-.888h.072c1.128.096 2.664.12 4.248.12h1.368c.48-.864.912-1.752 1.2-2.616.168-.504.504-.696.888-.696.12 0 .216.024.336.048.48.096.744.384.744.744 0 .12-.024.264-.096.408-.288.696-.6 1.344-.96 2.064 2.04-.072 4.896-.36 7.536-.744.072-.024.144-.024.216-.024.48 0 .792.264.864.768v.168c0 .456-.288.792-.816.888-3.024.432-6.024.696-8.76.768-.936 1.584-2.04 3.024-3.288 4.104zm-62.16 20.616h4.752c.408 0 .624.336.624.792 0 .432-.216.792-.624.792h-11.088c-.408 0-.624-.36-.624-.792 0-.456.216-.792.624-.792h4.632V74.68h-5.136c-.432 0-.648-.336-.648-.792 0-.48.216-.792.648-.792h5.136v-1.632c0-.432.312-.72.864-.72s.84.288.84.72v1.632h5.856c.432 0 .672.288.672.768 0 .48-.24.816-.672.816h-5.856v2.304zm-.024 13.8v-6.768c0-.432.312-.696.888-.696.528 0 .888.264.888.696v6.36c0 .528.12.648 1.224.648 1.152 0 1.44-.12 1.608-.432.192-.384.288-1.224.36-2.16.024-.384.288-.648.744-.648h.12c.504.048.792.288.792.696v.048c-.072 1.488-.288 2.664-.672 3.24-.432.624-1.128.888-3.048.888-2.448 0-2.904-.384-2.904-1.872zm-3.048-7.464c.528 0 .888.24.888.696 0 4.584-1.536 7.056-4.2 8.664-.24.168-.48.24-.672.24-.288 0-.528-.144-.696-.432a1.008 1.008 0 01-.144-.504c0-.336.192-.648.528-.84 2.736-1.536 3.432-3.864 3.432-7.128 0-.456.288-.696.864-.696zm-5.832-10.368h-5.496c-.408 0-.624-.384-.624-.816 0-.456.216-.768.624-.768h5.496c.384 0 .6.312.6.768 0 .432-.216.816-.6.816zm-.024 6.984h-5.544c-.408 0-.6-.36-.6-.792 0-.432.192-.792.6-.792h5.544c.384 0 .6.36.6.792 0 .408-.216.792-.6.792zm-6.216-5.088h6.648c.432 0 .648.312.648.792 0 .456-.216.84-.648.84h-6.648c-.432 0-.648-.36-.648-.84s.216-.792.648-.792zm6.864 12.096v3.696c0 1.248-.576 1.776-1.776 1.776h-3.24c-1.224 0-1.8-.528-1.8-1.776v-3.696c0-1.224.576-1.728 1.8-1.728h3.24c1.2 0 1.776.504 1.776 1.728zm-4.488 3.984h2.184c.408 0 .624-.144.624-.576v-3.144c0-.432-.216-.576-.624-.576h-2.184c-.432 0-.648.144-.648.576v3.144c0 .432.216.576.648.576zm3.84-7.56h-5.568c-.408 0-.6-.36-.6-.792 0-.432.192-.792.6-.792h5.568c.384 0 .6.36.6.792 0 .432-.216.792-.6.792zm3.336-2.976h9.864c1.44 0 1.992.48 1.992 1.776v2.04c0 .456-.336.672-.888.672-.528 0-.888-.216-.888-.624v-1.752c0-.408-.264-.552-.744-.552h-8.88c-.456 0-.696.144-.696.552v1.704c0 .408-.336.648-.84.648-.528 0-.864-.216-.864-.672v-2.016c0-1.296.576-1.776 1.944-1.776zm35.4-2.256a1.05 1.05 0 01-.192 1.416 1.005 1.005 0 01-.648.216c-.288 0-.6-.12-.816-.408a21.057 21.057 0 00-4.248-4.272.857.857 0 01-.288-.648c0-.24.096-.48.288-.696.192-.216.48-.336.744-.336.216 0 .432.072.624.216 1.632 1.2 3.336 2.856 4.536 4.512zm-15.96 8.784l-.096-.144c-.432.312-.84.48-1.32.48h-.096c-1.488-.072-2.88-1.344-2.88-3.744 0-2.904 1.848-4.848 4.08-4.848.432 0 .84.096 1.104.216 0-.84 0-1.752.024-2.544a42.226 42.226 0 01-2.952.096c-.456 0-.912 0-1.344-.024-.456 0-.816-.312-.816-.864 0-.504.336-.888.768-.888.336.024.72.024 1.08.024a79.43 79.43 0 003.288-.072c.024-.744.024-1.512.024-2.4.024-.648.36-.936.936-.936.672 0 .96.336.96.864 0 .816-.024 1.584-.048 2.376 1.608-.096 3.216-.24 4.584-.432h.144c.408 0 .696.264.792.768v.168c0 .432-.288.72-.696.792-1.416.192-3.12.36-4.872.456-.024 1.2-.024 2.496-.024 3.792.384.696.528 1.608.528 2.448 0 1.368-.384 2.472-1.128 3.528-.72 1.056-1.008 1.704-1.008 2.328 0 1.296 1.248 1.68 4.32 1.68 2.4 0 4.32-.264 5.352-.792.888-.456 1.392-1.176 1.392-2.4 0-.84-.384-2.064-.888-3.048a1.077 1.077 0 01-.12-.456c0-.36.216-.72.624-.84.144-.048.264-.072.408-.072.408 0 .744.216.936.624.576 1.176 1.056 2.664 1.056 3.936 0 1.992-.768 3.192-2.304 3.936-1.392.672-3.36 1.008-6.432 1.008-4.44 0-6.216-.984-6.216-2.976 0-.84.288-1.464.84-2.04zm1.344-4.416c0-1.32-.456-2.232-1.608-2.232-1.272 0-2.352 1.224-2.352 3.096 0 1.512.864 2.232 1.728 2.232 1.248 0 2.232-1.584 2.232-3.096zM460.496 214.616h4.872c.384 0 .624.312.624.792 0 .504-.24.84-.624.84h-10.632c-1.392 0-2.064-.6-2.064-2.04v-8.76c0-.888.072-1.896.192-2.832-.24.384-.48.768-.744 1.08-.24.264-.504.408-.768.408-.192 0-.384-.072-.576-.24-.192-.192-.288-.408-.288-.624 0-.24.096-.48.312-.72 1.704-1.824 3.24-4.632 4.104-7.224.144-.408.408-.552.768-.552.12 0 .24.024.36.048.408.096.648.336.648.72a.942.942 0 01-.072.336c-.36.984-.816 2.016-1.368 3.048a7.05 7.05 0 011.224-.12h2.568a23.726 23.726 0 001.44-3.336c.144-.432.432-.6.792-.6.096 0 .192 0 .288.024.408.096.672.336.672.696 0 .12-.024.24-.072.384a17.399 17.399 0 01-1.32 2.832h4.104c.384 0 .624.312.624.792 0 .504-.24.84-.624.84h-4.44v3.408h4.104c.384 0 .624.336.624.792 0 .48-.24.792-.624.792h-4.104v3.6h4.104c.384 0 .624.312.624.792 0 .48-.24.792-.624.792h-4.104v4.032zM454.4 209h4.416v-3.6H454.4v3.6zm0 1.584v3.312c0 .552.216.72.744.72h3.672v-4.032H454.4zm4.416-10.176h-3.672c-.528 0-.744.168-.744.72v2.688h4.416v-3.408zm-9.792-.984h1.896c.456 0 .672.336.672.816 0 .48-.216.84-.672.84h-1.896v4.704c.576-.24 1.104-.48 1.584-.72a.942.942 0 01.336-.072c.264 0 .48.168.624.504a.914.914 0 01.096.408.774.774 0 01-.456.72c-.648.336-1.392.672-2.184.984v7.08c0 1.56-.696 2.136-2.376 2.136-.648 0-1.248-.048-1.728-.168-.408-.096-.6-.384-.6-.768 0-.096 0-.168.024-.264.072-.432.336-.624.672-.624.072 0 .168 0 .24.024.288.048.792.12 1.2.12.672 0 .816-.192.816-.792v-6.024c-.768.288-1.56.576-2.28.84-.096.024-.192.048-.288.048-.36 0-.672-.216-.792-.648a1.194 1.194 0 01-.072-.384c0-.336.168-.6.528-.696.96-.288 1.944-.624 2.904-1.008v-5.4h-2.64c-.432 0-.672-.336-.672-.84 0-.48.24-.816.672-.816h2.64v-4.08c0-.456.336-.696.888-.696s.864.24.864.696v4.08zm25.272 7.176h-3.024c-.12 4.44-.792 7.176-1.992 9.552-.216.432-.48.648-.816.648-.144 0-.288-.048-.456-.12-.36-.192-.528-.456-.528-.768 0-.168.048-.336.144-.552 1.392-2.544 1.944-5.352 1.944-10.632v-3.288c0-1.512.768-2.088 2.184-2.088h6.36v-.672c0-.432.336-.624.84-.624s.864.192.864.624v.672h9.192c.432 0 .648.312.648.768 0 .48-.216.72-.648.72h-6.456v1.368h4.152c1.2 0 1.776.36 1.776 1.344v1.704c0 .984-.576 1.344-1.776 1.344h-10.8c-.096.264-.192.528-.264.792-.048.144-.096.264-.144.408h13.344c.432 0 .648.24.648.648 0 .456-.216.744-.648.744h-13.8c-.096.264-.192.528-.288.768a.626.626 0 00-.072.264c0 .144.12.216.312.216h12.432c1.368 0 1.872.6 1.872 1.512 0 .096 0 .168-.024.264-.12 1.2-.384 2.232-.624 2.904-.36.984-1.104 1.608-2.448 1.608-.648 0-1.536-.024-2.16-.144-.336-.072-.552-.36-.552-.744 0-.048 0-.12.024-.168.048-.36.288-.552.624-.552.072 0 .144 0 .216.024.48.096 1.08.12 1.512.12.624 0 1.08-.24 1.296-.888.144-.384.36-1.248.408-2.016v-.072c0-.336-.192-.456-.624-.456h-12.696c-.96 0-1.44-.456-1.44-1.08 0-.192.048-.408.144-.624.432-.864.936-2.28 1.344-3.528zm-3-1.296h4.08v-1.8h-4.08v1.8zm0-3.096h4.08v-1.368h-3.12c-.744 0-.96.24-.96.96v.408zm5.616-1.368v1.368h4.104v-1.368h-4.104zm0 4.464h4.104v-1.8h-4.104v1.8zm5.64 0h3.576c.48 0 .72-.096.72-.48v-.84c0-.384-.24-.48-.72-.48h-3.576v1.8zm.96-7.752v.792c0 .456-.288.648-.864.648-.552 0-.84-.192-.84-.648v-.792h-5.616v.792c0 .456-.288.648-.864.648-.552 0-.84-.192-.84-.648v-.792H468.8c-.384 0-.624-.288-.624-.72 0-.456.24-.744.624-.744h5.688v-.888c0-.48.288-.648.84-.648.576 0 .864.168.864.648v.888h5.616v-.888c0-.48.288-.648.84-.648.576 0 .864.168.864.648v.888h5.952c.384 0 .624.288.624.744 0 .432-.24.72-.624.72h-5.952zm1.728 16.152c.096.144.12.288.12.408 0 .264-.144.456-.384.576a.963.963 0 01-.36.072.745.745 0 01-.672-.384 8.541 8.541 0 00-.744-1.152c-.12-.168-.168-.312-.168-.456 0-.192.12-.384.36-.48a.914.914 0 01.408-.096c.24 0 .456.096.6.288.312.36.672.84.84 1.224zm-11.712-1.344c.336.096.528.36.528.672 0 .12-.024.24-.072.36-.36.96-1.032 2.112-1.752 2.928-.192.192-.408.312-.648.312a.846.846 0 01-.504-.168.8.8 0 01-.384-.672c0-.192.048-.36.168-.48.648-.72 1.296-1.776 1.632-2.568.12-.288.408-.432.696-.432.12 0 .24.024.336.048zm2.76 3.528c-.144-.816-.36-1.776-.6-2.496a.739.739 0 01-.072-.312c0-.312.216-.504.528-.6.072-.024.168-.024.24-.024.336 0 .6.192.72.528.336.792.576 1.728.744 2.568.024.072.024.144.024.216 0 .384-.24.648-.648.72-.048.024-.12.024-.168.024-.384 0-.696-.24-.768-.624zm3.432-3.504a.942.942 0 01.336-.072.69.69 0 01.6.312 9.6 9.6 0 011.056 2.016c.048.12.072.24.072.36 0 .288-.144.528-.432.672a.942.942 0 01-.336.072c-.312 0-.576-.168-.72-.504a10.71 10.71 0 00-.864-1.896.604.604 0 01-.12-.384c0-.264.168-.48.408-.576zm24.84-14.52h-2.736a12.687 12.687 0 01-1.896 1.872c-.264.216-.528.312-.744.312a.75.75 0 01-.6-.312.745.745 0 01-.216-.528c0-.24.12-.48.36-.672 1.272-.96 2.376-2.352 3.072-3.576a.778.778 0 01.696-.408c.12 0 .264.024.384.072.36.144.552.36.552.648 0 .12-.048.264-.12.408-.144.24-.288.504-.432.744h8.832c1.056 0 1.56.528 1.56 1.152 0 .288-.12.624-.36.936a8.66 8.66 0 01-1.944 1.848c-.192.12-.408.192-.6.192a.731.731 0 01-.624-.312.616.616 0 01-.168-.432c0-.24.12-.48.36-.624a6.04 6.04 0 001.272-1.008c.072-.096.096-.144.096-.192 0-.096-.12-.12-.36-.12h-4.584c.36 1.224 1.104 2.088 2.16 2.784 1.488.96 3.192 1.416 4.92 1.728.456.072.696.336.696.744 0 .072 0 .168-.024.264-.096.456-.384.672-.792.672-.096 0-.192 0-.288-.024-3.456-.696-6.456-2.184-7.488-4.56-.96 2.256-3.288 3.312-6.192 3.792-.096.024-.192.024-.288.024-.408 0-.72-.192-.792-.624-.024-.072-.024-.12-.024-.192 0-.384.264-.648.696-.72 2.688-.432 5.088-1.44 5.616-3.888zm-10.296-2.472c.888.384 2.16 1.08 3 1.728.264.192.384.432.384.696a.846.846 0 01-.168.504.957.957 0 01-.768.408.797.797 0 01-.504-.168c-.84-.6-1.944-1.272-2.832-1.728-.288-.144-.432-.36-.432-.624 0-.168.048-.36.144-.528a.878.878 0 01.72-.384c.168 0 .312.024.456.096zm3 4.848c.216-.096.384-.144.552-.144.264 0 .456.144.624.384a.926.926 0 01.144.48c0 .288-.144.552-.48.72a31.875 31.875 0 01-4.872 2.064 1.194 1.194 0 01-.384.072c-.408 0-.72-.24-.864-.648a1.405 1.405 0 01-.048-.312c0-.36.216-.672.648-.792 1.56-.432 3.36-1.128 4.68-1.824zm1.752 13.656c.168-.072.36-.12.528-.12.264 0 .528.096.696.288.12.168.192.336.192.504 0 .264-.144.504-.432.648-1.848.888-4.536 1.608-6.768 1.848h-.168c-.456 0-.768-.264-.84-.744-.024-.072-.024-.12-.024-.168 0-.408.288-.696.744-.744 2.112-.192 4.32-.72 6.072-1.512zm6.96 1.344c-.288-.144-.456-.384-.456-.648a.65.65 0 01.192-.48.9.9 0 01.72-.336c.168 0 .336.048.504.12 1.632.744 3.936 1.296 6.12 1.488.528.048.768.336.768.768 0 .024 0 .072-.024.12-.048.48-.384.792-.84.792h-.168c-2.424-.288-4.848-.912-6.816-1.824zm3.48-1.92h-12.912c-1.368 0-1.944-.504-1.944-1.728V205.4c0-1.224.648-1.752 2.088-1.752h12.6c1.536 0 2.136.528 2.136 1.752v6.192c0 1.224-.6 1.728-1.968 1.728zm.264-6.888v-.864c0-.432-.24-.552-.696-.552h-12.048c-.432 0-.672.12-.672.552v.864h13.416zm0 2.712v-1.416h-13.416v1.416h13.416zm0 1.296h-13.416v.912c0 .456.24.576.672.576h12.048c.456 0 .696-.12.696-.576v-.912zm25.632-1.896l1.992-.456c.048-.024.12-.024.168-.024.36 0 .624.264.72.696.024.096.024.192.024.264 0 .384-.168.72-.528.768l-2.376.552v6.024c0 .456-.36.672-.936.672-.528 0-.888-.216-.888-.672v-5.592l-7.896 1.848c-.048.024-.12.024-.168.024-.36 0-.672-.264-.744-.696-.024-.072-.024-.144-.024-.24 0-.408.216-.744.576-.816l8.256-1.92V195.44c0-.456.36-.672.888-.672.576 0 .936.216.936.672v13.104zm-15.384-3.936h-3.144c-.432 0-.648-.312-.648-.792 0-.48.216-.816.648-.816h3.456v-7.608c0-.432.312-.672.84-.672.552 0 .864.24.864.672V203h2.64c.432 0 .672.336.672.816 0 .48-.24.792-.672.792h-2.472c.888 1.704 2.04 3.144 3.144 4.248a.86.86 0 01.264.6c0 .216-.096.432-.264.624a.728.728 0 01-.6.288.767.767 0 01-.552-.24c-1.008-1.056-1.896-2.712-2.424-3.984.144 1.008.264 2.328.264 3.216v7.032c0 .432-.312.672-.864.672-.504 0-.84-.24-.84-.672v-5.904c0-1.2.192-2.784.36-4.08-.576 2.16-1.92 4.776-3.264 6.336a.887.887 0 01-.696.336c-.192 0-.384-.072-.576-.216-.192-.192-.312-.432-.312-.672 0-.216.072-.432.264-.624 1.632-1.8 3.048-4.296 3.912-6.96zm8.52-7.776c1.032.672 2.568 1.968 3.576 3.024.168.192.264.456.264.72a.85.85 0 01-.24.624 1.031 1.031 0 01-.672.264.947.947 0 01-.72-.312c-.96-1.056-2.304-2.208-3.432-3-.192-.12-.288-.336-.288-.576a.93.93 0 01.24-.624.961.961 0 01.696-.288c.192 0 .408.048.576.168zM527.72 203c1.128.744 2.544 1.944 3.528 3.024a.986.986 0 01.216.624.922.922 0 01-.216.6 1.002 1.002 0 01-.696.288.832.832 0 01-.624-.264c-.912-1.008-2.28-2.184-3.384-2.952a.69.69 0 01-.312-.6c0-.216.096-.432.24-.624a.927.927 0 01.648-.264c.192 0 .408.048.6.168zm-10.776-6.576c.144-.048.264-.072.384-.072.288 0 .528.168.696.456.576 1.272 1.008 2.88 1.272 4.104.024.096.024.192.024.264 0 .384-.216.624-.576.72-.12.024-.24.048-.336.048-.312 0-.552-.168-.648-.552-.264-1.2-.72-2.832-1.272-4.008a1.205 1.205 0 01-.048-.288c0-.288.168-.552.504-.672zm8.208-.12c.384.096.576.336.576.672 0 .072 0 .144-.024.216-.288 1.296-.936 3.096-1.56 4.344-.168.312-.408.456-.672.456a.739.739 0 01-.312-.072.739.739 0 01-.48-.72c0-.096.024-.216.048-.312.552-1.08 1.176-2.952 1.44-4.128.072-.336.384-.48.72-.48.072 0 .168 0 .264.024zm-50.304 31.2h-6.144c-.408 0-.648-.312-.648-.768s.24-.768.648-.768h7.464c.384-.456.744-.96.984-1.392a.815.815 0 01.768-.48c.096 0 .192.024.288.048.408.072.672.36.672.672a.581.581 0 01-.096.312c-.144.24-.36.552-.576.84h11.04c.408 0 .672.312.672.768s-.264.768-.672.768h-6.576c1.752 1.68 4.224 2.928 6.936 3.528.408.096.576.384.576.768 0 .096-.024.216-.048.336-.12.408-.384.648-.792.648-.096 0-.192-.024-.312-.048-3.048-.792-6.264-2.592-8.424-5.232h-3.552c-2.208 2.304-4.992 3.888-8.016 4.752a1.405 1.405 0 01-.312.048c-.384 0-.648-.216-.792-.672-.024-.096-.048-.192-.048-.288 0-.336.192-.6.6-.72 2.544-.696 4.68-1.728 6.36-3.12zm.84-5.04c2.712-.096 5.4-.168 8.088-.384a34.48 34.48 0 00-1.68-1.272c-.264-.168-.384-.36-.384-.576 0-.192.096-.36.264-.528a.78.78 0 01.576-.24c.192 0 .408.072.6.192a42.375 42.375 0 014.728 3.84c.192.192.288.408.288.6a.86.86 0 01-.264.6.972.972 0 01-.648.264.937.937 0 01-.648-.288 36.751 36.751 0 00-1.368-1.344c-4.176.456-9.936.744-14.688.768-.552 0-.84-.264-.864-.792v-.048c0-.456.288-.768.792-.768h3.144a21.464 21.464 0 002.448-3.384c.192-.336.48-.48.792-.48.144 0 .288.024.456.072.336.096.552.336.552.648 0 .12-.048.288-.144.432a18.431 18.431 0 01-2.04 2.688zm3.744 6.528a.865.865 0 01.48-.144c.192 0 .408.072.576.24.168.192.264.408.264.6a.77.77 0 01-.24.528c-2.16 1.776-5.592 3.168-8.568 3.768-.072.024-.12.024-.192.024-.36 0-.624-.24-.744-.648-.024-.072-.024-.168-.024-.24 0-.36.216-.624.576-.672 2.856-.552 6-1.872 7.872-3.456zm5.88 5.208a.76.76 0 01.528-.192c.24 0 .48.12.648.312.168.192.264.408.264.6 0 .216-.12.456-.36.648-3.384 2.808-8.928 5.016-14.136 5.52h-.168c-.48 0-.792-.288-.84-.744-.024-.048-.024-.12-.024-.168 0-.408.24-.696.72-.744 4.944-.504 10.152-2.544 13.368-5.232zm-3.024-2.736a.719.719 0 01.432-.144c.216 0 .456.096.648.288.168.168.24.36.24.552 0 .24-.096.456-.288.624-3.192 2.52-7.272 3.96-11.208 4.584h-.144c-.456 0-.696-.264-.792-.696-.024-.072-.024-.144-.024-.192 0-.336.192-.648.6-.72 3.84-.6 7.656-1.968 10.536-4.296zm22.536-10.296h-3.336c-.432 0-.672-.312-.672-.792 0-.504.24-.816.672-.816h9.672c1.392 0 2.064.504 2.064 1.8v.144c-.024 1.104-.192 2.424-.456 3.288-.36 1.08-1.056 1.512-2.784 1.512-.912 0-1.728-.096-2.4-.288-.384-.096-.6-.384-.6-.744 0-.096.024-.192.048-.312.12-.384.384-.576.72-.576a.9.9 0 01.24.024c.48.144 1.2.264 1.776.264.912 0 1.224-.192 1.368-.672.192-.648.288-1.488.312-2.208v-.072c0-.432-.24-.552-.696-.552h-4.104c-.432 2.664-1.968 4.704-4.968 5.952a.914.914 0 01-.408.096c-.336 0-.624-.168-.792-.552a.963.963 0 01-.072-.36c0-.36.192-.672.528-.816 2.184-.864 3.576-2.328 3.888-4.32zm-4.872.384v10.464c0 1.464-.6 1.992-1.992 1.992h-3.024c-1.416 0-2.04-.528-2.04-1.992v-10.464c0-1.44.624-1.968 2.04-1.968h3.024c1.392 0 1.992.528 1.992 1.968zm-5.328 4.272h3.6v-4.008c0-.48-.24-.6-.672-.6h-2.256c-.456 0-.672.12-.672.6v4.008zm3.6 1.56h-3.6v4.368c0 .48.216.624.672.624h2.256c.432 0 .672-.144.672-.624v-4.368zm5.304.288h7.296c1.32 0 1.968.576 1.968 1.92v3.048c0 1.344-.648 1.92-1.968 1.92h-7.296c-1.344 0-1.968-.576-1.968-1.92v-3.048c0-1.344.624-1.92 1.968-1.92zm.528 5.304h6.24c.504 0 .72-.12.72-.672v-2.376c0-.552-.216-.672-.72-.672h-6.24c-.504 0-.72.12-.72.672v2.376c0 .552.216.672.72.672zm-7.272 3.456c-.648 1.392-1.752 3.048-2.88 4.176-.216.216-.48.336-.72.336s-.456-.096-.672-.264a.963.963 0 01-.336-.696c0-.24.096-.456.264-.648 1.056-1.08 2.064-2.472 2.688-3.744.144-.336.432-.48.744-.48.168 0 .336.048.528.12a.75.75 0 01.48.72c0 .168-.024.312-.096.48zm2.28-.072c-.024-.072-.024-.12-.024-.192 0-.384.336-.696.768-.744.072-.024.12-.024.192-.024.408 0 .72.216.84.648.288 1.272.528 2.664.648 3.84v.12c0 .504-.288.84-.84.912h-.168c-.504 0-.84-.288-.864-.768-.096-1.272-.312-2.784-.552-3.792zm5.064.12c-.024-.12-.048-.216-.048-.312 0-.336.216-.6.6-.72.12-.024.216-.048.336-.048.384 0 .696.216.84.552.504 1.152.984 2.496 1.272 3.648.024.12.048.216.048.312 0 .408-.24.72-.696.84-.12.024-.216.048-.312.048-.432 0-.768-.24-.864-.72-.24-.936-.744-2.568-1.176-3.6zm6.552-.864c.96 1.008 2.184 2.568 2.88 3.72.12.168.168.384.168.576 0 .312-.144.624-.408.792-.192.12-.384.168-.552.168-.336 0-.648-.168-.864-.48-.648-1.152-1.896-2.736-2.736-3.672a.839.839 0 01-.192-.528c0-.264.144-.528.384-.696.192-.096.408-.168.624-.168.264 0 .504.096.696.288zM52.96 203.312h3.576c.432 0 .696.312.696.816s-.264.84-.696.84H52.96v7.272c0 .432-.312.696-.864.696s-.888-.264-.888-.696v-7.272h-3.624c-.432 0-.696-.336-.696-.84s.264-.816.696-.816h3.624v-4.152c0-.456.336-.696.888-.696s.864.24.864.696v4.152zm-8.784 8.448v-5.28c0-.48-.144-.624-.576-.624h-2.136c-.432 0-.72-.288-.72-.816 0-.552.288-.84.72-.84h2.808c1.224 0 1.728.624 1.728 1.896v5.592c.672 1.488 1.992 2.256 3.432 2.52 1.104.192 2.616.288 4.584.288a95.17 95.17 0 008.28-.384h.096c.552 0 .864.36.888.936v.072c0 .528-.312.864-.912.912-2.448.144-5.616.24-8.496.24-2.064 0-3.864-.096-5.016-.384-1.704-.384-3.048-1.416-3.816-2.712-.792 1.008-2.016 2.184-3.024 2.928a.846.846 0 01-.504.168c-.264 0-.528-.144-.72-.432a.906.906 0 01-.192-.552.81.81 0 01.384-.696c.984-.696 2.304-1.776 3.192-2.832zm-1.128-16.248c1.08.984 2.328 2.4 3.168 3.6.144.216.216.408.216.6 0 .264-.12.504-.36.72-.216.168-.456.264-.672.264a.772.772 0 01-.672-.384c-.816-1.224-1.968-2.544-3.024-3.552a.745.745 0 01-.216-.528c0-.216.096-.432.336-.624.216-.192.456-.288.696-.288.192 0 .36.072.528.192zm4.776.144h9.72c1.488 0 2.232.696 2.232 1.992 0 6.528.24 10.488 1.368 12.624.048.072.096.12.144.12.048 0 .096-.048.12-.192.192-.816.264-1.824.336-2.64.048-.432.36-.624.72-.624h.12c.408.048.696.312.696.768v.048c-.072 1.512-.312 3.096-.84 4.056-.312.48-.768.72-1.224.72-.408 0-.864-.216-1.2-.624-.816-.984-1.344-2.544-1.68-4.824-.336-2.136-.456-5.136-.456-8.952 0-.528-.24-.768-.816-.768h-9.24c-.48 0-.744-.384-.744-.864 0-.456.24-.84.744-.84zm30.144 3.096h-6.144c-.408 0-.648-.312-.648-.816 0-.48.24-.792.648-.792h6.144v-1.776c0-.456.312-.648.84-.648.504 0 .864.192.864.648v1.776H86.2c.408 0 .672.312.672.792 0 .48-.264.816-.672.816h-6.528v1.848H83.8c1.392 0 1.968.456 1.968 1.752v2.736c0 1.272-.576 1.752-1.896 1.752h-3.264c1.68 1.8 3.96 3.24 5.976 4.008.288.096.504.432.504.792a.848.848 0 01-.096.408c-.168.384-.48.552-.816.552-.12 0-.264-.024-.408-.072-2.28-.912-4.896-2.952-6.24-4.92.072.552.144 1.368.144 2.184v3.336c0 .432-.36.648-.864.648-.528 0-.84-.216-.84-.648v-3.312c0-.84.048-1.608.12-2.184-1.416 1.848-3.504 3.456-5.616 4.536-.168.072-.336.12-.48.12-.336 0-.6-.168-.792-.48a1.29 1.29 0 01-.12-.504c0-.288.168-.576.504-.72 1.944-.888 3.768-2.088 5.4-3.744h-3.048c-1.32 0-1.896-.48-1.896-1.752v-2.736c0-1.296.576-1.752 1.944-1.752h3.984v-1.848zm1.704 6.672h3.696c.48 0 .672-.144.672-.576v-2.184c0-.432-.192-.552-.672-.552h-3.696v3.312zm-1.704 0v-3.312h-3.504c-.48 0-.696.12-.696.552v2.184c0 .432.216.576.696.576h3.504zm-7.944.864v5.616c.72 1.536 2.064 2.256 3.504 2.496 1.128.168 2.616.264 4.56.264 2.952 0 5.88-.12 8.328-.336h.096c.552 0 .84.336.864.912v.12c0 .504-.312.816-.888.864-2.448.096-5.688.192-8.544.192-2.064 0-3.888-.096-5.064-.384-1.704-.36-3.048-1.248-3.816-2.688-.84 1.08-1.968 2.208-2.928 2.952a.864.864 0 01-.528.168c-.24 0-.504-.12-.696-.384a1.036 1.036 0 01-.24-.648c0-.24.12-.48.336-.624.912-.672 2.4-1.872 3.216-3.024v-5.088c0-.456-.144-.624-.576-.624H65.56c-.408 0-.696-.264-.696-.816 0-.552.288-.84.696-.84h2.712c1.224 0 1.752.6 1.752 1.872zm-3.048-10.752c1.08.96 2.328 2.424 3.144 3.624.168.216.24.408.24.6 0 .264-.144.48-.408.696a1.031 1.031 0 01-.672.264c-.24 0-.456-.096-.648-.36-.84-1.248-1.968-2.64-2.976-3.576a.77.77 0 01-.24-.528c0-.216.12-.432.336-.648.24-.192.456-.288.696-.288.192 0 .36.072.528.216zm37.512 3.048c1.824.696 3.744 1.728 5.088 2.64.336.216.48.576.48.888 0 .192-.048.384-.144.552a.997.997 0 01-.816.456 1.11 1.11 0 01-.6-.192c-1.416-.984-3.216-1.92-5.016-2.64-.312-.12-.456-.408-.456-.72 0-.192.048-.384.144-.552.216-.336.528-.504.888-.504.144 0 .288.024.432.072zm-8.232 2.64c-1.152 3.768-2.712 7.56-4.512 10.704-.24.408-.552.624-.888.624-.216 0-.432-.072-.672-.216a.904.904 0 01-.456-.792c0-.216.072-.48.216-.72 1.656-2.808 3.264-6.24 4.248-9.48-.888.048-1.824.072-2.76.072h-.912c-.552 0-.84-.36-.84-.936 0-.576.336-.936.888-.936H91.6c1.032 0 2.112-.024 3.144-.072.336-1.176.624-2.376.864-3.6.048-.528.408-.792.888-.792a.9.9 0 01.24.024c.528.096.84.36.84.84 0 .096 0 .192-.024.312a91.626 91.626 0 01-.72 3.048c1.176-.096 2.304-.192 3.312-.336.072-.024.144-.024.216-.024.48 0 .768.288.864.792v.144c0 .456-.288.816-.864.912-1.248.192-2.664.312-4.104.432zm9.144 8.16c1.608.768 3.312 1.896 4.512 3.096.24.24.36.528.36.792 0 .24-.096.48-.264.672-.216.216-.456.336-.696.336-.24 0-.504-.12-.72-.312-.936-.936-2.112-1.92-3.12-2.496.048.288.048.6.048.816-.12 2.616-1.8 3.84-5.064 3.84-3 0-4.992-1.584-4.992-3.84 0-2.304 2.04-3.96 5.016-3.96 1.008 0 1.992.144 2.976.408a49.47 49.47 0 01-.264-4.8c0-.696.408-.984.936-.984.576 0 .984.312.984.984 0 2.064.096 3.744.288 5.448zm-1.8 1.272c-.96-.432-2.04-.624-3.072-.624-1.944 0-3.168.912-3.168 2.232 0 1.32 1.176 2.064 3.144 2.064 2.04 0 3.144-.768 3.144-2.472 0-.384 0-.72-.048-1.2zm-43.8 16.848h-1.848c-.168 5.16-1.008 9.48-3.024 12.648-.168.36-.48.528-.792.528-.192 0-.384-.048-.576-.168-.312-.192-.48-.48-.48-.816 0-.168.048-.336.12-.504 2.328-3.456 2.904-8.4 2.904-14.688v-2.232c0-1.584.792-2.28 2.328-2.28h15.312c.456 0 .72.36.72.864 0 .528-.264.912-.72.912H59.056c-.792 0-1.056.24-1.056 1.008v3h12.6c1.272 0 1.92.648 1.92 1.584 0 .36-.072.72-.24 1.128-1.032 2.496-2.712 4.824-4.848 6.816 2.136 1.536 4.536 2.64 6.768 3.384.432.144.672.456.672.84 0 .168-.024.312-.096.48-.144.456-.48.696-.936.696-.12 0-.264-.024-.408-.072-2.472-.84-5.136-2.16-7.464-4.056a25.918 25.918 0 01-7.176 4.008c-.168.072-.36.096-.504.096-.384 0-.696-.192-.84-.552a1.113 1.113 0 01-.096-.456c0-.384.24-.696.792-.888a24.597 24.597 0 006.408-3.432 18.453 18.453 0 01-3.36-4.368 16.73 16.73 0 01-1.392-3.48zm10.008 0h-8.16c.768 2.616 2.328 4.848 4.344 6.648 1.944-1.728 3.456-3.744 4.32-5.952a.806.806 0 00.096-.36c0-.24-.168-.336-.6-.336zm19.584-6.168h8.832c.504 0 .672.384.672.864s-.168.864-.672.864H81.616c-.84 0-1.128.288-1.128 1.032 0 2.928-.096 6.696-.336 8.952-.24 2.256-.792 5.112-1.656 6.912-.216.456-.528.696-.912.696a1.09 1.09 0 01-.432-.096c-.36-.192-.552-.408-.552-.72 0-.168.048-.36.144-.576.792-1.704 1.344-4.008 1.608-6.936.168-2.064.216-5.76.216-8.592 0-1.608.864-2.4 2.4-2.4h6.504v-1.944c0-.456.408-.744.96-.744.576 0 .96.288.96.744v1.944zm-3.216 17.136v-9.936c0-.408.384-.696.936-.696s.936.288.936.72v9.504c0 .48.216.72.504.792.456.144 1.104.168 1.848.168 1.056 0 1.536-.096 2.016-.336.48-.24.552-.504.672-1.248.072-.48.168-1.392.168-2.304 0-.528.336-.84.864-.84h.048c.552.024.864.384.864.888 0 1.392-.144 2.88-.384 3.6-.288.84-.696 1.296-1.392 1.608-.504.24-1.392.36-2.76.36-1.776 0-2.592-.024-3.216-.288-.768-.336-1.104-.888-1.104-1.992zm-3.6-8.136c.048-.456.408-.744.912-.744h.096c.528.048.864.36.864.864v.168c-.312 2.424-.864 5.184-1.776 7.344-.168.384-.48.576-.84.576a.941.941 0 01-.432-.096c-.384-.168-.6-.432-.6-.792 0-.12.024-.264.072-.408.912-1.968 1.464-4.56 1.704-6.912zm5.568-6.024c1.56.768 3.408 1.968 4.824 3.072.24.168.336.408.336.672 0 .216-.072.432-.216.648-.192.264-.456.408-.72.408a.97.97 0 01-.6-.216c-1.344-1.152-3.336-2.448-4.704-3.168-.288-.168-.432-.36-.432-.6 0-.168.072-.36.216-.576.216-.288.456-.408.72-.408.168 0 .384.072.576.168zm6.576 6.312a.677.677 0 01-.096-.36c0-.336.24-.624.6-.792.12-.048.264-.072.384-.072.36 0 .672.216.816.504 1.104 2.232 2.04 4.848 2.544 7.08.024.096.024.192.024.264 0 .432-.24.744-.696.888-.12.024-.216.048-.336.048-.408 0-.744-.24-.84-.696-.456-2.256-1.344-4.824-2.4-6.864zM204.04 342.008h7.392c.624 0 .888.408.888.912 0 .528-.264.96-.888.96h-7.464c-.024.408-.048.792-.072 1.152-.384 4.728-3.288 7.704-7.632 9.048-.192.072-.36.096-.528.096-.36 0-.648-.168-.816-.552a1.04 1.04 0 01-.096-.456c0-.456.24-.84.672-.984 3.528-1.152 6-3.216 6.336-7.608.024-.24.024-.48.048-.696h-9.216c-.6 0-.864-.432-.864-.96 0-.504.264-.912.888-.912h9.288c.048-1.392.048-2.928.048-4.32-2.568.36-5.616.648-7.68.672-.6 0-.912-.312-.96-.84v-.096c0-.504.336-.912.816-.912 2.28 0 5.424-.336 8.04-.768 2.352-.384 5.016-.984 6.792-1.68a1.04 1.04 0 01.456-.096c.36 0 .672.192.864.528.072.168.12.336.12.504 0 .36-.216.72-.624.864-1.56.552-3.672 1.128-5.76 1.512 0 1.608 0 3.168-.048 4.632zm20.232-.552l7.296-1.176c.192-.024.384-.048.552-.048.672 0 1.128.216 1.464.552.312.312.456.744.456 1.248 0 .408-.096.84-.288 1.32-.72 1.944-2.664 4.056-4.68 5.208a1.008 1.008 0 01-.504.144.91.91 0 01-.744-.408.864.864 0 01-.168-.528c0-.312.144-.624.432-.792 1.824-1.056 3.144-2.616 3.768-4.008.072-.192.12-.36.12-.48 0-.264-.168-.408-.48-.408-.096 0-.168 0-.264.024l-6.6 1.104 2.04 10.104v.144c0 .432-.36.768-.816.864-.096.024-.168.024-.24.024-.36 0-.696-.216-.792-.672l-2.064-10.152-4.08.672c-.072.024-.12.024-.168.024-.408 0-.744-.24-.816-.72-.024-.072-.024-.144-.024-.192 0-.456.264-.84.672-.912l4.056-.648-.624-3.048c-.024-.072-.024-.144-.024-.216 0-.456.336-.768.768-.816.072-.024.144-.024.216-.024.432 0 .816.216.912.672l.624 3.144zm18.696 8.616l.072-14.976c0-.576.432-.96 1.08-.96.648 0 1.08.384 1.08.96l-.096 14.448c0 .96.36 1.368 1.128 1.368.096 0 .192 0 .312-.024 3.984-.528 8.736-3.168 11.304-7.536.216-.384.528-.576.888-.576.192 0 .384.072.576.192.312.216.456.528.456.864 0 .192-.072.432-.168.624-2.664 4.776-8.112 8.064-13.08 8.616-.216 0-.432.024-.648.024-.84 0-1.512-.216-2.016-.624-.576-.504-.888-1.272-.888-2.4zm24.12-14.448c1.752 1.104 3.936 2.808 5.328 4.512.192.24.288.504.288.768 0 .288-.12.576-.336.816a.984.984 0 01-.744.336c-.288 0-.6-.144-.888-.456-1.32-1.512-3.288-3.216-5.016-4.392a.932.932 0 01-.384-.768c0-.24.096-.504.264-.696a.939.939 0 01.768-.36c.264 0 .504.096.72.24zm16.08 1.752c.504.144.816.48.816.984 0 .144-.024.288-.048.432-.984 4.08-3.264 7.968-6.6 10.488-2.904 2.184-7.344 3.6-11.064 3.744h-.048c-.624 0-1.08-.36-1.128-.96v-.12c0-.576.36-1.032.96-1.056 3.552-.168 7.632-1.56 10.032-3.408 2.808-2.184 4.896-5.688 5.76-9.24.168-.648.528-.912.96-.912.12 0 .24.024.36.048zm14.208.048c.336.24.504.552.504.864 0 .192-.048.384-.144.552-.192.36-.552.552-.936.552a.934.934 0 01-.552-.168c-1.608-1.032-3.6-2.112-5.256-2.784-.36-.144-.552-.432-.552-.792 0-.168.048-.36.168-.528.216-.36.528-.552.888-.552.168 0 .336.024.528.096a33.432 33.432 0 015.352 2.76zm-7.344 3.072c1.776.696 4.032 1.896 5.688 2.928.336.216.48.528.48.84 0 .216-.072.456-.168.648-.192.336-.552.504-.912.504-.216 0-.456-.072-.648-.216-1.392-.96-3.6-2.16-5.4-2.928-.336-.144-.528-.408-.528-.744 0-.192.048-.384.168-.576.192-.384.48-.552.816-.552.168 0 .312.024.504.096zm16.8-1.56c.456.144.744.48.744.96 0 .12-.024.24-.048.384-1.128 4.056-3.456 7.488-6.552 9.792-2.808 2.088-7.032 3.432-10.848 3.696h-.144c-.6 0-1.032-.336-1.08-.984-.024-.048-.024-.12-.024-.168 0-.528.312-.888.96-.936 3.504-.24 7.464-1.44 9.984-3.36 2.712-2.064 4.728-4.944 5.712-8.616.12-.504.432-.816.912-.816.12 0 .24 0 .384.048zm-3.336-4.68c0-.312.312-.648.696-.648.264 0 .432.072.624.264a14.893 14.893 0 012.064 2.688c.072.144.168.312.168.624 0 .36-.336.672-.792.672-.288 0-.48-.12-.624-.408a15.818 15.818 0 00-1.896-2.616c-.144-.168-.24-.36-.24-.576zm2.712-1.464c0-.312.36-.624.696-.624.264 0 .432.096.648.288.624.6 1.536 1.848 1.968 2.616.072.144.144.336.144.6 0 .288-.288.672-.744.672-.288 0-.456-.12-.624-.384-.528-.912-1.152-1.848-1.8-2.544-.216-.216-.288-.336-.288-.624zm11.616 8.616h3.144a14.473 14.473 0 00-.912-2.184h-2.664c-.408 0-.6-.336-.6-.768 0-.408.192-.72.6-.72h6.312v-1.704h-5.208c-.384 0-.6-.36-.6-.792 0-.384.216-.768.6-.768h5.208v-1.224c0-.432.36-.624.888-.624s.864.192.864.624v1.224h5.616c.36 0 .6.384.6.768 0 .432-.24.792-.6.792h-5.616v1.704h6.696c.384 0 .6.312.6.72 0 .432-.216.768-.6.768h-2.88c-.264.744-.624 1.464-.984 2.184h3.528c.384 0 .6.312.6.72 0 .432-.216.768-.6.768h-6.312v1.728h5.376c.384 0 .6.36.6.768 0 .408-.216.768-.6.768h-5.376v1.728h6.576c.384 0 .576.384.576.768 0 .432-.192.744-.576.744h-6.576v2.208c0 .456-.36.696-.888.696s-.864-.24-.864-.696V349.4h-6.168c-.384 0-.624-.336-.624-.744 0-.384.192-.768.6-.768h6.192v-1.728h-5.088c-.384 0-.6-.36-.6-.768 0-.408.216-.768.6-.768h5.088v-1.728h-5.928c-.384 0-.6-.336-.6-.768 0-.408.216-.72.6-.72zm4.92 0h3.72c.384-.696.672-1.44.96-2.184h-5.544c.336.696.624 1.44.864 2.184zm-6.864 2.88v5.64c.624 1.56 1.992 2.28 3.456 2.52 1.128.168 2.664.264 4.584.264 2.976 0 5.952-.12 8.4-.312h.12c.576 0 .816.312.864.888v.072c0 .528-.288.864-.912.912-2.448.096-5.736.192-8.616.192-2.064 0-3.864-.12-5.04-.384-1.704-.384-3.072-1.272-3.816-2.712a18.14 18.14 0 01-2.928 2.856c-.168.096-.36.168-.552.168-.24 0-.504-.12-.72-.384a1.023 1.023 0 01-.216-.6c0-.264.12-.504.384-.672.936-.648 2.28-1.776 3.192-2.856v-5.208c0-.456-.168-.6-.6-.6h-2.064c-.432 0-.72-.288-.72-.84s.288-.84.72-.84h2.712c1.224 0 1.752.648 1.752 1.896zm-2.832-10.656c1.008.96 2.016 2.232 2.88 3.432.12.192.168.384.168.552 0 .288-.144.552-.408.744-.192.168-.408.264-.624.264a.81.81 0 01-.696-.384c-.744-1.176-1.752-2.472-2.688-3.384a.68.68 0 01-.24-.528c0-.24.12-.48.336-.672a1.02 1.02 0 01.648-.264.93.93 0 01.624.24zm43.152 4.584h-7.272c.144 2.88.48 5.304 1.08 7.368.12.408.24.816.408 1.224 1.2-1.752 2.16-3.72 2.832-5.88.12-.36.384-.528.696-.528.144 0 .288.024.432.096.408.12.624.384.624.744 0 .12-.024.24-.048.36a22.937 22.937 0 01-3.72 7.08c.744 1.488 1.656 2.712 2.568 3.432.264.216.504.312.672.312.216 0 .36-.144.48-.432.168-.408.36-1.32.432-2.304.048-.504.384-.744.864-.744h.072c.504.024.816.336.816.792v.048c-.096 1.32-.432 2.808-.984 3.696-.408.672-.936 1.008-1.536 1.008-.528 0-1.128-.264-1.776-.744-1.008-.792-2.016-2.064-2.88-3.576a20.12 20.12 0 01-5.88 4.344 1.278 1.278 0 01-.576.144.855.855 0 01-.744-.432 1.044 1.044 0 01-.168-.552c0-.312.168-.576.504-.744a18.079 18.079 0 006.024-4.512 17.426 17.426 0 01-.744-2.064c-.672-2.232-1.056-4.896-1.224-8.136h-7.488c-.648 0-.912.264-.912.936v2.832h4.416c1.344 0 1.968.624 1.968 1.968 0 1.8-.264 4.176-.6 5.448-.36 1.512-1.176 1.872-2.664 1.872-.624 0-1.56-.072-2.16-.24-.408-.12-.648-.384-.648-.768 0-.096.024-.216.048-.312.096-.432.336-.6.672-.6.096 0 .192.024.312.048a8.649 8.649 0 001.584.168c.816 0 1.056-.12 1.2-.744.288-1.176.456-2.952.456-4.536 0-.504-.216-.648-.72-.648h-3.888c-.096 4.176-.72 7.512-2.184 10.464-.168.408-.456.552-.792.552a1.14 1.14 0 01-.6-.168c-.312-.144-.48-.384-.48-.672 0-.168.048-.36.144-.576 1.632-3.12 2.112-6.552 2.112-11.76v-2.76c0-1.464.72-2.208 2.184-2.208h7.968c-.024-.96-.048-1.944-.048-3 0-.456.384-.696.888-.696.528 0 .912.24.912.696 0 1.056 0 2.04.048 3h7.32c.456 0 .648.36.648.84 0 .504-.192.864-.648.864zm-4.272-5.208c.84.408 1.944 1.104 2.664 1.728.24.192.336.432.336.648a.839.839 0 01-.192.528.876.876 0 01-.672.336c-.192 0-.384-.072-.576-.216-.72-.6-1.68-1.248-2.472-1.68a.7.7 0 01-.384-.624c0-.168.048-.336.168-.48a.802.802 0 01.672-.36c.144 0 .312.048.456.12z"/></g></g></svg>