<?xml version="1.0" encoding="UTF-8"?>
<svg width="558px" height="389px" viewBox="0 0 558 389" version="1.1" xmlns="http://www.w3.org/2000/svg" xmlns:xlink="http://www.w3.org/1999/xlink">
    <!-- Generator: Sketch 48.2 (47327) - http://www.bohemiancoding.com/sketch -->
    <title>cbal-cycle</title>
    <desc>Created with Sketch.</desc>
    <defs>
        <linearGradient x1="50%" y1="0%" x2="50%" y2="100%" id="linearGradient-1">
            <stop stop-color="#E69877" offset="0%"></stop>
            <stop stop-color="#F3C68D" offset="100%"></stop>
        </linearGradient>
    </defs>
    <g id="Page-1" stroke="none" stroke-width="1" fill="none" fill-rule="evenodd">
        <rect id="Background" fill="url(#linearGradient-1)" x="-7" y="-8" width="574" height="404"></rect>
        <g id="Arrows" transform="translate(121.000000, 18.000000)">
            <path d="M25.00787,156.4322 C25.00787,82.79136 84.705593,23.09364 158.34647,23.09364 C193.710056,23.09364 227.62525,37.141766 252.63108,62.147595 C277.636909,87.153424 291.685066,121.068615 291.685066,156.432205 C291.685066,230.073075 231.987343,289.770805 158.346466,289.770805 C84.705596,289.770805 25.007866,230.073082 25.007866,156.432205 L25.00787,156.4322 Z M67.854885,156.4322 C67.854885,206.40931 108.36935,246.92378 158.346465,246.92378 C208.323575,246.92378 248.838015,206.409315 248.838015,156.4322 C248.838015,106.45512 208.32358,65.94065 158.346465,65.94065 C108.369355,65.94065 67.854885,106.455115 67.854885,156.4322 Z" id="Shape" fill="#CB4343"></path>
            <g id="p.1-link" transform="translate(158.000000, 15.000000)" fill="#2F6070">
                <g id="p.1">
                    <path d="M0.7038,0.76863 C65.92621,1.04215905 122.48139,45.9353 137.54755,109.39432 L113.0647,115.206942 C100.682376,63.052522 54.201938,26.156652 0.59827,25.931842 L0.7038,0.76863 Z" id="Shape"></path>
                </g>
            </g>
            <g id="p.1" transform="translate(158.000000, 14.000000)" fill="#2F6070">
                <path d="M0.7038,0.76863 C65.92621,1.04215905 122.48139,45.9353 137.54755,109.39432 L113.0647,115.206942 C100.682376,63.052522 54.201938,26.156652 0.59827,25.931842 L0.7038,0.76863 Z" id="Shape"></path>
            </g>
            <g id="p.2-link" transform="translate(227.000000, 123.000000)" fill="#76C9AC">
                <g id="p.2">
                    <path d="M15.34598,147.59048 C61.30475,113.798274 82.41956,55.67419 68.86597,0.26284 L44.56403,6.2070844 C55.716435,51.8017504 38.3422893,99.6285944 0.52561,127.434164 L15.34598,147.59048 Z" id="Shape"></path>
                </g>
            </g>
            <g id="p.2" transform="translate(227.000000, 122.000000)" fill="#76C9AC">
                <path d="M15.34598,147.59048 C61.30475,113.798274 82.41956,55.67419 68.86597,0.26284 L44.56403,6.2070844 C55.716435,51.8017504 38.3422893,99.6285944 0.52561,127.434164 L15.34598,147.59048 Z" id="Shape"></path>
            </g>
            <polygon id="Shape" fill="#2F6070" points="289.6126 140.47293 255.628347 123.18161 306.903921 106.488678"></polygon>
            <g id="p.3-link" transform="translate(21.000000, 15.000000)" fill="#D2EADC">
                <g id="p.3">
                    <path d="M139.62427,0.37749 C75.24735,-0.8540316 18.14853,41.51308 0.66703,103.48328 L24.772316,110.283268 C39.160988,59.276828 86.157876,24.405308 139.145241,25.418948 L139.62427,0.37749 Z" id="Shape"></path>
                </g>
            </g>
            <g id="p.3" transform="translate(21.000000, 14.000000)" fill="#D2EADC">
                <path d="M139.62427,0.37749 C75.24735,-0.8540316 18.14853,41.51308 0.66703,103.48328 L24.772316,110.283268 C39.160988,59.276828 86.157876,24.405308 139.145241,25.418948 L139.62427,0.37749 Z" id="Shape"></path>
            </g>
            <g id="p.4-link" transform="translate(15.000000, 108.000000)">
                <g id="p.4">
                    <path d="M57.9269,162.74786 C7.442433,125.498623 -12.413936,59.40863 9.181478,0.50341 L33.938619,9.579673 C16.375509,57.486137 32.5242818,111.235803 73.582296,141.529873 L57.9269,162.74786 Z" id="Shape" fill="#76C9AC"></path>
                    <path d="M57.9269,162.74786 C7.442433,125.498623 -12.413936,59.40863 9.181478,0.50341 L33.938619,9.579673 C16.375509,57.486137 32.5242818,111.235803 73.582296,141.529873 L57.9269,162.74786 Z" id="Shape"></path>
                </g>
            </g>
            <g id="p.4" transform="translate(17.000000, 107.000000)">
                <path d="M57.9269,162.74786 C7.442433,125.498623 -12.413936,59.40863 9.181478,0.50341 L33.938619,9.579673 C16.375509,57.486137 32.5242818,111.235803 73.582296,141.529873 L57.9269,162.74786 Z" id="Shape" fill="#76C9AC"></path>
                <path d="M57.9269,162.74786 C7.442433,125.498623 -12.413936,59.40863 9.181478,0.50341 L33.938619,9.579673 C16.375509,57.486137 32.5242818,111.235803 73.582296,141.529873 L57.9269,162.74786 Z" id="Shape"></path>
            </g>
            <g id="p.5-link" transform="translate(70.000000, 248.000000)" fill="#2F6070">
                <g id="p.5">
                    <path d="M0.46597,21.0426 C48.28369,57.970212 114.29577,60.388425 164.68725,27.058469 L150.566004,5.708615 C109.308497,32.997159 55.261744,31.01727 16.111474,0.7831694 L0.46597,21.0426 Z" id="Shape"></path>
                </g>
            </g>
            <g id="p.5" transform="translate(70.000000, 247.000000)" fill="#2F6070">
                <path d="M0.46597,21.0426 C48.28369,57.970212 114.29577,60.388425 164.68725,27.058469 L150.566004,5.708615 C109.308497,32.997159 55.261744,31.01727 16.111474,0.7831694 L0.46597,21.0426 Z" id="Shape"></path>
            </g>
            <polygon id="Shape" fill="#76C9AC" points="44.05728 89.30698 60.781676 123.606205 9.758056 106.031406"></polygon>
            <polygon id="Shape" fill="#76C9AC" points="213.89456 276.06427 219.154417 238.332 251.62686 281.324126"></polygon>
            <polygon id="Shape" fill="#2F6070" points="59.65088 244.00287 97.288667 238.018617 65.635133 281.640657"></polygon>
            <polygon id="Shape" fill="#D2EADC" points="184.9659 27.63289 158.005268 54.593522 158.005268 0.672257"></polygon>
        </g>
        <g id="es" transform="translate(7.000000, 22.000000)">
            <path d="M66.56,2.112 C70.784,2.112 72.68,4.32 73.544,6.432 C73.616,6.6 73.64,6.768 73.64,6.912 C73.64,7.416 73.256,7.752 72.896,7.872 C72.704,7.944 72.512,7.968 72.32,7.968 C71.912,7.968 71.528,7.8 71.312,7.344 C70.592,5.616 69.392,4.2 66.656,4.2 C63.056,4.2 60.68,7.104 60.68,11.832 C60.68,16.464 63.056,19.44 66.656,19.44 C69.536,19.44 70.904,17.712 71.528,15.792 C71.72,15.264 72.152,15.048 72.608,15.048 C72.752,15.048 72.92,15.072 73.088,15.12 C73.496,15.216 73.928,15.576 73.928,16.08 C73.928,16.224 73.904,16.344 73.856,16.488 C73.016,18.864 71,21.552 66.728,21.552 C61.568,21.552 58.28,17.784 58.28,11.808 C58.28,5.976 61.568,2.112 66.56,2.112 Z M82.112,7.536 C85.952,7.536 88.208,10.32 88.208,14.496 C88.208,18.672 85.904,21.552 82.16,21.552 C78.2,21.552 75.896,18.768 75.896,14.496 C75.896,10.344 78.224,7.536 82.112,7.536 Z M82.184,9.384 C79.592,9.384 78.104,11.376 78.104,14.568 C78.104,17.616 79.544,19.704 82.016,19.704 C84.632,19.704 86,17.664 86,14.472 C86,11.448 84.632,9.384 82.184,9.384 Z M102.032,12.216 L102.032,20.352 C102.032,21 101.552,21.312 100.928,21.312 C100.28,21.312 99.824,21 99.824,20.352 L99.824,12.672 C99.824,10.632 99.008,9.48 97.208,9.48 C95.912,9.48 94.832,10.056 94.016,11.184 C93.416,12 93.176,12.696 93.176,13.632 L93.176,20.352 C93.176,21 92.72,21.312 92.096,21.312 C91.424,21.312 90.992,21 90.992,20.352 L90.992,8.664 C90.992,8.04 91.448,7.728 92.12,7.728 C92.744,7.728 93.176,8.04 93.176,8.664 L93.176,9.312 C93.176,9.624 93.104,9.864 93.08,10.32 C93.92,8.616 95.36,7.536 97.64,7.536 C100.496,7.536 102.032,9.264 102.032,12.216 Z M111.296,15.84 L114.032,8.424 C114.224,7.944 114.56,7.728 114.992,7.728 C115.136,7.728 115.28,7.752 115.448,7.8 C115.928,7.944 116.24,8.256 116.24,8.712 C116.24,8.832 116.216,8.976 116.144,9.12 L111.728,20.352 C111.44,21.096 110.912,21.312 110.288,21.312 C109.64,21.312 109.136,21.072 108.848,20.328 L104.432,9.12 C104.384,8.976 104.36,8.856 104.36,8.736 C104.36,8.28 104.672,7.92 105.128,7.8 C105.296,7.752 105.464,7.728 105.608,7.728 C106.04,7.728 106.4,7.92 106.568,8.4 L109.352,15.96 C109.64,16.776 110.12,18.384 110.312,19.248 C110.528,18.36 110.984,16.656 111.296,15.84 Z M128.552,14.928 L120.104,14.928 C120.152,17.88 121.616,19.728 124.208,19.728 C125.936,19.728 126.896,18.864 127.472,17.592 C127.688,17.16 128,16.992 128.336,16.992 C128.504,16.992 128.672,17.04 128.84,17.088 C129.248,17.208 129.584,17.496 129.584,17.928 C129.584,18.072 129.56,18.216 129.464,18.36 C128.696,19.944 127.304,21.528 124.184,21.528 C120.248,21.528 117.968,18.744 117.968,14.592 C117.968,10.44 120.128,7.536 124.04,7.536 C127.544,7.536 129.512,10.272 129.752,13.416 L129.752,13.608 C129.752,14.472 129.296,14.928 128.552,14.928 Z M120.176,13.176 L127.208,13.176 C127.472,13.176 127.568,13.08 127.568,12.864 L127.568,12.744 C127.28,11.04 126.248,9.288 124.04,9.288 C121.736,9.288 120.488,10.824 120.176,13.176 Z M132.704,20.352 L132.704,8.664 C132.704,8.04 133.16,7.728 133.832,7.728 C134.432,7.728 134.912,8.04 134.912,8.664 L134.912,9.192 C134.912,9.528 134.816,9.936 134.768,10.32 C135.152,9.168 136.376,7.68 138.44,7.608 C138.632,7.584 138.8,7.584 138.968,7.584 C139.328,7.584 139.592,7.632 139.928,7.704 C140.48,7.776 140.696,8.112 140.696,8.568 C140.696,8.688 140.672,8.832 140.648,8.976 C140.552,9.48 140.216,9.912 139.712,9.912 C139.64,9.912 139.568,9.912 139.496,9.888 C139.16,9.816 138.848,9.744 138.344,9.744 C137.312,9.768 136.52,10.296 135.92,11.064 C135.296,11.832 134.936,12.72 134.912,13.728 L134.912,20.352 C134.912,21 134.432,21.312 133.832,21.312 C133.16,21.312 132.704,21 132.704,20.352 Z M147.896,15.336 L146.528,15.072 C143.576,14.496 142.352,13.464 142.352,11.184 C142.352,9 144.224,7.512 147.32,7.512 C149.984,7.512 151.688,8.64 152.288,10.392 C152.312,10.488 152.336,10.584 152.336,10.68 C152.336,11.136 151.928,11.448 151.496,11.568 C151.376,11.592 151.232,11.616 151.112,11.616 C150.68,11.616 150.248,11.424 150.128,10.968 C149.816,9.888 148.76,9.336 147.392,9.336 C145.448,9.336 144.536,10.128 144.536,11.136 C144.536,12.24 144.992,12.72 147.008,13.152 L148.496,13.464 C151.616,14.112 152.864,15.024 152.864,17.544 C152.864,19.848 150.896,21.552 147.536,21.552 C144.464,21.552 142.664,20.328 142.04,18.192 C142.016,18.072 141.992,17.976 141.992,17.88 C141.992,17.4 142.4,17.064 142.856,16.968 C142.976,16.944 143.096,16.92 143.192,16.92 C143.648,16.92 144.08,17.112 144.224,17.568 C144.656,18.96 145.64,19.656 147.536,19.656 C149.456,19.656 150.704,18.816 150.704,17.592 C150.704,16.416 150.08,15.768 147.896,15.336 Z M163.688,12.672 L163.688,11.64 C163.688,10.056 162.824,9.36 160.928,9.36 C159.176,9.36 158.312,10.032 157.904,11.136 C157.736,11.592 157.376,11.76 156.968,11.76 C156.776,11.76 156.584,11.736 156.416,11.664 C155.96,11.52 155.624,11.184 155.624,10.752 C155.624,10.656 155.648,10.56 155.672,10.464 C155.912,9.72 156.536,9.024 157.088,8.592 C157.928,7.944 159.008,7.536 160.952,7.536 C164.168,7.536 165.752,8.808 165.752,11.64 L165.752,18.192 C165.752,19.032 165.872,19.848 166.016,20.304 C166.04,20.376 166.064,20.472 166.064,20.544 C166.064,20.928 165.704,21.264 165.104,21.312 L164.888,21.312 C164.408,21.312 163.976,21.168 163.88,20.736 C163.808,20.448 163.76,20.016 163.736,19.536 C162.824,20.568 161.552,21.504 159.176,21.504 C156.536,21.504 154.928,20.016 154.928,17.544 C154.928,15.288 156.272,13.848 158.552,13.224 C159.872,12.864 161.12,12.72 163.688,12.672 Z M163.688,16.008 L163.688,14.4 C160.88,14.472 159.56,14.712 158.6,15.192 C157.64,15.672 157.136,16.416 157.136,17.568 C157.136,18.816 158.096,19.656 159.536,19.656 C161.048,19.656 162.296,18.912 163.064,17.952 C163.52,17.376 163.688,16.92 163.688,16.008 Z M169.664,20.352 L169.664,8.664 C169.664,8.04 170.12,7.728 170.792,7.728 C171.392,7.728 171.872,8.04 171.872,8.664 L171.872,9.192 C171.872,9.528 171.776,9.936 171.728,10.32 C172.112,9.168 173.336,7.68 175.4,7.608 C175.592,7.584 175.76,7.584 175.928,7.584 C176.288,7.584 176.552,7.632 176.888,7.704 C177.44,7.776 177.656,8.112 177.656,8.568 C177.656,8.688 177.632,8.832 177.608,8.976 C177.512,9.48 177.176,9.912 176.672,9.912 C176.6,9.912 176.528,9.912 176.456,9.888 C176.12,9.816 175.808,9.744 175.304,9.744 C174.272,9.768 173.48,10.296 172.88,11.064 C172.256,11.832 171.896,12.72 171.872,13.728 L171.872,20.352 C171.872,21 171.392,21.312 170.792,21.312 C170.12,21.312 169.664,21 169.664,20.352 Z M81.452,38.928 L73.004,38.928 C73.052,41.88 74.516,43.728 77.108,43.728 C78.836,43.728 79.796,42.864 80.372,41.592 C80.588,41.16 80.9,40.992 81.236,40.992 C81.404,40.992 81.572,41.04 81.74,41.088 C82.148,41.208 82.484,41.496 82.484,41.928 C82.484,42.072 82.46,42.216 82.364,42.36 C81.596,43.944 80.204,45.528 77.084,45.528 C73.148,45.528 70.868,42.744 70.868,38.592 C70.868,34.44 73.028,31.536 76.94,31.536 C80.444,31.536 82.412,34.272 82.652,37.416 L82.652,37.608 C82.652,38.472 82.196,38.928 81.452,38.928 Z M73.076,37.176 L80.108,37.176 C80.372,37.176 80.468,37.08 80.468,36.864 L80.468,36.744 C80.18,35.04 79.148,33.288 76.94,33.288 C74.636,33.288 73.388,34.824 73.076,37.176 Z M96.308,36.216 L96.308,44.352 C96.308,45 95.828,45.312 95.204,45.312 C94.556,45.312 94.1,45 94.1,44.352 L94.1,36.672 C94.1,34.632 93.284,33.48 91.484,33.48 C90.188,33.48 89.108,34.056 88.292,35.184 C87.692,36 87.452,36.696 87.452,37.632 L87.452,44.352 C87.452,45 86.996,45.312 86.372,45.312 C85.7,45.312 85.268,45 85.268,44.352 L85.268,32.664 C85.268,32.04 85.724,31.728 86.396,31.728 C87.02,31.728 87.452,32.04 87.452,32.664 L87.452,33.312 C87.452,33.624 87.38,33.864 87.356,34.32 C88.196,32.616 89.636,31.536 91.916,31.536 C94.772,31.536 96.308,33.264 96.308,36.216 Z M107.036,38.568 C107.036,34.464 109.148,31.512 113.084,31.512 C116.252,31.512 117.548,33.264 118.148,34.776 C118.196,34.896 118.22,35.04 118.22,35.136 C118.22,35.592 117.86,35.88 117.5,36.024 C117.332,36.072 117.14,36.096 116.972,36.096 C116.612,36.096 116.3,35.952 116.132,35.544 C115.676,34.32 114.956,33.384 113.132,33.384 C110.636,33.384 109.268,35.496 109.268,38.544 C109.268,41.688 110.612,43.68 113.156,43.68 C115.028,43.68 115.772,42.768 116.228,41.472 C116.396,41.016 116.732,40.824 117.116,40.824 C117.284,40.824 117.452,40.848 117.62,40.92 C118.052,41.016 118.388,41.304 118.388,41.736 C118.388,41.88 118.364,42 118.292,42.168 C117.644,43.824 116.372,45.552 113.108,45.552 C109.22,45.552 107.036,42.696 107.036,38.568 Z M120.932,44.352 L120.932,27.288 C120.932,26.64 121.364,26.328 122.036,26.328 C122.684,26.328 123.116,26.64 123.116,27.288 L123.116,44.352 C123.116,45 122.684,45.312 122.036,45.312 C121.364,45.312 120.932,45 120.932,44.352 Z M134.66,36.672 L134.66,35.64 C134.66,34.056 133.796,33.36 131.9,33.36 C130.148,33.36 129.284,34.032 128.876,35.136 C128.708,35.592 128.348,35.76 127.94,35.76 C127.748,35.76 127.556,35.736 127.388,35.664 C126.932,35.52 126.596,35.184 126.596,34.752 C126.596,34.656 126.62,34.56 126.644,34.464 C126.884,33.72 127.508,33.024 128.06,32.592 C128.9,31.944 129.98,31.536 131.924,31.536 C135.14,31.536 136.724,32.808 136.724,35.64 L136.724,42.192 C136.724,43.032 136.844,43.848 136.988,44.304 C137.012,44.376 137.036,44.472 137.036,44.544 C137.036,44.928 136.676,45.264 136.076,45.312 L135.86,45.312 C135.38,45.312 134.948,45.168 134.852,44.736 C134.78,44.448 134.732,44.016 134.708,43.536 C133.796,44.568 132.524,45.504 130.148,45.504 C127.508,45.504 125.9,44.016 125.9,41.544 C125.9,39.288 127.244,37.848 129.524,37.224 C130.844,36.864 132.092,36.72 134.66,36.672 Z M134.66,40.008 L134.66,38.4 C131.852,38.472 130.532,38.712 129.572,39.192 C128.612,39.672 128.108,40.416 128.108,41.568 C128.108,42.816 129.068,43.656 130.508,43.656 C132.02,43.656 133.268,42.912 134.036,41.952 C134.492,41.376 134.66,40.92 134.66,40.008 Z M145.46,39.336 L144.092,39.072 C141.14,38.496 139.916,37.464 139.916,35.184 C139.916,33 141.788,31.512 144.884,31.512 C147.548,31.512 149.252,32.64 149.852,34.392 C149.876,34.488 149.9,34.584 149.9,34.68 C149.9,35.136 149.492,35.448 149.06,35.568 C148.94,35.592 148.796,35.616 148.676,35.616 C148.244,35.616 147.812,35.424 147.692,34.968 C147.38,33.888 146.324,33.336 144.956,33.336 C143.012,33.336 142.1,34.128 142.1,35.136 C142.1,36.24 142.556,36.72 144.572,37.152 L146.06,37.464 C149.18,38.112 150.428,39.024 150.428,41.544 C150.428,43.848 148.46,45.552 145.1,45.552 C142.028,45.552 140.228,44.328 139.604,42.192 C139.58,42.072 139.556,41.976 139.556,41.88 C139.556,41.4 139.964,41.064 140.42,40.968 C140.54,40.944 140.66,40.92 140.756,40.92 C141.212,40.92 141.644,41.112 141.788,41.568 C142.22,42.96 143.204,43.656 145.1,43.656 C147.02,43.656 148.268,42.816 148.268,41.592 C148.268,40.416 147.644,39.768 145.46,39.336 Z M163.1,38.928 L154.652,38.928 C154.7,41.88 156.164,43.728 158.756,43.728 C160.484,43.728 161.444,42.864 162.02,41.592 C162.236,41.16 162.548,40.992 162.884,40.992 C163.052,40.992 163.22,41.04 163.388,41.088 C163.796,41.208 164.132,41.496 164.132,41.928 C164.132,42.072 164.108,42.216 164.012,42.36 C163.244,43.944 161.852,45.528 158.732,45.528 C154.796,45.528 152.516,42.744 152.516,38.592 C152.516,34.44 154.676,31.536 158.588,31.536 C162.092,31.536 164.06,34.272 164.3,37.416 L164.3,37.608 C164.3,38.472 163.844,38.928 163.1,38.928 Z M154.724,37.176 L161.756,37.176 C162.02,37.176 162.116,37.08 162.116,36.864 L162.116,36.744 C161.828,35.04 160.796,33.288 158.588,33.288 C156.284,33.288 155.036,34.824 154.724,37.176 Z" id="Conversar-en-clase-Copy" fill="#CB4343"></path>
            <path d="M416.436,18.6 L416.436,3.36 C416.436,2.64 416.94,2.328 417.588,2.328 C418.26,2.328 418.74,2.64 418.74,3.336 L418.74,18.168 C418.74,18.72 419.052,19.008 419.604,19.008 L428.1,19.008 C428.724,19.008 429.084,19.464 429.084,20.064 C429.084,20.64 428.724,21.168 428.1,21.168 L418.884,21.168 C417.18,21.168 416.436,20.424 416.436,18.6 Z M441.084,14.928 L432.636,14.928 C432.684,17.88 434.148,19.728 436.74,19.728 C438.468,19.728 439.428,18.864 440.004,17.592 C440.22,17.16 440.532,16.992 440.868,16.992 C441.036,16.992 441.204,17.04 441.372,17.088 C441.78,17.208 442.116,17.496 442.116,17.928 C442.116,18.072 442.092,18.216 441.996,18.36 C441.228,19.944 439.836,21.528 436.716,21.528 C432.78,21.528 430.5,18.744 430.5,14.592 C430.5,10.44 432.66,7.536 436.572,7.536 C440.076,7.536 442.044,10.272 442.284,13.416 L442.284,13.608 C442.284,14.472 441.828,14.928 441.084,14.928 Z M432.708,13.176 L439.74,13.176 C440.004,13.176 440.1,13.08 440.1,12.864 L440.1,12.744 C439.812,11.04 438.78,9.288 436.572,9.288 C434.268,9.288 433.02,10.824 432.708,13.176 Z M454.86,14.928 L446.412,14.928 C446.46,17.88 447.924,19.728 450.516,19.728 C452.244,19.728 453.204,18.864 453.78,17.592 C453.996,17.16 454.308,16.992 454.644,16.992 C454.812,16.992 454.98,17.04 455.148,17.088 C455.556,17.208 455.892,17.496 455.892,17.928 C455.892,18.072 455.868,18.216 455.772,18.36 C455.004,19.944 453.612,21.528 450.492,21.528 C446.556,21.528 444.276,18.744 444.276,14.592 C444.276,10.44 446.436,7.536 450.348,7.536 C453.852,7.536 455.82,10.272 456.06,13.416 L456.06,13.608 C456.06,14.472 455.604,14.928 454.86,14.928 Z M446.484,13.176 L453.516,13.176 C453.78,13.176 453.876,13.08 453.876,12.864 L453.876,12.744 C453.588,11.04 452.556,9.288 450.348,9.288 C448.044,9.288 446.796,10.824 446.484,13.176 Z M459.012,20.352 L459.012,8.664 C459.012,8.04 459.468,7.728 460.14,7.728 C460.74,7.728 461.22,8.04 461.22,8.664 L461.22,9.192 C461.22,9.528 461.124,9.936 461.076,10.32 C461.46,9.168 462.684,7.68 464.748,7.608 C464.94,7.584 465.108,7.584 465.276,7.584 C465.636,7.584 465.9,7.632 466.236,7.704 C466.788,7.776 467.004,8.112 467.004,8.568 C467.004,8.688 466.98,8.832 466.956,8.976 C466.86,9.48 466.524,9.912 466.02,9.912 C465.948,9.912 465.876,9.912 465.804,9.888 C465.468,9.816 465.156,9.744 464.652,9.744 C463.62,9.768 462.828,10.296 462.228,11.064 C461.604,11.832 461.244,12.72 461.22,13.728 L461.22,20.352 C461.22,21 460.74,21.312 460.14,21.312 C459.468,21.312 459.012,21 459.012,20.352 Z M486.996,14.928 L478.548,14.928 C478.596,17.88 480.06,19.728 482.652,19.728 C484.38,19.728 485.34,18.864 485.916,17.592 C486.132,17.16 486.444,16.992 486.78,16.992 C486.948,16.992 487.116,17.04 487.284,17.088 C487.692,17.208 488.028,17.496 488.028,17.928 C488.028,18.072 488.004,18.216 487.908,18.36 C487.14,19.944 485.748,21.528 482.628,21.528 C478.692,21.528 476.412,18.744 476.412,14.592 C476.412,10.44 478.572,7.536 482.484,7.536 C485.988,7.536 487.956,10.272 488.196,13.416 L488.196,13.608 C488.196,14.472 487.74,14.928 486.996,14.928 Z M478.62,13.176 L485.652,13.176 C485.916,13.176 486.012,13.08 486.012,12.864 L486.012,12.744 C485.724,11.04 484.692,9.288 482.484,9.288 C480.18,9.288 478.932,10.824 478.62,13.176 Z M490.788,20.352 L490.788,3.288 C490.788,2.64 491.22,2.328 491.892,2.328 C492.54,2.328 492.972,2.64 492.972,3.288 L492.972,20.352 C492.972,21 492.54,21.312 491.892,21.312 C491.22,21.312 490.788,21 490.788,20.352 Z M383.424,44.136 L383.424,49.416 C383.424,50.016 383.016,50.352 382.368,50.352 C381.696,50.352 381.288,50.016 381.288,49.416 L381.288,32.664 C381.288,32.04 381.696,31.728 382.368,31.728 C382.968,31.728 383.424,32.016 383.424,32.616 L383.424,33.048 C383.424,33.384 383.4,33.96 383.328,34.368 C384.168,32.664 385.488,31.536 387.816,31.536 C391.416,31.536 393.456,34.152 393.456,38.424 C393.456,42.696 391.296,45.528 387.72,45.528 C385.488,45.528 384.12,44.424 383.304,42.744 C383.4,43.2 383.424,43.704 383.424,44.136 Z M387.504,33.408 C384.864,33.408 383.376,35.544 383.376,38.496 C383.376,41.472 384.936,43.632 387.456,43.632 C389.88,43.632 391.248,41.568 391.248,38.472 C391.248,35.352 389.928,33.408 387.504,33.408 Z M396.6,44.352 L396.6,32.664 C396.6,32.04 397.056,31.728 397.728,31.728 C398.328,31.728 398.808,32.04 398.808,32.664 L398.808,33.192 C398.808,33.528 398.712,33.936 398.664,34.32 C399.048,33.168 400.272,31.68 402.336,31.608 C402.528,31.584 402.696,31.584 402.864,31.584 C403.224,31.584 403.488,31.632 403.824,31.704 C404.376,31.776 404.592,32.112 404.592,32.568 C404.592,32.688 404.568,32.832 404.544,32.976 C404.448,33.48 404.112,33.912 403.608,33.912 C403.536,33.912 403.464,33.912 403.392,33.888 C403.056,33.816 402.744,33.744 402.24,33.744 C401.208,33.768 400.416,34.296 399.816,35.064 C399.192,35.832 398.832,36.72 398.808,37.728 L398.808,44.352 C398.808,45 398.328,45.312 397.728,45.312 C397.056,45.312 396.6,45 396.6,44.352 Z M412.224,31.536 C416.064,31.536 418.32,34.32 418.32,38.496 C418.32,42.672 416.016,45.552 412.272,45.552 C408.312,45.552 406.008,42.768 406.008,38.496 C406.008,34.344 408.336,31.536 412.224,31.536 Z M412.296,33.384 C409.704,33.384 408.216,35.376 408.216,38.568 C408.216,41.616 409.656,43.704 412.128,43.704 C414.744,43.704 416.112,41.664 416.112,38.472 C416.112,35.448 414.744,33.384 412.296,33.384 Z M411.408,29.4 L414.192,26.472 C414.36,26.304 414.552,26.232 414.792,26.232 C415.08,26.232 415.416,26.352 415.632,26.592 C415.872,26.832 416.016,27.12 416.016,27.408 C416.016,27.672 415.896,27.888 415.656,28.056 L412.272,30.312 C412.152,30.408 411.984,30.456 411.84,30.456 C411.672,30.456 411.504,30.384 411.36,30.24 C411.264,30.12 411.216,30 411.216,29.88 C411.216,29.712 411.288,29.544 411.408,29.4 Z M424.392,38.304 L420.576,33.384 C420.432,33.192 420.36,33 420.36,32.808 C420.36,32.472 420.552,32.136 420.864,31.944 C421.08,31.8 421.32,31.728 421.536,31.728 C421.824,31.728 422.112,31.848 422.328,32.136 L425.712,36.792 L428.976,32.112 C429.192,31.824 429.48,31.704 429.768,31.704 C430.008,31.704 430.224,31.776 430.44,31.92 C430.728,32.112 430.944,32.448 430.944,32.808 C430.944,33 430.872,33.192 430.728,33.384 L427.056,38.304 L430.992,43.608 C431.136,43.8 431.208,44.016 431.208,44.232 C431.208,44.568 431.04,44.88 430.752,45.072 C430.536,45.216 430.296,45.312 430.056,45.312 C429.768,45.312 429.48,45.192 429.288,44.904 L425.712,39.84 L422.112,44.904 C421.896,45.192 421.608,45.312 421.344,45.312 C421.08,45.312 420.816,45.216 420.6,45.072 C420.36,44.856 420.168,44.568 420.168,44.256 C420.168,44.064 420.24,43.872 420.384,43.68 L424.392,38.304 Z M433.704,44.352 L433.704,32.664 C433.704,32.04 434.112,31.728 434.784,31.728 C435.432,31.728 435.888,32.04 435.888,32.664 L435.888,44.352 C435.888,45 435.432,45.312 434.784,45.312 C434.112,45.312 433.704,45 433.704,44.352 Z M434.808,26.304 C435.696,26.304 436.416,27 436.416,27.912 C436.416,28.848 435.696,29.544 434.808,29.544 C433.896,29.544 433.176,28.848 433.176,27.912 C433.176,27 433.896,26.304 434.808,26.304 Z M457.032,36.192 L457.032,44.352 C457.032,45 456.552,45.312 455.928,45.312 C455.256,45.312 454.848,45 454.848,44.352 L454.848,36.672 C454.848,34.632 454.272,33.48 452.544,33.48 C451.272,33.48 450.432,34.248 449.856,35.112 C449.496,35.616 449.208,36.552 449.208,37.272 L449.208,44.352 C449.208,45 448.752,45.312 448.128,45.312 C447.456,45.312 447.048,45 447.048,44.352 L447.048,36.672 C447.048,34.632 446.448,33.48 444.744,33.48 C443.472,33.48 442.704,34.224 442.128,35.088 C441.696,35.736 441.48,36.6 441.48,37.392 L441.48,44.352 C441.48,45 441.048,45.312 440.424,45.312 C439.752,45.312 439.32,45 439.32,44.352 L439.32,32.664 C439.32,32.04 439.776,31.728 440.448,31.728 C441.048,31.728 441.48,32.04 441.48,32.664 L441.48,33.168 C441.48,33.48 441.384,33.96 441.312,34.32 C441.912,32.904 442.92,31.56 445.272,31.56 C447.384,31.56 448.536,32.52 448.848,34.176 C449.544,32.928 450.408,31.56 453.072,31.56 C455.904,31.56 457.032,33.264 457.032,36.192 Z M465.96,31.536 C469.8,31.536 472.056,34.32 472.056,38.496 C472.056,42.672 469.752,45.552 466.008,45.552 C462.048,45.552 459.744,42.768 459.744,38.496 C459.744,34.344 462.072,31.536 465.96,31.536 Z M466.032,33.384 C463.44,33.384 461.952,35.376 461.952,38.568 C461.952,41.616 463.392,43.704 465.864,43.704 C468.48,43.704 469.848,41.664 469.848,38.472 C469.848,35.448 468.48,33.384 466.032,33.384 Z M483.168,44.352 L483.168,32.664 C483.168,32.04 483.624,31.728 484.296,31.728 C484.896,31.728 485.376,32.04 485.376,32.664 L485.376,33.192 C485.376,33.528 485.28,33.936 485.232,34.32 C485.616,33.168 486.84,31.68 488.904,31.608 C489.096,31.584 489.264,31.584 489.432,31.584 C489.792,31.584 490.056,31.632 490.392,31.704 C490.944,31.776 491.16,32.112 491.16,32.568 C491.16,32.688 491.136,32.832 491.112,32.976 C491.016,33.48 490.68,33.912 490.176,33.912 C490.104,33.912 490.032,33.912 489.96,33.888 C489.624,33.816 489.312,33.744 488.808,33.744 C487.776,33.768 486.984,34.296 486.384,35.064 C485.76,35.832 485.4,36.72 485.376,37.728 L485.376,44.352 C485.376,45 484.896,45.312 484.296,45.312 C483.624,45.312 483.168,45 483.168,44.352 Z M503.16,38.928 L494.712,38.928 C494.76,41.88 496.224,43.728 498.816,43.728 C500.544,43.728 501.504,42.864 502.08,41.592 C502.296,41.16 502.608,40.992 502.944,40.992 C503.112,40.992 503.28,41.04 503.448,41.088 C503.856,41.208 504.192,41.496 504.192,41.928 C504.192,42.072 504.168,42.216 504.072,42.36 C503.304,43.944 501.912,45.528 498.792,45.528 C494.856,45.528 492.576,42.744 492.576,38.592 C492.576,34.44 494.736,31.536 498.648,31.536 C502.152,31.536 504.12,34.272 504.36,37.416 L504.36,37.608 C504.36,38.472 503.904,38.928 503.16,38.928 Z M494.784,37.176 L501.816,37.176 C502.08,37.176 502.176,37.08 502.176,36.864 L502.176,36.744 C501.888,35.04 500.856,33.288 498.648,33.288 C496.344,33.288 495.096,34.824 494.784,37.176 Z M508.392,31.872 L508.392,28.968 C508.392,28.344 508.8,28.008 509.472,28.008 C510.096,28.008 510.552,28.344 510.552,28.968 L510.552,31.872 L513.624,31.872 C514.224,31.872 514.512,32.256 514.512,32.832 C514.512,33.384 514.2,33.768 513.624,33.768 L510.552,33.768 L510.552,41.808 C510.552,42.984 511.056,43.488 511.944,43.488 C512.544,43.488 512.952,43.32 513.36,43.08 C513.504,43.008 513.648,42.96 513.792,42.96 C514.152,42.96 514.44,43.224 514.584,43.584 C514.656,43.752 514.68,43.944 514.68,44.112 C514.68,44.448 514.536,44.784 514.176,44.976 C513.48,45.312 512.832,45.504 511.8,45.504 C509.832,45.504 508.392,44.52 508.392,42 L508.392,33.768 L506.52,33.768 C505.944,33.768 505.68,33.384 505.68,32.832 C505.68,32.28 505.944,31.872 506.544,31.872 L508.392,31.872 Z M522.24,31.536 C526.08,31.536 528.336,34.32 528.336,38.496 C528.336,42.672 526.032,45.552 522.288,45.552 C518.328,45.552 516.024,42.768 516.024,38.496 C516.024,34.344 518.352,31.536 522.24,31.536 Z M522.312,33.384 C519.72,33.384 518.232,35.376 518.232,38.568 C518.232,41.616 519.672,43.704 522.144,43.704 C524.76,43.704 526.128,41.664 526.128,38.472 C526.128,35.448 524.76,33.384 522.312,33.384 Z" id="Leer-el-próximo-reto-Copy" fill="#2F6070"></path>
            <path d="M421.936,186.112 C426.16,186.112 428.056,188.32 428.92,190.432 C428.992,190.6 429.016,190.768 429.016,190.912 C429.016,191.416 428.632,191.752 428.272,191.872 C428.08,191.944 427.888,191.968 427.696,191.968 C427.288,191.968 426.904,191.8 426.688,191.344 C425.968,189.616 424.768,188.2 422.032,188.2 C418.432,188.2 416.056,191.104 416.056,195.832 C416.056,200.464 418.432,203.44 422.032,203.44 C424.912,203.44 426.28,201.712 426.904,199.792 C427.096,199.264 427.528,199.048 427.984,199.048 C428.128,199.048 428.296,199.072 428.464,199.12 C428.872,199.216 429.304,199.576 429.304,200.08 C429.304,200.224 429.28,200.344 429.232,200.488 C428.392,202.864 426.376,205.552 422.104,205.552 C416.944,205.552 413.656,201.784 413.656,195.808 C413.656,189.976 416.944,186.112 421.936,186.112 Z M437.488,191.536 C441.328,191.536 443.584,194.32 443.584,198.496 C443.584,202.672 441.28,205.552 437.536,205.552 C433.576,205.552 431.272,202.768 431.272,198.496 C431.272,194.344 433.6,191.536 437.488,191.536 Z M437.56,193.384 C434.968,193.384 433.48,195.376 433.48,198.568 C433.48,201.616 434.92,203.704 437.392,203.704 C440.008,203.704 441.376,201.664 441.376,198.472 C441.376,195.448 440.008,193.384 437.56,193.384 Z M457.408,196.216 L457.408,204.352 C457.408,205 456.928,205.312 456.304,205.312 C455.656,205.312 455.2,205 455.2,204.352 L455.2,196.672 C455.2,194.632 454.384,193.48 452.584,193.48 C451.288,193.48 450.208,194.056 449.392,195.184 C448.792,196 448.552,196.696 448.552,197.632 L448.552,204.352 C448.552,205 448.096,205.312 447.472,205.312 C446.8,205.312 446.368,205 446.368,204.352 L446.368,192.664 C446.368,192.04 446.824,191.728 447.496,191.728 C448.12,191.728 448.552,192.04 448.552,192.664 L448.552,193.312 C448.552,193.624 448.48,193.864 448.456,194.32 C449.296,192.616 450.736,191.536 453.016,191.536 C455.872,191.536 457.408,193.264 457.408,196.216 Z M465.928,199.336 L464.56,199.072 C461.608,198.496 460.384,197.464 460.384,195.184 C460.384,193 462.256,191.512 465.352,191.512 C468.016,191.512 469.72,192.64 470.32,194.392 C470.344,194.488 470.368,194.584 470.368,194.68 C470.368,195.136 469.96,195.448 469.528,195.568 C469.408,195.592 469.264,195.616 469.144,195.616 C468.712,195.616 468.28,195.424 468.16,194.968 C467.848,193.888 466.792,193.336 465.424,193.336 C463.48,193.336 462.568,194.128 462.568,195.136 C462.568,196.24 463.024,196.72 465.04,197.152 L466.528,197.464 C469.648,198.112 470.896,199.024 470.896,201.544 C470.896,203.848 468.928,205.552 465.568,205.552 C462.496,205.552 460.696,204.328 460.072,202.192 C460.048,202.072 460.024,201.976 460.024,201.88 C460.024,201.4 460.432,201.064 460.888,200.968 C461.008,200.944 461.128,200.92 461.224,200.92 C461.68,200.92 462.112,201.112 462.256,201.568 C462.688,202.96 463.672,203.656 465.568,203.656 C467.488,203.656 468.736,202.816 468.736,201.592 C468.736,200.416 468.112,199.768 465.928,199.336 Z M473.536,200.824 L473.536,192.688 C473.536,192.04 473.992,191.728 474.64,191.728 C475.288,191.728 475.744,192.04 475.744,192.688 L475.744,200.368 C475.744,202.432 476.584,203.584 478.36,203.584 C479.632,203.584 480.664,202.984 481.48,201.856 C482.056,201.04 482.296,200.296 482.296,199.36 L482.296,192.688 C482.296,192.04 482.752,191.728 483.4,191.728 C484.024,191.728 484.48,192.04 484.48,192.688 L484.48,204.352 C484.48,205 484.048,205.312 483.424,205.312 C482.776,205.312 482.32,205.024 482.32,204.424 L482.32,203.752 C482.32,203.488 482.392,203.008 482.464,202.624 C481.72,204.304 480.328,205.528 477.928,205.528 C475.096,205.528 473.536,203.752 473.536,200.824 Z M487.912,204.352 L487.912,187.288 C487.912,186.64 488.344,186.328 489.016,186.328 C489.664,186.328 490.096,186.64 490.096,187.288 L490.096,204.352 C490.096,205 489.664,205.312 489.016,205.312 C488.344,205.312 487.912,205 487.912,204.352 Z M494.944,191.872 L494.944,188.968 C494.944,188.344 495.352,188.008 496.024,188.008 C496.648,188.008 497.104,188.344 497.104,188.968 L497.104,191.872 L500.176,191.872 C500.776,191.872 501.064,192.256 501.064,192.832 C501.064,193.384 500.752,193.768 500.176,193.768 L497.104,193.768 L497.104,201.808 C497.104,202.984 497.608,203.488 498.496,203.488 C499.096,203.488 499.504,203.32 499.912,203.08 C500.056,203.008 500.2,202.96 500.344,202.96 C500.704,202.96 500.992,203.224 501.136,203.584 C501.208,203.752 501.232,203.944 501.232,204.112 C501.232,204.448 501.088,204.784 500.728,204.976 C500.032,205.312 499.384,205.504 498.352,205.504 C496.384,205.504 494.944,204.52 494.944,202 L494.944,193.768 L493.072,193.768 C492.496,193.768 492.232,193.384 492.232,192.832 C492.232,192.28 492.496,191.872 493.096,191.872 L494.944,191.872 Z M511.312,196.672 L511.312,195.64 C511.312,194.056 510.448,193.36 508.552,193.36 C506.8,193.36 505.936,194.032 505.528,195.136 C505.36,195.592 505,195.76 504.592,195.76 C504.4,195.76 504.208,195.736 504.04,195.664 C503.584,195.52 503.248,195.184 503.248,194.752 C503.248,194.656 503.272,194.56 503.296,194.464 C503.536,193.72 504.16,193.024 504.712,192.592 C505.552,191.944 506.632,191.536 508.576,191.536 C511.792,191.536 513.376,192.808 513.376,195.64 L513.376,202.192 C513.376,203.032 513.496,203.848 513.64,204.304 C513.664,204.376 513.688,204.472 513.688,204.544 C513.688,204.928 513.328,205.264 512.728,205.312 L512.512,205.312 C512.032,205.312 511.6,205.168 511.504,204.736 C511.432,204.448 511.384,204.016 511.36,203.536 C510.448,204.568 509.176,205.504 506.8,205.504 C504.16,205.504 502.552,204.016 502.552,201.544 C502.552,199.288 503.896,197.848 506.176,197.224 C507.496,196.864 508.744,196.72 511.312,196.672 Z M511.312,200.008 L511.312,198.4 C508.504,198.472 507.184,198.712 506.224,199.192 C505.264,199.672 504.76,200.416 504.76,201.568 C504.76,202.816 505.72,203.656 507.16,203.656 C508.672,203.656 509.92,202.912 510.688,201.952 C511.144,201.376 511.312,200.92 511.312,200.008 Z M517.288,204.352 L517.288,192.664 C517.288,192.04 517.744,191.728 518.416,191.728 C519.016,191.728 519.496,192.04 519.496,192.664 L519.496,193.192 C519.496,193.528 519.4,193.936 519.352,194.32 C519.736,193.168 520.96,191.68 523.024,191.608 C523.216,191.584 523.384,191.584 523.552,191.584 C523.912,191.584 524.176,191.632 524.512,191.704 C525.064,191.776 525.28,192.112 525.28,192.568 C525.28,192.688 525.256,192.832 525.232,192.976 C525.136,193.48 524.8,193.912 524.296,193.912 C524.224,193.912 524.152,193.912 524.08,193.888 C523.744,193.816 523.432,193.744 522.928,193.744 C521.896,193.768 521.104,194.296 520.504,195.064 C519.88,195.832 519.52,196.72 519.496,197.728 L519.496,204.352 C519.496,205 519.016,205.312 518.416,205.312 C517.744,205.312 517.288,205 517.288,204.352 Z M420.196,222.928 L411.748,222.928 C411.796,225.88 413.26,227.728 415.852,227.728 C417.58,227.728 418.54,226.864 419.116,225.592 C419.332,225.16 419.644,224.992 419.98,224.992 C420.148,224.992 420.316,225.04 420.484,225.088 C420.892,225.208 421.228,225.496 421.228,225.928 C421.228,226.072 421.204,226.216 421.108,226.36 C420.34,227.944 418.948,229.528 415.828,229.528 C411.892,229.528 409.612,226.744 409.612,222.592 C409.612,218.44 411.772,215.536 415.684,215.536 C419.188,215.536 421.156,218.272 421.396,221.416 L421.396,221.608 C421.396,222.472 420.94,222.928 420.196,222.928 Z M411.82,221.176 L418.852,221.176 C419.116,221.176 419.212,221.08 419.212,220.864 L419.212,220.744 C418.924,219.04 417.892,217.288 415.684,217.288 C413.38,217.288 412.132,218.824 411.82,221.176 Z M423.988,228.352 L423.988,211.288 C423.988,210.64 424.42,210.328 425.092,210.328 C425.74,210.328 426.172,210.64 426.172,211.288 L426.172,228.352 C426.172,229 425.74,229.312 425.092,229.312 C424.42,229.312 423.988,229 423.988,228.352 Z M455.308,220.192 L455.308,228.352 C455.308,229 454.828,229.312 454.204,229.312 C453.532,229.312 453.124,229 453.124,228.352 L453.124,220.672 C453.124,218.632 452.548,217.48 450.82,217.48 C449.548,217.48 448.708,218.248 448.132,219.112 C447.772,219.616 447.484,220.552 447.484,221.272 L447.484,228.352 C447.484,229 447.028,229.312 446.404,229.312 C445.732,229.312 445.324,229 445.324,228.352 L445.324,220.672 C445.324,218.632 444.724,217.48 443.02,217.48 C441.748,217.48 440.98,218.224 440.404,219.088 C439.972,219.736 439.756,220.6 439.756,221.392 L439.756,228.352 C439.756,229 439.324,229.312 438.7,229.312 C438.028,229.312 437.596,229 437.596,228.352 L437.596,216.664 C437.596,216.04 438.052,215.728 438.724,215.728 C439.324,215.728 439.756,216.04 439.756,216.664 L439.756,217.168 C439.756,217.48 439.66,217.96 439.588,218.32 C440.188,216.904 441.196,215.56 443.548,215.56 C445.66,215.56 446.812,216.52 447.124,218.176 C447.82,216.928 448.684,215.56 451.348,215.56 C454.18,215.56 455.308,217.264 455.308,220.192 Z M466.756,220.672 L466.756,219.64 C466.756,218.056 465.892,217.36 463.996,217.36 C462.244,217.36 461.38,218.032 460.972,219.136 C460.804,219.592 460.444,219.76 460.036,219.76 C459.844,219.76 459.652,219.736 459.484,219.664 C459.028,219.52 458.692,219.184 458.692,218.752 C458.692,218.656 458.716,218.56 458.74,218.464 C458.98,217.72 459.604,217.024 460.156,216.592 C460.996,215.944 462.076,215.536 464.02,215.536 C467.236,215.536 468.82,216.808 468.82,219.64 L468.82,226.192 C468.82,227.032 468.94,227.848 469.084,228.304 C469.108,228.376 469.132,228.472 469.132,228.544 C469.132,228.928 468.772,229.264 468.172,229.312 L467.956,229.312 C467.476,229.312 467.044,229.168 466.948,228.736 C466.876,228.448 466.828,228.016 466.804,227.536 C465.892,228.568 464.62,229.504 462.244,229.504 C459.604,229.504 457.996,228.016 457.996,225.544 C457.996,223.288 459.34,221.848 461.62,221.224 C462.94,220.864 464.188,220.72 466.756,220.672 Z M466.756,224.008 L466.756,222.4 C463.948,222.472 462.628,222.712 461.668,223.192 C460.708,223.672 460.204,224.416 460.204,225.568 C460.204,226.816 461.164,227.656 462.604,227.656 C464.116,227.656 465.364,226.912 466.132,225.952 C466.588,225.376 466.756,224.92 466.756,224.008 Z M473.812,215.872 L473.812,212.968 C473.812,212.344 474.22,212.008 474.892,212.008 C475.516,212.008 475.972,212.344 475.972,212.968 L475.972,215.872 L479.044,215.872 C479.644,215.872 479.932,216.256 479.932,216.832 C479.932,217.384 479.62,217.768 479.044,217.768 L475.972,217.768 L475.972,225.808 C475.972,226.984 476.476,227.488 477.364,227.488 C477.964,227.488 478.372,227.32 478.78,227.08 C478.924,227.008 479.068,226.96 479.212,226.96 C479.572,226.96 479.86,227.224 480.004,227.584 C480.076,227.752 480.1,227.944 480.1,228.112 C480.1,228.448 479.956,228.784 479.596,228.976 C478.9,229.312 478.252,229.504 477.22,229.504 C475.252,229.504 473.812,228.52 473.812,226 L473.812,217.768 L471.94,217.768 C471.364,217.768 471.1,217.384 471.1,216.832 C471.1,216.28 471.364,215.872 471.964,215.872 L473.812,215.872 Z M492.028,222.928 L483.58,222.928 C483.628,225.88 485.092,227.728 487.684,227.728 C489.412,227.728 490.372,226.864 490.948,225.592 C491.164,225.16 491.476,224.992 491.812,224.992 C491.98,224.992 492.148,225.04 492.316,225.088 C492.724,225.208 493.06,225.496 493.06,225.928 C493.06,226.072 493.036,226.216 492.94,226.36 C492.172,227.944 490.78,229.528 487.66,229.528 C483.724,229.528 481.444,226.744 481.444,222.592 C481.444,218.44 483.604,215.536 487.516,215.536 C491.02,215.536 492.988,218.272 493.228,221.416 L493.228,221.608 C493.228,222.472 492.772,222.928 492.028,222.928 Z M483.652,221.176 L490.684,221.176 C490.948,221.176 491.044,221.08 491.044,220.864 L491.044,220.744 C490.756,219.04 489.724,217.288 487.516,217.288 C485.212,217.288 483.964,218.824 483.652,221.176 Z M496.18,228.352 L496.18,216.664 C496.18,216.04 496.636,215.728 497.308,215.728 C497.908,215.728 498.388,216.04 498.388,216.664 L498.388,217.192 C498.388,217.528 498.292,217.936 498.244,218.32 C498.628,217.168 499.852,215.68 501.916,215.608 C502.108,215.584 502.276,215.584 502.444,215.584 C502.804,215.584 503.068,215.632 503.404,215.704 C503.956,215.776 504.172,216.112 504.172,216.568 C504.172,216.688 504.148,216.832 504.124,216.976 C504.028,217.48 503.692,217.912 503.188,217.912 C503.116,217.912 503.044,217.912 502.972,217.888 C502.636,217.816 502.324,217.744 501.82,217.744 C500.788,217.768 499.996,218.296 499.396,219.064 C498.772,219.832 498.412,220.72 498.388,221.728 L498.388,228.352 C498.388,229 497.908,229.312 497.308,229.312 C496.636,229.312 496.18,229 496.18,228.352 Z M506.212,228.352 L506.212,216.664 C506.212,216.04 506.62,215.728 507.292,215.728 C507.94,215.728 508.396,216.04 508.396,216.664 L508.396,228.352 C508.396,229 507.94,229.312 507.292,229.312 C506.62,229.312 506.212,229 506.212,228.352 Z M507.316,210.304 C508.204,210.304 508.924,211 508.924,211.912 C508.924,212.848 508.204,213.544 507.316,213.544 C506.404,213.544 505.684,212.848 505.684,211.912 C505.684,211 506.404,210.304 507.316,210.304 Z M519.94,220.672 L519.94,219.64 C519.94,218.056 519.076,217.36 517.18,217.36 C515.428,217.36 514.564,218.032 514.156,219.136 C513.988,219.592 513.628,219.76 513.22,219.76 C513.028,219.76 512.836,219.736 512.668,219.664 C512.212,219.52 511.876,219.184 511.876,218.752 C511.876,218.656 511.9,218.56 511.924,218.464 C512.164,217.72 512.788,217.024 513.34,216.592 C514.18,215.944 515.26,215.536 517.204,215.536 C520.42,215.536 522.004,216.808 522.004,219.64 L522.004,226.192 C522.004,227.032 522.124,227.848 522.268,228.304 C522.292,228.376 522.316,228.472 522.316,228.544 C522.316,228.928 521.956,229.264 521.356,229.312 L521.14,229.312 C520.66,229.312 520.228,229.168 520.132,228.736 C520.06,228.448 520.012,228.016 519.988,227.536 C519.076,228.568 517.804,229.504 515.428,229.504 C512.788,229.504 511.18,228.016 511.18,225.544 C511.18,223.288 512.524,221.848 514.804,221.224 C516.124,220.864 517.372,220.72 519.94,220.672 Z M519.94,224.008 L519.94,222.4 C517.132,222.472 515.812,222.712 514.852,223.192 C513.892,223.672 513.388,224.416 513.388,225.568 C513.388,226.816 514.348,227.656 515.788,227.656 C517.3,227.656 518.548,226.912 519.316,225.952 C519.772,225.376 519.94,224.92 519.94,224.008 Z M525.556,228.352 L525.556,211.288 C525.556,210.64 525.988,210.328 526.66,210.328 C527.308,210.328 527.74,210.64 527.74,211.288 L527.74,228.352 C527.74,229 527.308,229.312 526.66,229.312 C525.988,229.312 525.556,229 525.556,228.352 Z M391.36,252.352 L391.36,240.664 C391.36,240.04 391.816,239.728 392.488,239.728 C393.088,239.728 393.568,240.04 393.568,240.664 L393.568,241.192 C393.568,241.528 393.472,241.936 393.424,242.32 C393.808,241.168 395.032,239.68 397.096,239.608 C397.288,239.584 397.456,239.584 397.624,239.584 C397.984,239.584 398.248,239.632 398.584,239.704 C399.136,239.776 399.352,240.112 399.352,240.568 C399.352,240.688 399.328,240.832 399.304,240.976 C399.208,241.48 398.872,241.912 398.368,241.912 C398.296,241.912 398.224,241.912 398.152,241.888 C397.816,241.816 397.504,241.744 397,241.744 C395.968,241.768 395.176,242.296 394.576,243.064 C393.952,243.832 393.592,244.72 393.568,245.728 L393.568,252.352 C393.568,253 393.088,253.312 392.488,253.312 C391.816,253.312 391.36,253 391.36,252.352 Z M411.352,246.928 L402.904,246.928 C402.952,249.88 404.416,251.728 407.008,251.728 C408.736,251.728 409.696,250.864 410.272,249.592 C410.488,249.16 410.8,248.992 411.136,248.992 C411.304,248.992 411.472,249.04 411.64,249.088 C412.048,249.208 412.384,249.496 412.384,249.928 C412.384,250.072 412.36,250.216 412.264,250.36 C411.496,251.944 410.104,253.528 406.984,253.528 C403.048,253.528 400.768,250.744 400.768,246.592 C400.768,242.44 402.928,239.536 406.84,239.536 C410.344,239.536 412.312,242.272 412.552,245.416 L412.552,245.608 C412.552,246.472 412.096,246.928 411.352,246.928 Z M402.976,245.176 L410.008,245.176 C410.272,245.176 410.368,245.08 410.368,244.864 L410.368,244.744 C410.08,243.04 409.048,241.288 406.84,241.288 C404.536,241.288 403.288,242.824 402.976,245.176 Z M414.544,246.568 C414.544,242.464 416.656,239.512 420.592,239.512 C423.76,239.512 425.056,241.264 425.656,242.776 C425.704,242.896 425.728,243.04 425.728,243.136 C425.728,243.592 425.368,243.88 425.008,244.024 C424.84,244.072 424.648,244.096 424.48,244.096 C424.12,244.096 423.808,243.952 423.64,243.544 C423.184,242.32 422.464,241.384 420.64,241.384 C418.144,241.384 416.776,243.496 416.776,246.544 C416.776,249.688 418.12,251.68 420.664,251.68 C422.536,251.68 423.28,250.768 423.736,249.472 C423.904,249.016 424.24,248.824 424.624,248.824 C424.792,248.824 424.96,248.848 425.128,248.92 C425.56,249.016 425.896,249.304 425.896,249.736 C425.896,249.88 425.872,250 425.8,250.168 C425.152,251.824 423.88,253.552 420.616,253.552 C416.728,253.552 414.544,250.696 414.544,246.568 Z M434.056,239.536 C437.896,239.536 440.152,242.32 440.152,246.496 C440.152,250.672 437.848,253.552 434.104,253.552 C430.144,253.552 427.84,250.768 427.84,246.496 C427.84,242.344 430.168,239.536 434.056,239.536 Z M434.128,241.384 C431.536,241.384 430.048,243.376 430.048,246.568 C430.048,249.616 431.488,251.704 433.96,251.704 C436.576,251.704 437.944,249.664 437.944,246.472 C437.944,243.448 436.576,241.384 434.128,241.384 Z M460.648,244.192 L460.648,252.352 C460.648,253 460.168,253.312 459.544,253.312 C458.872,253.312 458.464,253 458.464,252.352 L458.464,244.672 C458.464,242.632 457.888,241.48 456.16,241.48 C454.888,241.48 454.048,242.248 453.472,243.112 C453.112,243.616 452.824,244.552 452.824,245.272 L452.824,252.352 C452.824,253 452.368,253.312 451.744,253.312 C451.072,253.312 450.664,253 450.664,252.352 L450.664,244.672 C450.664,242.632 450.064,241.48 448.36,241.48 C447.088,241.48 446.32,242.224 445.744,243.088 C445.312,243.736 445.096,244.6 445.096,245.392 L445.096,252.352 C445.096,253 444.664,253.312 444.04,253.312 C443.368,253.312 442.936,253 442.936,252.352 L442.936,240.664 C442.936,240.04 443.392,239.728 444.064,239.728 C444.664,239.728 445.096,240.04 445.096,240.664 L445.096,241.168 C445.096,241.48 445,241.96 444.928,242.32 C445.528,240.904 446.536,239.56 448.888,239.56 C451,239.56 452.152,240.52 452.464,242.176 C453.16,240.928 454.024,239.56 456.688,239.56 C459.52,239.56 460.648,241.264 460.648,244.192 Z M473.944,246.928 L465.496,246.928 C465.544,249.88 467.008,251.728 469.6,251.728 C471.328,251.728 472.288,250.864 472.864,249.592 C473.08,249.16 473.392,248.992 473.728,248.992 C473.896,248.992 474.064,249.04 474.232,249.088 C474.64,249.208 474.976,249.496 474.976,249.928 C474.976,250.072 474.952,250.216 474.856,250.36 C474.088,251.944 472.696,253.528 469.576,253.528 C465.64,253.528 463.36,250.744 463.36,246.592 C463.36,242.44 465.52,239.536 469.432,239.536 C472.936,239.536 474.904,242.272 475.144,245.416 L475.144,245.608 C475.144,246.472 474.688,246.928 473.944,246.928 Z M465.568,245.176 L472.6,245.176 C472.864,245.176 472.96,245.08 472.96,244.864 L472.96,244.744 C472.672,243.04 471.64,241.288 469.432,241.288 C467.128,241.288 465.88,242.824 465.568,245.176 Z M488.8,244.216 L488.8,252.352 C488.8,253 488.32,253.312 487.696,253.312 C487.048,253.312 486.592,253 486.592,252.352 L486.592,244.672 C486.592,242.632 485.776,241.48 483.976,241.48 C482.68,241.48 481.6,242.056 480.784,243.184 C480.184,244 479.944,244.696 479.944,245.632 L479.944,252.352 C479.944,253 479.488,253.312 478.864,253.312 C478.192,253.312 477.76,253 477.76,252.352 L477.76,240.664 C477.76,240.04 478.216,239.728 478.888,239.728 C479.512,239.728 479.944,240.04 479.944,240.664 L479.944,241.312 C479.944,241.624 479.872,241.864 479.848,242.32 C480.688,240.616 482.128,239.536 484.408,239.536 C487.264,239.536 488.8,241.264 488.8,244.216 Z M501.592,240.52 L501.592,235.288 C501.592,234.64 502.048,234.328 502.648,234.328 C503.32,234.328 503.728,234.64 503.728,235.288 L503.728,252.352 C503.728,253 503.296,253.312 502.624,253.312 C501.928,253.312 501.592,252.928 501.592,252.424 L501.592,251.92 C501.592,251.656 501.64,251.152 501.664,250.816 C500.848,252.496 499.48,253.528 497.248,253.528 C493.744,253.528 491.536,250.768 491.536,246.448 C491.536,242.248 493.72,239.536 497.272,239.536 C499.504,239.536 500.848,240.592 501.688,242.296 C501.64,241.744 501.592,241.048 501.592,240.52 Z M497.56,241.408 C495.136,241.408 493.744,243.424 493.744,246.472 C493.744,249.616 495.136,251.656 497.56,251.656 C500.08,251.656 501.64,249.472 501.64,246.496 C501.64,243.568 500.2,241.408 497.56,241.408 Z M515.272,244.672 L515.272,243.64 C515.272,242.056 514.408,241.36 512.512,241.36 C510.76,241.36 509.896,242.032 509.488,243.136 C509.32,243.592 508.96,243.76 508.552,243.76 C508.36,243.76 508.168,243.736 508,243.664 C507.544,243.52 507.208,243.184 507.208,242.752 C507.208,242.656 507.232,242.56 507.256,242.464 C507.496,241.72 508.12,241.024 508.672,240.592 C509.512,239.944 510.592,239.536 512.536,239.536 C515.752,239.536 517.336,240.808 517.336,243.64 L517.336,250.192 C517.336,251.032 517.456,251.848 517.6,252.304 C517.624,252.376 517.648,252.472 517.648,252.544 C517.648,252.928 517.288,253.264 516.688,253.312 L516.472,253.312 C515.992,253.312 515.56,253.168 515.464,252.736 C515.392,252.448 515.344,252.016 515.32,251.536 C514.408,252.568 513.136,253.504 510.76,253.504 C508.12,253.504 506.512,252.016 506.512,249.544 C506.512,247.288 507.856,245.848 510.136,245.224 C511.456,244.864 512.704,244.72 515.272,244.672 Z M515.272,248.008 L515.272,246.4 C512.464,246.472 511.144,246.712 510.184,247.192 C509.224,247.672 508.72,248.416 508.72,249.568 C508.72,250.816 509.68,251.656 511.12,251.656 C512.632,251.656 513.88,250.912 514.648,249.952 C515.104,249.376 515.272,248.92 515.272,248.008 Z M530.344,240.52 L530.344,235.288 C530.344,234.64 530.8,234.328 531.4,234.328 C532.072,234.328 532.48,234.64 532.48,235.288 L532.48,252.352 C532.48,253 532.048,253.312 531.376,253.312 C530.68,253.312 530.344,252.928 530.344,252.424 L530.344,251.92 C530.344,251.656 530.392,251.152 530.416,250.816 C529.6,252.496 528.232,253.528 526,253.528 C522.496,253.528 520.288,250.768 520.288,246.448 C520.288,242.248 522.472,239.536 526.024,239.536 C528.256,239.536 529.6,240.592 530.44,242.296 C530.392,241.744 530.344,241.048 530.344,240.52 Z M526.312,241.408 C523.888,241.408 522.496,243.424 522.496,246.472 C522.496,249.616 523.888,251.656 526.312,251.656 C528.832,251.656 530.392,249.472 530.392,246.496 C530.392,243.568 528.952,241.408 526.312,241.408 Z M541.504,239.536 C545.344,239.536 547.6,242.32 547.6,246.496 C547.6,250.672 545.296,253.552 541.552,253.552 C537.592,253.552 535.288,250.768 535.288,246.496 C535.288,242.344 537.616,239.536 541.504,239.536 Z M541.576,241.384 C538.984,241.384 537.496,243.376 537.496,246.568 C537.496,249.616 538.936,251.704 541.408,251.704 C544.024,251.704 545.392,249.664 545.392,246.472 C545.392,243.448 544.024,241.384 541.576,241.384 Z" id="Consultar-el-materia-Copy" fill="#2F6070"></path>
            <path d="M16.788,194.552 L16.788,202.304 C16.788,202.976 16.308,203.312 15.636,203.312 C14.988,203.312 14.508,202.976 14.508,202.28 L14.508,187.04 C14.508,185.192 15.252,184.472 16.956,184.472 L26.484,184.472 C27.132,184.472 27.468,184.904 27.468,185.504 C27.468,186.104 27.132,186.56 26.484,186.56 L17.532,186.56 C17.076,186.56 16.788,186.848 16.788,187.328 L16.788,192.512 L25.14,192.512 C25.764,192.512 26.076,192.944 26.076,193.544 C26.076,194.096 25.74,194.552 25.14,194.552 L16.788,194.552 Z M39.78,196.928 L31.332,196.928 C31.38,199.88 32.844,201.728 35.436,201.728 C37.164,201.728 38.124,200.864 38.7,199.592 C38.916,199.16 39.228,198.992 39.564,198.992 C39.732,198.992 39.9,199.04 40.068,199.088 C40.476,199.208 40.812,199.496 40.812,199.928 C40.812,200.072 40.788,200.216 40.692,200.36 C39.924,201.944 38.532,203.528 35.412,203.528 C31.476,203.528 29.196,200.744 29.196,196.592 C29.196,192.44 31.356,189.536 35.268,189.536 C38.772,189.536 40.74,192.272 40.98,195.416 L40.98,195.608 C40.98,196.472 40.524,196.928 39.78,196.928 Z M31.404,195.176 L38.436,195.176 C38.7,195.176 38.796,195.08 38.796,194.864 L38.796,194.744 C38.508,193.04 37.476,191.288 35.268,191.288 C32.964,191.288 31.716,192.824 31.404,195.176 Z M53.556,196.928 L45.108,196.928 C45.156,199.88 46.62,201.728 49.212,201.728 C50.94,201.728 51.9,200.864 52.476,199.592 C52.692,199.16 53.004,198.992 53.34,198.992 C53.508,198.992 53.676,199.04 53.844,199.088 C54.252,199.208 54.588,199.496 54.588,199.928 C54.588,200.072 54.564,200.216 54.468,200.36 C53.7,201.944 52.308,203.528 49.188,203.528 C45.252,203.528 42.972,200.744 42.972,196.592 C42.972,192.44 45.132,189.536 49.044,189.536 C52.548,189.536 54.516,192.272 54.756,195.416 L54.756,195.608 C54.756,196.472 54.3,196.928 53.556,196.928 Z M45.18,195.176 L52.212,195.176 C52.476,195.176 52.572,195.08 52.572,194.864 L52.572,194.744 C52.284,193.04 51.252,191.288 49.044,191.288 C46.74,191.288 45.492,192.824 45.18,195.176 Z M66.804,190.52 L66.804,185.288 C66.804,184.64 67.26,184.328 67.86,184.328 C68.532,184.328 68.94,184.64 68.94,185.288 L68.94,202.352 C68.94,203 68.508,203.312 67.836,203.312 C67.14,203.312 66.804,202.928 66.804,202.424 L66.804,201.92 C66.804,201.656 66.852,201.152 66.876,200.816 C66.06,202.496 64.692,203.528 62.46,203.528 C58.956,203.528 56.748,200.768 56.748,196.448 C56.748,192.248 58.932,189.536 62.484,189.536 C64.716,189.536 66.06,190.592 66.9,192.296 C66.852,191.744 66.804,191.048 66.804,190.52 Z M62.772,191.408 C60.348,191.408 58.956,193.424 58.956,196.472 C58.956,199.616 60.348,201.656 62.772,201.656 C65.292,201.656 66.852,199.472 66.852,196.496 C66.852,193.568 65.412,191.408 62.772,191.408 Z M74.508,201.92 L74.508,202.424 C74.508,202.952 74.148,203.312 73.452,203.312 C72.78,203.312 72.372,203 72.372,202.352 L72.372,185.288 C72.372,184.64 72.78,184.328 73.452,184.328 C74.076,184.328 74.508,184.64 74.508,185.288 L74.508,190.52 C74.508,191.024 74.46,191.72 74.388,192.272 C75.276,190.568 76.692,189.536 78.9,189.536 C82.5,189.536 84.564,192.176 84.564,196.448 C84.564,200.672 82.38,203.528 78.828,203.528 C76.62,203.528 75.18,202.448 74.412,200.768 C74.46,201.128 74.508,201.608 74.508,201.92 Z M78.612,191.408 C75.972,191.408 74.46,193.544 74.46,196.496 C74.46,199.472 76.02,201.632 78.54,201.632 C80.964,201.632 82.356,199.568 82.356,196.472 C82.356,193.352 81.012,191.408 78.612,191.408 Z M95.46,194.672 L95.46,193.64 C95.46,192.056 94.596,191.36 92.7,191.36 C90.948,191.36 90.084,192.032 89.676,193.136 C89.508,193.592 89.148,193.76 88.74,193.76 C88.548,193.76 88.356,193.736 88.188,193.664 C87.732,193.52 87.396,193.184 87.396,192.752 C87.396,192.656 87.42,192.56 87.444,192.464 C87.684,191.72 88.308,191.024 88.86,190.592 C89.7,189.944 90.78,189.536 92.724,189.536 C95.94,189.536 97.524,190.808 97.524,193.64 L97.524,200.192 C97.524,201.032 97.644,201.848 97.788,202.304 C97.812,202.376 97.836,202.472 97.836,202.544 C97.836,202.928 97.476,203.264 96.876,203.312 L96.66,203.312 C96.18,203.312 95.748,203.168 95.652,202.736 C95.58,202.448 95.532,202.016 95.508,201.536 C94.596,202.568 93.324,203.504 90.948,203.504 C88.308,203.504 86.7,202.016 86.7,199.544 C86.7,197.288 88.044,195.848 90.324,195.224 C91.644,194.864 92.892,194.72 95.46,194.672 Z M95.46,198.008 L95.46,196.4 C92.652,196.472 91.332,196.712 90.372,197.192 C89.412,197.672 88.908,198.416 88.908,199.568 C88.908,200.816 89.868,201.656 91.308,201.656 C92.82,201.656 94.068,200.912 94.836,199.952 C95.292,199.376 95.46,198.92 95.46,198.008 Z M100.476,196.568 C100.476,192.464 102.588,189.512 106.524,189.512 C109.692,189.512 110.988,191.264 111.588,192.776 C111.636,192.896 111.66,193.04 111.66,193.136 C111.66,193.592 111.3,193.88 110.94,194.024 C110.772,194.072 110.58,194.096 110.412,194.096 C110.052,194.096 109.74,193.952 109.572,193.544 C109.116,192.32 108.396,191.384 106.572,191.384 C104.076,191.384 102.708,193.496 102.708,196.544 C102.708,199.688 104.052,201.68 106.596,201.68 C108.468,201.68 109.212,200.768 109.668,199.472 C109.836,199.016 110.172,198.824 110.556,198.824 C110.724,198.824 110.892,198.848 111.06,198.92 C111.492,199.016 111.828,199.304 111.828,199.736 C111.828,199.88 111.804,200 111.732,200.168 C111.084,201.824 109.812,203.552 106.548,203.552 C102.66,203.552 100.476,200.696 100.476,196.568 Z M116.58,198.44 L116.58,202.352 C116.58,203 116.148,203.312 115.5,203.312 C114.828,203.312 114.42,203 114.42,202.352 L114.42,185.264 C114.42,184.64 114.852,184.328 115.524,184.328 C116.148,184.328 116.58,184.592 116.58,185.216 L116.58,195.872 L122.436,190.04 C122.652,189.824 122.916,189.728 123.156,189.728 C123.468,189.728 123.756,189.848 123.948,190.088 C124.164,190.328 124.308,190.616 124.308,190.88 C124.308,191.12 124.212,191.336 123.996,191.552 L119.94,195.344 L124.716,201.704 C124.836,201.872 124.884,202.04 124.884,202.232 C124.884,202.592 124.644,202.952 124.332,203.144 C124.14,203.264 123.924,203.312 123.684,203.312 C123.372,203.312 123.06,203.192 122.868,202.928 L118.404,196.688 L116.58,198.44 Z M2.328,226.352 L2.328,214.664 C2.328,214.04 2.736,213.728 3.408,213.728 C4.056,213.728 4.512,214.04 4.512,214.664 L4.512,226.352 C4.512,227 4.056,227.312 3.408,227.312 C2.736,227.312 2.328,227 2.328,226.352 Z M3.432,208.304 C4.32,208.304 5.04,209 5.04,209.912 C5.04,210.848 4.32,211.544 3.432,211.544 C2.52,211.544 1.8,210.848 1.8,209.912 C1.8,209 2.52,208.304 3.432,208.304 Z M18.984,218.216 L18.984,226.352 C18.984,227 18.504,227.312 17.88,227.312 C17.232,227.312 16.776,227 16.776,226.352 L16.776,218.672 C16.776,216.632 15.96,215.48 14.16,215.48 C12.864,215.48 11.784,216.056 10.968,217.184 C10.368,218 10.128,218.696 10.128,219.632 L10.128,226.352 C10.128,227 9.672,227.312 9.048,227.312 C8.376,227.312 7.944,227 7.944,226.352 L7.944,214.664 C7.944,214.04 8.4,213.728 9.072,213.728 C9.696,213.728 10.128,214.04 10.128,214.664 L10.128,215.312 C10.128,215.624 10.056,215.864 10.032,216.32 C10.872,214.616 12.312,213.536 14.592,213.536 C17.448,213.536 18.984,215.264 18.984,218.216 Z M27.504,221.336 L26.136,221.072 C23.184,220.496 21.96,219.464 21.96,217.184 C21.96,215 23.832,213.512 26.928,213.512 C29.592,213.512 31.296,214.64 31.896,216.392 C31.92,216.488 31.944,216.584 31.944,216.68 C31.944,217.136 31.536,217.448 31.104,217.568 C30.984,217.592 30.84,217.616 30.72,217.616 C30.288,217.616 29.856,217.424 29.736,216.968 C29.424,215.888 28.368,215.336 27,215.336 C25.056,215.336 24.144,216.128 24.144,217.136 C24.144,218.24 24.6,218.72 26.616,219.152 L28.104,219.464 C31.224,220.112 32.472,221.024 32.472,223.544 C32.472,225.848 30.504,227.552 27.144,227.552 C24.072,227.552 22.272,226.328 21.648,224.192 C21.624,224.072 21.6,223.976 21.6,223.88 C21.6,223.4 22.008,223.064 22.464,222.968 C22.584,222.944 22.704,222.92 22.8,222.92 C23.256,222.92 23.688,223.112 23.832,223.568 C24.264,224.96 25.248,225.656 27.144,225.656 C29.064,225.656 30.312,224.816 30.312,223.592 C30.312,222.416 29.688,221.768 27.504,221.336 Z M36.6,213.872 L36.6,210.968 C36.6,210.344 37.008,210.008 37.68,210.008 C38.304,210.008 38.76,210.344 38.76,210.968 L38.76,213.872 L41.832,213.872 C42.432,213.872 42.72,214.256 42.72,214.832 C42.72,215.384 42.408,215.768 41.832,215.768 L38.76,215.768 L38.76,223.808 C38.76,224.984 39.264,225.488 40.152,225.488 C40.752,225.488 41.16,225.32 41.568,225.08 C41.712,225.008 41.856,224.96 42,224.96 C42.36,224.96 42.648,225.224 42.792,225.584 C42.864,225.752 42.888,225.944 42.888,226.112 C42.888,226.448 42.744,226.784 42.384,226.976 C41.688,227.312 41.04,227.504 40.008,227.504 C38.04,227.504 36.6,226.52 36.6,224 L36.6,215.768 L34.728,215.768 C34.152,215.768 33.888,215.384 33.888,214.832 C33.888,214.28 34.152,213.872 34.752,213.872 L36.6,213.872 Z M52.968,218.672 L52.968,217.64 C52.968,216.056 52.104,215.36 50.208,215.36 C48.456,215.36 47.592,216.032 47.184,217.136 C47.016,217.592 46.656,217.76 46.248,217.76 C46.056,217.76 45.864,217.736 45.696,217.664 C45.24,217.52 44.904,217.184 44.904,216.752 C44.904,216.656 44.928,216.56 44.952,216.464 C45.192,215.72 45.816,215.024 46.368,214.592 C47.208,213.944 48.288,213.536 50.232,213.536 C53.448,213.536 55.032,214.808 55.032,217.64 L55.032,224.192 C55.032,225.032 55.152,225.848 55.296,226.304 C55.32,226.376 55.344,226.472 55.344,226.544 C55.344,226.928 54.984,227.264 54.384,227.312 L54.168,227.312 C53.688,227.312 53.256,227.168 53.16,226.736 C53.088,226.448 53.04,226.016 53.016,225.536 C52.104,226.568 50.832,227.504 48.456,227.504 C45.816,227.504 44.208,226.016 44.208,223.544 C44.208,221.288 45.552,219.848 47.832,219.224 C49.152,218.864 50.4,218.72 52.968,218.672 Z M52.968,222.008 L52.968,220.4 C50.16,220.472 48.84,220.712 47.88,221.192 C46.92,221.672 46.416,222.416 46.416,223.568 C46.416,224.816 47.376,225.656 48.816,225.656 C50.328,225.656 51.576,224.912 52.344,223.952 C52.8,223.376 52.968,222.92 52.968,222.008 Z M69.648,218.216 L69.648,226.352 C69.648,227 69.168,227.312 68.544,227.312 C67.896,227.312 67.44,227 67.44,226.352 L67.44,218.672 C67.44,216.632 66.624,215.48 64.824,215.48 C63.528,215.48 62.448,216.056 61.632,217.184 C61.032,218 60.792,218.696 60.792,219.632 L60.792,226.352 C60.792,227 60.336,227.312 59.712,227.312 C59.04,227.312 58.608,227 58.608,226.352 L58.608,214.664 C58.608,214.04 59.064,213.728 59.736,213.728 C60.36,213.728 60.792,214.04 60.792,214.664 L60.792,215.312 C60.792,215.624 60.72,215.864 60.696,216.32 C61.536,214.616 62.976,213.536 65.256,213.536 C68.112,213.536 69.648,215.264 69.648,218.216 Z M74.424,213.872 L74.424,210.968 C74.424,210.344 74.832,210.008 75.504,210.008 C76.128,210.008 76.584,210.344 76.584,210.968 L76.584,213.872 L79.656,213.872 C80.256,213.872 80.544,214.256 80.544,214.832 C80.544,215.384 80.232,215.768 79.656,215.768 L76.584,215.768 L76.584,223.808 C76.584,224.984 77.088,225.488 77.976,225.488 C78.576,225.488 78.984,225.32 79.392,225.08 C79.536,225.008 79.68,224.96 79.824,224.96 C80.184,224.96 80.472,225.224 80.616,225.584 C80.688,225.752 80.712,225.944 80.712,226.112 C80.712,226.448 80.568,226.784 80.208,226.976 C79.512,227.312 78.864,227.504 77.832,227.504 C75.864,227.504 74.424,226.52 74.424,224 L74.424,215.768 L72.552,215.768 C71.976,215.768 71.712,215.384 71.712,214.832 C71.712,214.28 71.976,213.872 72.576,213.872 L74.424,213.872 Z M87.312,211.4 L90.096,208.472 C90.264,208.304 90.456,208.232 90.696,208.232 C90.984,208.232 91.32,208.352 91.536,208.592 C91.776,208.832 91.92,209.12 91.92,209.408 C91.92,209.672 91.8,209.888 91.56,210.056 L88.176,212.312 C88.056,212.408 87.888,212.456 87.744,212.456 C87.576,212.456 87.408,212.384 87.264,212.24 C87.168,212.12 87.12,212 87.12,211.88 C87.12,211.712 87.192,211.544 87.312,211.4 Z M90.792,218.672 L90.792,217.64 C90.792,216.056 89.928,215.36 88.032,215.36 C86.28,215.36 85.416,216.032 85.008,217.136 C84.84,217.592 84.48,217.76 84.072,217.76 C83.88,217.76 83.688,217.736 83.52,217.664 C83.064,217.52 82.728,217.184 82.728,216.752 C82.728,216.656 82.752,216.56 82.776,216.464 C83.016,215.72 83.64,215.024 84.192,214.592 C85.032,213.944 86.112,213.536 88.056,213.536 C91.272,213.536 92.856,214.808 92.856,217.64 L92.856,224.192 C92.856,225.032 92.976,225.848 93.12,226.304 C93.144,226.376 93.168,226.472 93.168,226.544 C93.168,226.928 92.808,227.264 92.208,227.312 L91.992,227.312 C91.512,227.312 91.08,227.168 90.984,226.736 C90.912,226.448 90.864,226.016 90.84,225.536 C89.928,226.568 88.656,227.504 86.28,227.504 C83.64,227.504 82.032,226.016 82.032,223.544 C82.032,221.288 83.376,219.848 85.656,219.224 C86.976,218.864 88.224,218.72 90.792,218.672 Z M90.792,222.008 L90.792,220.4 C87.984,220.472 86.664,220.712 85.704,221.192 C84.744,221.672 84.24,222.416 84.24,223.568 C84.24,224.816 85.2,225.656 86.64,225.656 C88.152,225.656 89.4,224.912 90.168,223.952 C90.624,223.376 90.792,222.92 90.792,222.008 Z M107.472,218.216 L107.472,226.352 C107.472,227 106.992,227.312 106.368,227.312 C105.72,227.312 105.264,227 105.264,226.352 L105.264,218.672 C105.264,216.632 104.448,215.48 102.648,215.48 C101.352,215.48 100.272,216.056 99.456,217.184 C98.856,218 98.616,218.696 98.616,219.632 L98.616,226.352 C98.616,227 98.16,227.312 97.536,227.312 C96.864,227.312 96.432,227 96.432,226.352 L96.432,214.664 C96.432,214.04 96.888,213.728 97.56,213.728 C98.184,213.728 98.616,214.04 98.616,214.664 L98.616,215.312 C98.616,215.624 98.544,215.864 98.52,216.32 C99.36,214.616 100.8,213.536 103.08,213.536 C105.936,213.536 107.472,215.264 107.472,218.216 Z M120.792,220.928 L112.344,220.928 C112.392,223.88 113.856,225.728 116.448,225.728 C118.176,225.728 119.136,224.864 119.712,223.592 C119.928,223.16 120.24,222.992 120.576,222.992 C120.744,222.992 120.912,223.04 121.08,223.088 C121.488,223.208 121.824,223.496 121.824,223.928 C121.824,224.072 121.8,224.216 121.704,224.36 C120.936,225.944 119.544,227.528 116.424,227.528 C112.488,227.528 110.208,224.744 110.208,220.592 C110.208,216.44 112.368,213.536 116.28,213.536 C119.784,213.536 121.752,216.272 121.992,219.416 L121.992,219.608 C121.992,220.472 121.536,220.928 120.792,220.928 Z M112.416,219.176 L119.448,219.176 C119.712,219.176 119.808,219.08 119.808,218.864 L119.808,218.744 C119.52,217.04 118.488,215.288 116.28,215.288 C113.976,215.288 112.728,216.824 112.416,219.176 Z M130.2,213.536 C134.04,213.536 136.296,216.32 136.296,220.496 C136.296,224.672 133.992,227.552 130.248,227.552 C126.288,227.552 123.984,224.768 123.984,220.496 C123.984,216.344 126.312,213.536 130.2,213.536 Z M130.272,215.384 C127.68,215.384 126.192,217.376 126.192,220.568 C126.192,223.616 127.632,225.704 130.104,225.704 C132.72,225.704 134.088,223.664 134.088,220.472 C134.088,217.448 132.72,215.384 130.272,215.384 Z" id="Feedback-instantáneo-Copy" fill="#2F6070"></path>
            <path d="M203.424,318.6 L203.424,305.064 C203.424,303.216 204.168,302.472 205.872,302.472 L210.144,302.472 C215.448,302.472 218.568,305.832 218.568,311.616 C218.568,317.592 215.4,321.168 210.144,321.168 L205.872,321.168 C204.168,321.168 203.424,320.424 203.424,318.6 Z M205.704,305.328 L205.704,318.264 C205.704,318.816 205.992,319.08 206.472,319.08 L210.024,319.08 C213.912,319.08 216.192,316.32 216.192,311.64 C216.192,307.056 214.056,304.536 210.096,304.536 L206.496,304.536 C206.04,304.536 205.704,304.824 205.704,305.328 Z M231.528,314.928 L223.08,314.928 C223.128,317.88 224.592,319.728 227.184,319.728 C228.912,319.728 229.872,318.864 230.448,317.592 C230.664,317.16 230.976,316.992 231.312,316.992 C231.48,316.992 231.648,317.04 231.816,317.088 C232.224,317.208 232.56,317.496 232.56,317.928 C232.56,318.072 232.536,318.216 232.44,318.36 C231.672,319.944 230.28,321.528 227.16,321.528 C223.224,321.528 220.944,318.744 220.944,314.592 C220.944,310.44 223.104,307.536 227.016,307.536 C230.52,307.536 232.488,310.272 232.728,313.416 L232.728,313.608 C232.728,314.472 232.272,314.928 231.528,314.928 Z M223.152,313.176 L230.184,313.176 C230.448,313.176 230.544,313.08 230.544,312.864 L230.544,312.744 C230.256,311.04 229.224,309.288 227.016,309.288 C224.712,309.288 223.464,310.824 223.152,313.176 Z M236.76,307.872 L236.76,304.968 C236.76,304.344 237.168,304.008 237.84,304.008 C238.464,304.008 238.92,304.344 238.92,304.968 L238.92,307.872 L241.992,307.872 C242.592,307.872 242.88,308.256 242.88,308.832 C242.88,309.384 242.568,309.768 241.992,309.768 L238.92,309.768 L238.92,317.808 C238.92,318.984 239.424,319.488 240.312,319.488 C240.912,319.488 241.32,319.32 241.728,319.08 C241.872,319.008 242.016,318.96 242.16,318.96 C242.52,318.96 242.808,319.224 242.952,319.584 C243.024,319.752 243.048,319.944 243.048,320.112 C243.048,320.448 242.904,320.784 242.544,320.976 C241.848,321.312 241.2,321.504 240.168,321.504 C238.2,321.504 236.76,320.52 236.76,318 L236.76,309.768 L234.888,309.768 C234.312,309.768 234.048,309.384 234.048,308.832 C234.048,308.28 234.312,307.872 234.912,307.872 L236.76,307.872 Z M254.976,314.928 L246.528,314.928 C246.576,317.88 248.04,319.728 250.632,319.728 C252.36,319.728 253.32,318.864 253.896,317.592 C254.112,317.16 254.424,316.992 254.76,316.992 C254.928,316.992 255.096,317.04 255.264,317.088 C255.672,317.208 256.008,317.496 256.008,317.928 C256.008,318.072 255.984,318.216 255.888,318.36 C255.12,319.944 253.728,321.528 250.608,321.528 C246.672,321.528 244.392,318.744 244.392,314.592 C244.392,310.44 246.552,307.536 250.464,307.536 C253.968,307.536 255.936,310.272 256.176,313.416 L256.176,313.608 C256.176,314.472 255.72,314.928 254.976,314.928 Z M246.6,313.176 L253.632,313.176 C253.896,313.176 253.992,313.08 253.992,312.864 L253.992,312.744 C253.704,311.04 252.672,309.288 250.464,309.288 C248.16,309.288 246.912,310.824 246.6,313.176 Z M259.128,320.352 L259.128,308.664 C259.128,308.04 259.584,307.728 260.256,307.728 C260.856,307.728 261.336,308.04 261.336,308.664 L261.336,309.192 C261.336,309.528 261.24,309.936 261.192,310.32 C261.576,309.168 262.8,307.68 264.864,307.608 C265.056,307.584 265.224,307.584 265.392,307.584 C265.752,307.584 266.016,307.632 266.352,307.704 C266.904,307.776 267.12,308.112 267.12,308.568 C267.12,308.688 267.096,308.832 267.072,308.976 C266.976,309.48 266.64,309.912 266.136,309.912 C266.064,309.912 265.992,309.912 265.92,309.888 C265.584,309.816 265.272,309.744 264.768,309.744 C263.736,309.768 262.944,310.296 262.344,311.064 C261.72,311.832 261.36,312.72 261.336,313.728 L261.336,320.352 C261.336,321 260.856,321.312 260.256,321.312 C259.584,321.312 259.128,321 259.128,320.352 Z M286.872,312.192 L286.872,320.352 C286.872,321 286.392,321.312 285.768,321.312 C285.096,321.312 284.688,321 284.688,320.352 L284.688,312.672 C284.688,310.632 284.112,309.48 282.384,309.48 C281.112,309.48 280.272,310.248 279.696,311.112 C279.336,311.616 279.048,312.552 279.048,313.272 L279.048,320.352 C279.048,321 278.592,321.312 277.968,321.312 C277.296,321.312 276.888,321 276.888,320.352 L276.888,312.672 C276.888,310.632 276.288,309.48 274.584,309.48 C273.312,309.48 272.544,310.224 271.968,311.088 C271.536,311.736 271.32,312.6 271.32,313.392 L271.32,320.352 C271.32,321 270.888,321.312 270.264,321.312 C269.592,321.312 269.16,321 269.16,320.352 L269.16,308.664 C269.16,308.04 269.616,307.728 270.288,307.728 C270.888,307.728 271.32,308.04 271.32,308.664 L271.32,309.168 C271.32,309.48 271.224,309.96 271.152,310.32 C271.752,308.904 272.76,307.56 275.112,307.56 C277.224,307.56 278.376,308.52 278.688,310.176 C279.384,308.928 280.248,307.56 282.912,307.56 C285.744,307.56 286.872,309.264 286.872,312.192 Z M290.208,320.352 L290.208,308.664 C290.208,308.04 290.616,307.728 291.288,307.728 C291.936,307.728 292.392,308.04 292.392,308.664 L292.392,320.352 C292.392,321 291.936,321.312 291.288,321.312 C290.616,321.312 290.208,321 290.208,320.352 Z M291.312,302.304 C292.2,302.304 292.92,303 292.92,303.912 C292.92,304.848 292.2,305.544 291.312,305.544 C290.4,305.544 289.68,304.848 289.68,303.912 C289.68,303 290.4,302.304 291.312,302.304 Z M306.864,312.216 L306.864,320.352 C306.864,321 306.384,321.312 305.76,321.312 C305.112,321.312 304.656,321 304.656,320.352 L304.656,312.672 C304.656,310.632 303.84,309.48 302.04,309.48 C300.744,309.48 299.664,310.056 298.848,311.184 C298.248,312 298.008,312.696 298.008,313.632 L298.008,320.352 C298.008,321 297.552,321.312 296.928,321.312 C296.256,321.312 295.824,321 295.824,320.352 L295.824,308.664 C295.824,308.04 296.28,307.728 296.952,307.728 C297.576,307.728 298.008,308.04 298.008,308.664 L298.008,309.312 C298.008,309.624 297.936,309.864 297.912,310.32 C298.752,308.616 300.192,307.536 302.472,307.536 C305.328,307.536 306.864,309.264 306.864,312.216 Z M318.336,312.672 L318.336,311.64 C318.336,310.056 317.472,309.36 315.576,309.36 C313.824,309.36 312.96,310.032 312.552,311.136 C312.384,311.592 312.024,311.76 311.616,311.76 C311.424,311.76 311.232,311.736 311.064,311.664 C310.608,311.52 310.272,311.184 310.272,310.752 C310.272,310.656 310.296,310.56 310.32,310.464 C310.56,309.72 311.184,309.024 311.736,308.592 C312.576,307.944 313.656,307.536 315.6,307.536 C318.816,307.536 320.4,308.808 320.4,311.64 L320.4,318.192 C320.4,319.032 320.52,319.848 320.664,320.304 C320.688,320.376 320.712,320.472 320.712,320.544 C320.712,320.928 320.352,321.264 319.752,321.312 L319.536,321.312 C319.056,321.312 318.624,321.168 318.528,320.736 C318.456,320.448 318.408,320.016 318.384,319.536 C317.472,320.568 316.2,321.504 313.824,321.504 C311.184,321.504 309.576,320.016 309.576,317.544 C309.576,315.288 310.92,313.848 313.2,313.224 C314.52,312.864 315.768,312.72 318.336,312.672 Z M318.336,316.008 L318.336,314.4 C315.528,314.472 314.208,314.712 313.248,315.192 C312.288,315.672 311.784,316.416 311.784,317.568 C311.784,318.816 312.744,319.656 314.184,319.656 C315.696,319.656 316.944,318.912 317.712,317.952 C318.168,317.376 318.336,316.92 318.336,316.008 Z M324.312,320.352 L324.312,308.664 C324.312,308.04 324.768,307.728 325.44,307.728 C326.04,307.728 326.52,308.04 326.52,308.664 L326.52,309.192 C326.52,309.528 326.424,309.936 326.376,310.32 C326.76,309.168 327.984,307.68 330.048,307.608 C330.24,307.584 330.408,307.584 330.576,307.584 C330.936,307.584 331.2,307.632 331.536,307.704 C332.088,307.776 332.304,308.112 332.304,308.568 C332.304,308.688 332.28,308.832 332.256,308.976 C332.16,309.48 331.824,309.912 331.32,309.912 C331.248,309.912 331.176,309.912 331.104,309.888 C330.768,309.816 330.456,309.744 329.952,309.744 C328.92,309.768 328.128,310.296 327.528,311.064 C326.904,311.832 326.544,312.72 326.52,313.728 L326.52,320.352 C326.52,321 326.04,321.312 325.44,321.312 C324.768,321.312 324.312,321 324.312,320.352 Z M196.848,344.352 L196.848,327.288 C196.848,326.64 197.28,326.328 197.952,326.328 C198.6,326.328 199.032,326.64 199.032,327.288 L199.032,344.352 C199.032,345 198.6,345.312 197.952,345.312 C197.28,345.312 196.848,345 196.848,344.352 Z M210.576,336.672 L210.576,335.64 C210.576,334.056 209.712,333.36 207.816,333.36 C206.064,333.36 205.2,334.032 204.792,335.136 C204.624,335.592 204.264,335.76 203.856,335.76 C203.664,335.76 203.472,335.736 203.304,335.664 C202.848,335.52 202.512,335.184 202.512,334.752 C202.512,334.656 202.536,334.56 202.56,334.464 C202.8,333.72 203.424,333.024 203.976,332.592 C204.816,331.944 205.896,331.536 207.84,331.536 C211.056,331.536 212.64,332.808 212.64,335.64 L212.64,342.192 C212.64,343.032 212.76,343.848 212.904,344.304 C212.928,344.376 212.952,344.472 212.952,344.544 C212.952,344.928 212.592,345.264 211.992,345.312 L211.776,345.312 C211.296,345.312 210.864,345.168 210.768,344.736 C210.696,344.448 210.648,344.016 210.624,343.536 C209.712,344.568 208.44,345.504 206.064,345.504 C203.424,345.504 201.816,344.016 201.816,341.544 C201.816,339.288 203.16,337.848 205.44,337.224 C206.76,336.864 208.008,336.72 210.576,336.672 Z M210.576,340.008 L210.576,338.4 C207.768,338.472 206.448,338.712 205.488,339.192 C204.528,339.672 204.024,340.416 204.024,341.568 C204.024,342.816 204.984,343.656 206.424,343.656 C207.936,343.656 209.184,342.912 209.952,341.952 C210.408,341.376 210.576,340.92 210.576,340.008 Z M224.544,344.352 L224.544,332.664 C224.544,332.04 225,331.728 225.672,331.728 C226.272,331.728 226.752,332.04 226.752,332.664 L226.752,333.192 C226.752,333.528 226.656,333.936 226.608,334.32 C226.992,333.168 228.216,331.68 230.28,331.608 C230.472,331.584 230.64,331.584 230.808,331.584 C231.168,331.584 231.432,331.632 231.768,331.704 C232.32,331.776 232.536,332.112 232.536,332.568 C232.536,332.688 232.512,332.832 232.488,332.976 C232.392,333.48 232.056,333.912 231.552,333.912 C231.48,333.912 231.408,333.912 231.336,333.888 C231,333.816 230.688,333.744 230.184,333.744 C229.152,333.768 228.36,334.296 227.76,335.064 C227.136,335.832 226.776,336.72 226.752,337.728 L226.752,344.352 C226.752,345 226.272,345.312 225.672,345.312 C225,345.312 224.544,345 224.544,344.352 Z M244.536,338.928 L236.088,338.928 C236.136,341.88 237.6,343.728 240.192,343.728 C241.92,343.728 242.88,342.864 243.456,341.592 C243.672,341.16 243.984,340.992 244.32,340.992 C244.488,340.992 244.656,341.04 244.824,341.088 C245.232,341.208 245.568,341.496 245.568,341.928 C245.568,342.072 245.544,342.216 245.448,342.36 C244.68,343.944 243.288,345.528 240.168,345.528 C236.232,345.528 233.952,342.744 233.952,338.592 C233.952,334.44 236.112,331.536 240.024,331.536 C243.528,331.536 245.496,334.272 245.736,337.416 L245.736,337.608 C245.736,338.472 245.28,338.928 244.536,338.928 Z M236.16,337.176 L243.192,337.176 C243.456,337.176 243.552,337.08 243.552,336.864 L243.552,336.744 C243.264,335.04 242.232,333.288 240.024,333.288 C237.72,333.288 236.472,334.824 236.16,337.176 Z M253.512,339.336 L252.144,339.072 C249.192,338.496 247.968,337.464 247.968,335.184 C247.968,333 249.84,331.512 252.936,331.512 C255.6,331.512 257.304,332.64 257.904,334.392 C257.928,334.488 257.952,334.584 257.952,334.68 C257.952,335.136 257.544,335.448 257.112,335.568 C256.992,335.592 256.848,335.616 256.728,335.616 C256.296,335.616 255.864,335.424 255.744,334.968 C255.432,333.888 254.376,333.336 253.008,333.336 C251.064,333.336 250.152,334.128 250.152,335.136 C250.152,336.24 250.608,336.72 252.624,337.152 L254.112,337.464 C257.232,338.112 258.48,339.024 258.48,341.544 C258.48,343.848 256.512,345.552 253.152,345.552 C250.08,345.552 248.28,344.328 247.656,342.192 C247.632,342.072 247.608,341.976 247.608,341.88 C247.608,341.4 248.016,341.064 248.472,340.968 C248.592,340.944 248.712,340.92 248.808,340.92 C249.264,340.92 249.696,341.112 249.84,341.568 C250.272,342.96 251.256,343.656 253.152,343.656 C255.072,343.656 256.32,342.816 256.32,341.592 C256.32,340.416 255.696,339.768 253.512,339.336 Z M263.328,344.136 L263.328,349.416 C263.328,350.016 262.92,350.352 262.272,350.352 C261.6,350.352 261.192,350.016 261.192,349.416 L261.192,332.664 C261.192,332.04 261.6,331.728 262.272,331.728 C262.872,331.728 263.328,332.016 263.328,332.616 L263.328,333.048 C263.328,333.384 263.304,333.96 263.232,334.368 C264.072,332.664 265.392,331.536 267.72,331.536 C271.32,331.536 273.36,334.152 273.36,338.424 C273.36,342.696 271.2,345.528 267.624,345.528 C265.392,345.528 264.024,344.424 263.208,342.744 C263.304,343.2 263.328,343.704 263.328,344.136 Z M267.408,333.408 C264.768,333.408 263.28,335.544 263.28,338.496 C263.28,341.472 264.84,343.632 267.36,343.632 C269.784,343.632 271.152,341.568 271.152,338.472 C271.152,335.352 269.832,333.408 267.408,333.408 Z M276.096,340.824 L276.096,332.688 C276.096,332.04 276.552,331.728 277.2,331.728 C277.848,331.728 278.304,332.04 278.304,332.688 L278.304,340.368 C278.304,342.432 279.144,343.584 280.92,343.584 C282.192,343.584 283.224,342.984 284.04,341.856 C284.616,341.04 284.856,340.296 284.856,339.36 L284.856,332.688 C284.856,332.04 285.312,331.728 285.96,331.728 C286.584,331.728 287.04,332.04 287.04,332.688 L287.04,344.352 C287.04,345 286.608,345.312 285.984,345.312 C285.336,345.312 284.88,345.024 284.88,344.424 L284.88,343.752 C284.88,343.488 284.952,343.008 285.024,342.624 C284.28,344.304 282.888,345.528 280.488,345.528 C277.656,345.528 276.096,343.752 276.096,340.824 Z M300.456,338.928 L292.008,338.928 C292.056,341.88 293.52,343.728 296.112,343.728 C297.84,343.728 298.8,342.864 299.376,341.592 C299.592,341.16 299.904,340.992 300.24,340.992 C300.408,340.992 300.576,341.04 300.744,341.088 C301.152,341.208 301.488,341.496 301.488,341.928 C301.488,342.072 301.464,342.216 301.368,342.36 C300.6,343.944 299.208,345.528 296.088,345.528 C292.152,345.528 289.872,342.744 289.872,338.592 C289.872,334.44 292.032,331.536 295.944,331.536 C299.448,331.536 301.416,334.272 301.656,337.416 L301.656,337.608 C301.656,338.472 301.2,338.928 300.456,338.928 Z M292.08,337.176 L299.112,337.176 C299.376,337.176 299.472,337.08 299.472,336.864 L299.472,336.744 C299.184,335.04 298.152,333.288 295.944,333.288 C293.64,333.288 292.392,334.824 292.08,337.176 Z M309.432,339.336 L308.064,339.072 C305.112,338.496 303.888,337.464 303.888,335.184 C303.888,333 305.76,331.512 308.856,331.512 C311.52,331.512 313.224,332.64 313.824,334.392 C313.848,334.488 313.872,334.584 313.872,334.68 C313.872,335.136 313.464,335.448 313.032,335.568 C312.912,335.592 312.768,335.616 312.648,335.616 C312.216,335.616 311.784,335.424 311.664,334.968 C311.352,333.888 310.296,333.336 308.928,333.336 C306.984,333.336 306.072,334.128 306.072,335.136 C306.072,336.24 306.528,336.72 308.544,337.152 L310.032,337.464 C313.152,338.112 314.4,339.024 314.4,341.544 C314.4,343.848 312.432,345.552 309.072,345.552 C306,345.552 304.2,344.328 303.576,342.192 C303.552,342.072 303.528,341.976 303.528,341.88 C303.528,341.4 303.936,341.064 304.392,340.968 C304.512,340.944 304.632,340.92 304.728,340.92 C305.184,340.92 305.616,341.112 305.76,341.568 C306.192,342.96 307.176,343.656 309.072,343.656 C310.992,343.656 312.24,342.816 312.24,341.592 C312.24,340.416 311.616,339.768 309.432,339.336 Z M318.528,331.872 L318.528,328.968 C318.528,328.344 318.936,328.008 319.608,328.008 C320.232,328.008 320.688,328.344 320.688,328.968 L320.688,331.872 L323.76,331.872 C324.36,331.872 324.648,332.256 324.648,332.832 C324.648,333.384 324.336,333.768 323.76,333.768 L320.688,333.768 L320.688,341.808 C320.688,342.984 321.192,343.488 322.08,343.488 C322.68,343.488 323.088,343.32 323.496,343.08 C323.64,343.008 323.784,342.96 323.928,342.96 C324.288,342.96 324.576,343.224 324.72,343.584 C324.792,343.752 324.816,343.944 324.816,344.112 C324.816,344.448 324.672,344.784 324.312,344.976 C323.616,345.312 322.968,345.504 321.936,345.504 C319.968,345.504 318.528,344.52 318.528,342 L318.528,333.768 L316.656,333.768 C316.08,333.768 315.816,333.384 315.816,332.832 C315.816,332.28 316.08,331.872 316.68,331.872 L318.528,331.872 Z M334.896,336.672 L334.896,335.64 C334.896,334.056 334.032,333.36 332.136,333.36 C330.384,333.36 329.52,334.032 329.112,335.136 C328.944,335.592 328.584,335.76 328.176,335.76 C327.984,335.76 327.792,335.736 327.624,335.664 C327.168,335.52 326.832,335.184 326.832,334.752 C326.832,334.656 326.856,334.56 326.88,334.464 C327.12,333.72 327.744,333.024 328.296,332.592 C329.136,331.944 330.216,331.536 332.16,331.536 C335.376,331.536 336.96,332.808 336.96,335.64 L336.96,342.192 C336.96,343.032 337.08,343.848 337.224,344.304 C337.248,344.376 337.272,344.472 337.272,344.544 C337.272,344.928 336.912,345.264 336.312,345.312 L336.096,345.312 C335.616,345.312 335.184,345.168 335.088,344.736 C335.016,344.448 334.968,344.016 334.944,343.536 C334.032,344.568 332.76,345.504 330.384,345.504 C327.744,345.504 326.136,344.016 326.136,341.544 C326.136,339.288 327.48,337.848 329.76,337.224 C331.08,336.864 332.328,336.72 334.896,336.672 Z M334.896,340.008 L334.896,338.4 C332.088,338.472 330.768,338.712 329.808,339.192 C328.848,339.672 328.344,340.416 328.344,341.568 C328.344,342.816 329.304,343.656 330.744,343.656 C332.256,343.656 333.504,342.912 334.272,341.952 C334.728,341.376 334.896,340.92 334.896,340.008 Z" id="Determinar-la-respue-Copy" fill="#2F6070"></path>
        </g>
    </g>
</svg>