<svg width="558" height="389" xmlns="http://www.w3.org/2000/svg"><defs><linearGradient x1="50%" y1="0%" x2="50%" y2="100%" id="a"><stop stop-color="#E69877" offset="0%"/><stop stop-color="#F3C68D" offset="100%"/></linearGradient></defs><g fill="none" fill-rule="evenodd"><path fill="url(#a)" d="M-7-8h574v404H-7z"/><path d="M146.008 174.432c0-73.64 59.698-133.338 133.338-133.338a133.339 133.339 0 01133.34 133.338c0 73.641-59.699 133.339-133.34 133.339-73.64 0-133.338-59.698-133.338-133.339zm42.847 0c0 49.977 40.514 90.492 90.491 90.492 49.978 0 90.492-40.515 90.492-90.492 0-49.977-40.514-90.491-90.492-90.491-49.977 0-90.491 40.514-90.491 90.491z" fill="#CB4343"/><path d="M279.704 33.769c65.222.273 121.777 45.166 136.844 108.625l-24.483 5.813c-12.383-52.154-58.863-89.05-112.467-89.275l.106-25.163z" fill="#2F6070"/><path d="M279.704 32.769c65.222.273 121.777 45.166 136.844 108.625l-24.483 5.813c-12.383-52.154-58.863-89.05-112.467-89.275l.106-25.163z" fill="#2F6070"/><path d="M363.346 288.59c45.959-33.792 67.074-91.916 53.52-147.327l-24.302 5.944c11.152 45.595-6.222 93.422-44.038 121.227l14.82 20.156z" fill="#76C9AC"/><path d="M363.346 287.59c45.959-33.792 67.074-91.916 53.52-147.327l-24.302 5.944c11.152 45.595-6.222 93.422-44.038 121.227l14.82 20.156z" fill="#76C9AC"/><path fill="#2F6070" d="M410.613 158.473l-33.985-17.291 51.276-16.693z"/><path d="M281.624 33.377c-64.377-1.231-121.475 41.136-138.957 103.106l24.105 6.8c14.389-51.006 61.386-85.878 114.373-84.864l.48-25.042z" fill="#D2EADC"/><path d="M281.624 32.377c-64.377-1.231-121.475 41.136-138.957 103.106l24.105 6.8c14.389-51.006 61.386-85.878 114.373-84.864l.48-25.042z" fill="#D2EADC"/><path d="M193.927 288.748c-50.485-37.25-70.34-103.34-48.746-162.245l24.758 9.077c-17.563 47.906-1.415 101.656 39.643 131.95l-15.655 21.218z" fill="#76C9AC"/><path d="M193.927 288.748c-50.485-37.25-70.34-103.34-48.746-162.245l24.758 9.077c-17.563 47.906-1.415 101.656 39.643 131.95l-15.655 21.218z"/><path d="M195.927 287.748c-50.485-37.25-70.34-103.34-48.746-162.245l24.758 9.077c-17.563 47.906-1.415 101.656 39.643 131.95l-15.655 21.218z" fill="#76C9AC"/><path d="M195.927 287.748c-50.485-37.25-70.34-103.34-48.746-162.245l24.758 9.077c-17.563 47.906-1.415 101.656 39.643 131.95l-15.655 21.218z"/><path d="M191.466 287.043c47.818 36.927 113.83 39.345 164.221 6.015l-14.121-21.35c-41.258 27.29-95.304 25.31-134.455-4.925l-15.645 20.26z" fill="#2F6070"/><path d="M191.466 286.043c47.818 36.927 113.83 39.345 164.221 6.015l-14.121-21.35c-41.258 27.29-95.304 25.31-134.455-4.925l-15.645 20.26z" fill="#2F6070"/><path fill="#76C9AC" d="M165.057 107.307l16.725 34.3-51.024-17.576zM334.895 294.064l5.26-37.732 32.472 42.992z"/><path fill="#2F6070" d="M180.65 262.003l37.639-5.984-31.654 43.622z"/><path fill="#D2EADC" d="M305.966 45.633l-26.96 26.96v-53.92z"/><g fill="#2F6070"><path d="M81.432 40.6V27.064c0-1.848.744-2.592 2.448-2.592h4.272c5.304 0 8.424 3.36 8.424 9.144 0 5.976-3.168 9.552-8.424 9.552H83.88c-1.704 0-2.448-.744-2.448-2.568zm2.28-13.272v12.936c0 .552.288.816.768.816h3.552c3.888 0 6.168-2.76 6.168-7.44 0-4.584-2.136-7.104-6.096-7.104h-3.6c-.456 0-.792.288-.792.792zm15.864 15.024V30.664c0-.624.408-.936 1.08-.936.648 0 1.104.312 1.104.936v11.688c0 .648-.456.96-1.104.96-.672 0-1.08-.312-1.08-.96zm1.104-18.048c.888 0 1.608.696 1.608 1.608 0 .936-.72 1.632-1.608 1.632a1.604 1.604 0 01-1.632-1.632c0-.912.72-1.608 1.632-1.608zm9.672 13.032l-1.368-.264c-2.952-.576-4.176-1.608-4.176-3.888 0-2.184 1.872-3.672 4.968-3.672 2.664 0 4.368 1.128 4.968 2.88.024.096.048.192.048.288 0 .456-.408.768-.84.888a2.1 2.1 0 01-.384.048c-.432 0-.864-.192-.984-.648-.312-1.08-1.368-1.632-2.736-1.632-1.944 0-2.856.792-2.856 1.8 0 1.104.456 1.584 2.472 2.016l1.488.312c3.12.648 4.368 1.56 4.368 4.08 0 2.304-1.968 4.008-5.328 4.008-3.072 0-4.872-1.224-5.496-3.36-.024-.12-.048-.216-.048-.312 0-.48.408-.816.864-.912.12-.024.24-.048.336-.048.456 0 .888.192 1.032.648.432 1.392 1.416 2.088 3.312 2.088 1.92 0 3.168-.84 3.168-2.064 0-1.176-.624-1.824-2.808-2.256zm7.056-.768c0-4.104 2.112-7.056 6.048-7.056 3.168 0 4.464 1.752 5.064 3.264.048.12.072.264.072.36 0 .456-.36.744-.72.888-.168.048-.36.072-.528.072-.36 0-.672-.144-.84-.552-.456-1.224-1.176-2.16-3-2.16-2.496 0-3.864 2.112-3.864 5.16 0 3.144 1.344 5.136 3.888 5.136 1.872 0 2.616-.912 3.072-2.208.168-.456.504-.648.888-.648.168 0 .336.024.504.096.432.096.768.384.768.816 0 .144-.024.264-.096.432-.648 1.656-1.92 3.384-5.184 3.384-3.888 0-6.072-2.856-6.072-6.984zm13.848 2.256v-8.136c0-.648.456-.96 1.104-.96.648 0 1.104.312 1.104.96v7.68c0 2.064.84 3.216 2.616 3.216 1.272 0 2.304-.6 3.12-1.728.576-.816.816-1.56.816-2.496v-6.672c0-.648.456-.96 1.104-.96.624 0 1.08.312 1.08.96v11.664c0 .648-.432.96-1.056.96-.648 0-1.104-.288-1.104-.888v-.672c0-.264.072-.744.144-1.128-.744 1.68-2.136 2.904-4.536 2.904-2.832 0-4.392-1.776-4.392-4.704zm19.56-1.488l-1.368-.264c-2.952-.576-4.176-1.608-4.176-3.888 0-2.184 1.872-3.672 4.968-3.672 2.664 0 4.368 1.128 4.968 2.88.024.096.048.192.048.288 0 .456-.408.768-.84.888a2.1 2.1 0 01-.384.048c-.432 0-.864-.192-.984-.648-.312-1.08-1.368-1.632-2.736-1.632-1.944 0-2.856.792-2.856 1.8 0 1.104.456 1.584 2.472 2.016l1.488.312c3.12.648 4.368 1.56 4.368 4.08 0 2.304-1.968 4.008-5.328 4.008-3.072 0-4.872-1.224-5.496-3.36-.024-.12-.048-.216-.048-.312 0-.48.408-.816.864-.912.12-.024.24-.048.336-.048.456 0 .888.192 1.032.648.432 1.392 1.416 2.088 3.312 2.088 1.92 0 3.168-.84 3.168-2.064 0-1.176-.624-1.824-2.808-2.256zm12.84 0l-1.368-.264c-2.952-.576-4.176-1.608-4.176-3.888 0-2.184 1.872-3.672 4.968-3.672 2.664 0 4.368 1.128 4.968 2.88.024.096.048.192.048.288 0 .456-.408.768-.84.888a2.1 2.1 0 01-.384.048c-.432 0-.864-.192-.984-.648-.312-1.08-1.368-1.632-2.736-1.632-1.944 0-2.856.792-2.856 1.8 0 1.104.456 1.584 2.472 2.016l1.488.312c3.12.648 4.368 1.56 4.368 4.08 0 2.304-1.968 4.008-5.328 4.008-3.072 0-4.872-1.224-5.496-3.36-.024-.12-.048-.216-.048-.312 0-.48.408-.816.864-.912.12-.024.24-.048.336-.048.456 0 .888.192 1.032.648.432 1.392 1.416 2.088 3.312 2.088 1.92 0 3.168-.84 3.168-2.064 0-1.176-.624-1.824-2.808-2.256zM83.04 66.352V54.664c0-.624.408-.936 1.08-.936.648 0 1.104.312 1.104.936v11.688c0 .648-.456.96-1.104.96-.672 0-1.08-.312-1.08-.96zm1.104-18.048c.888 0 1.608.696 1.608 1.608 0 .936-.72 1.632-1.608 1.632a1.604 1.604 0 01-1.632-1.632c0-.912.72-1.608 1.632-1.608zm15.552 9.912v8.136c0 .648-.48.96-1.104.96-.648 0-1.104-.312-1.104-.96v-7.68c0-2.04-.816-3.192-2.616-3.192-1.296 0-2.376.576-3.192 1.704-.6.816-.84 1.512-.84 2.448v6.72c0 .648-.456.96-1.08.96-.672 0-1.104-.312-1.104-.96V54.664c0-.624.456-.936 1.128-.936.624 0 1.056.312 1.056.936v.648c0 .312-.072.552-.096 1.008.84-1.704 2.28-2.784 4.56-2.784 2.856 0 4.392 1.728 4.392 4.68zm10.728 2.352c0-4.104 2.112-7.056 6.048-7.056 3.168 0 4.464 1.752 5.064 3.264.048.12.072.264.072.36 0 .456-.36.744-.72.888-.168.048-.36.072-.528.072-.36 0-.672-.144-.84-.552-.456-1.224-1.176-2.16-3-2.16-2.496 0-3.864 2.112-3.864 5.16 0 3.144 1.344 5.136 3.888 5.136 1.872 0 2.616-.912 3.072-2.208.168-.456.504-.648.888-.648.168 0 .336.024.504.096.432.096.768.384.768.816 0 .144-.024.264-.096.432-.648 1.656-1.92 3.384-5.184 3.384-3.888 0-6.072-2.856-6.072-6.984zm13.896 5.784V49.288c0-.648.432-.96 1.104-.96.648 0 1.08.312 1.08.96v17.064c0 .648-.432.96-1.08.96-.672 0-1.104-.312-1.104-.96zm13.728-7.68V57.64c0-1.584-.864-2.28-2.76-2.28-1.752 0-2.616.672-3.024 1.776-.168.456-.528.624-.936.624-.192 0-.384-.024-.552-.096-.456-.144-.792-.48-.792-.912 0-.096.024-.192.048-.288.24-.744.864-1.44 1.416-1.872.84-.648 1.92-1.056 3.864-1.056 3.216 0 4.8 1.272 4.8 4.104v6.552c0 .84.12 1.656.264 2.112a.853.853 0 01.048.24c0 .384-.36.72-.96.768h-.216c-.48 0-.912-.144-1.008-.576-.072-.288-.12-.72-.144-1.2-.912 1.032-2.184 1.968-4.56 1.968-2.64 0-4.248-1.488-4.248-3.96 0-2.256 1.344-3.696 3.624-4.32 1.32-.36 2.568-.504 5.136-.552zm0 3.336V60.4c-2.808.072-4.128.312-5.088.792-.96.48-1.464 1.224-1.464 2.376 0 1.248.96 2.088 2.4 2.088a4.52 4.52 0 003.528-1.704c.456-.576.624-1.032.624-1.944zm10.8-.672l-1.368-.264c-2.952-.576-4.176-1.608-4.176-3.888 0-2.184 1.872-3.672 4.968-3.672 2.664 0 4.368 1.128 4.968 2.88.024.096.048.192.048.288 0 .456-.408.768-.84.888a2.1 2.1 0 01-.384.048c-.432 0-.864-.192-.984-.648-.312-1.08-1.368-1.632-2.736-1.632-1.944 0-2.856.792-2.856 1.8 0 1.104.456 1.584 2.472 2.016l1.488.312c3.12.648 4.368 1.56 4.368 4.08 0 2.304-1.968 4.008-5.328 4.008-3.072 0-4.872-1.224-5.496-3.36-.024-.12-.048-.216-.048-.312 0-.48.408-.816.864-.912.12-.024.24-.048.336-.048.456 0 .888.192 1.032.648.432 1.392 1.416 2.088 3.312 2.088 1.92 0 3.168-.84 3.168-2.064 0-1.176-.624-1.824-2.808-2.256zm12.84 0l-1.368-.264c-2.952-.576-4.176-1.608-4.176-3.888 0-2.184 1.872-3.672 4.968-3.672 2.664 0 4.368 1.128 4.968 2.88.024.096.048.192.048.288 0 .456-.408.768-.84.888a2.1 2.1 0 01-.384.048c-.432 0-.864-.192-.984-.648-.312-1.08-1.368-1.632-2.736-1.632-1.944 0-2.856.792-2.856 1.8 0 1.104.456 1.584 2.472 2.016l1.488.312c3.12.648 4.368 1.56 4.368 4.08 0 2.304-1.968 4.008-5.328 4.008-3.072 0-4.872-1.224-5.496-3.36-.024-.12-.048-.216-.048-.312 0-.48.408-.816.864-.912.12-.024.24-.048.336-.048.456 0 .888.192 1.032.648.432 1.392 1.416 2.088 3.312 2.088 1.92 0 3.168-.84 3.168-2.064 0-1.176-.624-1.824-2.808-2.256zM398.096 40.48l.6 1.416c.048.144.072.264.072.408 0 .456-.312.816-.792.936-.168.048-.36.072-.528.072-.408 0-.768-.192-.936-.624l-.6-1.536c-1.728-4.68-2.4-6.384-4.8-6.384h-4.416v7.536c0 .672-.456 1.008-1.104 1.008-.672 0-1.152-.336-1.152-1.032V27.064c0-1.848.744-2.592 2.448-2.592h5.616c3.48 0 5.4 1.848 5.4 4.8 0 2.76-1.56 4.2-3.792 4.68 1.44.432 2.208 2.04 3.984 6.528zm-11.4-7.68h5.52c2.04 0 3.384-1.272 3.384-3.192 0-2.04-1.104-3.144-3.24-3.144h-4.872c-.504 0-.792.264-.792.84V32.8zm24.624 4.128h-8.448c.048 2.952 1.512 4.8 4.104 4.8 1.728 0 2.688-.864 3.264-2.136.216-.432.528-.6.864-.6.168 0 .336.048.504.096.408.12.744.408.744.84a.74.74 0 01-.12.432c-.768 1.584-2.16 3.168-5.28 3.168-3.936 0-6.216-2.784-6.216-6.936s2.16-7.056 6.072-7.056c3.504 0 5.472 2.736 5.712 5.88v.192c0 .864-.456 1.32-1.2 1.32zm-8.376-1.752h7.032c.264 0 .36-.096.36-.312v-.12c-.288-1.704-1.32-3.456-3.528-3.456-2.304 0-3.552 1.536-3.864 3.888zm20.304-.504V33.64c0-1.584-.864-2.28-2.76-2.28-1.752 0-2.616.672-3.024 1.776-.168.456-.528.624-.936.624-.192 0-.384-.024-.552-.096-.456-.144-.792-.48-.792-.912 0-.096.024-.192.048-.288.24-.744.864-1.44 1.416-1.872.84-.648 1.92-1.056 3.864-1.056 3.216 0 4.8 1.272 4.8 4.104v6.552c0 .84.12 1.656.264 2.112a.853.853 0 01.048.24c0 .384-.36.72-.96.768h-.216c-.48 0-.912-.144-1.008-.576-.072-.288-.12-.72-.144-1.2-.912 1.032-2.184 1.968-4.56 1.968-2.64 0-4.248-1.488-4.248-3.96 0-2.256 1.344-3.696 3.624-4.32 1.32-.36 2.568-.504 5.136-.552zm0 3.336V36.4c-2.808.072-4.128.312-5.088.792-.96.48-1.464 1.224-1.464 2.376 0 1.248.96 2.088 2.4 2.088a4.52 4.52 0 003.528-1.704c.456-.576.624-1.032.624-1.944zm15.072-7.488v-5.232c0-.648.456-.96 1.056-.96.672 0 1.08.312 1.08.96v17.064c0 .648-.432.96-1.104.96-.696 0-1.032-.384-1.032-.888v-.504c0-.264.048-.768.072-1.104-.816 1.68-2.184 2.712-4.416 2.712-3.504 0-5.712-2.76-5.712-7.08 0-4.2 2.184-6.912 5.736-6.912 2.232 0 3.576 1.056 4.416 2.76a22.617 22.617 0 01-.096-1.776zm-4.032.888c-2.424 0-3.816 2.016-3.816 5.064 0 3.144 1.392 5.184 3.816 5.184 2.52 0 4.08-2.184 4.08-5.16 0-2.928-1.44-5.088-4.08-5.088zm28.632 2.808v8.136c0 .648-.48.96-1.104.96-.648 0-1.104-.312-1.104-.96v-7.68c0-2.04-.816-3.192-2.616-3.192-1.296 0-2.376.576-3.192 1.704-.6.816-.84 1.512-.84 2.448v6.72c0 .648-.456.96-1.08.96-.672 0-1.104-.312-1.104-.96V30.664c0-.624.456-.936 1.128-.936.624 0 1.056.312 1.056.936v.648c0 .312-.072.552-.096 1.008.84-1.704 2.28-2.784 4.56-2.784 2.856 0 4.392 1.728 4.392 4.68zm13.32 2.712h-8.448c.048 2.952 1.512 4.8 4.104 4.8 1.728 0 2.688-.864 3.264-2.136.216-.432.528-.6.864-.6.168 0 .336.048.504.096.408.12.744.408.744.84a.74.74 0 01-.12.432c-.768 1.584-2.16 3.168-5.28 3.168-3.936 0-6.216-2.784-6.216-6.936s2.16-7.056 6.072-7.056c3.504 0 5.472 2.736 5.712 5.88v.192c0 .864-.456 1.32-1.2 1.32zm-8.376-1.752h7.032c.264 0 .36-.096.36-.312v-.12c-.288-1.704-1.32-3.456-3.528-3.456-2.304 0-3.552 1.536-3.864 3.888zm15.48 1.128l-3.816-4.92c-.144-.192-.216-.384-.216-.576 0-.336.192-.672.504-.864.216-.144.456-.216.672-.216.288 0 .576.12.792.408l3.384 4.656 3.264-4.68a.967.967 0 01.792-.408c.24 0 .456.072.672.216.288.192.504.528.504.888 0 .192-.072.384-.216.576l-3.672 4.92 3.936 5.304c.144.192.216.408.216.624 0 .336-.168.648-.456.84-.216.144-.456.24-.696.24a.897.897 0 01-.768-.408l-3.576-5.064-3.6 5.064c-.216.288-.504.408-.768.408a1.37 1.37 0 01-.744-.24c-.24-.216-.432-.504-.432-.816 0-.192.072-.384.216-.576l4.008-5.376zm10.728-6.432v-2.904c0-.624.408-.96 1.08-.96.624 0 1.08.336 1.08.96v2.904h3.072c.6 0 .888.384.888.96 0 .552-.312.936-.888.936h-3.072v8.04c0 1.176.504 1.68 1.392 1.68.6 0 1.008-.168 1.416-.408a.978.978 0 01.432-.12c.36 0 .648.264.792.624.072.168.096.36.096.528 0 .336-.144.672-.504.864-.696.336-1.344.528-2.376.528-1.968 0-3.408-.984-3.408-3.504v-8.232H492.2c-.576 0-.84-.384-.84-.936s.264-.96.864-.96h1.848zM387.86 60.568c0-4.104 2.112-7.056 6.048-7.056 3.168 0 4.464 1.752 5.064 3.264.048.12.072.264.072.36 0 .456-.36.744-.72.888-.168.048-.36.072-.528.072-.36 0-.672-.144-.84-.552-.456-1.224-1.176-2.16-3-2.16-2.496 0-3.864 2.112-3.864 5.16 0 3.144 1.344 5.136 3.888 5.136 1.872 0 2.616-.912 3.072-2.208.168-.456.504-.648.888-.648.168 0 .336.024.504.096.432.096.768.384.768.816 0 .144-.024.264-.096.432-.648 1.656-1.92 3.384-5.184 3.384-3.888 0-6.072-2.856-6.072-6.984zm24.984-2.352v8.136c0 .648-.48.96-1.104.96-.648 0-1.08-.312-1.08-.96v-7.68c0-2.04-.84-3.168-2.64-3.168-1.344 0-2.4.624-3.192 1.68-.6.816-.864 1.512-.864 2.448v6.72c0 .648-.408.96-1.032.96-.672 0-1.128-.312-1.128-.96V49.264c0-.624.456-.936 1.128-.936.624 0 1.032.288 1.032.936v6.024c0 .312-.096.864-.144 1.224.792-1.704 2.112-2.976 4.632-2.976 2.856 0 4.392 1.728 4.392 4.68zm11.472.456V57.64c0-1.584-.864-2.28-2.76-2.28-1.752 0-2.616.672-3.024 1.776-.168.456-.528.624-.936.624-.192 0-.384-.024-.552-.096-.456-.144-.792-.48-.792-.912 0-.096.024-.192.048-.288.24-.744.864-1.44 1.416-1.872.84-.648 1.92-1.056 3.864-1.056 3.216 0 4.8 1.272 4.8 4.104v6.552c0 .84.12 1.656.264 2.112a.853.853 0 01.048.24c0 .384-.36.72-.96.768h-.216c-.48 0-.912-.144-1.008-.576-.072-.288-.12-.72-.144-1.2-.912 1.032-2.184 1.968-4.56 1.968-2.64 0-4.248-1.488-4.248-3.96 0-2.256 1.344-3.696 3.624-4.32 1.32-.36 2.568-.504 5.136-.552zm0 3.336V60.4c-2.808.072-4.128.312-5.088.792-.96.48-1.464 1.224-1.464 2.376 0 1.248.96 2.088 2.4 2.088a4.52 4.52 0 003.528-1.704c.456-.576.624-1.032.624-1.944zm5.616 4.344V49.288c0-.648.432-.96 1.104-.96.648 0 1.08.312 1.08.96v17.064c0 .648-.432.96-1.08.96-.672 0-1.104-.312-1.104-.96zm5.592 0V49.288c0-.648.432-.96 1.104-.96.648 0 1.08.312 1.08.96v17.064c0 .648-.432.96-1.08.96-.672 0-1.104-.312-1.104-.96zm15.576-5.424h-8.448c.048 2.952 1.512 4.8 4.104 4.8 1.728 0 2.688-.864 3.264-2.136.216-.432.528-.6.864-.6.168 0 .336.048.504.096.408.12.744.408.744.84a.74.74 0 01-.12.432c-.768 1.584-2.16 3.168-5.28 3.168-3.936 0-6.216-2.784-6.216-6.936s2.16-7.056 6.072-7.056c3.504 0 5.472 2.736 5.712 5.88v.192c0 .864-.456 1.32-1.2 1.32zm-8.376-1.752h7.032c.264 0 .36-.096.36-.312v-.12c-.288-1.704-1.32-3.456-3.528-3.456-2.304 0-3.552 1.536-3.864 3.888zm23.232-.96v8.136c0 .648-.48.96-1.104.96-.648 0-1.104-.312-1.104-.96v-7.68c0-2.04-.816-3.192-2.616-3.192-1.296 0-2.376.576-3.192 1.704-.6.816-.84 1.512-.84 2.448v6.72c0 .648-.456.96-1.08.96-.672 0-1.104-.312-1.104-.96V54.664c0-.624.456-.936 1.128-.936.624 0 1.056.312 1.056.936v.648c0 .312-.072.552-.096 1.008.84-1.704 2.28-2.784 4.56-2.784 2.856 0 4.392 1.728 4.392 4.68zm12.696-2.904v-.72c0-.504.336-.864 1.032-.864.648 0 1.032.312 1.032.96V65.8c0 5.52-2.904 6.768-6.072 6.768-2.592 0-4.248-.864-5.16-2.04-.12-.168-.192-.336-.192-.528 0-.312.168-.624.456-.84.192-.144.456-.24.696-.24.264 0 .504.096.696.312.888 1.032 1.944 1.536 3.408 1.536 3 0 4.08-1.512 4.104-5.064 0-.288.048-.816.096-1.152-.792 1.512-2.16 2.568-4.272 2.568-3.408 0-5.784-2.64-5.784-6.648 0-4.128 2.136-6.912 5.832-6.912 2.184 0 3.552 1.2 4.224 2.736-.024-.264-.096-.72-.096-.984zm-3.864.072c-2.448 0-3.888 1.992-3.888 5.088 0 3.048 1.632 4.896 3.864 4.896 2.448 0 3.936-2.088 3.936-5.064 0-2.856-1.464-4.92-3.912-4.92zm19.32 5.544h-8.448c.048 2.952 1.512 4.8 4.104 4.8 1.728 0 2.688-.864 3.264-2.136.216-.432.528-.6.864-.6.168 0 .336.048.504.096.408.12.744.408.744.84a.74.74 0 01-.12.432c-.768 1.584-2.16 3.168-5.28 3.168-3.936 0-6.216-2.784-6.216-6.936s2.16-7.056 6.072-7.056c3.504 0 5.472 2.736 5.712 5.88v.192c0 .864-.456 1.32-1.2 1.32zm-8.376-1.752h7.032c.264 0 .36-.096.36-.312v-.12c-.288-1.704-1.32-3.456-3.528-3.456-2.304 0-3.552 1.536-3.864 3.888zM448.252 212.48l.6 1.416c.048.144.072.264.072.408 0 .456-.312.816-.792.936-.168.048-.36.072-.528.072-.408 0-.768-.192-.936-.624l-.6-1.536c-1.728-4.68-2.4-6.384-4.8-6.384h-4.416v7.536c0 .672-.456 1.008-1.104 1.008-.672 0-1.152-.336-1.152-1.032v-15.216c0-1.848.744-2.592 2.448-2.592h5.616c3.48 0 5.4 1.848 5.4 4.8 0 2.76-1.56 4.2-3.792 4.68 1.44.432 2.208 2.04 3.984 6.528zm-11.4-7.68h5.52c2.04 0 3.384-1.272 3.384-3.192 0-2.04-1.104-3.144-3.24-3.144h-4.872c-.504 0-.792.264-.792.84v5.496zm24.624 4.128h-8.448c.048 2.952 1.512 4.8 4.104 4.8 1.728 0 2.688-.864 3.264-2.136.216-.432.528-.6.864-.6.168 0 .336.048.504.096.408.12.744.408.744.84a.74.74 0 01-.12.432c-.768 1.584-2.16 3.168-5.28 3.168-3.936 0-6.216-2.784-6.216-6.936s2.16-7.056 6.072-7.056c3.504 0 5.472 2.736 5.712 5.88v.192c0 .864-.456 1.32-1.2 1.32zm-8.376-1.752h7.032c.264 0 .36-.096.36-.312v-.12c-.288-1.704-1.32-3.456-3.528-3.456-2.304 0-3.552 1.536-3.864 3.888zm13.8-5.304v-1.728c0-3.096 1.896-3.936 3.72-3.936.792 0 1.392.048 2.064.264.456.144.648.504.648.864a.974.974 0 01-.096.456c-.144.408-.48.72-.912.72-.12 0-.24-.024-.384-.072-.408-.168-.816-.24-1.32-.24-.888 0-1.56.48-1.56 2.208v1.464h2.88c.6 0 .888.408.888.984 0 .552-.312.912-.888.912h-2.88v10.584c0 .648-.456.96-1.08.96-.648 0-1.08-.312-1.08-.96v-10.584h-2.04c-.576 0-.864-.36-.864-.912s.264-.984.864-.984h2.04zm17.952 7.056h-8.448c.048 2.952 1.512 4.8 4.104 4.8 1.728 0 2.688-.864 3.264-2.136.216-.432.528-.6.864-.6.168 0 .336.048.504.096.408.12.744.408.744.84a.74.74 0 01-.12.432c-.768 1.584-2.16 3.168-5.28 3.168-3.936 0-6.216-2.784-6.216-6.936s2.16-7.056 6.072-7.056c3.504 0 5.472 2.736 5.712 5.88v.192c0 .864-.456 1.32-1.2 1.32zm-8.376-1.752h7.032c.264 0 .36-.096.36-.312v-.12c-.288-1.704-1.32-3.456-3.528-3.456-2.304 0-3.552 1.536-3.864 3.888zm12.528 7.176v-11.688c0-.624.456-.936 1.128-.936.6 0 1.08.312 1.08.936v.528c0 .336-.096.744-.144 1.128.384-1.152 1.608-2.64 3.672-2.712.192-.024.36-.024.528-.024.36 0 .624.048.96.12.552.072.768.408.768.864 0 .12-.024.264-.048.408-.096.504-.432.936-.936.936-.072 0-.144 0-.216-.024-.336-.072-.648-.144-1.152-.144-1.032.024-1.824.552-2.424 1.32-.624.768-.984 1.656-1.008 2.664v6.624c0 .648-.48.96-1.08.96-.672 0-1.128-.312-1.128-.96zm19.44-12.48v-2.904c0-.624.408-.96 1.08-.96.624 0 1.08.336 1.08.96v2.904h3.072c.6 0 .888.384.888.96 0 .552-.312.936-.888.936h-3.072v8.04c0 1.176.504 1.68 1.392 1.68.6 0 1.008-.168 1.416-.408a.978.978 0 01.432-.12c.36 0 .648.264.792.624.072.168.096.36.096.528 0 .336-.144.672-.504.864-.696.336-1.344.528-2.376.528-1.968 0-3.408-.984-3.408-3.504v-8.232h-1.872c-.576 0-.84-.384-.84-.936s.264-.96.864-.96h1.848zm13.848-.336c3.84 0 6.096 2.784 6.096 6.96s-2.304 7.056-6.048 7.056c-3.96 0-6.264-2.784-6.264-7.056 0-4.152 2.328-6.96 6.216-6.96zm.072 1.848c-2.592 0-4.08 1.992-4.08 5.184 0 3.048 1.44 5.136 3.912 5.136 2.616 0 3.984-2.04 3.984-5.232 0-3.024-1.368-5.088-3.816-5.088zm-95.448 29.952l-1.368-.264c-2.952-.576-4.176-1.608-4.176-3.888 0-2.184 1.872-3.672 4.968-3.672 2.664 0 4.368 1.128 4.968 2.88.024.096.048.192.048.288 0 .456-.408.768-.84.888a2.1 2.1 0 01-.384.048c-.432 0-.864-.192-.984-.648-.312-1.08-1.368-1.632-2.736-1.632-1.944 0-2.856.792-2.856 1.8 0 1.104.456 1.584 2.472 2.016l1.488.312c3.12.648 4.368 1.56 4.368 4.08 0 2.304-1.968 4.008-5.328 4.008-3.072 0-4.872-1.224-5.496-3.36-.024-.12-.048-.216-.048-.312 0-.48.408-.816.864-.912.12-.024.24-.048.336-.048.456 0 .888.192 1.032.648.432 1.392 1.416 2.088 3.312 2.088 1.92 0 3.168-.84 3.168-2.064 0-1.176-.624-1.824-2.808-2.256zm7.608 1.488v-8.136c0-.648.456-.96 1.104-.96.648 0 1.104.312 1.104.96v7.68c0 2.064.84 3.216 2.616 3.216 1.272 0 2.304-.6 3.12-1.728.576-.816.816-1.56.816-2.496v-6.672c0-.648.456-.96 1.104-.96.624 0 1.08.312 1.08.96v11.664c0 .648-.432.96-1.056.96-.648 0-1.104-.288-1.104-.888v-.672c0-.264.072-.744.144-1.128-.744 1.68-2.136 2.904-4.536 2.904-2.832 0-4.392-1.776-4.392-4.704zm23.736-7.512v-.72c0-.504.336-.864 1.032-.864.648 0 1.032.312 1.032.96V237.8c0 5.52-2.904 6.768-6.072 6.768-2.592 0-4.248-.864-5.16-2.04-.12-.168-.192-.336-.192-.528 0-.312.168-.624.456-.84.192-.144.456-.24.696-.24.264 0 .504.096.696.312.888 1.032 1.944 1.536 3.408 1.536 3 0 4.08-1.512 4.104-5.064 0-.288.048-.816.096-1.152-.792 1.512-2.16 2.568-4.272 2.568-3.408 0-5.784-2.64-5.784-6.648 0-4.128 2.136-6.912 5.832-6.912 2.184 0 3.552 1.2 4.224 2.736-.024-.264-.096-.72-.096-.984zm-3.864.072c-2.448 0-3.888 1.992-3.888 5.088 0 3.048 1.632 4.896 3.864 4.896 2.448 0 3.936-2.088 3.936-5.064 0-2.856-1.464-4.92-3.912-4.92zm18.696-.072v-.72c0-.504.336-.864 1.032-.864.648 0 1.032.312 1.032.96V237.8c0 5.52-2.904 6.768-6.072 6.768-2.592 0-4.248-.864-5.16-2.04-.12-.168-.192-.336-.192-.528 0-.312.168-.624.456-.84.192-.144.456-.24.696-.24.264 0 .504.096.696.312.888 1.032 1.944 1.536 3.408 1.536 3 0 4.08-1.512 4.104-5.064 0-.288.048-.816.096-1.152-.792 1.512-2.16 2.568-4.272 2.568-3.408 0-5.784-2.64-5.784-6.648 0-4.128 2.136-6.912 5.832-6.912 2.184 0 3.552 1.2 4.224 2.736-.024-.264-.096-.72-.096-.984zm-3.864.072c-2.448 0-3.888 1.992-3.888 5.088 0 3.048 1.632 4.896 3.864 4.896 2.448 0 3.936-2.088 3.936-5.064 0-2.856-1.464-4.92-3.912-4.92zm19.32 5.544H480.1c.048 2.952 1.512 4.8 4.104 4.8 1.728 0 2.688-.864 3.264-2.136.216-.432.528-.6.864-.6.168 0 .336.048.504.096.408.12.744.408.744.84a.74.74 0 01-.12.432c-.768 1.584-2.16 3.168-5.28 3.168-3.936 0-6.216-2.784-6.216-6.936s2.16-7.056 6.072-7.056c3.504 0 5.472 2.736 5.712 5.88v.192c0 .864-.456 1.32-1.2 1.32zm-8.376-1.752h7.032c.264 0 .36-.096.36-.312v-.12c-.288-1.704-1.32-3.456-3.528-3.456-2.304 0-3.552 1.536-3.864 3.888zm17.352 2.16l-1.368-.264c-2.952-.576-4.176-1.608-4.176-3.888 0-2.184 1.872-3.672 4.968-3.672 2.664 0 4.368 1.128 4.968 2.88.024.096.048.192.048.288 0 .456-.408.768-.84.888a2.1 2.1 0 01-.384.048c-.432 0-.864-.192-.984-.648-.312-1.08-1.368-1.632-2.736-1.632-1.944 0-2.856.792-2.856 1.8 0 1.104.456 1.584 2.472 2.016l1.488.312c3.12.648 4.368 1.56 4.368 4.08 0 2.304-1.968 4.008-5.328 4.008-3.072 0-4.872-1.224-5.496-3.36-.024-.12-.048-.216-.048-.312 0-.48.408-.816.864-.912.12-.024.24-.048.336-.048.456 0 .888.192 1.032.648.432 1.392 1.416 2.088 3.312 2.088 1.92 0 3.168-.84 3.168-2.064 0-1.176-.624-1.824-2.808-2.256zm9.096-7.464v-2.904c0-.624.408-.96 1.08-.96.624 0 1.08.336 1.08.96v2.904h3.072c.6 0 .888.384.888.96 0 .552-.312.936-.888.936h-3.072v8.04c0 1.176.504 1.68 1.392 1.68.6 0 1.008-.168 1.416-.408a.978.978 0 01.432-.12c.36 0 .648.264.792.624.072.168.096.36.096.528 0 .336-.144.672-.504.864-.696.336-1.344.528-2.376.528-1.968 0-3.408-.984-3.408-3.504v-8.232h-1.872c-.576 0-.84-.384-.84-.936s.264-.96.864-.96h1.848zm18.216 7.056h-8.448c.048 2.952 1.512 4.8 4.104 4.8 1.728 0 2.688-.864 3.264-2.136.216-.432.528-.6.864-.6.168 0 .336.048.504.096.408.12.744.408.744.84a.74.74 0 01-.12.432c-.768 1.584-2.16 3.168-5.28 3.168-3.936 0-6.216-2.784-6.216-6.936s2.16-7.056 6.072-7.056c3.504 0 5.472 2.736 5.712 5.88v.192c0 .864-.456 1.32-1.2 1.32zm-8.376-1.752h7.032c.264 0 .36-.096.36-.312v-.12c-.288-1.704-1.32-3.456-3.528-3.456-2.304 0-3.552 1.536-3.864 3.888zm21.624-4.656v-5.232c0-.648.456-.96 1.056-.96.672 0 1.08.312 1.08.96v17.064c0 .648-.432.96-1.104.96-.696 0-1.032-.384-1.032-.888v-.504c0-.264.048-.768.072-1.104-.816 1.68-2.184 2.712-4.416 2.712-3.504 0-5.712-2.76-5.712-7.08 0-4.2 2.184-6.912 5.736-6.912 2.232 0 3.576 1.056 4.416 2.76a22.617 22.617 0 01-.096-1.776zm-4.032.888c-2.424 0-3.816 2.016-3.816 5.064 0 3.144 1.392 5.184 3.816 5.184 2.52 0 4.08-2.184 4.08-5.16 0-2.928-1.44-5.088-4.08-5.088zm-109.044 34.944v-11.688c0-.624.456-.936 1.128-.936.6 0 1.08.312 1.08.936v.528c0 .336-.096.744-.144 1.128.384-1.152 1.608-2.64 3.672-2.712.192-.024.36-.024.528-.024.36 0 .624.048.96.12.552.072.768.408.768.864 0 .12-.024.264-.048.408-.096.504-.432.936-.936.936-.072 0-.144 0-.216-.024-.336-.072-.648-.144-1.152-.144-1.032.024-1.824.552-2.424 1.32-.624.768-.984 1.656-1.008 2.664v6.624c0 .648-.48.96-1.08.96-.672 0-1.128-.312-1.128-.96zM445 256.928h-8.448c.048 2.952 1.512 4.8 4.104 4.8 1.728 0 2.688-.864 3.264-2.136.216-.432.528-.6.864-.6.168 0 .336.048.504.096.408.12.744.408.744.84a.74.74 0 01-.12.432c-.768 1.584-2.16 3.168-5.28 3.168-3.936 0-6.216-2.784-6.216-6.936s2.16-7.056 6.072-7.056c3.504 0 5.472 2.736 5.712 5.88v.192c0 .864-.456 1.32-1.2 1.32zm-8.376-1.752h7.032c.264 0 .36-.096.36-.312v-.12c-.288-1.704-1.32-3.456-3.528-3.456-2.304 0-3.552 1.536-3.864 3.888zm17.352 2.16l-1.368-.264c-2.952-.576-4.176-1.608-4.176-3.888 0-2.184 1.872-3.672 4.968-3.672 2.664 0 4.368 1.128 4.968 2.88.024.096.048.192.048.288 0 .456-.408.768-.84.888a2.1 2.1 0 01-.384.048c-.432 0-.864-.192-.984-.648-.312-1.08-1.368-1.632-2.736-1.632-1.944 0-2.856.792-2.856 1.8 0 1.104.456 1.584 2.472 2.016l1.488.312c3.12.648 4.368 1.56 4.368 4.08 0 2.304-1.968 4.008-5.328 4.008-3.072 0-4.872-1.224-5.496-3.36-.024-.12-.048-.216-.048-.312 0-.48.408-.816.864-.912.12-.024.24-.048.336-.048.456 0 .888.192 1.032.648.432 1.392 1.416 2.088 3.312 2.088 1.92 0 3.168-.84 3.168-2.064 0-1.176-.624-1.824-2.808-2.256zm13.272-7.8c3.84 0 6.096 2.784 6.096 6.96s-2.304 7.056-6.048 7.056c-3.96 0-6.264-2.784-6.264-7.056 0-4.152 2.328-6.96 6.216-6.96zm.072 1.848c-2.592 0-4.08 1.992-4.08 5.184 0 3.048 1.44 5.136 3.912 5.136 2.616 0 3.984-2.04 3.984-5.232 0-3.024-1.368-5.088-3.816-5.088zm8.736 7.44v-8.136c0-.648.456-.96 1.104-.96.648 0 1.104.312 1.104.96v7.68c0 2.064.84 3.216 2.616 3.216 1.272 0 2.304-.6 3.12-1.728.576-.816.816-1.56.816-2.496v-6.672c0-.648.456-.96 1.104-.96.624 0 1.08.312 1.08.96v11.664c0 .648-.432.96-1.056.96-.648 0-1.104-.288-1.104-.888v-.672c0-.264.072-.744.144-1.128-.744 1.68-2.136 2.904-4.536 2.904-2.832 0-4.392-1.776-4.392-4.704zm14.736 3.528v-11.688c0-.624.456-.936 1.128-.936.6 0 1.08.312 1.08.936v.528c0 .336-.096.744-.144 1.128.384-1.152 1.608-2.64 3.672-2.712.192-.024.36-.024.528-.024.36 0 .624.048.96.12.552.072.768.408.768.864 0 .12-.024.264-.048.408-.096.504-.432.936-.936.936-.072 0-.144 0-.216-.024-.336-.072-.648-.144-1.152-.144-1.032.024-1.824.552-2.424 1.32-.624.768-.984 1.656-1.008 2.664v6.624c0 .648-.48.96-1.08.96-.672 0-1.128-.312-1.128-.96zm9.408-5.784c0-4.104 2.112-7.056 6.048-7.056 3.168 0 4.464 1.752 5.064 3.264.048.12.072.264.072.36 0 .456-.36.744-.72.888-.168.048-.36.072-.528.072-.36 0-.672-.144-.84-.552-.456-1.224-1.176-2.16-3-2.16-2.496 0-3.864 2.112-3.864 5.16 0 3.144 1.344 5.136 3.888 5.136 1.872 0 2.616-.912 3.072-2.208.168-.456.504-.648.888-.648.168 0 .336.024.504.096.432.096.768.384.768.816 0 .144-.024.264-.096.432-.648 1.656-1.92 3.384-5.184 3.384-3.888 0-6.072-2.856-6.072-6.984zm23.88.36h-8.448c.048 2.952 1.512 4.8 4.104 4.8 1.728 0 2.688-.864 3.264-2.136.216-.432.528-.6.864-.6.168 0 .336.048.504.096.408.12.744.408.744.84a.74.74 0 01-.12.432c-.768 1.584-2.16 3.168-5.28 3.168-3.936 0-6.216-2.784-6.216-6.936s2.16-7.056 6.072-7.056c3.504 0 5.472 2.736 5.712 5.88v.192c0 .864-.456 1.32-1.2 1.32zm-8.376-1.752h7.032c.264 0 .36-.096.36-.312v-.12c-.288-1.704-1.32-3.456-3.528-3.456-2.304 0-3.552 1.536-3.864 3.888zm17.352 2.16l-1.368-.264c-2.952-.576-4.176-1.608-4.176-3.888 0-2.184 1.872-3.672 4.968-3.672 2.664 0 4.368 1.128 4.968 2.88.024.096.048.192.048.288 0 .456-.408.768-.84.888a2.1 2.1 0 01-.384.048c-.432 0-.864-.192-.984-.648-.312-1.08-1.368-1.632-2.736-1.632-1.944 0-2.856.792-2.856 1.8 0 1.104.456 1.584 2.472 2.016l1.488.312c3.12.648 4.368 1.56 4.368 4.08 0 2.304-1.968 4.008-5.328 4.008-3.072 0-4.872-1.224-5.496-3.36-.024-.12-.048-.216-.048-.312 0-.48.408-.816.864-.912.12-.024.24-.048.336-.048.456 0 .888.192 1.032.648.432 1.392 1.416 2.088 3.312 2.088 1.92 0 3.168-.84 3.168-2.064 0-1.176-.624-1.824-2.808-2.256zM37.456 214.328v-17.016c0-.672.48-.984 1.128-.984.672 0 1.176.312 1.176.984v17.016c0 .648-.504.984-1.176.984-.648 0-1.128-.336-1.128-.984zm17.16-8.112v8.136c0 .648-.48.96-1.104.96-.648 0-1.104-.312-1.104-.96v-7.68c0-2.04-.816-3.192-2.616-3.192-1.296 0-2.376.576-3.192 1.704-.6.816-.84 1.512-.84 2.448v6.72c0 .648-.456.96-1.08.96-.672 0-1.104-.312-1.104-.96v-11.688c0-.624.456-.936 1.128-.936.624 0 1.056.312 1.056.936v.648c0 .312-.072.552-.096 1.008.84-1.704 2.28-2.784 4.56-2.784 2.856 0 4.392 1.728 4.392 4.68zm8.52 3.12l-1.368-.264c-2.952-.576-4.176-1.608-4.176-3.888 0-2.184 1.872-3.672 4.968-3.672 2.664 0 4.368 1.128 4.968 2.88.024.096.048.192.048.288 0 .456-.408.768-.84.888a2.1 2.1 0 01-.384.048c-.432 0-.864-.192-.984-.648-.312-1.08-1.368-1.632-2.736-1.632-1.944 0-2.856.792-2.856 1.8 0 1.104.456 1.584 2.472 2.016l1.488.312c3.12.648 4.368 1.56 4.368 4.08 0 2.304-1.968 4.008-5.328 4.008-3.072 0-4.872-1.224-5.496-3.36-.024-.12-.048-.216-.048-.312 0-.48.408-.816.864-.912.12-.024.24-.048.336-.048.456 0 .888.192 1.032.648.432 1.392 1.416 2.088 3.312 2.088 1.92 0 3.168-.84 3.168-2.064 0-1.176-.624-1.824-2.808-2.256zm9.096-7.464v-2.904c0-.624.408-.96 1.08-.96.624 0 1.08.336 1.08.96v2.904h3.072c.6 0 .888.384.888.96 0 .552-.312.936-.888.936h-3.072v8.04c0 1.176.504 1.68 1.392 1.68.6 0 1.008-.168 1.416-.408a.978.978 0 01.432-.12c.36 0 .648.264.792.624.072.168.096.36.096.528 0 .336-.144.672-.504.864-.696.336-1.344.528-2.376.528-1.968 0-3.408-.984-3.408-3.504v-8.232H70.36c-.576 0-.84-.384-.84-.936s.264-.96.864-.96h1.848zm16.368 4.8v-1.032c0-1.584-.864-2.28-2.76-2.28-1.752 0-2.616.672-3.024 1.776-.168.456-.528.624-.936.624-.192 0-.384-.024-.552-.096-.456-.144-.792-.48-.792-.912 0-.096.024-.192.048-.288.24-.744.864-1.44 1.416-1.872.84-.648 1.92-1.056 3.864-1.056 3.216 0 4.8 1.272 4.8 4.104v6.552c0 .84.12 1.656.264 2.112a.853.853 0 01.048.24c0 .384-.36.72-.96.768H89.8c-.48 0-.912-.144-1.008-.576-.072-.288-.12-.72-.144-1.2-.912 1.032-2.184 1.968-4.56 1.968-2.64 0-4.248-1.488-4.248-3.96 0-2.256 1.344-3.696 3.624-4.32 1.32-.36 2.568-.504 5.136-.552zm0 3.336V208.4c-2.808.072-4.128.312-5.088.792-.96.48-1.464 1.224-1.464 2.376 0 1.248.96 2.088 2.4 2.088a4.52 4.52 0 003.528-1.704c.456-.576.624-1.032.624-1.944zm16.68-3.792v8.136c0 .648-.48.96-1.104.96-.648 0-1.104-.312-1.104-.96v-7.68c0-2.04-.816-3.192-2.616-3.192-1.296 0-2.376.576-3.192 1.704-.6.816-.84 1.512-.84 2.448v6.72c0 .648-.456.96-1.08.96-.672 0-1.104-.312-1.104-.96v-11.688c0-.624.456-.936 1.128-.936.624 0 1.056.312 1.056.936v.648c0 .312-.072.552-.096 1.008.84-1.704 2.28-2.784 4.56-2.784 2.856 0 4.392 1.728 4.392 4.68zm4.776-4.344v-2.904c0-.624.408-.96 1.08-.96.624 0 1.08.336 1.08.96v2.904h3.072c.6 0 .888.384.888.96 0 .552-.312.936-.888.936h-3.072v8.04c0 1.176.504 1.68 1.392 1.68.6 0 1.008-.168 1.416-.408a.978.978 0 01.432-.12c.36 0 .648.264.792.624.072.168.096.36.096.528 0 .336-.144.672-.504.864-.696.336-1.344.528-2.376.528-1.968 0-3.408-.984-3.408-3.504v-8.232h-1.872c-.576 0-.84-.384-.84-.936s.264-.96.864-.96h1.848zm-84.264 24v-1.728c0-3.096 1.896-3.936 3.72-3.936.792 0 1.392.048 2.064.264.456.144.648.504.648.864a.974.974 0 01-.096.456c-.144.408-.48.72-.912.72-.12 0-.24-.024-.384-.072-.408-.168-.816-.24-1.32-.24-.888 0-1.56.48-1.56 2.208v1.464h2.88c.6 0 .888.408.888.984 0 .552-.312.912-.888.912h-2.88v10.584c0 .648-.456.96-1.08.96-.648 0-1.08-.312-1.08-.96v-10.584h-2.04c-.576 0-.864-.36-.864-.912s.264-.984.864-.984h2.04zm17.952 7.056h-8.448c.048 2.952 1.512 4.8 4.104 4.8 1.728 0 2.688-.864 3.264-2.136.216-.432.528-.6.864-.6.168 0 .336.048.504.096.408.12.744.408.744.84a.74.74 0 01-.12.432c-.768 1.584-2.16 3.168-5.28 3.168-3.936 0-6.216-2.784-6.216-6.936s2.16-7.056 6.072-7.056c3.504 0 5.472 2.736 5.712 5.88v.192c0 .864-.456 1.32-1.2 1.32zm-8.376-1.752H42.4c.264 0 .36-.096.36-.312v-.12c-.288-1.704-1.32-3.456-3.528-3.456-2.304 0-3.552 1.536-3.864 3.888zm22.152 1.752h-8.448c.048 2.952 1.512 4.8 4.104 4.8 1.728 0 2.688-.864 3.264-2.136.216-.432.528-.6.864-.6.168 0 .336.048.504.096.408.12.744.408.744.84a.74.74 0 01-.12.432c-.768 1.584-2.16 3.168-5.28 3.168-3.936 0-6.216-2.784-6.216-6.936s2.16-7.056 6.072-7.056c3.504 0 5.472 2.736 5.712 5.88v.192c0 .864-.456 1.32-1.2 1.32zm-8.376-1.752h7.032c.264 0 .36-.096.36-.312v-.12c-.288-1.704-1.32-3.456-3.528-3.456-2.304 0-3.552 1.536-3.864 3.888zm21.624-4.656v-5.232c0-.648.456-.96 1.056-.96.672 0 1.08.312 1.08.96v17.064c0 .648-.432.96-1.104.96-.696 0-1.032-.384-1.032-.888v-.504c0-.264.048-.768.072-1.104-.816 1.68-2.184 2.712-4.416 2.712-3.504 0-5.712-2.76-5.712-7.08 0-4.2 2.184-6.912 5.736-6.912 2.232 0 3.576 1.056 4.416 2.76a22.617 22.617 0 01-.096-1.776zm-4.032.888c-2.424 0-3.816 2.016-3.816 5.064 0 3.144 1.392 5.184 3.816 5.184 2.52 0 4.08-2.184 4.08-5.16 0-2.928-1.44-5.088-4.08-5.088zm11.736 10.512v.504c0 .528-.36.888-1.056.888-.672 0-1.08-.312-1.08-.96v-17.064c0-.648.408-.96 1.08-.96.624 0 1.056.312 1.056.96v5.232a15 15 0 01-.12 1.752c.888-1.704 2.304-2.736 4.512-2.736 3.6 0 5.664 2.64 5.664 6.912 0 4.224-2.184 7.08-5.736 7.08-2.208 0-3.648-1.08-4.416-2.76.048.36.096.84.096 1.152zm4.104-10.512c-2.64 0-4.152 2.136-4.152 5.088 0 2.976 1.56 5.136 4.08 5.136 2.424 0 3.816-2.064 3.816-5.16 0-3.12-1.344-5.064-3.744-5.064zm16.848 3.264v-1.032c0-1.584-.864-2.28-2.76-2.28-1.752 0-2.616.672-3.024 1.776-.168.456-.528.624-.936.624-.192 0-.384-.024-.552-.096-.456-.144-.792-.48-.792-.912 0-.096.024-.192.048-.288.24-.744.864-1.44 1.416-1.872.84-.648 1.92-1.056 3.864-1.056 3.216 0 4.8 1.272 4.8 4.104v6.552c0 .84.12 1.656.264 2.112a.853.853 0 01.048.24c0 .384-.36.72-.96.768h-.216c-.48 0-.912-.144-1.008-.576-.072-.288-.12-.72-.144-1.2-.912 1.032-2.184 1.968-4.56 1.968-2.64 0-4.248-1.488-4.248-3.96 0-2.256 1.344-3.696 3.624-4.32 1.32-.36 2.568-.504 5.136-.552zm0 3.336V232.4c-2.808.072-4.128.312-5.088.792-.96.48-1.464 1.224-1.464 2.376 0 1.248.96 2.088 2.4 2.088a4.52 4.52 0 003.528-1.704c.456-.576.624-1.032.624-1.944zm5.016-1.44c0-4.104 2.112-7.056 6.048-7.056 3.168 0 4.464 1.752 5.064 3.264.048.12.072.264.072.36 0 .456-.36.744-.72.888-.168.048-.36.072-.528.072-.36 0-.672-.144-.84-.552-.456-1.224-1.176-2.16-3-2.16-2.496 0-3.864 2.112-3.864 5.16 0 3.144 1.344 5.136 3.888 5.136 1.872 0 2.616-.912 3.072-2.208.168-.456.504-.648.888-.648.168 0 .336.024.504.096.432.096.768.384.768.816 0 .144-.024.264-.096.432-.648 1.656-1.92 3.384-5.184 3.384-3.888 0-6.072-2.856-6.072-6.984zm16.104 1.872v3.912c0 .648-.432.96-1.08.96-.672 0-1.08-.312-1.08-.96v-17.088c0-.624.432-.936 1.104-.936.624 0 1.056.264 1.056.888v10.656l5.856-5.832c.216-.216.48-.312.72-.312.312 0 .6.12.792.36.216.24.36.528.36.792 0 .24-.096.456-.312.672l-4.056 3.792 4.776 6.36c.12.168.168.336.168.528 0 .36-.24.72-.552.912-.192.12-.408.168-.648.168-.312 0-.624-.12-.816-.384l-4.464-6.24-1.824 1.752zM215.596 340.6v-13.536c0-1.848.744-2.592 2.448-2.592h4.272c5.304 0 8.424 3.36 8.424 9.144 0 5.976-3.168 9.552-8.424 9.552h-4.272c-1.704 0-2.448-.744-2.448-2.568zm2.28-13.272v12.936c0 .552.288.816.768.816h3.552c3.888 0 6.168-2.76 6.168-7.44 0-4.584-2.136-7.104-6.096-7.104h-3.6c-.456 0-.792.288-.792.792zm25.824 9.6h-8.448c.048 2.952 1.512 4.8 4.104 4.8 1.728 0 2.688-.864 3.264-2.136.216-.432.528-.6.864-.6.168 0 .336.048.504.096.408.12.744.408.744.84a.74.74 0 01-.12.432c-.768 1.584-2.16 3.168-5.28 3.168-3.936 0-6.216-2.784-6.216-6.936s2.16-7.056 6.072-7.056c3.504 0 5.472 2.736 5.712 5.88v.192c0 .864-.456 1.32-1.2 1.32zm-8.376-1.752h7.032c.264 0 .36-.096.36-.312v-.12c-.288-1.704-1.32-3.456-3.528-3.456-2.304 0-3.552 1.536-3.864 3.888zm13.608-5.304v-2.904c0-.624.408-.96 1.08-.96.624 0 1.08.336 1.08.96v2.904h3.072c.6 0 .888.384.888.96 0 .552-.312.936-.888.936h-3.072v8.04c0 1.176.504 1.68 1.392 1.68.6 0 1.008-.168 1.416-.408a.978.978 0 01.432-.12c.36 0 .648.264.792.624.072.168.096.36.096.528 0 .336-.144.672-.504.864-.696.336-1.344.528-2.376.528-1.968 0-3.408-.984-3.408-3.504v-8.232h-1.872c-.576 0-.84-.384-.84-.936s.264-.96.864-.96h1.848zm18.216 7.056H258.7c.048 2.952 1.512 4.8 4.104 4.8 1.728 0 2.688-.864 3.264-2.136.216-.432.528-.6.864-.6.168 0 .336.048.504.096.408.12.744.408.744.84a.74.74 0 01-.12.432c-.768 1.584-2.16 3.168-5.28 3.168-3.936 0-6.216-2.784-6.216-6.936s2.16-7.056 6.072-7.056c3.504 0 5.472 2.736 5.712 5.88v.192c0 .864-.456 1.32-1.2 1.32zm-8.376-1.752h7.032c.264 0 .36-.096.36-.312v-.12c-.288-1.704-1.32-3.456-3.528-3.456-2.304 0-3.552 1.536-3.864 3.888zm12.528 7.176v-11.688c0-.624.456-.936 1.128-.936.6 0 1.08.312 1.08.936v.528c0 .336-.096.744-.144 1.128.384-1.152 1.608-2.64 3.672-2.712.192-.024.36-.024.528-.024.36 0 .624.048.96.12.552.072.768.408.768.864 0 .12-.024.264-.048.408-.096.504-.432.936-.936.936-.072 0-.144 0-.216-.024-.336-.072-.648-.144-1.152-.144-1.032.024-1.824.552-2.424 1.32-.624.768-.984 1.656-1.008 2.664v6.624c0 .648-.48.96-1.08.96-.672 0-1.128-.312-1.128-.96zm27.744-8.16v8.16c0 .648-.48.96-1.104.96-.672 0-1.08-.312-1.08-.96v-7.68c0-2.04-.576-3.192-2.304-3.192-1.272 0-2.112.768-2.688 1.632-.36.504-.648 1.44-.648 2.16v7.08c0 .648-.456.96-1.08.96-.672 0-1.08-.312-1.08-.96v-7.68c0-2.04-.6-3.192-2.304-3.192-1.272 0-2.04.744-2.616 1.608-.432.648-.648 1.512-.648 2.304v6.96c0 .648-.432.96-1.056.96-.672 0-1.104-.312-1.104-.96v-11.688c0-.624.456-.936 1.128-.936.6 0 1.032.312 1.032.936v.504c0 .312-.096.792-.168 1.152.6-1.416 1.608-2.76 3.96-2.76 2.112 0 3.264.96 3.576 2.616.696-1.248 1.56-2.616 4.224-2.616 2.832 0 3.96 1.704 3.96 4.632zm3.336 8.16v-11.688c0-.624.408-.936 1.08-.936.648 0 1.104.312 1.104.936v11.688c0 .648-.456.96-1.104.96-.672 0-1.08-.312-1.08-.96zm1.104-18.048c.888 0 1.608.696 1.608 1.608 0 .936-.72 1.632-1.608 1.632a1.604 1.604 0 01-1.632-1.632c0-.912.72-1.608 1.632-1.608zm15.552 9.912v8.136c0 .648-.48.96-1.104.96-.648 0-1.104-.312-1.104-.96v-7.68c0-2.04-.816-3.192-2.616-3.192-1.296 0-2.376.576-3.192 1.704-.6.816-.84 1.512-.84 2.448v6.72c0 .648-.456.96-1.08.96-.672 0-1.104-.312-1.104-.96v-11.688c0-.624.456-.936 1.128-.936.624 0 1.056.312 1.056.936v.648c0 .312-.072.552-.096 1.008.84-1.704 2.28-2.784 4.56-2.784 2.856 0 4.392 1.728 4.392 4.68zm13.32 2.712h-8.448c.048 2.952 1.512 4.8 4.104 4.8 1.728 0 2.688-.864 3.264-2.136.216-.432.528-.6.864-.6.168 0 .336.048.504.096.408.12.744.408.744.84a.74.74 0 01-.12.432c-.768 1.584-2.16 3.168-5.28 3.168-3.936 0-6.216-2.784-6.216-6.936s2.16-7.056 6.072-7.056c3.504 0 5.472 2.736 5.712 5.88v.192c0 .864-.456 1.32-1.2 1.32zm-8.376-1.752h7.032c.264 0 .36-.096.36-.312v-.12c-.288-1.704-1.32-3.456-3.528-3.456-2.304 0-3.552 1.536-3.864 3.888zm-82.416 23.496v-1.032c0-1.584-.864-2.28-2.76-2.28-1.752 0-2.616.672-3.024 1.776-.168.456-.528.624-.936.624-.192 0-.384-.024-.552-.096-.456-.144-.792-.48-.792-.912 0-.096.024-.192.048-.288.24-.744.864-1.44 1.416-1.872.84-.648 1.92-1.056 3.864-1.056 3.216 0 4.8 1.272 4.8 4.104v6.552c0 .84.12 1.656.264 2.112a.853.853 0 01.048.24c0 .384-.36.72-.96.768h-.216c-.48 0-.912-.144-1.008-.576-.072-.288-.12-.72-.144-1.2-.912 1.032-2.184 1.968-4.56 1.968-2.64 0-4.248-1.488-4.248-3.96 0-2.256 1.344-3.696 3.624-4.32 1.32-.36 2.568-.504 5.136-.552zm0 3.336V360.4c-2.808.072-4.128.312-5.088.792-.96.48-1.464 1.224-1.464 2.376 0 1.248.96 2.088 2.4 2.088a4.52 4.52 0 003.528-1.704c.456-.576.624-1.032.624-1.944zm16.68-3.792v8.136c0 .648-.48.96-1.104.96-.648 0-1.104-.312-1.104-.96v-7.68c0-2.04-.816-3.192-2.616-3.192-1.296 0-2.376.576-3.192 1.704-.6.816-.84 1.512-.84 2.448v6.72c0 .648-.456.96-1.08.96-.672 0-1.104-.312-1.104-.96v-11.688c0-.624.456-.936 1.128-.936.624 0 1.056.312 1.056.936v.648c0 .312-.072.552-.096 1.008.84-1.704 2.28-2.784 4.56-2.784 2.856 0 4.392 1.728 4.392 4.68zm8.52 3.12l-1.368-.264c-2.952-.576-4.176-1.608-4.176-3.888 0-2.184 1.872-3.672 4.968-3.672 2.664 0 4.368 1.128 4.968 2.88.024.096.048.192.048.288 0 .456-.408.768-.84.888a2.1 2.1 0 01-.384.048c-.432 0-.864-.192-.984-.648-.312-1.08-1.368-1.632-2.736-1.632-1.944 0-2.856.792-2.856 1.8 0 1.104.456 1.584 2.472 2.016l1.488.312c3.12.648 4.368 1.56 4.368 4.08 0 2.304-1.968 4.008-5.328 4.008-3.072 0-4.872-1.224-5.496-3.36-.024-.12-.048-.216-.048-.312 0-.48.408-.816.864-.912.12-.024.24-.048.336-.048.456 0 .888.192 1.032.648.432 1.392 1.416 2.088 3.312 2.088 1.92 0 3.168-.84 3.168-2.064 0-1.176-.624-1.824-2.808-2.256zm14.616-.816l-1.632 5.832c-.192.72-.792.96-1.464.96-.648 0-1.176-.264-1.392-.96l-3.456-11.4a1.437 1.437 0 01-.048-.288c0-.504.408-.792.864-.888.144-.024.264-.048.408-.048.432 0 .816.168.96.696l1.656 6.096c.408 1.536.744 3.168 1.056 4.944.312-1.776.576-3.408 1.008-4.944l1.56-5.76c.216-.72.816-1.032 1.488-1.032.696 0 1.296.312 1.488 1.032l1.488 5.76c.384 1.44.648 3.024 1.008 4.968a50.85 50.85 0 011.104-4.968l1.752-6.096c.144-.504.528-.696.984-.696.096 0 .216 0 .312.024.456.096.912.408.912.912 0 .072-.024.192-.048.288l-3.648 11.4c-.216.696-.744.96-1.368.96-.696 0-1.296-.264-1.464-.96l-1.512-5.832c-.408-1.584-.696-3.168-1.008-4.968-.312 1.824-.576 3.384-1.008 4.968zm22.392.408h-8.448c.048 2.952 1.512 4.8 4.104 4.8 1.728 0 2.688-.864 3.264-2.136.216-.432.528-.6.864-.6.168 0 .336.048.504.096.408.12.744.408.744.84a.74.74 0 01-.12.432c-.768 1.584-2.16 3.168-5.28 3.168-3.936 0-6.216-2.784-6.216-6.936s2.16-7.056 6.072-7.056c3.504 0 5.472 2.736 5.712 5.88v.192c0 .864-.456 1.32-1.2 1.32zm-8.376-1.752h7.032c.264 0 .36-.096.36-.312v-.12c-.288-1.704-1.32-3.456-3.528-3.456-2.304 0-3.552 1.536-3.864 3.888zm12.528 7.176v-11.688c0-.624.456-.936 1.128-.936.6 0 1.08.312 1.08.936v.528c0 .336-.096.744-.144 1.128.384-1.152 1.608-2.64 3.672-2.712.192-.024.36-.024.528-.024.36 0 .624.048.96.12.552.072.768.408.768.864 0 .12-.024.264-.048.408-.096.504-.432.936-.936.936-.072 0-.144 0-.216-.024-.336-.072-.648-.144-1.152-.144-1.032.024-1.824.552-2.424 1.32-.624.768-.984 1.656-1.008 2.664v6.624c0 .648-.48.96-1.08.96-.672 0-1.128-.312-1.128-.96z"/></g></g></svg>