<?xml version="1.0" encoding="UTF-8"?>
<svg width="558px" height="389px" viewBox="0 0 558 389" version="1.1" xmlns="http://www.w3.org/2000/svg" xmlns:xlink="http://www.w3.org/1999/xlink">
    <!-- Generator: Sketch 48.2 (47327) - http://www.bohemiancoding.com/sketch -->
    <title>cbal-cycle</title>
    <desc>Created with Sketch.</desc>
    <defs>
        <linearGradient x1="50%" y1="0%" x2="50%" y2="100%" id="linearGradient-1">
            <stop stop-color="#E69877" offset="0%"></stop>
            <stop stop-color="#F3C68D" offset="100%"></stop>
        </linearGradient>
    </defs>
    <g id="Page-1" stroke="none" stroke-width="1" fill="none" fill-rule="evenodd">
        <rect id="Background" fill="url(#linearGradient-1)" x="-7" y="-8" width="574" height="404"></rect>
        <g id="Arrows" transform="translate(121.000000, 18.000000)">
            <path d="M25.00787,156.4322 C25.00787,82.79136 84.705593,23.09364 158.34647,23.09364 C193.710056,23.09364 227.62525,37.141766 252.63108,62.147595 C277.636909,87.153424 291.685066,121.068615 291.685066,156.432205 C291.685066,230.073075 231.987343,289.770805 158.346466,289.770805 C84.705596,289.770805 25.007866,230.073082 25.007866,156.432205 L25.00787,156.4322 Z M67.854885,156.4322 C67.854885,206.40931 108.36935,246.92378 158.346465,246.92378 C208.323575,246.92378 248.838015,206.409315 248.838015,156.4322 C248.838015,106.45512 208.32358,65.94065 158.346465,65.94065 C108.369355,65.94065 67.854885,106.455115 67.854885,156.4322 Z" id="Shape" fill="#CB4343"></path>
            <g id="p.1-link" transform="translate(158.000000, 15.000000)" fill="#2F6070">
                <g id="p.1">
                    <path d="M0.7038,0.76863 C65.92621,1.04215905 122.48139,45.9353 137.54755,109.39432 L113.0647,115.206942 C100.682376,63.052522 54.201938,26.156652 0.59827,25.931842 L0.7038,0.76863 Z" id="Shape"></path>
                </g>
            </g>
            <g id="p.1" transform="translate(158.000000, 14.000000)" fill="#2F6070">
                <path d="M0.7038,0.76863 C65.92621,1.04215905 122.48139,45.9353 137.54755,109.39432 L113.0647,115.206942 C100.682376,63.052522 54.201938,26.156652 0.59827,25.931842 L0.7038,0.76863 Z" id="Shape"></path>
            </g>
            <g id="p.2-link" transform="translate(227.000000, 123.000000)" fill="#76C9AC">
                <g id="p.2">
                    <path d="M15.34598,147.59048 C61.30475,113.798274 82.41956,55.67419 68.86597,0.26284 L44.56403,6.2070844 C55.716435,51.8017504 38.3422893,99.6285944 0.52561,127.434164 L15.34598,147.59048 Z" id="Shape"></path>
                </g>
            </g>
            <g id="p.2" transform="translate(227.000000, 122.000000)" fill="#76C9AC">
                <path d="M15.34598,147.59048 C61.30475,113.798274 82.41956,55.67419 68.86597,0.26284 L44.56403,6.2070844 C55.716435,51.8017504 38.3422893,99.6285944 0.52561,127.434164 L15.34598,147.59048 Z" id="Shape"></path>
            </g>
            <polygon id="Shape" fill="#2F6070" points="289.6126 140.47293 255.628347 123.18161 306.903921 106.488678"></polygon>
            <g id="p.3-link" transform="translate(21.000000, 15.000000)" fill="#D2EADC">
                <g id="p.3">
                    <path d="M139.62427,0.37749 C75.24735,-0.8540316 18.14853,41.51308 0.66703,103.48328 L24.772316,110.283268 C39.160988,59.276828 86.157876,24.405308 139.145241,25.418948 L139.62427,0.37749 Z" id="Shape"></path>
                </g>
            </g>
            <g id="p.3" transform="translate(21.000000, 14.000000)" fill="#D2EADC">
                <path d="M139.62427,0.37749 C75.24735,-0.8540316 18.14853,41.51308 0.66703,103.48328 L24.772316,110.283268 C39.160988,59.276828 86.157876,24.405308 139.145241,25.418948 L139.62427,0.37749 Z" id="Shape"></path>
            </g>
            <g id="p.4-link" transform="translate(15.000000, 108.000000)">
                <g id="p.4">
                    <path d="M57.9269,162.74786 C7.442433,125.498623 -12.413936,59.40863 9.181478,0.50341 L33.938619,9.579673 C16.375509,57.486137 32.5242818,111.235803 73.582296,141.529873 L57.9269,162.74786 Z" id="Shape" fill="#76C9AC"></path>
                    <path d="M57.9269,162.74786 C7.442433,125.498623 -12.413936,59.40863 9.181478,0.50341 L33.938619,9.579673 C16.375509,57.486137 32.5242818,111.235803 73.582296,141.529873 L57.9269,162.74786 Z" id="Shape"></path>
                </g>
            </g>
            <g id="p.4" transform="translate(17.000000, 107.000000)">
                <path d="M57.9269,162.74786 C7.442433,125.498623 -12.413936,59.40863 9.181478,0.50341 L33.938619,9.579673 C16.375509,57.486137 32.5242818,111.235803 73.582296,141.529873 L57.9269,162.74786 Z" id="Shape" fill="#76C9AC"></path>
                <path d="M57.9269,162.74786 C7.442433,125.498623 -12.413936,59.40863 9.181478,0.50341 L33.938619,9.579673 C16.375509,57.486137 32.5242818,111.235803 73.582296,141.529873 L57.9269,162.74786 Z" id="Shape"></path>
            </g>
            <g id="p.5-link" transform="translate(70.000000, 248.000000)" fill="#2F6070">
                <g id="p.5">
                    <path d="M0.46597,21.0426 C48.28369,57.970212 114.29577,60.388425 164.68725,27.058469 L150.566004,5.708615 C109.308497,32.997159 55.261744,31.01727 16.111474,0.7831694 L0.46597,21.0426 Z" id="Shape"></path>
                </g>
            </g>
            <g id="p.5" transform="translate(70.000000, 247.000000)" fill="#2F6070">
                <path d="M0.46597,21.0426 C48.28369,57.970212 114.29577,60.388425 164.68725,27.058469 L150.566004,5.708615 C109.308497,32.997159 55.261744,31.01727 16.111474,0.7831694 L0.46597,21.0426 Z" id="Shape"></path>
            </g>
            <polygon id="Shape" fill="#76C9AC" points="44.05728 89.30698 60.781676 123.606205 9.758056 106.031406"></polygon>
            <polygon id="Shape" fill="#76C9AC" points="213.89456 276.06427 219.154417 238.332 251.62686 281.324126"></polygon>
            <polygon id="Shape" fill="#2F6070" points="59.65088 244.00287 97.288667 238.018617 65.635133 281.640657"></polygon>
            <polygon id="Shape" fill="#D2EADC" points="184.9659 27.63289 158.005268 54.593522 158.005268 0.672257"></polygon>
        </g>
        <g id="en" transform="translate(22.000000, 22.000000)" fill="#2F6070">
            <path d="M59.432,18.6 L59.432,5.064 C59.432,3.216 60.176,2.472 61.88,2.472 L66.152,2.472 C71.456,2.472 74.576,5.832 74.576,11.616 C74.576,17.592 71.408,21.168 66.152,21.168 L61.88,21.168 C60.176,21.168 59.432,20.424 59.432,18.6 Z M61.712,5.328 L61.712,18.264 C61.712,18.816 62,19.08 62.48,19.08 L66.032,19.08 C69.92,19.08 72.2,16.32 72.2,11.64 C72.2,7.056 70.064,4.536 66.104,4.536 L62.504,4.536 C62.048,4.536 61.712,4.824 61.712,5.328 Z M77.576,20.352 L77.576,8.664 C77.576,8.04 77.984,7.728 78.656,7.728 C79.304,7.728 79.76,8.04 79.76,8.664 L79.76,20.352 C79.76,21 79.304,21.312 78.656,21.312 C77.984,21.312 77.576,21 77.576,20.352 Z M78.68,2.304 C79.568,2.304 80.288,3 80.288,3.912 C80.288,4.848 79.568,5.544 78.68,5.544 C77.768,5.544 77.048,4.848 77.048,3.912 C77.048,3 77.768,2.304 78.68,2.304 Z M88.352,15.336 L86.984,15.072 C84.032,14.496 82.808,13.464 82.808,11.184 C82.808,9 84.68,7.512 87.776,7.512 C90.44,7.512 92.144,8.64 92.744,10.392 C92.768,10.488 92.792,10.584 92.792,10.68 C92.792,11.136 92.384,11.448 91.952,11.568 C91.832,11.592 91.688,11.616 91.568,11.616 C91.136,11.616 90.704,11.424 90.584,10.968 C90.272,9.888 89.216,9.336 87.848,9.336 C85.904,9.336 84.992,10.128 84.992,11.136 C84.992,12.24 85.448,12.72 87.464,13.152 L88.952,13.464 C92.072,14.112 93.32,15.024 93.32,17.544 C93.32,19.848 91.352,21.552 87.992,21.552 C84.92,21.552 83.12,20.328 82.496,18.192 C82.472,18.072 82.448,17.976 82.448,17.88 C82.448,17.4 82.856,17.064 83.312,16.968 C83.432,16.944 83.552,16.92 83.648,16.92 C84.104,16.92 84.536,17.112 84.68,17.568 C85.112,18.96 86.096,19.656 87.992,19.656 C89.912,19.656 91.16,18.816 91.16,17.592 C91.16,16.416 90.536,15.768 88.352,15.336 Z M95.408,14.568 C95.408,10.464 97.52,7.512 101.456,7.512 C104.624,7.512 105.92,9.264 106.52,10.776 C106.568,10.896 106.592,11.04 106.592,11.136 C106.592,11.592 106.232,11.88 105.872,12.024 C105.704,12.072 105.512,12.096 105.344,12.096 C104.984,12.096 104.672,11.952 104.504,11.544 C104.048,10.32 103.328,9.384 101.504,9.384 C99.008,9.384 97.64,11.496 97.64,14.544 C97.64,17.688 98.984,19.68 101.528,19.68 C103.4,19.68 104.144,18.768 104.6,17.472 C104.768,17.016 105.104,16.824 105.488,16.824 C105.656,16.824 105.824,16.848 105.992,16.92 C106.424,17.016 106.76,17.304 106.76,17.736 C106.76,17.88 106.736,18 106.664,18.168 C106.016,19.824 104.744,21.552 101.48,21.552 C97.592,21.552 95.408,18.696 95.408,14.568 Z M109.256,16.824 L109.256,8.688 C109.256,8.04 109.712,7.728 110.36,7.728 C111.008,7.728 111.464,8.04 111.464,8.688 L111.464,16.368 C111.464,18.432 112.304,19.584 114.08,19.584 C115.352,19.584 116.384,18.984 117.2,17.856 C117.776,17.04 118.016,16.296 118.016,15.36 L118.016,8.688 C118.016,8.04 118.472,7.728 119.12,7.728 C119.744,7.728 120.2,8.04 120.2,8.688 L120.2,20.352 C120.2,21 119.768,21.312 119.144,21.312 C118.496,21.312 118.04,21.024 118.04,20.424 L118.04,19.752 C118.04,19.488 118.112,19.008 118.184,18.624 C117.44,20.304 116.048,21.528 113.648,21.528 C110.816,21.528 109.256,19.752 109.256,16.824 Z M128.816,15.336 L127.448,15.072 C124.496,14.496 123.272,13.464 123.272,11.184 C123.272,9 125.144,7.512 128.24,7.512 C130.904,7.512 132.608,8.64 133.208,10.392 C133.232,10.488 133.256,10.584 133.256,10.68 C133.256,11.136 132.848,11.448 132.416,11.568 C132.296,11.592 132.152,11.616 132.032,11.616 C131.6,11.616 131.168,11.424 131.048,10.968 C130.736,9.888 129.68,9.336 128.312,9.336 C126.368,9.336 125.456,10.128 125.456,11.136 C125.456,12.24 125.912,12.72 127.928,13.152 L129.416,13.464 C132.536,14.112 133.784,15.024 133.784,17.544 C133.784,19.848 131.816,21.552 128.456,21.552 C125.384,21.552 123.584,20.328 122.96,18.192 C122.936,18.072 122.912,17.976 122.912,17.88 C122.912,17.4 123.32,17.064 123.776,16.968 C123.896,16.944 124.016,16.92 124.112,16.92 C124.568,16.92 125,17.112 125.144,17.568 C125.576,18.96 126.56,19.656 128.456,19.656 C130.376,19.656 131.624,18.816 131.624,17.592 C131.624,16.416 131,15.768 128.816,15.336 Z M141.656,15.336 L140.288,15.072 C137.336,14.496 136.112,13.464 136.112,11.184 C136.112,9 137.984,7.512 141.08,7.512 C143.744,7.512 145.448,8.64 146.048,10.392 C146.072,10.488 146.096,10.584 146.096,10.68 C146.096,11.136 145.688,11.448 145.256,11.568 C145.136,11.592 144.992,11.616 144.872,11.616 C144.44,11.616 144.008,11.424 143.888,10.968 C143.576,9.888 142.52,9.336 141.152,9.336 C139.208,9.336 138.296,10.128 138.296,11.136 C138.296,12.24 138.752,12.72 140.768,13.152 L142.256,13.464 C145.376,14.112 146.624,15.024 146.624,17.544 C146.624,19.848 144.656,21.552 141.296,21.552 C138.224,21.552 136.424,20.328 135.8,18.192 C135.776,18.072 135.752,17.976 135.752,17.88 C135.752,17.4 136.16,17.064 136.616,16.968 C136.736,16.944 136.856,16.92 136.952,16.92 C137.408,16.92 137.84,17.112 137.984,17.568 C138.416,18.96 139.4,19.656 141.296,19.656 C143.216,19.656 144.464,18.816 144.464,17.592 C144.464,16.416 143.84,15.768 141.656,15.336 Z M61.04,44.352 L61.04,32.664 C61.04,32.04 61.448,31.728 62.12,31.728 C62.768,31.728 63.224,32.04 63.224,32.664 L63.224,44.352 C63.224,45 62.768,45.312 62.12,45.312 C61.448,45.312 61.04,45 61.04,44.352 Z M62.144,26.304 C63.032,26.304 63.752,27 63.752,27.912 C63.752,28.848 63.032,29.544 62.144,29.544 C61.232,29.544 60.512,28.848 60.512,27.912 C60.512,27 61.232,26.304 62.144,26.304 Z M77.696,36.216 L77.696,44.352 C77.696,45 77.216,45.312 76.592,45.312 C75.944,45.312 75.488,45 75.488,44.352 L75.488,36.672 C75.488,34.632 74.672,33.48 72.872,33.48 C71.576,33.48 70.496,34.056 69.68,35.184 C69.08,36 68.84,36.696 68.84,37.632 L68.84,44.352 C68.84,45 68.384,45.312 67.76,45.312 C67.088,45.312 66.656,45 66.656,44.352 L66.656,32.664 C66.656,32.04 67.112,31.728 67.784,31.728 C68.408,31.728 68.84,32.04 68.84,32.664 L68.84,33.312 C68.84,33.624 68.768,33.864 68.744,34.32 C69.584,32.616 71.024,31.536 73.304,31.536 C76.16,31.536 77.696,33.264 77.696,36.216 Z M88.424,38.568 C88.424,34.464 90.536,31.512 94.472,31.512 C97.64,31.512 98.936,33.264 99.536,34.776 C99.584,34.896 99.608,35.04 99.608,35.136 C99.608,35.592 99.248,35.88 98.888,36.024 C98.72,36.072 98.528,36.096 98.36,36.096 C98,36.096 97.688,35.952 97.52,35.544 C97.064,34.32 96.344,33.384 94.52,33.384 C92.024,33.384 90.656,35.496 90.656,38.544 C90.656,41.688 92,43.68 94.544,43.68 C96.416,43.68 97.16,42.768 97.616,41.472 C97.784,41.016 98.12,40.824 98.504,40.824 C98.672,40.824 98.84,40.848 99.008,40.92 C99.44,41.016 99.776,41.304 99.776,41.736 C99.776,41.88 99.752,42 99.68,42.168 C99.032,43.824 97.76,45.552 94.496,45.552 C90.608,45.552 88.424,42.696 88.424,38.568 Z M102.32,44.352 L102.32,27.288 C102.32,26.64 102.752,26.328 103.424,26.328 C104.072,26.328 104.504,26.64 104.504,27.288 L104.504,44.352 C104.504,45 104.072,45.312 103.424,45.312 C102.752,45.312 102.32,45 102.32,44.352 Z M116.048,36.672 L116.048,35.64 C116.048,34.056 115.184,33.36 113.288,33.36 C111.536,33.36 110.672,34.032 110.264,35.136 C110.096,35.592 109.736,35.76 109.328,35.76 C109.136,35.76 108.944,35.736 108.776,35.664 C108.32,35.52 107.984,35.184 107.984,34.752 C107.984,34.656 108.008,34.56 108.032,34.464 C108.272,33.72 108.896,33.024 109.448,32.592 C110.288,31.944 111.368,31.536 113.312,31.536 C116.528,31.536 118.112,32.808 118.112,35.64 L118.112,42.192 C118.112,43.032 118.232,43.848 118.376,44.304 C118.4,44.376 118.424,44.472 118.424,44.544 C118.424,44.928 118.064,45.264 117.464,45.312 L117.248,45.312 C116.768,45.312 116.336,45.168 116.24,44.736 C116.168,44.448 116.12,44.016 116.096,43.536 C115.184,44.568 113.912,45.504 111.536,45.504 C108.896,45.504 107.288,44.016 107.288,41.544 C107.288,39.288 108.632,37.848 110.912,37.224 C112.232,36.864 113.48,36.72 116.048,36.672 Z M116.048,40.008 L116.048,38.4 C113.24,38.472 111.92,38.712 110.96,39.192 C110,39.672 109.496,40.416 109.496,41.568 C109.496,42.816 110.456,43.656 111.896,43.656 C113.408,43.656 114.656,42.912 115.424,41.952 C115.88,41.376 116.048,40.92 116.048,40.008 Z M126.848,39.336 L125.48,39.072 C122.528,38.496 121.304,37.464 121.304,35.184 C121.304,33 123.176,31.512 126.272,31.512 C128.936,31.512 130.64,32.64 131.24,34.392 C131.264,34.488 131.288,34.584 131.288,34.68 C131.288,35.136 130.88,35.448 130.448,35.568 C130.328,35.592 130.184,35.616 130.064,35.616 C129.632,35.616 129.2,35.424 129.08,34.968 C128.768,33.888 127.712,33.336 126.344,33.336 C124.4,33.336 123.488,34.128 123.488,35.136 C123.488,36.24 123.944,36.72 125.96,37.152 L127.448,37.464 C130.568,38.112 131.816,39.024 131.816,41.544 C131.816,43.848 129.848,45.552 126.488,45.552 C123.416,45.552 121.616,44.328 120.992,42.192 C120.968,42.072 120.944,41.976 120.944,41.88 C120.944,41.4 121.352,41.064 121.808,40.968 C121.928,40.944 122.048,40.92 122.144,40.92 C122.6,40.92 123.032,41.112 123.176,41.568 C123.608,42.96 124.592,43.656 126.488,43.656 C128.408,43.656 129.656,42.816 129.656,41.592 C129.656,40.416 129.032,39.768 126.848,39.336 Z M139.688,39.336 L138.32,39.072 C135.368,38.496 134.144,37.464 134.144,35.184 C134.144,33 136.016,31.512 139.112,31.512 C141.776,31.512 143.48,32.64 144.08,34.392 C144.104,34.488 144.128,34.584 144.128,34.68 C144.128,35.136 143.72,35.448 143.288,35.568 C143.168,35.592 143.024,35.616 142.904,35.616 C142.472,35.616 142.04,35.424 141.92,34.968 C141.608,33.888 140.552,33.336 139.184,33.336 C137.24,33.336 136.328,34.128 136.328,35.136 C136.328,36.24 136.784,36.72 138.8,37.152 L140.288,37.464 C143.408,38.112 144.656,39.024 144.656,41.544 C144.656,43.848 142.688,45.552 139.328,45.552 C136.256,45.552 134.456,44.328 133.832,42.192 C133.808,42.072 133.784,41.976 133.784,41.88 C133.784,41.4 134.192,41.064 134.648,40.968 C134.768,40.944 134.888,40.92 134.984,40.92 C135.44,40.92 135.872,41.112 136.016,41.568 C136.448,42.96 137.432,43.656 139.328,43.656 C141.248,43.656 142.496,42.816 142.496,41.592 C142.496,40.416 141.872,39.768 139.688,39.336 Z" id="Discuss-in-class-Copy"></path>
            <path d="M376.096,18.48 L376.696,19.896 C376.744,20.04 376.768,20.16 376.768,20.304 C376.768,20.76 376.456,21.12 375.976,21.24 C375.808,21.288 375.616,21.312 375.448,21.312 C375.04,21.312 374.68,21.12 374.512,20.688 L373.912,19.152 C372.184,14.472 371.512,12.768 369.112,12.768 L364.696,12.768 L364.696,20.304 C364.696,20.976 364.24,21.312 363.592,21.312 C362.92,21.312 362.44,20.976 362.44,20.28 L362.44,5.064 C362.44,3.216 363.184,2.472 364.888,2.472 L370.504,2.472 C373.984,2.472 375.904,4.32 375.904,7.272 C375.904,10.032 374.344,11.472 372.112,11.952 C373.552,12.384 374.32,13.992 376.096,18.48 Z M364.696,10.8 L370.216,10.8 C372.256,10.8 373.6,9.528 373.6,7.608 C373.6,5.568 372.496,4.464 370.36,4.464 L365.488,4.464 C364.984,4.464 364.696,4.728 364.696,5.304 L364.696,10.8 Z M389.32,14.928 L380.872,14.928 C380.92,17.88 382.384,19.728 384.976,19.728 C386.704,19.728 387.664,18.864 388.24,17.592 C388.456,17.16 388.768,16.992 389.104,16.992 C389.272,16.992 389.44,17.04 389.608,17.088 C390.016,17.208 390.352,17.496 390.352,17.928 C390.352,18.072 390.328,18.216 390.232,18.36 C389.464,19.944 388.072,21.528 384.952,21.528 C381.016,21.528 378.736,18.744 378.736,14.592 C378.736,10.44 380.896,7.536 384.808,7.536 C388.312,7.536 390.28,10.272 390.52,13.416 L390.52,13.608 C390.52,14.472 390.064,14.928 389.32,14.928 Z M380.944,13.176 L387.976,13.176 C388.24,13.176 388.336,13.08 388.336,12.864 L388.336,12.744 C388.048,11.04 387.016,9.288 384.808,9.288 C382.504,9.288 381.256,10.824 380.944,13.176 Z M401.248,12.672 L401.248,11.64 C401.248,10.056 400.384,9.36 398.488,9.36 C396.736,9.36 395.872,10.032 395.464,11.136 C395.296,11.592 394.936,11.76 394.528,11.76 C394.336,11.76 394.144,11.736 393.976,11.664 C393.52,11.52 393.184,11.184 393.184,10.752 C393.184,10.656 393.208,10.56 393.232,10.464 C393.472,9.72 394.096,9.024 394.648,8.592 C395.488,7.944 396.568,7.536 398.512,7.536 C401.728,7.536 403.312,8.808 403.312,11.64 L403.312,18.192 C403.312,19.032 403.432,19.848 403.576,20.304 C403.6,20.376 403.624,20.472 403.624,20.544 C403.624,20.928 403.264,21.264 402.664,21.312 L402.448,21.312 C401.968,21.312 401.536,21.168 401.44,20.736 C401.368,20.448 401.32,20.016 401.296,19.536 C400.384,20.568 399.112,21.504 396.736,21.504 C394.096,21.504 392.488,20.016 392.488,17.544 C392.488,15.288 393.832,13.848 396.112,13.224 C397.432,12.864 398.68,12.72 401.248,12.672 Z M401.248,16.008 L401.248,14.4 C398.44,14.472 397.12,14.712 396.16,15.192 C395.2,15.672 394.696,16.416 394.696,17.568 C394.696,18.816 395.656,19.656 397.096,19.656 C398.608,19.656 399.856,18.912 400.624,17.952 C401.08,17.376 401.248,16.92 401.248,16.008 Z M416.32,8.52 L416.32,3.288 C416.32,2.64 416.776,2.328 417.376,2.328 C418.048,2.328 418.456,2.64 418.456,3.288 L418.456,20.352 C418.456,21 418.024,21.312 417.352,21.312 C416.656,21.312 416.32,20.928 416.32,20.424 L416.32,19.92 C416.32,19.656 416.368,19.152 416.392,18.816 C415.576,20.496 414.208,21.528 411.976,21.528 C408.472,21.528 406.264,18.768 406.264,14.448 C406.264,10.248 408.448,7.536 412,7.536 C414.232,7.536 415.576,8.592 416.416,10.296 C416.368,9.744 416.32,9.048 416.32,8.52 Z M412.288,9.408 C409.864,9.408 408.472,11.424 408.472,14.472 C408.472,17.616 409.864,19.656 412.288,19.656 C414.808,19.656 416.368,17.472 416.368,14.496 C416.368,11.568 414.928,9.408 412.288,9.408 Z M440.92,12.216 L440.92,20.352 C440.92,21 440.44,21.312 439.816,21.312 C439.168,21.312 438.712,21 438.712,20.352 L438.712,12.672 C438.712,10.632 437.896,9.48 436.096,9.48 C434.8,9.48 433.72,10.056 432.904,11.184 C432.304,12 432.064,12.696 432.064,13.632 L432.064,20.352 C432.064,21 431.608,21.312 430.984,21.312 C430.312,21.312 429.88,21 429.88,20.352 L429.88,8.664 C429.88,8.04 430.336,7.728 431.008,7.728 C431.632,7.728 432.064,8.04 432.064,8.664 L432.064,9.312 C432.064,9.624 431.992,9.864 431.968,10.32 C432.808,8.616 434.248,7.536 436.528,7.536 C439.384,7.536 440.92,9.264 440.92,12.216 Z M454.24,14.928 L445.792,14.928 C445.84,17.88 447.304,19.728 449.896,19.728 C451.624,19.728 452.584,18.864 453.16,17.592 C453.376,17.16 453.688,16.992 454.024,16.992 C454.192,16.992 454.36,17.04 454.528,17.088 C454.936,17.208 455.272,17.496 455.272,17.928 C455.272,18.072 455.248,18.216 455.152,18.36 C454.384,19.944 452.992,21.528 449.872,21.528 C445.936,21.528 443.656,18.744 443.656,14.592 C443.656,10.44 445.816,7.536 449.728,7.536 C453.232,7.536 455.2,10.272 455.44,13.416 L455.44,13.608 C455.44,14.472 454.984,14.928 454.24,14.928 Z M445.864,13.176 L452.896,13.176 C453.16,13.176 453.256,13.08 453.256,12.864 L453.256,12.744 C452.968,11.04 451.936,9.288 449.728,9.288 C447.424,9.288 446.176,10.824 445.864,13.176 Z M461.344,14.304 L457.528,9.384 C457.384,9.192 457.312,9 457.312,8.808 C457.312,8.472 457.504,8.136 457.816,7.944 C458.032,7.8 458.272,7.728 458.488,7.728 C458.776,7.728 459.064,7.848 459.28,8.136 L462.664,12.792 L465.928,8.112 C466.144,7.824 466.432,7.704 466.72,7.704 C466.96,7.704 467.176,7.776 467.392,7.92 C467.68,8.112 467.896,8.448 467.896,8.808 C467.896,9 467.824,9.192 467.68,9.384 L464.008,14.304 L467.944,19.608 C468.088,19.8 468.16,20.016 468.16,20.232 C468.16,20.568 467.992,20.88 467.704,21.072 C467.488,21.216 467.248,21.312 467.008,21.312 C466.72,21.312 466.432,21.192 466.24,20.904 L462.664,15.84 L459.064,20.904 C458.848,21.192 458.56,21.312 458.296,21.312 C458.032,21.312 457.768,21.216 457.552,21.072 C457.312,20.856 457.12,20.568 457.12,20.256 C457.12,20.064 457.192,19.872 457.336,19.68 L461.344,14.304 Z M472.072,7.872 L472.072,4.968 C472.072,4.344 472.48,4.008 473.152,4.008 C473.776,4.008 474.232,4.344 474.232,4.968 L474.232,7.872 L477.304,7.872 C477.904,7.872 478.192,8.256 478.192,8.832 C478.192,9.384 477.88,9.768 477.304,9.768 L474.232,9.768 L474.232,17.808 C474.232,18.984 474.736,19.488 475.624,19.488 C476.224,19.488 476.632,19.32 477.04,19.08 C477.184,19.008 477.328,18.96 477.472,18.96 C477.832,18.96 478.12,19.224 478.264,19.584 C478.336,19.752 478.36,19.944 478.36,20.112 C478.36,20.448 478.216,20.784 477.856,20.976 C477.16,21.312 476.512,21.504 475.48,21.504 C473.512,21.504 472.072,20.52 472.072,18 L472.072,9.768 L470.2,9.768 C469.624,9.768 469.36,9.384 469.36,8.832 C469.36,8.28 469.624,7.872 470.224,7.872 L472.072,7.872 Z M365.86,38.568 C365.86,34.464 367.972,31.512 371.908,31.512 C375.076,31.512 376.372,33.264 376.972,34.776 C377.02,34.896 377.044,35.04 377.044,35.136 C377.044,35.592 376.684,35.88 376.324,36.024 C376.156,36.072 375.964,36.096 375.796,36.096 C375.436,36.096 375.124,35.952 374.956,35.544 C374.5,34.32 373.78,33.384 371.956,33.384 C369.46,33.384 368.092,35.496 368.092,38.544 C368.092,41.688 369.436,43.68 371.98,43.68 C373.852,43.68 374.596,42.768 375.052,41.472 C375.22,41.016 375.556,40.824 375.94,40.824 C376.108,40.824 376.276,40.848 376.444,40.92 C376.876,41.016 377.212,41.304 377.212,41.736 C377.212,41.88 377.188,42 377.116,42.168 C376.468,43.824 375.196,45.552 371.932,45.552 C368.044,45.552 365.86,42.696 365.86,38.568 Z M390.844,36.216 L390.844,44.352 C390.844,45 390.364,45.312 389.74,45.312 C389.092,45.312 388.66,45 388.66,44.352 L388.66,36.672 C388.66,34.632 387.82,33.504 386.02,33.504 C384.676,33.504 383.62,34.128 382.828,35.184 C382.228,36 381.964,36.696 381.964,37.632 L381.964,44.352 C381.964,45 381.556,45.312 380.932,45.312 C380.26,45.312 379.804,45 379.804,44.352 L379.804,27.264 C379.804,26.64 380.26,26.328 380.932,26.328 C381.556,26.328 381.964,26.616 381.964,27.264 L381.964,33.288 C381.964,33.6 381.868,34.152 381.82,34.512 C382.612,32.808 383.932,31.536 386.452,31.536 C389.308,31.536 390.844,33.264 390.844,36.216 Z M402.316,36.672 L402.316,35.64 C402.316,34.056 401.452,33.36 399.556,33.36 C397.804,33.36 396.94,34.032 396.532,35.136 C396.364,35.592 396.004,35.76 395.596,35.76 C395.404,35.76 395.212,35.736 395.044,35.664 C394.588,35.52 394.252,35.184 394.252,34.752 C394.252,34.656 394.276,34.56 394.3,34.464 C394.54,33.72 395.164,33.024 395.716,32.592 C396.556,31.944 397.636,31.536 399.58,31.536 C402.796,31.536 404.38,32.808 404.38,35.64 L404.38,42.192 C404.38,43.032 404.5,43.848 404.644,44.304 C404.668,44.376 404.692,44.472 404.692,44.544 C404.692,44.928 404.332,45.264 403.732,45.312 L403.516,45.312 C403.036,45.312 402.604,45.168 402.508,44.736 C402.436,44.448 402.388,44.016 402.364,43.536 C401.452,44.568 400.18,45.504 397.804,45.504 C395.164,45.504 393.556,44.016 393.556,41.544 C393.556,39.288 394.9,37.848 397.18,37.224 C398.5,36.864 399.748,36.72 402.316,36.672 Z M402.316,40.008 L402.316,38.4 C399.508,38.472 398.188,38.712 397.228,39.192 C396.268,39.672 395.764,40.416 395.764,41.568 C395.764,42.816 396.724,43.656 398.164,43.656 C399.676,43.656 400.924,42.912 401.692,41.952 C402.148,41.376 402.316,40.92 402.316,40.008 Z M407.932,44.352 L407.932,27.288 C407.932,26.64 408.364,26.328 409.036,26.328 C409.684,26.328 410.116,26.64 410.116,27.288 L410.116,44.352 C410.116,45 409.684,45.312 409.036,45.312 C408.364,45.312 407.932,45 407.932,44.352 Z M413.524,44.352 L413.524,27.288 C413.524,26.64 413.956,26.328 414.628,26.328 C415.276,26.328 415.708,26.64 415.708,27.288 L415.708,44.352 C415.708,45 415.276,45.312 414.628,45.312 C413.956,45.312 413.524,45 413.524,44.352 Z M429.1,38.928 L420.652,38.928 C420.7,41.88 422.164,43.728 424.756,43.728 C426.484,43.728 427.444,42.864 428.02,41.592 C428.236,41.16 428.548,40.992 428.884,40.992 C429.052,40.992 429.22,41.04 429.388,41.088 C429.796,41.208 430.132,41.496 430.132,41.928 C430.132,42.072 430.108,42.216 430.012,42.36 C429.244,43.944 427.852,45.528 424.732,45.528 C420.796,45.528 418.516,42.744 418.516,38.592 C418.516,34.44 420.676,31.536 424.588,31.536 C428.092,31.536 430.06,34.272 430.3,37.416 L430.3,37.608 C430.3,38.472 429.844,38.928 429.1,38.928 Z M420.724,37.176 L427.756,37.176 C428.02,37.176 428.116,37.08 428.116,36.864 L428.116,36.744 C427.828,35.04 426.796,33.288 424.588,33.288 C422.284,33.288 421.036,34.824 420.724,37.176 Z M443.956,36.216 L443.956,44.352 C443.956,45 443.476,45.312 442.852,45.312 C442.204,45.312 441.748,45 441.748,44.352 L441.748,36.672 C441.748,34.632 440.932,33.48 439.132,33.48 C437.836,33.48 436.756,34.056 435.94,35.184 C435.34,36 435.1,36.696 435.1,37.632 L435.1,44.352 C435.1,45 434.644,45.312 434.02,45.312 C433.348,45.312 432.916,45 432.916,44.352 L432.916,32.664 C432.916,32.04 433.372,31.728 434.044,31.728 C434.668,31.728 435.1,32.04 435.1,32.664 L435.1,33.312 C435.1,33.624 435.028,33.864 435.004,34.32 C435.844,32.616 437.284,31.536 439.564,31.536 C442.42,31.536 443.956,33.264 443.956,36.216 Z M456.652,33.312 L456.652,32.592 C456.652,32.088 456.988,31.728 457.684,31.728 C458.332,31.728 458.716,32.04 458.716,32.688 L458.716,43.8 C458.716,49.32 455.812,50.568 452.644,50.568 C450.052,50.568 448.396,49.704 447.484,48.528 C447.364,48.36 447.292,48.192 447.292,48 C447.292,47.688 447.46,47.376 447.748,47.16 C447.94,47.016 448.204,46.92 448.444,46.92 C448.708,46.92 448.948,47.016 449.14,47.232 C450.028,48.264 451.084,48.768 452.548,48.768 C455.548,48.768 456.628,47.256 456.652,43.704 C456.652,43.416 456.7,42.888 456.748,42.552 C455.956,44.064 454.588,45.12 452.476,45.12 C449.068,45.12 446.692,42.48 446.692,38.472 C446.692,34.344 448.828,31.56 452.524,31.56 C454.708,31.56 456.076,32.76 456.748,34.296 C456.724,34.032 456.652,33.576 456.652,33.312 Z M452.788,33.384 C450.34,33.384 448.9,35.376 448.9,38.472 C448.9,41.52 450.532,43.368 452.764,43.368 C455.212,43.368 456.7,41.28 456.7,38.304 C456.7,35.448 455.236,33.384 452.788,33.384 Z M472.108,38.928 L463.66,38.928 C463.708,41.88 465.172,43.728 467.764,43.728 C469.492,43.728 470.452,42.864 471.028,41.592 C471.244,41.16 471.556,40.992 471.892,40.992 C472.06,40.992 472.228,41.04 472.396,41.088 C472.804,41.208 473.14,41.496 473.14,41.928 C473.14,42.072 473.116,42.216 473.02,42.36 C472.252,43.944 470.86,45.528 467.74,45.528 C463.804,45.528 461.524,42.744 461.524,38.592 C461.524,34.44 463.684,31.536 467.596,31.536 C471.1,31.536 473.068,34.272 473.308,37.416 L473.308,37.608 C473.308,38.472 472.852,38.928 472.108,38.928 Z M463.732,37.176 L470.764,37.176 C471.028,37.176 471.124,37.08 471.124,36.864 L471.124,36.744 C470.836,35.04 469.804,33.288 467.596,33.288 C465.292,33.288 464.044,34.824 463.732,37.176 Z" id="Read-next-challenge-Copy"></path>
            <path d="M426.252,190.48 L426.852,191.896 C426.9,192.04 426.924,192.16 426.924,192.304 C426.924,192.76 426.612,193.12 426.132,193.24 C425.964,193.288 425.772,193.312 425.604,193.312 C425.196,193.312 424.836,193.12 424.668,192.688 L424.068,191.152 C422.34,186.472 421.668,184.768 419.268,184.768 L414.852,184.768 L414.852,192.304 C414.852,192.976 414.396,193.312 413.748,193.312 C413.076,193.312 412.596,192.976 412.596,192.28 L412.596,177.064 C412.596,175.216 413.34,174.472 415.044,174.472 L420.66,174.472 C424.14,174.472 426.06,176.32 426.06,179.272 C426.06,182.032 424.5,183.472 422.268,183.952 C423.708,184.384 424.476,185.992 426.252,190.48 Z M414.852,182.8 L420.372,182.8 C422.412,182.8 423.756,181.528 423.756,179.608 C423.756,177.568 422.652,176.464 420.516,176.464 L415.644,176.464 C415.14,176.464 414.852,176.728 414.852,177.304 L414.852,182.8 Z M439.476,186.928 L431.028,186.928 C431.076,189.88 432.54,191.728 435.132,191.728 C436.86,191.728 437.82,190.864 438.396,189.592 C438.612,189.16 438.924,188.992 439.26,188.992 C439.428,188.992 439.596,189.04 439.764,189.088 C440.172,189.208 440.508,189.496 440.508,189.928 C440.508,190.072 440.484,190.216 440.388,190.36 C439.62,191.944 438.228,193.528 435.108,193.528 C431.172,193.528 428.892,190.744 428.892,186.592 C428.892,182.44 431.052,179.536 434.964,179.536 C438.468,179.536 440.436,182.272 440.676,185.416 L440.676,185.608 C440.676,186.472 440.22,186.928 439.476,186.928 Z M431.1,185.176 L438.132,185.176 C438.396,185.176 438.492,185.08 438.492,184.864 L438.492,184.744 C438.204,183.04 437.172,181.288 434.964,181.288 C432.66,181.288 431.412,182.824 431.1,185.176 Z M444.9,179.872 L444.9,178.144 C444.9,175.048 446.796,174.208 448.62,174.208 C449.412,174.208 450.012,174.256 450.684,174.472 C451.14,174.616 451.332,174.976 451.332,175.336 C451.332,175.504 451.308,175.648 451.236,175.792 C451.092,176.2 450.756,176.512 450.324,176.512 C450.204,176.512 450.084,176.488 449.94,176.44 C449.532,176.272 449.124,176.2 448.62,176.2 C447.732,176.2 447.06,176.68 447.06,178.408 L447.06,179.872 L449.94,179.872 C450.54,179.872 450.828,180.28 450.828,180.856 C450.828,181.408 450.516,181.768 449.94,181.768 L447.06,181.768 L447.06,192.352 C447.06,193 446.604,193.312 445.98,193.312 C445.332,193.312 444.9,193 444.9,192.352 L444.9,181.768 L442.86,181.768 C442.284,181.768 441.996,181.408 441.996,180.856 C441.996,180.304 442.26,179.872 442.86,179.872 L444.9,179.872 Z M462.852,186.928 L454.404,186.928 C454.452,189.88 455.916,191.728 458.508,191.728 C460.236,191.728 461.196,190.864 461.772,189.592 C461.988,189.16 462.3,188.992 462.636,188.992 C462.804,188.992 462.972,189.04 463.14,189.088 C463.548,189.208 463.884,189.496 463.884,189.928 C463.884,190.072 463.86,190.216 463.764,190.36 C462.996,191.944 461.604,193.528 458.484,193.528 C454.548,193.528 452.268,190.744 452.268,186.592 C452.268,182.44 454.428,179.536 458.34,179.536 C461.844,179.536 463.812,182.272 464.052,185.416 L464.052,185.608 C464.052,186.472 463.596,186.928 462.852,186.928 Z M454.476,185.176 L461.508,185.176 C461.772,185.176 461.868,185.08 461.868,184.864 L461.868,184.744 C461.58,183.04 460.548,181.288 458.34,181.288 C456.036,181.288 454.788,182.824 454.476,185.176 Z M467.004,192.352 L467.004,180.664 C467.004,180.04 467.46,179.728 468.132,179.728 C468.732,179.728 469.212,180.04 469.212,180.664 L469.212,181.192 C469.212,181.528 469.116,181.936 469.068,182.32 C469.452,181.168 470.676,179.68 472.74,179.608 C472.932,179.584 473.1,179.584 473.268,179.584 C473.628,179.584 473.892,179.632 474.228,179.704 C474.78,179.776 474.996,180.112 474.996,180.568 C474.996,180.688 474.972,180.832 474.948,180.976 C474.852,181.48 474.516,181.912 474.012,181.912 C473.94,181.912 473.868,181.912 473.796,181.888 C473.46,181.816 473.148,181.744 472.644,181.744 C471.612,181.768 470.82,182.296 470.22,183.064 C469.596,183.832 469.236,184.72 469.212,185.728 L469.212,192.352 C469.212,193 468.732,193.312 468.132,193.312 C467.46,193.312 467.004,193 467.004,192.352 Z M486.444,179.872 L486.444,176.968 C486.444,176.344 486.852,176.008 487.524,176.008 C488.148,176.008 488.604,176.344 488.604,176.968 L488.604,179.872 L491.676,179.872 C492.276,179.872 492.564,180.256 492.564,180.832 C492.564,181.384 492.252,181.768 491.676,181.768 L488.604,181.768 L488.604,189.808 C488.604,190.984 489.108,191.488 489.996,191.488 C490.596,191.488 491.004,191.32 491.412,191.08 C491.556,191.008 491.7,190.96 491.844,190.96 C492.204,190.96 492.492,191.224 492.636,191.584 C492.708,191.752 492.732,191.944 492.732,192.112 C492.732,192.448 492.588,192.784 492.228,192.976 C491.532,193.312 490.884,193.504 489.852,193.504 C487.884,193.504 486.444,192.52 486.444,190 L486.444,181.768 L484.572,181.768 C483.996,181.768 483.732,181.384 483.732,180.832 C483.732,180.28 483.996,179.872 484.596,179.872 L486.444,179.872 Z M500.292,179.536 C504.132,179.536 506.388,182.32 506.388,186.496 C506.388,190.672 504.084,193.552 500.34,193.552 C496.38,193.552 494.076,190.768 494.076,186.496 C494.076,182.344 496.404,179.536 500.292,179.536 Z M500.364,181.384 C497.772,181.384 496.284,183.376 496.284,186.568 C496.284,189.616 497.724,191.704 500.196,191.704 C502.812,191.704 504.18,189.664 504.18,186.472 C504.18,183.448 502.812,181.384 500.364,181.384 Z M404.916,211.336 L403.548,211.072 C400.596,210.496 399.372,209.464 399.372,207.184 C399.372,205 401.244,203.512 404.34,203.512 C407.004,203.512 408.708,204.64 409.308,206.392 C409.332,206.488 409.356,206.584 409.356,206.68 C409.356,207.136 408.948,207.448 408.516,207.568 C408.396,207.592 408.252,207.616 408.132,207.616 C407.7,207.616 407.268,207.424 407.148,206.968 C406.836,205.888 405.78,205.336 404.412,205.336 C402.468,205.336 401.556,206.128 401.556,207.136 C401.556,208.24 402.012,208.72 404.028,209.152 L405.516,209.464 C408.636,210.112 409.884,211.024 409.884,213.544 C409.884,215.848 407.916,217.552 404.556,217.552 C401.484,217.552 399.684,216.328 399.06,214.192 C399.036,214.072 399.012,213.976 399.012,213.88 C399.012,213.4 399.42,213.064 399.876,212.968 C399.996,212.944 400.116,212.92 400.212,212.92 C400.668,212.92 401.1,213.112 401.244,213.568 C401.676,214.96 402.66,215.656 404.556,215.656 C406.476,215.656 407.724,214.816 407.724,213.592 C407.724,212.416 407.1,211.768 404.916,211.336 Z M412.524,212.824 L412.524,204.688 C412.524,204.04 412.98,203.728 413.628,203.728 C414.276,203.728 414.732,204.04 414.732,204.688 L414.732,212.368 C414.732,214.432 415.572,215.584 417.348,215.584 C418.62,215.584 419.652,214.984 420.468,213.856 C421.044,213.04 421.284,212.296 421.284,211.36 L421.284,204.688 C421.284,204.04 421.74,203.728 422.388,203.728 C423.012,203.728 423.468,204.04 423.468,204.688 L423.468,216.352 C423.468,217 423.036,217.312 422.412,217.312 C421.764,217.312 421.308,217.024 421.308,216.424 L421.308,215.752 C421.308,215.488 421.38,215.008 421.452,214.624 C420.708,216.304 419.316,217.528 416.916,217.528 C414.084,217.528 412.524,215.752 412.524,212.824 Z M436.26,205.312 L436.26,204.592 C436.26,204.088 436.596,203.728 437.292,203.728 C437.94,203.728 438.324,204.04 438.324,204.688 L438.324,215.8 C438.324,221.32 435.42,222.568 432.252,222.568 C429.66,222.568 428.004,221.704 427.092,220.528 C426.972,220.36 426.9,220.192 426.9,220 C426.9,219.688 427.068,219.376 427.356,219.16 C427.548,219.016 427.812,218.92 428.052,218.92 C428.316,218.92 428.556,219.016 428.748,219.232 C429.636,220.264 430.692,220.768 432.156,220.768 C435.156,220.768 436.236,219.256 436.26,215.704 C436.26,215.416 436.308,214.888 436.356,214.552 C435.564,216.064 434.196,217.12 432.084,217.12 C428.676,217.12 426.3,214.48 426.3,210.472 C426.3,206.344 428.436,203.56 432.132,203.56 C434.316,203.56 435.684,204.76 436.356,206.296 C436.332,206.032 436.26,205.576 436.26,205.312 Z M432.396,205.384 C429.948,205.384 428.508,207.376 428.508,210.472 C428.508,213.52 430.14,215.368 432.372,215.368 C434.82,215.368 436.308,213.28 436.308,210.304 C436.308,207.448 434.844,205.384 432.396,205.384 Z M451.092,205.312 L451.092,204.592 C451.092,204.088 451.428,203.728 452.124,203.728 C452.772,203.728 453.156,204.04 453.156,204.688 L453.156,215.8 C453.156,221.32 450.252,222.568 447.084,222.568 C444.492,222.568 442.836,221.704 441.924,220.528 C441.804,220.36 441.732,220.192 441.732,220 C441.732,219.688 441.9,219.376 442.188,219.16 C442.38,219.016 442.644,218.92 442.884,218.92 C443.148,218.92 443.388,219.016 443.58,219.232 C444.468,220.264 445.524,220.768 446.988,220.768 C449.988,220.768 451.068,219.256 451.092,215.704 C451.092,215.416 451.14,214.888 451.188,214.552 C450.396,216.064 449.028,217.12 446.916,217.12 C443.508,217.12 441.132,214.48 441.132,210.472 C441.132,206.344 443.268,203.56 446.964,203.56 C449.148,203.56 450.516,204.76 451.188,206.296 C451.164,206.032 451.092,205.576 451.092,205.312 Z M447.228,205.384 C444.78,205.384 443.34,207.376 443.34,210.472 C443.34,213.52 444.972,215.368 447.204,215.368 C449.652,215.368 451.14,213.28 451.14,210.304 C451.14,207.448 449.676,205.384 447.228,205.384 Z M466.548,210.928 L458.1,210.928 C458.148,213.88 459.612,215.728 462.204,215.728 C463.932,215.728 464.892,214.864 465.468,213.592 C465.684,213.16 465.996,212.992 466.332,212.992 C466.5,212.992 466.668,213.04 466.836,213.088 C467.244,213.208 467.58,213.496 467.58,213.928 C467.58,214.072 467.556,214.216 467.46,214.36 C466.692,215.944 465.3,217.528 462.18,217.528 C458.244,217.528 455.964,214.744 455.964,210.592 C455.964,206.44 458.124,203.536 462.036,203.536 C465.54,203.536 467.508,206.272 467.748,209.416 L467.748,209.608 C467.748,210.472 467.292,210.928 466.548,210.928 Z M458.172,209.176 L465.204,209.176 C465.468,209.176 465.564,209.08 465.564,208.864 L465.564,208.744 C465.276,207.04 464.244,205.288 462.036,205.288 C459.732,205.288 458.484,206.824 458.172,209.176 Z M475.524,211.336 L474.156,211.072 C471.204,210.496 469.98,209.464 469.98,207.184 C469.98,205 471.852,203.512 474.948,203.512 C477.612,203.512 479.316,204.64 479.916,206.392 C479.94,206.488 479.964,206.584 479.964,206.68 C479.964,207.136 479.556,207.448 479.124,207.568 C479.004,207.592 478.86,207.616 478.74,207.616 C478.308,207.616 477.876,207.424 477.756,206.968 C477.444,205.888 476.388,205.336 475.02,205.336 C473.076,205.336 472.164,206.128 472.164,207.136 C472.164,208.24 472.62,208.72 474.636,209.152 L476.124,209.464 C479.244,210.112 480.492,211.024 480.492,213.544 C480.492,215.848 478.524,217.552 475.164,217.552 C472.092,217.552 470.292,216.328 469.668,214.192 C469.644,214.072 469.62,213.976 469.62,213.88 C469.62,213.4 470.028,213.064 470.484,212.968 C470.604,212.944 470.724,212.92 470.82,212.92 C471.276,212.92 471.708,213.112 471.852,213.568 C472.284,214.96 473.268,215.656 475.164,215.656 C477.084,215.656 478.332,214.816 478.332,213.592 C478.332,212.416 477.708,211.768 475.524,211.336 Z M484.62,203.872 L484.62,200.968 C484.62,200.344 485.028,200.008 485.7,200.008 C486.324,200.008 486.78,200.344 486.78,200.968 L486.78,203.872 L489.852,203.872 C490.452,203.872 490.74,204.256 490.74,204.832 C490.74,205.384 490.428,205.768 489.852,205.768 L486.78,205.768 L486.78,213.808 C486.78,214.984 487.284,215.488 488.172,215.488 C488.772,215.488 489.18,215.32 489.588,215.08 C489.732,215.008 489.876,214.96 490.02,214.96 C490.38,214.96 490.668,215.224 490.812,215.584 C490.884,215.752 490.908,215.944 490.908,216.112 C490.908,216.448 490.764,216.784 490.404,216.976 C489.708,217.312 489.06,217.504 488.028,217.504 C486.06,217.504 484.62,216.52 484.62,214 L484.62,205.768 L482.748,205.768 C482.172,205.768 481.908,205.384 481.908,204.832 C481.908,204.28 482.172,203.872 482.772,203.872 L484.62,203.872 Z M502.836,210.928 L494.388,210.928 C494.436,213.88 495.9,215.728 498.492,215.728 C500.22,215.728 501.18,214.864 501.756,213.592 C501.972,213.16 502.284,212.992 502.62,212.992 C502.788,212.992 502.956,213.04 503.124,213.088 C503.532,213.208 503.868,213.496 503.868,213.928 C503.868,214.072 503.844,214.216 503.748,214.36 C502.98,215.944 501.588,217.528 498.468,217.528 C494.532,217.528 492.252,214.744 492.252,210.592 C492.252,206.44 494.412,203.536 498.324,203.536 C501.828,203.536 503.796,206.272 504.036,209.416 L504.036,209.608 C504.036,210.472 503.58,210.928 502.836,210.928 Z M494.46,209.176 L501.492,209.176 C501.756,209.176 501.852,209.08 501.852,208.864 L501.852,208.744 C501.564,207.04 500.532,205.288 498.324,205.288 C496.02,205.288 494.772,206.824 494.46,209.176 Z M516.084,204.52 L516.084,199.288 C516.084,198.64 516.54,198.328 517.14,198.328 C517.812,198.328 518.22,198.64 518.22,199.288 L518.22,216.352 C518.22,217 517.788,217.312 517.116,217.312 C516.42,217.312 516.084,216.928 516.084,216.424 L516.084,215.92 C516.084,215.656 516.132,215.152 516.156,214.816 C515.34,216.496 513.972,217.528 511.74,217.528 C508.236,217.528 506.028,214.768 506.028,210.448 C506.028,206.248 508.212,203.536 511.764,203.536 C513.996,203.536 515.34,204.592 516.18,206.296 C516.132,205.744 516.084,205.048 516.084,204.52 Z M512.052,205.408 C509.628,205.408 508.236,207.424 508.236,210.472 C508.236,213.616 509.628,215.656 512.052,215.656 C514.572,215.656 516.132,213.472 516.132,210.496 C516.132,207.568 514.692,205.408 512.052,205.408 Z M403.008,240.352 L403.008,228.664 C403.008,228.04 403.464,227.728 404.136,227.728 C404.736,227.728 405.216,228.04 405.216,228.664 L405.216,229.192 C405.216,229.528 405.12,229.936 405.072,230.32 C405.456,229.168 406.68,227.68 408.744,227.608 C408.936,227.584 409.104,227.584 409.272,227.584 C409.632,227.584 409.896,227.632 410.232,227.704 C410.784,227.776 411,228.112 411,228.568 C411,228.688 410.976,228.832 410.952,228.976 C410.856,229.48 410.52,229.912 410.016,229.912 C409.944,229.912 409.872,229.912 409.8,229.888 C409.464,229.816 409.152,229.744 408.648,229.744 C407.616,229.768 406.824,230.296 406.224,231.064 C405.6,231.832 405.24,232.72 405.216,233.728 L405.216,240.352 C405.216,241 404.736,241.312 404.136,241.312 C403.464,241.312 403.008,241 403.008,240.352 Z M423,234.928 L414.552,234.928 C414.6,237.88 416.064,239.728 418.656,239.728 C420.384,239.728 421.344,238.864 421.92,237.592 C422.136,237.16 422.448,236.992 422.784,236.992 C422.952,236.992 423.12,237.04 423.288,237.088 C423.696,237.208 424.032,237.496 424.032,237.928 C424.032,238.072 424.008,238.216 423.912,238.36 C423.144,239.944 421.752,241.528 418.632,241.528 C414.696,241.528 412.416,238.744 412.416,234.592 C412.416,230.44 414.576,227.536 418.488,227.536 C421.992,227.536 423.96,230.272 424.2,233.416 L424.2,233.608 C424.2,234.472 423.744,234.928 423,234.928 Z M414.624,233.176 L421.656,233.176 C421.92,233.176 422.016,233.08 422.016,232.864 L422.016,232.744 C421.728,231.04 420.696,229.288 418.488,229.288 C416.184,229.288 414.936,230.824 414.624,233.176 Z M431.976,235.336 L430.608,235.072 C427.656,234.496 426.432,233.464 426.432,231.184 C426.432,229 428.304,227.512 431.4,227.512 C434.064,227.512 435.768,228.64 436.368,230.392 C436.392,230.488 436.416,230.584 436.416,230.68 C436.416,231.136 436.008,231.448 435.576,231.568 C435.456,231.592 435.312,231.616 435.192,231.616 C434.76,231.616 434.328,231.424 434.208,230.968 C433.896,229.888 432.84,229.336 431.472,229.336 C429.528,229.336 428.616,230.128 428.616,231.136 C428.616,232.24 429.072,232.72 431.088,233.152 L432.576,233.464 C435.696,234.112 436.944,235.024 436.944,237.544 C436.944,239.848 434.976,241.552 431.616,241.552 C428.544,241.552 426.744,240.328 426.12,238.192 C426.096,238.072 426.072,237.976 426.072,237.88 C426.072,237.4 426.48,237.064 426.936,236.968 C427.056,236.944 427.176,236.92 427.272,236.92 C427.728,236.92 428.16,237.112 428.304,237.568 C428.736,238.96 429.72,239.656 431.616,239.656 C433.536,239.656 434.784,238.816 434.784,237.592 C434.784,236.416 434.16,235.768 431.976,235.336 Z M445.248,227.536 C449.088,227.536 451.344,230.32 451.344,234.496 C451.344,238.672 449.04,241.552 445.296,241.552 C441.336,241.552 439.032,238.768 439.032,234.496 C439.032,230.344 441.36,227.536 445.248,227.536 Z M445.32,229.384 C442.728,229.384 441.24,231.376 441.24,234.568 C441.24,237.616 442.68,239.704 445.152,239.704 C447.768,239.704 449.136,237.664 449.136,234.472 C449.136,231.448 447.768,229.384 445.32,229.384 Z M454.056,236.824 L454.056,228.688 C454.056,228.04 454.512,227.728 455.16,227.728 C455.808,227.728 456.264,228.04 456.264,228.688 L456.264,236.368 C456.264,238.432 457.104,239.584 458.88,239.584 C460.152,239.584 461.184,238.984 462,237.856 C462.576,237.04 462.816,236.296 462.816,235.36 L462.816,228.688 C462.816,228.04 463.272,227.728 463.92,227.728 C464.544,227.728 465,228.04 465,228.688 L465,240.352 C465,241 464.568,241.312 463.944,241.312 C463.296,241.312 462.84,241.024 462.84,240.424 L462.84,239.752 C462.84,239.488 462.912,239.008 462.984,238.624 C462.24,240.304 460.848,241.528 458.448,241.528 C455.616,241.528 454.056,239.752 454.056,236.824 Z M468.792,240.352 L468.792,228.664 C468.792,228.04 469.248,227.728 469.92,227.728 C470.52,227.728 471,228.04 471,228.664 L471,229.192 C471,229.528 470.904,229.936 470.856,230.32 C471.24,229.168 472.464,227.68 474.528,227.608 C474.72,227.584 474.888,227.584 475.056,227.584 C475.416,227.584 475.68,227.632 476.016,227.704 C476.568,227.776 476.784,228.112 476.784,228.568 C476.784,228.688 476.76,228.832 476.736,228.976 C476.64,229.48 476.304,229.912 475.8,229.912 C475.728,229.912 475.656,229.912 475.584,229.888 C475.248,229.816 474.936,229.744 474.432,229.744 C473.4,229.768 472.608,230.296 472.008,231.064 C471.384,231.832 471.024,232.72 471,233.728 L471,240.352 C471,241 470.52,241.312 469.92,241.312 C469.248,241.312 468.792,241 468.792,240.352 Z M478.2,234.568 C478.2,230.464 480.312,227.512 484.248,227.512 C487.416,227.512 488.712,229.264 489.312,230.776 C489.36,230.896 489.384,231.04 489.384,231.136 C489.384,231.592 489.024,231.88 488.664,232.024 C488.496,232.072 488.304,232.096 488.136,232.096 C487.776,232.096 487.464,231.952 487.296,231.544 C486.84,230.32 486.12,229.384 484.296,229.384 C481.8,229.384 480.432,231.496 480.432,234.544 C480.432,237.688 481.776,239.68 484.32,239.68 C486.192,239.68 486.936,238.768 487.392,237.472 C487.56,237.016 487.896,236.824 488.28,236.824 C488.448,236.824 488.616,236.848 488.784,236.92 C489.216,237.016 489.552,237.304 489.552,237.736 C489.552,237.88 489.528,238 489.456,238.168 C488.808,239.824 487.536,241.552 484.272,241.552 C480.384,241.552 478.2,238.696 478.2,234.568 Z M502.08,234.928 L493.632,234.928 C493.68,237.88 495.144,239.728 497.736,239.728 C499.464,239.728 500.424,238.864 501,237.592 C501.216,237.16 501.528,236.992 501.864,236.992 C502.032,236.992 502.2,237.04 502.368,237.088 C502.776,237.208 503.112,237.496 503.112,237.928 C503.112,238.072 503.088,238.216 502.992,238.36 C502.224,239.944 500.832,241.528 497.712,241.528 C493.776,241.528 491.496,238.744 491.496,234.592 C491.496,230.44 493.656,227.536 497.568,227.536 C501.072,227.536 503.04,230.272 503.28,233.416 L503.28,233.608 C503.28,234.472 502.824,234.928 502.08,234.928 Z M493.704,233.176 L500.736,233.176 C501,233.176 501.096,233.08 501.096,232.864 L501.096,232.744 C500.808,231.04 499.776,229.288 497.568,229.288 C495.264,229.288 494.016,230.824 493.704,233.176 Z M511.056,235.336 L509.688,235.072 C506.736,234.496 505.512,233.464 505.512,231.184 C505.512,229 507.384,227.512 510.48,227.512 C513.144,227.512 514.848,228.64 515.448,230.392 C515.472,230.488 515.496,230.584 515.496,230.68 C515.496,231.136 515.088,231.448 514.656,231.568 C514.536,231.592 514.392,231.616 514.272,231.616 C513.84,231.616 513.408,231.424 513.288,230.968 C512.976,229.888 511.92,229.336 510.552,229.336 C508.608,229.336 507.696,230.128 507.696,231.136 C507.696,232.24 508.152,232.72 510.168,233.152 L511.656,233.464 C514.776,234.112 516.024,235.024 516.024,237.544 C516.024,239.848 514.056,241.552 510.696,241.552 C507.624,241.552 505.824,240.328 505.2,238.192 C505.176,238.072 505.152,237.976 505.152,237.88 C505.152,237.4 505.56,237.064 506.016,236.968 C506.136,236.944 506.256,236.92 506.352,236.92 C506.808,236.92 507.24,237.112 507.384,237.568 C507.816,238.96 508.8,239.656 510.696,239.656 C512.616,239.656 513.864,238.816 513.864,237.592 C513.864,236.416 513.24,235.768 511.056,235.336 Z" id="Refer-to-suggested-r-Copy"></path>
            <path d="M15.456,192.328 L15.456,175.312 C15.456,174.64 15.936,174.328 16.584,174.328 C17.256,174.328 17.76,174.64 17.76,175.312 L17.76,192.328 C17.76,192.976 17.256,193.312 16.584,193.312 C15.936,193.312 15.456,192.976 15.456,192.328 Z M32.616,184.216 L32.616,192.352 C32.616,193 32.136,193.312 31.512,193.312 C30.864,193.312 30.408,193 30.408,192.352 L30.408,184.672 C30.408,182.632 29.592,181.48 27.792,181.48 C26.496,181.48 25.416,182.056 24.6,183.184 C24,184 23.76,184.696 23.76,185.632 L23.76,192.352 C23.76,193 23.304,193.312 22.68,193.312 C22.008,193.312 21.576,193 21.576,192.352 L21.576,180.664 C21.576,180.04 22.032,179.728 22.704,179.728 C23.328,179.728 23.76,180.04 23.76,180.664 L23.76,181.312 C23.76,181.624 23.688,181.864 23.664,182.32 C24.504,180.616 25.944,179.536 28.224,179.536 C31.08,179.536 32.616,181.264 32.616,184.216 Z M41.136,187.336 L39.768,187.072 C36.816,186.496 35.592,185.464 35.592,183.184 C35.592,181 37.464,179.512 40.56,179.512 C43.224,179.512 44.928,180.64 45.528,182.392 C45.552,182.488 45.576,182.584 45.576,182.68 C45.576,183.136 45.168,183.448 44.736,183.568 C44.616,183.592 44.472,183.616 44.352,183.616 C43.92,183.616 43.488,183.424 43.368,182.968 C43.056,181.888 42,181.336 40.632,181.336 C38.688,181.336 37.776,182.128 37.776,183.136 C37.776,184.24 38.232,184.72 40.248,185.152 L41.736,185.464 C44.856,186.112 46.104,187.024 46.104,189.544 C46.104,191.848 44.136,193.552 40.776,193.552 C37.704,193.552 35.904,192.328 35.28,190.192 C35.256,190.072 35.232,189.976 35.232,189.88 C35.232,189.4 35.64,189.064 36.096,188.968 C36.216,188.944 36.336,188.92 36.432,188.92 C36.888,188.92 37.32,189.112 37.464,189.568 C37.896,190.96 38.88,191.656 40.776,191.656 C42.696,191.656 43.944,190.816 43.944,189.592 C43.944,188.416 43.32,187.768 41.136,187.336 Z M50.232,179.872 L50.232,176.968 C50.232,176.344 50.64,176.008 51.312,176.008 C51.936,176.008 52.392,176.344 52.392,176.968 L52.392,179.872 L55.464,179.872 C56.064,179.872 56.352,180.256 56.352,180.832 C56.352,181.384 56.04,181.768 55.464,181.768 L52.392,181.768 L52.392,189.808 C52.392,190.984 52.896,191.488 53.784,191.488 C54.384,191.488 54.792,191.32 55.2,191.08 C55.344,191.008 55.488,190.96 55.632,190.96 C55.992,190.96 56.28,191.224 56.424,191.584 C56.496,191.752 56.52,191.944 56.52,192.112 C56.52,192.448 56.376,192.784 56.016,192.976 C55.32,193.312 54.672,193.504 53.64,193.504 C51.672,193.504 50.232,192.52 50.232,190 L50.232,181.768 L48.36,181.768 C47.784,181.768 47.52,181.384 47.52,180.832 C47.52,180.28 47.784,179.872 48.384,179.872 L50.232,179.872 Z M66.6,184.672 L66.6,183.64 C66.6,182.056 65.736,181.36 63.84,181.36 C62.088,181.36 61.224,182.032 60.816,183.136 C60.648,183.592 60.288,183.76 59.88,183.76 C59.688,183.76 59.496,183.736 59.328,183.664 C58.872,183.52 58.536,183.184 58.536,182.752 C58.536,182.656 58.56,182.56 58.584,182.464 C58.824,181.72 59.448,181.024 60,180.592 C60.84,179.944 61.92,179.536 63.864,179.536 C67.08,179.536 68.664,180.808 68.664,183.64 L68.664,190.192 C68.664,191.032 68.784,191.848 68.928,192.304 C68.952,192.376 68.976,192.472 68.976,192.544 C68.976,192.928 68.616,193.264 68.016,193.312 L67.8,193.312 C67.32,193.312 66.888,193.168 66.792,192.736 C66.72,192.448 66.672,192.016 66.648,191.536 C65.736,192.568 64.464,193.504 62.088,193.504 C59.448,193.504 57.84,192.016 57.84,189.544 C57.84,187.288 59.184,185.848 61.464,185.224 C62.784,184.864 64.032,184.72 66.6,184.672 Z M66.6,188.008 L66.6,186.4 C63.792,186.472 62.472,186.712 61.512,187.192 C60.552,187.672 60.048,188.416 60.048,189.568 C60.048,190.816 61.008,191.656 62.448,191.656 C63.96,191.656 65.208,190.912 65.976,189.952 C66.432,189.376 66.6,188.92 66.6,188.008 Z M83.28,184.216 L83.28,192.352 C83.28,193 82.8,193.312 82.176,193.312 C81.528,193.312 81.072,193 81.072,192.352 L81.072,184.672 C81.072,182.632 80.256,181.48 78.456,181.48 C77.16,181.48 76.08,182.056 75.264,183.184 C74.664,184 74.424,184.696 74.424,185.632 L74.424,192.352 C74.424,193 73.968,193.312 73.344,193.312 C72.672,193.312 72.24,193 72.24,192.352 L72.24,180.664 C72.24,180.04 72.696,179.728 73.368,179.728 C73.992,179.728 74.424,180.04 74.424,180.664 L74.424,181.312 C74.424,181.624 74.352,181.864 74.328,182.32 C75.168,180.616 76.608,179.536 78.888,179.536 C81.744,179.536 83.28,181.264 83.28,184.216 Z M88.056,179.872 L88.056,176.968 C88.056,176.344 88.464,176.008 89.136,176.008 C89.76,176.008 90.216,176.344 90.216,176.968 L90.216,179.872 L93.288,179.872 C93.888,179.872 94.176,180.256 94.176,180.832 C94.176,181.384 93.864,181.768 93.288,181.768 L90.216,181.768 L90.216,189.808 C90.216,190.984 90.72,191.488 91.608,191.488 C92.208,191.488 92.616,191.32 93.024,191.08 C93.168,191.008 93.312,190.96 93.456,190.96 C93.816,190.96 94.104,191.224 94.248,191.584 C94.32,191.752 94.344,191.944 94.344,192.112 C94.344,192.448 94.2,192.784 93.84,192.976 C93.144,193.312 92.496,193.504 91.464,193.504 C89.496,193.504 88.056,192.52 88.056,190 L88.056,181.768 L86.184,181.768 C85.608,181.768 85.344,181.384 85.344,180.832 C85.344,180.28 85.608,179.872 86.208,179.872 L88.056,179.872 Z M3.792,203.872 L3.792,202.144 C3.792,199.048 5.688,198.208 7.512,198.208 C8.304,198.208 8.904,198.256 9.576,198.472 C10.032,198.616 10.224,198.976 10.224,199.336 C10.224,199.504 10.2,199.648 10.128,199.792 C9.984,200.2 9.648,200.512 9.216,200.512 C9.096,200.512 8.976,200.488 8.832,200.44 C8.424,200.272 8.016,200.2 7.512,200.2 C6.624,200.2 5.952,200.68 5.952,202.408 L5.952,203.872 L8.832,203.872 C9.432,203.872 9.72,204.28 9.72,204.856 C9.72,205.408 9.408,205.768 8.832,205.768 L5.952,205.768 L5.952,216.352 C5.952,217 5.496,217.312 4.872,217.312 C4.224,217.312 3.792,217 3.792,216.352 L3.792,205.768 L1.752,205.768 C1.176,205.768 0.888,205.408 0.888,204.856 C0.888,204.304 1.152,203.872 1.752,203.872 L3.792,203.872 Z M21.744,210.928 L13.296,210.928 C13.344,213.88 14.808,215.728 17.4,215.728 C19.128,215.728 20.088,214.864 20.664,213.592 C20.88,213.16 21.192,212.992 21.528,212.992 C21.696,212.992 21.864,213.04 22.032,213.088 C22.44,213.208 22.776,213.496 22.776,213.928 C22.776,214.072 22.752,214.216 22.656,214.36 C21.888,215.944 20.496,217.528 17.376,217.528 C13.44,217.528 11.16,214.744 11.16,210.592 C11.16,206.44 13.32,203.536 17.232,203.536 C20.736,203.536 22.704,206.272 22.944,209.416 L22.944,209.608 C22.944,210.472 22.488,210.928 21.744,210.928 Z M13.368,209.176 L20.4,209.176 C20.664,209.176 20.76,209.08 20.76,208.864 L20.76,208.744 C20.472,207.04 19.44,205.288 17.232,205.288 C14.928,205.288 13.68,206.824 13.368,209.176 Z M35.52,210.928 L27.072,210.928 C27.12,213.88 28.584,215.728 31.176,215.728 C32.904,215.728 33.864,214.864 34.44,213.592 C34.656,213.16 34.968,212.992 35.304,212.992 C35.472,212.992 35.64,213.04 35.808,213.088 C36.216,213.208 36.552,213.496 36.552,213.928 C36.552,214.072 36.528,214.216 36.432,214.36 C35.664,215.944 34.272,217.528 31.152,217.528 C27.216,217.528 24.936,214.744 24.936,210.592 C24.936,206.44 27.096,203.536 31.008,203.536 C34.512,203.536 36.48,206.272 36.72,209.416 L36.72,209.608 C36.72,210.472 36.264,210.928 35.52,210.928 Z M27.144,209.176 L34.176,209.176 C34.44,209.176 34.536,209.08 34.536,208.864 L34.536,208.744 C34.248,207.04 33.216,205.288 31.008,205.288 C28.704,205.288 27.456,206.824 27.144,209.176 Z M48.768,204.52 L48.768,199.288 C48.768,198.64 49.224,198.328 49.824,198.328 C50.496,198.328 50.904,198.64 50.904,199.288 L50.904,216.352 C50.904,217 50.472,217.312 49.8,217.312 C49.104,217.312 48.768,216.928 48.768,216.424 L48.768,215.92 C48.768,215.656 48.816,215.152 48.84,214.816 C48.024,216.496 46.656,217.528 44.424,217.528 C40.92,217.528 38.712,214.768 38.712,210.448 C38.712,206.248 40.896,203.536 44.448,203.536 C46.68,203.536 48.024,204.592 48.864,206.296 C48.816,205.744 48.768,205.048 48.768,204.52 Z M44.736,205.408 C42.312,205.408 40.92,207.424 40.92,210.472 C40.92,213.616 42.312,215.656 44.736,215.656 C47.256,215.656 48.816,213.472 48.816,210.496 C48.816,207.568 47.376,205.408 44.736,205.408 Z M56.472,215.92 L56.472,216.424 C56.472,216.952 56.112,217.312 55.416,217.312 C54.744,217.312 54.336,217 54.336,216.352 L54.336,199.288 C54.336,198.64 54.744,198.328 55.416,198.328 C56.04,198.328 56.472,198.64 56.472,199.288 L56.472,204.52 C56.472,205.024 56.424,205.72 56.352,206.272 C57.24,204.568 58.656,203.536 60.864,203.536 C64.464,203.536 66.528,206.176 66.528,210.448 C66.528,214.672 64.344,217.528 60.792,217.528 C58.584,217.528 57.144,216.448 56.376,214.768 C56.424,215.128 56.472,215.608 56.472,215.92 Z M60.576,205.408 C57.936,205.408 56.424,207.544 56.424,210.496 C56.424,213.472 57.984,215.632 60.504,215.632 C62.928,215.632 64.32,213.568 64.32,210.472 C64.32,207.352 62.976,205.408 60.576,205.408 Z M77.424,208.672 L77.424,207.64 C77.424,206.056 76.56,205.36 74.664,205.36 C72.912,205.36 72.048,206.032 71.64,207.136 C71.472,207.592 71.112,207.76 70.704,207.76 C70.512,207.76 70.32,207.736 70.152,207.664 C69.696,207.52 69.36,207.184 69.36,206.752 C69.36,206.656 69.384,206.56 69.408,206.464 C69.648,205.72 70.272,205.024 70.824,204.592 C71.664,203.944 72.744,203.536 74.688,203.536 C77.904,203.536 79.488,204.808 79.488,207.64 L79.488,214.192 C79.488,215.032 79.608,215.848 79.752,216.304 C79.776,216.376 79.8,216.472 79.8,216.544 C79.8,216.928 79.44,217.264 78.84,217.312 L78.624,217.312 C78.144,217.312 77.712,217.168 77.616,216.736 C77.544,216.448 77.496,216.016 77.472,215.536 C76.56,216.568 75.288,217.504 72.912,217.504 C70.272,217.504 68.664,216.016 68.664,213.544 C68.664,211.288 70.008,209.848 72.288,209.224 C73.608,208.864 74.856,208.72 77.424,208.672 Z M77.424,212.008 L77.424,210.4 C74.616,210.472 73.296,210.712 72.336,211.192 C71.376,211.672 70.872,212.416 70.872,213.568 C70.872,214.816 71.832,215.656 73.272,215.656 C74.784,215.656 76.032,214.912 76.8,213.952 C77.256,213.376 77.424,212.92 77.424,212.008 Z M82.44,210.568 C82.44,206.464 84.552,203.512 88.488,203.512 C91.656,203.512 92.952,205.264 93.552,206.776 C93.6,206.896 93.624,207.04 93.624,207.136 C93.624,207.592 93.264,207.88 92.904,208.024 C92.736,208.072 92.544,208.096 92.376,208.096 C92.016,208.096 91.704,207.952 91.536,207.544 C91.08,206.32 90.36,205.384 88.536,205.384 C86.04,205.384 84.672,207.496 84.672,210.544 C84.672,213.688 86.016,215.68 88.56,215.68 C90.432,215.68 91.176,214.768 91.632,213.472 C91.8,213.016 92.136,212.824 92.52,212.824 C92.688,212.824 92.856,212.848 93.024,212.92 C93.456,213.016 93.792,213.304 93.792,213.736 C93.792,213.88 93.768,214 93.696,214.168 C93.048,215.824 91.776,217.552 88.512,217.552 C84.624,217.552 82.44,214.696 82.44,210.568 Z M98.544,212.44 L98.544,216.352 C98.544,217 98.112,217.312 97.464,217.312 C96.792,217.312 96.384,217 96.384,216.352 L96.384,199.264 C96.384,198.64 96.816,198.328 97.488,198.328 C98.112,198.328 98.544,198.592 98.544,199.216 L98.544,209.872 L104.4,204.04 C104.616,203.824 104.88,203.728 105.12,203.728 C105.432,203.728 105.72,203.848 105.912,204.088 C106.128,204.328 106.272,204.616 106.272,204.88 C106.272,205.12 106.176,205.336 105.96,205.552 L101.904,209.344 L106.68,215.704 C106.8,215.872 106.848,216.04 106.848,216.232 C106.848,216.592 106.608,216.952 106.296,217.144 C106.104,217.264 105.888,217.312 105.648,217.312 C105.336,217.312 105.024,217.192 104.832,216.928 L100.368,210.688 L98.544,212.44 Z" id="Instant-feedback-Copy"></path>
            <path d="M193.596,318.6 L193.596,305.064 C193.596,303.216 194.34,302.472 196.044,302.472 L200.316,302.472 C205.62,302.472 208.74,305.832 208.74,311.616 C208.74,317.592 205.572,321.168 200.316,321.168 L196.044,321.168 C194.34,321.168 193.596,320.424 193.596,318.6 Z M195.876,305.328 L195.876,318.264 C195.876,318.816 196.164,319.08 196.644,319.08 L200.196,319.08 C204.084,319.08 206.364,316.32 206.364,311.64 C206.364,307.056 204.228,304.536 200.268,304.536 L196.668,304.536 C196.212,304.536 195.876,304.824 195.876,305.328 Z M221.7,314.928 L213.252,314.928 C213.3,317.88 214.764,319.728 217.356,319.728 C219.084,319.728 220.044,318.864 220.62,317.592 C220.836,317.16 221.148,316.992 221.484,316.992 C221.652,316.992 221.82,317.04 221.988,317.088 C222.396,317.208 222.732,317.496 222.732,317.928 C222.732,318.072 222.708,318.216 222.612,318.36 C221.844,319.944 220.452,321.528 217.332,321.528 C213.396,321.528 211.116,318.744 211.116,314.592 C211.116,310.44 213.276,307.536 217.188,307.536 C220.692,307.536 222.66,310.272 222.9,313.416 L222.9,313.608 C222.9,314.472 222.444,314.928 221.7,314.928 Z M213.324,313.176 L220.356,313.176 C220.62,313.176 220.716,313.08 220.716,312.864 L220.716,312.744 C220.428,311.04 219.396,309.288 217.188,309.288 C214.884,309.288 213.636,310.824 213.324,313.176 Z M226.932,307.872 L226.932,304.968 C226.932,304.344 227.34,304.008 228.012,304.008 C228.636,304.008 229.092,304.344 229.092,304.968 L229.092,307.872 L232.164,307.872 C232.764,307.872 233.052,308.256 233.052,308.832 C233.052,309.384 232.74,309.768 232.164,309.768 L229.092,309.768 L229.092,317.808 C229.092,318.984 229.596,319.488 230.484,319.488 C231.084,319.488 231.492,319.32 231.9,319.08 C232.044,319.008 232.188,318.96 232.332,318.96 C232.692,318.96 232.98,319.224 233.124,319.584 C233.196,319.752 233.22,319.944 233.22,320.112 C233.22,320.448 233.076,320.784 232.716,320.976 C232.02,321.312 231.372,321.504 230.34,321.504 C228.372,321.504 226.932,320.52 226.932,318 L226.932,309.768 L225.06,309.768 C224.484,309.768 224.22,309.384 224.22,308.832 C224.22,308.28 224.484,307.872 225.084,307.872 L226.932,307.872 Z M245.148,314.928 L236.7,314.928 C236.748,317.88 238.212,319.728 240.804,319.728 C242.532,319.728 243.492,318.864 244.068,317.592 C244.284,317.16 244.596,316.992 244.932,316.992 C245.1,316.992 245.268,317.04 245.436,317.088 C245.844,317.208 246.18,317.496 246.18,317.928 C246.18,318.072 246.156,318.216 246.06,318.36 C245.292,319.944 243.9,321.528 240.78,321.528 C236.844,321.528 234.564,318.744 234.564,314.592 C234.564,310.44 236.724,307.536 240.636,307.536 C244.14,307.536 246.108,310.272 246.348,313.416 L246.348,313.608 C246.348,314.472 245.892,314.928 245.148,314.928 Z M236.772,313.176 L243.804,313.176 C244.068,313.176 244.164,313.08 244.164,312.864 L244.164,312.744 C243.876,311.04 242.844,309.288 240.636,309.288 C238.332,309.288 237.084,310.824 236.772,313.176 Z M249.3,320.352 L249.3,308.664 C249.3,308.04 249.756,307.728 250.428,307.728 C251.028,307.728 251.508,308.04 251.508,308.664 L251.508,309.192 C251.508,309.528 251.412,309.936 251.364,310.32 C251.748,309.168 252.972,307.68 255.036,307.608 C255.228,307.584 255.396,307.584 255.564,307.584 C255.924,307.584 256.188,307.632 256.524,307.704 C257.076,307.776 257.292,308.112 257.292,308.568 C257.292,308.688 257.268,308.832 257.244,308.976 C257.148,309.48 256.812,309.912 256.308,309.912 C256.236,309.912 256.164,309.912 256.092,309.888 C255.756,309.816 255.444,309.744 254.94,309.744 C253.908,309.768 253.116,310.296 252.516,311.064 C251.892,311.832 251.532,312.72 251.508,313.728 L251.508,320.352 C251.508,321 251.028,321.312 250.428,321.312 C249.756,321.312 249.3,321 249.3,320.352 Z M277.044,312.192 L277.044,320.352 C277.044,321 276.564,321.312 275.94,321.312 C275.268,321.312 274.86,321 274.86,320.352 L274.86,312.672 C274.86,310.632 274.284,309.48 272.556,309.48 C271.284,309.48 270.444,310.248 269.868,311.112 C269.508,311.616 269.22,312.552 269.22,313.272 L269.22,320.352 C269.22,321 268.764,321.312 268.14,321.312 C267.468,321.312 267.06,321 267.06,320.352 L267.06,312.672 C267.06,310.632 266.46,309.48 264.756,309.48 C263.484,309.48 262.716,310.224 262.14,311.088 C261.708,311.736 261.492,312.6 261.492,313.392 L261.492,320.352 C261.492,321 261.06,321.312 260.436,321.312 C259.764,321.312 259.332,321 259.332,320.352 L259.332,308.664 C259.332,308.04 259.788,307.728 260.46,307.728 C261.06,307.728 261.492,308.04 261.492,308.664 L261.492,309.168 C261.492,309.48 261.396,309.96 261.324,310.32 C261.924,308.904 262.932,307.56 265.284,307.56 C267.396,307.56 268.548,308.52 268.86,310.176 C269.556,308.928 270.42,307.56 273.084,307.56 C275.916,307.56 277.044,309.264 277.044,312.192 Z M280.38,320.352 L280.38,308.664 C280.38,308.04 280.788,307.728 281.46,307.728 C282.108,307.728 282.564,308.04 282.564,308.664 L282.564,320.352 C282.564,321 282.108,321.312 281.46,321.312 C280.788,321.312 280.38,321 280.38,320.352 Z M281.484,302.304 C282.372,302.304 283.092,303 283.092,303.912 C283.092,304.848 282.372,305.544 281.484,305.544 C280.572,305.544 279.852,304.848 279.852,303.912 C279.852,303 280.572,302.304 281.484,302.304 Z M297.036,312.216 L297.036,320.352 C297.036,321 296.556,321.312 295.932,321.312 C295.284,321.312 294.828,321 294.828,320.352 L294.828,312.672 C294.828,310.632 294.012,309.48 292.212,309.48 C290.916,309.48 289.836,310.056 289.02,311.184 C288.42,312 288.18,312.696 288.18,313.632 L288.18,320.352 C288.18,321 287.724,321.312 287.1,321.312 C286.428,321.312 285.996,321 285.996,320.352 L285.996,308.664 C285.996,308.04 286.452,307.728 287.124,307.728 C287.748,307.728 288.18,308.04 288.18,308.664 L288.18,309.312 C288.18,309.624 288.108,309.864 288.084,310.32 C288.924,308.616 290.364,307.536 292.644,307.536 C295.5,307.536 297.036,309.264 297.036,312.216 Z M310.356,314.928 L301.908,314.928 C301.956,317.88 303.42,319.728 306.012,319.728 C307.74,319.728 308.7,318.864 309.276,317.592 C309.492,317.16 309.804,316.992 310.14,316.992 C310.308,316.992 310.476,317.04 310.644,317.088 C311.052,317.208 311.388,317.496 311.388,317.928 C311.388,318.072 311.364,318.216 311.268,318.36 C310.5,319.944 309.108,321.528 305.988,321.528 C302.052,321.528 299.772,318.744 299.772,314.592 C299.772,310.44 301.932,307.536 305.844,307.536 C309.348,307.536 311.316,310.272 311.556,313.416 L311.556,313.608 C311.556,314.472 311.1,314.928 310.356,314.928 Z M301.98,313.176 L309.012,313.176 C309.276,313.176 309.372,313.08 309.372,312.864 L309.372,312.744 C309.084,311.04 308.052,309.288 305.844,309.288 C303.54,309.288 302.292,310.824 301.98,313.176 Z M219.564,336.672 L219.564,335.64 C219.564,334.056 218.7,333.36 216.804,333.36 C215.052,333.36 214.188,334.032 213.78,335.136 C213.612,335.592 213.252,335.76 212.844,335.76 C212.652,335.76 212.46,335.736 212.292,335.664 C211.836,335.52 211.5,335.184 211.5,334.752 C211.5,334.656 211.524,334.56 211.548,334.464 C211.788,333.72 212.412,333.024 212.964,332.592 C213.804,331.944 214.884,331.536 216.828,331.536 C220.044,331.536 221.628,332.808 221.628,335.64 L221.628,342.192 C221.628,343.032 221.748,343.848 221.892,344.304 C221.916,344.376 221.94,344.472 221.94,344.544 C221.94,344.928 221.58,345.264 220.98,345.312 L220.764,345.312 C220.284,345.312 219.852,345.168 219.756,344.736 C219.684,344.448 219.636,344.016 219.612,343.536 C218.7,344.568 217.428,345.504 215.052,345.504 C212.412,345.504 210.804,344.016 210.804,341.544 C210.804,339.288 212.148,337.848 214.428,337.224 C215.748,336.864 216.996,336.72 219.564,336.672 Z M219.564,340.008 L219.564,338.4 C216.756,338.472 215.436,338.712 214.476,339.192 C213.516,339.672 213.012,340.416 213.012,341.568 C213.012,342.816 213.972,343.656 215.412,343.656 C216.924,343.656 218.172,342.912 218.94,341.952 C219.396,341.376 219.564,340.92 219.564,340.008 Z M236.244,336.216 L236.244,344.352 C236.244,345 235.764,345.312 235.14,345.312 C234.492,345.312 234.036,345 234.036,344.352 L234.036,336.672 C234.036,334.632 233.22,333.48 231.42,333.48 C230.124,333.48 229.044,334.056 228.228,335.184 C227.628,336 227.388,336.696 227.388,337.632 L227.388,344.352 C227.388,345 226.932,345.312 226.308,345.312 C225.636,345.312 225.204,345 225.204,344.352 L225.204,332.664 C225.204,332.04 225.66,331.728 226.332,331.728 C226.956,331.728 227.388,332.04 227.388,332.664 L227.388,333.312 C227.388,333.624 227.316,333.864 227.292,334.32 C228.132,332.616 229.572,331.536 231.852,331.536 C234.708,331.536 236.244,333.264 236.244,336.216 Z M244.764,339.336 L243.396,339.072 C240.444,338.496 239.22,337.464 239.22,335.184 C239.22,333 241.092,331.512 244.188,331.512 C246.852,331.512 248.556,332.64 249.156,334.392 C249.18,334.488 249.204,334.584 249.204,334.68 C249.204,335.136 248.796,335.448 248.364,335.568 C248.244,335.592 248.1,335.616 247.98,335.616 C247.548,335.616 247.116,335.424 246.996,334.968 C246.684,333.888 245.628,333.336 244.26,333.336 C242.316,333.336 241.404,334.128 241.404,335.136 C241.404,336.24 241.86,336.72 243.876,337.152 L245.364,337.464 C248.484,338.112 249.732,339.024 249.732,341.544 C249.732,343.848 247.764,345.552 244.404,345.552 C241.332,345.552 239.532,344.328 238.908,342.192 C238.884,342.072 238.86,341.976 238.86,341.88 C238.86,341.4 239.268,341.064 239.724,340.968 C239.844,340.944 239.964,340.92 240.06,340.92 C240.516,340.92 240.948,341.112 241.092,341.568 C241.524,342.96 242.508,343.656 244.404,343.656 C246.324,343.656 247.572,342.816 247.572,341.592 C247.572,340.416 246.948,339.768 244.764,339.336 Z M259.38,338.52 L257.748,344.352 C257.556,345.072 256.956,345.312 256.284,345.312 C255.636,345.312 255.108,345.048 254.892,344.352 L251.436,332.952 C251.412,332.856 251.388,332.736 251.388,332.664 C251.388,332.16 251.796,331.872 252.252,331.776 C252.396,331.752 252.516,331.728 252.66,331.728 C253.092,331.728 253.476,331.896 253.62,332.424 L255.276,338.52 C255.684,340.056 256.02,341.688 256.332,343.464 C256.644,341.688 256.908,340.056 257.34,338.52 L258.9,332.76 C259.116,332.04 259.716,331.728 260.388,331.728 C261.084,331.728 261.684,332.04 261.876,332.76 L263.364,338.52 C263.748,339.96 264.012,341.544 264.372,343.488 C264.708,341.544 265.068,340.008 265.476,338.52 L267.228,332.424 C267.372,331.92 267.756,331.728 268.212,331.728 C268.308,331.728 268.428,331.728 268.524,331.752 C268.98,331.848 269.436,332.16 269.436,332.664 C269.436,332.736 269.412,332.856 269.388,332.952 L265.74,344.352 C265.524,345.048 264.996,345.312 264.372,345.312 C263.676,345.312 263.076,345.048 262.908,344.352 L261.396,338.52 C260.988,336.936 260.7,335.352 260.388,333.552 C260.076,335.376 259.812,336.936 259.38,338.52 Z M281.772,338.928 L273.324,338.928 C273.372,341.88 274.836,343.728 277.428,343.728 C279.156,343.728 280.116,342.864 280.692,341.592 C280.908,341.16 281.22,340.992 281.556,340.992 C281.724,340.992 281.892,341.04 282.06,341.088 C282.468,341.208 282.804,341.496 282.804,341.928 C282.804,342.072 282.78,342.216 282.684,342.36 C281.916,343.944 280.524,345.528 277.404,345.528 C273.468,345.528 271.188,342.744 271.188,338.592 C271.188,334.44 273.348,331.536 277.26,331.536 C280.764,331.536 282.732,334.272 282.972,337.416 L282.972,337.608 C282.972,338.472 282.516,338.928 281.772,338.928 Z M273.396,337.176 L280.428,337.176 C280.692,337.176 280.788,337.08 280.788,336.864 L280.788,336.744 C280.5,335.04 279.468,333.288 277.26,333.288 C274.956,333.288 273.708,334.824 273.396,337.176 Z M285.924,344.352 L285.924,332.664 C285.924,332.04 286.38,331.728 287.052,331.728 C287.652,331.728 288.132,332.04 288.132,332.664 L288.132,333.192 C288.132,333.528 288.036,333.936 287.988,334.32 C288.372,333.168 289.596,331.68 291.66,331.608 C291.852,331.584 292.02,331.584 292.188,331.584 C292.548,331.584 292.812,331.632 293.148,331.704 C293.7,331.776 293.916,332.112 293.916,332.568 C293.916,332.688 293.892,332.832 293.868,332.976 C293.772,333.48 293.436,333.912 292.932,333.912 C292.86,333.912 292.788,333.912 292.716,333.888 C292.38,333.816 292.068,333.744 291.564,333.744 C290.532,333.768 289.74,334.296 289.14,335.064 C288.516,335.832 288.156,336.72 288.132,337.728 L288.132,344.352 C288.132,345 287.652,345.312 287.052,345.312 C286.38,345.312 285.924,345 285.924,344.352 Z" id="Determine-answer-Copy"></path>
        </g>
    </g>
</svg>