<?xml version="1.0" encoding="UTF-8"?>
<svg width="334px" height="263px" viewBox="0 0 334 263" version="1.1" xmlns="http://www.w3.org/2000/svg" xmlns:xlink="http://www.w3.org/1999/xlink">
    <!-- Generator: Sketch 48.2 (47327) - http://www.bohemiancoding.com/sketch -->
    <title>effort-efficiency</title>
    <desc>Created with Sketch.</desc>
    <defs>
        <linearGradient x1="50%" y1="1.2236926%" x2="50%" y2="100%" id="linearGradient-1">
            <stop stop-color="#76C9AC" offset="0%"></stop>
            <stop stop-color="#D2EADC" offset="100%"></stop>
        </linearGradient>
        <path d="M0.73132,32.3384 C0.73132,14.630667 21.09103,0.275717 46.20605,0.275717 C71.32107,0.275717 91.68078,14.630667 91.68078,32.3384 C91.68078,50.046133 71.32107,64.401083 46.20605,64.401083 C21.09103,64.401083 0.73132,50.046133 0.73132,32.3384 Z" id="path-2"></path>
        <filter x="-7.7%" y="-7.8%" width="115.4%" height="121.8%" filterUnits="objectBoundingBox" id="filter-3">
            <feOffset dx="0" dy="2" in="SourceAlpha" result="shadowOffsetOuter1"></feOffset>
            <feGaussianBlur stdDeviation="2" in="shadowOffsetOuter1" result="shadowBlurOuter1"></feGaussianBlur>
            <feColorMatrix values="0 0 0 0 0.184313725   0 0 0 0 0.376470588   0 0 0 0 0.439215686  0 0 0 1 0" type="matrix" in="shadowBlurOuter1"></feColorMatrix>
        </filter>
        <path d="M0.0027,32.26157 C0.0027,14.553837 16.969192,0.198887 37.89833,0.198887 C58.82753,0.198887 75.79396,14.553837 75.79396,32.26157 C75.79396,49.969303 58.82753,64.324253 37.89833,64.324253 C16.969192,64.324253 0.0027,49.969303 0.0027,32.26157 Z" id="path-4"></path>
        <filter x="-9.2%" y="-7.8%" width="118.5%" height="121.8%" filterUnits="objectBoundingBox" id="filter-5">
            <feOffset dx="0" dy="2" in="SourceAlpha" result="shadowOffsetOuter1"></feOffset>
            <feGaussianBlur stdDeviation="2" in="shadowOffsetOuter1" result="shadowBlurOuter1"></feGaussianBlur>
            <feColorMatrix values="0 0 0 0 0.184313725   0 0 0 0 0.376470588   0 0 0 0 0.439215686  0 0 0 1 0" type="matrix" in="shadowBlurOuter1"></feColorMatrix>
        </filter>
        <path d="M0.0027,47.8966 C0.0027,21.67782 22.62886,0.423303 50.539626,0.423303 C63.942885,0.423303 76.797133,5.424951 86.274672,14.327905 C95.75215,23.23089 101.076552,35.305902 101.076552,47.8966 C101.076552,74.11538 78.450392,95.369897 50.539626,95.369897 C22.628859,95.369897 0.0027,74.11538 0.0027,47.8966 Z" id="path-6"></path>
        <filter x="-6.9%" y="-5.3%" width="113.9%" height="114.7%" filterUnits="objectBoundingBox" id="filter-7">
            <feOffset dx="0" dy="2" in="SourceAlpha" result="shadowOffsetOuter1"></feOffset>
            <feGaussianBlur stdDeviation="2" in="shadowOffsetOuter1" result="shadowBlurOuter1"></feGaussianBlur>
            <feColorMatrix values="0 0 0 0 0.184313725   0 0 0 0 0.376470588   0 0 0 0 0.439215686  0 0 0 1 0" type="matrix" in="shadowBlurOuter1"></feColorMatrix>
        </filter>
        <linearGradient x1="50%" y1="0%" x2="50%" y2="100%" id="linearGradient-8">
            <stop stop-color="#CB4343" offset="0%"></stop>
            <stop stop-color="#F1B182" offset="100%"></stop>
        </linearGradient>
        <path d="M7.90070581,17.936802 L2.90070581,17.936802 L11.9007058,0.936802026 L20.9007058,17.936802 L14.9007058,17.936802 L14.9007058,74.936802 L7.90070581,74.936802 L7.90070581,17.936802 Z" id="path-9"></path>
        <filter x="-30.6%" y="-7.4%" width="172.2%" height="117.6%" filterUnits="objectBoundingBox" id="filter-10">
            <feOffset dx="1" dy="1" in="SourceAlpha" result="shadowOffsetOuter1"></feOffset>
            <feGaussianBlur stdDeviation="2" in="shadowOffsetOuter1" result="shadowBlurOuter1"></feGaussianBlur>
            <feColorMatrix values="0 0 0 0 0.184313725   0 0 0 0 0.376470588   0 0 0 0 0.439215686  0 0 0 1 0" type="matrix" in="shadowBlurOuter1"></feColorMatrix>
        </filter>
    </defs>
    <g id="Page-1" stroke="none" stroke-width="1" fill="none" fill-rule="evenodd">
        <g id="ja" transform="translate(-3.000000, -3.000000)">
            <g id="Axis">
                <polygon id="Background" fill="url(#linearGradient-1)" points="4.32079797e-14 0 339 0 339 270 0 270"></polygon>
                <path d="M29.23666,16.5 L29.23666,240.45009" id="y-Axis" stroke="#2F6070" stroke-linejoin="round"></path>
                <path d="M29,240 L323.5,240" id="x-Axis" stroke="#2F6070" stroke-linejoin="round"></path>
                <path d="M152.468,251.304 L152.468,251.676 L157.052,251.676 C157.28,251.676 157.4,251.832 157.4,252.084 C157.4,252.336 157.28,252.516 157.052,252.516 L152.468,252.516 L152.468,254.844 C152.468,255.612 152.06,255.936 150.932,255.936 C150.524,255.936 150.044,255.888 149.684,255.792 C149.504,255.744 149.396,255.588 149.396,255.372 C149.396,255.336 149.396,255.288 149.408,255.24 C149.468,255.036 149.6,254.916 149.78,254.916 C149.816,254.916 149.84,254.916 149.876,254.928 C150.164,255 150.524,255.072 150.836,255.072 C151.412,255.072 151.556,254.964 151.556,254.652 L151.556,252.516 L146.936,252.516 C146.708,252.516 146.588,252.336 146.588,252.084 C146.588,251.832 146.708,251.676 146.936,251.676 L151.556,251.676 L151.556,250.968 C151.556,250.74 151.748,250.632 152.012,250.632 C152.06,250.632 152.12,250.632 152.156,250.644 C152.876,250.356 153.548,249.996 154.076,249.648 C154.136,249.612 154.172,249.576 154.172,249.552 C154.172,249.516 154.112,249.492 154.016,249.492 L148.988,249.492 C148.76,249.492 148.64,249.3 148.64,249.072 C148.64,248.82 148.76,248.652 148.988,248.652 L154.808,248.652 C155.204,248.652 155.432,248.916 155.432,249.228 C155.432,249.432 155.324,249.66 155.108,249.828 C154.376,250.38 153.5,250.86 152.468,251.304 Z M154.904,246.768 L156.092,246.768 C156.8,246.768 157.16,247.08 157.16,247.74 L157.16,249.252 C157.16,249.48 156.992,249.612 156.704,249.612 C156.44,249.612 156.26,249.48 156.26,249.252 L156.26,247.896 C156.26,247.644 156.128,247.572 155.888,247.572 L148.064,247.572 C147.824,247.572 147.704,247.644 147.704,247.896 L147.704,249.252 C147.704,249.48 147.524,249.612 147.248,249.612 C146.972,249.612 146.792,249.48 146.792,249.252 L146.792,247.74 C146.792,247.08 147.152,246.768 147.848,246.768 L149.024,246.768 C148.772,246.336 148.424,245.892 148.184,245.58 C148.136,245.52 148.112,245.46 148.112,245.388 C148.112,245.256 148.208,245.112 148.388,245.052 C148.46,245.016 148.532,245.004 148.604,245.004 C148.748,245.004 148.868,245.076 148.964,245.196 C149.3,245.616 149.648,246.132 149.996,246.768 L151.7,246.768 C151.496,246.264 151.244,245.772 151.052,245.46 C151.004,245.4 150.992,245.328 150.992,245.268 C150.992,245.112 151.1,244.992 151.292,244.932 C151.364,244.92 151.424,244.908 151.484,244.908 C151.652,244.908 151.772,244.98 151.88,245.148 C152.108,245.52 152.324,246.024 152.6,246.768 L153.92,246.768 C154.364,246.24 154.724,245.64 154.94,245.196 C155.012,245.04 155.144,244.968 155.3,244.968 C155.372,244.968 155.468,244.98 155.552,245.016 C155.744,245.088 155.84,245.208 155.84,245.352 C155.84,245.412 155.816,245.484 155.78,245.544 C155.552,245.928 155.24,246.372 154.904,246.768 Z M164.228,250.872 L166.928,250.872 C167.696,250.872 168.008,251.148 168.008,251.796 L168.008,254.82 C168.008,255.492 167.696,255.756 166.928,255.756 L161.096,255.756 C160.34,255.756 160.016,255.492 160.016,254.82 L160.016,251.796 C160.016,251.148 160.34,250.872 161.096,250.872 L163.268,250.872 C163.436,250.596 163.568,250.32 163.676,250.092 C163.736,249.948 163.88,249.852 164.06,249.852 C164.108,249.852 164.168,249.864 164.228,249.876 C164.432,249.936 164.54,250.068 164.54,250.212 C164.54,250.248 164.528,250.284 164.528,250.32 C164.456,250.464 164.348,250.68 164.228,250.872 Z M160.928,252.84 L167.096,252.84 L167.096,251.964 C167.096,251.724 166.988,251.664 166.748,251.664 L161.264,251.664 C161.024,251.664 160.928,251.724 160.928,251.964 L160.928,252.84 Z M160.928,253.632 L160.928,254.64 C160.928,254.88 161.024,254.94 161.264,254.94 L166.748,254.94 C166.988,254.94 167.096,254.88 167.096,254.64 L167.096,253.632 L160.928,253.632 Z M158.996,245.244 L162.716,245.244 C163.436,245.244 163.724,245.508 163.724,246.192 L163.724,249.192 C163.724,249.864 163.244,250.116 162.536,250.116 C162.164,250.116 161.864,250.092 161.6,250.032 C161.432,249.996 161.3,249.852 161.3,249.66 C161.3,249.624 161.3,249.576 161.312,249.54 C161.36,249.36 161.492,249.252 161.66,249.252 C161.684,249.252 161.72,249.252 161.744,249.264 C161.96,249.312 162.152,249.348 162.428,249.348 C162.776,249.348 162.86,249.312 162.86,249.012 L162.86,246.348 C162.86,246.108 162.752,246.048 162.524,246.048 L158.996,246.048 C158.78,246.048 158.648,245.892 158.648,245.652 C158.648,245.4 158.78,245.244 158.996,245.244 Z M169.04,246.192 L169.04,249.276 C169.04,249.948 168.596,250.188 167.888,250.188 C167.456,250.188 167,250.152 166.76,250.08 C166.604,250.044 166.46,249.912 166.46,249.708 C166.46,249.66 166.46,249.624 166.472,249.576 C166.52,249.396 166.652,249.288 166.832,249.288 C166.868,249.288 166.916,249.288 166.952,249.3 C167.132,249.348 167.42,249.396 167.72,249.396 C168.068,249.396 168.152,249.348 168.152,249.012 L168.152,246.348 C168.152,246.108 168.044,246.048 167.816,246.048 L164.42,246.048 C164.216,246.048 164.084,245.892 164.084,245.652 C164.084,245.4 164.216,245.244 164.42,245.244 L168.02,245.244 C168.752,245.244 169.04,245.508 169.04,246.192 Z M167.06,247.788 C167.144,247.74 167.24,247.716 167.312,247.716 C167.456,247.716 167.564,247.788 167.648,247.92 C167.672,247.98 167.696,248.052 167.696,248.124 C167.696,248.244 167.648,248.364 167.504,248.448 C166.808,248.868 165.704,249.396 164.84,249.648 C164.768,249.672 164.708,249.684 164.648,249.684 C164.48,249.684 164.348,249.6 164.288,249.444 C164.252,249.372 164.24,249.312 164.24,249.252 C164.24,249.084 164.36,248.94 164.54,248.892 C165.356,248.652 166.4,248.184 167.06,247.788 Z M160.028,246.36 C160.424,246.504 161,246.768 161.432,247.044 C161.552,247.128 161.624,247.26 161.624,247.392 C161.624,247.476 161.6,247.548 161.552,247.62 C161.456,247.74 161.312,247.8 161.18,247.8 C161.096,247.8 161.012,247.776 160.952,247.74 C160.52,247.476 160.004,247.224 159.584,247.044 C159.464,246.984 159.404,246.888 159.404,246.768 C159.404,246.696 159.428,246.612 159.476,246.54 C159.548,246.408 159.692,246.324 159.86,246.324 C159.908,246.324 159.968,246.336 160.028,246.36 Z M161.768,247.92 C161.864,247.86 161.972,247.824 162.068,247.824 C162.2,247.824 162.308,247.884 162.38,247.992 C162.428,248.076 162.452,248.16 162.452,248.244 C162.452,248.364 162.392,248.484 162.26,248.568 C161.516,249.036 160.292,249.612 159.38,249.972 C159.284,250.008 159.2,250.02 159.128,250.02 C158.936,250.02 158.792,249.924 158.732,249.768 C158.708,249.708 158.696,249.648 158.696,249.588 C158.696,249.42 158.804,249.252 158.996,249.192 C159.884,248.892 161.108,248.328 161.768,247.92 Z M165.188,246.36 C165.584,246.504 166.148,246.78 166.568,247.032 C166.688,247.116 166.76,247.236 166.76,247.368 C166.76,247.428 166.748,247.5 166.712,247.56 C166.616,247.728 166.46,247.8 166.316,247.8 C166.244,247.8 166.172,247.776 166.112,247.74 C165.68,247.476 165.164,247.224 164.78,247.056 C164.636,246.996 164.564,246.888 164.564,246.768 C164.564,246.684 164.588,246.612 164.636,246.54 C164.708,246.408 164.852,246.324 165.02,246.324 C165.068,246.324 165.128,246.336 165.188,246.36 Z M172.844,255.6 L172.844,251.1 C172.844,250.836 172.856,250.38 172.94,250.044 C172.376,250.656 171.764,251.208 171.152,251.64 C171.032,251.724 170.912,251.772 170.804,251.772 C170.672,251.772 170.552,251.712 170.456,251.568 C170.396,251.484 170.36,251.388 170.36,251.292 C170.36,251.16 170.42,251.04 170.576,250.932 C172.004,250.008 173.216,248.616 174.008,247.152 L170.912,247.152 C170.696,247.152 170.576,246.948 170.576,246.708 C170.576,246.456 170.696,246.276 170.912,246.276 L174.44,246.276 C174.608,245.88 174.752,245.472 174.848,245.076 C174.908,244.86 175.04,244.764 175.256,244.764 C175.304,244.764 175.352,244.764 175.4,244.776 C175.652,244.824 175.748,244.968 175.748,245.124 C175.748,245.172 175.736,245.22 175.724,245.268 C175.628,245.604 175.508,245.94 175.376,246.276 L181.136,246.276 C181.364,246.276 181.484,246.456 181.484,246.708 C181.484,246.948 181.364,247.152 181.136,247.152 L174.968,247.152 C174.716,247.62 174.452,248.076 174.152,248.52 C174.38,248.46 174.824,248.436 175.16,248.436 L178.892,248.436 C179.624,248.436 179.96,248.736 179.96,249.444 L179.96,254.688 C179.96,255.528 179.528,255.84 178.508,255.84 C178.016,255.84 177.56,255.792 177.212,255.708 C177.008,255.66 176.876,255.516 176.876,255.3 C176.876,255.264 176.876,255.216 176.888,255.168 C176.936,254.964 177.08,254.832 177.26,254.832 C177.296,254.832 177.332,254.832 177.38,254.856 C177.656,254.928 178.052,255 178.376,255 C178.94,255 179.06,254.904 179.06,254.496 L179.06,253.26 L173.768,253.26 L173.768,255.6 C173.768,255.816 173.576,255.96 173.312,255.96 C173.036,255.96 172.844,255.816 172.844,255.6 Z M173.768,251.256 L173.768,252.444 L179.06,252.444 L179.06,251.256 L173.768,251.256 Z M179.06,250.44 L179.06,249.576 C179.06,249.336 178.94,249.252 178.7,249.252 L174.128,249.252 C173.888,249.252 173.768,249.336 173.768,249.576 L173.768,250.44 L179.06,250.44 Z M189.836,248.316 L188.696,248.316 C188.48,248.316 188.36,248.148 188.36,247.896 C188.36,247.656 188.48,247.488 188.696,247.488 L189.884,247.488 C189.908,246.816 189.92,246.096 189.92,245.316 C189.92,245.028 190.088,244.908 190.364,244.908 C190.64,244.908 190.844,245.028 190.844,245.328 C190.844,246.096 190.832,246.816 190.796,247.488 L192.152,247.488 C192.908,247.488 193.22,247.776 193.22,248.496 C193.208,251.58 193.028,253.428 192.788,254.472 C192.572,255.42 192.188,255.756 191.396,255.756 C190.952,255.756 190.544,255.72 190.22,255.636 C190.052,255.6 189.92,255.42 189.92,255.192 C189.92,255.156 189.92,255.108 189.932,255.072 C189.98,254.844 190.148,254.7 190.328,254.7 C190.352,254.7 190.376,254.7 190.4,254.712 C190.688,254.784 190.976,254.832 191.216,254.832 C191.612,254.832 191.768,254.7 191.888,254.172 C192.104,253.188 192.296,251.4 192.296,248.652 C192.296,248.376 192.164,248.316 191.9,248.316 L190.748,248.316 C190.64,249.828 190.436,251.088 190.076,252.192 C189.62,253.572 188.924,254.772 187.88,255.708 C187.76,255.804 187.628,255.864 187.508,255.864 C187.376,255.864 187.256,255.816 187.16,255.708 C187.064,255.612 187.028,255.504 187.028,255.396 C187.028,255.264 187.1,255.12 187.22,255.012 C188.156,254.172 188.816,253.104 189.224,251.892 C189.56,250.884 189.752,249.708 189.836,248.316 Z M185.276,252.288 C184.892,251.856 184.484,251.436 184.088,251.064 C184.004,250.98 183.956,250.872 183.956,250.764 C183.956,250.668 184.004,250.56 184.088,250.464 C184.184,250.356 184.304,250.308 184.412,250.308 C184.508,250.308 184.592,250.344 184.664,250.416 C185,250.716 185.372,251.076 185.732,251.472 C185.936,251.04 186.116,250.584 186.248,250.104 C186.296,249.936 186.44,249.852 186.596,249.852 C186.656,249.852 186.728,249.864 186.788,249.876 C186.992,249.936 187.1,250.068 187.1,250.236 C187.1,250.284 187.088,250.332 187.076,250.38 C186.896,251.004 186.644,251.604 186.344,252.168 C186.74,252.612 187.1,253.068 187.4,253.5 C187.472,253.608 187.508,253.716 187.508,253.824 C187.508,253.956 187.46,254.076 187.34,254.16 C187.244,254.232 187.124,254.268 187.004,254.268 C186.872,254.268 186.728,254.208 186.644,254.076 C186.416,253.728 186.152,253.356 185.852,252.996 C185.132,254.076 184.232,255 183.26,255.66 C183.176,255.708 183.092,255.744 182.996,255.744 C182.864,255.744 182.732,255.672 182.624,255.54 C182.564,255.444 182.528,255.336 182.528,255.24 C182.528,255.096 182.588,254.964 182.72,254.88 C183.716,254.22 184.604,253.344 185.276,252.288 Z M186.032,246.528 L188.06,246.528 C188.276,246.528 188.396,246.696 188.396,246.948 C188.396,247.188 188.276,247.368 188.06,247.368 L182.924,247.368 C182.708,247.368 182.588,247.188 182.588,246.948 C182.588,246.696 182.708,246.528 182.924,246.528 L185.132,246.528 L185.132,245.208 C185.132,244.98 185.324,244.86 185.588,244.86 C185.852,244.86 186.032,244.98 186.032,245.208 L186.032,246.528 Z M184.604,247.86 C184.76,247.932 184.856,248.064 184.856,248.232 C184.856,248.292 184.844,248.364 184.808,248.436 C184.436,249.312 183.896,250.176 183.284,250.788 C183.188,250.872 183.08,250.92 182.96,250.92 C182.84,250.92 182.72,250.872 182.612,250.788 C182.528,250.716 182.48,250.608 182.48,250.488 C182.48,250.368 182.528,250.236 182.648,250.116 C183.152,249.6 183.644,248.904 183.992,248.04 C184.052,247.884 184.208,247.812 184.376,247.812 C184.448,247.812 184.532,247.824 184.604,247.86 Z M186.608,247.86 C186.68,247.824 186.764,247.812 186.848,247.812 C186.98,247.812 187.112,247.872 187.184,248.016 C187.46,248.568 188.012,249.3 188.468,249.78 C188.588,249.9 188.636,250.02 188.636,250.14 C188.636,250.26 188.588,250.368 188.492,250.452 C188.408,250.536 188.3,250.584 188.18,250.584 C188.06,250.584 187.928,250.536 187.832,250.428 C187.352,249.924 186.716,249.036 186.392,248.376 C186.368,248.316 186.356,248.256 186.356,248.196 C186.356,248.052 186.44,247.932 186.608,247.86 Z M201.368,251.652 L199.124,251.652 C198.884,251.652 198.74,251.448 198.74,251.208 C198.74,250.98 198.86,250.812 199.076,250.812 L201.368,250.812 L201.368,248.388 L199.616,248.388 C199.4,249.036 199.112,249.66 198.776,250.248 C198.68,250.416 198.548,250.5 198.404,250.5 C198.32,250.5 198.236,250.476 198.152,250.428 C197.996,250.356 197.924,250.224 197.924,250.092 C197.924,250.008 197.948,249.924 198.008,249.828 C198.716,248.676 199.148,247.308 199.316,245.928 C199.34,245.712 199.472,245.604 199.712,245.604 L199.796,245.604 C200.036,245.628 200.168,245.772 200.168,245.976 L200.168,246.048 C200.096,246.552 200,247.056 199.88,247.536 L201.368,247.536 L201.368,245.22 C201.368,244.992 201.536,244.872 201.812,244.872 C202.1,244.872 202.28,244.992 202.28,245.22 L202.28,247.536 L204.932,247.536 C205.148,247.536 205.28,247.692 205.28,247.956 C205.28,248.208 205.148,248.388 204.932,248.388 L202.28,248.388 L202.28,250.812 L204.728,250.812 C204.944,250.812 205.064,250.968 205.064,251.22 C205.064,251.46 204.944,251.652 204.728,251.652 L202.28,251.652 L202.28,254.7 L205.232,254.7 C205.46,254.7 205.58,254.868 205.58,255.132 C205.58,255.384 205.46,255.576 205.232,255.576 L198.164,255.576 C197.936,255.576 197.816,255.384 197.816,255.132 C197.816,254.868 197.936,254.7 198.164,254.7 L201.368,254.7 L201.368,251.652 Z M196.928,245.208 L196.928,255.684 C196.928,255.912 196.748,256.032 196.472,256.032 C196.22,256.032 196.04,255.912 196.04,255.684 L196.04,245.208 C196.04,244.98 196.22,244.86 196.472,244.86 C196.748,244.86 196.928,244.98 196.928,245.208 Z M195.26,247.26 C195.464,247.272 195.632,247.368 195.632,247.632 L195.632,247.656 C195.584,248.52 195.404,249.636 195.176,250.428 C195.116,250.632 194.972,250.716 194.804,250.716 C194.756,250.716 194.72,250.704 194.672,250.692 C194.504,250.644 194.396,250.524 194.396,250.356 C194.396,250.308 194.408,250.26 194.42,250.212 C194.636,249.504 194.804,248.46 194.852,247.584 C194.864,247.356 195.032,247.26 195.224,247.26 L195.26,247.26 Z M197.948,247.308 C198.092,247.728 198.26,248.28 198.32,248.616 C198.332,248.64 198.332,248.664 198.332,248.688 C198.332,248.868 198.224,249 198.056,249.048 C198.008,249.06 197.972,249.06 197.936,249.06 C197.768,249.06 197.624,248.952 197.6,248.772 C197.54,248.46 197.396,247.908 197.264,247.524 C197.252,247.488 197.24,247.452 197.24,247.416 C197.24,247.26 197.348,247.152 197.492,247.104 C197.552,247.092 197.612,247.08 197.66,247.08 C197.792,247.08 197.888,247.152 197.948,247.308 Z" id="学習有効性-copy" fill="#2F6070"></path>
                <path d="M-2.548,130.3 L-4.816,130.3 C-5.2,130.552 -5.596,130.792 -6.016,131.008 C-6.088,131.044 -6.172,131.068 -6.256,131.068 C-6.376,131.068 -6.508,131.008 -6.592,130.852 C-6.628,130.768 -6.652,130.684 -6.652,130.612 C-6.652,130.468 -6.568,130.348 -6.424,130.276 C-5.44,129.796 -4.528,129.184 -3.712,128.476 L-6.292,128.476 C-6.508,128.476 -6.616,128.332 -6.616,128.128 C-6.616,127.9 -6.508,127.756 -6.292,127.756 L-4.168,127.756 L-4.168,126.46 L-5.848,126.46 C-6.052,126.46 -6.172,126.304 -6.172,126.088 C-6.172,125.872 -6.052,125.716 -5.848,125.716 L-4.168,125.716 L-4.168,124.72 C-4.168,124.504 -3.988,124.384 -3.748,124.384 C-3.496,124.384 -3.328,124.504 -3.328,124.72 L-3.328,125.716 L-2.248,125.716 C-2.044,125.716 -1.924,125.86 -1.924,126.076 C-1.924,126.304 -2.056,126.46 -2.248,126.46 L-3.328,126.46 L-3.328,127.756 L-2.944,127.756 C-2.176,126.964 -1.528,126.088 -1,125.116 C-0.928,124.984 -0.796,124.9 -0.64,124.9 C-0.568,124.9 -0.496,124.912 -0.424,124.948 C-0.268,125.032 -0.184,125.176 -0.184,125.308 C-0.184,125.38 -0.196,125.44 -0.232,125.5 C-0.664,126.28 -1.204,127.036 -1.84,127.756 L-0.976,127.756 C-0.796,127.756 -0.676,127.876 -0.676,128.08 L-0.676,128.104 C-0.688,128.308 -0.82,128.476 -1.024,128.476 L-2.536,128.476 C-2.944,128.872 -3.376,129.244 -3.82,129.592 L-2.068,129.592 C-1.612,129.592 -1.372,129.88 -1.372,130.192 C-1.372,130.348 -1.432,130.516 -1.576,130.648 C-1.936,131.02 -2.5,131.404 -3.004,131.68 L-3.004,131.944 C-2.32,131.872 -1.684,131.764 -1.12,131.668 C-1.084,131.656 -1.06,131.656 -1.036,131.656 C-0.856,131.656 -0.724,131.752 -0.688,131.968 C-0.676,132.004 -0.676,132.04 -0.676,132.076 C-0.676,132.256 -0.784,132.4 -1,132.448 C-1.6,132.556 -2.296,132.664 -3.004,132.748 L-3.004,134.44 C-3.004,135.16 -3.4,135.424 -4.132,135.424 C-4.516,135.424 -4.888,135.388 -5.116,135.34 C-5.272,135.304 -5.416,135.184 -5.416,134.956 C-5.416,134.92 -5.416,134.872 -5.404,134.836 C-5.368,134.608 -5.2,134.5 -5.032,134.5 C-5.008,134.5 -4.984,134.5 -4.96,134.512 C-4.78,134.548 -4.528,134.596 -4.288,134.596 C-3.916,134.596 -3.844,134.548 -3.844,134.224 L-3.844,132.844 C-4.624,132.916 -5.416,132.976 -6.16,133.024 L-6.184,133.024 C-6.4,133.024 -6.544,132.892 -6.568,132.628 L-6.568,132.568 C-6.568,132.34 -6.448,132.196 -6.256,132.196 C-5.476,132.172 -4.648,132.124 -3.844,132.04 L-3.844,131.416 C-3.844,131.212 -3.664,131.104 -3.412,131.104 L-3.388,131.104 C-3.004,130.912 -2.668,130.696 -2.44,130.492 C-2.404,130.456 -2.38,130.42 -2.38,130.396 C-2.38,130.336 -2.452,130.3 -2.548,130.3 Z M4.148,127.396 L3.632,127.396 C3.572,128.26 3.488,129.1 3.248,129.928 C3.02,130.756 2.684,131.572 2.216,132.28 C2.804,133.144 3.524,133.852 4.448,134.5 C4.58,134.596 4.64,134.728 4.64,134.86 C4.64,134.968 4.604,135.076 4.532,135.172 C4.424,135.316 4.28,135.4 4.136,135.4 C4.052,135.4 3.956,135.364 3.872,135.304 C3.008,134.656 2.276,133.912 1.676,133.06 C0.992,133.924 0.128,134.692 -0.892,135.34 C-1,135.412 -1.12,135.448 -1.24,135.448 C-1.372,135.448 -1.504,135.388 -1.6,135.256 C-1.672,135.16 -1.696,135.064 -1.696,134.968 C-1.696,134.8 -1.612,134.656 -1.48,134.572 C-0.376,133.9 0.5,133.144 1.172,132.256 C0.668,131.32 0.308,130.3 0.116,129.256 C-0.04,129.544 -0.196,129.808 -0.376,130.06 C-0.448,130.168 -0.556,130.228 -0.688,130.228 C-0.784,130.228 -0.88,130.192 -0.976,130.108 C-1.096,130.012 -1.156,129.892 -1.156,129.772 C-1.156,129.676 -1.12,129.592 -1.06,129.496 C-0.16,128.224 0.44,126.412 0.68,124.756 C0.728,124.504 0.86,124.408 1.064,124.408 C1.112,124.408 1.148,124.408 1.184,124.42 C1.436,124.456 1.568,124.576 1.568,124.792 L1.568,124.876 C1.472,125.428 1.352,126.004 1.184,126.58 L4.136,126.58 C4.364,126.58 4.484,126.748 4.484,126.976 C4.484,127.216 4.376,127.396 4.148,127.396 Z M2.756,127.396 L0.92,127.396 C0.848,127.636 0.752,127.864 0.656,128.104 C0.872,129.232 1.184,130.384 1.712,131.416 C2.108,130.696 2.384,129.916 2.552,129.112 C2.672,128.548 2.72,127.972 2.756,127.396 Z M7.976,125.944 L8.756,125.944 C9.404,125.944 9.74,126.208 9.74,126.82 L9.74,128.62 C9.74,129.232 9.428,129.472 8.72,129.472 L6.596,129.472 L6.596,130.768 L8.792,130.768 C9.5,130.768 9.812,131.032 9.812,131.656 L9.812,133.924 C9.812,134.572 9.5,134.824 8.792,134.824 L6.764,134.824 C6.056,134.824 5.744,134.572 5.744,133.924 L5.744,126.82 C5.744,126.22 6.056,125.944 6.728,125.944 L7.064,125.944 C7.28,125.5 7.448,125.056 7.58,124.66 C7.64,124.492 7.772,124.42 7.952,124.42 C8,124.42 8.048,124.42 8.108,124.432 C8.336,124.468 8.456,124.588 8.456,124.732 C8.456,124.78 8.444,124.816 8.432,124.852 C8.324,125.188 8.168,125.572 7.976,125.944 Z M6.596,128.68 L8.528,128.68 C8.756,128.68 8.876,128.62 8.876,128.404 L8.876,127.036 C8.876,126.82 8.756,126.748 8.528,126.748 L6.932,126.748 C6.704,126.748 6.596,126.82 6.596,127.036 L6.596,128.68 Z M6.596,131.584 L6.596,133.72 C6.596,133.948 6.704,134.008 6.932,134.008 L8.6,134.008 C8.828,134.008 8.936,133.948 8.936,133.72 L8.936,131.872 C8.936,131.656 8.828,131.584 8.6,131.584 L6.596,131.584 Z M13.724,127.228 L15.2,127.228 C15.836,127.228 16.16,127.504 16.16,128.188 L16.16,133.012 C16.16,133.648 15.764,133.96 15.164,133.96 C14.876,133.96 14.6,133.948 14.372,133.9 C14.144,133.852 14.024,133.696 14.024,133.504 C14.024,133.468 14.024,133.432 14.036,133.396 C14.072,133.168 14.228,133.072 14.396,133.072 C14.42,133.072 14.456,133.072 14.48,133.084 C14.6,133.108 14.804,133.132 14.948,133.132 C15.176,133.132 15.272,133.048 15.272,132.832 L15.272,128.344 C15.272,128.104 15.14,128.032 14.936,128.032 L13.724,128.032 L13.724,135.196 C13.724,135.412 13.544,135.532 13.28,135.532 C13.028,135.532 12.836,135.412 12.836,135.196 L12.836,128.032 L11.828,128.032 C11.612,128.032 11.492,128.104 11.492,128.344 L11.492,133.756 C11.492,133.984 11.252,134.08 11.012,134.08 C10.784,134.08 10.58,133.984 10.58,133.756 L10.58,128.188 C10.58,127.504 10.892,127.228 11.528,127.228 L12.836,127.228 L12.836,125.74 L10.436,125.74 C10.22,125.74 10.1,125.572 10.1,125.32 C10.1,125.08 10.22,124.912 10.436,124.912 L16.196,124.912 C16.412,124.912 16.532,125.068 16.532,125.32 C16.532,125.56 16.412,125.74 16.196,125.74 L13.724,125.74 L13.724,127.228 Z M24.836,127.816 L23.696,127.816 C23.48,127.816 23.36,127.648 23.36,127.396 C23.36,127.156 23.48,126.988 23.696,126.988 L24.884,126.988 C24.908,126.316 24.92,125.596 24.92,124.816 C24.92,124.528 25.088,124.408 25.364,124.408 C25.64,124.408 25.844,124.528 25.844,124.828 C25.844,125.596 25.832,126.316 25.796,126.988 L27.152,126.988 C27.908,126.988 28.22,127.276 28.22,127.996 C28.208,131.08 28.028,132.928 27.788,133.972 C27.572,134.92 27.188,135.256 26.396,135.256 C25.952,135.256 25.544,135.22 25.22,135.136 C25.052,135.1 24.92,134.92 24.92,134.692 C24.92,134.656 24.92,134.608 24.932,134.572 C24.98,134.344 25.148,134.2 25.328,134.2 C25.352,134.2 25.376,134.2 25.4,134.212 C25.688,134.284 25.976,134.332 26.216,134.332 C26.612,134.332 26.768,134.2 26.888,133.672 C27.104,132.688 27.296,130.9 27.296,128.152 C27.296,127.876 27.164,127.816 26.9,127.816 L25.748,127.816 C25.64,129.328 25.436,130.588 25.076,131.692 C24.62,133.072 23.924,134.272 22.88,135.208 C22.76,135.304 22.628,135.364 22.508,135.364 C22.376,135.364 22.256,135.316 22.16,135.208 C22.064,135.112 22.028,135.004 22.028,134.896 C22.028,134.764 22.1,134.62 22.22,134.512 C23.156,133.672 23.816,132.604 24.224,131.392 C24.56,130.384 24.752,129.208 24.836,127.816 Z M20.276,131.788 C19.892,131.356 19.484,130.936 19.088,130.564 C19.004,130.48 18.956,130.372 18.956,130.264 C18.956,130.168 19.004,130.06 19.088,129.964 C19.184,129.856 19.304,129.808 19.412,129.808 C19.508,129.808 19.592,129.844 19.664,129.916 C20,130.216 20.372,130.576 20.732,130.972 C20.936,130.54 21.116,130.084 21.248,129.604 C21.296,129.436 21.44,129.352 21.596,129.352 C21.656,129.352 21.728,129.364 21.788,129.376 C21.992,129.436 22.1,129.568 22.1,129.736 C22.1,129.784 22.088,129.832 22.076,129.88 C21.896,130.504 21.644,131.104 21.344,131.668 C21.74,132.112 22.1,132.568 22.4,133 C22.472,133.108 22.508,133.216 22.508,133.324 C22.508,133.456 22.46,133.576 22.34,133.66 C22.244,133.732 22.124,133.768 22.004,133.768 C21.872,133.768 21.728,133.708 21.644,133.576 C21.416,133.228 21.152,132.856 20.852,132.496 C20.132,133.576 19.232,134.5 18.26,135.16 C18.176,135.208 18.092,135.244 17.996,135.244 C17.864,135.244 17.732,135.172 17.624,135.04 C17.564,134.944 17.528,134.836 17.528,134.74 C17.528,134.596 17.588,134.464 17.72,134.38 C18.716,133.72 19.604,132.844 20.276,131.788 Z M21.032,126.028 L23.06,126.028 C23.276,126.028 23.396,126.196 23.396,126.448 C23.396,126.688 23.276,126.868 23.06,126.868 L17.924,126.868 C17.708,126.868 17.588,126.688 17.588,126.448 C17.588,126.196 17.708,126.028 17.924,126.028 L20.132,126.028 L20.132,124.708 C20.132,124.48 20.324,124.36 20.588,124.36 C20.852,124.36 21.032,124.48 21.032,124.708 L21.032,126.028 Z M19.604,127.36 C19.76,127.432 19.856,127.564 19.856,127.732 C19.856,127.792 19.844,127.864 19.808,127.936 C19.436,128.812 18.896,129.676 18.284,130.288 C18.188,130.372 18.08,130.42 17.96,130.42 C17.84,130.42 17.72,130.372 17.612,130.288 C17.528,130.216 17.48,130.108 17.48,129.988 C17.48,129.868 17.528,129.736 17.648,129.616 C18.152,129.1 18.644,128.404 18.992,127.54 C19.052,127.384 19.208,127.312 19.376,127.312 C19.448,127.312 19.532,127.324 19.604,127.36 Z M21.608,127.36 C21.68,127.324 21.764,127.312 21.848,127.312 C21.98,127.312 22.112,127.372 22.184,127.516 C22.46,128.068 23.012,128.8 23.468,129.28 C23.588,129.4 23.636,129.52 23.636,129.64 C23.636,129.76 23.588,129.868 23.492,129.952 C23.408,130.036 23.3,130.084 23.18,130.084 C23.06,130.084 22.928,130.036 22.832,129.928 C22.352,129.424 21.716,128.536 21.392,127.876 C21.368,127.816 21.356,127.756 21.356,127.696 C21.356,127.552 21.44,127.432 21.608,127.36 Z M34.28,126.184 L29.864,126.184 C29.648,126.184 29.54,125.992 29.54,125.752 C29.54,125.512 29.648,125.344 29.864,125.344 L34.46,125.344 L34.46,124.696 C34.46,124.468 34.616,124.3 34.916,124.3 C35.216,124.3 35.384,124.468 35.384,124.696 L35.384,125.344 L40.124,125.344 C40.34,125.344 40.448,125.512 40.448,125.752 C40.448,125.992 40.34,126.184 40.124,126.184 L35.216,126.184 C34.868,126.784 34.472,127.36 34.004,127.864 C34.244,128.092 34.484,128.332 34.7,128.584 C35.168,128.08 35.588,127.588 35.972,127.06 C36.044,126.976 36.128,126.94 36.224,126.94 C36.308,126.94 36.404,126.964 36.5,127.024 C36.632,127.108 36.692,127.204 36.692,127.312 C36.692,127.384 36.656,127.468 36.608,127.54 C35.828,128.512 35.084,129.316 34.052,130.216 C34.82,130.168 35.588,130.096 36.356,129.976 C36.188,129.76 36.032,129.556 35.864,129.388 C35.804,129.328 35.78,129.268 35.78,129.208 C35.78,129.1 35.84,129.004 35.96,128.92 C36.044,128.848 36.128,128.824 36.2,128.824 C36.296,128.824 36.38,128.872 36.464,128.956 C36.944,129.46 37.436,130.12 37.784,130.672 C37.832,130.744 37.856,130.816 37.856,130.888 C37.856,131.02 37.784,131.14 37.64,131.224 C37.58,131.26 37.508,131.272 37.448,131.272 C37.304,131.272 37.172,131.2 37.112,131.104 C37.016,130.948 36.908,130.768 36.788,130.6 C35.372,130.852 33.788,131.02 32.48,131.068 L32.456,131.068 C32.204,131.068 32.06,130.912 32.048,130.672 L32.048,130.648 C32.048,130.408 32.216,130.276 32.432,130.276 C32.612,130.276 32.804,130.276 32.984,130.264 C33.332,129.952 33.668,129.628 34.004,129.304 C34.064,129.244 34.124,129.196 34.172,129.136 C33.692,128.632 33.116,128.104 32.624,127.708 C32.552,127.648 32.504,127.54 32.504,127.432 C32.504,127.348 32.528,127.264 32.6,127.192 C32.684,127.084 32.792,127.036 32.9,127.036 C32.984,127.036 33.068,127.06 33.14,127.12 C33.236,127.192 33.344,127.276 33.44,127.372 C33.752,127 34.052,126.604 34.28,126.184 Z M34.472,132.988 L29.876,132.988 C29.66,132.988 29.516,132.832 29.516,132.568 C29.516,132.316 29.66,132.148 29.876,132.148 L34.472,132.148 L34.472,131.428 C34.472,131.224 34.652,131.092 34.916,131.092 C35.204,131.092 35.36,131.224 35.36,131.428 L35.36,132.148 L40.112,132.148 C40.34,132.148 40.472,132.304 40.472,132.568 C40.472,132.832 40.34,132.988 40.112,132.988 L35.36,132.988 L35.36,135.244 C35.36,135.46 35.204,135.592 34.916,135.592 C34.652,135.592 34.472,135.46 34.472,135.244 L34.472,132.988 Z M30.86,126.736 C31.292,127.06 31.796,127.528 32.18,127.96 C32.252,128.044 32.288,128.152 32.288,128.248 C32.288,128.368 32.24,128.476 32.156,128.56 C32.06,128.632 31.94,128.68 31.82,128.68 C31.712,128.68 31.604,128.632 31.52,128.548 C31.22,128.188 30.752,127.756 30.296,127.408 C30.2,127.336 30.14,127.228 30.14,127.108 C30.14,127.012 30.176,126.916 30.26,126.832 C30.368,126.724 30.5,126.664 30.632,126.664 C30.716,126.664 30.8,126.688 30.86,126.736 Z M39.428,126.736 C39.548,126.82 39.596,126.94 39.596,127.048 C39.596,127.144 39.56,127.228 39.5,127.3 C39.104,127.756 38.504,128.272 37.94,128.644 C37.868,128.692 37.784,128.716 37.7,128.716 C37.568,128.716 37.436,128.656 37.34,128.548 C37.268,128.476 37.244,128.38 37.244,128.284 C37.244,128.164 37.304,128.044 37.4,127.984 C37.892,127.672 38.492,127.18 38.816,126.796 C38.9,126.688 39.02,126.64 39.152,126.64 C39.236,126.64 39.344,126.676 39.428,126.736 Z M38.204,129.064 C38.792,129.4 39.536,129.952 40.064,130.468 C40.16,130.552 40.196,130.66 40.196,130.768 C40.196,130.876 40.16,130.984 40.076,131.068 C39.992,131.164 39.86,131.224 39.74,131.224 C39.632,131.224 39.524,131.188 39.44,131.104 C39.008,130.672 38.228,130.084 37.652,129.724 C37.544,129.652 37.484,129.532 37.484,129.4 C37.484,129.316 37.508,129.232 37.568,129.16 C37.664,129.04 37.796,128.98 37.928,128.98 C38.012,128.98 38.108,129.004 38.204,129.064 Z M32.06,129.136 C32.144,129.076 32.228,129.04 32.324,129.04 C32.444,129.04 32.576,129.1 32.648,129.208 C32.708,129.292 32.744,129.388 32.744,129.484 C32.744,129.592 32.696,129.7 32.588,129.784 C31.94,130.288 31.076,130.804 30.332,131.116 C30.26,131.152 30.188,131.164 30.116,131.164 C29.948,131.164 29.804,131.068 29.72,130.9 C29.696,130.84 29.684,130.768 29.684,130.708 C29.684,130.54 29.78,130.384 29.948,130.324 C30.668,130.036 31.52,129.568 32.06,129.136 Z" id="教師効率-copy" fill="#2F6070" transform="translate(16.910000, 129.946000) rotate(270.000000) translate(-16.910000, -129.946000) "></path>
            </g>
            <g id="Traditional-Lectures" transform="translate(42.000000, 108.000000)">
                <g id="Trad-Ellipse">
                    <use fill="black" fill-opacity="1" filter="url(#filter-3)" xlink:href="#path-2"></use>
                    <use fill="#F3C68D" fill-rule="evenodd" xlink:href="#path-2"></use>
                </g>
                <path d="M30.312,31.744 L30.312,28.396 C30.312,27.724 30.348,27.1 30.42,26.608 C30.168,26.92 29.856,27.232 29.544,27.472 C29.46,27.532 29.364,27.568 29.268,27.568 C29.136,27.568 29.016,27.508 28.92,27.388 C28.86,27.304 28.824,27.196 28.824,27.1 C28.824,26.968 28.884,26.848 28.992,26.764 C30.012,25.96 30.708,25.096 31.368,23.968 C31.452,23.836 31.56,23.764 31.704,23.764 C31.776,23.764 31.86,23.788 31.956,23.836 C32.112,23.92 32.196,24.052 32.196,24.184 C32.196,24.256 32.184,24.316 32.148,24.376 C31.884,24.844 31.584,25.288 31.224,25.72 L31.224,31.744 C31.224,31.96 31.044,32.08 30.768,32.08 C30.492,32.08 30.312,31.96 30.312,31.744 Z M35.544,24.532 L32.856,24.532 C32.628,24.532 32.508,24.364 32.508,24.112 C32.508,23.86 32.628,23.692 32.856,23.692 L36.42,23.692 C36.924,22.96 37.392,22.036 37.692,21.256 C37.752,21.1 37.884,21.004 38.076,21.004 C38.148,21.004 38.22,21.016 38.292,21.04 C38.496,21.112 38.616,21.256 38.616,21.424 C38.616,21.472 38.604,21.532 38.58,21.58 C38.304,22.228 37.848,23.032 37.404,23.692 L39.552,23.692 C39.768,23.692 39.888,23.86 39.888,24.112 C39.888,24.364 39.768,24.532 39.552,24.532 L36.456,24.532 L36.456,26.74 L39.084,26.74 C39.3,26.74 39.42,26.908 39.42,27.148 C39.42,27.388 39.3,27.58 39.084,27.58 L36.456,27.58 L36.456,30.424 C36.588,30.46 36.732,30.484 36.876,30.508 C37.464,30.604 38.124,30.652 38.916,30.652 C39.156,30.652 39.42,30.652 39.696,30.64 L39.72,30.64 C39.96,30.64 40.116,30.832 40.116,31.108 C40.116,31.42 39.948,31.588 39.672,31.588 C39.444,31.6 39.228,31.6 39.024,31.6 C38.136,31.6 37.368,31.54 36.72,31.42 C35.208,31.144 34.248,30.484 33.564,29.284 C33.312,30.1 32.964,30.88 32.544,31.552 C32.448,31.696 32.316,31.768 32.172,31.768 C32.076,31.768 31.968,31.732 31.872,31.672 C31.74,31.576 31.668,31.444 31.668,31.3 C31.668,31.204 31.704,31.108 31.764,31.012 C32.688,29.692 33.144,27.82 33.216,26.068 C33.228,25.828 33.408,25.72 33.648,25.72 L33.684,25.72 C33.936,25.732 34.116,25.864 34.116,26.104 L34.116,26.128 C34.08,26.836 33.972,27.568 33.816,28.288 C34.2,29.068 34.764,29.704 35.544,30.1 L35.544,24.532 Z M31.968,20.992 C32.112,21.064 32.196,21.184 32.196,21.328 C32.196,21.4 32.172,21.484 32.112,21.568 C31.452,22.576 30.564,23.428 29.676,24.1 C29.58,24.172 29.472,24.22 29.364,24.22 C29.256,24.22 29.136,24.172 29.04,24.052 C28.956,23.956 28.92,23.848 28.92,23.74 C28.92,23.62 28.98,23.488 29.088,23.404 C29.988,22.768 30.816,21.988 31.356,21.112 C31.44,20.992 31.572,20.92 31.704,20.92 C31.788,20.92 31.884,20.944 31.968,20.992 Z M33.732,21.088 C33.828,21.04 33.924,21.016 34.008,21.016 C34.128,21.016 34.248,21.076 34.332,21.16 C34.74,21.664 35.064,22.168 35.328,22.744 C35.352,22.804 35.364,22.864 35.364,22.924 C35.364,23.068 35.28,23.2 35.1,23.284 C35.016,23.32 34.92,23.344 34.836,23.344 C34.668,23.344 34.524,23.272 34.464,23.116 C34.236,22.588 33.972,22.144 33.552,21.616 C33.516,21.556 33.492,21.496 33.492,21.436 C33.492,21.304 33.576,21.172 33.732,21.088 Z M46.848,26.14 L47.892,26.14 C48.42,25.396 48.888,24.424 49.188,23.692 C49.26,23.5 49.416,23.428 49.584,23.428 C49.656,23.428 49.716,23.44 49.788,23.464 C49.98,23.524 50.088,23.644 50.088,23.812 C50.088,23.86 50.076,23.92 50.052,23.992 C49.716,24.724 49.284,25.516 48.828,26.14 L51.612,26.14 C51.828,26.14 51.948,26.296 51.948,26.56 C51.948,26.8 51.828,26.992 51.612,26.992 L47.364,26.992 C48.624,28.636 50.148,29.74 51.78,30.508 C51.936,30.58 52.02,30.736 52.02,30.916 C52.02,31 51.996,31.096 51.948,31.192 C51.852,31.384 51.696,31.468 51.54,31.468 C51.456,31.468 51.384,31.444 51.3,31.408 C49.632,30.556 47.904,29.152 46.74,27.4 C46.8,27.832 46.848,28.324 46.848,28.732 L46.848,31.708 C46.848,31.912 46.68,32.032 46.404,32.032 C46.14,32.032 45.96,31.912 45.96,31.708 L45.96,28.78 C45.96,28.348 45.996,27.928 46.068,27.412 C45.108,29.044 43.284,30.58 41.844,31.36 C41.748,31.42 41.652,31.444 41.556,31.444 C41.388,31.444 41.244,31.348 41.148,31.168 C41.1,31.072 41.076,30.988 41.076,30.904 C41.076,30.736 41.172,30.58 41.352,30.496 C42.828,29.74 44.4,28.456 45.432,26.992 L41.376,26.992 C41.148,26.992 41.04,26.8 41.04,26.56 C41.04,26.296 41.148,26.14 41.376,26.14 L45.96,26.14 L45.96,23.08 L41.988,23.08 C41.772,23.08 41.652,22.9 41.652,22.648 C41.652,22.396 41.772,22.228 41.988,22.228 L45.96,22.228 L45.96,21.184 C45.96,20.968 46.128,20.848 46.404,20.848 C46.68,20.848 46.848,20.968 46.848,21.184 L46.848,22.228 L51,22.228 C51.216,22.228 51.336,22.384 51.336,22.648 C51.336,22.888 51.216,23.08 51,23.08 L46.848,23.08 L46.848,26.14 Z M43.008,23.524 C43.104,23.476 43.188,23.452 43.272,23.452 C43.416,23.452 43.536,23.512 43.608,23.644 C43.896,24.076 44.244,24.688 44.496,25.264 C44.52,25.336 44.532,25.396 44.532,25.444 C44.532,25.6 44.424,25.72 44.232,25.792 C44.148,25.828 44.076,25.84 44.004,25.84 C43.848,25.84 43.716,25.768 43.656,25.612 C43.428,25.096 43.116,24.472 42.828,24.028 C42.792,23.968 42.78,23.908 42.78,23.848 C42.78,23.716 42.852,23.596 43.008,23.524 Z M59.04,22.948 C58.932,24.772 58.668,26.452 58.248,27.736 C57.828,28.972 57.48,29.512 57.06,29.908 C56.676,30.28 56.172,30.436 55.68,30.436 C54.432,30.436 53.436,29.224 53.436,27.208 C53.436,24.22 55.524,22.06 58.8,22.06 C61.632,22.06 63.504,23.908 63.504,26.548 C63.504,28.24 62.772,29.524 61.524,30.316 C60.828,30.76 59.964,31.036 59.004,31.18 C58.956,31.192 58.908,31.192 58.872,31.192 C58.62,31.192 58.416,31.072 58.368,30.772 C58.356,30.736 58.356,30.688 58.356,30.652 C58.356,30.412 58.512,30.232 58.788,30.184 C59.664,30.064 60.588,29.764 61.188,29.32 C61.944,28.756 62.496,27.784 62.496,26.524 C62.496,24.496 61.164,23.02 59.04,22.948 Z M58.044,22.984 C55.848,23.188 54.408,24.868 54.408,27.196 C54.408,28.636 55.02,29.392 55.656,29.392 C55.932,29.392 56.208,29.296 56.46,29.044 C56.724,28.792 57,28.276 57.288,27.4 C57.66,26.272 57.96,24.628 58.044,22.984 Z M42.816,41.044 L44.436,41.044 C45.096,41.044 45.396,41.296 45.396,41.86 L45.396,44.212 L45.816,44.212 C46.02,44.212 46.128,44.356 46.128,44.572 C46.128,44.788 46.02,44.944 45.816,44.944 L45.396,44.944 L45.396,45.952 C45.396,46.624 45.024,46.888 44.16,46.888 C43.788,46.888 43.392,46.876 43.068,46.816 C42.888,46.78 42.768,46.648 42.768,46.444 C42.768,46.42 42.768,46.384 42.78,46.36 C42.816,46.144 42.96,46.048 43.116,46.048 C43.14,46.048 43.164,46.048 43.188,46.06 C43.452,46.108 43.776,46.144 44.052,46.144 C44.52,46.144 44.616,46.072 44.616,45.784 L44.616,44.944 L40.332,44.944 L40.332,46.696 C40.332,46.9 40.188,47.008 39.936,47.008 C39.696,47.008 39.528,46.9 39.528,46.696 L39.528,44.944 L39.168,44.944 C38.964,44.944 38.844,44.788 38.844,44.572 C38.844,44.356 38.964,44.212 39.168,44.212 L39.528,44.212 L39.528,41.86 C39.528,41.296 39.828,41.044 40.488,41.044 L42.036,41.044 L42.036,40.36 L39.216,40.36 C39.024,40.36 38.916,40.204 38.916,40.012 C38.916,39.796 39.024,39.664 39.216,39.664 L40.716,39.664 L40.716,38.86 L39.588,38.86 C39.42,38.86 39.312,38.704 39.312,38.536 C39.312,38.344 39.42,38.176 39.588,38.176 L40.716,38.176 L40.716,37.444 L39.324,37.444 C39.144,37.444 39.048,37.276 39.048,37.084 C39.048,36.892 39.144,36.748 39.324,36.748 L40.716,36.748 L40.716,36.184 C40.716,35.968 40.872,35.872 41.112,35.872 C41.376,35.872 41.508,35.968 41.508,36.184 L41.508,36.748 L43.332,36.748 L43.332,36.172 C43.332,35.968 43.476,35.86 43.728,35.86 C43.98,35.86 44.124,35.968 44.124,36.172 L44.124,36.748 L45.636,36.748 C45.804,36.748 45.924,36.892 45.924,37.084 C45.924,37.288 45.804,37.444 45.636,37.444 L44.124,37.444 L44.124,38.176 L45.336,38.176 C45.504,38.176 45.612,38.344 45.612,38.536 C45.612,38.716 45.504,38.86 45.336,38.86 L44.124,38.86 L44.124,39.664 L45.816,39.664 C46.008,39.664 46.116,39.796 46.116,40.012 C46.116,40.204 46.008,40.36 45.816,40.36 L42.816,40.36 L42.816,41.044 Z M42.036,44.212 L42.036,43.288 L40.332,43.288 L40.332,44.212 L42.036,44.212 Z M42.816,44.212 L44.616,44.212 L44.616,43.288 L42.816,43.288 L42.816,44.212 Z M42.036,42.652 L42.036,41.716 L40.644,41.716 C40.44,41.716 40.332,41.776 40.332,41.98 L40.332,42.652 L42.036,42.652 Z M42.816,42.652 L44.616,42.652 L44.616,41.98 C44.616,41.776 44.508,41.716 44.304,41.716 L42.816,41.716 L42.816,42.652 Z M41.508,39.664 L43.332,39.664 L43.332,38.86 L41.508,38.86 L41.508,39.664 Z M41.508,38.176 L43.332,38.176 L43.332,37.444 L41.508,37.444 L41.508,38.176 Z M35.328,37.912 L38.484,37.912 C38.7,37.912 38.808,38.068 38.808,38.32 C38.808,38.548 38.7,38.728 38.484,38.728 L35.328,38.728 C35.112,38.728 35.004,38.548 35.004,38.32 C35.004,38.08 35.112,37.912 35.328,37.912 Z M38.244,40.48 L35.628,40.48 C35.424,40.48 35.316,40.3 35.316,40.084 C35.316,39.868 35.424,39.688 35.628,39.688 L38.244,39.688 C38.436,39.688 38.544,39.868 38.544,40.084 C38.544,40.288 38.436,40.48 38.244,40.48 Z M38.244,42.208 L35.616,42.208 C35.412,42.208 35.304,42.016 35.304,41.812 C35.304,41.596 35.412,41.416 35.616,41.416 L38.244,41.416 C38.448,41.416 38.556,41.596 38.556,41.8 C38.556,42.016 38.448,42.208 38.244,42.208 Z M35.64,36.172 L38.256,36.172 C38.448,36.172 38.568,36.34 38.568,36.58 C38.568,36.808 38.448,36.964 38.256,36.964 L35.64,36.964 C35.448,36.964 35.328,36.808 35.328,36.58 C35.328,36.34 35.448,36.172 35.64,36.172 Z M38.592,43.96 L38.592,45.856 C38.592,46.492 38.304,46.744 37.668,46.744 L36.276,46.744 C35.64,46.744 35.352,46.492 35.352,45.856 L35.352,43.96 C35.352,43.348 35.64,43.108 36.276,43.108 L37.668,43.108 C38.304,43.108 38.592,43.348 38.592,43.96 Z M36.168,44.092 L36.168,45.7 C36.168,45.916 36.288,46 36.492,46 L37.452,46 C37.656,46 37.776,45.916 37.776,45.7 L37.776,44.092 C37.776,43.876 37.656,43.816 37.452,43.816 L36.492,43.816 C36.288,43.816 36.168,43.876 36.168,44.092 Z M50.508,42.484 L53.148,42.46 C53.064,42.04 53.016,41.596 52.98,41.14 L52.98,41.116 C52.98,40.9 53.148,40.78 53.4,40.768 L53.436,40.768 C53.676,40.768 53.832,40.912 53.844,41.116 C53.868,41.584 53.928,42.028 54.024,42.448 L57.696,42.424 C57.888,42.436 58.008,42.568 58.008,42.784 C58.008,43 57.888,43.132 57.696,43.168 L54.216,43.192 C54.348,43.588 54.504,43.96 54.708,44.308 C54.744,44.368 54.768,44.416 54.804,44.464 C55.2,44.164 55.56,43.84 55.848,43.492 C55.92,43.408 56.04,43.36 56.148,43.36 C56.244,43.36 56.34,43.396 56.424,43.456 C56.52,43.528 56.568,43.636 56.568,43.744 C56.568,43.84 56.532,43.924 56.472,43.996 C56.148,44.38 55.74,44.752 55.284,45.1 C55.656,45.532 56.1,45.856 56.568,46.048 C56.64,46.084 56.712,46.096 56.772,46.096 C56.892,46.096 57,46.036 57.084,45.904 C57.204,45.712 57.288,45.34 57.324,45.028 C57.348,44.8 57.48,44.704 57.66,44.704 C57.684,44.704 57.708,44.704 57.744,44.716 C57.972,44.74 58.08,44.884 58.08,45.088 L58.08,45.148 C58.02,45.676 57.84,46.216 57.624,46.528 C57.432,46.804 57.144,46.948 56.808,46.948 C56.592,46.948 56.364,46.9 56.124,46.78 C55.584,46.54 55.044,46.132 54.588,45.58 C53.772,46.096 52.848,46.528 51.984,46.768 C51.936,46.78 51.876,46.792 51.828,46.792 C51.636,46.792 51.492,46.696 51.432,46.516 C51.42,46.456 51.408,46.408 51.408,46.36 C51.408,46.168 51.528,46.036 51.732,45.976 C52.56,45.748 53.376,45.388 54.108,44.944 C54.048,44.848 54,44.752 53.94,44.656 C53.688,44.212 53.484,43.72 53.328,43.204 L50.508,43.228 L50.508,44.08 C51.12,43.996 51.684,43.888 52.128,43.792 C52.176,43.78 52.212,43.78 52.26,43.78 C52.428,43.78 52.524,43.888 52.56,44.056 C52.572,44.092 52.572,44.14 52.572,44.176 C52.572,44.344 52.476,44.476 52.296,44.512 C51.804,44.632 51.18,44.752 50.508,44.86 L50.508,46.06 C50.508,46.708 50.088,46.984 49.2,46.984 C48.876,46.984 48.528,46.948 48.24,46.876 C48.048,46.828 47.94,46.696 47.94,46.516 C47.94,46.468 47.952,46.42 47.952,46.372 C48.012,46.168 48.156,46.072 48.312,46.072 C48.348,46.072 48.384,46.072 48.408,46.084 C48.624,46.144 48.888,46.18 49.2,46.18 C49.548,46.18 49.692,46.12 49.692,45.844 L49.692,44.98 C48.948,45.076 48.192,45.148 47.52,45.196 L47.496,45.196 C47.316,45.196 47.16,45.028 47.148,44.812 L47.148,44.788 C47.148,44.572 47.28,44.416 47.472,44.404 C48.156,44.368 48.936,44.296 49.692,44.2 L49.692,43.228 L47.244,43.252 C47.04,43.216 46.932,43.084 46.932,42.868 C46.932,42.652 47.04,42.52 47.244,42.508 L49.692,42.484 L49.692,41.872 C49.104,41.956 48.492,42.016 47.928,42.052 L47.892,42.052 C47.664,42.052 47.568,41.932 47.544,41.752 L47.544,41.692 C47.544,41.524 47.652,41.344 47.856,41.332 C49.176,41.26 50.64,41.044 51.564,40.756 C51.624,40.732 51.684,40.72 51.732,40.72 C51.876,40.72 51.996,40.792 52.068,40.96 C52.08,41.008 52.092,41.056 52.092,41.104 C52.092,41.248 52.008,41.38 51.804,41.44 C51.42,41.56 50.976,41.656 50.508,41.74 L50.508,42.484 Z M51.996,37.636 L47.88,37.636 C47.688,37.636 47.58,37.468 47.58,37.276 C47.58,37.072 47.688,36.916 47.88,36.916 L50.376,36.916 C50.22,36.676 50.028,36.412 49.896,36.28 C49.848,36.22 49.824,36.16 49.824,36.088 C49.824,35.968 49.908,35.86 50.04,35.8 C50.124,35.764 50.208,35.74 50.292,35.74 C50.436,35.74 50.568,35.8 50.664,35.92 C50.868,36.148 51.12,36.508 51.372,36.916 L53.52,36.916 C53.772,36.604 54.036,36.232 54.156,35.98 C54.24,35.812 54.372,35.74 54.528,35.74 C54.6,35.74 54.66,35.752 54.732,35.776 C54.924,35.824 55.044,35.944 55.044,36.088 C55.044,36.136 55.032,36.196 54.996,36.244 C54.9,36.424 54.696,36.688 54.504,36.916 L57.084,36.916 C57.276,36.916 57.396,37.06 57.396,37.276 C57.396,37.468 57.276,37.636 57.084,37.636 L52.812,37.636 L52.812,38.356 L56.436,38.356 C56.604,38.356 56.712,38.512 56.712,38.716 C56.712,38.884 56.604,39.076 56.436,39.076 L52.812,39.076 L52.812,39.832 L57.66,39.832 C57.852,39.832 57.96,39.964 57.96,40.18 C57.96,40.372 57.852,40.552 57.66,40.552 L47.34,40.552 C47.148,40.552 47.04,40.372 47.04,40.18 C47.04,39.988 47.148,39.832 47.34,39.832 L51.996,39.832 L51.996,39.076 L48.528,39.076 C48.348,39.076 48.252,38.884 48.252,38.716 C48.252,38.524 48.348,38.356 48.528,38.356 L51.996,38.356 L51.996,37.636 Z M55.332,40.78 C55.692,40.96 56.232,41.332 56.52,41.572 C56.64,41.668 56.7,41.776 56.7,41.884 C56.7,41.956 56.676,42.04 56.604,42.112 C56.52,42.22 56.412,42.268 56.292,42.268 C56.208,42.268 56.112,42.232 56.028,42.172 C55.728,41.932 55.236,41.584 54.912,41.404 C54.792,41.332 54.72,41.224 54.72,41.104 C54.72,41.032 54.744,40.948 54.804,40.876 C54.888,40.768 54.996,40.72 55.104,40.72 C55.176,40.72 55.248,40.744 55.332,40.78 Z" id="従来の-講義-copy" fill="#2F6070"></path>
            </g>
            <g id="Typical-AL" transform="translate(148.000000, 160.000000)">
                <g id="Typical-Ellipse">
                    <use fill="black" fill-opacity="1" filter="url(#filter-5)" xlink:href="#path-4"></use>
                    <use fill="#E69877" fill-rule="evenodd" xlink:href="#path-4"></use>
                </g>
                <path d="M25.04,15.968 L14.948,15.968 C14.696,15.968 14.552,15.692 14.552,15.44 C14.552,15.176 14.696,14.924 14.948,14.924 L25.04,14.924 C25.292,14.924 25.436,15.176 25.436,15.44 C25.436,15.692 25.292,15.968 25.04,15.968 Z M28.796,12.392 C28.856,12.368 28.916,12.356 28.976,12.356 C29.108,12.356 29.228,12.404 29.288,12.524 C29.54,12.932 29.792,13.496 29.936,13.94 C29.948,14 29.96,14.06 29.96,14.108 C29.96,14.276 29.876,14.384 29.72,14.432 C29.672,14.456 29.612,14.468 29.552,14.468 C29.408,14.468 29.264,14.384 29.204,14.192 C29.084,13.82 28.856,13.304 28.616,12.86 C28.592,12.812 28.58,12.764 28.58,12.716 C28.58,12.56 28.688,12.44 28.796,12.392 Z M31.268,11.948 L31.268,14.684 C31.292,14.672 31.328,14.672 31.352,14.66 C31.4,14.648 31.436,14.648 31.472,14.648 C31.652,14.648 31.748,14.768 31.772,14.972 L31.772,15.044 C31.772,15.212 31.7,15.368 31.52,15.416 C31.436,15.44 31.352,15.452 31.268,15.476 L31.268,19.868 C31.268,20.588 30.86,20.888 30.104,20.888 C29.78,20.888 29.36,20.852 29.108,20.804 C28.916,20.768 28.772,20.612 28.772,20.408 C28.772,20.372 28.772,20.336 28.784,20.3 C28.832,20.072 28.976,19.964 29.144,19.964 C29.18,19.964 29.216,19.964 29.252,19.976 C29.456,20.024 29.732,20.072 29.984,20.072 C30.356,20.072 30.452,19.964 30.452,19.604 L30.452,15.656 C30.188,15.704 29.912,15.752 29.636,15.8 L29.636,18.668 C29.636,18.872 29.492,18.98 29.264,18.98 C29.048,18.98 28.892,18.872 28.892,18.668 L28.892,15.908 C28.616,15.944 28.352,15.98 28.076,16.016 C27.992,17.888 27.716,19.496 27.14,20.624 C27.044,20.804 26.912,20.888 26.756,20.888 C26.672,20.888 26.6,20.864 26.516,20.828 C26.348,20.744 26.276,20.624 26.276,20.48 C26.276,20.408 26.3,20.312 26.348,20.228 C26.84,19.268 27.128,17.888 27.224,16.112 C27.056,16.124 26.888,16.148 26.72,16.16 L26.672,16.16 C26.456,16.16 26.324,16.016 26.3,15.752 L26.3,15.692 C26.3,15.44 26.444,15.332 26.66,15.32 C26.852,15.308 27.056,15.296 27.248,15.272 C27.26,15.068 27.26,14.852 27.26,14.636 L27.26,11.948 C27.26,11.288 27.548,11.036 28.196,11.036 L28.676,11.036 C28.82,10.724 28.964,10.364 29.024,10.112 C29.072,9.956 29.204,9.86 29.396,9.86 C29.444,9.86 29.492,9.86 29.552,9.872 C29.768,9.92 29.876,10.028 29.876,10.184 C29.876,10.208 29.876,10.244 29.864,10.268 C29.804,10.508 29.684,10.808 29.576,11.036 L30.356,11.036 C31.004,11.036 31.268,11.288 31.268,11.948 Z M30.452,14.852 L30.452,12.116 C30.452,11.864 30.344,11.792 30.104,11.792 L28.448,11.792 C28.22,11.792 28.1,11.864 28.1,12.116 L28.1,15.188 C28.892,15.104 29.672,14.996 30.452,14.852 Z M32.504,15.92 L32.132,15.92 C31.904,15.92 31.796,15.74 31.796,15.512 C31.796,15.284 31.904,15.104 32.132,15.104 L36.092,15.104 C36.62,15.104 36.908,15.404 36.908,15.836 C36.908,15.968 36.872,16.124 36.812,16.292 C36.488,17.096 35.936,17.924 35.228,18.668 C35.828,19.208 36.536,19.652 37.424,20.036 C37.58,20.108 37.676,20.252 37.676,20.42 C37.676,20.504 37.652,20.588 37.616,20.684 C37.544,20.828 37.388,20.936 37.208,20.936 C37.124,20.936 37.052,20.924 36.968,20.888 C36.08,20.492 35.3,19.964 34.604,19.28 C33.848,19.976 32.972,20.552 32.072,20.936 C31.988,20.972 31.904,20.996 31.82,20.996 C31.676,20.996 31.544,20.936 31.46,20.78 C31.412,20.696 31.388,20.6 31.388,20.516 C31.388,20.36 31.484,20.216 31.664,20.132 C32.516,19.784 33.332,19.256 34.028,18.644 C33.38,17.816 32.888,16.904 32.504,15.92 Z M35.684,15.92 L33.344,15.92 C33.68,16.7 34.1,17.408 34.64,18.056 C35.192,17.48 35.624,16.844 35.864,16.244 C35.9,16.172 35.912,16.112 35.912,16.064 C35.912,15.968 35.84,15.92 35.684,15.92 Z M35.048,13.472 L35.048,11.384 C35.048,11.156 34.928,11.084 34.724,11.084 L33.8,11.084 C33.596,11.084 33.476,11.156 33.476,11.384 C33.476,12.884 33.224,13.652 32.504,14.42 C32.396,14.528 32.276,14.588 32.144,14.588 C32.036,14.588 31.916,14.54 31.82,14.456 C31.724,14.384 31.676,14.264 31.676,14.132 C31.676,14.036 31.712,13.928 31.796,13.844 C32.492,13.148 32.6,12.56 32.6,11.18 C32.6,10.544 32.924,10.292 33.548,10.292 L34.964,10.292 C35.6,10.292 35.912,10.556 35.912,11.168 L35.912,13.184 C35.912,13.436 36.008,13.496 36.32,13.496 C36.572,13.496 36.68,13.424 36.74,13.232 C36.8,13.04 36.836,12.716 36.848,12.416 C36.86,12.224 36.992,12.092 37.232,12.092 L37.268,12.092 C37.508,12.104 37.652,12.26 37.652,12.464 C37.64,12.992 37.568,13.508 37.4,13.82 C37.232,14.12 36.968,14.252 36.272,14.252 C35.348,14.252 35.048,14.096 35.048,13.472 Z M47.948,12.476 L44.948,12.476 C44.648,13.076 44.312,13.64 43.964,14.06 C43.868,14.18 43.736,14.228 43.604,14.228 C43.484,14.228 43.352,14.18 43.268,14.108 C43.184,14.024 43.136,13.916 43.136,13.796 C43.136,13.676 43.172,13.556 43.268,13.46 C43.904,12.716 44.528,11.396 44.828,10.172 C44.888,9.944 45.056,9.86 45.248,9.86 C45.296,9.86 45.344,9.86 45.392,9.872 C45.584,9.908 45.728,10.052 45.728,10.256 C45.728,10.304 45.728,10.34 45.716,10.388 C45.608,10.784 45.476,11.18 45.332,11.588 L48.224,11.588 C48.968,11.588 49.292,11.912 49.292,12.656 L49.292,12.896 C49.292,16.352 49.04,18.524 48.656,19.736 C48.404,20.528 47.876,20.804 47.012,20.804 C46.496,20.804 45.932,20.732 45.524,20.624 C45.332,20.576 45.236,20.408 45.236,20.204 C45.236,20.156 45.248,20.096 45.26,20.036 C45.32,19.82 45.476,19.712 45.656,19.712 C45.704,19.712 45.752,19.724 45.8,19.736 C46.1,19.832 46.496,19.892 46.94,19.892 C47.456,19.892 47.696,19.772 47.84,19.232 C48.128,18.188 48.344,16.04 48.344,12.848 C48.344,12.56 48.224,12.476 47.948,12.476 Z M41.132,11.612 L41.888,11.612 C42.572,11.612 42.896,11.876 42.896,12.548 L42.896,19.16 C42.896,19.844 42.56,20.132 41.888,20.132 L39.812,20.132 C39.128,20.132 38.792,19.844 38.792,19.16 L38.792,12.548 C38.792,11.876 39.116,11.612 39.812,11.612 L40.22,11.612 C40.412,11.12 40.556,10.592 40.664,10.148 C40.712,9.968 40.856,9.872 41.06,9.872 C41.108,9.872 41.168,9.872 41.216,9.884 C41.468,9.932 41.576,10.052 41.576,10.244 C41.576,10.28 41.576,10.316 41.564,10.34 C41.456,10.748 41.3,11.228 41.132,11.612 Z M39.704,15.26 L41.984,15.26 L41.984,12.752 C41.984,12.488 41.864,12.428 41.636,12.428 L40.064,12.428 C39.824,12.428 39.704,12.488 39.704,12.752 L39.704,15.26 Z M39.704,16.064 L39.704,18.968 C39.704,19.244 39.824,19.304 40.064,19.304 L41.636,19.304 C41.864,19.304 41.984,19.244 41.984,18.968 L41.984,16.064 L39.704,16.064 Z M44.612,14.168 C44.708,14.108 44.828,14.072 44.936,14.072 C45.044,14.072 45.152,14.108 45.236,14.216 C45.836,14.936 46.412,15.956 46.772,16.724 C46.808,16.796 46.82,16.868 46.82,16.94 C46.82,17.108 46.736,17.264 46.568,17.348 C46.484,17.384 46.388,17.408 46.304,17.408 C46.148,17.408 45.992,17.324 45.908,17.132 C45.608,16.448 45.068,15.44 44.528,14.744 C44.468,14.66 44.432,14.576 44.432,14.48 C44.432,14.36 44.492,14.24 44.612,14.168 Z M58.244,11.792 C59.156,12.14 60.116,12.656 60.788,13.112 C60.956,13.22 61.028,13.4 61.028,13.556 C61.028,13.652 61.004,13.748 60.956,13.832 C60.86,13.976 60.704,14.06 60.548,14.06 C60.44,14.06 60.344,14.024 60.248,13.964 C59.54,13.472 58.64,13.004 57.74,12.644 C57.584,12.584 57.512,12.44 57.512,12.284 C57.512,12.188 57.536,12.092 57.584,12.008 C57.692,11.84 57.848,11.756 58.028,11.756 C58.1,11.756 58.172,11.768 58.244,11.792 Z M54.128,13.112 C53.552,14.996 52.772,16.892 51.872,18.464 C51.752,18.668 51.596,18.776 51.428,18.776 C51.32,18.776 51.212,18.74 51.092,18.668 C50.936,18.572 50.864,18.428 50.864,18.272 C50.864,18.164 50.9,18.032 50.972,17.912 C51.8,16.508 52.604,14.792 53.096,13.172 C52.652,13.196 52.184,13.208 51.716,13.208 L51.26,13.208 C50.984,13.208 50.84,13.028 50.84,12.74 C50.84,12.452 51.008,12.272 51.284,12.272 L51.8,12.272 C52.316,12.272 52.856,12.26 53.372,12.236 C53.54,11.648 53.684,11.048 53.804,10.436 C53.828,10.172 54.008,10.04 54.248,10.04 C54.284,10.04 54.32,10.04 54.368,10.052 C54.632,10.1 54.788,10.232 54.788,10.472 C54.788,10.52 54.788,10.568 54.776,10.628 C54.668,11.12 54.548,11.636 54.416,12.152 C55.004,12.104 55.568,12.056 56.072,11.984 C56.108,11.972 56.144,11.972 56.18,11.972 C56.42,11.972 56.564,12.116 56.612,12.368 L56.612,12.44 C56.612,12.668 56.468,12.848 56.18,12.896 C55.556,12.992 54.848,13.052 54.128,13.112 Z M58.7,17.192 C59.504,17.576 60.356,18.14 60.956,18.74 C61.076,18.86 61.136,19.004 61.136,19.136 C61.136,19.256 61.088,19.376 61.004,19.472 C60.896,19.58 60.776,19.64 60.656,19.64 C60.536,19.64 60.404,19.58 60.296,19.484 C59.828,19.016 59.24,18.524 58.736,18.236 C58.76,18.38 58.76,18.536 58.76,18.644 C58.7,19.952 57.86,20.564 56.228,20.564 C54.728,20.564 53.732,19.772 53.732,18.644 C53.732,17.492 54.752,16.664 56.24,16.664 C56.744,16.664 57.236,16.736 57.728,16.868 C57.656,16.196 57.596,15.248 57.596,14.468 C57.596,14.12 57.8,13.976 58.064,13.976 C58.352,13.976 58.556,14.132 58.556,14.468 C58.556,15.5 58.604,16.34 58.7,17.192 Z M57.8,17.828 C57.32,17.612 56.78,17.516 56.264,17.516 C55.292,17.516 54.68,17.972 54.68,18.632 C54.68,19.292 55.268,19.664 56.252,19.664 C57.272,19.664 57.824,19.28 57.824,18.428 C57.824,18.236 57.824,18.068 57.8,17.828 Z M9.56,25.976 L17.648,25.976 C18.188,25.976 18.5,26.156 18.716,26.432 C18.848,26.612 18.92,26.84 18.92,27.104 C18.92,27.332 18.86,27.596 18.74,27.86 C18.128,29.156 16.808,30.308 15.596,30.776 C15.5,30.812 15.416,30.836 15.332,30.836 C15.164,30.836 15.008,30.764 14.924,30.608 C14.876,30.524 14.852,30.428 14.852,30.344 C14.852,30.14 14.972,29.972 15.152,29.888 C16.208,29.432 17.216,28.58 17.768,27.56 C17.816,27.452 17.852,27.344 17.852,27.26 C17.852,27.092 17.732,26.972 17.456,26.972 L9.56,26.972 C9.272,26.972 9.128,26.792 9.128,26.48 C9.128,26.168 9.284,25.976 9.56,25.976 Z M13.676,28.052 C14,28.052 14.204,28.22 14.204,28.544 C14.192,30.644 13.928,31.832 13.448,32.792 C12.788,34.124 11.636,35 10.328,35.432 C10.244,35.468 10.16,35.48 10.076,35.48 C9.884,35.48 9.74,35.384 9.644,35.168 C9.608,35.084 9.596,35 9.596,34.928 C9.596,34.736 9.704,34.58 9.944,34.496 C11.084,34.112 12.032,33.344 12.512,32.312 C12.92,31.436 13.124,30.428 13.124,28.568 C13.124,28.22 13.352,28.052 13.676,28.052 Z M28.688,27.74 L24.824,27.8 C24.128,28.88 23.168,29.876 22.112,30.572 C22.004,30.632 21.908,30.668 21.8,30.668 C21.644,30.668 21.5,30.584 21.392,30.452 C21.332,30.368 21.296,30.26 21.296,30.14 C21.296,29.984 21.368,29.804 21.548,29.696 C22.736,28.928 23.936,27.608 24.74,25.604 C24.824,25.388 24.968,25.256 25.208,25.256 C25.268,25.256 25.34,25.268 25.424,25.292 C25.676,25.352 25.796,25.532 25.796,25.724 C25.796,25.772 25.784,25.832 25.772,25.88 C25.7,26.132 25.532,26.468 25.304,26.864 L29.06,26.792 C29.828,26.78 30.308,27.212 30.308,27.992 C30.308,28.136 30.296,28.28 30.26,28.448 C29.54,31.844 27.152,34.592 23.06,35.576 C23.012,35.588 22.964,35.588 22.916,35.588 C22.676,35.588 22.496,35.468 22.424,35.24 C22.412,35.18 22.4,35.12 22.4,35.06 C22.4,34.844 22.532,34.664 22.796,34.604 C26.3,33.68 28.448,31.544 29.168,28.292 C29.18,28.208 29.192,28.148 29.192,28.076 C29.192,27.848 29.072,27.74 28.736,27.74 L28.688,27.74 Z M37.832,29.888 L33.32,29.888 C33.044,29.888 32.9,29.672 32.9,29.396 C32.9,29.132 33.044,28.928 33.332,28.928 L42.692,28.928 C42.992,28.928 43.124,29.132 43.124,29.396 C43.124,29.672 42.992,29.888 42.704,29.888 L38.9,29.888 C38.888,31.328 38.576,32.492 37.964,33.428 C37.328,34.436 36.284,35.132 35.072,35.456 C34.976,35.48 34.892,35.492 34.808,35.492 C34.604,35.492 34.436,35.396 34.364,35.204 C34.34,35.132 34.328,35.06 34.328,34.988 C34.328,34.772 34.448,34.568 34.676,34.508 C35.732,34.244 36.62,33.632 37.112,32.804 C37.58,32.048 37.82,31.136 37.832,29.888 Z M34.352,25.904 L41.648,25.904 C41.948,25.904 42.08,26.12 42.08,26.396 C42.08,26.66 41.924,26.9 41.648,26.9 L34.352,26.9 C34.076,26.9 33.92,26.66 33.92,26.396 C33.92,26.12 34.064,25.904 34.352,25.904 Z M50.876,30.392 L50.876,35.156 C50.876,35.408 50.612,35.576 50.372,35.576 C50.132,35.576 49.892,35.42 49.892,35.144 L49.892,30.944 C48.8,31.616 47.588,32.18 46.604,32.516 C46.52,32.54 46.448,32.552 46.376,32.552 C46.172,32.552 46.028,32.444 45.968,32.264 C45.944,32.192 45.932,32.12 45.932,32.048 C45.932,31.844 46.04,31.676 46.256,31.604 C47.36,31.232 48.608,30.656 49.904,29.828 C50.948,29.156 51.74,28.484 52.496,27.62 C52.58,27.512 52.688,27.464 52.808,27.464 C52.928,27.464 53.048,27.524 53.168,27.62 C53.276,27.728 53.336,27.848 53.336,27.98 C53.336,28.088 53.288,28.208 53.204,28.316 C52.616,28.988 51.764,29.72 50.876,30.392 Z M57.092,26.588 L64.352,26.588 C64.928,26.588 65.276,26.732 65.504,27.02 C65.672,27.236 65.756,27.536 65.756,27.884 C65.756,27.992 65.744,28.1 65.732,28.22 C65.216,31.868 62.696,34.604 58.712,35.588 C58.628,35.612 58.556,35.624 58.484,35.624 C58.268,35.624 58.1,35.504 58.04,35.288 C58.016,35.216 58.016,35.156 58.016,35.096 C58.016,34.856 58.148,34.664 58.4,34.592 C61.856,33.68 64.208,31.412 64.604,28.184 C64.616,28.124 64.616,28.064 64.616,28.004 C64.616,27.692 64.46,27.608 64.088,27.608 L57.092,27.608 C56.816,27.608 56.66,27.392 56.66,27.092 C56.66,26.804 56.828,26.588 57.092,26.588 Z M64.82,25.22 C64.82,25.052 64.988,24.896 65.18,24.896 C65.348,24.896 65.42,24.968 65.504,25.064 C65.84,25.472 66.224,26.084 66.416,26.492 C66.452,26.576 66.476,26.66 66.476,26.816 C66.476,26.996 66.296,27.128 66.104,27.128 C65.912,27.128 65.816,27.032 65.756,26.888 C65.564,26.456 65.228,25.904 64.928,25.496 C64.856,25.412 64.82,25.316 64.82,25.22 Z M66.368,24.824 C66.368,24.632 66.548,24.5 66.74,24.5 C66.872,24.5 66.956,24.572 67.052,24.668 C67.34,25.004 67.724,25.64 67.928,26.06 C67.964,26.132 67.976,26.24 67.976,26.312 C67.976,26.552 67.808,26.672 67.604,26.672 C67.424,26.672 67.352,26.588 67.28,26.456 C67.052,25.976 66.776,25.496 66.488,25.1 C66.392,24.98 66.368,24.92 66.368,24.824 Z M10.724,40.736 L17.3,40.736 C17.552,40.736 17.72,40.964 17.72,41.228 C17.72,41.48 17.552,41.732 17.3,41.732 L10.724,41.732 C10.472,41.732 10.304,41.48 10.304,41.228 C10.304,40.964 10.472,40.736 10.724,40.736 Z M9.8,43.544 L17.192,43.544 C17.756,43.544 18.104,43.748 18.308,44.084 C18.416,44.264 18.464,44.48 18.464,44.732 C18.464,44.912 18.44,45.104 18.392,45.308 C17.804,47.876 15.404,49.952 12.068,50.432 C12.032,50.444 11.996,50.444 11.96,50.444 C11.684,50.444 11.492,50.276 11.456,50 C11.444,49.964 11.444,49.928 11.444,49.892 C11.444,49.64 11.6,49.46 11.864,49.412 C14.756,48.968 16.808,47.264 17.336,45.14 C17.36,45.056 17.372,44.972 17.372,44.9 C17.372,44.672 17.24,44.54 16.844,44.54 L9.8,44.54 C9.548,44.54 9.392,44.3 9.392,44.048 C9.392,43.784 9.548,43.544 9.8,43.544 Z M30.56,46.052 L21.428,46.052 C21.128,46.052 20.96,45.86 20.96,45.536 C20.96,45.224 21.128,44.996 21.44,44.996 L30.548,44.996 C30.86,44.996 31.028,45.224 31.028,45.536 C31.028,45.86 30.86,46.052 30.56,46.052 Z M34.496,41.672 L41.54,41.672 C41.816,41.672 41.984,41.948 41.984,42.212 C41.984,42.5 41.816,42.752 41.552,42.752 L34.496,42.752 C34.22,42.752 34.052,42.5 34.052,42.212 C34.052,41.948 34.22,41.672 34.496,41.672 Z M33.5,48.308 L42.536,48.308 C42.824,48.308 42.98,48.584 42.98,48.848 C42.98,49.136 42.824,49.4 42.548,49.4 L33.488,49.4 C33.224,49.4 33.056,49.136 33.056,48.848 C33.056,48.584 33.224,48.308 33.5,48.308 Z M46.544,41.312 C47.42,41.864 48.512,42.716 49.208,43.568 C49.304,43.688 49.352,43.82 49.352,43.952 C49.352,44.096 49.292,44.24 49.184,44.36 C49.088,44.468 48.956,44.528 48.812,44.528 C48.668,44.528 48.512,44.456 48.368,44.3 C47.708,43.544 46.724,42.692 45.86,42.104 C45.728,42.008 45.668,41.864 45.668,41.72 C45.668,41.6 45.716,41.468 45.8,41.372 C45.908,41.24 46.04,41.192 46.184,41.192 C46.316,41.192 46.436,41.24 46.544,41.312 Z M54.584,42.188 C54.836,42.26 54.992,42.428 54.992,42.68 C54.992,42.752 54.98,42.824 54.968,42.896 C54.476,44.936 53.336,46.88 51.668,48.14 C50.216,49.232 47.996,49.94 46.136,50.012 L46.112,50.012 C45.8,50.012 45.572,49.832 45.548,49.532 L45.548,49.472 C45.548,49.184 45.728,48.956 46.028,48.944 C47.804,48.86 49.844,48.164 51.044,47.24 C52.448,46.148 53.492,44.396 53.924,42.62 C54.008,42.296 54.188,42.164 54.404,42.164 C54.464,42.164 54.524,42.176 54.584,42.188 Z M64.304,42.776 L60.44,42.836 C59.744,43.916 58.784,44.912 57.728,45.608 C57.62,45.68 57.524,45.704 57.416,45.704 C57.26,45.704 57.116,45.632 57.008,45.488 C56.948,45.404 56.912,45.296 56.912,45.188 C56.912,45.02 56.984,44.852 57.164,44.732 C58.352,43.964 59.552,42.644 60.356,40.64 C60.44,40.424 60.584,40.292 60.824,40.292 C60.884,40.292 60.956,40.304 61.04,40.328 C61.292,40.4 61.412,40.568 61.412,40.772 C61.412,40.82 61.4,40.868 61.388,40.916 C61.316,41.168 61.148,41.504 60.92,41.9 L64.676,41.828 C65.444,41.816 65.924,42.248 65.924,43.028 C65.924,43.172 65.912,43.316 65.876,43.484 C65.156,46.88 62.768,49.628 58.676,50.612 C58.628,50.624 58.58,50.624 58.532,50.624 C58.304,50.624 58.112,50.504 58.04,50.276 C58.028,50.216 58.016,50.156 58.016,50.108 C58.016,49.88 58.16,49.7 58.412,49.64 C61.916,48.716 64.064,46.58 64.784,43.328 C64.796,43.244 64.808,43.172 64.808,43.112 C64.808,42.884 64.688,42.776 64.352,42.776 L64.304,42.776 Z M64.736,40.34 C64.736,40.184 64.892,40.016 65.084,40.016 C65.216,40.016 65.3,40.052 65.396,40.148 C65.768,40.52 66.2,41.096 66.428,41.492 C66.464,41.564 66.512,41.648 66.512,41.804 C66.512,41.984 66.344,42.14 66.116,42.14 C65.972,42.14 65.876,42.08 65.804,41.936 C65.552,41.492 65.192,41 64.856,40.628 C64.784,40.544 64.736,40.448 64.736,40.34 Z M66.236,39.788 C66.236,39.632 66.416,39.476 66.584,39.476 C66.716,39.476 66.8,39.524 66.908,39.62 C67.22,39.92 67.676,40.544 67.892,40.928 C67.928,41 67.964,41.096 67.964,41.228 C67.964,41.372 67.82,41.564 67.592,41.564 C67.448,41.564 67.364,41.504 67.28,41.372 C67.016,40.916 66.704,40.448 66.38,40.1 C66.272,39.992 66.236,39.932 66.236,39.788 Z" id="一般的な-アクティブ-ラーニング-copy" fill="#2F6070"></path>
            </g>
            <g id="CH" transform="translate(204.000000, 20.000000)">
                <g id="CH-Ellipse">
                    <use fill="black" fill-opacity="1" filter="url(#filter-7)" xlink:href="#path-6"></use>
                    <use fill="#CB4343" fill-rule="evenodd" xlink:href="#path-6"></use>
                </g>
                <path d="M14.704,44.556 C16.816,44.556 17.764,45.66 18.196,46.716 C18.232,46.8 18.244,46.884 18.244,46.956 C18.244,47.208 18.052,47.376 17.872,47.436 C17.776,47.472 17.68,47.484 17.584,47.484 C17.38,47.484 17.188,47.4 17.08,47.172 C16.72,46.308 16.12,45.6 14.752,45.6 C12.952,45.6 11.764,47.052 11.764,49.416 C11.764,51.732 12.952,53.22 14.752,53.22 C16.192,53.22 16.876,52.356 17.188,51.396 C17.284,51.132 17.5,51.024 17.728,51.024 C17.8,51.024 17.884,51.036 17.968,51.06 C18.172,51.108 18.388,51.288 18.388,51.54 C18.388,51.612 18.376,51.672 18.352,51.744 C17.932,52.932 16.924,54.276 14.788,54.276 C12.208,54.276 10.564,52.392 10.564,49.404 C10.564,46.488 12.208,44.556 14.704,44.556 Z M25.216,49.608 L25.216,53.676 C25.216,54 24.976,54.156 24.664,54.156 C24.34,54.156 24.124,54 24.124,53.676 L24.124,49.836 C24.124,48.816 23.704,48.252 22.804,48.252 C22.132,48.252 21.604,48.564 21.208,49.092 C20.908,49.5 20.776,49.848 20.776,50.316 L20.776,53.676 C20.776,54 20.572,54.156 20.26,54.156 C19.924,54.156 19.696,54 19.696,53.676 L19.696,45.132 C19.696,44.82 19.924,44.664 20.26,44.664 C20.572,44.664 20.776,44.808 20.776,45.132 L20.776,48.144 C20.776,48.3 20.728,48.576 20.704,48.756 C21.1,47.904 21.76,47.268 23.02,47.268 C24.448,47.268 25.216,48.132 25.216,49.608 Z M30.952,49.836 L30.952,49.32 C30.952,48.528 30.52,48.18 29.572,48.18 C28.696,48.18 28.264,48.516 28.06,49.068 C27.976,49.296 27.796,49.38 27.592,49.38 C27.496,49.38 27.4,49.368 27.316,49.332 C27.088,49.26 26.92,49.092 26.92,48.876 C26.92,48.828 26.932,48.78 26.944,48.732 C27.064,48.36 27.376,48.012 27.652,47.796 C28.072,47.472 28.612,47.268 29.584,47.268 C31.192,47.268 31.984,47.904 31.984,49.32 L31.984,52.596 C31.984,53.016 32.044,53.424 32.116,53.652 C32.128,53.688 32.14,53.736 32.14,53.772 C32.14,53.964 31.96,54.132 31.66,54.156 L31.552,54.156 C31.312,54.156 31.096,54.084 31.048,53.868 C31.012,53.724 30.988,53.508 30.976,53.268 C30.52,53.784 29.884,54.252 28.696,54.252 C27.376,54.252 26.572,53.508 26.572,52.272 C26.572,51.144 27.244,50.424 28.384,50.112 C29.044,49.932 29.668,49.86 30.952,49.836 Z M30.952,51.504 L30.952,50.7 C29.548,50.736 28.888,50.856 28.408,51.096 C27.928,51.336 27.676,51.708 27.676,52.284 C27.676,52.908 28.156,53.328 28.876,53.328 C29.632,53.328 30.256,52.956 30.64,52.476 C30.868,52.188 30.952,51.96 30.952,51.504 Z M33.76,53.676 L33.76,45.144 C33.76,44.82 33.976,44.664 34.312,44.664 C34.636,44.664 34.852,44.82 34.852,45.144 L34.852,53.676 C34.852,54 34.636,54.156 34.312,54.156 C33.976,54.156 33.76,54 33.76,53.676 Z M36.556,53.676 L36.556,45.144 C36.556,44.82 36.772,44.664 37.108,44.664 C37.432,44.664 37.648,44.82 37.648,45.144 L37.648,53.676 C37.648,54 37.432,54.156 37.108,54.156 C36.772,54.156 36.556,54 36.556,53.676 Z M44.344,50.964 L40.12,50.964 C40.144,52.44 40.876,53.364 42.172,53.364 C43.036,53.364 43.516,52.932 43.804,52.296 C43.912,52.08 44.068,51.996 44.236,51.996 C44.32,51.996 44.404,52.02 44.488,52.044 C44.692,52.104 44.86,52.248 44.86,52.464 C44.86,52.536 44.848,52.608 44.8,52.68 C44.416,53.472 43.72,54.264 42.16,54.264 C40.192,54.264 39.052,52.872 39.052,50.796 C39.052,48.72 40.132,47.268 42.088,47.268 C43.84,47.268 44.824,48.636 44.944,50.208 L44.944,50.304 C44.944,50.736 44.716,50.964 44.344,50.964 Z M40.156,50.088 L43.672,50.088 C43.804,50.088 43.852,50.04 43.852,49.932 L43.852,49.872 C43.708,49.02 43.192,48.144 42.088,48.144 C40.936,48.144 40.312,48.912 40.156,50.088 Z M51.772,49.608 L51.772,53.676 C51.772,54 51.532,54.156 51.22,54.156 C50.896,54.156 50.668,54 50.668,53.676 L50.668,49.836 C50.668,48.816 50.26,48.24 49.36,48.24 C48.712,48.24 48.172,48.528 47.764,49.092 C47.464,49.5 47.344,49.848 47.344,50.316 L47.344,53.676 C47.344,54 47.116,54.156 46.804,54.156 C46.468,54.156 46.252,54 46.252,53.676 L46.252,47.832 C46.252,47.52 46.48,47.364 46.816,47.364 C47.128,47.364 47.344,47.52 47.344,47.832 L47.344,48.156 C47.344,48.312 47.308,48.432 47.296,48.66 C47.716,47.808 48.436,47.268 49.576,47.268 C51.004,47.268 51.772,48.132 51.772,49.608 Z M58.12,48.156 L58.12,47.796 C58.12,47.544 58.288,47.364 58.636,47.364 C58.96,47.364 59.152,47.52 59.152,47.844 L59.152,53.4 C59.152,56.16 57.7,56.784 56.116,56.784 C54.82,56.784 53.992,56.352 53.536,55.764 C53.476,55.68 53.44,55.596 53.44,55.5 C53.44,55.344 53.524,55.188 53.668,55.08 C53.764,55.008 53.896,54.96 54.016,54.96 C54.148,54.96 54.268,55.008 54.364,55.116 C54.808,55.632 55.336,55.884 56.068,55.884 C57.568,55.884 58.108,55.128 58.12,53.352 C58.12,53.208 58.144,52.944 58.168,52.776 C57.772,53.532 57.088,54.06 56.032,54.06 C54.328,54.06 53.14,52.74 53.14,50.736 C53.14,48.672 54.208,47.28 56.056,47.28 C57.148,47.28 57.832,47.88 58.168,48.648 C58.156,48.516 58.12,48.288 58.12,48.156 Z M56.188,48.192 C54.964,48.192 54.244,49.188 54.244,50.736 C54.244,52.26 55.06,53.184 56.176,53.184 C57.4,53.184 58.144,52.14 58.144,50.652 C58.144,49.224 57.412,48.192 56.188,48.192 Z M65.848,50.964 L61.624,50.964 C61.648,52.44 62.38,53.364 63.676,53.364 C64.54,53.364 65.02,52.932 65.308,52.296 C65.416,52.08 65.572,51.996 65.74,51.996 C65.824,51.996 65.908,52.02 65.992,52.044 C66.196,52.104 66.364,52.248 66.364,52.464 C66.364,52.536 66.352,52.608 66.304,52.68 C65.92,53.472 65.224,54.264 63.664,54.264 C61.696,54.264 60.556,52.872 60.556,50.796 C60.556,48.72 61.636,47.268 63.592,47.268 C65.344,47.268 66.328,48.636 66.448,50.208 L66.448,50.304 C66.448,50.736 66.22,50.964 65.848,50.964 Z M61.66,50.088 L65.176,50.088 C65.308,50.088 65.356,50.04 65.356,49.932 L65.356,49.872 C65.212,49.02 64.696,48.144 63.592,48.144 C62.44,48.144 61.816,48.912 61.66,50.088 Z M74.212,48.648 L74.212,45.156 C74.212,44.82 74.464,44.664 74.812,44.664 C75.124,44.664 75.364,44.82 75.364,45.156 L75.364,53.664 C75.364,53.988 75.124,54.156 74.812,54.156 C74.464,54.156 74.212,53.988 74.212,53.664 L74.212,49.692 L69.1,49.692 L69.1,53.664 C69.1,53.988 68.848,54.156 68.524,54.156 C68.188,54.156 67.948,53.988 67.948,53.664 L67.948,45.156 C67.948,44.82 68.188,44.664 68.524,44.664 C68.848,44.664 69.1,44.82 69.1,45.156 L69.1,48.648 L74.212,48.648 Z M77.236,51.912 L77.236,47.844 C77.236,47.52 77.464,47.364 77.788,47.364 C78.112,47.364 78.34,47.52 78.34,47.844 L78.34,51.684 C78.34,52.716 78.76,53.292 79.648,53.292 C80.284,53.292 80.8,52.992 81.208,52.428 C81.496,52.02 81.616,51.648 81.616,51.18 L81.616,47.844 C81.616,47.52 81.844,47.364 82.168,47.364 C82.48,47.364 82.708,47.52 82.708,47.844 L82.708,53.676 C82.708,54 82.492,54.156 82.18,54.156 C81.856,54.156 81.628,54.012 81.628,53.712 L81.628,53.376 C81.628,53.244 81.664,53.004 81.7,52.812 C81.328,53.652 80.632,54.264 79.432,54.264 C78.016,54.264 77.236,53.376 77.236,51.912 Z M85.504,53.46 L85.504,53.712 C85.504,53.976 85.324,54.156 84.976,54.156 C84.64,54.156 84.436,54 84.436,53.676 L84.436,45.144 C84.436,44.82 84.64,44.664 84.976,44.664 C85.288,44.664 85.504,44.82 85.504,45.144 L85.504,47.76 C85.504,48.012 85.48,48.36 85.444,48.636 C85.888,47.784 86.596,47.268 87.7,47.268 C89.5,47.268 90.532,48.588 90.532,50.724 C90.532,52.836 89.44,54.264 87.664,54.264 C86.56,54.264 85.84,53.724 85.456,52.884 C85.48,53.064 85.504,53.304 85.504,53.46 Z M87.556,48.204 C86.236,48.204 85.48,49.272 85.48,50.748 C85.48,52.236 86.26,53.316 87.52,53.316 C88.732,53.316 89.428,52.284 89.428,50.736 C89.428,49.176 88.756,48.204 87.556,48.204 Z" id="ChallengeHub-Copy-2" fill="#FFFFFF"></path>
            </g>
        </g>
        <g id="arrow" transform="translate(168.078838, 104.526279) rotate(60.000000) translate(-168.078838, -104.526279) translate(156.078838, 66.526279)">
            <g id="Combined-Shape" transform="translate(11.900706, 37.936802) rotate(4.000000) translate(-11.900706, -37.936802) ">
                <use fill="black" fill-opacity="1" filter="url(#filter-10)" xlink:href="#path-9"></use>
                <use fill="url(#linearGradient-8)" fill-rule="evenodd" xlink:href="#path-9"></use>
            </g>
        </g>
    </g>
</svg>