<?xml version="1.0" encoding="UTF-8"?>
<svg width="334px" height="263px" viewBox="0 0 334 263" version="1.1" xmlns="http://www.w3.org/2000/svg" xmlns:xlink="http://www.w3.org/1999/xlink">
    <!-- Generator: Sketch 48.2 (47327) - http://www.bohemiancoding.com/sketch -->
    <title>effort-efficiency</title>
    <desc>Created with Sketch.</desc>
    <defs>
        <linearGradient x1="50%" y1="1.2236926%" x2="50%" y2="100%" id="linearGradient-1">
            <stop stop-color="#76C9AC" offset="0%"></stop>
            <stop stop-color="#D2EADC" offset="100%"></stop>
        </linearGradient>
        <path d="M0.73132,32.3384 C0.73132,14.630667 21.09103,0.275717 46.20605,0.275717 C71.32107,0.275717 91.68078,14.630667 91.68078,32.3384 C91.68078,50.046133 71.32107,64.401083 46.20605,64.401083 C21.09103,64.401083 0.73132,50.046133 0.73132,32.3384 Z" id="path-2"></path>
        <filter x="-7.7%" y="-7.8%" width="115.4%" height="121.8%" filterUnits="objectBoundingBox" id="filter-3">
            <feOffset dx="0" dy="2" in="SourceAlpha" result="shadowOffsetOuter1"></feOffset>
            <feGaussianBlur stdDeviation="2" in="shadowOffsetOuter1" result="shadowBlurOuter1"></feGaussianBlur>
            <feColorMatrix values="0 0 0 0 0.184313725   0 0 0 0 0.376470588   0 0 0 0 0.439215686  0 0 0 1 0" type="matrix" in="shadowBlurOuter1"></feColorMatrix>
        </filter>
        <path d="M0.0027,32.26157 C0.0027,14.553837 16.969192,0.198887 37.89833,0.198887 C58.82753,0.198887 75.79396,14.553837 75.79396,32.26157 C75.79396,49.969303 58.82753,64.324253 37.89833,64.324253 C16.969192,64.324253 0.0027,49.969303 0.0027,32.26157 Z" id="path-4"></path>
        <filter x="-9.2%" y="-7.8%" width="118.5%" height="121.8%" filterUnits="objectBoundingBox" id="filter-5">
            <feOffset dx="0" dy="2" in="SourceAlpha" result="shadowOffsetOuter1"></feOffset>
            <feGaussianBlur stdDeviation="2" in="shadowOffsetOuter1" result="shadowBlurOuter1"></feGaussianBlur>
            <feColorMatrix values="0 0 0 0 0.184313725   0 0 0 0 0.376470588   0 0 0 0 0.439215686  0 0 0 1 0" type="matrix" in="shadowBlurOuter1"></feColorMatrix>
        </filter>
        <path d="M0.0027,47.8966 C0.0027,21.67782 22.62886,0.423303 50.539626,0.423303 C63.942885,0.423303 76.797133,5.424951 86.274672,14.327905 C95.75215,23.23089 101.076552,35.305902 101.076552,47.8966 C101.076552,74.11538 78.450392,95.369897 50.539626,95.369897 C22.628859,95.369897 0.0027,74.11538 0.0027,47.8966 Z" id="path-6"></path>
        <filter x="-6.9%" y="-5.3%" width="113.9%" height="114.7%" filterUnits="objectBoundingBox" id="filter-7">
            <feOffset dx="0" dy="2" in="SourceAlpha" result="shadowOffsetOuter1"></feOffset>
            <feGaussianBlur stdDeviation="2" in="shadowOffsetOuter1" result="shadowBlurOuter1"></feGaussianBlur>
            <feColorMatrix values="0 0 0 0 0.184313725   0 0 0 0 0.376470588   0 0 0 0 0.439215686  0 0 0 1 0" type="matrix" in="shadowBlurOuter1"></feColorMatrix>
        </filter>
    </defs>
    <g id="Page-1" stroke="none" stroke-width="1" fill="none" fill-rule="evenodd">
        <g id="ja" transform="translate(-3.000000, -3.000000)">
            <g id="Axis">
                <polygon id="Background" fill="url(#linearGradient-1)" points="4.32079797e-14 0 339 0 339 270 0 270"></polygon>
                <path d="M29.23666,16.5 L29.23666,240.45009" id="y-Axis" stroke="#2F6070" stroke-linejoin="round"></path>
                <path d="M29,240 L323.5,240" id="x-Axis" stroke="#2F6070" stroke-linejoin="round"></path>
                <text id="効率" font-family="HiraMaruProN-W4, Hiragino Maru Gothic ProN" font-size="12" font-weight="normal" fill="#2F6070">
                    <tspan x="164" y="255">効率</tspan>
                </text>
                <text id="有効性" transform="translate(17.000000, 129.500000) rotate(270.000000) translate(-17.000000, -129.500000) " font-family="HiraMaruProN-W4, Hiragino Maru Gothic ProN" font-size="12" font-weight="normal" fill="#2F6070">
                    <tspan x="-1" y="134.5">有効性</tspan>
                </text>
            </g>
            <g id="Traditional-Lectures" transform="translate(52.000000, 158.000000)">
                <g id="Trad-Ellipse">
                    <use fill="black" fill-opacity="1" filter="url(#filter-3)" xlink:href="#path-2"></use>
                    <use fill="#F3C68D" fill-rule="evenodd" xlink:href="#path-2"></use>
                </g>
                <path d="M30.312,31.744 L30.312,28.396 C30.312,27.724 30.348,27.1 30.42,26.608 C30.168,26.92 29.856,27.232 29.544,27.472 C29.46,27.532 29.364,27.568 29.268,27.568 C29.136,27.568 29.016,27.508 28.92,27.388 C28.86,27.304 28.824,27.196 28.824,27.1 C28.824,26.968 28.884,26.848 28.992,26.764 C30.012,25.96 30.708,25.096 31.368,23.968 C31.452,23.836 31.56,23.764 31.704,23.764 C31.776,23.764 31.86,23.788 31.956,23.836 C32.112,23.92 32.196,24.052 32.196,24.184 C32.196,24.256 32.184,24.316 32.148,24.376 C31.884,24.844 31.584,25.288 31.224,25.72 L31.224,31.744 C31.224,31.96 31.044,32.08 30.768,32.08 C30.492,32.08 30.312,31.96 30.312,31.744 Z M35.544,24.532 L32.856,24.532 C32.628,24.532 32.508,24.364 32.508,24.112 C32.508,23.86 32.628,23.692 32.856,23.692 L36.42,23.692 C36.924,22.96 37.392,22.036 37.692,21.256 C37.752,21.1 37.884,21.004 38.076,21.004 C38.148,21.004 38.22,21.016 38.292,21.04 C38.496,21.112 38.616,21.256 38.616,21.424 C38.616,21.472 38.604,21.532 38.58,21.58 C38.304,22.228 37.848,23.032 37.404,23.692 L39.552,23.692 C39.768,23.692 39.888,23.86 39.888,24.112 C39.888,24.364 39.768,24.532 39.552,24.532 L36.456,24.532 L36.456,26.74 L39.084,26.74 C39.3,26.74 39.42,26.908 39.42,27.148 C39.42,27.388 39.3,27.58 39.084,27.58 L36.456,27.58 L36.456,30.424 C36.588,30.46 36.732,30.484 36.876,30.508 C37.464,30.604 38.124,30.652 38.916,30.652 C39.156,30.652 39.42,30.652 39.696,30.64 L39.72,30.64 C39.96,30.64 40.116,30.832 40.116,31.108 C40.116,31.42 39.948,31.588 39.672,31.588 C39.444,31.6 39.228,31.6 39.024,31.6 C38.136,31.6 37.368,31.54 36.72,31.42 C35.208,31.144 34.248,30.484 33.564,29.284 C33.312,30.1 32.964,30.88 32.544,31.552 C32.448,31.696 32.316,31.768 32.172,31.768 C32.076,31.768 31.968,31.732 31.872,31.672 C31.74,31.576 31.668,31.444 31.668,31.3 C31.668,31.204 31.704,31.108 31.764,31.012 C32.688,29.692 33.144,27.82 33.216,26.068 C33.228,25.828 33.408,25.72 33.648,25.72 L33.684,25.72 C33.936,25.732 34.116,25.864 34.116,26.104 L34.116,26.128 C34.08,26.836 33.972,27.568 33.816,28.288 C34.2,29.068 34.764,29.704 35.544,30.1 L35.544,24.532 Z M31.968,20.992 C32.112,21.064 32.196,21.184 32.196,21.328 C32.196,21.4 32.172,21.484 32.112,21.568 C31.452,22.576 30.564,23.428 29.676,24.1 C29.58,24.172 29.472,24.22 29.364,24.22 C29.256,24.22 29.136,24.172 29.04,24.052 C28.956,23.956 28.92,23.848 28.92,23.74 C28.92,23.62 28.98,23.488 29.088,23.404 C29.988,22.768 30.816,21.988 31.356,21.112 C31.44,20.992 31.572,20.92 31.704,20.92 C31.788,20.92 31.884,20.944 31.968,20.992 Z M33.732,21.088 C33.828,21.04 33.924,21.016 34.008,21.016 C34.128,21.016 34.248,21.076 34.332,21.16 C34.74,21.664 35.064,22.168 35.328,22.744 C35.352,22.804 35.364,22.864 35.364,22.924 C35.364,23.068 35.28,23.2 35.1,23.284 C35.016,23.32 34.92,23.344 34.836,23.344 C34.668,23.344 34.524,23.272 34.464,23.116 C34.236,22.588 33.972,22.144 33.552,21.616 C33.516,21.556 33.492,21.496 33.492,21.436 C33.492,21.304 33.576,21.172 33.732,21.088 Z M46.848,26.14 L47.892,26.14 C48.42,25.396 48.888,24.424 49.188,23.692 C49.26,23.5 49.416,23.428 49.584,23.428 C49.656,23.428 49.716,23.44 49.788,23.464 C49.98,23.524 50.088,23.644 50.088,23.812 C50.088,23.86 50.076,23.92 50.052,23.992 C49.716,24.724 49.284,25.516 48.828,26.14 L51.612,26.14 C51.828,26.14 51.948,26.296 51.948,26.56 C51.948,26.8 51.828,26.992 51.612,26.992 L47.364,26.992 C48.624,28.636 50.148,29.74 51.78,30.508 C51.936,30.58 52.02,30.736 52.02,30.916 C52.02,31 51.996,31.096 51.948,31.192 C51.852,31.384 51.696,31.468 51.54,31.468 C51.456,31.468 51.384,31.444 51.3,31.408 C49.632,30.556 47.904,29.152 46.74,27.4 C46.8,27.832 46.848,28.324 46.848,28.732 L46.848,31.708 C46.848,31.912 46.68,32.032 46.404,32.032 C46.14,32.032 45.96,31.912 45.96,31.708 L45.96,28.78 C45.96,28.348 45.996,27.928 46.068,27.412 C45.108,29.044 43.284,30.58 41.844,31.36 C41.748,31.42 41.652,31.444 41.556,31.444 C41.388,31.444 41.244,31.348 41.148,31.168 C41.1,31.072 41.076,30.988 41.076,30.904 C41.076,30.736 41.172,30.58 41.352,30.496 C42.828,29.74 44.4,28.456 45.432,26.992 L41.376,26.992 C41.148,26.992 41.04,26.8 41.04,26.56 C41.04,26.296 41.148,26.14 41.376,26.14 L45.96,26.14 L45.96,23.08 L41.988,23.08 C41.772,23.08 41.652,22.9 41.652,22.648 C41.652,22.396 41.772,22.228 41.988,22.228 L45.96,22.228 L45.96,21.184 C45.96,20.968 46.128,20.848 46.404,20.848 C46.68,20.848 46.848,20.968 46.848,21.184 L46.848,22.228 L51,22.228 C51.216,22.228 51.336,22.384 51.336,22.648 C51.336,22.888 51.216,23.08 51,23.08 L46.848,23.08 L46.848,26.14 Z M43.008,23.524 C43.104,23.476 43.188,23.452 43.272,23.452 C43.416,23.452 43.536,23.512 43.608,23.644 C43.896,24.076 44.244,24.688 44.496,25.264 C44.52,25.336 44.532,25.396 44.532,25.444 C44.532,25.6 44.424,25.72 44.232,25.792 C44.148,25.828 44.076,25.84 44.004,25.84 C43.848,25.84 43.716,25.768 43.656,25.612 C43.428,25.096 43.116,24.472 42.828,24.028 C42.792,23.968 42.78,23.908 42.78,23.848 C42.78,23.716 42.852,23.596 43.008,23.524 Z M59.04,22.948 C58.932,24.772 58.668,26.452 58.248,27.736 C57.828,28.972 57.48,29.512 57.06,29.908 C56.676,30.28 56.172,30.436 55.68,30.436 C54.432,30.436 53.436,29.224 53.436,27.208 C53.436,24.22 55.524,22.06 58.8,22.06 C61.632,22.06 63.504,23.908 63.504,26.548 C63.504,28.24 62.772,29.524 61.524,30.316 C60.828,30.76 59.964,31.036 59.004,31.18 C58.956,31.192 58.908,31.192 58.872,31.192 C58.62,31.192 58.416,31.072 58.368,30.772 C58.356,30.736 58.356,30.688 58.356,30.652 C58.356,30.412 58.512,30.232 58.788,30.184 C59.664,30.064 60.588,29.764 61.188,29.32 C61.944,28.756 62.496,27.784 62.496,26.524 C62.496,24.496 61.164,23.02 59.04,22.948 Z M58.044,22.984 C55.848,23.188 54.408,24.868 54.408,27.196 C54.408,28.636 55.02,29.392 55.656,29.392 C55.932,29.392 56.208,29.296 56.46,29.044 C56.724,28.792 57,28.276 57.288,27.4 C57.66,26.272 57.96,24.628 58.044,22.984 Z M42.816,41.044 L44.436,41.044 C45.096,41.044 45.396,41.296 45.396,41.86 L45.396,44.212 L45.816,44.212 C46.02,44.212 46.128,44.356 46.128,44.572 C46.128,44.788 46.02,44.944 45.816,44.944 L45.396,44.944 L45.396,45.952 C45.396,46.624 45.024,46.888 44.16,46.888 C43.788,46.888 43.392,46.876 43.068,46.816 C42.888,46.78 42.768,46.648 42.768,46.444 C42.768,46.42 42.768,46.384 42.78,46.36 C42.816,46.144 42.96,46.048 43.116,46.048 C43.14,46.048 43.164,46.048 43.188,46.06 C43.452,46.108 43.776,46.144 44.052,46.144 C44.52,46.144 44.616,46.072 44.616,45.784 L44.616,44.944 L40.332,44.944 L40.332,46.696 C40.332,46.9 40.188,47.008 39.936,47.008 C39.696,47.008 39.528,46.9 39.528,46.696 L39.528,44.944 L39.168,44.944 C38.964,44.944 38.844,44.788 38.844,44.572 C38.844,44.356 38.964,44.212 39.168,44.212 L39.528,44.212 L39.528,41.86 C39.528,41.296 39.828,41.044 40.488,41.044 L42.036,41.044 L42.036,40.36 L39.216,40.36 C39.024,40.36 38.916,40.204 38.916,40.012 C38.916,39.796 39.024,39.664 39.216,39.664 L40.716,39.664 L40.716,38.86 L39.588,38.86 C39.42,38.86 39.312,38.704 39.312,38.536 C39.312,38.344 39.42,38.176 39.588,38.176 L40.716,38.176 L40.716,37.444 L39.324,37.444 C39.144,37.444 39.048,37.276 39.048,37.084 C39.048,36.892 39.144,36.748 39.324,36.748 L40.716,36.748 L40.716,36.184 C40.716,35.968 40.872,35.872 41.112,35.872 C41.376,35.872 41.508,35.968 41.508,36.184 L41.508,36.748 L43.332,36.748 L43.332,36.172 C43.332,35.968 43.476,35.86 43.728,35.86 C43.98,35.86 44.124,35.968 44.124,36.172 L44.124,36.748 L45.636,36.748 C45.804,36.748 45.924,36.892 45.924,37.084 C45.924,37.288 45.804,37.444 45.636,37.444 L44.124,37.444 L44.124,38.176 L45.336,38.176 C45.504,38.176 45.612,38.344 45.612,38.536 C45.612,38.716 45.504,38.86 45.336,38.86 L44.124,38.86 L44.124,39.664 L45.816,39.664 C46.008,39.664 46.116,39.796 46.116,40.012 C46.116,40.204 46.008,40.36 45.816,40.36 L42.816,40.36 L42.816,41.044 Z M42.036,44.212 L42.036,43.288 L40.332,43.288 L40.332,44.212 L42.036,44.212 Z M42.816,44.212 L44.616,44.212 L44.616,43.288 L42.816,43.288 L42.816,44.212 Z M42.036,42.652 L42.036,41.716 L40.644,41.716 C40.44,41.716 40.332,41.776 40.332,41.98 L40.332,42.652 L42.036,42.652 Z M42.816,42.652 L44.616,42.652 L44.616,41.98 C44.616,41.776 44.508,41.716 44.304,41.716 L42.816,41.716 L42.816,42.652 Z M41.508,39.664 L43.332,39.664 L43.332,38.86 L41.508,38.86 L41.508,39.664 Z M41.508,38.176 L43.332,38.176 L43.332,37.444 L41.508,37.444 L41.508,38.176 Z M35.328,37.912 L38.484,37.912 C38.7,37.912 38.808,38.068 38.808,38.32 C38.808,38.548 38.7,38.728 38.484,38.728 L35.328,38.728 C35.112,38.728 35.004,38.548 35.004,38.32 C35.004,38.08 35.112,37.912 35.328,37.912 Z M38.244,40.48 L35.628,40.48 C35.424,40.48 35.316,40.3 35.316,40.084 C35.316,39.868 35.424,39.688 35.628,39.688 L38.244,39.688 C38.436,39.688 38.544,39.868 38.544,40.084 C38.544,40.288 38.436,40.48 38.244,40.48 Z M38.244,42.208 L35.616,42.208 C35.412,42.208 35.304,42.016 35.304,41.812 C35.304,41.596 35.412,41.416 35.616,41.416 L38.244,41.416 C38.448,41.416 38.556,41.596 38.556,41.8 C38.556,42.016 38.448,42.208 38.244,42.208 Z M35.64,36.172 L38.256,36.172 C38.448,36.172 38.568,36.34 38.568,36.58 C38.568,36.808 38.448,36.964 38.256,36.964 L35.64,36.964 C35.448,36.964 35.328,36.808 35.328,36.58 C35.328,36.34 35.448,36.172 35.64,36.172 Z M38.592,43.96 L38.592,45.856 C38.592,46.492 38.304,46.744 37.668,46.744 L36.276,46.744 C35.64,46.744 35.352,46.492 35.352,45.856 L35.352,43.96 C35.352,43.348 35.64,43.108 36.276,43.108 L37.668,43.108 C38.304,43.108 38.592,43.348 38.592,43.96 Z M36.168,44.092 L36.168,45.7 C36.168,45.916 36.288,46 36.492,46 L37.452,46 C37.656,46 37.776,45.916 37.776,45.7 L37.776,44.092 C37.776,43.876 37.656,43.816 37.452,43.816 L36.492,43.816 C36.288,43.816 36.168,43.876 36.168,44.092 Z M50.508,42.484 L53.148,42.46 C53.064,42.04 53.016,41.596 52.98,41.14 L52.98,41.116 C52.98,40.9 53.148,40.78 53.4,40.768 L53.436,40.768 C53.676,40.768 53.832,40.912 53.844,41.116 C53.868,41.584 53.928,42.028 54.024,42.448 L57.696,42.424 C57.888,42.436 58.008,42.568 58.008,42.784 C58.008,43 57.888,43.132 57.696,43.168 L54.216,43.192 C54.348,43.588 54.504,43.96 54.708,44.308 C54.744,44.368 54.768,44.416 54.804,44.464 C55.2,44.164 55.56,43.84 55.848,43.492 C55.92,43.408 56.04,43.36 56.148,43.36 C56.244,43.36 56.34,43.396 56.424,43.456 C56.52,43.528 56.568,43.636 56.568,43.744 C56.568,43.84 56.532,43.924 56.472,43.996 C56.148,44.38 55.74,44.752 55.284,45.1 C55.656,45.532 56.1,45.856 56.568,46.048 C56.64,46.084 56.712,46.096 56.772,46.096 C56.892,46.096 57,46.036 57.084,45.904 C57.204,45.712 57.288,45.34 57.324,45.028 C57.348,44.8 57.48,44.704 57.66,44.704 C57.684,44.704 57.708,44.704 57.744,44.716 C57.972,44.74 58.08,44.884 58.08,45.088 L58.08,45.148 C58.02,45.676 57.84,46.216 57.624,46.528 C57.432,46.804 57.144,46.948 56.808,46.948 C56.592,46.948 56.364,46.9 56.124,46.78 C55.584,46.54 55.044,46.132 54.588,45.58 C53.772,46.096 52.848,46.528 51.984,46.768 C51.936,46.78 51.876,46.792 51.828,46.792 C51.636,46.792 51.492,46.696 51.432,46.516 C51.42,46.456 51.408,46.408 51.408,46.36 C51.408,46.168 51.528,46.036 51.732,45.976 C52.56,45.748 53.376,45.388 54.108,44.944 C54.048,44.848 54,44.752 53.94,44.656 C53.688,44.212 53.484,43.72 53.328,43.204 L50.508,43.228 L50.508,44.08 C51.12,43.996 51.684,43.888 52.128,43.792 C52.176,43.78 52.212,43.78 52.26,43.78 C52.428,43.78 52.524,43.888 52.56,44.056 C52.572,44.092 52.572,44.14 52.572,44.176 C52.572,44.344 52.476,44.476 52.296,44.512 C51.804,44.632 51.18,44.752 50.508,44.86 L50.508,46.06 C50.508,46.708 50.088,46.984 49.2,46.984 C48.876,46.984 48.528,46.948 48.24,46.876 C48.048,46.828 47.94,46.696 47.94,46.516 C47.94,46.468 47.952,46.42 47.952,46.372 C48.012,46.168 48.156,46.072 48.312,46.072 C48.348,46.072 48.384,46.072 48.408,46.084 C48.624,46.144 48.888,46.18 49.2,46.18 C49.548,46.18 49.692,46.12 49.692,45.844 L49.692,44.98 C48.948,45.076 48.192,45.148 47.52,45.196 L47.496,45.196 C47.316,45.196 47.16,45.028 47.148,44.812 L47.148,44.788 C47.148,44.572 47.28,44.416 47.472,44.404 C48.156,44.368 48.936,44.296 49.692,44.2 L49.692,43.228 L47.244,43.252 C47.04,43.216 46.932,43.084 46.932,42.868 C46.932,42.652 47.04,42.52 47.244,42.508 L49.692,42.484 L49.692,41.872 C49.104,41.956 48.492,42.016 47.928,42.052 L47.892,42.052 C47.664,42.052 47.568,41.932 47.544,41.752 L47.544,41.692 C47.544,41.524 47.652,41.344 47.856,41.332 C49.176,41.26 50.64,41.044 51.564,40.756 C51.624,40.732 51.684,40.72 51.732,40.72 C51.876,40.72 51.996,40.792 52.068,40.96 C52.08,41.008 52.092,41.056 52.092,41.104 C52.092,41.248 52.008,41.38 51.804,41.44 C51.42,41.56 50.976,41.656 50.508,41.74 L50.508,42.484 Z M51.996,37.636 L47.88,37.636 C47.688,37.636 47.58,37.468 47.58,37.276 C47.58,37.072 47.688,36.916 47.88,36.916 L50.376,36.916 C50.22,36.676 50.028,36.412 49.896,36.28 C49.848,36.22 49.824,36.16 49.824,36.088 C49.824,35.968 49.908,35.86 50.04,35.8 C50.124,35.764 50.208,35.74 50.292,35.74 C50.436,35.74 50.568,35.8 50.664,35.92 C50.868,36.148 51.12,36.508 51.372,36.916 L53.52,36.916 C53.772,36.604 54.036,36.232 54.156,35.98 C54.24,35.812 54.372,35.74 54.528,35.74 C54.6,35.74 54.66,35.752 54.732,35.776 C54.924,35.824 55.044,35.944 55.044,36.088 C55.044,36.136 55.032,36.196 54.996,36.244 C54.9,36.424 54.696,36.688 54.504,36.916 L57.084,36.916 C57.276,36.916 57.396,37.06 57.396,37.276 C57.396,37.468 57.276,37.636 57.084,37.636 L52.812,37.636 L52.812,38.356 L56.436,38.356 C56.604,38.356 56.712,38.512 56.712,38.716 C56.712,38.884 56.604,39.076 56.436,39.076 L52.812,39.076 L52.812,39.832 L57.66,39.832 C57.852,39.832 57.96,39.964 57.96,40.18 C57.96,40.372 57.852,40.552 57.66,40.552 L47.34,40.552 C47.148,40.552 47.04,40.372 47.04,40.18 C47.04,39.988 47.148,39.832 47.34,39.832 L51.996,39.832 L51.996,39.076 L48.528,39.076 C48.348,39.076 48.252,38.884 48.252,38.716 C48.252,38.524 48.348,38.356 48.528,38.356 L51.996,38.356 L51.996,37.636 Z M55.332,40.78 C55.692,40.96 56.232,41.332 56.52,41.572 C56.64,41.668 56.7,41.776 56.7,41.884 C56.7,41.956 56.676,42.04 56.604,42.112 C56.52,42.22 56.412,42.268 56.292,42.268 C56.208,42.268 56.112,42.232 56.028,42.172 C55.728,41.932 55.236,41.584 54.912,41.404 C54.792,41.332 54.72,41.224 54.72,41.104 C54.72,41.032 54.744,40.948 54.804,40.876 C54.888,40.768 54.996,40.72 55.104,40.72 C55.176,40.72 55.248,40.744 55.332,40.78 Z" id="従来の-講義-copy" fill="#2F6070"></path>
            </g>
            <g id="Typical-AL" transform="translate(148.000000, 110.000000)">
                <g id="Typical-Ellipse">
                    <use fill="black" fill-opacity="1" filter="url(#filter-5)" xlink:href="#path-4"></use>
                    <use fill="#E69877" fill-rule="evenodd" xlink:href="#path-4"></use>
                </g>
                <path d="M25.04,15.968 L14.948,15.968 C14.696,15.968 14.552,15.692 14.552,15.44 C14.552,15.176 14.696,14.924 14.948,14.924 L25.04,14.924 C25.292,14.924 25.436,15.176 25.436,15.44 C25.436,15.692 25.292,15.968 25.04,15.968 Z M28.796,12.392 C28.856,12.368 28.916,12.356 28.976,12.356 C29.108,12.356 29.228,12.404 29.288,12.524 C29.54,12.932 29.792,13.496 29.936,13.94 C29.948,14 29.96,14.06 29.96,14.108 C29.96,14.276 29.876,14.384 29.72,14.432 C29.672,14.456 29.612,14.468 29.552,14.468 C29.408,14.468 29.264,14.384 29.204,14.192 C29.084,13.82 28.856,13.304 28.616,12.86 C28.592,12.812 28.58,12.764 28.58,12.716 C28.58,12.56 28.688,12.44 28.796,12.392 Z M31.268,11.948 L31.268,14.684 C31.292,14.672 31.328,14.672 31.352,14.66 C31.4,14.648 31.436,14.648 31.472,14.648 C31.652,14.648 31.748,14.768 31.772,14.972 L31.772,15.044 C31.772,15.212 31.7,15.368 31.52,15.416 C31.436,15.44 31.352,15.452 31.268,15.476 L31.268,19.868 C31.268,20.588 30.86,20.888 30.104,20.888 C29.78,20.888 29.36,20.852 29.108,20.804 C28.916,20.768 28.772,20.612 28.772,20.408 C28.772,20.372 28.772,20.336 28.784,20.3 C28.832,20.072 28.976,19.964 29.144,19.964 C29.18,19.964 29.216,19.964 29.252,19.976 C29.456,20.024 29.732,20.072 29.984,20.072 C30.356,20.072 30.452,19.964 30.452,19.604 L30.452,15.656 C30.188,15.704 29.912,15.752 29.636,15.8 L29.636,18.668 C29.636,18.872 29.492,18.98 29.264,18.98 C29.048,18.98 28.892,18.872 28.892,18.668 L28.892,15.908 C28.616,15.944 28.352,15.98 28.076,16.016 C27.992,17.888 27.716,19.496 27.14,20.624 C27.044,20.804 26.912,20.888 26.756,20.888 C26.672,20.888 26.6,20.864 26.516,20.828 C26.348,20.744 26.276,20.624 26.276,20.48 C26.276,20.408 26.3,20.312 26.348,20.228 C26.84,19.268 27.128,17.888 27.224,16.112 C27.056,16.124 26.888,16.148 26.72,16.16 L26.672,16.16 C26.456,16.16 26.324,16.016 26.3,15.752 L26.3,15.692 C26.3,15.44 26.444,15.332 26.66,15.32 C26.852,15.308 27.056,15.296 27.248,15.272 C27.26,15.068 27.26,14.852 27.26,14.636 L27.26,11.948 C27.26,11.288 27.548,11.036 28.196,11.036 L28.676,11.036 C28.82,10.724 28.964,10.364 29.024,10.112 C29.072,9.956 29.204,9.86 29.396,9.86 C29.444,9.86 29.492,9.86 29.552,9.872 C29.768,9.92 29.876,10.028 29.876,10.184 C29.876,10.208 29.876,10.244 29.864,10.268 C29.804,10.508 29.684,10.808 29.576,11.036 L30.356,11.036 C31.004,11.036 31.268,11.288 31.268,11.948 Z M30.452,14.852 L30.452,12.116 C30.452,11.864 30.344,11.792 30.104,11.792 L28.448,11.792 C28.22,11.792 28.1,11.864 28.1,12.116 L28.1,15.188 C28.892,15.104 29.672,14.996 30.452,14.852 Z M32.504,15.92 L32.132,15.92 C31.904,15.92 31.796,15.74 31.796,15.512 C31.796,15.284 31.904,15.104 32.132,15.104 L36.092,15.104 C36.62,15.104 36.908,15.404 36.908,15.836 C36.908,15.968 36.872,16.124 36.812,16.292 C36.488,17.096 35.936,17.924 35.228,18.668 C35.828,19.208 36.536,19.652 37.424,20.036 C37.58,20.108 37.676,20.252 37.676,20.42 C37.676,20.504 37.652,20.588 37.616,20.684 C37.544,20.828 37.388,20.936 37.208,20.936 C37.124,20.936 37.052,20.924 36.968,20.888 C36.08,20.492 35.3,19.964 34.604,19.28 C33.848,19.976 32.972,20.552 32.072,20.936 C31.988,20.972 31.904,20.996 31.82,20.996 C31.676,20.996 31.544,20.936 31.46,20.78 C31.412,20.696 31.388,20.6 31.388,20.516 C31.388,20.36 31.484,20.216 31.664,20.132 C32.516,19.784 33.332,19.256 34.028,18.644 C33.38,17.816 32.888,16.904 32.504,15.92 Z M35.684,15.92 L33.344,15.92 C33.68,16.7 34.1,17.408 34.64,18.056 C35.192,17.48 35.624,16.844 35.864,16.244 C35.9,16.172 35.912,16.112 35.912,16.064 C35.912,15.968 35.84,15.92 35.684,15.92 Z M35.048,13.472 L35.048,11.384 C35.048,11.156 34.928,11.084 34.724,11.084 L33.8,11.084 C33.596,11.084 33.476,11.156 33.476,11.384 C33.476,12.884 33.224,13.652 32.504,14.42 C32.396,14.528 32.276,14.588 32.144,14.588 C32.036,14.588 31.916,14.54 31.82,14.456 C31.724,14.384 31.676,14.264 31.676,14.132 C31.676,14.036 31.712,13.928 31.796,13.844 C32.492,13.148 32.6,12.56 32.6,11.18 C32.6,10.544 32.924,10.292 33.548,10.292 L34.964,10.292 C35.6,10.292 35.912,10.556 35.912,11.168 L35.912,13.184 C35.912,13.436 36.008,13.496 36.32,13.496 C36.572,13.496 36.68,13.424 36.74,13.232 C36.8,13.04 36.836,12.716 36.848,12.416 C36.86,12.224 36.992,12.092 37.232,12.092 L37.268,12.092 C37.508,12.104 37.652,12.26 37.652,12.464 C37.64,12.992 37.568,13.508 37.4,13.82 C37.232,14.12 36.968,14.252 36.272,14.252 C35.348,14.252 35.048,14.096 35.048,13.472 Z M47.948,12.476 L44.948,12.476 C44.648,13.076 44.312,13.64 43.964,14.06 C43.868,14.18 43.736,14.228 43.604,14.228 C43.484,14.228 43.352,14.18 43.268,14.108 C43.184,14.024 43.136,13.916 43.136,13.796 C43.136,13.676 43.172,13.556 43.268,13.46 C43.904,12.716 44.528,11.396 44.828,10.172 C44.888,9.944 45.056,9.86 45.248,9.86 C45.296,9.86 45.344,9.86 45.392,9.872 C45.584,9.908 45.728,10.052 45.728,10.256 C45.728,10.304 45.728,10.34 45.716,10.388 C45.608,10.784 45.476,11.18 45.332,11.588 L48.224,11.588 C48.968,11.588 49.292,11.912 49.292,12.656 L49.292,12.896 C49.292,16.352 49.04,18.524 48.656,19.736 C48.404,20.528 47.876,20.804 47.012,20.804 C46.496,20.804 45.932,20.732 45.524,20.624 C45.332,20.576 45.236,20.408 45.236,20.204 C45.236,20.156 45.248,20.096 45.26,20.036 C45.32,19.82 45.476,19.712 45.656,19.712 C45.704,19.712 45.752,19.724 45.8,19.736 C46.1,19.832 46.496,19.892 46.94,19.892 C47.456,19.892 47.696,19.772 47.84,19.232 C48.128,18.188 48.344,16.04 48.344,12.848 C48.344,12.56 48.224,12.476 47.948,12.476 Z M41.132,11.612 L41.888,11.612 C42.572,11.612 42.896,11.876 42.896,12.548 L42.896,19.16 C42.896,19.844 42.56,20.132 41.888,20.132 L39.812,20.132 C39.128,20.132 38.792,19.844 38.792,19.16 L38.792,12.548 C38.792,11.876 39.116,11.612 39.812,11.612 L40.22,11.612 C40.412,11.12 40.556,10.592 40.664,10.148 C40.712,9.968 40.856,9.872 41.06,9.872 C41.108,9.872 41.168,9.872 41.216,9.884 C41.468,9.932 41.576,10.052 41.576,10.244 C41.576,10.28 41.576,10.316 41.564,10.34 C41.456,10.748 41.3,11.228 41.132,11.612 Z M39.704,15.26 L41.984,15.26 L41.984,12.752 C41.984,12.488 41.864,12.428 41.636,12.428 L40.064,12.428 C39.824,12.428 39.704,12.488 39.704,12.752 L39.704,15.26 Z M39.704,16.064 L39.704,18.968 C39.704,19.244 39.824,19.304 40.064,19.304 L41.636,19.304 C41.864,19.304 41.984,19.244 41.984,18.968 L41.984,16.064 L39.704,16.064 Z M44.612,14.168 C44.708,14.108 44.828,14.072 44.936,14.072 C45.044,14.072 45.152,14.108 45.236,14.216 C45.836,14.936 46.412,15.956 46.772,16.724 C46.808,16.796 46.82,16.868 46.82,16.94 C46.82,17.108 46.736,17.264 46.568,17.348 C46.484,17.384 46.388,17.408 46.304,17.408 C46.148,17.408 45.992,17.324 45.908,17.132 C45.608,16.448 45.068,15.44 44.528,14.744 C44.468,14.66 44.432,14.576 44.432,14.48 C44.432,14.36 44.492,14.24 44.612,14.168 Z M58.244,11.792 C59.156,12.14 60.116,12.656 60.788,13.112 C60.956,13.22 61.028,13.4 61.028,13.556 C61.028,13.652 61.004,13.748 60.956,13.832 C60.86,13.976 60.704,14.06 60.548,14.06 C60.44,14.06 60.344,14.024 60.248,13.964 C59.54,13.472 58.64,13.004 57.74,12.644 C57.584,12.584 57.512,12.44 57.512,12.284 C57.512,12.188 57.536,12.092 57.584,12.008 C57.692,11.84 57.848,11.756 58.028,11.756 C58.1,11.756 58.172,11.768 58.244,11.792 Z M54.128,13.112 C53.552,14.996 52.772,16.892 51.872,18.464 C51.752,18.668 51.596,18.776 51.428,18.776 C51.32,18.776 51.212,18.74 51.092,18.668 C50.936,18.572 50.864,18.428 50.864,18.272 C50.864,18.164 50.9,18.032 50.972,17.912 C51.8,16.508 52.604,14.792 53.096,13.172 C52.652,13.196 52.184,13.208 51.716,13.208 L51.26,13.208 C50.984,13.208 50.84,13.028 50.84,12.74 C50.84,12.452 51.008,12.272 51.284,12.272 L51.8,12.272 C52.316,12.272 52.856,12.26 53.372,12.236 C53.54,11.648 53.684,11.048 53.804,10.436 C53.828,10.172 54.008,10.04 54.248,10.04 C54.284,10.04 54.32,10.04 54.368,10.052 C54.632,10.1 54.788,10.232 54.788,10.472 C54.788,10.52 54.788,10.568 54.776,10.628 C54.668,11.12 54.548,11.636 54.416,12.152 C55.004,12.104 55.568,12.056 56.072,11.984 C56.108,11.972 56.144,11.972 56.18,11.972 C56.42,11.972 56.564,12.116 56.612,12.368 L56.612,12.44 C56.612,12.668 56.468,12.848 56.18,12.896 C55.556,12.992 54.848,13.052 54.128,13.112 Z M58.7,17.192 C59.504,17.576 60.356,18.14 60.956,18.74 C61.076,18.86 61.136,19.004 61.136,19.136 C61.136,19.256 61.088,19.376 61.004,19.472 C60.896,19.58 60.776,19.64 60.656,19.64 C60.536,19.64 60.404,19.58 60.296,19.484 C59.828,19.016 59.24,18.524 58.736,18.236 C58.76,18.38 58.76,18.536 58.76,18.644 C58.7,19.952 57.86,20.564 56.228,20.564 C54.728,20.564 53.732,19.772 53.732,18.644 C53.732,17.492 54.752,16.664 56.24,16.664 C56.744,16.664 57.236,16.736 57.728,16.868 C57.656,16.196 57.596,15.248 57.596,14.468 C57.596,14.12 57.8,13.976 58.064,13.976 C58.352,13.976 58.556,14.132 58.556,14.468 C58.556,15.5 58.604,16.34 58.7,17.192 Z M57.8,17.828 C57.32,17.612 56.78,17.516 56.264,17.516 C55.292,17.516 54.68,17.972 54.68,18.632 C54.68,19.292 55.268,19.664 56.252,19.664 C57.272,19.664 57.824,19.28 57.824,18.428 C57.824,18.236 57.824,18.068 57.8,17.828 Z M9.56,25.976 L17.648,25.976 C18.188,25.976 18.5,26.156 18.716,26.432 C18.848,26.612 18.92,26.84 18.92,27.104 C18.92,27.332 18.86,27.596 18.74,27.86 C18.128,29.156 16.808,30.308 15.596,30.776 C15.5,30.812 15.416,30.836 15.332,30.836 C15.164,30.836 15.008,30.764 14.924,30.608 C14.876,30.524 14.852,30.428 14.852,30.344 C14.852,30.14 14.972,29.972 15.152,29.888 C16.208,29.432 17.216,28.58 17.768,27.56 C17.816,27.452 17.852,27.344 17.852,27.26 C17.852,27.092 17.732,26.972 17.456,26.972 L9.56,26.972 C9.272,26.972 9.128,26.792 9.128,26.48 C9.128,26.168 9.284,25.976 9.56,25.976 Z M13.676,28.052 C14,28.052 14.204,28.22 14.204,28.544 C14.192,30.644 13.928,31.832 13.448,32.792 C12.788,34.124 11.636,35 10.328,35.432 C10.244,35.468 10.16,35.48 10.076,35.48 C9.884,35.48 9.74,35.384 9.644,35.168 C9.608,35.084 9.596,35 9.596,34.928 C9.596,34.736 9.704,34.58 9.944,34.496 C11.084,34.112 12.032,33.344 12.512,32.312 C12.92,31.436 13.124,30.428 13.124,28.568 C13.124,28.22 13.352,28.052 13.676,28.052 Z M28.688,27.74 L24.824,27.8 C24.128,28.88 23.168,29.876 22.112,30.572 C22.004,30.632 21.908,30.668 21.8,30.668 C21.644,30.668 21.5,30.584 21.392,30.452 C21.332,30.368 21.296,30.26 21.296,30.14 C21.296,29.984 21.368,29.804 21.548,29.696 C22.736,28.928 23.936,27.608 24.74,25.604 C24.824,25.388 24.968,25.256 25.208,25.256 C25.268,25.256 25.34,25.268 25.424,25.292 C25.676,25.352 25.796,25.532 25.796,25.724 C25.796,25.772 25.784,25.832 25.772,25.88 C25.7,26.132 25.532,26.468 25.304,26.864 L29.06,26.792 C29.828,26.78 30.308,27.212 30.308,27.992 C30.308,28.136 30.296,28.28 30.26,28.448 C29.54,31.844 27.152,34.592 23.06,35.576 C23.012,35.588 22.964,35.588 22.916,35.588 C22.676,35.588 22.496,35.468 22.424,35.24 C22.412,35.18 22.4,35.12 22.4,35.06 C22.4,34.844 22.532,34.664 22.796,34.604 C26.3,33.68 28.448,31.544 29.168,28.292 C29.18,28.208 29.192,28.148 29.192,28.076 C29.192,27.848 29.072,27.74 28.736,27.74 L28.688,27.74 Z M37.832,29.888 L33.32,29.888 C33.044,29.888 32.9,29.672 32.9,29.396 C32.9,29.132 33.044,28.928 33.332,28.928 L42.692,28.928 C42.992,28.928 43.124,29.132 43.124,29.396 C43.124,29.672 42.992,29.888 42.704,29.888 L38.9,29.888 C38.888,31.328 38.576,32.492 37.964,33.428 C37.328,34.436 36.284,35.132 35.072,35.456 C34.976,35.48 34.892,35.492 34.808,35.492 C34.604,35.492 34.436,35.396 34.364,35.204 C34.34,35.132 34.328,35.06 34.328,34.988 C34.328,34.772 34.448,34.568 34.676,34.508 C35.732,34.244 36.62,33.632 37.112,32.804 C37.58,32.048 37.82,31.136 37.832,29.888 Z M34.352,25.904 L41.648,25.904 C41.948,25.904 42.08,26.12 42.08,26.396 C42.08,26.66 41.924,26.9 41.648,26.9 L34.352,26.9 C34.076,26.9 33.92,26.66 33.92,26.396 C33.92,26.12 34.064,25.904 34.352,25.904 Z M50.876,30.392 L50.876,35.156 C50.876,35.408 50.612,35.576 50.372,35.576 C50.132,35.576 49.892,35.42 49.892,35.144 L49.892,30.944 C48.8,31.616 47.588,32.18 46.604,32.516 C46.52,32.54 46.448,32.552 46.376,32.552 C46.172,32.552 46.028,32.444 45.968,32.264 C45.944,32.192 45.932,32.12 45.932,32.048 C45.932,31.844 46.04,31.676 46.256,31.604 C47.36,31.232 48.608,30.656 49.904,29.828 C50.948,29.156 51.74,28.484 52.496,27.62 C52.58,27.512 52.688,27.464 52.808,27.464 C52.928,27.464 53.048,27.524 53.168,27.62 C53.276,27.728 53.336,27.848 53.336,27.98 C53.336,28.088 53.288,28.208 53.204,28.316 C52.616,28.988 51.764,29.72 50.876,30.392 Z M57.092,26.588 L64.352,26.588 C64.928,26.588 65.276,26.732 65.504,27.02 C65.672,27.236 65.756,27.536 65.756,27.884 C65.756,27.992 65.744,28.1 65.732,28.22 C65.216,31.868 62.696,34.604 58.712,35.588 C58.628,35.612 58.556,35.624 58.484,35.624 C58.268,35.624 58.1,35.504 58.04,35.288 C58.016,35.216 58.016,35.156 58.016,35.096 C58.016,34.856 58.148,34.664 58.4,34.592 C61.856,33.68 64.208,31.412 64.604,28.184 C64.616,28.124 64.616,28.064 64.616,28.004 C64.616,27.692 64.46,27.608 64.088,27.608 L57.092,27.608 C56.816,27.608 56.66,27.392 56.66,27.092 C56.66,26.804 56.828,26.588 57.092,26.588 Z M64.82,25.22 C64.82,25.052 64.988,24.896 65.18,24.896 C65.348,24.896 65.42,24.968 65.504,25.064 C65.84,25.472 66.224,26.084 66.416,26.492 C66.452,26.576 66.476,26.66 66.476,26.816 C66.476,26.996 66.296,27.128 66.104,27.128 C65.912,27.128 65.816,27.032 65.756,26.888 C65.564,26.456 65.228,25.904 64.928,25.496 C64.856,25.412 64.82,25.316 64.82,25.22 Z M66.368,24.824 C66.368,24.632 66.548,24.5 66.74,24.5 C66.872,24.5 66.956,24.572 67.052,24.668 C67.34,25.004 67.724,25.64 67.928,26.06 C67.964,26.132 67.976,26.24 67.976,26.312 C67.976,26.552 67.808,26.672 67.604,26.672 C67.424,26.672 67.352,26.588 67.28,26.456 C67.052,25.976 66.776,25.496 66.488,25.1 C66.392,24.98 66.368,24.92 66.368,24.824 Z M10.724,40.736 L17.3,40.736 C17.552,40.736 17.72,40.964 17.72,41.228 C17.72,41.48 17.552,41.732 17.3,41.732 L10.724,41.732 C10.472,41.732 10.304,41.48 10.304,41.228 C10.304,40.964 10.472,40.736 10.724,40.736 Z M9.8,43.544 L17.192,43.544 C17.756,43.544 18.104,43.748 18.308,44.084 C18.416,44.264 18.464,44.48 18.464,44.732 C18.464,44.912 18.44,45.104 18.392,45.308 C17.804,47.876 15.404,49.952 12.068,50.432 C12.032,50.444 11.996,50.444 11.96,50.444 C11.684,50.444 11.492,50.276 11.456,50 C11.444,49.964 11.444,49.928 11.444,49.892 C11.444,49.64 11.6,49.46 11.864,49.412 C14.756,48.968 16.808,47.264 17.336,45.14 C17.36,45.056 17.372,44.972 17.372,44.9 C17.372,44.672 17.24,44.54 16.844,44.54 L9.8,44.54 C9.548,44.54 9.392,44.3 9.392,44.048 C9.392,43.784 9.548,43.544 9.8,43.544 Z M30.56,46.052 L21.428,46.052 C21.128,46.052 20.96,45.86 20.96,45.536 C20.96,45.224 21.128,44.996 21.44,44.996 L30.548,44.996 C30.86,44.996 31.028,45.224 31.028,45.536 C31.028,45.86 30.86,46.052 30.56,46.052 Z M34.496,41.672 L41.54,41.672 C41.816,41.672 41.984,41.948 41.984,42.212 C41.984,42.5 41.816,42.752 41.552,42.752 L34.496,42.752 C34.22,42.752 34.052,42.5 34.052,42.212 C34.052,41.948 34.22,41.672 34.496,41.672 Z M33.5,48.308 L42.536,48.308 C42.824,48.308 42.98,48.584 42.98,48.848 C42.98,49.136 42.824,49.4 42.548,49.4 L33.488,49.4 C33.224,49.4 33.056,49.136 33.056,48.848 C33.056,48.584 33.224,48.308 33.5,48.308 Z M46.544,41.312 C47.42,41.864 48.512,42.716 49.208,43.568 C49.304,43.688 49.352,43.82 49.352,43.952 C49.352,44.096 49.292,44.24 49.184,44.36 C49.088,44.468 48.956,44.528 48.812,44.528 C48.668,44.528 48.512,44.456 48.368,44.3 C47.708,43.544 46.724,42.692 45.86,42.104 C45.728,42.008 45.668,41.864 45.668,41.72 C45.668,41.6 45.716,41.468 45.8,41.372 C45.908,41.24 46.04,41.192 46.184,41.192 C46.316,41.192 46.436,41.24 46.544,41.312 Z M54.584,42.188 C54.836,42.26 54.992,42.428 54.992,42.68 C54.992,42.752 54.98,42.824 54.968,42.896 C54.476,44.936 53.336,46.88 51.668,48.14 C50.216,49.232 47.996,49.94 46.136,50.012 L46.112,50.012 C45.8,50.012 45.572,49.832 45.548,49.532 L45.548,49.472 C45.548,49.184 45.728,48.956 46.028,48.944 C47.804,48.86 49.844,48.164 51.044,47.24 C52.448,46.148 53.492,44.396 53.924,42.62 C54.008,42.296 54.188,42.164 54.404,42.164 C54.464,42.164 54.524,42.176 54.584,42.188 Z M64.304,42.776 L60.44,42.836 C59.744,43.916 58.784,44.912 57.728,45.608 C57.62,45.68 57.524,45.704 57.416,45.704 C57.26,45.704 57.116,45.632 57.008,45.488 C56.948,45.404 56.912,45.296 56.912,45.188 C56.912,45.02 56.984,44.852 57.164,44.732 C58.352,43.964 59.552,42.644 60.356,40.64 C60.44,40.424 60.584,40.292 60.824,40.292 C60.884,40.292 60.956,40.304 61.04,40.328 C61.292,40.4 61.412,40.568 61.412,40.772 C61.412,40.82 61.4,40.868 61.388,40.916 C61.316,41.168 61.148,41.504 60.92,41.9 L64.676,41.828 C65.444,41.816 65.924,42.248 65.924,43.028 C65.924,43.172 65.912,43.316 65.876,43.484 C65.156,46.88 62.768,49.628 58.676,50.612 C58.628,50.624 58.58,50.624 58.532,50.624 C58.304,50.624 58.112,50.504 58.04,50.276 C58.028,50.216 58.016,50.156 58.016,50.108 C58.016,49.88 58.16,49.7 58.412,49.64 C61.916,48.716 64.064,46.58 64.784,43.328 C64.796,43.244 64.808,43.172 64.808,43.112 C64.808,42.884 64.688,42.776 64.352,42.776 L64.304,42.776 Z M64.736,40.34 C64.736,40.184 64.892,40.016 65.084,40.016 C65.216,40.016 65.3,40.052 65.396,40.148 C65.768,40.52 66.2,41.096 66.428,41.492 C66.464,41.564 66.512,41.648 66.512,41.804 C66.512,41.984 66.344,42.14 66.116,42.14 C65.972,42.14 65.876,42.08 65.804,41.936 C65.552,41.492 65.192,41 64.856,40.628 C64.784,40.544 64.736,40.448 64.736,40.34 Z M66.236,39.788 C66.236,39.632 66.416,39.476 66.584,39.476 C66.716,39.476 66.8,39.524 66.908,39.62 C67.22,39.92 67.676,40.544 67.892,40.928 C67.928,41 67.964,41.096 67.964,41.228 C67.964,41.372 67.82,41.564 67.592,41.564 C67.448,41.564 67.364,41.504 67.28,41.372 C67.016,40.916 66.704,40.448 66.38,40.1 C66.272,39.992 66.236,39.932 66.236,39.788 Z" id="一般的な-アクティブ-ラーニング-copy" fill="#2F6070"></path>
            </g>
            <g id="CH" transform="translate(204.000000, 20.000000)">
                <g id="CH-Ellipse">
                    <use fill="black" fill-opacity="1" filter="url(#filter-7)" xlink:href="#path-6"></use>
                    <use fill="#CB4343" fill-rule="evenodd" xlink:href="#path-6"></use>
                </g>
                <text id="ChallengeHub" font-family="HiraMaruProN-W4, Hiragino Maru Gothic ProN" font-size="12" font-weight="normal" fill="#FFFFFF">
                    <tspan x="9.928" y="54">ChallengeHub</tspan>
                </text>
            </g>
        </g>
    </g>
</svg>