<?xml version="1.0" encoding="UTF-8"?>
<svg width="334px" height="263px" viewBox="0 0 334 263" version="1.1" xmlns="http://www.w3.org/2000/svg" xmlns:xlink="http://www.w3.org/1999/xlink">
    <!-- Generator: Sketch 48.2 (47327) - http://www.bohemiancoding.com/sketch -->
    <title>effort-efficiency</title>
    <desc>Created with Sketch.</desc>
    <defs>
        <linearGradient x1="50%" y1="1.2236926%" x2="50%" y2="100%" id="linearGradient-1">
            <stop stop-color="#76C9AC" offset="0%"></stop>
            <stop stop-color="#D2EADC" offset="100%"></stop>
        </linearGradient>
        <path d="M0.73132,32.3384 C0.73132,14.630667 21.09103,0.275717 46.20605,0.275717 C71.32107,0.275717 91.68078,14.630667 91.68078,32.3384 C91.68078,50.046133 71.32107,64.401083 46.20605,64.401083 C21.09103,64.401083 0.73132,50.046133 0.73132,32.3384 Z" id="path-2"></path>
        <filter x="-7.7%" y="-7.8%" width="115.4%" height="121.8%" filterUnits="objectBoundingBox" id="filter-3">
            <feOffset dx="0" dy="2" in="SourceAlpha" result="shadowOffsetOuter1"></feOffset>
            <feGaussianBlur stdDeviation="2" in="shadowOffsetOuter1" result="shadowBlurOuter1"></feGaussianBlur>
            <feColorMatrix values="0 0 0 0 0.184313725   0 0 0 0 0.376470588   0 0 0 0 0.439215686  0 0 0 1 0" type="matrix" in="shadowBlurOuter1"></feColorMatrix>
        </filter>
        <path d="M0.0027,32.26157 C0.0027,14.553837 16.969192,0.198887 37.89833,0.198887 C58.82753,0.198887 75.79396,14.553837 75.79396,32.26157 C75.79396,49.969303 58.82753,64.324253 37.89833,64.324253 C16.969192,64.324253 0.0027,49.969303 0.0027,32.26157 Z" id="path-4"></path>
        <filter x="-9.2%" y="-7.8%" width="118.5%" height="121.8%" filterUnits="objectBoundingBox" id="filter-5">
            <feOffset dx="0" dy="2" in="SourceAlpha" result="shadowOffsetOuter1"></feOffset>
            <feGaussianBlur stdDeviation="2" in="shadowOffsetOuter1" result="shadowBlurOuter1"></feGaussianBlur>
            <feColorMatrix values="0 0 0 0 0.184313725   0 0 0 0 0.376470588   0 0 0 0 0.439215686  0 0 0 1 0" type="matrix" in="shadowBlurOuter1"></feColorMatrix>
        </filter>
        <path d="M0.0027,47.8966 C0.0027,21.67782 22.62886,0.423303 50.539626,0.423303 C63.942885,0.423303 76.797133,5.424951 86.274672,14.327905 C95.75215,23.23089 101.076552,35.305902 101.076552,47.8966 C101.076552,74.11538 78.450392,95.369897 50.539626,95.369897 C22.628859,95.369897 0.0027,74.11538 0.0027,47.8966 Z" id="path-6"></path>
        <filter x="-6.9%" y="-5.3%" width="113.9%" height="114.7%" filterUnits="objectBoundingBox" id="filter-7">
            <feOffset dx="0" dy="2" in="SourceAlpha" result="shadowOffsetOuter1"></feOffset>
            <feGaussianBlur stdDeviation="2" in="shadowOffsetOuter1" result="shadowBlurOuter1"></feGaussianBlur>
            <feColorMatrix values="0 0 0 0 0.184313725   0 0 0 0 0.376470588   0 0 0 0 0.439215686  0 0 0 1 0" type="matrix" in="shadowBlurOuter1"></feColorMatrix>
        </filter>
        <linearGradient x1="50%" y1="0%" x2="50%" y2="100%" id="linearGradient-8">
            <stop stop-color="#CB4343" offset="0%"></stop>
            <stop stop-color="#F1B182" offset="100%"></stop>
        </linearGradient>
        <path d="M7.90070581,17.936802 L2.90070581,17.936802 L11.9007058,0.936802026 L20.9007058,17.936802 L14.9007058,17.936802 L14.9007058,74.936802 L7.90070581,74.936802 L7.90070581,17.936802 Z" id="path-9"></path>
        <filter x="-30.6%" y="-7.4%" width="172.2%" height="117.6%" filterUnits="objectBoundingBox" id="filter-10">
            <feOffset dx="1" dy="1" in="SourceAlpha" result="shadowOffsetOuter1"></feOffset>
            <feGaussianBlur stdDeviation="2" in="shadowOffsetOuter1" result="shadowBlurOuter1"></feGaussianBlur>
            <feColorMatrix values="0 0 0 0 0.184313725   0 0 0 0 0.376470588   0 0 0 0 0.439215686  0 0 0 1 0" type="matrix" in="shadowBlurOuter1"></feColorMatrix>
        </filter>
    </defs>
    <g id="Page-1" stroke="none" stroke-width="1" fill="none" fill-rule="evenodd">
        <g id="en" transform="translate(-3.000000, -3.000000)">
            <g id="Axis">
                <polygon id="Background" fill="url(#linearGradient-1)" points="4.32079797e-14 0 339 0 339 270 0 270"></polygon>
                <path d="M29.23666,16.5 L29.23666,240.45009" id="y-Axis" stroke="#2F6070" stroke-linejoin="round"></path>
                <path d="M29,240 L323.5,240" id="x-Axis" stroke="#2F6070" stroke-linejoin="round"></path>
                <path d="M110.888,253.8 L110.888,246.18 C110.888,245.82 111.14,245.664 111.464,245.664 C111.8,245.664 112.04,245.82 112.04,246.168 L112.04,253.584 C112.04,253.86 112.196,254.004 112.472,254.004 L116.72,254.004 C117.032,254.004 117.212,254.232 117.212,254.532 C117.212,254.82 117.032,255.084 116.72,255.084 L112.112,255.084 C111.26,255.084 110.888,254.712 110.888,253.8 Z M123.212,251.964 L118.988,251.964 C119.012,253.44 119.744,254.364 121.04,254.364 C121.904,254.364 122.384,253.932 122.672,253.296 C122.78,253.08 122.936,252.996 123.104,252.996 C123.188,252.996 123.272,253.02 123.356,253.044 C123.56,253.104 123.728,253.248 123.728,253.464 C123.728,253.536 123.716,253.608 123.668,253.68 C123.284,254.472 122.588,255.264 121.028,255.264 C119.06,255.264 117.92,253.872 117.92,251.796 C117.92,249.72 119,248.268 120.956,248.268 C122.708,248.268 123.692,249.636 123.812,251.208 L123.812,251.304 C123.812,251.736 123.584,251.964 123.212,251.964 Z M119.024,251.088 L122.54,251.088 C122.672,251.088 122.72,251.04 122.72,250.932 L122.72,250.872 C122.576,250.02 122.06,249.144 120.956,249.144 C119.804,249.144 119.18,249.912 119.024,251.088 Z M129.176,250.836 L129.176,250.32 C129.176,249.528 128.744,249.18 127.796,249.18 C126.92,249.18 126.488,249.516 126.284,250.068 C126.2,250.296 126.02,250.38 125.816,250.38 C125.72,250.38 125.624,250.368 125.54,250.332 C125.312,250.26 125.144,250.092 125.144,249.876 C125.144,249.828 125.156,249.78 125.168,249.732 C125.288,249.36 125.6,249.012 125.876,248.796 C126.296,248.472 126.836,248.268 127.808,248.268 C129.416,248.268 130.208,248.904 130.208,250.32 L130.208,253.596 C130.208,254.016 130.268,254.424 130.34,254.652 C130.352,254.688 130.364,254.736 130.364,254.772 C130.364,254.964 130.184,255.132 129.884,255.156 L129.776,255.156 C129.536,255.156 129.32,255.084 129.272,254.868 C129.236,254.724 129.212,254.508 129.2,254.268 C128.744,254.784 128.108,255.252 126.92,255.252 C125.6,255.252 124.796,254.508 124.796,253.272 C124.796,252.144 125.468,251.424 126.608,251.112 C127.268,250.932 127.892,250.86 129.176,250.836 Z M129.176,252.504 L129.176,251.7 C127.772,251.736 127.112,251.856 126.632,252.096 C126.152,252.336 125.9,252.708 125.9,253.284 C125.9,253.908 126.38,254.328 127.1,254.328 C127.856,254.328 128.48,253.956 128.864,253.476 C129.092,253.188 129.176,252.96 129.176,252.504 Z M132.164,254.676 L132.164,248.832 C132.164,248.52 132.392,248.364 132.728,248.364 C133.028,248.364 133.268,248.52 133.268,248.832 L133.268,249.096 C133.268,249.264 133.22,249.468 133.196,249.66 C133.388,249.084 134,248.34 135.032,248.304 C135.128,248.292 135.212,248.292 135.296,248.292 C135.476,248.292 135.608,248.316 135.776,248.352 C136.052,248.388 136.16,248.556 136.16,248.784 C136.16,248.844 136.148,248.916 136.136,248.988 C136.088,249.24 135.92,249.456 135.668,249.456 C135.632,249.456 135.596,249.456 135.56,249.444 C135.392,249.408 135.236,249.372 134.984,249.372 C134.468,249.384 134.072,249.648 133.772,250.032 C133.46,250.416 133.28,250.86 133.268,251.364 L133.268,254.676 C133.268,255 133.028,255.156 132.728,255.156 C132.392,255.156 132.164,255 132.164,254.676 Z M142.7,250.608 L142.7,254.676 C142.7,255 142.46,255.156 142.148,255.156 C141.824,255.156 141.596,255 141.596,254.676 L141.596,250.836 C141.596,249.816 141.188,249.24 140.288,249.24 C139.64,249.24 139.1,249.528 138.692,250.092 C138.392,250.5 138.272,250.848 138.272,251.316 L138.272,254.676 C138.272,255 138.044,255.156 137.732,255.156 C137.396,255.156 137.18,255 137.18,254.676 L137.18,248.832 C137.18,248.52 137.408,248.364 137.744,248.364 C138.056,248.364 138.272,248.52 138.272,248.832 L138.272,249.156 C138.272,249.312 138.236,249.432 138.224,249.66 C138.644,248.808 139.364,248.268 140.504,248.268 C141.932,248.268 142.7,249.132 142.7,250.608 Z M144.38,254.676 L144.38,248.832 C144.38,248.52 144.584,248.364 144.92,248.364 C145.244,248.364 145.472,248.52 145.472,248.832 L145.472,254.676 C145.472,255 145.244,255.156 144.92,255.156 C144.584,255.156 144.38,255 144.38,254.676 Z M144.932,245.652 C145.376,245.652 145.736,246 145.736,246.456 C145.736,246.924 145.376,247.272 144.932,247.272 C144.476,247.272 144.116,246.924 144.116,246.456 C144.116,246 144.476,245.652 144.932,245.652 Z M152.708,250.608 L152.708,254.676 C152.708,255 152.468,255.156 152.156,255.156 C151.832,255.156 151.604,255 151.604,254.676 L151.604,250.836 C151.604,249.816 151.196,249.24 150.296,249.24 C149.648,249.24 149.108,249.528 148.7,250.092 C148.4,250.5 148.28,250.848 148.28,251.316 L148.28,254.676 C148.28,255 148.052,255.156 147.74,255.156 C147.404,255.156 147.188,255 147.188,254.676 L147.188,248.832 C147.188,248.52 147.416,248.364 147.752,248.364 C148.064,248.364 148.28,248.52 148.28,248.832 L148.28,249.156 C148.28,249.312 148.244,249.432 148.232,249.66 C148.652,248.808 149.372,248.268 150.512,248.268 C151.94,248.268 152.708,249.132 152.708,250.608 Z M159.056,249.156 L159.056,248.796 C159.056,248.544 159.224,248.364 159.572,248.364 C159.896,248.364 160.088,248.52 160.088,248.844 L160.088,254.4 C160.088,257.16 158.636,257.784 157.052,257.784 C155.756,257.784 154.928,257.352 154.472,256.764 C154.412,256.68 154.376,256.596 154.376,256.5 C154.376,256.344 154.46,256.188 154.604,256.08 C154.7,256.008 154.832,255.96 154.952,255.96 C155.084,255.96 155.204,256.008 155.3,256.116 C155.744,256.632 156.272,256.884 157.004,256.884 C158.504,256.884 159.044,256.128 159.056,254.352 C159.056,254.208 159.08,253.944 159.104,253.776 C158.708,254.532 158.024,255.06 156.968,255.06 C155.264,255.06 154.076,253.74 154.076,251.736 C154.076,249.672 155.144,248.28 156.992,248.28 C158.084,248.28 158.768,248.88 159.104,249.648 C159.092,249.516 159.056,249.288 159.056,249.156 Z M157.124,249.192 C155.9,249.192 155.18,250.188 155.18,251.736 C155.18,253.26 155.996,254.184 157.112,254.184 C158.336,254.184 159.08,253.14 159.08,251.652 C159.08,250.224 158.348,249.192 157.124,249.192 Z M170.78,251.964 L166.556,251.964 C166.58,253.44 167.312,254.364 168.608,254.364 C169.472,254.364 169.952,253.932 170.24,253.296 C170.348,253.08 170.504,252.996 170.672,252.996 C170.756,252.996 170.84,253.02 170.924,253.044 C171.128,253.104 171.296,253.248 171.296,253.464 C171.296,253.536 171.284,253.608 171.236,253.68 C170.852,254.472 170.156,255.264 168.596,255.264 C166.628,255.264 165.488,253.872 165.488,251.796 C165.488,249.72 166.568,248.268 168.524,248.268 C170.276,248.268 171.26,249.636 171.38,251.208 L171.38,251.304 C171.38,251.736 171.152,251.964 170.78,251.964 Z M166.592,251.088 L170.108,251.088 C170.24,251.088 170.288,251.04 170.288,250.932 L170.288,250.872 C170.144,250.02 169.628,249.144 168.524,249.144 C167.372,249.144 166.748,249.912 166.592,251.088 Z M177.44,249.384 L174.572,249.384 L174.572,254.676 C174.572,255 174.344,255.156 174.032,255.156 C173.708,255.156 173.492,255 173.492,254.676 L173.492,249.384 L172.472,249.384 C172.172,249.384 172.04,249.18 172.04,248.904 C172.04,248.628 172.172,248.436 172.472,248.436 L173.492,248.436 L173.492,247.572 C173.492,246.024 174.44,245.604 175.352,245.604 C175.748,245.604 176.048,245.628 176.384,245.736 C176.612,245.808 176.696,245.988 176.696,246.18 C176.696,246.252 176.684,246.324 176.66,246.396 C176.588,246.6 176.408,246.756 176.192,246.756 C176.144,246.756 176.072,246.744 176.012,246.72 C175.808,246.636 175.604,246.6 175.352,246.6 C174.908,246.6 174.572,246.84 174.572,247.704 L174.572,248.436 L177.44,248.436 L177.44,247.572 C177.44,246.024 178.388,245.604 179.3,245.604 C179.696,245.604 179.996,245.628 180.332,245.736 C180.56,245.808 180.644,245.988 180.644,246.18 C180.644,246.252 180.632,246.324 180.608,246.396 C180.536,246.6 180.356,246.756 180.14,246.756 C180.092,246.756 180.02,246.744 179.96,246.72 C179.756,246.636 179.552,246.6 179.3,246.6 C178.856,246.6 178.52,246.84 178.52,247.704 L178.52,248.436 L179.972,248.436 C180.272,248.436 180.404,248.616 180.404,248.904 C180.404,249.18 180.272,249.384 179.972,249.384 L178.52,249.384 L178.52,254.676 C178.52,255 178.292,255.156 177.98,255.156 C177.656,255.156 177.44,255 177.44,254.676 L177.44,249.384 Z M186.416,251.964 L182.192,251.964 C182.216,253.44 182.948,254.364 184.244,254.364 C185.108,254.364 185.588,253.932 185.876,253.296 C185.984,253.08 186.14,252.996 186.308,252.996 C186.392,252.996 186.476,253.02 186.56,253.044 C186.764,253.104 186.932,253.248 186.932,253.464 C186.932,253.536 186.92,253.608 186.872,253.68 C186.488,254.472 185.792,255.264 184.232,255.264 C182.264,255.264 181.124,253.872 181.124,251.796 C181.124,249.72 182.204,248.268 184.16,248.268 C185.912,248.268 186.896,249.636 187.016,251.208 L187.016,251.304 C187.016,251.736 186.788,251.964 186.416,251.964 Z M182.228,251.088 L185.744,251.088 C185.876,251.088 185.924,251.04 185.924,250.932 L185.924,250.872 C185.78,250.02 185.264,249.144 184.16,249.144 C183.008,249.144 182.384,249.912 182.228,251.088 Z M188.012,251.784 C188.012,249.732 189.068,248.256 191.036,248.256 C192.62,248.256 193.268,249.132 193.568,249.888 C193.592,249.948 193.604,250.02 193.604,250.068 C193.604,250.296 193.424,250.44 193.244,250.512 C193.16,250.536 193.064,250.548 192.98,250.548 C192.8,250.548 192.644,250.476 192.56,250.272 C192.332,249.66 191.972,249.192 191.06,249.192 C189.812,249.192 189.128,250.248 189.128,251.772 C189.128,253.344 189.8,254.34 191.072,254.34 C192.008,254.34 192.38,253.884 192.608,253.236 C192.692,253.008 192.86,252.912 193.052,252.912 C193.136,252.912 193.22,252.924 193.304,252.96 C193.52,253.008 193.688,253.152 193.688,253.368 C193.688,253.44 193.676,253.5 193.64,253.584 C193.316,254.412 192.68,255.276 191.048,255.276 C189.104,255.276 188.012,253.848 188.012,251.784 Z M195.68,248.436 L195.68,246.984 C195.68,246.672 195.884,246.504 196.22,246.504 C196.532,246.504 196.76,246.672 196.76,246.984 L196.76,248.436 L198.296,248.436 C198.596,248.436 198.74,248.628 198.74,248.916 C198.74,249.192 198.584,249.384 198.296,249.384 L196.76,249.384 L196.76,253.404 C196.76,253.992 197.012,254.244 197.456,254.244 C197.756,254.244 197.96,254.16 198.164,254.04 C198.236,254.004 198.308,253.98 198.38,253.98 C198.56,253.98 198.704,254.112 198.776,254.292 C198.812,254.376 198.824,254.472 198.824,254.556 C198.824,254.724 198.752,254.892 198.572,254.988 C198.224,255.156 197.9,255.252 197.384,255.252 C196.4,255.252 195.68,254.76 195.68,253.5 L195.68,249.384 L194.744,249.384 C194.456,249.384 194.324,249.192 194.324,248.916 C194.324,248.64 194.456,248.436 194.756,248.436 L195.68,248.436 Z M199.808,254.676 L199.808,248.832 C199.808,248.52 200.012,248.364 200.348,248.364 C200.672,248.364 200.9,248.52 200.9,248.832 L200.9,254.676 C200.9,255 200.672,255.156 200.348,255.156 C200.012,255.156 199.808,255 199.808,254.676 Z M200.36,245.652 C200.804,245.652 201.164,246 201.164,246.456 C201.164,246.924 200.804,247.272 200.36,247.272 C199.904,247.272 199.544,246.924 199.544,246.456 C199.544,246 199.904,245.652 200.36,245.652 Z M205.568,252.42 L206.936,248.712 C207.032,248.472 207.2,248.364 207.416,248.364 C207.488,248.364 207.56,248.376 207.644,248.4 C207.884,248.472 208.04,248.628 208.04,248.856 C208.04,248.916 208.028,248.988 207.992,249.06 L205.784,254.676 C205.64,255.048 205.376,255.156 205.064,255.156 C204.74,255.156 204.488,255.036 204.344,254.664 L202.136,249.06 C202.112,248.988 202.1,248.928 202.1,248.868 C202.1,248.64 202.256,248.46 202.484,248.4 C202.568,248.376 202.652,248.364 202.724,248.364 C202.94,248.364 203.12,248.46 203.204,248.7 L204.596,252.48 C204.74,252.888 204.98,253.692 205.076,254.124 C205.184,253.68 205.412,252.828 205.568,252.42 Z M214.196,251.964 L209.972,251.964 C209.996,253.44 210.728,254.364 212.024,254.364 C212.888,254.364 213.368,253.932 213.656,253.296 C213.764,253.08 213.92,252.996 214.088,252.996 C214.172,252.996 214.256,253.02 214.34,253.044 C214.544,253.104 214.712,253.248 214.712,253.464 C214.712,253.536 214.7,253.608 214.652,253.68 C214.268,254.472 213.572,255.264 212.012,255.264 C210.044,255.264 208.904,253.872 208.904,251.796 C208.904,249.72 209.984,248.268 211.94,248.268 C213.692,248.268 214.676,249.636 214.796,251.208 L214.796,251.304 C214.796,251.736 214.568,251.964 214.196,251.964 Z M210.008,251.088 L213.524,251.088 C213.656,251.088 213.704,251.04 213.704,250.932 L213.704,250.872 C213.56,250.02 213.044,249.144 211.94,249.144 C210.788,249.144 210.164,249.912 210.008,251.088 Z M221.624,250.608 L221.624,254.676 C221.624,255 221.384,255.156 221.072,255.156 C220.748,255.156 220.52,255 220.52,254.676 L220.52,250.836 C220.52,249.816 220.112,249.24 219.212,249.24 C218.564,249.24 218.024,249.528 217.616,250.092 C217.316,250.5 217.196,250.848 217.196,251.316 L217.196,254.676 C217.196,255 216.968,255.156 216.656,255.156 C216.32,255.156 216.104,255 216.104,254.676 L216.104,248.832 C216.104,248.52 216.332,248.364 216.668,248.364 C216.98,248.364 217.196,248.52 217.196,248.832 L217.196,249.156 C217.196,249.312 217.16,249.432 217.148,249.66 C217.568,248.808 218.288,248.268 219.428,248.268 C220.856,248.268 221.624,249.132 221.624,250.608 Z M228.284,251.964 L224.06,251.964 C224.084,253.44 224.816,254.364 226.112,254.364 C226.976,254.364 227.456,253.932 227.744,253.296 C227.852,253.08 228.008,252.996 228.176,252.996 C228.26,252.996 228.344,253.02 228.428,253.044 C228.632,253.104 228.8,253.248 228.8,253.464 C228.8,253.536 228.788,253.608 228.74,253.68 C228.356,254.472 227.66,255.264 226.1,255.264 C224.132,255.264 222.992,253.872 222.992,251.796 C222.992,249.72 224.072,248.268 226.028,248.268 C227.78,248.268 228.764,249.636 228.884,251.208 L228.884,251.304 C228.884,251.736 228.656,251.964 228.284,251.964 Z M224.096,251.088 L227.612,251.088 C227.744,251.088 227.792,251.04 227.792,250.932 L227.792,250.872 C227.648,250.02 227.132,249.144 226.028,249.144 C224.876,249.144 224.252,249.912 224.096,251.088 Z M232.772,252.168 L232.088,252.036 C230.612,251.748 230,251.232 230,250.092 C230,249 230.936,248.256 232.484,248.256 C233.816,248.256 234.668,248.82 234.968,249.696 C234.98,249.744 234.992,249.792 234.992,249.84 C234.992,250.068 234.788,250.224 234.572,250.284 C234.512,250.296 234.44,250.308 234.38,250.308 C234.164,250.308 233.948,250.212 233.888,249.984 C233.732,249.444 233.204,249.168 232.52,249.168 C231.548,249.168 231.092,249.564 231.092,250.068 C231.092,250.62 231.32,250.86 232.328,251.076 L233.072,251.232 C234.632,251.556 235.256,252.012 235.256,253.272 C235.256,254.424 234.272,255.276 232.592,255.276 C231.056,255.276 230.156,254.664 229.844,253.596 C229.832,253.536 229.82,253.488 229.82,253.44 C229.82,253.2 230.024,253.032 230.252,252.984 C230.312,252.972 230.372,252.96 230.42,252.96 C230.648,252.96 230.864,253.056 230.936,253.284 C231.152,253.98 231.644,254.328 232.592,254.328 C233.552,254.328 234.176,253.908 234.176,253.296 C234.176,252.708 233.864,252.384 232.772,252.168 Z M239.192,252.168 L238.508,252.036 C237.032,251.748 236.42,251.232 236.42,250.092 C236.42,249 237.356,248.256 238.904,248.256 C240.236,248.256 241.088,248.82 241.388,249.696 C241.4,249.744 241.412,249.792 241.412,249.84 C241.412,250.068 241.208,250.224 240.992,250.284 C240.932,250.296 240.86,250.308 240.8,250.308 C240.584,250.308 240.368,250.212 240.308,249.984 C240.152,249.444 239.624,249.168 238.94,249.168 C237.968,249.168 237.512,249.564 237.512,250.068 C237.512,250.62 237.74,250.86 238.748,251.076 L239.492,251.232 C241.052,251.556 241.676,252.012 241.676,253.272 C241.676,254.424 240.692,255.276 239.012,255.276 C237.476,255.276 236.576,254.664 236.264,253.596 C236.252,253.536 236.24,253.488 236.24,253.44 C236.24,253.2 236.444,253.032 236.672,252.984 C236.732,252.972 236.792,252.96 236.84,252.96 C237.068,252.96 237.284,253.056 237.356,253.284 C237.572,253.98 238.064,254.328 239.012,254.328 C239.972,254.328 240.596,253.908 240.596,253.296 C240.596,252.708 240.284,252.384 239.192,252.168 Z" id="Learning-effectivene-Copy" fill="#2F6070"></path>
                <path d="M-35.71,126.292 L-38.434,126.292 C-38.734,126.292 -38.902,126.052 -38.902,125.776 C-38.902,125.488 -38.734,125.236 -38.446,125.236 L-31.834,125.236 C-31.546,125.236 -31.378,125.488 -31.378,125.776 C-31.378,126.052 -31.558,126.292 -31.834,126.292 L-34.558,126.292 L-34.558,134.164 C-34.558,134.488 -34.81,134.656 -35.134,134.656 C-35.458,134.656 -35.71,134.488 -35.71,134.164 L-35.71,126.292 Z M-25.258,131.464 L-29.482,131.464 C-29.458,132.94 -28.726,133.864 -27.43,133.864 C-26.566,133.864 -26.086,133.432 -25.798,132.796 C-25.69,132.58 -25.534,132.496 -25.366,132.496 C-25.282,132.496 -25.198,132.52 -25.114,132.544 C-24.91,132.604 -24.742,132.748 -24.742,132.964 C-24.742,133.036 -24.754,133.108 -24.802,133.18 C-25.186,133.972 -25.882,134.764 -27.442,134.764 C-29.41,134.764 -30.55,133.372 -30.55,131.296 C-30.55,129.22 -29.47,127.768 -27.514,127.768 C-25.762,127.768 -24.778,129.136 -24.658,130.708 L-24.658,130.804 C-24.658,131.236 -24.886,131.464 -25.258,131.464 Z M-29.446,130.588 L-25.93,130.588 C-25.798,130.588 -25.75,130.54 -25.75,130.432 L-25.75,130.372 C-25.894,129.52 -26.41,128.644 -27.514,128.644 C-28.666,128.644 -29.29,129.412 -29.446,130.588 Z M-19.294,130.336 L-19.294,129.82 C-19.294,129.028 -19.726,128.68 -20.674,128.68 C-21.55,128.68 -21.982,129.016 -22.186,129.568 C-22.27,129.796 -22.45,129.88 -22.654,129.88 C-22.75,129.88 -22.846,129.868 -22.93,129.832 C-23.158,129.76 -23.326,129.592 -23.326,129.376 C-23.326,129.328 -23.314,129.28 -23.302,129.232 C-23.182,128.86 -22.87,128.512 -22.594,128.296 C-22.174,127.972 -21.634,127.768 -20.662,127.768 C-19.054,127.768 -18.262,128.404 -18.262,129.82 L-18.262,133.096 C-18.262,133.516 -18.202,133.924 -18.13,134.152 C-18.118,134.188 -18.106,134.236 -18.106,134.272 C-18.106,134.464 -18.286,134.632 -18.586,134.656 L-18.694,134.656 C-18.934,134.656 -19.15,134.584 -19.198,134.368 C-19.234,134.224 -19.258,134.008 -19.27,133.768 C-19.726,134.284 -20.362,134.752 -21.55,134.752 C-22.87,134.752 -23.674,134.008 -23.674,132.772 C-23.674,131.644 -23.002,130.924 -21.862,130.612 C-21.202,130.432 -20.578,130.36 -19.294,130.336 Z M-19.294,132.004 L-19.294,131.2 C-20.698,131.236 -21.358,131.356 -21.838,131.596 C-22.318,131.836 -22.57,132.208 -22.57,132.784 C-22.57,133.408 -22.09,133.828 -21.37,133.828 C-20.614,133.828 -19.99,133.456 -19.606,132.976 C-19.378,132.688 -19.294,132.46 -19.294,132.004 Z M-16.786,131.284 C-16.786,129.232 -15.73,127.756 -13.762,127.756 C-12.178,127.756 -11.53,128.632 -11.23,129.388 C-11.206,129.448 -11.194,129.52 -11.194,129.568 C-11.194,129.796 -11.374,129.94 -11.554,130.012 C-11.638,130.036 -11.734,130.048 -11.818,130.048 C-11.998,130.048 -12.154,129.976 -12.238,129.772 C-12.466,129.16 -12.826,128.692 -13.738,128.692 C-14.986,128.692 -15.67,129.748 -15.67,131.272 C-15.67,132.844 -14.998,133.84 -13.726,133.84 C-12.79,133.84 -12.418,133.384 -12.19,132.736 C-12.106,132.508 -11.938,132.412 -11.746,132.412 C-11.662,132.412 -11.578,132.424 -11.494,132.46 C-11.278,132.508 -11.11,132.652 -11.11,132.868 C-11.11,132.94 -11.122,133 -11.158,133.084 C-11.482,133.912 -12.118,134.776 -13.75,134.776 C-15.694,134.776 -16.786,133.348 -16.786,131.284 Z M-4.294,130.108 L-4.294,134.176 C-4.294,134.5 -4.534,134.656 -4.846,134.656 C-5.17,134.656 -5.386,134.5 -5.386,134.176 L-5.386,130.336 C-5.386,129.316 -5.806,128.752 -6.706,128.752 C-7.378,128.752 -7.906,129.064 -8.302,129.592 C-8.602,130 -8.734,130.348 -8.734,130.816 L-8.734,134.176 C-8.734,134.5 -8.938,134.656 -9.25,134.656 C-9.586,134.656 -9.814,134.5 -9.814,134.176 L-9.814,125.632 C-9.814,125.32 -9.586,125.164 -9.25,125.164 C-8.938,125.164 -8.734,125.308 -8.734,125.632 L-8.734,128.644 C-8.734,128.8 -8.782,129.076 -8.806,129.256 C-8.41,128.404 -7.75,127.768 -6.49,127.768 C-5.062,127.768 -4.294,128.632 -4.294,130.108 Z M-2.614,134.176 L-2.614,128.332 C-2.614,128.02 -2.41,127.864 -2.074,127.864 C-1.75,127.864 -1.522,128.02 -1.522,128.332 L-1.522,134.176 C-1.522,134.5 -1.75,134.656 -2.074,134.656 C-2.41,134.656 -2.614,134.5 -2.614,134.176 Z M-2.062,125.152 C-1.618,125.152 -1.258,125.5 -1.258,125.956 C-1.258,126.424 -1.618,126.772 -2.062,126.772 C-2.518,126.772 -2.878,126.424 -2.878,125.956 C-2.878,125.5 -2.518,125.152 -2.062,125.152 Z M5.714,130.108 L5.714,134.176 C5.714,134.5 5.474,134.656 5.162,134.656 C4.838,134.656 4.61,134.5 4.61,134.176 L4.61,130.336 C4.61,129.316 4.202,128.74 3.302,128.74 C2.654,128.74 2.114,129.028 1.706,129.592 C1.406,130 1.286,130.348 1.286,130.816 L1.286,134.176 C1.286,134.5 1.058,134.656 0.746,134.656 C0.41,134.656 0.194,134.5 0.194,134.176 L0.194,128.332 C0.194,128.02 0.422,127.864 0.758,127.864 C1.07,127.864 1.286,128.02 1.286,128.332 L1.286,128.656 C1.286,128.812 1.25,128.932 1.238,129.16 C1.658,128.308 2.378,127.768 3.518,127.768 C4.946,127.768 5.714,128.632 5.714,130.108 Z M12.062,128.656 L12.062,128.296 C12.062,128.044 12.23,127.864 12.578,127.864 C12.902,127.864 13.094,128.02 13.094,128.344 L13.094,133.9 C13.094,136.66 11.642,137.284 10.058,137.284 C8.762,137.284 7.934,136.852 7.478,136.264 C7.418,136.18 7.382,136.096 7.382,136 C7.382,135.844 7.466,135.688 7.61,135.58 C7.706,135.508 7.838,135.46 7.958,135.46 C8.09,135.46 8.21,135.508 8.306,135.616 C8.75,136.132 9.278,136.384 10.01,136.384 C11.51,136.384 12.05,135.628 12.062,133.852 C12.062,133.708 12.086,133.444 12.11,133.276 C11.714,134.032 11.03,134.56 9.974,134.56 C8.27,134.56 7.082,133.24 7.082,131.236 C7.082,129.172 8.15,127.78 9.998,127.78 C11.09,127.78 11.774,128.38 12.11,129.148 C12.098,129.016 12.062,128.788 12.062,128.656 Z M10.13,128.692 C8.906,128.692 8.186,129.688 8.186,131.236 C8.186,132.76 9.002,133.684 10.118,133.684 C11.342,133.684 12.086,132.64 12.086,131.152 C12.086,129.724 11.354,128.692 10.13,128.692 Z M23.786,131.464 L19.562,131.464 C19.586,132.94 20.318,133.864 21.614,133.864 C22.478,133.864 22.958,133.432 23.246,132.796 C23.354,132.58 23.51,132.496 23.678,132.496 C23.762,132.496 23.846,132.52 23.93,132.544 C24.134,132.604 24.302,132.748 24.302,132.964 C24.302,133.036 24.29,133.108 24.242,133.18 C23.858,133.972 23.162,134.764 21.602,134.764 C19.634,134.764 18.494,133.372 18.494,131.296 C18.494,129.22 19.574,127.768 21.53,127.768 C23.282,127.768 24.266,129.136 24.386,130.708 L24.386,130.804 C24.386,131.236 24.158,131.464 23.786,131.464 Z M19.598,130.588 L23.114,130.588 C23.246,130.588 23.294,130.54 23.294,130.432 L23.294,130.372 C23.15,129.52 22.634,128.644 21.53,128.644 C20.378,128.644 19.754,129.412 19.598,130.588 Z M34.454,134.176 L34.454,128.332 C34.454,128.02 34.658,127.864 34.994,127.864 C35.318,127.864 35.534,128.02 35.534,128.332 L35.534,134.176 C35.534,134.5 35.318,134.656 34.994,134.656 C34.658,134.656 34.454,134.5 34.454,134.176 Z M35.006,125.152 C35.45,125.152 35.81,125.5 35.81,125.956 C35.81,126.424 35.45,126.772 35.006,126.772 C34.55,126.772 34.19,126.424 34.19,125.956 C34.19,125.5 34.55,125.152 35.006,125.152 Z M30.446,127.936 L30.446,127.072 C30.446,125.524 31.394,125.104 32.306,125.104 C32.702,125.104 33.002,125.128 33.338,125.236 C33.554,125.308 33.638,125.476 33.638,125.668 C33.638,125.74 33.626,125.824 33.602,125.896 C33.53,126.1 33.362,126.256 33.146,126.256 C33.086,126.256 33.026,126.244 32.966,126.22 C32.762,126.136 32.558,126.1 32.306,126.1 C31.862,126.1 31.514,126.34 31.514,127.204 L31.514,127.936 L32.978,127.936 C33.278,127.936 33.41,128.116 33.41,128.404 C33.41,128.68 33.278,128.884 32.978,128.884 L31.514,128.884 L31.514,134.176 C31.514,134.5 31.298,134.656 30.986,134.656 C30.662,134.656 30.446,134.5 30.446,134.176 L30.446,128.884 L27.578,128.884 L27.578,134.176 C27.578,134.5 27.35,134.656 27.038,134.656 C26.714,134.656 26.498,134.5 26.498,134.176 L26.498,128.884 L25.478,128.884 C25.178,128.884 25.046,128.68 25.046,128.404 C25.046,128.128 25.178,127.936 25.478,127.936 L26.498,127.936 L26.498,127.072 C26.498,125.524 27.446,125.104 28.358,125.104 C28.754,125.104 29.054,125.128 29.39,125.236 C29.618,125.308 29.702,125.488 29.702,125.68 C29.702,125.752 29.69,125.824 29.666,125.896 C29.594,126.1 29.414,126.256 29.198,126.256 C29.15,126.256 29.078,126.244 29.018,126.22 C28.814,126.136 28.61,126.1 28.358,126.1 C27.914,126.1 27.578,126.34 27.578,127.204 L27.578,127.936 L30.446,127.936 Z M36.938,131.284 C36.938,129.232 37.994,127.756 39.962,127.756 C41.546,127.756 42.194,128.632 42.494,129.388 C42.518,129.448 42.53,129.52 42.53,129.568 C42.53,129.796 42.35,129.94 42.17,130.012 C42.086,130.036 41.99,130.048 41.906,130.048 C41.726,130.048 41.57,129.976 41.486,129.772 C41.258,129.16 40.898,128.692 39.986,128.692 C38.738,128.692 38.054,129.748 38.054,131.272 C38.054,132.844 38.726,133.84 39.998,133.84 C40.934,133.84 41.306,133.384 41.534,132.736 C41.618,132.508 41.786,132.412 41.978,132.412 C42.062,132.412 42.146,132.424 42.23,132.46 C42.446,132.508 42.614,132.652 42.614,132.868 C42.614,132.94 42.602,133 42.566,133.084 C42.242,133.912 41.606,134.776 39.974,134.776 C38.03,134.776 36.938,133.348 36.938,131.284 Z M43.898,134.176 L43.898,128.332 C43.898,128.02 44.102,127.864 44.438,127.864 C44.762,127.864 44.99,128.02 44.99,128.332 L44.99,134.176 C44.99,134.5 44.762,134.656 44.438,134.656 C44.102,134.656 43.898,134.5 43.898,134.176 Z M44.45,125.152 C44.894,125.152 45.254,125.5 45.254,125.956 C45.254,126.424 44.894,126.772 44.45,126.772 C43.994,126.772 43.634,126.424 43.634,125.956 C43.634,125.5 43.994,125.152 44.45,125.152 Z M51.686,131.464 L47.462,131.464 C47.486,132.94 48.218,133.864 49.514,133.864 C50.378,133.864 50.858,133.432 51.146,132.796 C51.254,132.58 51.41,132.496 51.578,132.496 C51.662,132.496 51.746,132.52 51.83,132.544 C52.034,132.604 52.202,132.748 52.202,132.964 C52.202,133.036 52.19,133.108 52.142,133.18 C51.758,133.972 51.062,134.764 49.502,134.764 C47.534,134.764 46.394,133.372 46.394,131.296 C46.394,129.22 47.474,127.768 49.43,127.768 C51.182,127.768 52.166,129.136 52.286,130.708 L52.286,130.804 C52.286,131.236 52.058,131.464 51.686,131.464 Z M47.498,130.588 L51.014,130.588 C51.146,130.588 51.194,130.54 51.194,130.432 L51.194,130.372 C51.05,129.52 50.534,128.644 49.43,128.644 C48.278,128.644 47.654,129.412 47.498,130.588 Z M59.114,130.108 L59.114,134.176 C59.114,134.5 58.874,134.656 58.562,134.656 C58.238,134.656 58.01,134.5 58.01,134.176 L58.01,130.336 C58.01,129.316 57.602,128.74 56.702,128.74 C56.054,128.74 55.514,129.028 55.106,129.592 C54.806,130 54.686,130.348 54.686,130.816 L54.686,134.176 C54.686,134.5 54.458,134.656 54.146,134.656 C53.81,134.656 53.594,134.5 53.594,134.176 L53.594,128.332 C53.594,128.02 53.822,127.864 54.158,127.864 C54.47,127.864 54.686,128.02 54.686,128.332 L54.686,128.656 C54.686,128.812 54.65,128.932 54.638,129.16 C55.058,128.308 55.778,127.768 56.918,127.768 C58.346,127.768 59.114,128.632 59.114,130.108 Z M60.482,131.284 C60.482,129.232 61.538,127.756 63.506,127.756 C65.09,127.756 65.738,128.632 66.038,129.388 C66.062,129.448 66.074,129.52 66.074,129.568 C66.074,129.796 65.894,129.94 65.714,130.012 C65.63,130.036 65.534,130.048 65.45,130.048 C65.27,130.048 65.114,129.976 65.03,129.772 C64.802,129.16 64.442,128.692 63.53,128.692 C62.282,128.692 61.598,129.748 61.598,131.272 C61.598,132.844 62.27,133.84 63.542,133.84 C64.478,133.84 64.85,133.384 65.078,132.736 C65.162,132.508 65.33,132.412 65.522,132.412 C65.606,132.412 65.69,132.424 65.774,132.46 C65.99,132.508 66.158,132.652 66.158,132.868 C66.158,132.94 66.146,133 66.11,133.084 C65.786,133.912 65.15,134.776 63.518,134.776 C61.574,134.776 60.482,133.348 60.482,131.284 Z M70.274,132.172 L71.786,128.188 C71.87,127.96 72.05,127.876 72.254,127.876 C72.326,127.876 72.398,127.888 72.47,127.9 C72.698,127.96 72.866,128.128 72.866,128.344 C72.866,128.404 72.854,128.476 72.83,128.548 L69.998,135.568 C69.578,136.6 69.086,137.284 67.91,137.284 C67.61,137.284 67.322,137.236 67.046,137.128 C66.806,137.044 66.71,136.876 66.71,136.696 C66.71,136.6 66.734,136.516 66.77,136.42 C66.854,136.216 67.01,136.084 67.214,136.084 C67.286,136.084 67.358,136.096 67.442,136.132 C67.61,136.204 67.826,136.288 68.042,136.288 C68.558,136.288 68.81,135.832 69.026,135.28 L69.362,134.44 L66.938,128.56 C66.914,128.5 66.902,128.428 66.902,128.368 C66.902,128.152 67.082,127.972 67.298,127.9 C67.382,127.876 67.466,127.864 67.55,127.864 C67.742,127.864 67.922,127.948 68.006,128.164 L69.518,132.148 C69.662,132.532 69.77,132.976 69.878,133.348 C69.974,132.976 70.142,132.52 70.274,132.172 Z" id="Teaching-efficiency-Copy" fill="#2F6070" transform="translate(16.982000, 131.194000) rotate(270.000000) translate(-16.982000, -131.194000) "></path>
            </g>
            <g id="Traditional-Lectures" transform="translate(42.000000, 108.000000)">
                <g id="Trad-Ellipse">
                    <use fill="black" fill-opacity="1" filter="url(#filter-3)" xlink:href="#path-2"></use>
                    <use fill="#F3C68D" fill-rule="evenodd" xlink:href="#path-2"></use>
                </g>
                <path d="M19.416,22.792 L16.692,22.792 C16.392,22.792 16.224,22.552 16.224,22.276 C16.224,21.988 16.392,21.736 16.68,21.736 L23.292,21.736 C23.58,21.736 23.748,21.988 23.748,22.276 C23.748,22.552 23.568,22.792 23.292,22.792 L20.568,22.792 L20.568,30.664 C20.568,30.988 20.316,31.156 19.992,31.156 C19.668,31.156 19.416,30.988 19.416,30.664 L19.416,22.792 Z M23.976,30.676 L23.976,24.832 C23.976,24.52 24.204,24.364 24.54,24.364 C24.84,24.364 25.08,24.52 25.08,24.832 L25.08,25.096 C25.08,25.264 25.032,25.468 25.008,25.66 C25.2,25.084 25.812,24.34 26.844,24.304 C26.94,24.292 27.024,24.292 27.108,24.292 C27.288,24.292 27.42,24.316 27.588,24.352 C27.864,24.388 27.972,24.556 27.972,24.784 C27.972,24.844 27.96,24.916 27.948,24.988 C27.9,25.24 27.732,25.456 27.48,25.456 C27.444,25.456 27.408,25.456 27.372,25.444 C27.204,25.408 27.048,25.372 26.796,25.372 C26.28,25.384 25.884,25.648 25.584,26.032 C25.272,26.416 25.092,26.86 25.08,27.364 L25.08,30.676 C25.08,31 24.84,31.156 24.54,31.156 C24.204,31.156 23.976,31 23.976,30.676 Z M33.048,26.836 L33.048,26.32 C33.048,25.528 32.616,25.18 31.668,25.18 C30.792,25.18 30.36,25.516 30.156,26.068 C30.072,26.296 29.892,26.38 29.688,26.38 C29.592,26.38 29.496,26.368 29.412,26.332 C29.184,26.26 29.016,26.092 29.016,25.876 C29.016,25.828 29.028,25.78 29.04,25.732 C29.16,25.36 29.472,25.012 29.748,24.796 C30.168,24.472 30.708,24.268 31.68,24.268 C33.288,24.268 34.08,24.904 34.08,26.32 L34.08,29.596 C34.08,30.016 34.14,30.424 34.212,30.652 C34.224,30.688 34.236,30.736 34.236,30.772 C34.236,30.964 34.056,31.132 33.756,31.156 L33.648,31.156 C33.408,31.156 33.192,31.084 33.144,30.868 C33.108,30.724 33.084,30.508 33.072,30.268 C32.616,30.784 31.98,31.252 30.792,31.252 C29.472,31.252 28.668,30.508 28.668,29.272 C28.668,28.144 29.34,27.424 30.48,27.112 C31.14,26.932 31.764,26.86 33.048,26.836 Z M33.048,28.504 L33.048,27.7 C31.644,27.736 30.984,27.856 30.504,28.096 C30.024,28.336 29.772,28.708 29.772,29.284 C29.772,29.908 30.252,30.328 30.972,30.328 C31.728,30.328 32.352,29.956 32.736,29.476 C32.964,29.188 33.048,28.96 33.048,28.504 Z M40.584,24.76 L40.584,22.144 C40.584,21.82 40.812,21.664 41.112,21.664 C41.448,21.664 41.652,21.82 41.652,22.144 L41.652,30.676 C41.652,31 41.436,31.156 41.1,31.156 C40.752,31.156 40.584,30.964 40.584,30.712 L40.584,30.46 C40.584,30.328 40.608,30.076 40.62,29.908 C40.212,30.748 39.528,31.264 38.412,31.264 C36.66,31.264 35.556,29.884 35.556,27.724 C35.556,25.624 36.648,24.268 38.424,24.268 C39.54,24.268 40.212,24.796 40.632,25.648 C40.608,25.372 40.584,25.024 40.584,24.76 Z M38.568,25.204 C37.356,25.204 36.66,26.212 36.66,27.736 C36.66,29.308 37.356,30.328 38.568,30.328 C39.828,30.328 40.608,29.236 40.608,27.748 C40.608,26.284 39.888,25.204 38.568,25.204 Z M43.368,30.676 L43.368,24.832 C43.368,24.52 43.572,24.364 43.908,24.364 C44.232,24.364 44.46,24.52 44.46,24.832 L44.46,30.676 C44.46,31 44.232,31.156 43.908,31.156 C43.572,31.156 43.368,31 43.368,30.676 Z M43.92,21.652 C44.364,21.652 44.724,22 44.724,22.456 C44.724,22.924 44.364,23.272 43.92,23.272 C43.464,23.272 43.104,22.924 43.104,22.456 C43.104,22 43.464,21.652 43.92,21.652 Z M46.884,24.436 L46.884,22.984 C46.884,22.672 47.088,22.504 47.424,22.504 C47.736,22.504 47.964,22.672 47.964,22.984 L47.964,24.436 L49.5,24.436 C49.8,24.436 49.944,24.628 49.944,24.916 C49.944,25.192 49.788,25.384 49.5,25.384 L47.964,25.384 L47.964,29.404 C47.964,29.992 48.216,30.244 48.66,30.244 C48.96,30.244 49.164,30.16 49.368,30.04 C49.44,30.004 49.512,29.98 49.584,29.98 C49.764,29.98 49.908,30.112 49.98,30.292 C50.016,30.376 50.028,30.472 50.028,30.556 C50.028,30.724 49.956,30.892 49.776,30.988 C49.428,31.156 49.104,31.252 48.588,31.252 C47.604,31.252 46.884,30.76 46.884,29.5 L46.884,25.384 L45.948,25.384 C45.66,25.384 45.528,25.192 45.528,24.916 C45.528,24.64 45.66,24.436 45.96,24.436 L46.884,24.436 Z M51.012,30.676 L51.012,24.832 C51.012,24.52 51.216,24.364 51.552,24.364 C51.876,24.364 52.104,24.52 52.104,24.832 L52.104,30.676 C52.104,31 51.876,31.156 51.552,31.156 C51.216,31.156 51.012,31 51.012,30.676 Z M51.564,21.652 C52.008,21.652 52.368,22 52.368,22.456 C52.368,22.924 52.008,23.272 51.564,23.272 C51.108,23.272 50.748,22.924 50.748,22.456 C50.748,22 51.108,21.652 51.564,21.652 Z M56.616,24.268 C58.536,24.268 59.664,25.66 59.664,27.748 C59.664,29.836 58.512,31.276 56.64,31.276 C54.66,31.276 53.508,29.884 53.508,27.748 C53.508,25.672 54.672,24.268 56.616,24.268 Z M56.652,25.192 C55.356,25.192 54.612,26.188 54.612,27.784 C54.612,29.308 55.332,30.352 56.568,30.352 C57.876,30.352 58.56,29.332 58.56,27.736 C58.56,26.224 57.876,25.192 56.652,25.192 Z M66.576,26.608 L66.576,30.676 C66.576,31 66.336,31.156 66.024,31.156 C65.7,31.156 65.472,31 65.472,30.676 L65.472,26.836 C65.472,25.816 65.064,25.24 64.164,25.24 C63.516,25.24 62.976,25.528 62.568,26.092 C62.268,26.5 62.148,26.848 62.148,27.316 L62.148,30.676 C62.148,31 61.92,31.156 61.608,31.156 C61.272,31.156 61.056,31 61.056,30.676 L61.056,24.832 C61.056,24.52 61.284,24.364 61.62,24.364 C61.932,24.364 62.148,24.52 62.148,24.832 L62.148,25.156 C62.148,25.312 62.112,25.432 62.1,25.66 C62.52,24.808 63.24,24.268 64.38,24.268 C65.808,24.268 66.576,25.132 66.576,26.608 Z M72.312,26.836 L72.312,26.32 C72.312,25.528 71.88,25.18 70.932,25.18 C70.056,25.18 69.624,25.516 69.42,26.068 C69.336,26.296 69.156,26.38 68.952,26.38 C68.856,26.38 68.76,26.368 68.676,26.332 C68.448,26.26 68.28,26.092 68.28,25.876 C68.28,25.828 68.292,25.78 68.304,25.732 C68.424,25.36 68.736,25.012 69.012,24.796 C69.432,24.472 69.972,24.268 70.944,24.268 C72.552,24.268 73.344,24.904 73.344,26.32 L73.344,29.596 C73.344,30.016 73.404,30.424 73.476,30.652 C73.488,30.688 73.5,30.736 73.5,30.772 C73.5,30.964 73.32,31.132 73.02,31.156 L72.912,31.156 C72.672,31.156 72.456,31.084 72.408,30.868 C72.372,30.724 72.348,30.508 72.336,30.268 C71.88,30.784 71.244,31.252 70.056,31.252 C68.736,31.252 67.932,30.508 67.932,29.272 C67.932,28.144 68.604,27.424 69.744,27.112 C70.404,26.932 71.028,26.86 72.312,26.836 Z M72.312,28.504 L72.312,27.7 C70.908,27.736 70.248,27.856 69.768,28.096 C69.288,28.336 69.036,28.708 69.036,29.284 C69.036,29.908 69.516,30.328 70.236,30.328 C70.992,30.328 71.616,29.956 72,29.476 C72.228,29.188 72.312,28.96 72.312,28.504 Z M75.12,30.676 L75.12,22.144 C75.12,21.82 75.336,21.664 75.672,21.664 C75.996,21.664 76.212,21.82 76.212,22.144 L76.212,30.676 C76.212,31 75.996,31.156 75.672,31.156 C75.336,31.156 75.12,31 75.12,30.676 Z M21.774,44.8 L21.774,37.18 C21.774,36.82 22.026,36.664 22.35,36.664 C22.686,36.664 22.926,36.82 22.926,37.168 L22.926,44.584 C22.926,44.86 23.082,45.004 23.358,45.004 L27.606,45.004 C27.918,45.004 28.098,45.232 28.098,45.532 C28.098,45.82 27.918,46.084 27.606,46.084 L22.998,46.084 C22.146,46.084 21.774,45.712 21.774,44.8 Z M34.098,42.964 L29.874,42.964 C29.898,44.44 30.63,45.364 31.926,45.364 C32.79,45.364 33.27,44.932 33.558,44.296 C33.666,44.08 33.822,43.996 33.99,43.996 C34.074,43.996 34.158,44.02 34.242,44.044 C34.446,44.104 34.614,44.248 34.614,44.464 C34.614,44.536 34.602,44.608 34.554,44.68 C34.17,45.472 33.474,46.264 31.914,46.264 C29.946,46.264 28.806,44.872 28.806,42.796 C28.806,40.72 29.886,39.268 31.842,39.268 C33.594,39.268 34.578,40.636 34.698,42.208 L34.698,42.304 C34.698,42.736 34.47,42.964 34.098,42.964 Z M29.91,42.088 L33.426,42.088 C33.558,42.088 33.606,42.04 33.606,41.932 L33.606,41.872 C33.462,41.02 32.946,40.144 31.842,40.144 C30.69,40.144 30.066,40.912 29.91,42.088 Z M35.694,42.784 C35.694,40.732 36.75,39.256 38.718,39.256 C40.302,39.256 40.95,40.132 41.25,40.888 C41.274,40.948 41.286,41.02 41.286,41.068 C41.286,41.296 41.106,41.44 40.926,41.512 C40.842,41.536 40.746,41.548 40.662,41.548 C40.482,41.548 40.326,41.476 40.242,41.272 C40.014,40.66 39.654,40.192 38.742,40.192 C37.494,40.192 36.81,41.248 36.81,42.772 C36.81,44.344 37.482,45.34 38.754,45.34 C39.69,45.34 40.062,44.884 40.29,44.236 C40.374,44.008 40.542,43.912 40.734,43.912 C40.818,43.912 40.902,43.924 40.986,43.96 C41.202,44.008 41.37,44.152 41.37,44.368 C41.37,44.44 41.358,44.5 41.322,44.584 C40.998,45.412 40.362,46.276 38.73,46.276 C36.786,46.276 35.694,44.848 35.694,42.784 Z M43.362,39.436 L43.362,37.984 C43.362,37.672 43.566,37.504 43.902,37.504 C44.214,37.504 44.442,37.672 44.442,37.984 L44.442,39.436 L45.978,39.436 C46.278,39.436 46.422,39.628 46.422,39.916 C46.422,40.192 46.266,40.384 45.978,40.384 L44.442,40.384 L44.442,44.404 C44.442,44.992 44.694,45.244 45.138,45.244 C45.438,45.244 45.642,45.16 45.846,45.04 C45.918,45.004 45.99,44.98 46.062,44.98 C46.242,44.98 46.386,45.112 46.458,45.292 C46.494,45.376 46.506,45.472 46.506,45.556 C46.506,45.724 46.434,45.892 46.254,45.988 C45.906,46.156 45.582,46.252 45.066,46.252 C44.082,46.252 43.362,45.76 43.362,44.5 L43.362,40.384 L42.426,40.384 C42.138,40.384 42.006,40.192 42.006,39.916 C42.006,39.64 42.138,39.436 42.438,39.436 L43.362,39.436 Z M47.454,43.912 L47.454,39.844 C47.454,39.52 47.682,39.364 48.006,39.364 C48.33,39.364 48.558,39.52 48.558,39.844 L48.558,43.684 C48.558,44.716 48.978,45.292 49.866,45.292 C50.502,45.292 51.018,44.992 51.426,44.428 C51.714,44.02 51.834,43.648 51.834,43.18 L51.834,39.844 C51.834,39.52 52.062,39.364 52.386,39.364 C52.698,39.364 52.926,39.52 52.926,39.844 L52.926,45.676 C52.926,46 52.71,46.156 52.398,46.156 C52.074,46.156 51.846,46.012 51.846,45.712 L51.846,45.376 C51.846,45.244 51.882,45.004 51.918,44.812 C51.546,45.652 50.85,46.264 49.65,46.264 C48.234,46.264 47.454,45.376 47.454,43.912 Z M54.822,45.676 L54.822,39.832 C54.822,39.52 55.05,39.364 55.386,39.364 C55.686,39.364 55.926,39.52 55.926,39.832 L55.926,40.096 C55.926,40.264 55.878,40.468 55.854,40.66 C56.046,40.084 56.658,39.34 57.69,39.304 C57.786,39.292 57.87,39.292 57.954,39.292 C58.134,39.292 58.266,39.316 58.434,39.352 C58.71,39.388 58.818,39.556 58.818,39.784 C58.818,39.844 58.806,39.916 58.794,39.988 C58.746,40.24 58.578,40.456 58.326,40.456 C58.29,40.456 58.254,40.456 58.218,40.444 C58.05,40.408 57.894,40.372 57.642,40.372 C57.126,40.384 56.73,40.648 56.43,41.032 C56.118,41.416 55.938,41.86 55.926,42.364 L55.926,45.676 C55.926,46 55.686,46.156 55.386,46.156 C55.05,46.156 54.822,46 54.822,45.676 Z M64.818,42.964 L60.594,42.964 C60.618,44.44 61.35,45.364 62.646,45.364 C63.51,45.364 63.99,44.932 64.278,44.296 C64.386,44.08 64.542,43.996 64.71,43.996 C64.794,43.996 64.878,44.02 64.962,44.044 C65.166,44.104 65.334,44.248 65.334,44.464 C65.334,44.536 65.322,44.608 65.274,44.68 C64.89,45.472 64.194,46.264 62.634,46.264 C60.666,46.264 59.526,44.872 59.526,42.796 C59.526,40.72 60.606,39.268 62.562,39.268 C64.314,39.268 65.298,40.636 65.418,42.208 L65.418,42.304 C65.418,42.736 65.19,42.964 64.818,42.964 Z M60.63,42.088 L64.146,42.088 C64.278,42.088 64.326,42.04 64.326,41.932 L64.326,41.872 C64.182,41.02 63.666,40.144 62.562,40.144 C61.41,40.144 60.786,40.912 60.63,42.088 Z M69.306,43.168 L68.622,43.036 C67.146,42.748 66.534,42.232 66.534,41.092 C66.534,40 67.47,39.256 69.018,39.256 C70.35,39.256 71.202,39.82 71.502,40.696 C71.514,40.744 71.526,40.792 71.526,40.84 C71.526,41.068 71.322,41.224 71.106,41.284 C71.046,41.296 70.974,41.308 70.914,41.308 C70.698,41.308 70.482,41.212 70.422,40.984 C70.266,40.444 69.738,40.168 69.054,40.168 C68.082,40.168 67.626,40.564 67.626,41.068 C67.626,41.62 67.854,41.86 68.862,42.076 L69.606,42.232 C71.166,42.556 71.79,43.012 71.79,44.272 C71.79,45.424 70.806,46.276 69.126,46.276 C67.59,46.276 66.69,45.664 66.378,44.596 C66.366,44.536 66.354,44.488 66.354,44.44 C66.354,44.2 66.558,44.032 66.786,43.984 C66.846,43.972 66.906,43.96 66.954,43.96 C67.182,43.96 67.398,44.056 67.47,44.284 C67.686,44.98 68.178,45.328 69.126,45.328 C70.086,45.328 70.71,44.908 70.71,44.296 C70.71,43.708 70.398,43.384 69.306,43.168 Z" id="Traditional-Lectures-Copy" fill="#2F6070"></path>
            </g>
            <g id="Typical-AL" transform="translate(148.000000, 160.000000)">
                <g id="Typical-Ellipse">
                    <use fill="black" fill-opacity="1" filter="url(#filter-5)" xlink:href="#path-4"></use>
                    <use fill="#E69877" fill-rule="evenodd" xlink:href="#path-4"></use>
                </g>
                <path d="M20.822,11.792 L18.098,11.792 C17.798,11.792 17.63,11.552 17.63,11.276 C17.63,10.988 17.798,10.736 18.086,10.736 L24.698,10.736 C24.986,10.736 25.154,10.988 25.154,11.276 C25.154,11.552 24.974,11.792 24.698,11.792 L21.974,11.792 L21.974,19.664 C21.974,19.988 21.722,20.156 21.398,20.156 C21.074,20.156 20.822,19.988 20.822,19.664 L20.822,11.792 Z M29.126,17.672 L30.638,13.688 C30.722,13.46 30.902,13.376 31.106,13.376 C31.178,13.376 31.25,13.388 31.322,13.4 C31.55,13.46 31.718,13.628 31.718,13.844 C31.718,13.904 31.706,13.976 31.682,14.048 L28.85,21.068 C28.43,22.1 27.938,22.784 26.762,22.784 C26.462,22.784 26.174,22.736 25.898,22.628 C25.658,22.544 25.562,22.376 25.562,22.196 C25.562,22.1 25.586,22.016 25.622,21.92 C25.706,21.716 25.862,21.584 26.066,21.584 C26.138,21.584 26.21,21.596 26.294,21.632 C26.462,21.704 26.678,21.788 26.894,21.788 C27.41,21.788 27.662,21.332 27.878,20.78 L28.214,19.94 L25.79,14.06 C25.766,14 25.754,13.928 25.754,13.868 C25.754,13.652 25.934,13.472 26.15,13.4 C26.234,13.376 26.318,13.364 26.402,13.364 C26.594,13.364 26.774,13.448 26.858,13.664 L28.37,17.648 C28.514,18.032 28.622,18.476 28.73,18.848 C28.826,18.476 28.994,18.02 29.126,17.672 Z M33.974,19.568 L33.974,22.208 C33.974,22.508 33.77,22.676 33.446,22.676 C33.11,22.676 32.906,22.508 32.906,22.208 L32.906,13.832 C32.906,13.52 33.11,13.364 33.446,13.364 C33.746,13.364 33.974,13.508 33.974,13.808 L33.974,14.024 C33.974,14.192 33.962,14.48 33.926,14.684 C34.346,13.832 35.006,13.268 36.17,13.268 C37.97,13.268 38.99,14.576 38.99,16.712 C38.99,18.848 37.91,20.264 36.122,20.264 C35.006,20.264 34.322,19.712 33.914,18.872 C33.962,19.1 33.974,19.352 33.974,19.568 Z M36.014,14.204 C34.694,14.204 33.95,15.272 33.95,16.748 C33.95,18.236 34.73,19.316 35.99,19.316 C37.202,19.316 37.886,18.284 37.886,16.736 C37.886,15.176 37.226,14.204 36.014,14.204 Z M40.394,19.676 L40.394,13.832 C40.394,13.52 40.598,13.364 40.934,13.364 C41.258,13.364 41.486,13.52 41.486,13.832 L41.486,19.676 C41.486,20 41.258,20.156 40.934,20.156 C40.598,20.156 40.394,20 40.394,19.676 Z M40.946,10.652 C41.39,10.652 41.75,11 41.75,11.456 C41.75,11.924 41.39,12.272 40.946,12.272 C40.49,12.272 40.13,11.924 40.13,11.456 C40.13,11 40.49,10.652 40.946,10.652 Z M42.89,16.784 C42.89,14.732 43.946,13.256 45.914,13.256 C47.498,13.256 48.146,14.132 48.446,14.888 C48.47,14.948 48.482,15.02 48.482,15.068 C48.482,15.296 48.302,15.44 48.122,15.512 C48.038,15.536 47.942,15.548 47.858,15.548 C47.678,15.548 47.522,15.476 47.438,15.272 C47.21,14.66 46.85,14.192 45.938,14.192 C44.69,14.192 44.006,15.248 44.006,16.772 C44.006,18.344 44.678,19.34 45.95,19.34 C46.886,19.34 47.258,18.884 47.486,18.236 C47.57,18.008 47.738,17.912 47.93,17.912 C48.014,17.912 48.098,17.924 48.182,17.96 C48.398,18.008 48.566,18.152 48.566,18.368 C48.566,18.44 48.554,18.5 48.518,18.584 C48.194,19.412 47.558,20.276 45.926,20.276 C43.982,20.276 42.89,18.848 42.89,16.784 Z M53.906,15.836 L53.906,15.32 C53.906,14.528 53.474,14.18 52.526,14.18 C51.65,14.18 51.218,14.516 51.014,15.068 C50.93,15.296 50.75,15.38 50.546,15.38 C50.45,15.38 50.354,15.368 50.27,15.332 C50.042,15.26 49.874,15.092 49.874,14.876 C49.874,14.828 49.886,14.78 49.898,14.732 C50.018,14.36 50.33,14.012 50.606,13.796 C51.026,13.472 51.566,13.268 52.538,13.268 C54.146,13.268 54.938,13.904 54.938,15.32 L54.938,18.596 C54.938,19.016 54.998,19.424 55.07,19.652 C55.082,19.688 55.094,19.736 55.094,19.772 C55.094,19.964 54.914,20.132 54.614,20.156 L54.506,20.156 C54.266,20.156 54.05,20.084 54.002,19.868 C53.966,19.724 53.942,19.508 53.93,19.268 C53.474,19.784 52.838,20.252 51.65,20.252 C50.33,20.252 49.526,19.508 49.526,18.272 C49.526,17.144 50.198,16.424 51.338,16.112 C51.998,15.932 52.622,15.86 53.906,15.836 Z M53.906,17.504 L53.906,16.7 C52.502,16.736 51.842,16.856 51.362,17.096 C50.882,17.336 50.63,17.708 50.63,18.284 C50.63,18.908 51.11,19.328 51.83,19.328 C52.586,19.328 53.21,18.956 53.594,18.476 C53.822,18.188 53.906,17.96 53.906,17.504 Z M56.714,19.676 L56.714,11.144 C56.714,10.82 56.93,10.664 57.266,10.664 C57.59,10.664 57.806,10.82 57.806,11.144 L57.806,19.676 C57.806,20 57.59,20.156 57.266,20.156 C56.93,20.156 56.714,20 56.714,19.676 Z M22.01,32.348 L21.086,34.82 C21.002,35.06 20.822,35.156 20.618,35.156 C20.534,35.156 20.462,35.144 20.378,35.12 C20.138,35.06 19.958,34.856 19.958,34.628 C19.958,34.556 19.97,34.496 19.994,34.424 L23.258,26.228 C23.414,25.82 23.714,25.664 24.086,25.664 C24.47,25.664 24.782,25.82 24.938,26.228 L28.202,34.448 C28.238,34.52 28.25,34.58 28.25,34.652 C28.25,34.892 28.058,35.072 27.818,35.132 C27.746,35.156 27.674,35.168 27.602,35.168 C27.386,35.168 27.194,35.06 27.11,34.832 L26.162,32.348 L22.01,32.348 Z M22.37,31.34 L25.802,31.34 L24.47,27.848 C24.338,27.5 24.206,27.116 24.098,26.708 C23.99,27.116 23.87,27.5 23.726,27.86 L22.37,31.34 Z M29.21,31.784 C29.21,29.732 30.266,28.256 32.234,28.256 C33.818,28.256 34.466,29.132 34.766,29.888 C34.79,29.948 34.802,30.02 34.802,30.068 C34.802,30.296 34.622,30.44 34.442,30.512 C34.358,30.536 34.262,30.548 34.178,30.548 C33.998,30.548 33.842,30.476 33.758,30.272 C33.53,29.66 33.17,29.192 32.258,29.192 C31.01,29.192 30.326,30.248 30.326,31.772 C30.326,33.344 30.998,34.34 32.27,34.34 C33.206,34.34 33.578,33.884 33.806,33.236 C33.89,33.008 34.058,32.912 34.25,32.912 C34.334,32.912 34.418,32.924 34.502,32.96 C34.718,33.008 34.886,33.152 34.886,33.368 C34.886,33.44 34.874,33.5 34.838,33.584 C34.514,34.412 33.878,35.276 32.246,35.276 C30.302,35.276 29.21,33.848 29.21,31.784 Z M36.878,28.436 L36.878,26.984 C36.878,26.672 37.082,26.504 37.418,26.504 C37.73,26.504 37.958,26.672 37.958,26.984 L37.958,28.436 L39.494,28.436 C39.794,28.436 39.938,28.628 39.938,28.916 C39.938,29.192 39.782,29.384 39.494,29.384 L37.958,29.384 L37.958,33.404 C37.958,33.992 38.21,34.244 38.654,34.244 C38.954,34.244 39.158,34.16 39.362,34.04 C39.434,34.004 39.506,33.98 39.578,33.98 C39.758,33.98 39.902,34.112 39.974,34.292 C40.01,34.376 40.022,34.472 40.022,34.556 C40.022,34.724 39.95,34.892 39.77,34.988 C39.422,35.156 39.098,35.252 38.582,35.252 C37.598,35.252 36.878,34.76 36.878,33.5 L36.878,29.384 L35.942,29.384 C35.654,29.384 35.522,29.192 35.522,28.916 C35.522,28.64 35.654,28.436 35.954,28.436 L36.878,28.436 Z M41.006,34.676 L41.006,28.832 C41.006,28.52 41.21,28.364 41.546,28.364 C41.87,28.364 42.098,28.52 42.098,28.832 L42.098,34.676 C42.098,35 41.87,35.156 41.546,35.156 C41.21,35.156 41.006,35 41.006,34.676 Z M41.558,25.652 C42.002,25.652 42.362,26 42.362,26.456 C42.362,26.924 42.002,27.272 41.558,27.272 C41.102,27.272 40.742,26.924 40.742,26.456 C40.742,26 41.102,25.652 41.558,25.652 Z M46.766,32.42 L48.134,28.712 C48.23,28.472 48.398,28.364 48.614,28.364 C48.686,28.364 48.758,28.376 48.842,28.4 C49.082,28.472 49.238,28.628 49.238,28.856 C49.238,28.916 49.226,28.988 49.19,29.06 L46.982,34.676 C46.838,35.048 46.574,35.156 46.262,35.156 C45.938,35.156 45.686,35.036 45.542,34.664 L43.334,29.06 C43.31,28.988 43.298,28.928 43.298,28.868 C43.298,28.64 43.454,28.46 43.682,28.4 C43.766,28.376 43.85,28.364 43.922,28.364 C44.138,28.364 44.318,28.46 44.402,28.7 L45.794,32.48 C45.938,32.888 46.178,33.692 46.274,34.124 C46.382,33.68 46.61,32.828 46.766,32.42 Z M55.394,31.964 L51.17,31.964 C51.194,33.44 51.926,34.364 53.222,34.364 C54.086,34.364 54.566,33.932 54.854,33.296 C54.962,33.08 55.118,32.996 55.286,32.996 C55.37,32.996 55.454,33.02 55.538,33.044 C55.742,33.104 55.91,33.248 55.91,33.464 C55.91,33.536 55.898,33.608 55.85,33.68 C55.466,34.472 54.77,35.264 53.21,35.264 C51.242,35.264 50.102,33.872 50.102,31.796 C50.102,29.72 51.182,28.268 53.138,28.268 C54.89,28.268 55.874,29.636 55.994,31.208 L55.994,31.304 C55.994,31.736 55.766,31.964 55.394,31.964 Z M51.206,31.088 L54.722,31.088 C54.854,31.088 54.902,31.04 54.902,30.932 L54.902,30.872 C54.758,30.02 54.242,29.144 53.138,29.144 C51.986,29.144 51.362,29.912 51.206,31.088 Z M13.502,48.8 L13.502,41.18 C13.502,40.82 13.754,40.664 14.078,40.664 C14.414,40.664 14.654,40.82 14.654,41.168 L14.654,48.584 C14.654,48.86 14.81,49.004 15.086,49.004 L19.334,49.004 C19.646,49.004 19.826,49.232 19.826,49.532 C19.826,49.82 19.646,50.084 19.334,50.084 L14.726,50.084 C13.874,50.084 13.502,49.712 13.502,48.8 Z M25.826,46.964 L21.602,46.964 C21.626,48.44 22.358,49.364 23.654,49.364 C24.518,49.364 24.998,48.932 25.286,48.296 C25.394,48.08 25.55,47.996 25.718,47.996 C25.802,47.996 25.886,48.02 25.97,48.044 C26.174,48.104 26.342,48.248 26.342,48.464 C26.342,48.536 26.33,48.608 26.282,48.68 C25.898,49.472 25.202,50.264 23.642,50.264 C21.674,50.264 20.534,48.872 20.534,46.796 C20.534,44.72 21.614,43.268 23.57,43.268 C25.322,43.268 26.306,44.636 26.426,46.208 L26.426,46.304 C26.426,46.736 26.198,46.964 25.826,46.964 Z M21.638,46.088 L25.154,46.088 C25.286,46.088 25.334,46.04 25.334,45.932 L25.334,45.872 C25.19,45.02 24.674,44.144 23.57,44.144 C22.418,44.144 21.794,44.912 21.638,46.088 Z M31.79,45.836 L31.79,45.32 C31.79,44.528 31.358,44.18 30.41,44.18 C29.534,44.18 29.102,44.516 28.898,45.068 C28.814,45.296 28.634,45.38 28.43,45.38 C28.334,45.38 28.238,45.368 28.154,45.332 C27.926,45.26 27.758,45.092 27.758,44.876 C27.758,44.828 27.77,44.78 27.782,44.732 C27.902,44.36 28.214,44.012 28.49,43.796 C28.91,43.472 29.45,43.268 30.422,43.268 C32.03,43.268 32.822,43.904 32.822,45.32 L32.822,48.596 C32.822,49.016 32.882,49.424 32.954,49.652 C32.966,49.688 32.978,49.736 32.978,49.772 C32.978,49.964 32.798,50.132 32.498,50.156 L32.39,50.156 C32.15,50.156 31.934,50.084 31.886,49.868 C31.85,49.724 31.826,49.508 31.814,49.268 C31.358,49.784 30.722,50.252 29.534,50.252 C28.214,50.252 27.41,49.508 27.41,48.272 C27.41,47.144 28.082,46.424 29.222,46.112 C29.882,45.932 30.506,45.86 31.79,45.836 Z M31.79,47.504 L31.79,46.7 C30.386,46.736 29.726,46.856 29.246,47.096 C28.766,47.336 28.514,47.708 28.514,48.284 C28.514,48.908 28.994,49.328 29.714,49.328 C30.47,49.328 31.094,48.956 31.478,48.476 C31.706,48.188 31.79,47.96 31.79,47.504 Z M34.778,49.676 L34.778,43.832 C34.778,43.52 35.006,43.364 35.342,43.364 C35.642,43.364 35.882,43.52 35.882,43.832 L35.882,44.096 C35.882,44.264 35.834,44.468 35.81,44.66 C36.002,44.084 36.614,43.34 37.646,43.304 C37.742,43.292 37.826,43.292 37.91,43.292 C38.09,43.292 38.222,43.316 38.39,43.352 C38.666,43.388 38.774,43.556 38.774,43.784 C38.774,43.844 38.762,43.916 38.75,43.988 C38.702,44.24 38.534,44.456 38.282,44.456 C38.246,44.456 38.21,44.456 38.174,44.444 C38.006,44.408 37.85,44.372 37.598,44.372 C37.082,44.384 36.686,44.648 36.386,45.032 C36.074,45.416 35.894,45.86 35.882,46.364 L35.882,49.676 C35.882,50 35.642,50.156 35.342,50.156 C35.006,50.156 34.778,50 34.778,49.676 Z M45.314,45.608 L45.314,49.676 C45.314,50 45.074,50.156 44.762,50.156 C44.438,50.156 44.21,50 44.21,49.676 L44.21,45.836 C44.21,44.816 43.802,44.24 42.902,44.24 C42.254,44.24 41.714,44.528 41.306,45.092 C41.006,45.5 40.886,45.848 40.886,46.316 L40.886,49.676 C40.886,50 40.658,50.156 40.346,50.156 C40.01,50.156 39.794,50 39.794,49.676 L39.794,43.832 C39.794,43.52 40.022,43.364 40.358,43.364 C40.67,43.364 40.886,43.52 40.886,43.832 L40.886,44.156 C40.886,44.312 40.85,44.432 40.838,44.66 C41.258,43.808 41.978,43.268 43.118,43.268 C44.546,43.268 45.314,44.132 45.314,45.608 Z M46.994,49.676 L46.994,43.832 C46.994,43.52 47.198,43.364 47.534,43.364 C47.858,43.364 48.086,43.52 48.086,43.832 L48.086,49.676 C48.086,50 47.858,50.156 47.534,50.156 C47.198,50.156 46.994,50 46.994,49.676 Z M47.546,40.652 C47.99,40.652 48.35,41 48.35,41.456 C48.35,41.924 47.99,42.272 47.546,42.272 C47.09,42.272 46.73,41.924 46.73,41.456 C46.73,41 47.09,40.652 47.546,40.652 Z M55.322,45.608 L55.322,49.676 C55.322,50 55.082,50.156 54.77,50.156 C54.446,50.156 54.218,50 54.218,49.676 L54.218,45.836 C54.218,44.816 53.81,44.24 52.91,44.24 C52.262,44.24 51.722,44.528 51.314,45.092 C51.014,45.5 50.894,45.848 50.894,46.316 L50.894,49.676 C50.894,50 50.666,50.156 50.354,50.156 C50.018,50.156 49.802,50 49.802,49.676 L49.802,43.832 C49.802,43.52 50.03,43.364 50.366,43.364 C50.678,43.364 50.894,43.52 50.894,43.832 L50.894,44.156 C50.894,44.312 50.858,44.432 50.846,44.66 C51.266,43.808 51.986,43.268 53.126,43.268 C54.554,43.268 55.322,44.132 55.322,45.608 Z M61.67,44.156 L61.67,43.796 C61.67,43.544 61.838,43.364 62.186,43.364 C62.51,43.364 62.702,43.52 62.702,43.844 L62.702,49.4 C62.702,52.16 61.25,52.784 59.666,52.784 C58.37,52.784 57.542,52.352 57.086,51.764 C57.026,51.68 56.99,51.596 56.99,51.5 C56.99,51.344 57.074,51.188 57.218,51.08 C57.314,51.008 57.446,50.96 57.566,50.96 C57.698,50.96 57.818,51.008 57.914,51.116 C58.358,51.632 58.886,51.884 59.618,51.884 C61.118,51.884 61.658,51.128 61.67,49.352 C61.67,49.208 61.694,48.944 61.718,48.776 C61.322,49.532 60.638,50.06 59.582,50.06 C57.878,50.06 56.69,48.74 56.69,46.736 C56.69,44.672 57.758,43.28 59.606,43.28 C60.698,43.28 61.382,43.88 61.718,44.648 C61.706,44.516 61.67,44.288 61.67,44.156 Z M59.738,44.192 C58.514,44.192 57.794,45.188 57.794,46.736 C57.794,48.26 58.61,49.184 59.726,49.184 C60.95,49.184 61.694,48.14 61.694,46.652 C61.694,45.224 60.962,44.192 59.738,44.192 Z" id="Typical-Active-Learn-Copy" fill="#2F6070"></path>
            </g>
            <g id="CH" transform="translate(204.000000, 20.000000)">
                <g id="CH-Ellipse">
                    <use fill="black" fill-opacity="1" filter="url(#filter-7)" xlink:href="#path-6"></use>
                    <use fill="#CB4343" fill-rule="evenodd" xlink:href="#path-6"></use>
                </g>
                <path d="M14.704,44.556 C16.816,44.556 17.764,45.66 18.196,46.716 C18.232,46.8 18.244,46.884 18.244,46.956 C18.244,47.208 18.052,47.376 17.872,47.436 C17.776,47.472 17.68,47.484 17.584,47.484 C17.38,47.484 17.188,47.4 17.08,47.172 C16.72,46.308 16.12,45.6 14.752,45.6 C12.952,45.6 11.764,47.052 11.764,49.416 C11.764,51.732 12.952,53.22 14.752,53.22 C16.192,53.22 16.876,52.356 17.188,51.396 C17.284,51.132 17.5,51.024 17.728,51.024 C17.8,51.024 17.884,51.036 17.968,51.06 C18.172,51.108 18.388,51.288 18.388,51.54 C18.388,51.612 18.376,51.672 18.352,51.744 C17.932,52.932 16.924,54.276 14.788,54.276 C12.208,54.276 10.564,52.392 10.564,49.404 C10.564,46.488 12.208,44.556 14.704,44.556 Z M25.216,49.608 L25.216,53.676 C25.216,54 24.976,54.156 24.664,54.156 C24.34,54.156 24.124,54 24.124,53.676 L24.124,49.836 C24.124,48.816 23.704,48.252 22.804,48.252 C22.132,48.252 21.604,48.564 21.208,49.092 C20.908,49.5 20.776,49.848 20.776,50.316 L20.776,53.676 C20.776,54 20.572,54.156 20.26,54.156 C19.924,54.156 19.696,54 19.696,53.676 L19.696,45.132 C19.696,44.82 19.924,44.664 20.26,44.664 C20.572,44.664 20.776,44.808 20.776,45.132 L20.776,48.144 C20.776,48.3 20.728,48.576 20.704,48.756 C21.1,47.904 21.76,47.268 23.02,47.268 C24.448,47.268 25.216,48.132 25.216,49.608 Z M30.952,49.836 L30.952,49.32 C30.952,48.528 30.52,48.18 29.572,48.18 C28.696,48.18 28.264,48.516 28.06,49.068 C27.976,49.296 27.796,49.38 27.592,49.38 C27.496,49.38 27.4,49.368 27.316,49.332 C27.088,49.26 26.92,49.092 26.92,48.876 C26.92,48.828 26.932,48.78 26.944,48.732 C27.064,48.36 27.376,48.012 27.652,47.796 C28.072,47.472 28.612,47.268 29.584,47.268 C31.192,47.268 31.984,47.904 31.984,49.32 L31.984,52.596 C31.984,53.016 32.044,53.424 32.116,53.652 C32.128,53.688 32.14,53.736 32.14,53.772 C32.14,53.964 31.96,54.132 31.66,54.156 L31.552,54.156 C31.312,54.156 31.096,54.084 31.048,53.868 C31.012,53.724 30.988,53.508 30.976,53.268 C30.52,53.784 29.884,54.252 28.696,54.252 C27.376,54.252 26.572,53.508 26.572,52.272 C26.572,51.144 27.244,50.424 28.384,50.112 C29.044,49.932 29.668,49.86 30.952,49.836 Z M30.952,51.504 L30.952,50.7 C29.548,50.736 28.888,50.856 28.408,51.096 C27.928,51.336 27.676,51.708 27.676,52.284 C27.676,52.908 28.156,53.328 28.876,53.328 C29.632,53.328 30.256,52.956 30.64,52.476 C30.868,52.188 30.952,51.96 30.952,51.504 Z M33.76,53.676 L33.76,45.144 C33.76,44.82 33.976,44.664 34.312,44.664 C34.636,44.664 34.852,44.82 34.852,45.144 L34.852,53.676 C34.852,54 34.636,54.156 34.312,54.156 C33.976,54.156 33.76,54 33.76,53.676 Z M36.556,53.676 L36.556,45.144 C36.556,44.82 36.772,44.664 37.108,44.664 C37.432,44.664 37.648,44.82 37.648,45.144 L37.648,53.676 C37.648,54 37.432,54.156 37.108,54.156 C36.772,54.156 36.556,54 36.556,53.676 Z M44.344,50.964 L40.12,50.964 C40.144,52.44 40.876,53.364 42.172,53.364 C43.036,53.364 43.516,52.932 43.804,52.296 C43.912,52.08 44.068,51.996 44.236,51.996 C44.32,51.996 44.404,52.02 44.488,52.044 C44.692,52.104 44.86,52.248 44.86,52.464 C44.86,52.536 44.848,52.608 44.8,52.68 C44.416,53.472 43.72,54.264 42.16,54.264 C40.192,54.264 39.052,52.872 39.052,50.796 C39.052,48.72 40.132,47.268 42.088,47.268 C43.84,47.268 44.824,48.636 44.944,50.208 L44.944,50.304 C44.944,50.736 44.716,50.964 44.344,50.964 Z M40.156,50.088 L43.672,50.088 C43.804,50.088 43.852,50.04 43.852,49.932 L43.852,49.872 C43.708,49.02 43.192,48.144 42.088,48.144 C40.936,48.144 40.312,48.912 40.156,50.088 Z M51.772,49.608 L51.772,53.676 C51.772,54 51.532,54.156 51.22,54.156 C50.896,54.156 50.668,54 50.668,53.676 L50.668,49.836 C50.668,48.816 50.26,48.24 49.36,48.24 C48.712,48.24 48.172,48.528 47.764,49.092 C47.464,49.5 47.344,49.848 47.344,50.316 L47.344,53.676 C47.344,54 47.116,54.156 46.804,54.156 C46.468,54.156 46.252,54 46.252,53.676 L46.252,47.832 C46.252,47.52 46.48,47.364 46.816,47.364 C47.128,47.364 47.344,47.52 47.344,47.832 L47.344,48.156 C47.344,48.312 47.308,48.432 47.296,48.66 C47.716,47.808 48.436,47.268 49.576,47.268 C51.004,47.268 51.772,48.132 51.772,49.608 Z M58.12,48.156 L58.12,47.796 C58.12,47.544 58.288,47.364 58.636,47.364 C58.96,47.364 59.152,47.52 59.152,47.844 L59.152,53.4 C59.152,56.16 57.7,56.784 56.116,56.784 C54.82,56.784 53.992,56.352 53.536,55.764 C53.476,55.68 53.44,55.596 53.44,55.5 C53.44,55.344 53.524,55.188 53.668,55.08 C53.764,55.008 53.896,54.96 54.016,54.96 C54.148,54.96 54.268,55.008 54.364,55.116 C54.808,55.632 55.336,55.884 56.068,55.884 C57.568,55.884 58.108,55.128 58.12,53.352 C58.12,53.208 58.144,52.944 58.168,52.776 C57.772,53.532 57.088,54.06 56.032,54.06 C54.328,54.06 53.14,52.74 53.14,50.736 C53.14,48.672 54.208,47.28 56.056,47.28 C57.148,47.28 57.832,47.88 58.168,48.648 C58.156,48.516 58.12,48.288 58.12,48.156 Z M56.188,48.192 C54.964,48.192 54.244,49.188 54.244,50.736 C54.244,52.26 55.06,53.184 56.176,53.184 C57.4,53.184 58.144,52.14 58.144,50.652 C58.144,49.224 57.412,48.192 56.188,48.192 Z M65.848,50.964 L61.624,50.964 C61.648,52.44 62.38,53.364 63.676,53.364 C64.54,53.364 65.02,52.932 65.308,52.296 C65.416,52.08 65.572,51.996 65.74,51.996 C65.824,51.996 65.908,52.02 65.992,52.044 C66.196,52.104 66.364,52.248 66.364,52.464 C66.364,52.536 66.352,52.608 66.304,52.68 C65.92,53.472 65.224,54.264 63.664,54.264 C61.696,54.264 60.556,52.872 60.556,50.796 C60.556,48.72 61.636,47.268 63.592,47.268 C65.344,47.268 66.328,48.636 66.448,50.208 L66.448,50.304 C66.448,50.736 66.22,50.964 65.848,50.964 Z M61.66,50.088 L65.176,50.088 C65.308,50.088 65.356,50.04 65.356,49.932 L65.356,49.872 C65.212,49.02 64.696,48.144 63.592,48.144 C62.44,48.144 61.816,48.912 61.66,50.088 Z M74.212,48.648 L74.212,45.156 C74.212,44.82 74.464,44.664 74.812,44.664 C75.124,44.664 75.364,44.82 75.364,45.156 L75.364,53.664 C75.364,53.988 75.124,54.156 74.812,54.156 C74.464,54.156 74.212,53.988 74.212,53.664 L74.212,49.692 L69.1,49.692 L69.1,53.664 C69.1,53.988 68.848,54.156 68.524,54.156 C68.188,54.156 67.948,53.988 67.948,53.664 L67.948,45.156 C67.948,44.82 68.188,44.664 68.524,44.664 C68.848,44.664 69.1,44.82 69.1,45.156 L69.1,48.648 L74.212,48.648 Z M77.236,51.912 L77.236,47.844 C77.236,47.52 77.464,47.364 77.788,47.364 C78.112,47.364 78.34,47.52 78.34,47.844 L78.34,51.684 C78.34,52.716 78.76,53.292 79.648,53.292 C80.284,53.292 80.8,52.992 81.208,52.428 C81.496,52.02 81.616,51.648 81.616,51.18 L81.616,47.844 C81.616,47.52 81.844,47.364 82.168,47.364 C82.48,47.364 82.708,47.52 82.708,47.844 L82.708,53.676 C82.708,54 82.492,54.156 82.18,54.156 C81.856,54.156 81.628,54.012 81.628,53.712 L81.628,53.376 C81.628,53.244 81.664,53.004 81.7,52.812 C81.328,53.652 80.632,54.264 79.432,54.264 C78.016,54.264 77.236,53.376 77.236,51.912 Z M85.504,53.46 L85.504,53.712 C85.504,53.976 85.324,54.156 84.976,54.156 C84.64,54.156 84.436,54 84.436,53.676 L84.436,45.144 C84.436,44.82 84.64,44.664 84.976,44.664 C85.288,44.664 85.504,44.82 85.504,45.144 L85.504,47.76 C85.504,48.012 85.48,48.36 85.444,48.636 C85.888,47.784 86.596,47.268 87.7,47.268 C89.5,47.268 90.532,48.588 90.532,50.724 C90.532,52.836 89.44,54.264 87.664,54.264 C86.56,54.264 85.84,53.724 85.456,52.884 C85.48,53.064 85.504,53.304 85.504,53.46 Z M87.556,48.204 C86.236,48.204 85.48,49.272 85.48,50.748 C85.48,52.236 86.26,53.316 87.52,53.316 C88.732,53.316 89.428,52.284 89.428,50.736 C89.428,49.176 88.756,48.204 87.556,48.204 Z" id="ChallengeHub-Copy" fill="#FFFFFF"></path>
            </g>
        </g>
        <g id="arrow" transform="translate(168.078838, 104.526279) rotate(60.000000) translate(-168.078838, -104.526279) translate(156.078838, 66.526279)">
            <g id="Combined-Shape" transform="translate(11.900706, 37.936802) rotate(4.000000) translate(-11.900706, -37.936802) ">
                <use fill="black" fill-opacity="1" filter="url(#filter-10)" xlink:href="#path-9"></use>
                <use fill="url(#linearGradient-8)" fill-rule="evenodd" xlink:href="#path-9"></use>
            </g>
        </g>
    </g>
</svg>