<?xml version="1.0" encoding="UTF-8"?>
<svg width="334px" height="263px" viewBox="0 0 334 263" version="1.1" xmlns="http://www.w3.org/2000/svg" xmlns:xlink="http://www.w3.org/1999/xlink">
    <!-- Generator: Sketch 48.2 (47327) - http://www.bohemiancoding.com/sketch -->
    <title>effort-efficiency</title>
    <desc>Created with Sketch.</desc>
    <defs>
        <linearGradient x1="50%" y1="1.2236926%" x2="50%" y2="100%" id="linearGradient-1">
            <stop stop-color="#76C9AC" offset="0%"></stop>
            <stop stop-color="#D2EADC" offset="100%"></stop>
        </linearGradient>
        <path d="M0.73132,32.3384 C0.73132,14.630667 21.09103,0.275717 46.20605,0.275717 C71.32107,0.275717 91.68078,14.630667 91.68078,32.3384 C91.68078,50.046133 71.32107,64.401083 46.20605,64.401083 C21.09103,64.401083 0.73132,50.046133 0.73132,32.3384 Z" id="path-2"></path>
        <filter x="-7.7%" y="-7.8%" width="115.4%" height="121.8%" filterUnits="objectBoundingBox" id="filter-3">
            <feOffset dx="0" dy="2" in="SourceAlpha" result="shadowOffsetOuter1"></feOffset>
            <feGaussianBlur stdDeviation="2" in="shadowOffsetOuter1" result="shadowBlurOuter1"></feGaussianBlur>
            <feColorMatrix values="0 0 0 0 0.184313725   0 0 0 0 0.376470588   0 0 0 0 0.439215686  0 0 0 1 0" type="matrix" in="shadowBlurOuter1"></feColorMatrix>
        </filter>
        <path d="M0.0027,32.26157 C0.0027,14.553837 16.969192,0.198887 37.89833,0.198887 C58.82753,0.198887 75.79396,14.553837 75.79396,32.26157 C75.79396,49.969303 58.82753,64.324253 37.89833,64.324253 C16.969192,64.324253 0.0027,49.969303 0.0027,32.26157 Z" id="path-4"></path>
        <filter x="-9.2%" y="-7.8%" width="118.5%" height="121.8%" filterUnits="objectBoundingBox" id="filter-5">
            <feOffset dx="0" dy="2" in="SourceAlpha" result="shadowOffsetOuter1"></feOffset>
            <feGaussianBlur stdDeviation="2" in="shadowOffsetOuter1" result="shadowBlurOuter1"></feGaussianBlur>
            <feColorMatrix values="0 0 0 0 0.184313725   0 0 0 0 0.376470588   0 0 0 0 0.439215686  0 0 0 1 0" type="matrix" in="shadowBlurOuter1"></feColorMatrix>
        </filter>
        <path d="M0.0027,47.8966 C0.0027,21.67782 22.62886,0.423303 50.539626,0.423303 C63.942885,0.423303 76.797133,5.424951 86.274672,14.327905 C95.75215,23.23089 101.076552,35.305902 101.076552,47.8966 C101.076552,74.11538 78.450392,95.369897 50.539626,95.369897 C22.628859,95.369897 0.0027,74.11538 0.0027,47.8966 Z" id="path-6"></path>
        <filter x="-6.9%" y="-5.3%" width="113.9%" height="114.7%" filterUnits="objectBoundingBox" id="filter-7">
            <feOffset dx="0" dy="2" in="SourceAlpha" result="shadowOffsetOuter1"></feOffset>
            <feGaussianBlur stdDeviation="2" in="shadowOffsetOuter1" result="shadowBlurOuter1"></feGaussianBlur>
            <feColorMatrix values="0 0 0 0 0.184313725   0 0 0 0 0.376470588   0 0 0 0 0.439215686  0 0 0 1 0" type="matrix" in="shadowBlurOuter1"></feColorMatrix>
        </filter>
    </defs>
    <g id="Page-1" stroke="none" stroke-width="1" fill="none" fill-rule="evenodd">
        <g id="es" transform="translate(-3.000000, -3.000000)">
            <g id="Axis">
                <polygon id="Background" fill="url(#linearGradient-1)" points="4.32079797e-14 0 339 0 339 270 0 270"></polygon>
                <path d="M29.23666,16.5 L29.23666,240.45009" id="y-Axis" stroke="#2F6070" stroke-linejoin="round"></path>
                <path d="M29,240 L323.5,240" id="x-Axis" stroke="#2F6070" stroke-linejoin="round"></path>
                <text id="Eficiencia" font-family="HiraMaruProN-W4, Hiragino Maru Gothic ProN" font-size="12" font-weight="normal" fill="#2F6070">
                    <tspan x="148.376" y="255">Eficiencia</tspan>
                </text>
                <text id="Efectividad" transform="translate(17.000000, 129.500000) rotate(270.000000) translate(-17.000000, -129.500000) " font-family="HiraMaruProN-W4, Hiragino Maru Gothic ProN" font-size="12" font-weight="normal" fill="#2F6070">
                    <tspan x="-15.514" y="134.5">Efectividad</tspan>
                </text>
            </g>
            <g id="Traditional-Lectures" transform="translate(52.000000, 158.000000)">
                <g id="Trad-Ellipse">
                    <use fill="black" fill-opacity="1" filter="url(#filter-3)" xlink:href="#path-2"></use>
                    <use fill="#F3C68D" fill-rule="evenodd" xlink:href="#path-2"></use>
                </g>
                <path d="M32.124,18.556 C34.236,18.556 35.184,19.66 35.616,20.716 C35.652,20.8 35.664,20.884 35.664,20.956 C35.664,21.208 35.472,21.376 35.292,21.436 C35.196,21.472 35.1,21.484 35.004,21.484 C34.8,21.484 34.608,21.4 34.5,21.172 C34.14,20.308 33.54,19.6 32.172,19.6 C30.372,19.6 29.184,21.052 29.184,23.416 C29.184,25.732 30.372,27.22 32.172,27.22 C33.612,27.22 34.296,26.356 34.608,25.396 C34.704,25.132 34.92,25.024 35.148,25.024 C35.22,25.024 35.304,25.036 35.388,25.06 C35.592,25.108 35.808,25.288 35.808,25.54 C35.808,25.612 35.796,25.672 35.772,25.744 C35.352,26.932 34.344,28.276 32.208,28.276 C29.628,28.276 27.984,26.392 27.984,23.404 C27.984,20.488 29.628,18.556 32.124,18.556 Z M37.092,27.676 L37.092,19.144 C37.092,18.82 37.308,18.664 37.644,18.664 C37.968,18.664 38.184,18.82 38.184,19.144 L38.184,27.676 C38.184,28 37.968,28.156 37.644,28.156 C37.308,28.156 37.092,28 37.092,27.676 Z M43.956,23.836 L43.956,23.32 C43.956,22.528 43.524,22.18 42.576,22.18 C41.7,22.18 41.268,22.516 41.064,23.068 C40.98,23.296 40.8,23.38 40.596,23.38 C40.5,23.38 40.404,23.368 40.32,23.332 C40.092,23.26 39.924,23.092 39.924,22.876 C39.924,22.828 39.936,22.78 39.948,22.732 C40.068,22.36 40.38,22.012 40.656,21.796 C41.076,21.472 41.616,21.268 42.588,21.268 C44.196,21.268 44.988,21.904 44.988,23.32 L44.988,26.596 C44.988,27.016 45.048,27.424 45.12,27.652 C45.132,27.688 45.144,27.736 45.144,27.772 C45.144,27.964 44.964,28.132 44.664,28.156 L44.556,28.156 C44.316,28.156 44.1,28.084 44.052,27.868 C44.016,27.724 43.992,27.508 43.98,27.268 C43.524,27.784 42.888,28.252 41.7,28.252 C40.38,28.252 39.576,27.508 39.576,26.272 C39.576,25.144 40.248,24.424 41.388,24.112 C42.048,23.932 42.672,23.86 43.956,23.836 Z M43.956,25.504 L43.956,24.7 C42.552,24.736 41.892,24.856 41.412,25.096 C40.932,25.336 40.68,25.708 40.68,26.284 C40.68,26.908 41.16,27.328 41.88,27.328 C42.636,27.328 43.26,26.956 43.644,26.476 C43.872,26.188 43.956,25.96 43.956,25.504 Z M49.356,25.168 L48.672,25.036 C47.196,24.748 46.584,24.232 46.584,23.092 C46.584,22 47.52,21.256 49.068,21.256 C50.4,21.256 51.252,21.82 51.552,22.696 C51.564,22.744 51.576,22.792 51.576,22.84 C51.576,23.068 51.372,23.224 51.156,23.284 C51.096,23.296 51.024,23.308 50.964,23.308 C50.748,23.308 50.532,23.212 50.472,22.984 C50.316,22.444 49.788,22.168 49.104,22.168 C48.132,22.168 47.676,22.564 47.676,23.068 C47.676,23.62 47.904,23.86 48.912,24.076 L49.656,24.232 C51.216,24.556 51.84,25.012 51.84,26.272 C51.84,27.424 50.856,28.276 49.176,28.276 C47.64,28.276 46.74,27.664 46.428,26.596 C46.416,26.536 46.404,26.488 46.404,26.44 C46.404,26.2 46.608,26.032 46.836,25.984 C46.896,25.972 46.956,25.96 47.004,25.96 C47.232,25.96 47.448,26.056 47.52,26.284 C47.736,26.98 48.228,27.328 49.176,27.328 C50.136,27.328 50.76,26.908 50.76,26.296 C50.76,25.708 50.448,25.384 49.356,25.168 Z M58.176,24.964 L53.952,24.964 C53.976,26.44 54.708,27.364 56.004,27.364 C56.868,27.364 57.348,26.932 57.636,26.296 C57.744,26.08 57.9,25.996 58.068,25.996 C58.152,25.996 58.236,26.02 58.32,26.044 C58.524,26.104 58.692,26.248 58.692,26.464 C58.692,26.536 58.68,26.608 58.632,26.68 C58.248,27.472 57.552,28.264 55.992,28.264 C54.024,28.264 52.884,26.872 52.884,24.796 C52.884,22.72 53.964,21.268 55.92,21.268 C57.672,21.268 58.656,22.636 58.776,24.208 L58.776,24.304 C58.776,24.736 58.548,24.964 58.176,24.964 Z M53.988,24.088 L57.504,24.088 C57.636,24.088 57.684,24.04 57.684,23.932 L57.684,23.872 C57.54,23.02 57.024,22.144 55.92,22.144 C54.768,22.144 54.144,22.912 53.988,24.088 Z M62.664,25.168 L61.98,25.036 C60.504,24.748 59.892,24.232 59.892,23.092 C59.892,22 60.828,21.256 62.376,21.256 C63.708,21.256 64.56,21.82 64.86,22.696 C64.872,22.744 64.884,22.792 64.884,22.84 C64.884,23.068 64.68,23.224 64.464,23.284 C64.404,23.296 64.332,23.308 64.272,23.308 C64.056,23.308 63.84,23.212 63.78,22.984 C63.624,22.444 63.096,22.168 62.412,22.168 C61.44,22.168 60.984,22.564 60.984,23.068 C60.984,23.62 61.212,23.86 62.22,24.076 L62.964,24.232 C64.524,24.556 65.148,25.012 65.148,26.272 C65.148,27.424 64.164,28.276 62.484,28.276 C60.948,28.276 60.048,27.664 59.736,26.596 C59.724,26.536 59.712,26.488 59.712,26.44 C59.712,26.2 59.916,26.032 60.144,25.984 C60.204,25.972 60.264,25.96 60.312,25.96 C60.54,25.96 60.756,26.056 60.828,26.284 C61.044,26.98 61.536,27.328 62.484,27.328 C63.444,27.328 64.068,26.908 64.068,26.296 C64.068,25.708 63.756,25.384 62.664,25.168 Z M11.022,36.436 L11.022,34.984 C11.022,34.672 11.226,34.504 11.562,34.504 C11.874,34.504 12.102,34.672 12.102,34.984 L12.102,36.436 L13.638,36.436 C13.938,36.436 14.082,36.628 14.082,36.916 C14.082,37.192 13.926,37.384 13.638,37.384 L12.102,37.384 L12.102,41.404 C12.102,41.992 12.354,42.244 12.798,42.244 C13.098,42.244 13.302,42.16 13.506,42.04 C13.578,42.004 13.65,41.98 13.722,41.98 C13.902,41.98 14.046,42.112 14.118,42.292 C14.154,42.376 14.166,42.472 14.166,42.556 C14.166,42.724 14.094,42.892 13.914,42.988 C13.566,43.156 13.242,43.252 12.726,43.252 C11.742,43.252 11.022,42.76 11.022,41.5 L11.022,37.384 L10.086,37.384 C9.798,37.384 9.666,37.192 9.666,36.916 C9.666,36.64 9.798,36.436 10.098,36.436 L11.022,36.436 Z M15.318,42.676 L15.318,36.832 C15.318,36.52 15.546,36.364 15.882,36.364 C16.182,36.364 16.422,36.52 16.422,36.832 L16.422,37.096 C16.422,37.264 16.374,37.468 16.35,37.66 C16.542,37.084 17.154,36.34 18.186,36.304 C18.282,36.292 18.366,36.292 18.45,36.292 C18.63,36.292 18.762,36.316 18.93,36.352 C19.206,36.388 19.314,36.556 19.314,36.784 C19.314,36.844 19.302,36.916 19.29,36.988 C19.242,37.24 19.074,37.456 18.822,37.456 C18.786,37.456 18.75,37.456 18.714,37.444 C18.546,37.408 18.39,37.372 18.138,37.372 C17.622,37.384 17.226,37.648 16.926,38.032 C16.614,38.416 16.434,38.86 16.422,39.364 L16.422,42.676 C16.422,43 16.182,43.156 15.882,43.156 C15.546,43.156 15.318,43 15.318,42.676 Z M24.39,38.836 L24.39,38.32 C24.39,37.528 23.958,37.18 23.01,37.18 C22.134,37.18 21.702,37.516 21.498,38.068 C21.414,38.296 21.234,38.38 21.03,38.38 C20.934,38.38 20.838,38.368 20.754,38.332 C20.526,38.26 20.358,38.092 20.358,37.876 C20.358,37.828 20.37,37.78 20.382,37.732 C20.502,37.36 20.814,37.012 21.09,36.796 C21.51,36.472 22.05,36.268 23.022,36.268 C24.63,36.268 25.422,36.904 25.422,38.32 L25.422,41.596 C25.422,42.016 25.482,42.424 25.554,42.652 C25.566,42.688 25.578,42.736 25.578,42.772 C25.578,42.964 25.398,43.132 25.098,43.156 L24.99,43.156 C24.75,43.156 24.534,43.084 24.486,42.868 C24.45,42.724 24.426,42.508 24.414,42.268 C23.958,42.784 23.322,43.252 22.134,43.252 C20.814,43.252 20.01,42.508 20.01,41.272 C20.01,40.144 20.682,39.424 21.822,39.112 C22.482,38.932 23.106,38.86 24.39,38.836 Z M24.39,40.504 L24.39,39.7 C22.986,39.736 22.326,39.856 21.846,40.096 C21.366,40.336 21.114,40.708 21.114,41.284 C21.114,41.908 21.594,42.328 22.314,42.328 C23.07,42.328 23.694,41.956 24.078,41.476 C24.306,41.188 24.39,40.96 24.39,40.504 Z M31.926,36.76 L31.926,34.144 C31.926,33.82 32.154,33.664 32.454,33.664 C32.79,33.664 32.994,33.82 32.994,34.144 L32.994,42.676 C32.994,43 32.778,43.156 32.442,43.156 C32.094,43.156 31.926,42.964 31.926,42.712 L31.926,42.46 C31.926,42.328 31.95,42.076 31.962,41.908 C31.554,42.748 30.87,43.264 29.754,43.264 C28.002,43.264 26.898,41.884 26.898,39.724 C26.898,37.624 27.99,36.268 29.766,36.268 C30.882,36.268 31.554,36.796 31.974,37.648 C31.95,37.372 31.926,37.024 31.926,36.76 Z M29.91,37.204 C28.698,37.204 28.002,38.212 28.002,39.736 C28.002,41.308 28.698,42.328 29.91,42.328 C31.17,42.328 31.95,41.236 31.95,39.748 C31.95,38.284 31.23,37.204 29.91,37.204 Z M34.71,42.676 L34.71,36.832 C34.71,36.52 34.914,36.364 35.25,36.364 C35.574,36.364 35.802,36.52 35.802,36.832 L35.802,42.676 C35.802,43 35.574,43.156 35.25,43.156 C34.914,43.156 34.71,43 34.71,42.676 Z M35.262,33.652 C35.706,33.652 36.066,34 36.066,34.456 C36.066,34.924 35.706,35.272 35.262,35.272 C34.806,35.272 34.446,34.924 34.446,34.456 C34.446,34 34.806,33.652 35.262,33.652 Z M37.206,39.784 C37.206,37.732 38.262,36.256 40.23,36.256 C41.814,36.256 42.462,37.132 42.762,37.888 C42.786,37.948 42.798,38.02 42.798,38.068 C42.798,38.296 42.618,38.44 42.438,38.512 C42.354,38.536 42.258,38.548 42.174,38.548 C41.994,38.548 41.838,38.476 41.754,38.272 C41.526,37.66 41.166,37.192 40.254,37.192 C39.006,37.192 38.322,38.248 38.322,39.772 C38.322,41.344 38.994,42.34 40.266,42.34 C41.202,42.34 41.574,41.884 41.802,41.236 C41.886,41.008 42.054,40.912 42.246,40.912 C42.33,40.912 42.414,40.924 42.498,40.96 C42.714,41.008 42.882,41.152 42.882,41.368 C42.882,41.44 42.87,41.5 42.834,41.584 C42.51,42.412 41.874,43.276 40.242,43.276 C38.298,43.276 37.206,41.848 37.206,39.784 Z M44.166,42.676 L44.166,36.832 C44.166,36.52 44.37,36.364 44.706,36.364 C45.03,36.364 45.258,36.52 45.258,36.832 L45.258,42.676 C45.258,43 45.03,43.156 44.706,43.156 C44.37,43.156 44.166,43 44.166,42.676 Z M44.718,33.652 C45.162,33.652 45.522,34 45.522,34.456 C45.522,34.924 45.162,35.272 44.718,35.272 C44.262,35.272 43.902,34.924 43.902,34.456 C43.902,34 44.262,33.652 44.718,33.652 Z M49.77,36.268 C51.69,36.268 52.818,37.66 52.818,39.748 C52.818,41.836 51.666,43.276 49.794,43.276 C47.814,43.276 46.662,41.884 46.662,39.748 C46.662,37.672 47.826,36.268 49.77,36.268 Z M49.806,37.192 C48.51,37.192 47.766,38.188 47.766,39.784 C47.766,41.308 48.486,42.352 49.722,42.352 C51.03,42.352 51.714,41.332 51.714,39.736 C51.714,38.224 51.03,37.192 49.806,37.192 Z M59.73,38.608 L59.73,42.676 C59.73,43 59.49,43.156 59.178,43.156 C58.854,43.156 58.626,43 58.626,42.676 L58.626,38.836 C58.626,37.816 58.218,37.24 57.318,37.24 C56.67,37.24 56.13,37.528 55.722,38.092 C55.422,38.5 55.302,38.848 55.302,39.316 L55.302,42.676 C55.302,43 55.074,43.156 54.762,43.156 C54.426,43.156 54.21,43 54.21,42.676 L54.21,36.832 C54.21,36.52 54.438,36.364 54.774,36.364 C55.086,36.364 55.302,36.52 55.302,36.832 L55.302,37.156 C55.302,37.312 55.266,37.432 55.254,37.66 C55.674,36.808 56.394,36.268 57.534,36.268 C58.962,36.268 59.73,37.132 59.73,38.608 Z M65.466,38.836 L65.466,38.32 C65.466,37.528 65.034,37.18 64.086,37.18 C63.21,37.18 62.778,37.516 62.574,38.068 C62.49,38.296 62.31,38.38 62.106,38.38 C62.01,38.38 61.914,38.368 61.83,38.332 C61.602,38.26 61.434,38.092 61.434,37.876 C61.434,37.828 61.446,37.78 61.458,37.732 C61.578,37.36 61.89,37.012 62.166,36.796 C62.586,36.472 63.126,36.268 64.098,36.268 C65.706,36.268 66.498,36.904 66.498,38.32 L66.498,41.596 C66.498,42.016 66.558,42.424 66.63,42.652 C66.642,42.688 66.654,42.736 66.654,42.772 C66.654,42.964 66.474,43.132 66.174,43.156 L66.066,43.156 C65.826,43.156 65.61,43.084 65.562,42.868 C65.526,42.724 65.502,42.508 65.49,42.268 C65.034,42.784 64.398,43.252 63.21,43.252 C61.89,43.252 61.086,42.508 61.086,41.272 C61.086,40.144 61.758,39.424 62.898,39.112 C63.558,38.932 64.182,38.86 65.466,38.836 Z M65.466,40.504 L65.466,39.7 C64.062,39.736 63.402,39.856 62.922,40.096 C62.442,40.336 62.19,40.708 62.19,41.284 C62.19,41.908 62.67,42.328 63.39,42.328 C64.146,42.328 64.77,41.956 65.154,41.476 C65.382,41.188 65.466,40.96 65.466,40.504 Z M68.274,42.676 L68.274,34.144 C68.274,33.82 68.49,33.664 68.826,33.664 C69.15,33.664 69.366,33.82 69.366,34.144 L69.366,42.676 C69.366,43 69.15,43.156 68.826,43.156 C68.49,43.156 68.274,43 68.274,42.676 Z M76.062,39.964 L71.838,39.964 C71.862,41.44 72.594,42.364 73.89,42.364 C74.754,42.364 75.234,41.932 75.522,41.296 C75.63,41.08 75.786,40.996 75.954,40.996 C76.038,40.996 76.122,41.02 76.206,41.044 C76.41,41.104 76.578,41.248 76.578,41.464 C76.578,41.536 76.566,41.608 76.518,41.68 C76.134,42.472 75.438,43.264 73.878,43.264 C71.91,43.264 70.77,41.872 70.77,39.796 C70.77,37.72 71.85,36.268 73.806,36.268 C75.558,36.268 76.542,37.636 76.662,39.208 L76.662,39.304 C76.662,39.736 76.434,39.964 76.062,39.964 Z M71.874,39.088 L75.39,39.088 C75.522,39.088 75.57,39.04 75.57,38.932 L75.57,38.872 C75.426,38.02 74.91,37.144 73.806,37.144 C72.654,37.144 72.03,37.912 71.874,39.088 Z M80.55,40.168 L79.866,40.036 C78.39,39.748 77.778,39.232 77.778,38.092 C77.778,37 78.714,36.256 80.262,36.256 C81.594,36.256 82.446,36.82 82.746,37.696 C82.758,37.744 82.77,37.792 82.77,37.84 C82.77,38.068 82.566,38.224 82.35,38.284 C82.29,38.296 82.218,38.308 82.158,38.308 C81.942,38.308 81.726,38.212 81.666,37.984 C81.51,37.444 80.982,37.168 80.298,37.168 C79.326,37.168 78.87,37.564 78.87,38.068 C78.87,38.62 79.098,38.86 80.106,39.076 L80.85,39.232 C82.41,39.556 83.034,40.012 83.034,41.272 C83.034,42.424 82.05,43.276 80.37,43.276 C78.834,43.276 77.934,42.664 77.622,41.596 C77.61,41.536 77.598,41.488 77.598,41.44 C77.598,41.2 77.802,41.032 78.03,40.984 C78.09,40.972 78.15,40.96 78.198,40.96 C78.426,40.96 78.642,41.056 78.714,41.284 C78.93,41.98 79.422,42.328 80.37,42.328 C81.33,42.328 81.954,41.908 81.954,41.296 C81.954,40.708 81.642,40.384 80.55,40.168 Z" id="Clases-tradicionales-Copy" fill="#2F6070"></path>
            </g>
            <g id="Typical-AL" transform="translate(148.000000, 110.000000)">
                <g id="Typical-Ellipse">
                    <use fill="black" fill-opacity="1" filter="url(#filter-5)" xlink:href="#path-4"></use>
                    <use fill="#E69877" fill-rule="evenodd" xlink:href="#path-4"></use>
                </g>
                <path d="M5.702,23.348 L4.778,25.82 C4.694,26.06 4.514,26.156 4.31,26.156 C4.226,26.156 4.154,26.144 4.07,26.12 C3.83,26.06 3.65,25.856 3.65,25.628 C3.65,25.556 3.662,25.496 3.686,25.424 L6.95,17.228 C7.106,16.82 7.406,16.664 7.778,16.664 C8.162,16.664 8.474,16.82 8.63,17.228 L11.894,25.448 C11.93,25.52 11.942,25.58 11.942,25.652 C11.942,25.892 11.75,26.072 11.51,26.132 C11.438,26.156 11.366,26.168 11.294,26.168 C11.078,26.168 10.886,26.06 10.802,25.832 L9.854,23.348 L5.702,23.348 Z M6.062,22.34 L9.494,22.34 L8.162,18.848 C8.03,18.5 7.898,18.116 7.79,17.708 C7.682,18.116 7.562,18.5 7.418,18.86 L6.062,22.34 Z M14.282,25.568 L14.282,28.208 C14.282,28.508 14.078,28.676 13.754,28.676 C13.418,28.676 13.214,28.508 13.214,28.208 L13.214,19.832 C13.214,19.52 13.418,19.364 13.754,19.364 C14.054,19.364 14.282,19.508 14.282,19.808 L14.282,20.024 C14.282,20.192 14.27,20.48 14.234,20.684 C14.654,19.832 15.314,19.268 16.478,19.268 C18.278,19.268 19.298,20.576 19.298,22.712 C19.298,24.848 18.218,26.264 16.43,26.264 C15.314,26.264 14.63,25.712 14.222,24.872 C14.27,25.1 14.282,25.352 14.282,25.568 Z M16.322,20.204 C15.002,20.204 14.258,21.272 14.258,22.748 C14.258,24.236 15.038,25.316 16.298,25.316 C17.51,25.316 18.194,24.284 18.194,22.736 C18.194,21.176 17.534,20.204 16.322,20.204 Z M20.87,25.676 L20.87,19.832 C20.87,19.52 21.098,19.364 21.434,19.364 C21.734,19.364 21.974,19.52 21.974,19.832 L21.974,20.096 C21.974,20.264 21.926,20.468 21.902,20.66 C22.094,20.084 22.706,19.34 23.738,19.304 C23.834,19.292 23.918,19.292 24.002,19.292 C24.182,19.292 24.314,19.316 24.482,19.352 C24.758,19.388 24.866,19.556 24.866,19.784 C24.866,19.844 24.854,19.916 24.842,19.988 C24.794,20.24 24.626,20.456 24.374,20.456 C24.338,20.456 24.302,20.456 24.266,20.444 C24.098,20.408 23.942,20.372 23.69,20.372 C23.174,20.384 22.778,20.648 22.478,21.032 C22.166,21.416 21.986,21.86 21.974,22.364 L21.974,25.676 C21.974,26 21.734,26.156 21.434,26.156 C21.098,26.156 20.87,26 20.87,25.676 Z M30.866,22.964 L26.642,22.964 C26.666,24.44 27.398,25.364 28.694,25.364 C29.558,25.364 30.038,24.932 30.326,24.296 C30.434,24.08 30.59,23.996 30.758,23.996 C30.842,23.996 30.926,24.02 31.01,24.044 C31.214,24.104 31.382,24.248 31.382,24.464 C31.382,24.536 31.37,24.608 31.322,24.68 C30.938,25.472 30.242,26.264 28.682,26.264 C26.714,26.264 25.574,24.872 25.574,22.796 C25.574,20.72 26.654,19.268 28.61,19.268 C30.362,19.268 31.346,20.636 31.466,22.208 L31.466,22.304 C31.466,22.736 31.238,22.964 30.866,22.964 Z M26.678,22.088 L30.194,22.088 C30.326,22.088 30.374,22.04 30.374,21.932 L30.374,21.872 C30.23,21.02 29.714,20.144 28.61,20.144 C27.458,20.144 26.834,20.912 26.678,22.088 Z M38.294,21.608 L38.294,25.676 C38.294,26 38.054,26.156 37.742,26.156 C37.418,26.156 37.19,26 37.19,25.676 L37.19,21.836 C37.19,20.816 36.782,20.24 35.882,20.24 C35.234,20.24 34.694,20.528 34.286,21.092 C33.986,21.5 33.866,21.848 33.866,22.316 L33.866,25.676 C33.866,26 33.638,26.156 33.326,26.156 C32.99,26.156 32.774,26 32.774,25.676 L32.774,19.832 C32.774,19.52 33.002,19.364 33.338,19.364 C33.65,19.364 33.866,19.52 33.866,19.832 L33.866,20.156 C33.866,20.312 33.83,20.432 33.818,20.66 C34.238,19.808 34.958,19.268 36.098,19.268 C37.526,19.268 38.294,20.132 38.294,21.608 Z M44.69,19.76 L44.69,17.144 C44.69,16.82 44.918,16.664 45.218,16.664 C45.554,16.664 45.758,16.82 45.758,17.144 L45.758,25.676 C45.758,26 45.542,26.156 45.206,26.156 C44.858,26.156 44.69,25.964 44.69,25.712 L44.69,25.46 C44.69,25.328 44.714,25.076 44.726,24.908 C44.318,25.748 43.634,26.264 42.518,26.264 C40.766,26.264 39.662,24.884 39.662,22.724 C39.662,20.624 40.754,19.268 42.53,19.268 C43.646,19.268 44.318,19.796 44.738,20.648 C44.714,20.372 44.69,20.024 44.69,19.76 Z M42.674,20.204 C41.462,20.204 40.766,21.212 40.766,22.736 C40.766,24.308 41.462,25.328 42.674,25.328 C43.934,25.328 44.714,24.236 44.714,22.748 C44.714,21.284 43.994,20.204 42.674,20.204 Z M47.474,25.676 L47.474,19.832 C47.474,19.52 47.678,19.364 48.014,19.364 C48.338,19.364 48.566,19.52 48.566,19.832 L48.566,25.676 C48.566,26 48.338,26.156 48.014,26.156 C47.678,26.156 47.474,26 47.474,25.676 Z M48.026,16.652 C48.47,16.652 48.83,17 48.83,17.456 C48.83,17.924 48.47,18.272 48.026,18.272 C47.57,18.272 47.21,17.924 47.21,17.456 C47.21,17 47.57,16.652 48.026,16.652 Z M54.794,26.084 L50.294,26.084 C49.982,26.084 49.814,25.856 49.814,25.556 C49.814,25.232 49.91,25.064 50.126,24.8 L52.946,21.332 C53.282,20.912 53.618,20.588 53.942,20.288 C53.522,20.348 53.102,20.396 52.634,20.396 L50.51,20.396 C50.222,20.396 50.066,20.204 50.066,19.928 C50.066,19.652 50.222,19.436 50.51,19.436 L54.59,19.436 C54.89,19.436 55.046,19.664 55.046,19.964 C55.046,20.288 54.938,20.456 54.734,20.708 L51.89,24.212 C51.59,24.596 51.254,24.92 50.882,25.244 C51.278,25.172 51.662,25.112 52.07,25.112 L54.794,25.112 C55.094,25.112 55.226,25.304 55.226,25.58 C55.226,25.856 55.07,26.084 54.794,26.084 Z M60.53,21.836 L60.53,21.32 C60.53,20.528 60.098,20.18 59.15,20.18 C58.274,20.18 57.842,20.516 57.638,21.068 C57.554,21.296 57.374,21.38 57.17,21.38 C57.074,21.38 56.978,21.368 56.894,21.332 C56.666,21.26 56.498,21.092 56.498,20.876 C56.498,20.828 56.51,20.78 56.522,20.732 C56.642,20.36 56.954,20.012 57.23,19.796 C57.65,19.472 58.19,19.268 59.162,19.268 C60.77,19.268 61.562,19.904 61.562,21.32 L61.562,24.596 C61.562,25.016 61.622,25.424 61.694,25.652 C61.706,25.688 61.718,25.736 61.718,25.772 C61.718,25.964 61.538,26.132 61.238,26.156 L61.13,26.156 C60.89,26.156 60.674,26.084 60.626,25.868 C60.59,25.724 60.566,25.508 60.554,25.268 C60.098,25.784 59.462,26.252 58.274,26.252 C56.954,26.252 56.15,25.508 56.15,24.272 C56.15,23.144 56.822,22.424 57.962,22.112 C58.622,21.932 59.246,21.86 60.53,21.836 Z M60.53,23.504 L60.53,22.7 C59.126,22.736 58.466,22.856 57.986,23.096 C57.506,23.336 57.254,23.708 57.254,24.284 C57.254,24.908 57.734,25.328 58.454,25.328 C59.21,25.328 59.834,24.956 60.218,24.476 C60.446,24.188 60.53,23.96 60.53,23.504 Z M64.91,19.832 L64.91,26.792 C64.91,28.1 64.166,28.784 63.026,28.784 C62.57,28.784 62.198,28.712 61.922,28.592 C61.73,28.508 61.658,28.352 61.658,28.184 C61.658,28.088 61.682,27.98 61.73,27.884 C61.814,27.716 61.958,27.584 62.162,27.584 C62.222,27.584 62.294,27.596 62.378,27.632 C62.558,27.704 62.738,27.776 62.966,27.776 C63.554,27.776 63.818,27.368 63.818,26.624 L63.818,19.832 C63.818,19.52 64.046,19.364 64.37,19.364 C64.694,19.364 64.91,19.52 64.91,19.832 Z M64.346,16.652 C64.79,16.652 65.15,17 65.15,17.456 C65.15,17.924 64.79,18.272 64.346,18.272 C63.89,18.272 63.53,17.924 63.53,17.456 C63.53,17 63.89,16.652 64.346,16.652 Z M71.702,22.964 L67.478,22.964 C67.502,24.44 68.234,25.364 69.53,25.364 C70.394,25.364 70.874,24.932 71.162,24.296 C71.27,24.08 71.426,23.996 71.594,23.996 C71.678,23.996 71.762,24.02 71.846,24.044 C72.05,24.104 72.218,24.248 72.218,24.464 C72.218,24.536 72.206,24.608 72.158,24.68 C71.774,25.472 71.078,26.264 69.518,26.264 C67.55,26.264 66.41,24.872 66.41,22.796 C66.41,20.72 67.49,19.268 69.446,19.268 C71.198,19.268 72.182,20.636 72.302,22.208 L72.302,22.304 C72.302,22.736 72.074,22.964 71.702,22.964 Z M67.514,22.088 L71.03,22.088 C71.162,22.088 71.21,22.04 71.21,21.932 L71.21,21.872 C71.066,21.02 70.55,20.144 69.446,20.144 C68.294,20.144 67.67,20.912 67.514,22.088 Z M25.406,36.836 L25.406,36.32 C25.406,35.528 24.974,35.18 24.026,35.18 C23.15,35.18 22.718,35.516 22.514,36.068 C22.43,36.296 22.25,36.38 22.046,36.38 C21.95,36.38 21.854,36.368 21.77,36.332 C21.542,36.26 21.374,36.092 21.374,35.876 C21.374,35.828 21.386,35.78 21.398,35.732 C21.518,35.36 21.83,35.012 22.106,34.796 C22.526,34.472 23.066,34.268 24.038,34.268 C25.646,34.268 26.438,34.904 26.438,36.32 L26.438,39.596 C26.438,40.016 26.498,40.424 26.57,40.652 C26.582,40.688 26.594,40.736 26.594,40.772 C26.594,40.964 26.414,41.132 26.114,41.156 L26.006,41.156 C25.766,41.156 25.55,41.084 25.502,40.868 C25.466,40.724 25.442,40.508 25.43,40.268 C24.974,40.784 24.338,41.252 23.15,41.252 C21.83,41.252 21.026,40.508 21.026,39.272 C21.026,38.144 21.698,37.424 22.838,37.112 C23.498,36.932 24.122,36.86 25.406,36.836 Z M25.406,38.504 L25.406,37.7 C24.002,37.736 23.342,37.856 22.862,38.096 C22.382,38.336 22.13,38.708 22.13,39.284 C22.13,39.908 22.61,40.328 23.33,40.328 C24.086,40.328 24.71,39.956 25.094,39.476 C25.322,39.188 25.406,38.96 25.406,38.504 Z M27.914,37.784 C27.914,35.732 28.97,34.256 30.938,34.256 C32.522,34.256 33.17,35.132 33.47,35.888 C33.494,35.948 33.506,36.02 33.506,36.068 C33.506,36.296 33.326,36.44 33.146,36.512 C33.062,36.536 32.966,36.548 32.882,36.548 C32.702,36.548 32.546,36.476 32.462,36.272 C32.234,35.66 31.874,35.192 30.962,35.192 C29.714,35.192 29.03,36.248 29.03,37.772 C29.03,39.344 29.702,40.34 30.974,40.34 C31.91,40.34 32.282,39.884 32.51,39.236 C32.594,39.008 32.762,38.912 32.954,38.912 C33.038,38.912 33.122,38.924 33.206,38.96 C33.422,39.008 33.59,39.152 33.59,39.368 C33.59,39.44 33.578,39.5 33.542,39.584 C33.218,40.412 32.582,41.276 30.95,41.276 C29.006,41.276 27.914,39.848 27.914,37.784 Z M35.582,34.436 L35.582,32.984 C35.582,32.672 35.786,32.504 36.122,32.504 C36.434,32.504 36.662,32.672 36.662,32.984 L36.662,34.436 L38.198,34.436 C38.498,34.436 38.642,34.628 38.642,34.916 C38.642,35.192 38.486,35.384 38.198,35.384 L36.662,35.384 L36.662,39.404 C36.662,39.992 36.914,40.244 37.358,40.244 C37.658,40.244 37.862,40.16 38.066,40.04 C38.138,40.004 38.21,39.98 38.282,39.98 C38.462,39.98 38.606,40.112 38.678,40.292 C38.714,40.376 38.726,40.472 38.726,40.556 C38.726,40.724 38.654,40.892 38.474,40.988 C38.126,41.156 37.802,41.252 37.286,41.252 C36.302,41.252 35.582,40.76 35.582,39.5 L35.582,35.384 L34.646,35.384 C34.358,35.384 34.226,35.192 34.226,34.916 C34.226,34.64 34.358,34.436 34.658,34.436 L35.582,34.436 Z M39.71,40.676 L39.71,34.832 C39.71,34.52 39.914,34.364 40.25,34.364 C40.574,34.364 40.802,34.52 40.802,34.832 L40.802,40.676 C40.802,41 40.574,41.156 40.25,41.156 C39.914,41.156 39.71,41 39.71,40.676 Z M40.262,31.652 C40.706,31.652 41.066,32 41.066,32.456 C41.066,32.924 40.706,33.272 40.262,33.272 C39.806,33.272 39.446,32.924 39.446,32.456 C39.446,32 39.806,31.652 40.262,31.652 Z M45.47,38.42 L46.838,34.712 C46.934,34.472 47.102,34.364 47.318,34.364 C47.39,34.364 47.462,34.376 47.546,34.4 C47.786,34.472 47.942,34.628 47.942,34.856 C47.942,34.916 47.93,34.988 47.894,35.06 L45.686,40.676 C45.542,41.048 45.278,41.156 44.966,41.156 C44.642,41.156 44.39,41.036 44.246,40.664 L42.038,35.06 C42.014,34.988 42.002,34.928 42.002,34.868 C42.002,34.64 42.158,34.46 42.386,34.4 C42.47,34.376 42.554,34.364 42.626,34.364 C42.842,34.364 43.022,34.46 43.106,34.7 L44.498,38.48 C44.642,38.888 44.882,39.692 44.978,40.124 C45.086,39.68 45.314,38.828 45.47,38.42 Z M51.914,34.268 C53.834,34.268 54.962,35.66 54.962,37.748 C54.962,39.836 53.81,41.276 51.938,41.276 C49.958,41.276 48.806,39.884 48.806,37.748 C48.806,35.672 49.97,34.268 51.914,34.268 Z M51.95,35.192 C50.654,35.192 49.91,36.188 49.91,37.784 C49.91,39.308 50.63,40.352 51.866,40.352 C53.174,40.352 53.858,39.332 53.858,37.736 C53.858,36.224 53.174,35.192 51.95,35.192 Z M23.648,49.436 L23.648,47.984 C23.648,47.672 23.852,47.504 24.188,47.504 C24.5,47.504 24.728,47.672 24.728,47.984 L24.728,49.436 L26.264,49.436 C26.564,49.436 26.708,49.628 26.708,49.916 C26.708,50.192 26.552,50.384 26.264,50.384 L24.728,50.384 L24.728,54.404 C24.728,54.992 24.98,55.244 25.424,55.244 C25.724,55.244 25.928,55.16 26.132,55.04 C26.204,55.004 26.276,54.98 26.348,54.98 C26.528,54.98 26.672,55.112 26.744,55.292 C26.78,55.376 26.792,55.472 26.792,55.556 C26.792,55.724 26.72,55.892 26.54,55.988 C26.192,56.156 25.868,56.252 25.352,56.252 C24.368,56.252 23.648,55.76 23.648,54.5 L23.648,50.384 L22.712,50.384 C22.424,50.384 22.292,50.192 22.292,49.916 C22.292,49.64 22.424,49.436 22.724,49.436 L23.648,49.436 Z M27.464,48.2 L28.796,46.736 C28.88,46.652 28.988,46.616 29.096,46.616 C29.252,46.616 29.408,46.676 29.516,46.796 C29.636,46.916 29.708,47.06 29.708,47.204 C29.708,47.336 29.648,47.444 29.528,47.528 L27.896,48.656 C27.836,48.704 27.752,48.728 27.68,48.728 C27.596,48.728 27.512,48.692 27.44,48.62 C27.392,48.56 27.368,48.5 27.368,48.44 C27.368,48.356 27.404,48.272 27.464,48.2 Z M27.776,55.676 L27.776,49.832 C27.776,49.52 27.98,49.364 28.316,49.364 C28.64,49.364 28.868,49.52 28.868,49.832 L28.868,55.676 C28.868,56 28.64,56.156 28.316,56.156 C27.98,56.156 27.776,56 27.776,55.676 Z M31.652,55.568 L31.652,58.208 C31.652,58.508 31.448,58.676 31.124,58.676 C30.788,58.676 30.584,58.508 30.584,58.208 L30.584,49.832 C30.584,49.52 30.788,49.364 31.124,49.364 C31.424,49.364 31.652,49.508 31.652,49.808 L31.652,50.024 C31.652,50.192 31.64,50.48 31.604,50.684 C32.024,49.832 32.684,49.268 33.848,49.268 C35.648,49.268 36.668,50.576 36.668,52.712 C36.668,54.848 35.588,56.264 33.8,56.264 C32.684,56.264 32,55.712 31.592,54.872 C31.64,55.1 31.652,55.352 31.652,55.568 Z M33.692,50.204 C32.372,50.204 31.628,51.272 31.628,52.748 C31.628,54.236 32.408,55.316 33.668,55.316 C34.88,55.316 35.564,54.284 35.564,52.736 C35.564,51.176 34.904,50.204 33.692,50.204 Z M38.072,55.676 L38.072,49.832 C38.072,49.52 38.276,49.364 38.612,49.364 C38.936,49.364 39.164,49.52 39.164,49.832 L39.164,55.676 C39.164,56 38.936,56.156 38.612,56.156 C38.276,56.156 38.072,56 38.072,55.676 Z M38.624,46.652 C39.068,46.652 39.428,47 39.428,47.456 C39.428,47.924 39.068,48.272 38.624,48.272 C38.168,48.272 37.808,47.924 37.808,47.456 C37.808,47 38.168,46.652 38.624,46.652 Z M40.568,52.784 C40.568,50.732 41.624,49.256 43.592,49.256 C45.176,49.256 45.824,50.132 46.124,50.888 C46.148,50.948 46.16,51.02 46.16,51.068 C46.16,51.296 45.98,51.44 45.8,51.512 C45.716,51.536 45.62,51.548 45.536,51.548 C45.356,51.548 45.2,51.476 45.116,51.272 C44.888,50.66 44.528,50.192 43.616,50.192 C42.368,50.192 41.684,51.248 41.684,52.772 C41.684,54.344 42.356,55.34 43.628,55.34 C44.564,55.34 44.936,54.884 45.164,54.236 C45.248,54.008 45.416,53.912 45.608,53.912 C45.692,53.912 45.776,53.924 45.86,53.96 C46.076,54.008 46.244,54.152 46.244,54.368 C46.244,54.44 46.232,54.5 46.196,54.584 C45.872,55.412 45.236,56.276 43.604,56.276 C41.66,56.276 40.568,54.848 40.568,52.784 Z M50.324,49.268 C52.244,49.268 53.372,50.66 53.372,52.748 C53.372,54.836 52.22,56.276 50.348,56.276 C48.368,56.276 47.216,54.884 47.216,52.748 C47.216,50.672 48.38,49.268 50.324,49.268 Z M50.36,50.192 C49.064,50.192 48.32,51.188 48.32,52.784 C48.32,54.308 49.04,55.352 50.276,55.352 C51.584,55.352 52.268,54.332 52.268,52.736 C52.268,51.224 51.584,50.192 50.36,50.192 Z" id="Aprendizaje-activo-t-Copy" fill="#2F6070"></path>
            </g>
            <g id="CH" transform="translate(204.000000, 20.000000)">
                <g id="CH-Ellipse">
                    <use fill="black" fill-opacity="1" filter="url(#filter-7)" xlink:href="#path-6"></use>
                    <use fill="#CB4343" fill-rule="evenodd" xlink:href="#path-6"></use>
                </g>
                <text id="ChallengeHub" font-family="HiraMaruProN-W4, Hiragino Maru Gothic ProN" font-size="12" font-weight="normal" fill="#FFFFFF">
                    <tspan x="9.928" y="54">ChallengeHub</tspan>
                </text>
            </g>
        </g>
    </g>
</svg>