<?xml version="1.0" encoding="UTF-8"?>
<svg width="334px" height="263px" viewBox="0 0 334 263" version="1.1" xmlns="http://www.w3.org/2000/svg" xmlns:xlink="http://www.w3.org/1999/xlink">
    <!-- Generator: Sketch 48.2 (47327) - http://www.bohemiancoding.com/sketch -->
    <title>effort-efficiency</title>
    <desc>Created with Sketch.</desc>
    <defs>
        <linearGradient x1="50%" y1="1.2236926%" x2="50%" y2="100%" id="linearGradient-1">
            <stop stop-color="#76C9AC" offset="0%"></stop>
            <stop stop-color="#D2EADC" offset="100%"></stop>
        </linearGradient>
        <path d="M0.73132,32.3384 C0.73132,14.630667 21.09103,0.275717 46.20605,0.275717 C71.32107,0.275717 91.68078,14.630667 91.68078,32.3384 C91.68078,50.046133 71.32107,64.401083 46.20605,64.401083 C21.09103,64.401083 0.73132,50.046133 0.73132,32.3384 Z" id="path-2"></path>
        <filter x="-7.7%" y="-7.8%" width="115.4%" height="121.8%" filterUnits="objectBoundingBox" id="filter-3">
            <feOffset dx="0" dy="2" in="SourceAlpha" result="shadowOffsetOuter1"></feOffset>
            <feGaussianBlur stdDeviation="2" in="shadowOffsetOuter1" result="shadowBlurOuter1"></feGaussianBlur>
            <feColorMatrix values="0 0 0 0 0.184313725   0 0 0 0 0.376470588   0 0 0 0 0.439215686  0 0 0 1 0" type="matrix" in="shadowBlurOuter1"></feColorMatrix>
        </filter>
        <path d="M0.0027,32.26157 C0.0027,14.553837 16.969192,0.198887 37.89833,0.198887 C58.82753,0.198887 75.79396,14.553837 75.79396,32.26157 C75.79396,49.969303 58.82753,64.324253 37.89833,64.324253 C16.969192,64.324253 0.0027,49.969303 0.0027,32.26157 Z" id="path-4"></path>
        <filter x="-9.2%" y="-7.8%" width="118.5%" height="121.8%" filterUnits="objectBoundingBox" id="filter-5">
            <feOffset dx="0" dy="2" in="SourceAlpha" result="shadowOffsetOuter1"></feOffset>
            <feGaussianBlur stdDeviation="2" in="shadowOffsetOuter1" result="shadowBlurOuter1"></feGaussianBlur>
            <feColorMatrix values="0 0 0 0 0.184313725   0 0 0 0 0.376470588   0 0 0 0 0.439215686  0 0 0 1 0" type="matrix" in="shadowBlurOuter1"></feColorMatrix>
        </filter>
        <path d="M0.0027,47.8966 C0.0027,21.67782 22.62886,0.423303 50.539626,0.423303 C63.942885,0.423303 76.797133,5.424951 86.274672,14.327905 C95.75215,23.23089 101.076552,35.305902 101.076552,47.8966 C101.076552,74.11538 78.450392,95.369897 50.539626,95.369897 C22.628859,95.369897 0.0027,74.11538 0.0027,47.8966 Z" id="path-6"></path>
        <filter x="-6.9%" y="-5.3%" width="113.9%" height="114.7%" filterUnits="objectBoundingBox" id="filter-7">
            <feOffset dx="0" dy="2" in="SourceAlpha" result="shadowOffsetOuter1"></feOffset>
            <feGaussianBlur stdDeviation="2" in="shadowOffsetOuter1" result="shadowBlurOuter1"></feGaussianBlur>
            <feColorMatrix values="0 0 0 0 0.184313725   0 0 0 0 0.376470588   0 0 0 0 0.439215686  0 0 0 1 0" type="matrix" in="shadowBlurOuter1"></feColorMatrix>
        </filter>
    </defs>
    <g id="Page-1" stroke="none" stroke-width="1" fill="none" fill-rule="evenodd">
        <g id="es" transform="translate(-3.000000, -3.000000)">
            <g id="Axis">
                <polygon id="Background" fill="url(#linearGradient-1)" points="4.32079797e-14 0 339 0 339 270 0 270"></polygon>
                <path d="M29.23666,16.5 L29.23666,240.45009" id="y-Axis" stroke="#2F6070" stroke-linejoin="round"></path>
                <path d="M29,240 L323.5,240" id="x-Axis" stroke="#2F6070" stroke-linejoin="round"></path>
                <path d="M111.632,250.704 L111.632,253.656 C111.632,253.932 111.812,254.04 112.076,254.04 L116.372,254.04 C116.684,254.04 116.852,254.256 116.852,254.556 C116.852,254.844 116.684,255.084 116.372,255.084 L111.728,255.084 C110.876,255.084 110.504,254.712 110.504,253.8 L110.504,247.032 C110.504,246.108 110.876,245.736 111.728,245.736 L116.264,245.736 C116.576,245.736 116.744,245.952 116.744,246.252 C116.744,246.552 116.576,246.78 116.264,246.78 L112.04,246.78 C111.752,246.78 111.632,246.912 111.632,247.2 L111.632,249.684 L115.724,249.684 C116.024,249.684 116.192,249.9 116.192,250.2 C116.192,250.476 116.012,250.704 115.724,250.704 L111.632,250.704 Z M118.892,248.436 L118.892,247.572 C118.892,246.024 119.84,245.604 120.752,245.604 C121.148,245.604 121.448,245.628 121.784,245.736 C122.012,245.808 122.108,245.988 122.108,246.168 C122.108,246.252 122.096,246.324 122.06,246.396 C121.988,246.6 121.82,246.756 121.604,246.756 C121.544,246.756 121.484,246.744 121.412,246.72 C121.208,246.636 121.004,246.6 120.752,246.6 C120.308,246.6 119.972,246.84 119.972,247.704 L119.972,248.436 L121.412,248.436 C121.712,248.436 121.856,248.64 121.856,248.928 C121.856,249.204 121.7,249.384 121.412,249.384 L119.972,249.384 L119.972,254.676 C119.972,255 119.744,255.156 119.432,255.156 C119.108,255.156 118.892,255 118.892,254.676 L118.892,249.384 L117.872,249.384 C117.584,249.384 117.44,249.204 117.44,248.928 C117.44,248.652 117.572,248.436 117.872,248.436 L118.892,248.436 Z M127.868,251.964 L123.644,251.964 C123.668,253.44 124.4,254.364 125.696,254.364 C126.56,254.364 127.04,253.932 127.328,253.296 C127.436,253.08 127.592,252.996 127.76,252.996 C127.844,252.996 127.928,253.02 128.012,253.044 C128.216,253.104 128.384,253.248 128.384,253.464 C128.384,253.536 128.372,253.608 128.324,253.68 C127.94,254.472 127.244,255.264 125.684,255.264 C123.716,255.264 122.576,253.872 122.576,251.796 C122.576,249.72 123.656,248.268 125.612,248.268 C127.364,248.268 128.348,249.636 128.468,251.208 L128.468,251.304 C128.468,251.736 128.24,251.964 127.868,251.964 Z M123.68,251.088 L127.196,251.088 C127.328,251.088 127.376,251.04 127.376,250.932 L127.376,250.872 C127.232,250.02 126.716,249.144 125.612,249.144 C124.46,249.144 123.836,249.912 123.68,251.088 Z M129.464,251.784 C129.464,249.732 130.52,248.256 132.488,248.256 C134.072,248.256 134.72,249.132 135.02,249.888 C135.044,249.948 135.056,250.02 135.056,250.068 C135.056,250.296 134.876,250.44 134.696,250.512 C134.612,250.536 134.516,250.548 134.432,250.548 C134.252,250.548 134.096,250.476 134.012,250.272 C133.784,249.66 133.424,249.192 132.512,249.192 C131.264,249.192 130.58,250.248 130.58,251.772 C130.58,253.344 131.252,254.34 132.524,254.34 C133.46,254.34 133.832,253.884 134.06,253.236 C134.144,253.008 134.312,252.912 134.504,252.912 C134.588,252.912 134.672,252.924 134.756,252.96 C134.972,253.008 135.14,253.152 135.14,253.368 C135.14,253.44 135.128,253.5 135.092,253.584 C134.768,254.412 134.132,255.276 132.5,255.276 C130.556,255.276 129.464,253.848 129.464,251.784 Z M137.132,248.436 L137.132,246.984 C137.132,246.672 137.336,246.504 137.672,246.504 C137.984,246.504 138.212,246.672 138.212,246.984 L138.212,248.436 L139.748,248.436 C140.048,248.436 140.192,248.628 140.192,248.916 C140.192,249.192 140.036,249.384 139.748,249.384 L138.212,249.384 L138.212,253.404 C138.212,253.992 138.464,254.244 138.908,254.244 C139.208,254.244 139.412,254.16 139.616,254.04 C139.688,254.004 139.76,253.98 139.832,253.98 C140.012,253.98 140.156,254.112 140.228,254.292 C140.264,254.376 140.276,254.472 140.276,254.556 C140.276,254.724 140.204,254.892 140.024,254.988 C139.676,255.156 139.352,255.252 138.836,255.252 C137.852,255.252 137.132,254.76 137.132,253.5 L137.132,249.384 L136.196,249.384 C135.908,249.384 135.776,249.192 135.776,248.916 C135.776,248.64 135.908,248.436 136.208,248.436 L137.132,248.436 Z M141.26,254.676 L141.26,248.832 C141.26,248.52 141.464,248.364 141.8,248.364 C142.124,248.364 142.352,248.52 142.352,248.832 L142.352,254.676 C142.352,255 142.124,255.156 141.8,255.156 C141.464,255.156 141.26,255 141.26,254.676 Z M141.812,245.652 C142.256,245.652 142.616,246 142.616,246.456 C142.616,246.924 142.256,247.272 141.812,247.272 C141.356,247.272 140.996,246.924 140.996,246.456 C140.996,246 141.356,245.652 141.812,245.652 Z M147.02,252.42 L148.388,248.712 C148.484,248.472 148.652,248.364 148.868,248.364 C148.94,248.364 149.012,248.376 149.096,248.4 C149.336,248.472 149.492,248.628 149.492,248.856 C149.492,248.916 149.48,248.988 149.444,249.06 L147.236,254.676 C147.092,255.048 146.828,255.156 146.516,255.156 C146.192,255.156 145.94,255.036 145.796,254.664 L143.588,249.06 C143.564,248.988 143.552,248.928 143.552,248.868 C143.552,248.64 143.708,248.46 143.936,248.4 C144.02,248.376 144.104,248.364 144.176,248.364 C144.392,248.364 144.572,248.46 144.656,248.7 L146.048,252.48 C146.192,252.888 146.432,253.692 146.528,254.124 C146.636,253.68 146.864,252.828 147.02,252.42 Z M150.668,254.676 L150.668,248.832 C150.668,248.52 150.872,248.364 151.208,248.364 C151.532,248.364 151.76,248.52 151.76,248.832 L151.76,254.676 C151.76,255 151.532,255.156 151.208,255.156 C150.872,255.156 150.668,255 150.668,254.676 Z M151.22,245.652 C151.664,245.652 152.024,246 152.024,246.456 C152.024,246.924 151.664,247.272 151.22,247.272 C150.764,247.272 150.404,246.924 150.404,246.456 C150.404,246 150.764,245.652 151.22,245.652 Z M158.192,248.76 L158.192,246.144 C158.192,245.82 158.42,245.664 158.72,245.664 C159.056,245.664 159.26,245.82 159.26,246.144 L159.26,254.676 C159.26,255 159.044,255.156 158.708,255.156 C158.36,255.156 158.192,254.964 158.192,254.712 L158.192,254.46 C158.192,254.328 158.216,254.076 158.228,253.908 C157.82,254.748 157.136,255.264 156.02,255.264 C154.268,255.264 153.164,253.884 153.164,251.724 C153.164,249.624 154.256,248.268 156.032,248.268 C157.148,248.268 157.82,248.796 158.24,249.648 C158.216,249.372 158.192,249.024 158.192,248.76 Z M156.176,249.204 C154.964,249.204 154.268,250.212 154.268,251.736 C154.268,253.308 154.964,254.328 156.176,254.328 C157.436,254.328 158.216,253.236 158.216,251.748 C158.216,250.284 157.496,249.204 156.176,249.204 Z M165.032,250.836 L165.032,250.32 C165.032,249.528 164.6,249.18 163.652,249.18 C162.776,249.18 162.344,249.516 162.14,250.068 C162.056,250.296 161.876,250.38 161.672,250.38 C161.576,250.38 161.48,250.368 161.396,250.332 C161.168,250.26 161,250.092 161,249.876 C161,249.828 161.012,249.78 161.024,249.732 C161.144,249.36 161.456,249.012 161.732,248.796 C162.152,248.472 162.692,248.268 163.664,248.268 C165.272,248.268 166.064,248.904 166.064,250.32 L166.064,253.596 C166.064,254.016 166.124,254.424 166.196,254.652 C166.208,254.688 166.22,254.736 166.22,254.772 C166.22,254.964 166.04,255.132 165.74,255.156 L165.632,255.156 C165.392,255.156 165.176,255.084 165.128,254.868 C165.092,254.724 165.068,254.508 165.056,254.268 C164.6,254.784 163.964,255.252 162.776,255.252 C161.456,255.252 160.652,254.508 160.652,253.272 C160.652,252.144 161.324,251.424 162.464,251.112 C163.124,250.932 163.748,250.86 165.032,250.836 Z M165.032,252.504 L165.032,251.7 C163.628,251.736 162.968,251.856 162.488,252.096 C162.008,252.336 161.756,252.708 161.756,253.284 C161.756,253.908 162.236,254.328 162.956,254.328 C163.712,254.328 164.336,253.956 164.72,253.476 C164.948,253.188 165.032,252.96 165.032,252.504 Z M172.568,248.76 L172.568,246.144 C172.568,245.82 172.796,245.664 173.096,245.664 C173.432,245.664 173.636,245.82 173.636,246.144 L173.636,254.676 C173.636,255 173.42,255.156 173.084,255.156 C172.736,255.156 172.568,254.964 172.568,254.712 L172.568,254.46 C172.568,254.328 172.592,254.076 172.604,253.908 C172.196,254.748 171.512,255.264 170.396,255.264 C168.644,255.264 167.54,253.884 167.54,251.724 C167.54,249.624 168.632,248.268 170.408,248.268 C171.524,248.268 172.196,248.796 172.616,249.648 C172.592,249.372 172.568,249.024 172.568,248.76 Z M170.552,249.204 C169.34,249.204 168.644,250.212 168.644,251.736 C168.644,253.308 169.34,254.328 170.552,254.328 C171.812,254.328 172.592,253.236 172.592,251.748 C172.592,250.284 171.872,249.204 170.552,249.204 Z M184.064,248.76 L184.064,246.144 C184.064,245.82 184.292,245.664 184.592,245.664 C184.928,245.664 185.132,245.82 185.132,246.144 L185.132,254.676 C185.132,255 184.916,255.156 184.58,255.156 C184.232,255.156 184.064,254.964 184.064,254.712 L184.064,254.46 C184.064,254.328 184.088,254.076 184.1,253.908 C183.692,254.748 183.008,255.264 181.892,255.264 C180.14,255.264 179.036,253.884 179.036,251.724 C179.036,249.624 180.128,248.268 181.904,248.268 C183.02,248.268 183.692,248.796 184.112,249.648 C184.088,249.372 184.064,249.024 184.064,248.76 Z M182.048,249.204 C180.836,249.204 180.14,250.212 180.14,251.736 C180.14,253.308 180.836,254.328 182.048,254.328 C183.308,254.328 184.088,253.236 184.088,251.748 C184.088,250.284 183.368,249.204 182.048,249.204 Z M191.828,251.964 L187.604,251.964 C187.628,253.44 188.36,254.364 189.656,254.364 C190.52,254.364 191,253.932 191.288,253.296 C191.396,253.08 191.552,252.996 191.72,252.996 C191.804,252.996 191.888,253.02 191.972,253.044 C192.176,253.104 192.344,253.248 192.344,253.464 C192.344,253.536 192.332,253.608 192.284,253.68 C191.9,254.472 191.204,255.264 189.644,255.264 C187.676,255.264 186.536,253.872 186.536,251.796 C186.536,249.72 187.616,248.268 189.572,248.268 C191.324,248.268 192.308,249.636 192.428,251.208 L192.428,251.304 C192.428,251.736 192.2,251.964 191.828,251.964 Z M187.64,251.088 L191.156,251.088 C191.288,251.088 191.336,251.04 191.336,250.932 L191.336,250.872 C191.192,250.02 190.676,249.144 189.572,249.144 C188.42,249.144 187.796,249.912 187.64,251.088 Z M193.724,254.676 L193.724,246.144 C193.724,245.82 193.94,245.664 194.276,245.664 C194.6,245.664 194.816,245.82 194.816,246.144 L194.816,254.676 C194.816,255 194.6,255.156 194.276,255.156 C193.94,255.156 193.724,255 193.724,254.676 Z M205.508,251.964 L201.284,251.964 C201.308,253.44 202.04,254.364 203.336,254.364 C204.2,254.364 204.68,253.932 204.968,253.296 C205.076,253.08 205.232,252.996 205.4,252.996 C205.484,252.996 205.568,253.02 205.652,253.044 C205.856,253.104 206.024,253.248 206.024,253.464 C206.024,253.536 206.012,253.608 205.964,253.68 C205.58,254.472 204.884,255.264 203.324,255.264 C201.356,255.264 200.216,253.872 200.216,251.796 C200.216,249.72 201.296,248.268 203.252,248.268 C205.004,248.268 205.988,249.636 206.108,251.208 L206.108,251.304 C206.108,251.736 205.88,251.964 205.508,251.964 Z M201.32,251.088 L204.836,251.088 C204.968,251.088 205.016,251.04 205.016,250.932 L205.016,250.872 C204.872,250.02 204.356,249.144 203.252,249.144 C202.1,249.144 201.476,249.912 201.32,251.088 Z M209.996,252.168 L209.312,252.036 C207.836,251.748 207.224,251.232 207.224,250.092 C207.224,249 208.16,248.256 209.708,248.256 C211.04,248.256 211.892,248.82 212.192,249.696 C212.204,249.744 212.216,249.792 212.216,249.84 C212.216,250.068 212.012,250.224 211.796,250.284 C211.736,250.296 211.664,250.308 211.604,250.308 C211.388,250.308 211.172,250.212 211.112,249.984 C210.956,249.444 210.428,249.168 209.744,249.168 C208.772,249.168 208.316,249.564 208.316,250.068 C208.316,250.62 208.544,250.86 209.552,251.076 L210.296,251.232 C211.856,251.556 212.48,252.012 212.48,253.272 C212.48,254.424 211.496,255.276 209.816,255.276 C208.28,255.276 207.38,254.664 207.068,253.596 C207.056,253.536 207.044,253.488 207.044,253.44 C207.044,253.2 207.248,253.032 207.476,252.984 C207.536,252.972 207.596,252.96 207.644,252.96 C207.872,252.96 208.088,253.056 208.16,253.284 C208.376,253.98 208.868,254.328 209.816,254.328 C210.776,254.328 211.4,253.908 211.4,253.296 C211.4,252.708 211.088,252.384 209.996,252.168 Z M214.544,248.436 L214.544,246.984 C214.544,246.672 214.748,246.504 215.084,246.504 C215.396,246.504 215.624,246.672 215.624,246.984 L215.624,248.436 L217.16,248.436 C217.46,248.436 217.604,248.628 217.604,248.916 C217.604,249.192 217.448,249.384 217.16,249.384 L215.624,249.384 L215.624,253.404 C215.624,253.992 215.876,254.244 216.32,254.244 C216.62,254.244 216.824,254.16 217.028,254.04 C217.1,254.004 217.172,253.98 217.244,253.98 C217.424,253.98 217.568,254.112 217.64,254.292 C217.676,254.376 217.688,254.472 217.688,254.556 C217.688,254.724 217.616,254.892 217.436,254.988 C217.088,255.156 216.764,255.252 216.248,255.252 C215.264,255.252 214.544,254.76 214.544,253.5 L214.544,249.384 L213.608,249.384 C213.32,249.384 213.188,249.192 213.188,248.916 C213.188,248.64 213.32,248.436 213.62,248.436 L214.544,248.436 Z M218.636,252.912 L218.636,248.844 C218.636,248.52 218.864,248.364 219.188,248.364 C219.512,248.364 219.74,248.52 219.74,248.844 L219.74,252.684 C219.74,253.716 220.16,254.292 221.048,254.292 C221.684,254.292 222.2,253.992 222.608,253.428 C222.896,253.02 223.016,252.648 223.016,252.18 L223.016,248.844 C223.016,248.52 223.244,248.364 223.568,248.364 C223.88,248.364 224.108,248.52 224.108,248.844 L224.108,254.676 C224.108,255 223.892,255.156 223.58,255.156 C223.256,255.156 223.028,255.012 223.028,254.712 L223.028,254.376 C223.028,254.244 223.064,254.004 223.1,253.812 C222.728,254.652 222.032,255.264 220.832,255.264 C219.416,255.264 218.636,254.376 218.636,252.912 Z M230.552,248.76 L230.552,246.144 C230.552,245.82 230.78,245.664 231.08,245.664 C231.416,245.664 231.62,245.82 231.62,246.144 L231.62,254.676 C231.62,255 231.404,255.156 231.068,255.156 C230.72,255.156 230.552,254.964 230.552,254.712 L230.552,254.46 C230.552,254.328 230.576,254.076 230.588,253.908 C230.18,254.748 229.496,255.264 228.38,255.264 C226.628,255.264 225.524,253.884 225.524,251.724 C225.524,249.624 226.616,248.268 228.392,248.268 C229.508,248.268 230.18,248.796 230.6,249.648 C230.576,249.372 230.552,249.024 230.552,248.76 Z M228.536,249.204 C227.324,249.204 226.628,250.212 226.628,251.736 C226.628,253.308 227.324,254.328 228.536,254.328 C229.796,254.328 230.576,253.236 230.576,251.748 C230.576,250.284 229.856,249.204 228.536,249.204 Z M233.336,254.676 L233.336,248.832 C233.336,248.52 233.54,248.364 233.876,248.364 C234.2,248.364 234.428,248.52 234.428,248.832 L234.428,254.676 C234.428,255 234.2,255.156 233.876,255.156 C233.54,255.156 233.336,255 233.336,254.676 Z M233.888,245.652 C234.332,245.652 234.692,246 234.692,246.456 C234.692,246.924 234.332,247.272 233.888,247.272 C233.432,247.272 233.072,246.924 233.072,246.456 C233.072,246 233.432,245.652 233.888,245.652 Z M238.94,248.268 C240.86,248.268 241.988,249.66 241.988,251.748 C241.988,253.836 240.836,255.276 238.964,255.276 C236.984,255.276 235.832,253.884 235.832,251.748 C235.832,249.672 236.996,248.268 238.94,248.268 Z M238.976,249.192 C237.68,249.192 236.936,250.188 236.936,251.784 C236.936,253.308 237.656,254.352 238.892,254.352 C240.2,254.352 240.884,253.332 240.884,251.736 C240.884,250.224 240.2,249.192 238.976,249.192 Z" id="Efectividad-del-estu-Copy" fill="#2F6070"></path>
                <path d="M-44.65,130.204 L-44.65,133.156 C-44.65,133.432 -44.47,133.54 -44.206,133.54 L-39.91,133.54 C-39.598,133.54 -39.43,133.756 -39.43,134.056 C-39.43,134.344 -39.598,134.584 -39.91,134.584 L-44.554,134.584 C-45.406,134.584 -45.778,134.212 -45.778,133.3 L-45.778,126.532 C-45.778,125.608 -45.406,125.236 -44.554,125.236 L-40.018,125.236 C-39.706,125.236 -39.538,125.452 -39.538,125.752 C-39.538,126.052 -39.706,126.28 -40.018,126.28 L-44.242,126.28 C-44.53,126.28 -44.65,126.412 -44.65,126.7 L-44.65,129.184 L-40.558,129.184 C-40.258,129.184 -40.09,129.4 -40.09,129.7 C-40.09,129.976 -40.27,130.204 -40.558,130.204 L-44.65,130.204 Z M-37.39,127.936 L-37.39,127.072 C-37.39,125.524 -36.442,125.104 -35.53,125.104 C-35.134,125.104 -34.846,125.128 -34.498,125.236 C-34.27,125.308 -34.186,125.488 -34.186,125.668 C-34.186,125.752 -34.198,125.824 -34.234,125.896 C-34.294,126.1 -34.462,126.256 -34.678,126.256 C-34.738,126.256 -34.798,126.244 -34.87,126.22 C-35.074,126.136 -35.278,126.1 -35.53,126.1 C-35.974,126.1 -36.322,126.34 -36.322,127.204 L-36.322,127.936 L-34.87,127.936 C-34.57,127.936 -34.426,128.14 -34.426,128.428 C-34.426,128.704 -34.582,128.884 -34.87,128.884 L-36.322,128.884 L-36.322,134.176 C-36.322,134.5 -36.538,134.656 -36.85,134.656 C-37.174,134.656 -37.39,134.5 -37.39,134.176 L-37.39,128.884 L-38.41,128.884 C-38.698,128.884 -38.842,128.704 -38.842,128.428 C-38.842,128.152 -38.71,127.936 -38.41,127.936 L-37.39,127.936 Z M-33.382,134.176 L-33.382,128.332 C-33.382,128.02 -33.178,127.864 -32.842,127.864 C-32.518,127.864 -32.302,128.02 -32.302,128.332 L-32.302,134.176 C-32.302,134.5 -32.518,134.656 -32.842,134.656 C-33.178,134.656 -33.382,134.5 -33.382,134.176 Z M-32.83,125.152 C-32.386,125.152 -32.026,125.5 -32.026,125.956 C-32.026,126.424 -32.386,126.772 -32.83,126.772 C-33.286,126.772 -33.646,126.424 -33.646,125.956 C-33.646,125.5 -33.286,125.152 -32.83,125.152 Z M-30.898,131.284 C-30.898,129.232 -29.842,127.756 -27.874,127.756 C-26.29,127.756 -25.642,128.632 -25.342,129.388 C-25.318,129.448 -25.306,129.52 -25.306,129.568 C-25.306,129.796 -25.486,129.94 -25.666,130.012 C-25.75,130.036 -25.846,130.048 -25.93,130.048 C-26.11,130.048 -26.266,129.976 -26.35,129.772 C-26.578,129.16 -26.938,128.692 -27.85,128.692 C-29.098,128.692 -29.782,129.748 -29.782,131.272 C-29.782,132.844 -29.11,133.84 -27.838,133.84 C-26.902,133.84 -26.53,133.384 -26.302,132.736 C-26.218,132.508 -26.05,132.412 -25.858,132.412 C-25.774,132.412 -25.69,132.424 -25.606,132.46 C-25.39,132.508 -25.222,132.652 -25.222,132.868 C-25.222,132.94 -25.234,133 -25.27,133.084 C-25.594,133.912 -26.23,134.776 -27.862,134.776 C-29.806,134.776 -30.898,133.348 -30.898,131.284 Z M-23.938,134.176 L-23.938,128.332 C-23.938,128.02 -23.734,127.864 -23.398,127.864 C-23.074,127.864 -22.846,128.02 -22.846,128.332 L-22.846,134.176 C-22.846,134.5 -23.074,134.656 -23.398,134.656 C-23.734,134.656 -23.938,134.5 -23.938,134.176 Z M-23.386,125.152 C-22.942,125.152 -22.582,125.5 -22.582,125.956 C-22.582,126.424 -22.942,126.772 -23.386,126.772 C-23.842,126.772 -24.202,126.424 -24.202,125.956 C-24.202,125.5 -23.842,125.152 -23.386,125.152 Z M-16.15,131.464 L-20.374,131.464 C-20.35,132.94 -19.618,133.864 -18.322,133.864 C-17.458,133.864 -16.978,133.432 -16.69,132.796 C-16.582,132.58 -16.426,132.496 -16.258,132.496 C-16.174,132.496 -16.09,132.52 -16.006,132.544 C-15.802,132.604 -15.634,132.748 -15.634,132.964 C-15.634,133.036 -15.646,133.108 -15.694,133.18 C-16.078,133.972 -16.774,134.764 -18.334,134.764 C-20.302,134.764 -21.442,133.372 -21.442,131.296 C-21.442,129.22 -20.362,127.768 -18.406,127.768 C-16.654,127.768 -15.67,129.136 -15.55,130.708 L-15.55,130.804 C-15.55,131.236 -15.778,131.464 -16.15,131.464 Z M-20.338,130.588 L-16.822,130.588 C-16.69,130.588 -16.642,130.54 -16.642,130.432 L-16.642,130.372 C-16.786,129.52 -17.302,128.644 -18.406,128.644 C-19.558,128.644 -20.182,129.412 -20.338,130.588 Z M-8.722,130.108 L-8.722,134.176 C-8.722,134.5 -8.962,134.656 -9.274,134.656 C-9.598,134.656 -9.826,134.5 -9.826,134.176 L-9.826,130.336 C-9.826,129.316 -10.234,128.74 -11.134,128.74 C-11.782,128.74 -12.322,129.028 -12.73,129.592 C-13.03,130 -13.15,130.348 -13.15,130.816 L-13.15,134.176 C-13.15,134.5 -13.378,134.656 -13.69,134.656 C-14.026,134.656 -14.242,134.5 -14.242,134.176 L-14.242,128.332 C-14.242,128.02 -14.014,127.864 -13.678,127.864 C-13.366,127.864 -13.15,128.02 -13.15,128.332 L-13.15,128.656 C-13.15,128.812 -13.186,128.932 -13.198,129.16 C-12.778,128.308 -12.058,127.768 -10.918,127.768 C-9.49,127.768 -8.722,128.632 -8.722,130.108 Z M-7.354,131.284 C-7.354,129.232 -6.298,127.756 -4.33,127.756 C-2.746,127.756 -2.098,128.632 -1.798,129.388 C-1.774,129.448 -1.762,129.52 -1.762,129.568 C-1.762,129.796 -1.942,129.94 -2.122,130.012 C-2.206,130.036 -2.302,130.048 -2.386,130.048 C-2.566,130.048 -2.722,129.976 -2.806,129.772 C-3.034,129.16 -3.394,128.692 -4.306,128.692 C-5.554,128.692 -6.238,129.748 -6.238,131.272 C-6.238,132.844 -5.566,133.84 -4.294,133.84 C-3.358,133.84 -2.986,133.384 -2.758,132.736 C-2.674,132.508 -2.506,132.412 -2.314,132.412 C-2.23,132.412 -2.146,132.424 -2.062,132.46 C-1.846,132.508 -1.678,132.652 -1.678,132.868 C-1.678,132.94 -1.69,133 -1.726,133.084 C-2.05,133.912 -2.686,134.776 -4.318,134.776 C-6.262,134.776 -7.354,133.348 -7.354,131.284 Z M-0.394,134.176 L-0.394,128.332 C-0.394,128.02 -0.19,127.864 0.146,127.864 C0.47,127.864 0.698,128.02 0.698,128.332 L0.698,134.176 C0.698,134.5 0.47,134.656 0.146,134.656 C-0.19,134.656 -0.394,134.5 -0.394,134.176 Z M0.158,125.152 C0.602,125.152 0.962,125.5 0.962,125.956 C0.962,126.424 0.602,126.772 0.158,126.772 C-0.298,126.772 -0.658,126.424 -0.658,125.956 C-0.658,125.5 -0.298,125.152 0.158,125.152 Z M6.47,130.336 L6.47,129.82 C6.47,129.028 6.038,128.68 5.09,128.68 C4.214,128.68 3.782,129.016 3.578,129.568 C3.494,129.796 3.314,129.88 3.11,129.88 C3.014,129.88 2.918,129.868 2.834,129.832 C2.606,129.76 2.438,129.592 2.438,129.376 C2.438,129.328 2.45,129.28 2.462,129.232 C2.582,128.86 2.894,128.512 3.17,128.296 C3.59,127.972 4.13,127.768 5.102,127.768 C6.71,127.768 7.502,128.404 7.502,129.82 L7.502,133.096 C7.502,133.516 7.562,133.924 7.634,134.152 C7.646,134.188 7.658,134.236 7.658,134.272 C7.658,134.464 7.478,134.632 7.178,134.656 L7.07,134.656 C6.83,134.656 6.614,134.584 6.566,134.368 C6.53,134.224 6.506,134.008 6.494,133.768 C6.038,134.284 5.402,134.752 4.214,134.752 C2.894,134.752 2.09,134.008 2.09,132.772 C2.09,131.644 2.762,130.924 3.902,130.612 C4.562,130.432 5.186,130.36 6.47,130.336 Z M6.47,132.004 L6.47,131.2 C5.066,131.236 4.406,131.356 3.926,131.596 C3.446,131.836 3.194,132.208 3.194,132.784 C3.194,133.408 3.674,133.828 4.394,133.828 C5.15,133.828 5.774,133.456 6.158,132.976 C6.386,132.688 6.47,132.46 6.47,132.004 Z M18.002,128.26 L18.002,125.644 C18.002,125.32 18.23,125.164 18.53,125.164 C18.866,125.164 19.07,125.32 19.07,125.644 L19.07,134.176 C19.07,134.5 18.854,134.656 18.518,134.656 C18.17,134.656 18.002,134.464 18.002,134.212 L18.002,133.96 C18.002,133.828 18.026,133.576 18.038,133.408 C17.63,134.248 16.946,134.764 15.83,134.764 C14.078,134.764 12.974,133.384 12.974,131.224 C12.974,129.124 14.066,127.768 15.842,127.768 C16.958,127.768 17.63,128.296 18.05,129.148 C18.026,128.872 18.002,128.524 18.002,128.26 Z M15.986,128.704 C14.774,128.704 14.078,129.712 14.078,131.236 C14.078,132.808 14.774,133.828 15.986,133.828 C17.246,133.828 18.026,132.736 18.026,131.248 C18.026,129.784 17.306,128.704 15.986,128.704 Z M25.766,131.464 L21.542,131.464 C21.566,132.94 22.298,133.864 23.594,133.864 C24.458,133.864 24.938,133.432 25.226,132.796 C25.334,132.58 25.49,132.496 25.658,132.496 C25.742,132.496 25.826,132.52 25.91,132.544 C26.114,132.604 26.282,132.748 26.282,132.964 C26.282,133.036 26.27,133.108 26.222,133.18 C25.838,133.972 25.142,134.764 23.582,134.764 C21.614,134.764 20.474,133.372 20.474,131.296 C20.474,129.22 21.554,127.768 23.51,127.768 C25.262,127.768 26.246,129.136 26.366,130.708 L26.366,130.804 C26.366,131.236 26.138,131.464 25.766,131.464 Z M21.578,130.588 L25.094,130.588 C25.226,130.588 25.274,130.54 25.274,130.432 L25.274,130.372 C25.13,129.52 24.614,128.644 23.51,128.644 C22.358,128.644 21.734,129.412 21.578,130.588 Z M27.662,134.176 L27.662,125.644 C27.662,125.32 27.878,125.164 28.214,125.164 C28.538,125.164 28.754,125.32 28.754,125.644 L28.754,134.176 C28.754,134.5 28.538,134.656 28.214,134.656 C27.878,134.656 27.662,134.5 27.662,134.176 Z M39.182,128.26 L39.182,125.644 C39.182,125.32 39.41,125.164 39.71,125.164 C40.046,125.164 40.25,125.32 40.25,125.644 L40.25,134.176 C40.25,134.5 40.034,134.656 39.698,134.656 C39.35,134.656 39.182,134.464 39.182,134.212 L39.182,133.96 C39.182,133.828 39.206,133.576 39.218,133.408 C38.81,134.248 38.126,134.764 37.01,134.764 C35.258,134.764 34.154,133.384 34.154,131.224 C34.154,129.124 35.246,127.768 37.022,127.768 C38.138,127.768 38.81,128.296 39.23,129.148 C39.206,128.872 39.182,128.524 39.182,128.26 Z M37.166,128.704 C35.954,128.704 35.258,129.712 35.258,131.236 C35.258,132.808 35.954,133.828 37.166,133.828 C38.426,133.828 39.206,132.736 39.206,131.248 C39.206,129.784 38.486,128.704 37.166,128.704 Z M44.762,127.768 C46.682,127.768 47.81,129.16 47.81,131.248 C47.81,133.336 46.658,134.776 44.786,134.776 C42.806,134.776 41.654,133.384 41.654,131.248 C41.654,129.172 42.818,127.768 44.762,127.768 Z M44.798,128.692 C43.502,128.692 42.758,129.688 42.758,131.284 C42.758,132.808 43.478,133.852 44.714,133.852 C46.022,133.852 46.706,132.832 46.706,131.236 C46.706,129.724 46.022,128.692 44.798,128.692 Z M48.89,131.284 C48.89,129.232 49.946,127.756 51.914,127.756 C53.498,127.756 54.146,128.632 54.446,129.388 C54.47,129.448 54.482,129.52 54.482,129.568 C54.482,129.796 54.302,129.94 54.122,130.012 C54.038,130.036 53.942,130.048 53.858,130.048 C53.678,130.048 53.522,129.976 53.438,129.772 C53.21,129.16 52.85,128.692 51.938,128.692 C50.69,128.692 50.006,129.748 50.006,131.272 C50.006,132.844 50.678,133.84 51.95,133.84 C52.886,133.84 53.258,133.384 53.486,132.736 C53.57,132.508 53.738,132.412 53.93,132.412 C54.014,132.412 54.098,132.424 54.182,132.46 C54.398,132.508 54.566,132.652 54.566,132.868 C54.566,132.94 54.554,133 54.518,133.084 C54.194,133.912 53.558,134.776 51.926,134.776 C49.982,134.776 48.89,133.348 48.89,131.284 Z M60.83,131.464 L56.606,131.464 C56.63,132.94 57.362,133.864 58.658,133.864 C59.522,133.864 60.002,133.432 60.29,132.796 C60.398,132.58 60.554,132.496 60.722,132.496 C60.806,132.496 60.89,132.52 60.974,132.544 C61.178,132.604 61.346,132.748 61.346,132.964 C61.346,133.036 61.334,133.108 61.286,133.18 C60.902,133.972 60.206,134.764 58.646,134.764 C56.678,134.764 55.538,133.372 55.538,131.296 C55.538,129.22 56.618,127.768 58.574,127.768 C60.326,127.768 61.31,129.136 61.43,130.708 L61.43,130.804 C61.43,131.236 61.202,131.464 60.83,131.464 Z M56.642,130.588 L60.158,130.588 C60.29,130.588 60.338,130.54 60.338,130.432 L60.338,130.372 C60.194,129.52 59.678,128.644 58.574,128.644 C57.422,128.644 56.798,129.412 56.642,130.588 Z M68.258,130.108 L68.258,134.176 C68.258,134.5 68.018,134.656 67.706,134.656 C67.382,134.656 67.154,134.5 67.154,134.176 L67.154,130.336 C67.154,129.316 66.746,128.74 65.846,128.74 C65.198,128.74 64.658,129.028 64.25,129.592 C63.95,130 63.83,130.348 63.83,130.816 L63.83,134.176 C63.83,134.5 63.602,134.656 63.29,134.656 C62.954,134.656 62.738,134.5 62.738,134.176 L62.738,128.332 C62.738,128.02 62.966,127.864 63.302,127.864 C63.614,127.864 63.83,128.02 63.83,128.332 L63.83,128.656 C63.83,128.812 63.794,128.932 63.782,129.16 C64.202,128.308 64.922,127.768 66.062,127.768 C67.49,127.768 68.258,128.632 68.258,130.108 Z M70.646,127.936 L70.646,126.484 C70.646,126.172 70.85,126.004 71.186,126.004 C71.498,126.004 71.726,126.172 71.726,126.484 L71.726,127.936 L73.262,127.936 C73.562,127.936 73.706,128.128 73.706,128.416 C73.706,128.692 73.55,128.884 73.262,128.884 L71.726,128.884 L71.726,132.904 C71.726,133.492 71.978,133.744 72.422,133.744 C72.722,133.744 72.926,133.66 73.13,133.54 C73.202,133.504 73.274,133.48 73.346,133.48 C73.526,133.48 73.67,133.612 73.742,133.792 C73.778,133.876 73.79,133.972 73.79,134.056 C73.79,134.224 73.718,134.392 73.538,134.488 C73.19,134.656 72.866,134.752 72.35,134.752 C71.366,134.752 70.646,134.26 70.646,133 L70.646,128.884 L69.71,128.884 C69.422,128.884 69.29,128.692 69.29,128.416 C69.29,128.14 69.422,127.936 69.722,127.936 L70.646,127.936 Z M79.754,131.464 L75.53,131.464 C75.554,132.94 76.286,133.864 77.582,133.864 C78.446,133.864 78.926,133.432 79.214,132.796 C79.322,132.58 79.478,132.496 79.646,132.496 C79.73,132.496 79.814,132.52 79.898,132.544 C80.102,132.604 80.27,132.748 80.27,132.964 C80.27,133.036 80.258,133.108 80.21,133.18 C79.826,133.972 79.13,134.764 77.57,134.764 C75.602,134.764 74.462,133.372 74.462,131.296 C74.462,129.22 75.542,127.768 77.498,127.768 C79.25,127.768 80.234,129.136 80.354,130.708 L80.354,130.804 C80.354,131.236 80.126,131.464 79.754,131.464 Z M75.566,130.588 L79.082,130.588 C79.214,130.588 79.262,130.54 79.262,130.432 L79.262,130.372 C79.118,129.52 78.602,128.644 77.498,128.644 C76.346,128.644 75.722,129.412 75.566,130.588 Z" id="Eficiencia-del-docen-Copy" fill="#2F6070" transform="translate(17.288000, 129.940000) rotate(270.000000) translate(-17.288000, -129.940000) "></path>
            </g>
            <g id="Traditional-Lectures" transform="translate(42.000000, 108.000000)">
                <g id="Trad-Ellipse">
                    <use fill="black" fill-opacity="1" filter="url(#filter-3)" xlink:href="#path-2"></use>
                    <use fill="#F3C68D" fill-rule="evenodd" xlink:href="#path-2"></use>
                </g>
                <path d="M32.124,18.556 C34.236,18.556 35.184,19.66 35.616,20.716 C35.652,20.8 35.664,20.884 35.664,20.956 C35.664,21.208 35.472,21.376 35.292,21.436 C35.196,21.472 35.1,21.484 35.004,21.484 C34.8,21.484 34.608,21.4 34.5,21.172 C34.14,20.308 33.54,19.6 32.172,19.6 C30.372,19.6 29.184,21.052 29.184,23.416 C29.184,25.732 30.372,27.22 32.172,27.22 C33.612,27.22 34.296,26.356 34.608,25.396 C34.704,25.132 34.92,25.024 35.148,25.024 C35.22,25.024 35.304,25.036 35.388,25.06 C35.592,25.108 35.808,25.288 35.808,25.54 C35.808,25.612 35.796,25.672 35.772,25.744 C35.352,26.932 34.344,28.276 32.208,28.276 C29.628,28.276 27.984,26.392 27.984,23.404 C27.984,20.488 29.628,18.556 32.124,18.556 Z M37.092,27.676 L37.092,19.144 C37.092,18.82 37.308,18.664 37.644,18.664 C37.968,18.664 38.184,18.82 38.184,19.144 L38.184,27.676 C38.184,28 37.968,28.156 37.644,28.156 C37.308,28.156 37.092,28 37.092,27.676 Z M43.956,23.836 L43.956,23.32 C43.956,22.528 43.524,22.18 42.576,22.18 C41.7,22.18 41.268,22.516 41.064,23.068 C40.98,23.296 40.8,23.38 40.596,23.38 C40.5,23.38 40.404,23.368 40.32,23.332 C40.092,23.26 39.924,23.092 39.924,22.876 C39.924,22.828 39.936,22.78 39.948,22.732 C40.068,22.36 40.38,22.012 40.656,21.796 C41.076,21.472 41.616,21.268 42.588,21.268 C44.196,21.268 44.988,21.904 44.988,23.32 L44.988,26.596 C44.988,27.016 45.048,27.424 45.12,27.652 C45.132,27.688 45.144,27.736 45.144,27.772 C45.144,27.964 44.964,28.132 44.664,28.156 L44.556,28.156 C44.316,28.156 44.1,28.084 44.052,27.868 C44.016,27.724 43.992,27.508 43.98,27.268 C43.524,27.784 42.888,28.252 41.7,28.252 C40.38,28.252 39.576,27.508 39.576,26.272 C39.576,25.144 40.248,24.424 41.388,24.112 C42.048,23.932 42.672,23.86 43.956,23.836 Z M43.956,25.504 L43.956,24.7 C42.552,24.736 41.892,24.856 41.412,25.096 C40.932,25.336 40.68,25.708 40.68,26.284 C40.68,26.908 41.16,27.328 41.88,27.328 C42.636,27.328 43.26,26.956 43.644,26.476 C43.872,26.188 43.956,25.96 43.956,25.504 Z M49.356,25.168 L48.672,25.036 C47.196,24.748 46.584,24.232 46.584,23.092 C46.584,22 47.52,21.256 49.068,21.256 C50.4,21.256 51.252,21.82 51.552,22.696 C51.564,22.744 51.576,22.792 51.576,22.84 C51.576,23.068 51.372,23.224 51.156,23.284 C51.096,23.296 51.024,23.308 50.964,23.308 C50.748,23.308 50.532,23.212 50.472,22.984 C50.316,22.444 49.788,22.168 49.104,22.168 C48.132,22.168 47.676,22.564 47.676,23.068 C47.676,23.62 47.904,23.86 48.912,24.076 L49.656,24.232 C51.216,24.556 51.84,25.012 51.84,26.272 C51.84,27.424 50.856,28.276 49.176,28.276 C47.64,28.276 46.74,27.664 46.428,26.596 C46.416,26.536 46.404,26.488 46.404,26.44 C46.404,26.2 46.608,26.032 46.836,25.984 C46.896,25.972 46.956,25.96 47.004,25.96 C47.232,25.96 47.448,26.056 47.52,26.284 C47.736,26.98 48.228,27.328 49.176,27.328 C50.136,27.328 50.76,26.908 50.76,26.296 C50.76,25.708 50.448,25.384 49.356,25.168 Z M58.176,24.964 L53.952,24.964 C53.976,26.44 54.708,27.364 56.004,27.364 C56.868,27.364 57.348,26.932 57.636,26.296 C57.744,26.08 57.9,25.996 58.068,25.996 C58.152,25.996 58.236,26.02 58.32,26.044 C58.524,26.104 58.692,26.248 58.692,26.464 C58.692,26.536 58.68,26.608 58.632,26.68 C58.248,27.472 57.552,28.264 55.992,28.264 C54.024,28.264 52.884,26.872 52.884,24.796 C52.884,22.72 53.964,21.268 55.92,21.268 C57.672,21.268 58.656,22.636 58.776,24.208 L58.776,24.304 C58.776,24.736 58.548,24.964 58.176,24.964 Z M53.988,24.088 L57.504,24.088 C57.636,24.088 57.684,24.04 57.684,23.932 L57.684,23.872 C57.54,23.02 57.024,22.144 55.92,22.144 C54.768,22.144 54.144,22.912 53.988,24.088 Z M62.664,25.168 L61.98,25.036 C60.504,24.748 59.892,24.232 59.892,23.092 C59.892,22 60.828,21.256 62.376,21.256 C63.708,21.256 64.56,21.82 64.86,22.696 C64.872,22.744 64.884,22.792 64.884,22.84 C64.884,23.068 64.68,23.224 64.464,23.284 C64.404,23.296 64.332,23.308 64.272,23.308 C64.056,23.308 63.84,23.212 63.78,22.984 C63.624,22.444 63.096,22.168 62.412,22.168 C61.44,22.168 60.984,22.564 60.984,23.068 C60.984,23.62 61.212,23.86 62.22,24.076 L62.964,24.232 C64.524,24.556 65.148,25.012 65.148,26.272 C65.148,27.424 64.164,28.276 62.484,28.276 C60.948,28.276 60.048,27.664 59.736,26.596 C59.724,26.536 59.712,26.488 59.712,26.44 C59.712,26.2 59.916,26.032 60.144,25.984 C60.204,25.972 60.264,25.96 60.312,25.96 C60.54,25.96 60.756,26.056 60.828,26.284 C61.044,26.98 61.536,27.328 62.484,27.328 C63.444,27.328 64.068,26.908 64.068,26.296 C64.068,25.708 63.756,25.384 62.664,25.168 Z M11.022,36.436 L11.022,34.984 C11.022,34.672 11.226,34.504 11.562,34.504 C11.874,34.504 12.102,34.672 12.102,34.984 L12.102,36.436 L13.638,36.436 C13.938,36.436 14.082,36.628 14.082,36.916 C14.082,37.192 13.926,37.384 13.638,37.384 L12.102,37.384 L12.102,41.404 C12.102,41.992 12.354,42.244 12.798,42.244 C13.098,42.244 13.302,42.16 13.506,42.04 C13.578,42.004 13.65,41.98 13.722,41.98 C13.902,41.98 14.046,42.112 14.118,42.292 C14.154,42.376 14.166,42.472 14.166,42.556 C14.166,42.724 14.094,42.892 13.914,42.988 C13.566,43.156 13.242,43.252 12.726,43.252 C11.742,43.252 11.022,42.76 11.022,41.5 L11.022,37.384 L10.086,37.384 C9.798,37.384 9.666,37.192 9.666,36.916 C9.666,36.64 9.798,36.436 10.098,36.436 L11.022,36.436 Z M15.318,42.676 L15.318,36.832 C15.318,36.52 15.546,36.364 15.882,36.364 C16.182,36.364 16.422,36.52 16.422,36.832 L16.422,37.096 C16.422,37.264 16.374,37.468 16.35,37.66 C16.542,37.084 17.154,36.34 18.186,36.304 C18.282,36.292 18.366,36.292 18.45,36.292 C18.63,36.292 18.762,36.316 18.93,36.352 C19.206,36.388 19.314,36.556 19.314,36.784 C19.314,36.844 19.302,36.916 19.29,36.988 C19.242,37.24 19.074,37.456 18.822,37.456 C18.786,37.456 18.75,37.456 18.714,37.444 C18.546,37.408 18.39,37.372 18.138,37.372 C17.622,37.384 17.226,37.648 16.926,38.032 C16.614,38.416 16.434,38.86 16.422,39.364 L16.422,42.676 C16.422,43 16.182,43.156 15.882,43.156 C15.546,43.156 15.318,43 15.318,42.676 Z M24.39,38.836 L24.39,38.32 C24.39,37.528 23.958,37.18 23.01,37.18 C22.134,37.18 21.702,37.516 21.498,38.068 C21.414,38.296 21.234,38.38 21.03,38.38 C20.934,38.38 20.838,38.368 20.754,38.332 C20.526,38.26 20.358,38.092 20.358,37.876 C20.358,37.828 20.37,37.78 20.382,37.732 C20.502,37.36 20.814,37.012 21.09,36.796 C21.51,36.472 22.05,36.268 23.022,36.268 C24.63,36.268 25.422,36.904 25.422,38.32 L25.422,41.596 C25.422,42.016 25.482,42.424 25.554,42.652 C25.566,42.688 25.578,42.736 25.578,42.772 C25.578,42.964 25.398,43.132 25.098,43.156 L24.99,43.156 C24.75,43.156 24.534,43.084 24.486,42.868 C24.45,42.724 24.426,42.508 24.414,42.268 C23.958,42.784 23.322,43.252 22.134,43.252 C20.814,43.252 20.01,42.508 20.01,41.272 C20.01,40.144 20.682,39.424 21.822,39.112 C22.482,38.932 23.106,38.86 24.39,38.836 Z M24.39,40.504 L24.39,39.7 C22.986,39.736 22.326,39.856 21.846,40.096 C21.366,40.336 21.114,40.708 21.114,41.284 C21.114,41.908 21.594,42.328 22.314,42.328 C23.07,42.328 23.694,41.956 24.078,41.476 C24.306,41.188 24.39,40.96 24.39,40.504 Z M31.926,36.76 L31.926,34.144 C31.926,33.82 32.154,33.664 32.454,33.664 C32.79,33.664 32.994,33.82 32.994,34.144 L32.994,42.676 C32.994,43 32.778,43.156 32.442,43.156 C32.094,43.156 31.926,42.964 31.926,42.712 L31.926,42.46 C31.926,42.328 31.95,42.076 31.962,41.908 C31.554,42.748 30.87,43.264 29.754,43.264 C28.002,43.264 26.898,41.884 26.898,39.724 C26.898,37.624 27.99,36.268 29.766,36.268 C30.882,36.268 31.554,36.796 31.974,37.648 C31.95,37.372 31.926,37.024 31.926,36.76 Z M29.91,37.204 C28.698,37.204 28.002,38.212 28.002,39.736 C28.002,41.308 28.698,42.328 29.91,42.328 C31.17,42.328 31.95,41.236 31.95,39.748 C31.95,38.284 31.23,37.204 29.91,37.204 Z M34.71,42.676 L34.71,36.832 C34.71,36.52 34.914,36.364 35.25,36.364 C35.574,36.364 35.802,36.52 35.802,36.832 L35.802,42.676 C35.802,43 35.574,43.156 35.25,43.156 C34.914,43.156 34.71,43 34.71,42.676 Z M35.262,33.652 C35.706,33.652 36.066,34 36.066,34.456 C36.066,34.924 35.706,35.272 35.262,35.272 C34.806,35.272 34.446,34.924 34.446,34.456 C34.446,34 34.806,33.652 35.262,33.652 Z M37.206,39.784 C37.206,37.732 38.262,36.256 40.23,36.256 C41.814,36.256 42.462,37.132 42.762,37.888 C42.786,37.948 42.798,38.02 42.798,38.068 C42.798,38.296 42.618,38.44 42.438,38.512 C42.354,38.536 42.258,38.548 42.174,38.548 C41.994,38.548 41.838,38.476 41.754,38.272 C41.526,37.66 41.166,37.192 40.254,37.192 C39.006,37.192 38.322,38.248 38.322,39.772 C38.322,41.344 38.994,42.34 40.266,42.34 C41.202,42.34 41.574,41.884 41.802,41.236 C41.886,41.008 42.054,40.912 42.246,40.912 C42.33,40.912 42.414,40.924 42.498,40.96 C42.714,41.008 42.882,41.152 42.882,41.368 C42.882,41.44 42.87,41.5 42.834,41.584 C42.51,42.412 41.874,43.276 40.242,43.276 C38.298,43.276 37.206,41.848 37.206,39.784 Z M44.166,42.676 L44.166,36.832 C44.166,36.52 44.37,36.364 44.706,36.364 C45.03,36.364 45.258,36.52 45.258,36.832 L45.258,42.676 C45.258,43 45.03,43.156 44.706,43.156 C44.37,43.156 44.166,43 44.166,42.676 Z M44.718,33.652 C45.162,33.652 45.522,34 45.522,34.456 C45.522,34.924 45.162,35.272 44.718,35.272 C44.262,35.272 43.902,34.924 43.902,34.456 C43.902,34 44.262,33.652 44.718,33.652 Z M49.77,36.268 C51.69,36.268 52.818,37.66 52.818,39.748 C52.818,41.836 51.666,43.276 49.794,43.276 C47.814,43.276 46.662,41.884 46.662,39.748 C46.662,37.672 47.826,36.268 49.77,36.268 Z M49.806,37.192 C48.51,37.192 47.766,38.188 47.766,39.784 C47.766,41.308 48.486,42.352 49.722,42.352 C51.03,42.352 51.714,41.332 51.714,39.736 C51.714,38.224 51.03,37.192 49.806,37.192 Z M59.73,38.608 L59.73,42.676 C59.73,43 59.49,43.156 59.178,43.156 C58.854,43.156 58.626,43 58.626,42.676 L58.626,38.836 C58.626,37.816 58.218,37.24 57.318,37.24 C56.67,37.24 56.13,37.528 55.722,38.092 C55.422,38.5 55.302,38.848 55.302,39.316 L55.302,42.676 C55.302,43 55.074,43.156 54.762,43.156 C54.426,43.156 54.21,43 54.21,42.676 L54.21,36.832 C54.21,36.52 54.438,36.364 54.774,36.364 C55.086,36.364 55.302,36.52 55.302,36.832 L55.302,37.156 C55.302,37.312 55.266,37.432 55.254,37.66 C55.674,36.808 56.394,36.268 57.534,36.268 C58.962,36.268 59.73,37.132 59.73,38.608 Z M65.466,38.836 L65.466,38.32 C65.466,37.528 65.034,37.18 64.086,37.18 C63.21,37.18 62.778,37.516 62.574,38.068 C62.49,38.296 62.31,38.38 62.106,38.38 C62.01,38.38 61.914,38.368 61.83,38.332 C61.602,38.26 61.434,38.092 61.434,37.876 C61.434,37.828 61.446,37.78 61.458,37.732 C61.578,37.36 61.89,37.012 62.166,36.796 C62.586,36.472 63.126,36.268 64.098,36.268 C65.706,36.268 66.498,36.904 66.498,38.32 L66.498,41.596 C66.498,42.016 66.558,42.424 66.63,42.652 C66.642,42.688 66.654,42.736 66.654,42.772 C66.654,42.964 66.474,43.132 66.174,43.156 L66.066,43.156 C65.826,43.156 65.61,43.084 65.562,42.868 C65.526,42.724 65.502,42.508 65.49,42.268 C65.034,42.784 64.398,43.252 63.21,43.252 C61.89,43.252 61.086,42.508 61.086,41.272 C61.086,40.144 61.758,39.424 62.898,39.112 C63.558,38.932 64.182,38.86 65.466,38.836 Z M65.466,40.504 L65.466,39.7 C64.062,39.736 63.402,39.856 62.922,40.096 C62.442,40.336 62.19,40.708 62.19,41.284 C62.19,41.908 62.67,42.328 63.39,42.328 C64.146,42.328 64.77,41.956 65.154,41.476 C65.382,41.188 65.466,40.96 65.466,40.504 Z M68.274,42.676 L68.274,34.144 C68.274,33.82 68.49,33.664 68.826,33.664 C69.15,33.664 69.366,33.82 69.366,34.144 L69.366,42.676 C69.366,43 69.15,43.156 68.826,43.156 C68.49,43.156 68.274,43 68.274,42.676 Z M76.062,39.964 L71.838,39.964 C71.862,41.44 72.594,42.364 73.89,42.364 C74.754,42.364 75.234,41.932 75.522,41.296 C75.63,41.08 75.786,40.996 75.954,40.996 C76.038,40.996 76.122,41.02 76.206,41.044 C76.41,41.104 76.578,41.248 76.578,41.464 C76.578,41.536 76.566,41.608 76.518,41.68 C76.134,42.472 75.438,43.264 73.878,43.264 C71.91,43.264 70.77,41.872 70.77,39.796 C70.77,37.72 71.85,36.268 73.806,36.268 C75.558,36.268 76.542,37.636 76.662,39.208 L76.662,39.304 C76.662,39.736 76.434,39.964 76.062,39.964 Z M71.874,39.088 L75.39,39.088 C75.522,39.088 75.57,39.04 75.57,38.932 L75.57,38.872 C75.426,38.02 74.91,37.144 73.806,37.144 C72.654,37.144 72.03,37.912 71.874,39.088 Z M80.55,40.168 L79.866,40.036 C78.39,39.748 77.778,39.232 77.778,38.092 C77.778,37 78.714,36.256 80.262,36.256 C81.594,36.256 82.446,36.82 82.746,37.696 C82.758,37.744 82.77,37.792 82.77,37.84 C82.77,38.068 82.566,38.224 82.35,38.284 C82.29,38.296 82.218,38.308 82.158,38.308 C81.942,38.308 81.726,38.212 81.666,37.984 C81.51,37.444 80.982,37.168 80.298,37.168 C79.326,37.168 78.87,37.564 78.87,38.068 C78.87,38.62 79.098,38.86 80.106,39.076 L80.85,39.232 C82.41,39.556 83.034,40.012 83.034,41.272 C83.034,42.424 82.05,43.276 80.37,43.276 C78.834,43.276 77.934,42.664 77.622,41.596 C77.61,41.536 77.598,41.488 77.598,41.44 C77.598,41.2 77.802,41.032 78.03,40.984 C78.09,40.972 78.15,40.96 78.198,40.96 C78.426,40.96 78.642,41.056 78.714,41.284 C78.93,41.98 79.422,42.328 80.37,42.328 C81.33,42.328 81.954,41.908 81.954,41.296 C81.954,40.708 81.642,40.384 80.55,40.168 Z" id="Clases-tradicionales-Copy" fill="#2F6070"></path>
            </g>
            <g id="Typical-AL" transform="translate(148.000000, 160.000000)">
                <g id="Typical-Ellipse">
                    <use fill="black" fill-opacity="1" filter="url(#filter-5)" xlink:href="#path-4"></use>
                    <use fill="#E69877" fill-rule="evenodd" xlink:href="#path-4"></use>
                </g>
                <path d="M5.702,23.348 L4.778,25.82 C4.694,26.06 4.514,26.156 4.31,26.156 C4.226,26.156 4.154,26.144 4.07,26.12 C3.83,26.06 3.65,25.856 3.65,25.628 C3.65,25.556 3.662,25.496 3.686,25.424 L6.95,17.228 C7.106,16.82 7.406,16.664 7.778,16.664 C8.162,16.664 8.474,16.82 8.63,17.228 L11.894,25.448 C11.93,25.52 11.942,25.58 11.942,25.652 C11.942,25.892 11.75,26.072 11.51,26.132 C11.438,26.156 11.366,26.168 11.294,26.168 C11.078,26.168 10.886,26.06 10.802,25.832 L9.854,23.348 L5.702,23.348 Z M6.062,22.34 L9.494,22.34 L8.162,18.848 C8.03,18.5 7.898,18.116 7.79,17.708 C7.682,18.116 7.562,18.5 7.418,18.86 L6.062,22.34 Z M14.282,25.568 L14.282,28.208 C14.282,28.508 14.078,28.676 13.754,28.676 C13.418,28.676 13.214,28.508 13.214,28.208 L13.214,19.832 C13.214,19.52 13.418,19.364 13.754,19.364 C14.054,19.364 14.282,19.508 14.282,19.808 L14.282,20.024 C14.282,20.192 14.27,20.48 14.234,20.684 C14.654,19.832 15.314,19.268 16.478,19.268 C18.278,19.268 19.298,20.576 19.298,22.712 C19.298,24.848 18.218,26.264 16.43,26.264 C15.314,26.264 14.63,25.712 14.222,24.872 C14.27,25.1 14.282,25.352 14.282,25.568 Z M16.322,20.204 C15.002,20.204 14.258,21.272 14.258,22.748 C14.258,24.236 15.038,25.316 16.298,25.316 C17.51,25.316 18.194,24.284 18.194,22.736 C18.194,21.176 17.534,20.204 16.322,20.204 Z M20.87,25.676 L20.87,19.832 C20.87,19.52 21.098,19.364 21.434,19.364 C21.734,19.364 21.974,19.52 21.974,19.832 L21.974,20.096 C21.974,20.264 21.926,20.468 21.902,20.66 C22.094,20.084 22.706,19.34 23.738,19.304 C23.834,19.292 23.918,19.292 24.002,19.292 C24.182,19.292 24.314,19.316 24.482,19.352 C24.758,19.388 24.866,19.556 24.866,19.784 C24.866,19.844 24.854,19.916 24.842,19.988 C24.794,20.24 24.626,20.456 24.374,20.456 C24.338,20.456 24.302,20.456 24.266,20.444 C24.098,20.408 23.942,20.372 23.69,20.372 C23.174,20.384 22.778,20.648 22.478,21.032 C22.166,21.416 21.986,21.86 21.974,22.364 L21.974,25.676 C21.974,26 21.734,26.156 21.434,26.156 C21.098,26.156 20.87,26 20.87,25.676 Z M30.866,22.964 L26.642,22.964 C26.666,24.44 27.398,25.364 28.694,25.364 C29.558,25.364 30.038,24.932 30.326,24.296 C30.434,24.08 30.59,23.996 30.758,23.996 C30.842,23.996 30.926,24.02 31.01,24.044 C31.214,24.104 31.382,24.248 31.382,24.464 C31.382,24.536 31.37,24.608 31.322,24.68 C30.938,25.472 30.242,26.264 28.682,26.264 C26.714,26.264 25.574,24.872 25.574,22.796 C25.574,20.72 26.654,19.268 28.61,19.268 C30.362,19.268 31.346,20.636 31.466,22.208 L31.466,22.304 C31.466,22.736 31.238,22.964 30.866,22.964 Z M26.678,22.088 L30.194,22.088 C30.326,22.088 30.374,22.04 30.374,21.932 L30.374,21.872 C30.23,21.02 29.714,20.144 28.61,20.144 C27.458,20.144 26.834,20.912 26.678,22.088 Z M38.294,21.608 L38.294,25.676 C38.294,26 38.054,26.156 37.742,26.156 C37.418,26.156 37.19,26 37.19,25.676 L37.19,21.836 C37.19,20.816 36.782,20.24 35.882,20.24 C35.234,20.24 34.694,20.528 34.286,21.092 C33.986,21.5 33.866,21.848 33.866,22.316 L33.866,25.676 C33.866,26 33.638,26.156 33.326,26.156 C32.99,26.156 32.774,26 32.774,25.676 L32.774,19.832 C32.774,19.52 33.002,19.364 33.338,19.364 C33.65,19.364 33.866,19.52 33.866,19.832 L33.866,20.156 C33.866,20.312 33.83,20.432 33.818,20.66 C34.238,19.808 34.958,19.268 36.098,19.268 C37.526,19.268 38.294,20.132 38.294,21.608 Z M44.69,19.76 L44.69,17.144 C44.69,16.82 44.918,16.664 45.218,16.664 C45.554,16.664 45.758,16.82 45.758,17.144 L45.758,25.676 C45.758,26 45.542,26.156 45.206,26.156 C44.858,26.156 44.69,25.964 44.69,25.712 L44.69,25.46 C44.69,25.328 44.714,25.076 44.726,24.908 C44.318,25.748 43.634,26.264 42.518,26.264 C40.766,26.264 39.662,24.884 39.662,22.724 C39.662,20.624 40.754,19.268 42.53,19.268 C43.646,19.268 44.318,19.796 44.738,20.648 C44.714,20.372 44.69,20.024 44.69,19.76 Z M42.674,20.204 C41.462,20.204 40.766,21.212 40.766,22.736 C40.766,24.308 41.462,25.328 42.674,25.328 C43.934,25.328 44.714,24.236 44.714,22.748 C44.714,21.284 43.994,20.204 42.674,20.204 Z M47.474,25.676 L47.474,19.832 C47.474,19.52 47.678,19.364 48.014,19.364 C48.338,19.364 48.566,19.52 48.566,19.832 L48.566,25.676 C48.566,26 48.338,26.156 48.014,26.156 C47.678,26.156 47.474,26 47.474,25.676 Z M48.026,16.652 C48.47,16.652 48.83,17 48.83,17.456 C48.83,17.924 48.47,18.272 48.026,18.272 C47.57,18.272 47.21,17.924 47.21,17.456 C47.21,17 47.57,16.652 48.026,16.652 Z M54.794,26.084 L50.294,26.084 C49.982,26.084 49.814,25.856 49.814,25.556 C49.814,25.232 49.91,25.064 50.126,24.8 L52.946,21.332 C53.282,20.912 53.618,20.588 53.942,20.288 C53.522,20.348 53.102,20.396 52.634,20.396 L50.51,20.396 C50.222,20.396 50.066,20.204 50.066,19.928 C50.066,19.652 50.222,19.436 50.51,19.436 L54.59,19.436 C54.89,19.436 55.046,19.664 55.046,19.964 C55.046,20.288 54.938,20.456 54.734,20.708 L51.89,24.212 C51.59,24.596 51.254,24.92 50.882,25.244 C51.278,25.172 51.662,25.112 52.07,25.112 L54.794,25.112 C55.094,25.112 55.226,25.304 55.226,25.58 C55.226,25.856 55.07,26.084 54.794,26.084 Z M60.53,21.836 L60.53,21.32 C60.53,20.528 60.098,20.18 59.15,20.18 C58.274,20.18 57.842,20.516 57.638,21.068 C57.554,21.296 57.374,21.38 57.17,21.38 C57.074,21.38 56.978,21.368 56.894,21.332 C56.666,21.26 56.498,21.092 56.498,20.876 C56.498,20.828 56.51,20.78 56.522,20.732 C56.642,20.36 56.954,20.012 57.23,19.796 C57.65,19.472 58.19,19.268 59.162,19.268 C60.77,19.268 61.562,19.904 61.562,21.32 L61.562,24.596 C61.562,25.016 61.622,25.424 61.694,25.652 C61.706,25.688 61.718,25.736 61.718,25.772 C61.718,25.964 61.538,26.132 61.238,26.156 L61.13,26.156 C60.89,26.156 60.674,26.084 60.626,25.868 C60.59,25.724 60.566,25.508 60.554,25.268 C60.098,25.784 59.462,26.252 58.274,26.252 C56.954,26.252 56.15,25.508 56.15,24.272 C56.15,23.144 56.822,22.424 57.962,22.112 C58.622,21.932 59.246,21.86 60.53,21.836 Z M60.53,23.504 L60.53,22.7 C59.126,22.736 58.466,22.856 57.986,23.096 C57.506,23.336 57.254,23.708 57.254,24.284 C57.254,24.908 57.734,25.328 58.454,25.328 C59.21,25.328 59.834,24.956 60.218,24.476 C60.446,24.188 60.53,23.96 60.53,23.504 Z M64.91,19.832 L64.91,26.792 C64.91,28.1 64.166,28.784 63.026,28.784 C62.57,28.784 62.198,28.712 61.922,28.592 C61.73,28.508 61.658,28.352 61.658,28.184 C61.658,28.088 61.682,27.98 61.73,27.884 C61.814,27.716 61.958,27.584 62.162,27.584 C62.222,27.584 62.294,27.596 62.378,27.632 C62.558,27.704 62.738,27.776 62.966,27.776 C63.554,27.776 63.818,27.368 63.818,26.624 L63.818,19.832 C63.818,19.52 64.046,19.364 64.37,19.364 C64.694,19.364 64.91,19.52 64.91,19.832 Z M64.346,16.652 C64.79,16.652 65.15,17 65.15,17.456 C65.15,17.924 64.79,18.272 64.346,18.272 C63.89,18.272 63.53,17.924 63.53,17.456 C63.53,17 63.89,16.652 64.346,16.652 Z M71.702,22.964 L67.478,22.964 C67.502,24.44 68.234,25.364 69.53,25.364 C70.394,25.364 70.874,24.932 71.162,24.296 C71.27,24.08 71.426,23.996 71.594,23.996 C71.678,23.996 71.762,24.02 71.846,24.044 C72.05,24.104 72.218,24.248 72.218,24.464 C72.218,24.536 72.206,24.608 72.158,24.68 C71.774,25.472 71.078,26.264 69.518,26.264 C67.55,26.264 66.41,24.872 66.41,22.796 C66.41,20.72 67.49,19.268 69.446,19.268 C71.198,19.268 72.182,20.636 72.302,22.208 L72.302,22.304 C72.302,22.736 72.074,22.964 71.702,22.964 Z M67.514,22.088 L71.03,22.088 C71.162,22.088 71.21,22.04 71.21,21.932 L71.21,21.872 C71.066,21.02 70.55,20.144 69.446,20.144 C68.294,20.144 67.67,20.912 67.514,22.088 Z M25.406,36.836 L25.406,36.32 C25.406,35.528 24.974,35.18 24.026,35.18 C23.15,35.18 22.718,35.516 22.514,36.068 C22.43,36.296 22.25,36.38 22.046,36.38 C21.95,36.38 21.854,36.368 21.77,36.332 C21.542,36.26 21.374,36.092 21.374,35.876 C21.374,35.828 21.386,35.78 21.398,35.732 C21.518,35.36 21.83,35.012 22.106,34.796 C22.526,34.472 23.066,34.268 24.038,34.268 C25.646,34.268 26.438,34.904 26.438,36.32 L26.438,39.596 C26.438,40.016 26.498,40.424 26.57,40.652 C26.582,40.688 26.594,40.736 26.594,40.772 C26.594,40.964 26.414,41.132 26.114,41.156 L26.006,41.156 C25.766,41.156 25.55,41.084 25.502,40.868 C25.466,40.724 25.442,40.508 25.43,40.268 C24.974,40.784 24.338,41.252 23.15,41.252 C21.83,41.252 21.026,40.508 21.026,39.272 C21.026,38.144 21.698,37.424 22.838,37.112 C23.498,36.932 24.122,36.86 25.406,36.836 Z M25.406,38.504 L25.406,37.7 C24.002,37.736 23.342,37.856 22.862,38.096 C22.382,38.336 22.13,38.708 22.13,39.284 C22.13,39.908 22.61,40.328 23.33,40.328 C24.086,40.328 24.71,39.956 25.094,39.476 C25.322,39.188 25.406,38.96 25.406,38.504 Z M27.914,37.784 C27.914,35.732 28.97,34.256 30.938,34.256 C32.522,34.256 33.17,35.132 33.47,35.888 C33.494,35.948 33.506,36.02 33.506,36.068 C33.506,36.296 33.326,36.44 33.146,36.512 C33.062,36.536 32.966,36.548 32.882,36.548 C32.702,36.548 32.546,36.476 32.462,36.272 C32.234,35.66 31.874,35.192 30.962,35.192 C29.714,35.192 29.03,36.248 29.03,37.772 C29.03,39.344 29.702,40.34 30.974,40.34 C31.91,40.34 32.282,39.884 32.51,39.236 C32.594,39.008 32.762,38.912 32.954,38.912 C33.038,38.912 33.122,38.924 33.206,38.96 C33.422,39.008 33.59,39.152 33.59,39.368 C33.59,39.44 33.578,39.5 33.542,39.584 C33.218,40.412 32.582,41.276 30.95,41.276 C29.006,41.276 27.914,39.848 27.914,37.784 Z M35.582,34.436 L35.582,32.984 C35.582,32.672 35.786,32.504 36.122,32.504 C36.434,32.504 36.662,32.672 36.662,32.984 L36.662,34.436 L38.198,34.436 C38.498,34.436 38.642,34.628 38.642,34.916 C38.642,35.192 38.486,35.384 38.198,35.384 L36.662,35.384 L36.662,39.404 C36.662,39.992 36.914,40.244 37.358,40.244 C37.658,40.244 37.862,40.16 38.066,40.04 C38.138,40.004 38.21,39.98 38.282,39.98 C38.462,39.98 38.606,40.112 38.678,40.292 C38.714,40.376 38.726,40.472 38.726,40.556 C38.726,40.724 38.654,40.892 38.474,40.988 C38.126,41.156 37.802,41.252 37.286,41.252 C36.302,41.252 35.582,40.76 35.582,39.5 L35.582,35.384 L34.646,35.384 C34.358,35.384 34.226,35.192 34.226,34.916 C34.226,34.64 34.358,34.436 34.658,34.436 L35.582,34.436 Z M39.71,40.676 L39.71,34.832 C39.71,34.52 39.914,34.364 40.25,34.364 C40.574,34.364 40.802,34.52 40.802,34.832 L40.802,40.676 C40.802,41 40.574,41.156 40.25,41.156 C39.914,41.156 39.71,41 39.71,40.676 Z M40.262,31.652 C40.706,31.652 41.066,32 41.066,32.456 C41.066,32.924 40.706,33.272 40.262,33.272 C39.806,33.272 39.446,32.924 39.446,32.456 C39.446,32 39.806,31.652 40.262,31.652 Z M45.47,38.42 L46.838,34.712 C46.934,34.472 47.102,34.364 47.318,34.364 C47.39,34.364 47.462,34.376 47.546,34.4 C47.786,34.472 47.942,34.628 47.942,34.856 C47.942,34.916 47.93,34.988 47.894,35.06 L45.686,40.676 C45.542,41.048 45.278,41.156 44.966,41.156 C44.642,41.156 44.39,41.036 44.246,40.664 L42.038,35.06 C42.014,34.988 42.002,34.928 42.002,34.868 C42.002,34.64 42.158,34.46 42.386,34.4 C42.47,34.376 42.554,34.364 42.626,34.364 C42.842,34.364 43.022,34.46 43.106,34.7 L44.498,38.48 C44.642,38.888 44.882,39.692 44.978,40.124 C45.086,39.68 45.314,38.828 45.47,38.42 Z M51.914,34.268 C53.834,34.268 54.962,35.66 54.962,37.748 C54.962,39.836 53.81,41.276 51.938,41.276 C49.958,41.276 48.806,39.884 48.806,37.748 C48.806,35.672 49.97,34.268 51.914,34.268 Z M51.95,35.192 C50.654,35.192 49.91,36.188 49.91,37.784 C49.91,39.308 50.63,40.352 51.866,40.352 C53.174,40.352 53.858,39.332 53.858,37.736 C53.858,36.224 53.174,35.192 51.95,35.192 Z M23.648,49.436 L23.648,47.984 C23.648,47.672 23.852,47.504 24.188,47.504 C24.5,47.504 24.728,47.672 24.728,47.984 L24.728,49.436 L26.264,49.436 C26.564,49.436 26.708,49.628 26.708,49.916 C26.708,50.192 26.552,50.384 26.264,50.384 L24.728,50.384 L24.728,54.404 C24.728,54.992 24.98,55.244 25.424,55.244 C25.724,55.244 25.928,55.16 26.132,55.04 C26.204,55.004 26.276,54.98 26.348,54.98 C26.528,54.98 26.672,55.112 26.744,55.292 C26.78,55.376 26.792,55.472 26.792,55.556 C26.792,55.724 26.72,55.892 26.54,55.988 C26.192,56.156 25.868,56.252 25.352,56.252 C24.368,56.252 23.648,55.76 23.648,54.5 L23.648,50.384 L22.712,50.384 C22.424,50.384 22.292,50.192 22.292,49.916 C22.292,49.64 22.424,49.436 22.724,49.436 L23.648,49.436 Z M27.464,48.2 L28.796,46.736 C28.88,46.652 28.988,46.616 29.096,46.616 C29.252,46.616 29.408,46.676 29.516,46.796 C29.636,46.916 29.708,47.06 29.708,47.204 C29.708,47.336 29.648,47.444 29.528,47.528 L27.896,48.656 C27.836,48.704 27.752,48.728 27.68,48.728 C27.596,48.728 27.512,48.692 27.44,48.62 C27.392,48.56 27.368,48.5 27.368,48.44 C27.368,48.356 27.404,48.272 27.464,48.2 Z M27.776,55.676 L27.776,49.832 C27.776,49.52 27.98,49.364 28.316,49.364 C28.64,49.364 28.868,49.52 28.868,49.832 L28.868,55.676 C28.868,56 28.64,56.156 28.316,56.156 C27.98,56.156 27.776,56 27.776,55.676 Z M31.652,55.568 L31.652,58.208 C31.652,58.508 31.448,58.676 31.124,58.676 C30.788,58.676 30.584,58.508 30.584,58.208 L30.584,49.832 C30.584,49.52 30.788,49.364 31.124,49.364 C31.424,49.364 31.652,49.508 31.652,49.808 L31.652,50.024 C31.652,50.192 31.64,50.48 31.604,50.684 C32.024,49.832 32.684,49.268 33.848,49.268 C35.648,49.268 36.668,50.576 36.668,52.712 C36.668,54.848 35.588,56.264 33.8,56.264 C32.684,56.264 32,55.712 31.592,54.872 C31.64,55.1 31.652,55.352 31.652,55.568 Z M33.692,50.204 C32.372,50.204 31.628,51.272 31.628,52.748 C31.628,54.236 32.408,55.316 33.668,55.316 C34.88,55.316 35.564,54.284 35.564,52.736 C35.564,51.176 34.904,50.204 33.692,50.204 Z M38.072,55.676 L38.072,49.832 C38.072,49.52 38.276,49.364 38.612,49.364 C38.936,49.364 39.164,49.52 39.164,49.832 L39.164,55.676 C39.164,56 38.936,56.156 38.612,56.156 C38.276,56.156 38.072,56 38.072,55.676 Z M38.624,46.652 C39.068,46.652 39.428,47 39.428,47.456 C39.428,47.924 39.068,48.272 38.624,48.272 C38.168,48.272 37.808,47.924 37.808,47.456 C37.808,47 38.168,46.652 38.624,46.652 Z M40.568,52.784 C40.568,50.732 41.624,49.256 43.592,49.256 C45.176,49.256 45.824,50.132 46.124,50.888 C46.148,50.948 46.16,51.02 46.16,51.068 C46.16,51.296 45.98,51.44 45.8,51.512 C45.716,51.536 45.62,51.548 45.536,51.548 C45.356,51.548 45.2,51.476 45.116,51.272 C44.888,50.66 44.528,50.192 43.616,50.192 C42.368,50.192 41.684,51.248 41.684,52.772 C41.684,54.344 42.356,55.34 43.628,55.34 C44.564,55.34 44.936,54.884 45.164,54.236 C45.248,54.008 45.416,53.912 45.608,53.912 C45.692,53.912 45.776,53.924 45.86,53.96 C46.076,54.008 46.244,54.152 46.244,54.368 C46.244,54.44 46.232,54.5 46.196,54.584 C45.872,55.412 45.236,56.276 43.604,56.276 C41.66,56.276 40.568,54.848 40.568,52.784 Z M50.324,49.268 C52.244,49.268 53.372,50.66 53.372,52.748 C53.372,54.836 52.22,56.276 50.348,56.276 C48.368,56.276 47.216,54.884 47.216,52.748 C47.216,50.672 48.38,49.268 50.324,49.268 Z M50.36,50.192 C49.064,50.192 48.32,51.188 48.32,52.784 C48.32,54.308 49.04,55.352 50.276,55.352 C51.584,55.352 52.268,54.332 52.268,52.736 C52.268,51.224 51.584,50.192 50.36,50.192 Z" id="Aprendizaje-activo-t-Copy" fill="#2F6070"></path>
            </g>
            <g id="CH" transform="translate(204.000000, 20.000000)">
                <g id="CH-Ellipse">
                    <use fill="black" fill-opacity="1" filter="url(#filter-7)" xlink:href="#path-6"></use>
                    <use fill="#CB4343" fill-rule="evenodd" xlink:href="#path-6"></use>
                </g>
                <path d="M14.704,44.556 C16.816,44.556 17.764,45.66 18.196,46.716 C18.232,46.8 18.244,46.884 18.244,46.956 C18.244,47.208 18.052,47.376 17.872,47.436 C17.776,47.472 17.68,47.484 17.584,47.484 C17.38,47.484 17.188,47.4 17.08,47.172 C16.72,46.308 16.12,45.6 14.752,45.6 C12.952,45.6 11.764,47.052 11.764,49.416 C11.764,51.732 12.952,53.22 14.752,53.22 C16.192,53.22 16.876,52.356 17.188,51.396 C17.284,51.132 17.5,51.024 17.728,51.024 C17.8,51.024 17.884,51.036 17.968,51.06 C18.172,51.108 18.388,51.288 18.388,51.54 C18.388,51.612 18.376,51.672 18.352,51.744 C17.932,52.932 16.924,54.276 14.788,54.276 C12.208,54.276 10.564,52.392 10.564,49.404 C10.564,46.488 12.208,44.556 14.704,44.556 Z M25.216,49.608 L25.216,53.676 C25.216,54 24.976,54.156 24.664,54.156 C24.34,54.156 24.124,54 24.124,53.676 L24.124,49.836 C24.124,48.816 23.704,48.252 22.804,48.252 C22.132,48.252 21.604,48.564 21.208,49.092 C20.908,49.5 20.776,49.848 20.776,50.316 L20.776,53.676 C20.776,54 20.572,54.156 20.26,54.156 C19.924,54.156 19.696,54 19.696,53.676 L19.696,45.132 C19.696,44.82 19.924,44.664 20.26,44.664 C20.572,44.664 20.776,44.808 20.776,45.132 L20.776,48.144 C20.776,48.3 20.728,48.576 20.704,48.756 C21.1,47.904 21.76,47.268 23.02,47.268 C24.448,47.268 25.216,48.132 25.216,49.608 Z M30.952,49.836 L30.952,49.32 C30.952,48.528 30.52,48.18 29.572,48.18 C28.696,48.18 28.264,48.516 28.06,49.068 C27.976,49.296 27.796,49.38 27.592,49.38 C27.496,49.38 27.4,49.368 27.316,49.332 C27.088,49.26 26.92,49.092 26.92,48.876 C26.92,48.828 26.932,48.78 26.944,48.732 C27.064,48.36 27.376,48.012 27.652,47.796 C28.072,47.472 28.612,47.268 29.584,47.268 C31.192,47.268 31.984,47.904 31.984,49.32 L31.984,52.596 C31.984,53.016 32.044,53.424 32.116,53.652 C32.128,53.688 32.14,53.736 32.14,53.772 C32.14,53.964 31.96,54.132 31.66,54.156 L31.552,54.156 C31.312,54.156 31.096,54.084 31.048,53.868 C31.012,53.724 30.988,53.508 30.976,53.268 C30.52,53.784 29.884,54.252 28.696,54.252 C27.376,54.252 26.572,53.508 26.572,52.272 C26.572,51.144 27.244,50.424 28.384,50.112 C29.044,49.932 29.668,49.86 30.952,49.836 Z M30.952,51.504 L30.952,50.7 C29.548,50.736 28.888,50.856 28.408,51.096 C27.928,51.336 27.676,51.708 27.676,52.284 C27.676,52.908 28.156,53.328 28.876,53.328 C29.632,53.328 30.256,52.956 30.64,52.476 C30.868,52.188 30.952,51.96 30.952,51.504 Z M33.76,53.676 L33.76,45.144 C33.76,44.82 33.976,44.664 34.312,44.664 C34.636,44.664 34.852,44.82 34.852,45.144 L34.852,53.676 C34.852,54 34.636,54.156 34.312,54.156 C33.976,54.156 33.76,54 33.76,53.676 Z M36.556,53.676 L36.556,45.144 C36.556,44.82 36.772,44.664 37.108,44.664 C37.432,44.664 37.648,44.82 37.648,45.144 L37.648,53.676 C37.648,54 37.432,54.156 37.108,54.156 C36.772,54.156 36.556,54 36.556,53.676 Z M44.344,50.964 L40.12,50.964 C40.144,52.44 40.876,53.364 42.172,53.364 C43.036,53.364 43.516,52.932 43.804,52.296 C43.912,52.08 44.068,51.996 44.236,51.996 C44.32,51.996 44.404,52.02 44.488,52.044 C44.692,52.104 44.86,52.248 44.86,52.464 C44.86,52.536 44.848,52.608 44.8,52.68 C44.416,53.472 43.72,54.264 42.16,54.264 C40.192,54.264 39.052,52.872 39.052,50.796 C39.052,48.72 40.132,47.268 42.088,47.268 C43.84,47.268 44.824,48.636 44.944,50.208 L44.944,50.304 C44.944,50.736 44.716,50.964 44.344,50.964 Z M40.156,50.088 L43.672,50.088 C43.804,50.088 43.852,50.04 43.852,49.932 L43.852,49.872 C43.708,49.02 43.192,48.144 42.088,48.144 C40.936,48.144 40.312,48.912 40.156,50.088 Z M51.772,49.608 L51.772,53.676 C51.772,54 51.532,54.156 51.22,54.156 C50.896,54.156 50.668,54 50.668,53.676 L50.668,49.836 C50.668,48.816 50.26,48.24 49.36,48.24 C48.712,48.24 48.172,48.528 47.764,49.092 C47.464,49.5 47.344,49.848 47.344,50.316 L47.344,53.676 C47.344,54 47.116,54.156 46.804,54.156 C46.468,54.156 46.252,54 46.252,53.676 L46.252,47.832 C46.252,47.52 46.48,47.364 46.816,47.364 C47.128,47.364 47.344,47.52 47.344,47.832 L47.344,48.156 C47.344,48.312 47.308,48.432 47.296,48.66 C47.716,47.808 48.436,47.268 49.576,47.268 C51.004,47.268 51.772,48.132 51.772,49.608 Z M58.12,48.156 L58.12,47.796 C58.12,47.544 58.288,47.364 58.636,47.364 C58.96,47.364 59.152,47.52 59.152,47.844 L59.152,53.4 C59.152,56.16 57.7,56.784 56.116,56.784 C54.82,56.784 53.992,56.352 53.536,55.764 C53.476,55.68 53.44,55.596 53.44,55.5 C53.44,55.344 53.524,55.188 53.668,55.08 C53.764,55.008 53.896,54.96 54.016,54.96 C54.148,54.96 54.268,55.008 54.364,55.116 C54.808,55.632 55.336,55.884 56.068,55.884 C57.568,55.884 58.108,55.128 58.12,53.352 C58.12,53.208 58.144,52.944 58.168,52.776 C57.772,53.532 57.088,54.06 56.032,54.06 C54.328,54.06 53.14,52.74 53.14,50.736 C53.14,48.672 54.208,47.28 56.056,47.28 C57.148,47.28 57.832,47.88 58.168,48.648 C58.156,48.516 58.12,48.288 58.12,48.156 Z M56.188,48.192 C54.964,48.192 54.244,49.188 54.244,50.736 C54.244,52.26 55.06,53.184 56.176,53.184 C57.4,53.184 58.144,52.14 58.144,50.652 C58.144,49.224 57.412,48.192 56.188,48.192 Z M65.848,50.964 L61.624,50.964 C61.648,52.44 62.38,53.364 63.676,53.364 C64.54,53.364 65.02,52.932 65.308,52.296 C65.416,52.08 65.572,51.996 65.74,51.996 C65.824,51.996 65.908,52.02 65.992,52.044 C66.196,52.104 66.364,52.248 66.364,52.464 C66.364,52.536 66.352,52.608 66.304,52.68 C65.92,53.472 65.224,54.264 63.664,54.264 C61.696,54.264 60.556,52.872 60.556,50.796 C60.556,48.72 61.636,47.268 63.592,47.268 C65.344,47.268 66.328,48.636 66.448,50.208 L66.448,50.304 C66.448,50.736 66.22,50.964 65.848,50.964 Z M61.66,50.088 L65.176,50.088 C65.308,50.088 65.356,50.04 65.356,49.932 L65.356,49.872 C65.212,49.02 64.696,48.144 63.592,48.144 C62.44,48.144 61.816,48.912 61.66,50.088 Z M74.212,48.648 L74.212,45.156 C74.212,44.82 74.464,44.664 74.812,44.664 C75.124,44.664 75.364,44.82 75.364,45.156 L75.364,53.664 C75.364,53.988 75.124,54.156 74.812,54.156 C74.464,54.156 74.212,53.988 74.212,53.664 L74.212,49.692 L69.1,49.692 L69.1,53.664 C69.1,53.988 68.848,54.156 68.524,54.156 C68.188,54.156 67.948,53.988 67.948,53.664 L67.948,45.156 C67.948,44.82 68.188,44.664 68.524,44.664 C68.848,44.664 69.1,44.82 69.1,45.156 L69.1,48.648 L74.212,48.648 Z M77.236,51.912 L77.236,47.844 C77.236,47.52 77.464,47.364 77.788,47.364 C78.112,47.364 78.34,47.52 78.34,47.844 L78.34,51.684 C78.34,52.716 78.76,53.292 79.648,53.292 C80.284,53.292 80.8,52.992 81.208,52.428 C81.496,52.02 81.616,51.648 81.616,51.18 L81.616,47.844 C81.616,47.52 81.844,47.364 82.168,47.364 C82.48,47.364 82.708,47.52 82.708,47.844 L82.708,53.676 C82.708,54 82.492,54.156 82.18,54.156 C81.856,54.156 81.628,54.012 81.628,53.712 L81.628,53.376 C81.628,53.244 81.664,53.004 81.7,52.812 C81.328,53.652 80.632,54.264 79.432,54.264 C78.016,54.264 77.236,53.376 77.236,51.912 Z M85.504,53.46 L85.504,53.712 C85.504,53.976 85.324,54.156 84.976,54.156 C84.64,54.156 84.436,54 84.436,53.676 L84.436,45.144 C84.436,44.82 84.64,44.664 84.976,44.664 C85.288,44.664 85.504,44.82 85.504,45.144 L85.504,47.76 C85.504,48.012 85.48,48.36 85.444,48.636 C85.888,47.784 86.596,47.268 87.7,47.268 C89.5,47.268 90.532,48.588 90.532,50.724 C90.532,52.836 89.44,54.264 87.664,54.264 C86.56,54.264 85.84,53.724 85.456,52.884 C85.48,53.064 85.504,53.304 85.504,53.46 Z M87.556,48.204 C86.236,48.204 85.48,49.272 85.48,50.748 C85.48,52.236 86.26,53.316 87.52,53.316 C88.732,53.316 89.428,52.284 89.428,50.736 C89.428,49.176 88.756,48.204 87.556,48.204 Z" id="ChallengeHub-Copy-3" fill="#FFFFFF"></path>
            </g>
        </g>
    </g>
</svg>