<?xml version="1.0" encoding="UTF-8"?>
<svg width="334px" height="263px" viewBox="0 0 334 263" version="1.1" xmlns="http://www.w3.org/2000/svg" xmlns:xlink="http://www.w3.org/1999/xlink">
    <!-- Generator: Sketch 48.2 (47327) - http://www.bohemiancoding.com/sketch -->
    <title>effort-efficiency</title>
    <desc>Created with Sketch.</desc>
    <defs>
        <linearGradient x1="50%" y1="1.2236926%" x2="50%" y2="100%" id="linearGradient-1">
            <stop stop-color="#76C9AC" offset="0%"></stop>
            <stop stop-color="#D2EADC" offset="100%"></stop>
        </linearGradient>
        <path d="M0.73132,32.3384 C0.73132,14.630667 21.09103,0.275717 46.20605,0.275717 C71.32107,0.275717 91.68078,14.630667 91.68078,32.3384 C91.68078,50.046133 71.32107,64.401083 46.20605,64.401083 C21.09103,64.401083 0.73132,50.046133 0.73132,32.3384 Z" id="path-2"></path>
        <filter x="-7.7%" y="-7.8%" width="115.4%" height="121.8%" filterUnits="objectBoundingBox" id="filter-3">
            <feOffset dx="0" dy="2" in="SourceAlpha" result="shadowOffsetOuter1"></feOffset>
            <feGaussianBlur stdDeviation="2" in="shadowOffsetOuter1" result="shadowBlurOuter1"></feGaussianBlur>
            <feColorMatrix values="0 0 0 0 0.184313725   0 0 0 0 0.376470588   0 0 0 0 0.439215686  0 0 0 1 0" type="matrix" in="shadowBlurOuter1"></feColorMatrix>
        </filter>
        <path d="M0.0027,32.26157 C0.0027,14.553837 16.969192,0.198887 37.89833,0.198887 C58.82753,0.198887 75.79396,14.553837 75.79396,32.26157 C75.79396,49.969303 58.82753,64.324253 37.89833,64.324253 C16.969192,64.324253 0.0027,49.969303 0.0027,32.26157 Z" id="path-4"></path>
        <filter x="-9.2%" y="-7.8%" width="118.5%" height="121.8%" filterUnits="objectBoundingBox" id="filter-5">
            <feOffset dx="0" dy="2" in="SourceAlpha" result="shadowOffsetOuter1"></feOffset>
            <feGaussianBlur stdDeviation="2" in="shadowOffsetOuter1" result="shadowBlurOuter1"></feGaussianBlur>
            <feColorMatrix values="0 0 0 0 0.184313725   0 0 0 0 0.376470588   0 0 0 0 0.439215686  0 0 0 1 0" type="matrix" in="shadowBlurOuter1"></feColorMatrix>
        </filter>
        <path d="M0.0027,47.8966 C0.0027,21.67782 22.62886,0.423303 50.539626,0.423303 C63.942885,0.423303 76.797133,5.424951 86.274672,14.327905 C95.75215,23.23089 101.076552,35.305902 101.076552,47.8966 C101.076552,74.11538 78.450392,95.369897 50.539626,95.369897 C22.628859,95.369897 0.0027,74.11538 0.0027,47.8966 Z" id="path-6"></path>
        <filter x="-6.9%" y="-5.3%" width="113.9%" height="114.7%" filterUnits="objectBoundingBox" id="filter-7">
            <feOffset dx="0" dy="2" in="SourceAlpha" result="shadowOffsetOuter1"></feOffset>
            <feGaussianBlur stdDeviation="2" in="shadowOffsetOuter1" result="shadowBlurOuter1"></feGaussianBlur>
            <feColorMatrix values="0 0 0 0 0.184313725   0 0 0 0 0.376470588   0 0 0 0 0.439215686  0 0 0 1 0" type="matrix" in="shadowBlurOuter1"></feColorMatrix>
        </filter>
        <linearGradient x1="50%" y1="0%" x2="50%" y2="100%" id="linearGradient-8">
            <stop stop-color="#CB4343" offset="0%"></stop>
            <stop stop-color="#F1B182" offset="100%"></stop>
        </linearGradient>
        <path d="M7.90070581,17.936802 L2.90070581,17.936802 L11.9007058,0.936802026 L20.9007058,17.936802 L14.9007058,17.936802 L14.9007058,74.936802 L7.90070581,74.936802 L7.90070581,17.936802 Z" id="path-9"></path>
        <filter x="-30.6%" y="-7.4%" width="172.2%" height="117.6%" filterUnits="objectBoundingBox" id="filter-10">
            <feOffset dx="1" dy="1" in="SourceAlpha" result="shadowOffsetOuter1"></feOffset>
            <feGaussianBlur stdDeviation="2" in="shadowOffsetOuter1" result="shadowBlurOuter1"></feGaussianBlur>
            <feColorMatrix values="0 0 0 0 0.184313725   0 0 0 0 0.376470588   0 0 0 0 0.439215686  0 0 0 1 0" type="matrix" in="shadowBlurOuter1"></feColorMatrix>
        </filter>
    </defs>
    <g id="Page-1" stroke="none" stroke-width="1" fill="none" fill-rule="evenodd">
        <g id="en" transform="translate(-3.000000, -3.000000)">
            <g id="Axis">
                <polygon id="Background" fill="url(#linearGradient-1)" points="4.32079797e-14 0 339 0 339 270 0 270"></polygon>
                <path d="M29.23666,16.5 L29.23666,240.45009" id="y-Axis" stroke="#2F6070" stroke-linejoin="round"></path>
                <path d="M29,240 L323.5,240" id="x-Axis" stroke="#2F6070" stroke-linejoin="round"></path>
                <path d="M110.888,253.8 L110.888,246.18 C110.888,245.82 111.14,245.664 111.464,245.664 C111.8,245.664 112.04,245.82 112.04,246.168 L112.04,253.584 C112.04,253.86 112.196,254.004 112.472,254.004 L116.72,254.004 C117.032,254.004 117.212,254.232 117.212,254.532 C117.212,254.82 117.032,255.084 116.72,255.084 L112.112,255.084 C111.26,255.084 110.888,254.712 110.888,253.8 Z M123.212,251.964 L118.988,251.964 C119.012,253.44 119.744,254.364 121.04,254.364 C121.904,254.364 122.384,253.932 122.672,253.296 C122.78,253.08 122.936,252.996 123.104,252.996 C123.188,252.996 123.272,253.02 123.356,253.044 C123.56,253.104 123.728,253.248 123.728,253.464 C123.728,253.536 123.716,253.608 123.668,253.68 C123.284,254.472 122.588,255.264 121.028,255.264 C119.06,255.264 117.92,253.872 117.92,251.796 C117.92,249.72 119,248.268 120.956,248.268 C122.708,248.268 123.692,249.636 123.812,251.208 L123.812,251.304 C123.812,251.736 123.584,251.964 123.212,251.964 Z M119.024,251.088 L122.54,251.088 C122.672,251.088 122.72,251.04 122.72,250.932 L122.72,250.872 C122.576,250.02 122.06,249.144 120.956,249.144 C119.804,249.144 119.18,249.912 119.024,251.088 Z M129.176,250.836 L129.176,250.32 C129.176,249.528 128.744,249.18 127.796,249.18 C126.92,249.18 126.488,249.516 126.284,250.068 C126.2,250.296 126.02,250.38 125.816,250.38 C125.72,250.38 125.624,250.368 125.54,250.332 C125.312,250.26 125.144,250.092 125.144,249.876 C125.144,249.828 125.156,249.78 125.168,249.732 C125.288,249.36 125.6,249.012 125.876,248.796 C126.296,248.472 126.836,248.268 127.808,248.268 C129.416,248.268 130.208,248.904 130.208,250.32 L130.208,253.596 C130.208,254.016 130.268,254.424 130.34,254.652 C130.352,254.688 130.364,254.736 130.364,254.772 C130.364,254.964 130.184,255.132 129.884,255.156 L129.776,255.156 C129.536,255.156 129.32,255.084 129.272,254.868 C129.236,254.724 129.212,254.508 129.2,254.268 C128.744,254.784 128.108,255.252 126.92,255.252 C125.6,255.252 124.796,254.508 124.796,253.272 C124.796,252.144 125.468,251.424 126.608,251.112 C127.268,250.932 127.892,250.86 129.176,250.836 Z M129.176,252.504 L129.176,251.7 C127.772,251.736 127.112,251.856 126.632,252.096 C126.152,252.336 125.9,252.708 125.9,253.284 C125.9,253.908 126.38,254.328 127.1,254.328 C127.856,254.328 128.48,253.956 128.864,253.476 C129.092,253.188 129.176,252.96 129.176,252.504 Z M132.164,254.676 L132.164,248.832 C132.164,248.52 132.392,248.364 132.728,248.364 C133.028,248.364 133.268,248.52 133.268,248.832 L133.268,249.096 C133.268,249.264 133.22,249.468 133.196,249.66 C133.388,249.084 134,248.34 135.032,248.304 C135.128,248.292 135.212,248.292 135.296,248.292 C135.476,248.292 135.608,248.316 135.776,248.352 C136.052,248.388 136.16,248.556 136.16,248.784 C136.16,248.844 136.148,248.916 136.136,248.988 C136.088,249.24 135.92,249.456 135.668,249.456 C135.632,249.456 135.596,249.456 135.56,249.444 C135.392,249.408 135.236,249.372 134.984,249.372 C134.468,249.384 134.072,249.648 133.772,250.032 C133.46,250.416 133.28,250.86 133.268,251.364 L133.268,254.676 C133.268,255 133.028,255.156 132.728,255.156 C132.392,255.156 132.164,255 132.164,254.676 Z M142.7,250.608 L142.7,254.676 C142.7,255 142.46,255.156 142.148,255.156 C141.824,255.156 141.596,255 141.596,254.676 L141.596,250.836 C141.596,249.816 141.188,249.24 140.288,249.24 C139.64,249.24 139.1,249.528 138.692,250.092 C138.392,250.5 138.272,250.848 138.272,251.316 L138.272,254.676 C138.272,255 138.044,255.156 137.732,255.156 C137.396,255.156 137.18,255 137.18,254.676 L137.18,248.832 C137.18,248.52 137.408,248.364 137.744,248.364 C138.056,248.364 138.272,248.52 138.272,248.832 L138.272,249.156 C138.272,249.312 138.236,249.432 138.224,249.66 C138.644,248.808 139.364,248.268 140.504,248.268 C141.932,248.268 142.7,249.132 142.7,250.608 Z M144.38,254.676 L144.38,248.832 C144.38,248.52 144.584,248.364 144.92,248.364 C145.244,248.364 145.472,248.52 145.472,248.832 L145.472,254.676 C145.472,255 145.244,255.156 144.92,255.156 C144.584,255.156 144.38,255 144.38,254.676 Z M144.932,245.652 C145.376,245.652 145.736,246 145.736,246.456 C145.736,246.924 145.376,247.272 144.932,247.272 C144.476,247.272 144.116,246.924 144.116,246.456 C144.116,246 144.476,245.652 144.932,245.652 Z M152.708,250.608 L152.708,254.676 C152.708,255 152.468,255.156 152.156,255.156 C151.832,255.156 151.604,255 151.604,254.676 L151.604,250.836 C151.604,249.816 151.196,249.24 150.296,249.24 C149.648,249.24 149.108,249.528 148.7,250.092 C148.4,250.5 148.28,250.848 148.28,251.316 L148.28,254.676 C148.28,255 148.052,255.156 147.74,255.156 C147.404,255.156 147.188,255 147.188,254.676 L147.188,248.832 C147.188,248.52 147.416,248.364 147.752,248.364 C148.064,248.364 148.28,248.52 148.28,248.832 L148.28,249.156 C148.28,249.312 148.244,249.432 148.232,249.66 C148.652,248.808 149.372,248.268 150.512,248.268 C151.94,248.268 152.708,249.132 152.708,250.608 Z M159.056,249.156 L159.056,248.796 C159.056,248.544 159.224,248.364 159.572,248.364 C159.896,248.364 160.088,248.52 160.088,248.844 L160.088,254.4 C160.088,257.16 158.636,257.784 157.052,257.784 C155.756,257.784 154.928,257.352 154.472,256.764 C154.412,256.68 154.376,256.596 154.376,256.5 C154.376,256.344 154.46,256.188 154.604,256.08 C154.7,256.008 154.832,255.96 154.952,255.96 C155.084,255.96 155.204,256.008 155.3,256.116 C155.744,256.632 156.272,256.884 157.004,256.884 C158.504,256.884 159.044,256.128 159.056,254.352 C159.056,254.208 159.08,253.944 159.104,253.776 C158.708,254.532 158.024,255.06 156.968,255.06 C155.264,255.06 154.076,253.74 154.076,251.736 C154.076,249.672 155.144,248.28 156.992,248.28 C158.084,248.28 158.768,248.88 159.104,249.648 C159.092,249.516 159.056,249.288 159.056,249.156 Z M157.124,249.192 C155.9,249.192 155.18,250.188 155.18,251.736 C155.18,253.26 155.996,254.184 157.112,254.184 C158.336,254.184 159.08,253.14 159.08,251.652 C159.08,250.224 158.348,249.192 157.124,249.192 Z M170.78,251.964 L166.556,251.964 C166.58,253.44 167.312,254.364 168.608,254.364 C169.472,254.364 169.952,253.932 170.24,253.296 C170.348,253.08 170.504,252.996 170.672,252.996 C170.756,252.996 170.84,253.02 170.924,253.044 C171.128,253.104 171.296,253.248 171.296,253.464 C171.296,253.536 171.284,253.608 171.236,253.68 C170.852,254.472 170.156,255.264 168.596,255.264 C166.628,255.264 165.488,253.872 165.488,251.796 C165.488,249.72 166.568,248.268 168.524,248.268 C170.276,248.268 171.26,249.636 171.38,251.208 L171.38,251.304 C171.38,251.736 171.152,251.964 170.78,251.964 Z M166.592,251.088 L170.108,251.088 C170.24,251.088 170.288,251.04 170.288,250.932 L170.288,250.872 C170.144,250.02 169.628,249.144 168.524,249.144 C167.372,249.144 166.748,249.912 166.592,251.088 Z M177.44,249.384 L174.572,249.384 L174.572,254.676 C174.572,255 174.344,255.156 174.032,255.156 C173.708,255.156 173.492,255 173.492,254.676 L173.492,249.384 L172.472,249.384 C172.172,249.384 172.04,249.18 172.04,248.904 C172.04,248.628 172.172,248.436 172.472,248.436 L173.492,248.436 L173.492,247.572 C173.492,246.024 174.44,245.604 175.352,245.604 C175.748,245.604 176.048,245.628 176.384,245.736 C176.612,245.808 176.696,245.988 176.696,246.18 C176.696,246.252 176.684,246.324 176.66,246.396 C176.588,246.6 176.408,246.756 176.192,246.756 C176.144,246.756 176.072,246.744 176.012,246.72 C175.808,246.636 175.604,246.6 175.352,246.6 C174.908,246.6 174.572,246.84 174.572,247.704 L174.572,248.436 L177.44,248.436 L177.44,247.572 C177.44,246.024 178.388,245.604 179.3,245.604 C179.696,245.604 179.996,245.628 180.332,245.736 C180.56,245.808 180.644,245.988 180.644,246.18 C180.644,246.252 180.632,246.324 180.608,246.396 C180.536,246.6 180.356,246.756 180.14,246.756 C180.092,246.756 180.02,246.744 179.96,246.72 C179.756,246.636 179.552,246.6 179.3,246.6 C178.856,246.6 178.52,246.84 178.52,247.704 L178.52,248.436 L179.972,248.436 C180.272,248.436 180.404,248.616 180.404,248.904 C180.404,249.18 180.272,249.384 179.972,249.384 L178.52,249.384 L178.52,254.676 C178.52,255 178.292,255.156 177.98,255.156 C177.656,255.156 177.44,255 177.44,254.676 L177.44,249.384 Z M186.416,251.964 L182.192,251.964 C182.216,253.44 182.948,254.364 184.244,254.364 C185.108,254.364 185.588,253.932 185.876,253.296 C185.984,253.08 186.14,252.996 186.308,252.996 C186.392,252.996 186.476,253.02 186.56,253.044 C186.764,253.104 186.932,253.248 186.932,253.464 C186.932,253.536 186.92,253.608 186.872,253.68 C186.488,254.472 185.792,255.264 184.232,255.264 C182.264,255.264 181.124,253.872 181.124,251.796 C181.124,249.72 182.204,248.268 184.16,248.268 C185.912,248.268 186.896,249.636 187.016,251.208 L187.016,251.304 C187.016,251.736 186.788,251.964 186.416,251.964 Z M182.228,251.088 L185.744,251.088 C185.876,251.088 185.924,251.04 185.924,250.932 L185.924,250.872 C185.78,250.02 185.264,249.144 184.16,249.144 C183.008,249.144 182.384,249.912 182.228,251.088 Z M188.012,251.784 C188.012,249.732 189.068,248.256 191.036,248.256 C192.62,248.256 193.268,249.132 193.568,249.888 C193.592,249.948 193.604,250.02 193.604,250.068 C193.604,250.296 193.424,250.44 193.244,250.512 C193.16,250.536 193.064,250.548 192.98,250.548 C192.8,250.548 192.644,250.476 192.56,250.272 C192.332,249.66 191.972,249.192 191.06,249.192 C189.812,249.192 189.128,250.248 189.128,251.772 C189.128,253.344 189.8,254.34 191.072,254.34 C192.008,254.34 192.38,253.884 192.608,253.236 C192.692,253.008 192.86,252.912 193.052,252.912 C193.136,252.912 193.22,252.924 193.304,252.96 C193.52,253.008 193.688,253.152 193.688,253.368 C193.688,253.44 193.676,253.5 193.64,253.584 C193.316,254.412 192.68,255.276 191.048,255.276 C189.104,255.276 188.012,253.848 188.012,251.784 Z M195.68,248.436 L195.68,246.984 C195.68,246.672 195.884,246.504 196.22,246.504 C196.532,246.504 196.76,246.672 196.76,246.984 L196.76,248.436 L198.296,248.436 C198.596,248.436 198.74,248.628 198.74,248.916 C198.74,249.192 198.584,249.384 198.296,249.384 L196.76,249.384 L196.76,253.404 C196.76,253.992 197.012,254.244 197.456,254.244 C197.756,254.244 197.96,254.16 198.164,254.04 C198.236,254.004 198.308,253.98 198.38,253.98 C198.56,253.98 198.704,254.112 198.776,254.292 C198.812,254.376 198.824,254.472 198.824,254.556 C198.824,254.724 198.752,254.892 198.572,254.988 C198.224,255.156 197.9,255.252 197.384,255.252 C196.4,255.252 195.68,254.76 195.68,253.5 L195.68,249.384 L194.744,249.384 C194.456,249.384 194.324,249.192 194.324,248.916 C194.324,248.64 194.456,248.436 194.756,248.436 L195.68,248.436 Z M199.808,254.676 L199.808,248.832 C199.808,248.52 200.012,248.364 200.348,248.364 C200.672,248.364 200.9,248.52 200.9,248.832 L200.9,254.676 C200.9,255 200.672,255.156 200.348,255.156 C200.012,255.156 199.808,255 199.808,254.676 Z M200.36,245.652 C200.804,245.652 201.164,246 201.164,246.456 C201.164,246.924 200.804,247.272 200.36,247.272 C199.904,247.272 199.544,246.924 199.544,246.456 C199.544,246 199.904,245.652 200.36,245.652 Z M205.568,252.42 L206.936,248.712 C207.032,248.472 207.2,248.364 207.416,248.364 C207.488,248.364 207.56,248.376 207.644,248.4 C207.884,248.472 208.04,248.628 208.04,248.856 C208.04,248.916 208.028,248.988 207.992,249.06 L205.784,254.676 C205.64,255.048 205.376,255.156 205.064,255.156 C204.74,255.156 204.488,255.036 204.344,254.664 L202.136,249.06 C202.112,248.988 202.1,248.928 202.1,248.868 C202.1,248.64 202.256,248.46 202.484,248.4 C202.568,248.376 202.652,248.364 202.724,248.364 C202.94,248.364 203.12,248.46 203.204,248.7 L204.596,252.48 C204.74,252.888 204.98,253.692 205.076,254.124 C205.184,253.68 205.412,252.828 205.568,252.42 Z M214.196,251.964 L209.972,251.964 C209.996,253.44 210.728,254.364 212.024,254.364 C212.888,254.364 213.368,253.932 213.656,253.296 C213.764,253.08 213.92,252.996 214.088,252.996 C214.172,252.996 214.256,253.02 214.34,253.044 C214.544,253.104 214.712,253.248 214.712,253.464 C214.712,253.536 214.7,253.608 214.652,253.68 C214.268,254.472 213.572,255.264 212.012,255.264 C210.044,255.264 208.904,253.872 208.904,251.796 C208.904,249.72 209.984,248.268 211.94,248.268 C213.692,248.268 214.676,249.636 214.796,251.208 L214.796,251.304 C214.796,251.736 214.568,251.964 214.196,251.964 Z M210.008,251.088 L213.524,251.088 C213.656,251.088 213.704,251.04 213.704,250.932 L213.704,250.872 C213.56,250.02 213.044,249.144 211.94,249.144 C210.788,249.144 210.164,249.912 210.008,251.088 Z M221.624,250.608 L221.624,254.676 C221.624,255 221.384,255.156 221.072,255.156 C220.748,255.156 220.52,255 220.52,254.676 L220.52,250.836 C220.52,249.816 220.112,249.24 219.212,249.24 C218.564,249.24 218.024,249.528 217.616,250.092 C217.316,250.5 217.196,250.848 217.196,251.316 L217.196,254.676 C217.196,255 216.968,255.156 216.656,255.156 C216.32,255.156 216.104,255 216.104,254.676 L216.104,248.832 C216.104,248.52 216.332,248.364 216.668,248.364 C216.98,248.364 217.196,248.52 217.196,248.832 L217.196,249.156 C217.196,249.312 217.16,249.432 217.148,249.66 C217.568,248.808 218.288,248.268 219.428,248.268 C220.856,248.268 221.624,249.132 221.624,250.608 Z M228.284,251.964 L224.06,251.964 C224.084,253.44 224.816,254.364 226.112,254.364 C226.976,254.364 227.456,253.932 227.744,253.296 C227.852,253.08 228.008,252.996 228.176,252.996 C228.26,252.996 228.344,253.02 228.428,253.044 C228.632,253.104 228.8,253.248 228.8,253.464 C228.8,253.536 228.788,253.608 228.74,253.68 C228.356,254.472 227.66,255.264 226.1,255.264 C224.132,255.264 222.992,253.872 222.992,251.796 C222.992,249.72 224.072,248.268 226.028,248.268 C227.78,248.268 228.764,249.636 228.884,251.208 L228.884,251.304 C228.884,251.736 228.656,251.964 228.284,251.964 Z M224.096,251.088 L227.612,251.088 C227.744,251.088 227.792,251.04 227.792,250.932 L227.792,250.872 C227.648,250.02 227.132,249.144 226.028,249.144 C224.876,249.144 224.252,249.912 224.096,251.088 Z M232.772,252.168 L232.088,252.036 C230.612,251.748 230,251.232 230,250.092 C230,249 230.936,248.256 232.484,248.256 C233.816,248.256 234.668,248.82 234.968,249.696 C234.98,249.744 234.992,249.792 234.992,249.84 C234.992,250.068 234.788,250.224 234.572,250.284 C234.512,250.296 234.44,250.308 234.38,250.308 C234.164,250.308 233.948,250.212 233.888,249.984 C233.732,249.444 233.204,249.168 232.52,249.168 C231.548,249.168 231.092,249.564 231.092,250.068 C231.092,250.62 231.32,250.86 232.328,251.076 L233.072,251.232 C234.632,251.556 235.256,252.012 235.256,253.272 C235.256,254.424 234.272,255.276 232.592,255.276 C231.056,255.276 230.156,254.664 229.844,253.596 C229.832,253.536 229.82,253.488 229.82,253.44 C229.82,253.2 230.024,253.032 230.252,252.984 C230.312,252.972 230.372,252.96 230.42,252.96 C230.648,252.96 230.864,253.056 230.936,253.284 C231.152,253.98 231.644,254.328 232.592,254.328 C233.552,254.328 234.176,253.908 234.176,253.296 C234.176,252.708 233.864,252.384 232.772,252.168 Z M239.192,252.168 L238.508,252.036 C237.032,251.748 236.42,251.232 236.42,250.092 C236.42,249 237.356,248.256 238.904,248.256 C240.236,248.256 241.088,248.82 241.388,249.696 C241.4,249.744 241.412,249.792 241.412,249.84 C241.412,250.068 241.208,250.224 240.992,250.284 C240.932,250.296 240.86,250.308 240.8,250.308 C240.584,250.308 240.368,250.212 240.308,249.984 C240.152,249.444 239.624,249.168 238.94,249.168 C237.968,249.168 237.512,249.564 237.512,250.068 C237.512,250.62 237.74,250.86 238.748,251.076 L239.492,251.232 C241.052,251.556 241.676,252.012 241.676,253.272 C241.676,254.424 240.692,255.276 239.012,255.276 C237.476,255.276 236.576,254.664 236.264,253.596 C236.252,253.536 236.24,253.488 236.24,253.44 C236.24,253.2 236.444,253.032 236.672,252.984 C236.732,252.972 236.792,252.96 236.84,252.96 C237.068,252.96 237.284,253.056 237.356,253.284 C237.572,253.98 238.064,254.328 239.012,254.328 C239.972,254.328 240.596,253.908 240.596,253.296 C240.596,252.708 240.284,252.384 239.192,252.168 Z" id="Learning-effectivene-Copy" fill="#2F6070"></path>
                <path d="M-35.71,126.292 L-38.434,126.292 C-38.734,126.292 -38.902,126.052 -38.902,125.776 C-38.902,125.488 -38.734,125.236 -38.446,125.236 L-31.834,125.236 C-31.546,125.236 -31.378,125.488 -31.378,125.776 C-31.378,126.052 -31.558,126.292 -31.834,126.292 L-34.558,126.292 L-34.558,134.164 C-34.558,134.488 -34.81,134.656 -35.134,134.656 C-35.458,134.656 -35.71,134.488 -35.71,134.164 L-35.71,126.292 Z M-25.258,131.464 L-29.482,131.464 C-29.458,132.94 -28.726,133.864 -27.43,133.864 C-26.566,133.864 -26.086,133.432 -25.798,132.796 C-25.69,132.58 -25.534,132.496 -25.366,132.496 C-25.282,132.496 -25.198,132.52 -25.114,132.544 C-24.91,132.604 -24.742,132.748 -24.742,132.964 C-24.742,133.036 -24.754,133.108 -24.802,133.18 C-25.186,133.972 -25.882,134.764 -27.442,134.764 C-29.41,134.764 -30.55,133.372 -30.55,131.296 C-30.55,129.22 -29.47,127.768 -27.514,127.768 C-25.762,127.768 -24.778,129.136 -24.658,130.708 L-24.658,130.804 C-24.658,131.236 -24.886,131.464 -25.258,131.464 Z M-29.446,130.588 L-25.93,130.588 C-25.798,130.588 -25.75,130.54 -25.75,130.432 L-25.75,130.372 C-25.894,129.52 -26.41,128.644 -27.514,128.644 C-28.666,128.644 -29.29,129.412 -29.446,130.588 Z M-19.294,130.336 L-19.294,129.82 C-19.294,129.028 -19.726,128.68 -20.674,128.68 C-21.55,128.68 -21.982,129.016 -22.186,129.568 C-22.27,129.796 -22.45,129.88 -22.654,129.88 C-22.75,129.88 -22.846,129.868 -22.93,129.832 C-23.158,129.76 -23.326,129.592 -23.326,129.376 C-23.326,129.328 -23.314,129.28 -23.302,129.232 C-23.182,128.86 -22.87,128.512 -22.594,128.296 C-22.174,127.972 -21.634,127.768 -20.662,127.768 C-19.054,127.768 -18.262,128.404 -18.262,129.82 L-18.262,133.096 C-18.262,133.516 -18.202,133.924 -18.13,134.152 C-18.118,134.188 -18.106,134.236 -18.106,134.272 C-18.106,134.464 -18.286,134.632 -18.586,134.656 L-18.694,134.656 C-18.934,134.656 -19.15,134.584 -19.198,134.368 C-19.234,134.224 -19.258,134.008 -19.27,133.768 C-19.726,134.284 -20.362,134.752 -21.55,134.752 C-22.87,134.752 -23.674,134.008 -23.674,132.772 C-23.674,131.644 -23.002,130.924 -21.862,130.612 C-21.202,130.432 -20.578,130.36 -19.294,130.336 Z M-19.294,132.004 L-19.294,131.2 C-20.698,131.236 -21.358,131.356 -21.838,131.596 C-22.318,131.836 -22.57,132.208 -22.57,132.784 C-22.57,133.408 -22.09,133.828 -21.37,133.828 C-20.614,133.828 -19.99,133.456 -19.606,132.976 C-19.378,132.688 -19.294,132.46 -19.294,132.004 Z M-16.786,131.284 C-16.786,129.232 -15.73,127.756 -13.762,127.756 C-12.178,127.756 -11.53,128.632 -11.23,129.388 C-11.206,129.448 -11.194,129.52 -11.194,129.568 C-11.194,129.796 -11.374,129.94 -11.554,130.012 C-11.638,130.036 -11.734,130.048 -11.818,130.048 C-11.998,130.048 -12.154,129.976 -12.238,129.772 C-12.466,129.16 -12.826,128.692 -13.738,128.692 C-14.986,128.692 -15.67,129.748 -15.67,131.272 C-15.67,132.844 -14.998,133.84 -13.726,133.84 C-12.79,133.84 -12.418,133.384 -12.19,132.736 C-12.106,132.508 -11.938,132.412 -11.746,132.412 C-11.662,132.412 -11.578,132.424 -11.494,132.46 C-11.278,132.508 -11.11,132.652 -11.11,132.868 C-11.11,132.94 -11.122,133 -11.158,133.084 C-11.482,133.912 -12.118,134.776 -13.75,134.776 C-15.694,134.776 -16.786,133.348 -16.786,131.284 Z M-4.294,130.108 L-4.294,134.176 C-4.294,134.5 -4.534,134.656 -4.846,134.656 C-5.17,134.656 -5.386,134.5 -5.386,134.176 L-5.386,130.336 C-5.386,129.316 -5.806,128.752 -6.706,128.752 C-7.378,128.752 -7.906,129.064 -8.302,129.592 C-8.602,130 -8.734,130.348 -8.734,130.816 L-8.734,134.176 C-8.734,134.5 -8.938,134.656 -9.25,134.656 C-9.586,134.656 -9.814,134.5 -9.814,134.176 L-9.814,125.632 C-9.814,125.32 -9.586,125.164 -9.25,125.164 C-8.938,125.164 -8.734,125.308 -8.734,125.632 L-8.734,128.644 C-8.734,128.8 -8.782,129.076 -8.806,129.256 C-8.41,128.404 -7.75,127.768 -6.49,127.768 C-5.062,127.768 -4.294,128.632 -4.294,130.108 Z M-2.614,134.176 L-2.614,128.332 C-2.614,128.02 -2.41,127.864 -2.074,127.864 C-1.75,127.864 -1.522,128.02 -1.522,128.332 L-1.522,134.176 C-1.522,134.5 -1.75,134.656 -2.074,134.656 C-2.41,134.656 -2.614,134.5 -2.614,134.176 Z M-2.062,125.152 C-1.618,125.152 -1.258,125.5 -1.258,125.956 C-1.258,126.424 -1.618,126.772 -2.062,126.772 C-2.518,126.772 -2.878,126.424 -2.878,125.956 C-2.878,125.5 -2.518,125.152 -2.062,125.152 Z M5.714,130.108 L5.714,134.176 C5.714,134.5 5.474,134.656 5.162,134.656 C4.838,134.656 4.61,134.5 4.61,134.176 L4.61,130.336 C4.61,129.316 4.202,128.74 3.302,128.74 C2.654,128.74 2.114,129.028 1.706,129.592 C1.406,130 1.286,130.348 1.286,130.816 L1.286,134.176 C1.286,134.5 1.058,134.656 0.746,134.656 C0.41,134.656 0.194,134.5 0.194,134.176 L0.194,128.332 C0.194,128.02 0.422,127.864 0.758,127.864 C1.07,127.864 1.286,128.02 1.286,128.332 L1.286,128.656 C1.286,128.812 1.25,128.932 1.238,129.16 C1.658,128.308 2.378,127.768 3.518,127.768 C4.946,127.768 5.714,128.632 5.714,130.108 Z M12.062,128.656 L12.062,128.296 C12.062,128.044 12.23,127.864 12.578,127.864 C12.902,127.864 13.094,128.02 13.094,128.344 L13.094,133.9 C13.094,136.66 11.642,137.284 10.058,137.284 C8.762,137.284 7.934,136.852 7.478,136.264 C7.418,136.18 7.382,136.096 7.382,136 C7.382,135.844 7.466,135.688 7.61,135.58 C7.706,135.508 7.838,135.46 7.958,135.46 C8.09,135.46 8.21,135.508 8.306,135.616 C8.75,136.132 9.278,136.384 10.01,136.384 C11.51,136.384 12.05,135.628 12.062,133.852 C12.062,133.708 12.086,133.444 12.11,133.276 C11.714,134.032 11.03,134.56 9.974,134.56 C8.27,134.56 7.082,133.24 7.082,131.236 C7.082,129.172 8.15,127.78 9.998,127.78 C11.09,127.78 11.774,128.38 12.11,129.148 C12.098,129.016 12.062,128.788 12.062,128.656 Z M10.13,128.692 C8.906,128.692 8.186,129.688 8.186,131.236 C8.186,132.76 9.002,133.684 10.118,133.684 C11.342,133.684 12.086,132.64 12.086,131.152 C12.086,129.724 11.354,128.692 10.13,128.692 Z M23.786,131.464 L19.562,131.464 C19.586,132.94 20.318,133.864 21.614,133.864 C22.478,133.864 22.958,133.432 23.246,132.796 C23.354,132.58 23.51,132.496 23.678,132.496 C23.762,132.496 23.846,132.52 23.93,132.544 C24.134,132.604 24.302,132.748 24.302,132.964 C24.302,133.036 24.29,133.108 24.242,133.18 C23.858,133.972 23.162,134.764 21.602,134.764 C19.634,134.764 18.494,133.372 18.494,131.296 C18.494,129.22 19.574,127.768 21.53,127.768 C23.282,127.768 24.266,129.136 24.386,130.708 L24.386,130.804 C24.386,131.236 24.158,131.464 23.786,131.464 Z M19.598,130.588 L23.114,130.588 C23.246,130.588 23.294,130.54 23.294,130.432 L23.294,130.372 C23.15,129.52 22.634,128.644 21.53,128.644 C20.378,128.644 19.754,129.412 19.598,130.588 Z M34.454,134.176 L34.454,128.332 C34.454,128.02 34.658,127.864 34.994,127.864 C35.318,127.864 35.534,128.02 35.534,128.332 L35.534,134.176 C35.534,134.5 35.318,134.656 34.994,134.656 C34.658,134.656 34.454,134.5 34.454,134.176 Z M35.006,125.152 C35.45,125.152 35.81,125.5 35.81,125.956 C35.81,126.424 35.45,126.772 35.006,126.772 C34.55,126.772 34.19,126.424 34.19,125.956 C34.19,125.5 34.55,125.152 35.006,125.152 Z M30.446,127.936 L30.446,127.072 C30.446,125.524 31.394,125.104 32.306,125.104 C32.702,125.104 33.002,125.128 33.338,125.236 C33.554,125.308 33.638,125.476 33.638,125.668 C33.638,125.74 33.626,125.824 33.602,125.896 C33.53,126.1 33.362,126.256 33.146,126.256 C33.086,126.256 33.026,126.244 32.966,126.22 C32.762,126.136 32.558,126.1 32.306,126.1 C31.862,126.1 31.514,126.34 31.514,127.204 L31.514,127.936 L32.978,127.936 C33.278,127.936 33.41,128.116 33.41,128.404 C33.41,128.68 33.278,128.884 32.978,128.884 L31.514,128.884 L31.514,134.176 C31.514,134.5 31.298,134.656 30.986,134.656 C30.662,134.656 30.446,134.5 30.446,134.176 L30.446,128.884 L27.578,128.884 L27.578,134.176 C27.578,134.5 27.35,134.656 27.038,134.656 C26.714,134.656 26.498,134.5 26.498,134.176 L26.498,128.884 L25.478,128.884 C25.178,128.884 25.046,128.68 25.046,128.404 C25.046,128.128 25.178,127.936 25.478,127.936 L26.498,127.936 L26.498,127.072 C26.498,125.524 27.446,125.104 28.358,125.104 C28.754,125.104 29.054,125.128 29.39,125.236 C29.618,125.308 29.702,125.488 29.702,125.68 C29.702,125.752 29.69,125.824 29.666,125.896 C29.594,126.1 29.414,126.256 29.198,126.256 C29.15,126.256 29.078,126.244 29.018,126.22 C28.814,126.136 28.61,126.1 28.358,126.1 C27.914,126.1 27.578,126.34 27.578,127.204 L27.578,127.936 L30.446,127.936 Z M36.938,131.284 C36.938,129.232 37.994,127.756 39.962,127.756 C41.546,127.756 42.194,128.632 42.494,129.388 C42.518,129.448 42.53,129.52 42.53,129.568 C42.53,129.796 42.35,129.94 42.17,130.012 C42.086,130.036 41.99,130.048 41.906,130.048 C41.726,130.048 41.57,129.976 41.486,129.772 C41.258,129.16 40.898,128.692 39.986,128.692 C38.738,128.692 38.054,129.748 38.054,131.272 C38.054,132.844 38.726,133.84 39.998,133.84 C40.934,133.84 41.306,133.384 41.534,132.736 C41.618,132.508 41.786,132.412 41.978,132.412 C42.062,132.412 42.146,132.424 42.23,132.46 C42.446,132.508 42.614,132.652 42.614,132.868 C42.614,132.94 42.602,133 42.566,133.084 C42.242,133.912 41.606,134.776 39.974,134.776 C38.03,134.776 36.938,133.348 36.938,131.284 Z M43.898,134.176 L43.898,128.332 C43.898,128.02 44.102,127.864 44.438,127.864 C44.762,127.864 44.99,128.02 44.99,128.332 L44.99,134.176 C44.99,134.5 44.762,134.656 44.438,134.656 C44.102,134.656 43.898,134.5 43.898,134.176 Z M44.45,125.152 C44.894,125.152 45.254,125.5 45.254,125.956 C45.254,126.424 44.894,126.772 44.45,126.772 C43.994,126.772 43.634,126.424 43.634,125.956 C43.634,125.5 43.994,125.152 44.45,125.152 Z M51.686,131.464 L47.462,131.464 C47.486,132.94 48.218,133.864 49.514,133.864 C50.378,133.864 50.858,133.432 51.146,132.796 C51.254,132.58 51.41,132.496 51.578,132.496 C51.662,132.496 51.746,132.52 51.83,132.544 C52.034,132.604 52.202,132.748 52.202,132.964 C52.202,133.036 52.19,133.108 52.142,133.18 C51.758,133.972 51.062,134.764 49.502,134.764 C47.534,134.764 46.394,133.372 46.394,131.296 C46.394,129.22 47.474,127.768 49.43,127.768 C51.182,127.768 52.166,129.136 52.286,130.708 L52.286,130.804 C52.286,131.236 52.058,131.464 51.686,131.464 Z M47.498,130.588 L51.014,130.588 C51.146,130.588 51.194,130.54 51.194,130.432 L51.194,130.372 C51.05,129.52 50.534,128.644 49.43,128.644 C48.278,128.644 47.654,129.412 47.498,130.588 Z M59.114,130.108 L59.114,134.176 C59.114,134.5 58.874,134.656 58.562,134.656 C58.238,134.656 58.01,134.5 58.01,134.176 L58.01,130.336 C58.01,129.316 57.602,128.74 56.702,128.74 C56.054,128.74 55.514,129.028 55.106,129.592 C54.806,130 54.686,130.348 54.686,130.816 L54.686,134.176 C54.686,134.5 54.458,134.656 54.146,134.656 C53.81,134.656 53.594,134.5 53.594,134.176 L53.594,128.332 C53.594,128.02 53.822,127.864 54.158,127.864 C54.47,127.864 54.686,128.02 54.686,128.332 L54.686,128.656 C54.686,128.812 54.65,128.932 54.638,129.16 C55.058,128.308 55.778,127.768 56.918,127.768 C58.346,127.768 59.114,128.632 59.114,130.108 Z M60.482,131.284 C60.482,129.232 61.538,127.756 63.506,127.756 C65.09,127.756 65.738,128.632 66.038,129.388 C66.062,129.448 66.074,129.52 66.074,129.568 C66.074,129.796 65.894,129.94 65.714,130.012 C65.63,130.036 65.534,130.048 65.45,130.048 C65.27,130.048 65.114,129.976 65.03,129.772 C64.802,129.16 64.442,128.692 63.53,128.692 C62.282,128.692 61.598,129.748 61.598,131.272 C61.598,132.844 62.27,133.84 63.542,133.84 C64.478,133.84 64.85,133.384 65.078,132.736 C65.162,132.508 65.33,132.412 65.522,132.412 C65.606,132.412 65.69,132.424 65.774,132.46 C65.99,132.508 66.158,132.652 66.158,132.868 C66.158,132.94 66.146,133 66.11,133.084 C65.786,133.912 65.15,134.776 63.518,134.776 C61.574,134.776 60.482,133.348 60.482,131.284 Z M70.274,132.172 L71.786,128.188 C71.87,127.96 72.05,127.876 72.254,127.876 C72.326,127.876 72.398,127.888 72.47,127.9 C72.698,127.96 72.866,128.128 72.866,128.344 C72.866,128.404 72.854,128.476 72.83,128.548 L69.998,135.568 C69.578,136.6 69.086,137.284 67.91,137.284 C67.61,137.284 67.322,137.236 67.046,137.128 C66.806,137.044 66.71,136.876 66.71,136.696 C66.71,136.6 66.734,136.516 66.77,136.42 C66.854,136.216 67.01,136.084 67.214,136.084 C67.286,136.084 67.358,136.096 67.442,136.132 C67.61,136.204 67.826,136.288 68.042,136.288 C68.558,136.288 68.81,135.832 69.026,135.28 L69.362,134.44 L66.938,128.56 C66.914,128.5 66.902,128.428 66.902,128.368 C66.902,128.152 67.082,127.972 67.298,127.9 C67.382,127.876 67.466,127.864 67.55,127.864 C67.742,127.864 67.922,127.948 68.006,128.164 L69.518,132.148 C69.662,132.532 69.77,132.976 69.878,133.348 C69.974,132.976 70.142,132.52 70.274,132.172 Z" id="Teaching-efficiency-Copy" fill="#2F6070" transform="translate(16.982000, 131.194000) rotate(270.000000) translate(-16.982000, -131.194000) "></path>
            </g>
            <g id="Traditional-Lectures" transform="translate(42.000000, 108.000000)">
                <g id="Trad-Ellipse">
                    <use fill="black" fill-opacity="1" filter="url(#filter-3)" xlink:href="#path-2"></use>
                    <use fill="#F3C68D" fill-rule="evenodd" xlink:href="#path-2"></use>
                </g>
                <path d="M19.416,22.792 L16.692,22.792 C16.392,22.792 16.224,22.552 16.224,22.276 C16.224,21.988 16.392,21.736 16.68,21.736 L23.292,21.736 C23.58,21.736 23.748,21.988 23.748,22.276 C23.748,22.552 23.568,22.792 23.292,22.792 L20.568,22.792 L20.568,30.664 C20.568,30.988 20.316,31.156 19.992,31.156 C19.668,31.156 19.416,30.988 19.416,30.664 L19.416,22.792 Z M23.976,30.676 L23.976,24.832 C23.976,24.52 24.204,24.364 24.54,24.364 C24.84,24.364 25.08,24.52 25.08,24.832 L25.08,25.096 C25.08,25.264 25.032,25.468 25.008,25.66 C25.2,25.084 25.812,24.34 26.844,24.304 C26.94,24.292 27.024,24.292 27.108,24.292 C27.288,24.292 27.42,24.316 27.588,24.352 C27.864,24.388 27.972,24.556 27.972,24.784 C27.972,24.844 27.96,24.916 27.948,24.988 C27.9,25.24 27.732,25.456 27.48,25.456 C27.444,25.456 27.408,25.456 27.372,25.444 C27.204,25.408 27.048,25.372 26.796,25.372 C26.28,25.384 25.884,25.648 25.584,26.032 C25.272,26.416 25.092,26.86 25.08,27.364 L25.08,30.676 C25.08,31 24.84,31.156 24.54,31.156 C24.204,31.156 23.976,31 23.976,30.676 Z M33.048,26.836 L33.048,26.32 C33.048,25.528 32.616,25.18 31.668,25.18 C30.792,25.18 30.36,25.516 30.156,26.068 C30.072,26.296 29.892,26.38 29.688,26.38 C29.592,26.38 29.496,26.368 29.412,26.332 C29.184,26.26 29.016,26.092 29.016,25.876 C29.016,25.828 29.028,25.78 29.04,25.732 C29.16,25.36 29.472,25.012 29.748,24.796 C30.168,24.472 30.708,24.268 31.68,24.268 C33.288,24.268 34.08,24.904 34.08,26.32 L34.08,29.596 C34.08,30.016 34.14,30.424 34.212,30.652 C34.224,30.688 34.236,30.736 34.236,30.772 C34.236,30.964 34.056,31.132 33.756,31.156 L33.648,31.156 C33.408,31.156 33.192,31.084 33.144,30.868 C33.108,30.724 33.084,30.508 33.072,30.268 C32.616,30.784 31.98,31.252 30.792,31.252 C29.472,31.252 28.668,30.508 28.668,29.272 C28.668,28.144 29.34,27.424 30.48,27.112 C31.14,26.932 31.764,26.86 33.048,26.836 Z M33.048,28.504 L33.048,27.7 C31.644,27.736 30.984,27.856 30.504,28.096 C30.024,28.336 29.772,28.708 29.772,29.284 C29.772,29.908 30.252,30.328 30.972,30.328 C31.728,30.328 32.352,29.956 32.736,29.476 C32.964,29.188 33.048,28.96 33.048,28.504 Z M40.584,24.76 L40.584,22.144 C40.584,21.82 40.812,21.664 41.112,21.664 C41.448,21.664 41.652,21.82 41.652,22.144 L41.652,30.676 C41.652,31 41.436,31.156 41.1,31.156 C40.752,31.156 40.584,30.964 40.584,30.712 L40.584,30.46 C40.584,30.328 40.608,30.076 40.62,29.908 C40.212,30.748 39.528,31.264 38.412,31.264 C36.66,31.264 35.556,29.884 35.556,27.724 C35.556,25.624 36.648,24.268 38.424,24.268 C39.54,24.268 40.212,24.796 40.632,25.648 C40.608,25.372 40.584,25.024 40.584,24.76 Z M38.568,25.204 C37.356,25.204 36.66,26.212 36.66,27.736 C36.66,29.308 37.356,30.328 38.568,30.328 C39.828,30.328 40.608,29.236 40.608,27.748 C40.608,26.284 39.888,25.204 38.568,25.204 Z M43.368,30.676 L43.368,24.832 C43.368,24.52 43.572,24.364 43.908,24.364 C44.232,24.364 44.46,24.52 44.46,24.832 L44.46,30.676 C44.46,31 44.232,31.156 43.908,31.156 C43.572,31.156 43.368,31 43.368,30.676 Z M43.92,21.652 C44.364,21.652 44.724,22 44.724,22.456 C44.724,22.924 44.364,23.272 43.92,23.272 C43.464,23.272 43.104,22.924 43.104,22.456 C43.104,22 43.464,21.652 43.92,21.652 Z M46.884,24.436 L46.884,22.984 C46.884,22.672 47.088,22.504 47.424,22.504 C47.736,22.504 47.964,22.672 47.964,22.984 L47.964,24.436 L49.5,24.436 C49.8,24.436 49.944,24.628 49.944,24.916 C49.944,25.192 49.788,25.384 49.5,25.384 L47.964,25.384 L47.964,29.404 C47.964,29.992 48.216,30.244 48.66,30.244 C48.96,30.244 49.164,30.16 49.368,30.04 C49.44,30.004 49.512,29.98 49.584,29.98 C49.764,29.98 49.908,30.112 49.98,30.292 C50.016,30.376 50.028,30.472 50.028,30.556 C50.028,30.724 49.956,30.892 49.776,30.988 C49.428,31.156 49.104,31.252 48.588,31.252 C47.604,31.252 46.884,30.76 46.884,29.5 L46.884,25.384 L45.948,25.384 C45.66,25.384 45.528,25.192 45.528,24.916 C45.528,24.64 45.66,24.436 45.96,24.436 L46.884,24.436 Z M51.012,30.676 L51.012,24.832 C51.012,24.52 51.216,24.364 51.552,24.364 C51.876,24.364 52.104,24.52 52.104,24.832 L52.104,30.676 C52.104,31 51.876,31.156 51.552,31.156 C51.216,31.156 51.012,31 51.012,30.676 Z M51.564,21.652 C52.008,21.652 52.368,22 52.368,22.456 C52.368,22.924 52.008,23.272 51.564,23.272 C51.108,23.272 50.748,22.924 50.748,22.456 C50.748,22 51.108,21.652 51.564,21.652 Z M56.616,24.268 C58.536,24.268 59.664,25.66 59.664,27.748 C59.664,29.836 58.512,31.276 56.64,31.276 C54.66,31.276 53.508,29.884 53.508,27.748 C53.508,25.672 54.672,24.268 56.616,24.268 Z M56.652,25.192 C55.356,25.192 54.612,26.188 54.612,27.784 C54.612,29.308 55.332,30.352 56.568,30.352 C57.876,30.352 58.56,29.332 58.56,27.736 C58.56,26.224 57.876,25.192 56.652,25.192 Z M66.576,26.608 L66.576,30.676 C66.576,31 66.336,31.156 66.024,31.156 C65.7,31.156 65.472,31 65.472,30.676 L65.472,26.836 C65.472,25.816 65.064,25.24 64.164,25.24 C63.516,25.24 62.976,25.528 62.568,26.092 C62.268,26.5 62.148,26.848 62.148,27.316 L62.148,30.676 C62.148,31 61.92,31.156 61.608,31.156 C61.272,31.156 61.056,31 61.056,30.676 L61.056,24.832 C61.056,24.52 61.284,24.364 61.62,24.364 C61.932,24.364 62.148,24.52 62.148,24.832 L62.148,25.156 C62.148,25.312 62.112,25.432 62.1,25.66 C62.52,24.808 63.24,24.268 64.38,24.268 C65.808,24.268 66.576,25.132 66.576,26.608 Z M72.312,26.836 L72.312,26.32 C72.312,25.528 71.88,25.18 70.932,25.18 C70.056,25.18 69.624,25.516 69.42,26.068 C69.336,26.296 69.156,26.38 68.952,26.38 C68.856,26.38 68.76,26.368 68.676,26.332 C68.448,26.26 68.28,26.092 68.28,25.876 C68.28,25.828 68.292,25.78 68.304,25.732 C68.424,25.36 68.736,25.012 69.012,24.796 C69.432,24.472 69.972,24.268 70.944,24.268 C72.552,24.268 73.344,24.904 73.344,26.32 L73.344,29.596 C73.344,30.016 73.404,30.424 73.476,30.652 C73.488,30.688 73.5,30.736 73.5,30.772 C73.5,30.964 73.32,31.132 73.02,31.156 L72.912,31.156 C72.672,31.156 72.456,31.084 72.408,30.868 C72.372,30.724 72.348,30.508 72.336,30.268 C71.88,30.784 71.244,31.252 70.056,31.252 C68.736,31.252 67.932,30.508 67.932,29.272 C67.932,28.144 68.604,27.424 69.744,27.112 C70.404,26.932 71.028,26.86 72.312,26.836 Z M72.312,28.504 L72.312,27.7 C70.908,27.736 70.248,27.856 69.768,28.096 C69.288,28.336 69.036,28.708 69.036,29.284 C69.036,29.908 69.516,30.328 70.236,30.328 C70.992,30.328 71.616,29.956 72,29.476 C72.228,29.188 72.312,28.96 72.312,28.504 Z M75.12,30.676 L75.12,22.144 C75.12,21.82 75.336,21.664 75.672,21.664 C75.996,21.664 76.212,21.82 76.212,22.144 L76.212,30.676 C76.212,31 75.996,31.156 75.672,31.156 C75.336,31.156 75.12,31 75.12,30.676 Z M23.928,45.676 L23.928,37.144 C23.928,36.82 24.144,36.664 24.48,36.664 C24.804,36.664 25.02,36.82 25.02,37.144 L25.02,45.676 C25.02,46 24.804,46.156 24.48,46.156 C24.144,46.156 23.928,46 23.928,45.676 Z M31.716,42.964 L27.492,42.964 C27.516,44.44 28.248,45.364 29.544,45.364 C30.408,45.364 30.888,44.932 31.176,44.296 C31.284,44.08 31.44,43.996 31.608,43.996 C31.692,43.996 31.776,44.02 31.86,44.044 C32.064,44.104 32.232,44.248 32.232,44.464 C32.232,44.536 32.22,44.608 32.172,44.68 C31.788,45.472 31.092,46.264 29.532,46.264 C27.564,46.264 26.424,44.872 26.424,42.796 C26.424,40.72 27.504,39.268 29.46,39.268 C31.212,39.268 32.196,40.636 32.316,42.208 L32.316,42.304 C32.316,42.736 32.088,42.964 31.716,42.964 Z M27.528,42.088 L31.044,42.088 C31.176,42.088 31.224,42.04 31.224,41.932 L31.224,41.872 C31.08,41.02 30.564,40.144 29.46,40.144 C28.308,40.144 27.684,40.912 27.528,42.088 Z M33.312,42.784 C33.312,40.732 34.368,39.256 36.336,39.256 C37.92,39.256 38.568,40.132 38.868,40.888 C38.892,40.948 38.904,41.02 38.904,41.068 C38.904,41.296 38.724,41.44 38.544,41.512 C38.46,41.536 38.364,41.548 38.28,41.548 C38.1,41.548 37.944,41.476 37.86,41.272 C37.632,40.66 37.272,40.192 36.36,40.192 C35.112,40.192 34.428,41.248 34.428,42.772 C34.428,44.344 35.1,45.34 36.372,45.34 C37.308,45.34 37.68,44.884 37.908,44.236 C37.992,44.008 38.16,43.912 38.352,43.912 C38.436,43.912 38.52,43.924 38.604,43.96 C38.82,44.008 38.988,44.152 38.988,44.368 C38.988,44.44 38.976,44.5 38.94,44.584 C38.616,45.412 37.98,46.276 36.348,46.276 C34.404,46.276 33.312,44.848 33.312,42.784 Z M40.98,39.436 L40.98,37.984 C40.98,37.672 41.184,37.504 41.52,37.504 C41.832,37.504 42.06,37.672 42.06,37.984 L42.06,39.436 L43.596,39.436 C43.896,39.436 44.04,39.628 44.04,39.916 C44.04,40.192 43.884,40.384 43.596,40.384 L42.06,40.384 L42.06,44.404 C42.06,44.992 42.312,45.244 42.756,45.244 C43.056,45.244 43.26,45.16 43.464,45.04 C43.536,45.004 43.608,44.98 43.68,44.98 C43.86,44.98 44.004,45.112 44.076,45.292 C44.112,45.376 44.124,45.472 44.124,45.556 C44.124,45.724 44.052,45.892 43.872,45.988 C43.524,46.156 43.2,46.252 42.684,46.252 C41.7,46.252 40.98,45.76 40.98,44.5 L40.98,40.384 L40.044,40.384 C39.756,40.384 39.624,40.192 39.624,39.916 C39.624,39.64 39.756,39.436 40.056,39.436 L40.98,39.436 Z M45.072,43.912 L45.072,39.844 C45.072,39.52 45.3,39.364 45.624,39.364 C45.948,39.364 46.176,39.52 46.176,39.844 L46.176,43.684 C46.176,44.716 46.596,45.292 47.484,45.292 C48.12,45.292 48.636,44.992 49.044,44.428 C49.332,44.02 49.452,43.648 49.452,43.18 L49.452,39.844 C49.452,39.52 49.68,39.364 50.004,39.364 C50.316,39.364 50.544,39.52 50.544,39.844 L50.544,45.676 C50.544,46 50.328,46.156 50.016,46.156 C49.692,46.156 49.464,46.012 49.464,45.712 L49.464,45.376 C49.464,45.244 49.5,45.004 49.536,44.812 C49.164,45.652 48.468,46.264 47.268,46.264 C45.852,46.264 45.072,45.376 45.072,43.912 Z M52.44,45.676 L52.44,39.832 C52.44,39.52 52.668,39.364 53.004,39.364 C53.304,39.364 53.544,39.52 53.544,39.832 L53.544,40.096 C53.544,40.264 53.496,40.468 53.472,40.66 C53.664,40.084 54.276,39.34 55.308,39.304 C55.404,39.292 55.488,39.292 55.572,39.292 C55.752,39.292 55.884,39.316 56.052,39.352 C56.328,39.388 56.436,39.556 56.436,39.784 C56.436,39.844 56.424,39.916 56.412,39.988 C56.364,40.24 56.196,40.456 55.944,40.456 C55.908,40.456 55.872,40.456 55.836,40.444 C55.668,40.408 55.512,40.372 55.26,40.372 C54.744,40.384 54.348,40.648 54.048,41.032 C53.736,41.416 53.556,41.86 53.544,42.364 L53.544,45.676 C53.544,46 53.304,46.156 53.004,46.156 C52.668,46.156 52.44,46 52.44,45.676 Z M62.436,42.964 L58.212,42.964 C58.236,44.44 58.968,45.364 60.264,45.364 C61.128,45.364 61.608,44.932 61.896,44.296 C62.004,44.08 62.16,43.996 62.328,43.996 C62.412,43.996 62.496,44.02 62.58,44.044 C62.784,44.104 62.952,44.248 62.952,44.464 C62.952,44.536 62.94,44.608 62.892,44.68 C62.508,45.472 61.812,46.264 60.252,46.264 C58.284,46.264 57.144,44.872 57.144,42.796 C57.144,40.72 58.224,39.268 60.18,39.268 C61.932,39.268 62.916,40.636 63.036,42.208 L63.036,42.304 C63.036,42.736 62.808,42.964 62.436,42.964 Z M58.248,42.088 L61.764,42.088 C61.896,42.088 61.944,42.04 61.944,41.932 L61.944,41.872 C61.8,41.02 61.284,40.144 60.18,40.144 C59.028,40.144 58.404,40.912 58.248,42.088 Z M66.924,43.168 L66.24,43.036 C64.764,42.748 64.152,42.232 64.152,41.092 C64.152,40 65.088,39.256 66.636,39.256 C67.968,39.256 68.82,39.82 69.12,40.696 C69.132,40.744 69.144,40.792 69.144,40.84 C69.144,41.068 68.94,41.224 68.724,41.284 C68.664,41.296 68.592,41.308 68.532,41.308 C68.316,41.308 68.1,41.212 68.04,40.984 C67.884,40.444 67.356,40.168 66.672,40.168 C65.7,40.168 65.244,40.564 65.244,41.068 C65.244,41.62 65.472,41.86 66.48,42.076 L67.224,42.232 C68.784,42.556 69.408,43.012 69.408,44.272 C69.408,45.424 68.424,46.276 66.744,46.276 C65.208,46.276 64.308,45.664 63.996,44.596 C63.984,44.536 63.972,44.488 63.972,44.44 C63.972,44.2 64.176,44.032 64.404,43.984 C64.464,43.972 64.524,43.96 64.572,43.96 C64.8,43.96 65.016,44.056 65.088,44.284 C65.304,44.98 65.796,45.328 66.744,45.328 C67.704,45.328 68.328,44.908 68.328,44.296 C68.328,43.708 68.016,43.384 66.924,43.168 Z" id="Traditional-lectures-Copy" fill="#2F6070"></path>
            </g>
            <g id="Typical-AL" transform="translate(148.000000, 160.000000)">
                <g id="Typical-Ellipse">
                    <use fill="black" fill-opacity="1" filter="url(#filter-5)" xlink:href="#path-4"></use>
                    <use fill="#E69877" fill-rule="evenodd" xlink:href="#path-4"></use>
                </g>
                <path d="M20.822,11.792 L18.098,11.792 C17.798,11.792 17.63,11.552 17.63,11.276 C17.63,10.988 17.798,10.736 18.086,10.736 L24.698,10.736 C24.986,10.736 25.154,10.988 25.154,11.276 C25.154,11.552 24.974,11.792 24.698,11.792 L21.974,11.792 L21.974,19.664 C21.974,19.988 21.722,20.156 21.398,20.156 C21.074,20.156 20.822,19.988 20.822,19.664 L20.822,11.792 Z M29.126,17.672 L30.638,13.688 C30.722,13.46 30.902,13.376 31.106,13.376 C31.178,13.376 31.25,13.388 31.322,13.4 C31.55,13.46 31.718,13.628 31.718,13.844 C31.718,13.904 31.706,13.976 31.682,14.048 L28.85,21.068 C28.43,22.1 27.938,22.784 26.762,22.784 C26.462,22.784 26.174,22.736 25.898,22.628 C25.658,22.544 25.562,22.376 25.562,22.196 C25.562,22.1 25.586,22.016 25.622,21.92 C25.706,21.716 25.862,21.584 26.066,21.584 C26.138,21.584 26.21,21.596 26.294,21.632 C26.462,21.704 26.678,21.788 26.894,21.788 C27.41,21.788 27.662,21.332 27.878,20.78 L28.214,19.94 L25.79,14.06 C25.766,14 25.754,13.928 25.754,13.868 C25.754,13.652 25.934,13.472 26.15,13.4 C26.234,13.376 26.318,13.364 26.402,13.364 C26.594,13.364 26.774,13.448 26.858,13.664 L28.37,17.648 C28.514,18.032 28.622,18.476 28.73,18.848 C28.826,18.476 28.994,18.02 29.126,17.672 Z M33.974,19.568 L33.974,22.208 C33.974,22.508 33.77,22.676 33.446,22.676 C33.11,22.676 32.906,22.508 32.906,22.208 L32.906,13.832 C32.906,13.52 33.11,13.364 33.446,13.364 C33.746,13.364 33.974,13.508 33.974,13.808 L33.974,14.024 C33.974,14.192 33.962,14.48 33.926,14.684 C34.346,13.832 35.006,13.268 36.17,13.268 C37.97,13.268 38.99,14.576 38.99,16.712 C38.99,18.848 37.91,20.264 36.122,20.264 C35.006,20.264 34.322,19.712 33.914,18.872 C33.962,19.1 33.974,19.352 33.974,19.568 Z M36.014,14.204 C34.694,14.204 33.95,15.272 33.95,16.748 C33.95,18.236 34.73,19.316 35.99,19.316 C37.202,19.316 37.886,18.284 37.886,16.736 C37.886,15.176 37.226,14.204 36.014,14.204 Z M40.394,19.676 L40.394,13.832 C40.394,13.52 40.598,13.364 40.934,13.364 C41.258,13.364 41.486,13.52 41.486,13.832 L41.486,19.676 C41.486,20 41.258,20.156 40.934,20.156 C40.598,20.156 40.394,20 40.394,19.676 Z M40.946,10.652 C41.39,10.652 41.75,11 41.75,11.456 C41.75,11.924 41.39,12.272 40.946,12.272 C40.49,12.272 40.13,11.924 40.13,11.456 C40.13,11 40.49,10.652 40.946,10.652 Z M42.89,16.784 C42.89,14.732 43.946,13.256 45.914,13.256 C47.498,13.256 48.146,14.132 48.446,14.888 C48.47,14.948 48.482,15.02 48.482,15.068 C48.482,15.296 48.302,15.44 48.122,15.512 C48.038,15.536 47.942,15.548 47.858,15.548 C47.678,15.548 47.522,15.476 47.438,15.272 C47.21,14.66 46.85,14.192 45.938,14.192 C44.69,14.192 44.006,15.248 44.006,16.772 C44.006,18.344 44.678,19.34 45.95,19.34 C46.886,19.34 47.258,18.884 47.486,18.236 C47.57,18.008 47.738,17.912 47.93,17.912 C48.014,17.912 48.098,17.924 48.182,17.96 C48.398,18.008 48.566,18.152 48.566,18.368 C48.566,18.44 48.554,18.5 48.518,18.584 C48.194,19.412 47.558,20.276 45.926,20.276 C43.982,20.276 42.89,18.848 42.89,16.784 Z M53.906,15.836 L53.906,15.32 C53.906,14.528 53.474,14.18 52.526,14.18 C51.65,14.18 51.218,14.516 51.014,15.068 C50.93,15.296 50.75,15.38 50.546,15.38 C50.45,15.38 50.354,15.368 50.27,15.332 C50.042,15.26 49.874,15.092 49.874,14.876 C49.874,14.828 49.886,14.78 49.898,14.732 C50.018,14.36 50.33,14.012 50.606,13.796 C51.026,13.472 51.566,13.268 52.538,13.268 C54.146,13.268 54.938,13.904 54.938,15.32 L54.938,18.596 C54.938,19.016 54.998,19.424 55.07,19.652 C55.082,19.688 55.094,19.736 55.094,19.772 C55.094,19.964 54.914,20.132 54.614,20.156 L54.506,20.156 C54.266,20.156 54.05,20.084 54.002,19.868 C53.966,19.724 53.942,19.508 53.93,19.268 C53.474,19.784 52.838,20.252 51.65,20.252 C50.33,20.252 49.526,19.508 49.526,18.272 C49.526,17.144 50.198,16.424 51.338,16.112 C51.998,15.932 52.622,15.86 53.906,15.836 Z M53.906,17.504 L53.906,16.7 C52.502,16.736 51.842,16.856 51.362,17.096 C50.882,17.336 50.63,17.708 50.63,18.284 C50.63,18.908 51.11,19.328 51.83,19.328 C52.586,19.328 53.21,18.956 53.594,18.476 C53.822,18.188 53.906,17.96 53.906,17.504 Z M56.714,19.676 L56.714,11.144 C56.714,10.82 56.93,10.664 57.266,10.664 C57.59,10.664 57.806,10.82 57.806,11.144 L57.806,19.676 C57.806,20 57.59,20.156 57.266,20.156 C56.93,20.156 56.714,20 56.714,19.676 Z M25.58,30.836 L25.58,30.32 C25.58,29.528 25.148,29.18 24.2,29.18 C23.324,29.18 22.892,29.516 22.688,30.068 C22.604,30.296 22.424,30.38 22.22,30.38 C22.124,30.38 22.028,30.368 21.944,30.332 C21.716,30.26 21.548,30.092 21.548,29.876 C21.548,29.828 21.56,29.78 21.572,29.732 C21.692,29.36 22.004,29.012 22.28,28.796 C22.7,28.472 23.24,28.268 24.212,28.268 C25.82,28.268 26.612,28.904 26.612,30.32 L26.612,33.596 C26.612,34.016 26.672,34.424 26.744,34.652 C26.756,34.688 26.768,34.736 26.768,34.772 C26.768,34.964 26.588,35.132 26.288,35.156 L26.18,35.156 C25.94,35.156 25.724,35.084 25.676,34.868 C25.64,34.724 25.616,34.508 25.604,34.268 C25.148,34.784 24.512,35.252 23.324,35.252 C22.004,35.252 21.2,34.508 21.2,33.272 C21.2,32.144 21.872,31.424 23.012,31.112 C23.672,30.932 24.296,30.86 25.58,30.836 Z M25.58,32.504 L25.58,31.7 C24.176,31.736 23.516,31.856 23.036,32.096 C22.556,32.336 22.304,32.708 22.304,33.284 C22.304,33.908 22.784,34.328 23.504,34.328 C24.26,34.328 24.884,33.956 25.268,33.476 C25.496,33.188 25.58,32.96 25.58,32.504 Z M28.088,31.784 C28.088,29.732 29.144,28.256 31.112,28.256 C32.696,28.256 33.344,29.132 33.644,29.888 C33.668,29.948 33.68,30.02 33.68,30.068 C33.68,30.296 33.5,30.44 33.32,30.512 C33.236,30.536 33.14,30.548 33.056,30.548 C32.876,30.548 32.72,30.476 32.636,30.272 C32.408,29.66 32.048,29.192 31.136,29.192 C29.888,29.192 29.204,30.248 29.204,31.772 C29.204,33.344 29.876,34.34 31.148,34.34 C32.084,34.34 32.456,33.884 32.684,33.236 C32.768,33.008 32.936,32.912 33.128,32.912 C33.212,32.912 33.296,32.924 33.38,32.96 C33.596,33.008 33.764,33.152 33.764,33.368 C33.764,33.44 33.752,33.5 33.716,33.584 C33.392,34.412 32.756,35.276 31.124,35.276 C29.18,35.276 28.088,33.848 28.088,31.784 Z M35.756,28.436 L35.756,26.984 C35.756,26.672 35.96,26.504 36.296,26.504 C36.608,26.504 36.836,26.672 36.836,26.984 L36.836,28.436 L38.372,28.436 C38.672,28.436 38.816,28.628 38.816,28.916 C38.816,29.192 38.66,29.384 38.372,29.384 L36.836,29.384 L36.836,33.404 C36.836,33.992 37.088,34.244 37.532,34.244 C37.832,34.244 38.036,34.16 38.24,34.04 C38.312,34.004 38.384,33.98 38.456,33.98 C38.636,33.98 38.78,34.112 38.852,34.292 C38.888,34.376 38.9,34.472 38.9,34.556 C38.9,34.724 38.828,34.892 38.648,34.988 C38.3,35.156 37.976,35.252 37.46,35.252 C36.476,35.252 35.756,34.76 35.756,33.5 L35.756,29.384 L34.82,29.384 C34.532,29.384 34.4,29.192 34.4,28.916 C34.4,28.64 34.532,28.436 34.832,28.436 L35.756,28.436 Z M39.884,34.676 L39.884,28.832 C39.884,28.52 40.088,28.364 40.424,28.364 C40.748,28.364 40.976,28.52 40.976,28.832 L40.976,34.676 C40.976,35 40.748,35.156 40.424,35.156 C40.088,35.156 39.884,35 39.884,34.676 Z M40.436,25.652 C40.88,25.652 41.24,26 41.24,26.456 C41.24,26.924 40.88,27.272 40.436,27.272 C39.98,27.272 39.62,26.924 39.62,26.456 C39.62,26 39.98,25.652 40.436,25.652 Z M45.644,32.42 L47.012,28.712 C47.108,28.472 47.276,28.364 47.492,28.364 C47.564,28.364 47.636,28.376 47.72,28.4 C47.96,28.472 48.116,28.628 48.116,28.856 C48.116,28.916 48.104,28.988 48.068,29.06 L45.86,34.676 C45.716,35.048 45.452,35.156 45.14,35.156 C44.816,35.156 44.564,35.036 44.42,34.664 L42.212,29.06 C42.188,28.988 42.176,28.928 42.176,28.868 C42.176,28.64 42.332,28.46 42.56,28.4 C42.644,28.376 42.728,28.364 42.8,28.364 C43.016,28.364 43.196,28.46 43.28,28.7 L44.672,32.48 C44.816,32.888 45.056,33.692 45.152,34.124 C45.26,33.68 45.488,32.828 45.644,32.42 Z M54.272,31.964 L50.048,31.964 C50.072,33.44 50.804,34.364 52.1,34.364 C52.964,34.364 53.444,33.932 53.732,33.296 C53.84,33.08 53.996,32.996 54.164,32.996 C54.248,32.996 54.332,33.02 54.416,33.044 C54.62,33.104 54.788,33.248 54.788,33.464 C54.788,33.536 54.776,33.608 54.728,33.68 C54.344,34.472 53.648,35.264 52.088,35.264 C50.12,35.264 48.98,33.872 48.98,31.796 C48.98,29.72 50.06,28.268 52.016,28.268 C53.768,28.268 54.752,29.636 54.872,31.208 L54.872,31.304 C54.872,31.736 54.644,31.964 54.272,31.964 Z M50.084,31.088 L53.6,31.088 C53.732,31.088 53.78,31.04 53.78,30.932 L53.78,30.872 C53.636,30.02 53.12,29.144 52.016,29.144 C50.864,29.144 50.24,29.912 50.084,31.088 Z M15.656,49.676 L15.656,41.144 C15.656,40.82 15.872,40.664 16.208,40.664 C16.532,40.664 16.748,40.82 16.748,41.144 L16.748,49.676 C16.748,50 16.532,50.156 16.208,50.156 C15.872,50.156 15.656,50 15.656,49.676 Z M23.444,46.964 L19.22,46.964 C19.244,48.44 19.976,49.364 21.272,49.364 C22.136,49.364 22.616,48.932 22.904,48.296 C23.012,48.08 23.168,47.996 23.336,47.996 C23.42,47.996 23.504,48.02 23.588,48.044 C23.792,48.104 23.96,48.248 23.96,48.464 C23.96,48.536 23.948,48.608 23.9,48.68 C23.516,49.472 22.82,50.264 21.26,50.264 C19.292,50.264 18.152,48.872 18.152,46.796 C18.152,44.72 19.232,43.268 21.188,43.268 C22.94,43.268 23.924,44.636 24.044,46.208 L24.044,46.304 C24.044,46.736 23.816,46.964 23.444,46.964 Z M19.256,46.088 L22.772,46.088 C22.904,46.088 22.952,46.04 22.952,45.932 L22.952,45.872 C22.808,45.02 22.292,44.144 21.188,44.144 C20.036,44.144 19.412,44.912 19.256,46.088 Z M29.408,45.836 L29.408,45.32 C29.408,44.528 28.976,44.18 28.028,44.18 C27.152,44.18 26.72,44.516 26.516,45.068 C26.432,45.296 26.252,45.38 26.048,45.38 C25.952,45.38 25.856,45.368 25.772,45.332 C25.544,45.26 25.376,45.092 25.376,44.876 C25.376,44.828 25.388,44.78 25.4,44.732 C25.52,44.36 25.832,44.012 26.108,43.796 C26.528,43.472 27.068,43.268 28.04,43.268 C29.648,43.268 30.44,43.904 30.44,45.32 L30.44,48.596 C30.44,49.016 30.5,49.424 30.572,49.652 C30.584,49.688 30.596,49.736 30.596,49.772 C30.596,49.964 30.416,50.132 30.116,50.156 L30.008,50.156 C29.768,50.156 29.552,50.084 29.504,49.868 C29.468,49.724 29.444,49.508 29.432,49.268 C28.976,49.784 28.34,50.252 27.152,50.252 C25.832,50.252 25.028,49.508 25.028,48.272 C25.028,47.144 25.7,46.424 26.84,46.112 C27.5,45.932 28.124,45.86 29.408,45.836 Z M29.408,47.504 L29.408,46.7 C28.004,46.736 27.344,46.856 26.864,47.096 C26.384,47.336 26.132,47.708 26.132,48.284 C26.132,48.908 26.612,49.328 27.332,49.328 C28.088,49.328 28.712,48.956 29.096,48.476 C29.324,48.188 29.408,47.96 29.408,47.504 Z M32.396,49.676 L32.396,43.832 C32.396,43.52 32.624,43.364 32.96,43.364 C33.26,43.364 33.5,43.52 33.5,43.832 L33.5,44.096 C33.5,44.264 33.452,44.468 33.428,44.66 C33.62,44.084 34.232,43.34 35.264,43.304 C35.36,43.292 35.444,43.292 35.528,43.292 C35.708,43.292 35.84,43.316 36.008,43.352 C36.284,43.388 36.392,43.556 36.392,43.784 C36.392,43.844 36.38,43.916 36.368,43.988 C36.32,44.24 36.152,44.456 35.9,44.456 C35.864,44.456 35.828,44.456 35.792,44.444 C35.624,44.408 35.468,44.372 35.216,44.372 C34.7,44.384 34.304,44.648 34.004,45.032 C33.692,45.416 33.512,45.86 33.5,46.364 L33.5,49.676 C33.5,50 33.26,50.156 32.96,50.156 C32.624,50.156 32.396,50 32.396,49.676 Z M42.932,45.608 L42.932,49.676 C42.932,50 42.692,50.156 42.38,50.156 C42.056,50.156 41.828,50 41.828,49.676 L41.828,45.836 C41.828,44.816 41.42,44.24 40.52,44.24 C39.872,44.24 39.332,44.528 38.924,45.092 C38.624,45.5 38.504,45.848 38.504,46.316 L38.504,49.676 C38.504,50 38.276,50.156 37.964,50.156 C37.628,50.156 37.412,50 37.412,49.676 L37.412,43.832 C37.412,43.52 37.64,43.364 37.976,43.364 C38.288,43.364 38.504,43.52 38.504,43.832 L38.504,44.156 C38.504,44.312 38.468,44.432 38.456,44.66 C38.876,43.808 39.596,43.268 40.736,43.268 C42.164,43.268 42.932,44.132 42.932,45.608 Z M44.612,49.676 L44.612,43.832 C44.612,43.52 44.816,43.364 45.152,43.364 C45.476,43.364 45.704,43.52 45.704,43.832 L45.704,49.676 C45.704,50 45.476,50.156 45.152,50.156 C44.816,50.156 44.612,50 44.612,49.676 Z M45.164,40.652 C45.608,40.652 45.968,41 45.968,41.456 C45.968,41.924 45.608,42.272 45.164,42.272 C44.708,42.272 44.348,41.924 44.348,41.456 C44.348,41 44.708,40.652 45.164,40.652 Z M52.94,45.608 L52.94,49.676 C52.94,50 52.7,50.156 52.388,50.156 C52.064,50.156 51.836,50 51.836,49.676 L51.836,45.836 C51.836,44.816 51.428,44.24 50.528,44.24 C49.88,44.24 49.34,44.528 48.932,45.092 C48.632,45.5 48.512,45.848 48.512,46.316 L48.512,49.676 C48.512,50 48.284,50.156 47.972,50.156 C47.636,50.156 47.42,50 47.42,49.676 L47.42,43.832 C47.42,43.52 47.648,43.364 47.984,43.364 C48.296,43.364 48.512,43.52 48.512,43.832 L48.512,44.156 C48.512,44.312 48.476,44.432 48.464,44.66 C48.884,43.808 49.604,43.268 50.744,43.268 C52.172,43.268 52.94,44.132 52.94,45.608 Z M59.288,44.156 L59.288,43.796 C59.288,43.544 59.456,43.364 59.804,43.364 C60.128,43.364 60.32,43.52 60.32,43.844 L60.32,49.4 C60.32,52.16 58.868,52.784 57.284,52.784 C55.988,52.784 55.16,52.352 54.704,51.764 C54.644,51.68 54.608,51.596 54.608,51.5 C54.608,51.344 54.692,51.188 54.836,51.08 C54.932,51.008 55.064,50.96 55.184,50.96 C55.316,50.96 55.436,51.008 55.532,51.116 C55.976,51.632 56.504,51.884 57.236,51.884 C58.736,51.884 59.276,51.128 59.288,49.352 C59.288,49.208 59.312,48.944 59.336,48.776 C58.94,49.532 58.256,50.06 57.2,50.06 C55.496,50.06 54.308,48.74 54.308,46.736 C54.308,44.672 55.376,43.28 57.224,43.28 C58.316,43.28 59,43.88 59.336,44.648 C59.324,44.516 59.288,44.288 59.288,44.156 Z M57.356,44.192 C56.132,44.192 55.412,45.188 55.412,46.736 C55.412,48.26 56.228,49.184 57.344,49.184 C58.568,49.184 59.312,48.14 59.312,46.652 C59.312,45.224 58.58,44.192 57.356,44.192 Z" id="Typical-active-learn-Copy" fill="#2F6070"></path>
            </g>
            <g id="CH" transform="translate(204.000000, 20.000000)">
                <g id="CH-Ellipse">
                    <use fill="black" fill-opacity="1" filter="url(#filter-7)" xlink:href="#path-6"></use>
                    <use fill="#CB4343" fill-rule="evenodd" xlink:href="#path-6"></use>
                </g>
                <path d="M14.704,44.556 C16.816,44.556 17.764,45.66 18.196,46.716 C18.232,46.8 18.244,46.884 18.244,46.956 C18.244,47.208 18.052,47.376 17.872,47.436 C17.776,47.472 17.68,47.484 17.584,47.484 C17.38,47.484 17.188,47.4 17.08,47.172 C16.72,46.308 16.12,45.6 14.752,45.6 C12.952,45.6 11.764,47.052 11.764,49.416 C11.764,51.732 12.952,53.22 14.752,53.22 C16.192,53.22 16.876,52.356 17.188,51.396 C17.284,51.132 17.5,51.024 17.728,51.024 C17.8,51.024 17.884,51.036 17.968,51.06 C18.172,51.108 18.388,51.288 18.388,51.54 C18.388,51.612 18.376,51.672 18.352,51.744 C17.932,52.932 16.924,54.276 14.788,54.276 C12.208,54.276 10.564,52.392 10.564,49.404 C10.564,46.488 12.208,44.556 14.704,44.556 Z M25.216,49.608 L25.216,53.676 C25.216,54 24.976,54.156 24.664,54.156 C24.34,54.156 24.124,54 24.124,53.676 L24.124,49.836 C24.124,48.816 23.704,48.252 22.804,48.252 C22.132,48.252 21.604,48.564 21.208,49.092 C20.908,49.5 20.776,49.848 20.776,50.316 L20.776,53.676 C20.776,54 20.572,54.156 20.26,54.156 C19.924,54.156 19.696,54 19.696,53.676 L19.696,45.132 C19.696,44.82 19.924,44.664 20.26,44.664 C20.572,44.664 20.776,44.808 20.776,45.132 L20.776,48.144 C20.776,48.3 20.728,48.576 20.704,48.756 C21.1,47.904 21.76,47.268 23.02,47.268 C24.448,47.268 25.216,48.132 25.216,49.608 Z M30.952,49.836 L30.952,49.32 C30.952,48.528 30.52,48.18 29.572,48.18 C28.696,48.18 28.264,48.516 28.06,49.068 C27.976,49.296 27.796,49.38 27.592,49.38 C27.496,49.38 27.4,49.368 27.316,49.332 C27.088,49.26 26.92,49.092 26.92,48.876 C26.92,48.828 26.932,48.78 26.944,48.732 C27.064,48.36 27.376,48.012 27.652,47.796 C28.072,47.472 28.612,47.268 29.584,47.268 C31.192,47.268 31.984,47.904 31.984,49.32 L31.984,52.596 C31.984,53.016 32.044,53.424 32.116,53.652 C32.128,53.688 32.14,53.736 32.14,53.772 C32.14,53.964 31.96,54.132 31.66,54.156 L31.552,54.156 C31.312,54.156 31.096,54.084 31.048,53.868 C31.012,53.724 30.988,53.508 30.976,53.268 C30.52,53.784 29.884,54.252 28.696,54.252 C27.376,54.252 26.572,53.508 26.572,52.272 C26.572,51.144 27.244,50.424 28.384,50.112 C29.044,49.932 29.668,49.86 30.952,49.836 Z M30.952,51.504 L30.952,50.7 C29.548,50.736 28.888,50.856 28.408,51.096 C27.928,51.336 27.676,51.708 27.676,52.284 C27.676,52.908 28.156,53.328 28.876,53.328 C29.632,53.328 30.256,52.956 30.64,52.476 C30.868,52.188 30.952,51.96 30.952,51.504 Z M33.76,53.676 L33.76,45.144 C33.76,44.82 33.976,44.664 34.312,44.664 C34.636,44.664 34.852,44.82 34.852,45.144 L34.852,53.676 C34.852,54 34.636,54.156 34.312,54.156 C33.976,54.156 33.76,54 33.76,53.676 Z M36.556,53.676 L36.556,45.144 C36.556,44.82 36.772,44.664 37.108,44.664 C37.432,44.664 37.648,44.82 37.648,45.144 L37.648,53.676 C37.648,54 37.432,54.156 37.108,54.156 C36.772,54.156 36.556,54 36.556,53.676 Z M44.344,50.964 L40.12,50.964 C40.144,52.44 40.876,53.364 42.172,53.364 C43.036,53.364 43.516,52.932 43.804,52.296 C43.912,52.08 44.068,51.996 44.236,51.996 C44.32,51.996 44.404,52.02 44.488,52.044 C44.692,52.104 44.86,52.248 44.86,52.464 C44.86,52.536 44.848,52.608 44.8,52.68 C44.416,53.472 43.72,54.264 42.16,54.264 C40.192,54.264 39.052,52.872 39.052,50.796 C39.052,48.72 40.132,47.268 42.088,47.268 C43.84,47.268 44.824,48.636 44.944,50.208 L44.944,50.304 C44.944,50.736 44.716,50.964 44.344,50.964 Z M40.156,50.088 L43.672,50.088 C43.804,50.088 43.852,50.04 43.852,49.932 L43.852,49.872 C43.708,49.02 43.192,48.144 42.088,48.144 C40.936,48.144 40.312,48.912 40.156,50.088 Z M51.772,49.608 L51.772,53.676 C51.772,54 51.532,54.156 51.22,54.156 C50.896,54.156 50.668,54 50.668,53.676 L50.668,49.836 C50.668,48.816 50.26,48.24 49.36,48.24 C48.712,48.24 48.172,48.528 47.764,49.092 C47.464,49.5 47.344,49.848 47.344,50.316 L47.344,53.676 C47.344,54 47.116,54.156 46.804,54.156 C46.468,54.156 46.252,54 46.252,53.676 L46.252,47.832 C46.252,47.52 46.48,47.364 46.816,47.364 C47.128,47.364 47.344,47.52 47.344,47.832 L47.344,48.156 C47.344,48.312 47.308,48.432 47.296,48.66 C47.716,47.808 48.436,47.268 49.576,47.268 C51.004,47.268 51.772,48.132 51.772,49.608 Z M58.12,48.156 L58.12,47.796 C58.12,47.544 58.288,47.364 58.636,47.364 C58.96,47.364 59.152,47.52 59.152,47.844 L59.152,53.4 C59.152,56.16 57.7,56.784 56.116,56.784 C54.82,56.784 53.992,56.352 53.536,55.764 C53.476,55.68 53.44,55.596 53.44,55.5 C53.44,55.344 53.524,55.188 53.668,55.08 C53.764,55.008 53.896,54.96 54.016,54.96 C54.148,54.96 54.268,55.008 54.364,55.116 C54.808,55.632 55.336,55.884 56.068,55.884 C57.568,55.884 58.108,55.128 58.12,53.352 C58.12,53.208 58.144,52.944 58.168,52.776 C57.772,53.532 57.088,54.06 56.032,54.06 C54.328,54.06 53.14,52.74 53.14,50.736 C53.14,48.672 54.208,47.28 56.056,47.28 C57.148,47.28 57.832,47.88 58.168,48.648 C58.156,48.516 58.12,48.288 58.12,48.156 Z M56.188,48.192 C54.964,48.192 54.244,49.188 54.244,50.736 C54.244,52.26 55.06,53.184 56.176,53.184 C57.4,53.184 58.144,52.14 58.144,50.652 C58.144,49.224 57.412,48.192 56.188,48.192 Z M65.848,50.964 L61.624,50.964 C61.648,52.44 62.38,53.364 63.676,53.364 C64.54,53.364 65.02,52.932 65.308,52.296 C65.416,52.08 65.572,51.996 65.74,51.996 C65.824,51.996 65.908,52.02 65.992,52.044 C66.196,52.104 66.364,52.248 66.364,52.464 C66.364,52.536 66.352,52.608 66.304,52.68 C65.92,53.472 65.224,54.264 63.664,54.264 C61.696,54.264 60.556,52.872 60.556,50.796 C60.556,48.72 61.636,47.268 63.592,47.268 C65.344,47.268 66.328,48.636 66.448,50.208 L66.448,50.304 C66.448,50.736 66.22,50.964 65.848,50.964 Z M61.66,50.088 L65.176,50.088 C65.308,50.088 65.356,50.04 65.356,49.932 L65.356,49.872 C65.212,49.02 64.696,48.144 63.592,48.144 C62.44,48.144 61.816,48.912 61.66,50.088 Z M74.212,48.648 L74.212,45.156 C74.212,44.82 74.464,44.664 74.812,44.664 C75.124,44.664 75.364,44.82 75.364,45.156 L75.364,53.664 C75.364,53.988 75.124,54.156 74.812,54.156 C74.464,54.156 74.212,53.988 74.212,53.664 L74.212,49.692 L69.1,49.692 L69.1,53.664 C69.1,53.988 68.848,54.156 68.524,54.156 C68.188,54.156 67.948,53.988 67.948,53.664 L67.948,45.156 C67.948,44.82 68.188,44.664 68.524,44.664 C68.848,44.664 69.1,44.82 69.1,45.156 L69.1,48.648 L74.212,48.648 Z M77.236,51.912 L77.236,47.844 C77.236,47.52 77.464,47.364 77.788,47.364 C78.112,47.364 78.34,47.52 78.34,47.844 L78.34,51.684 C78.34,52.716 78.76,53.292 79.648,53.292 C80.284,53.292 80.8,52.992 81.208,52.428 C81.496,52.02 81.616,51.648 81.616,51.18 L81.616,47.844 C81.616,47.52 81.844,47.364 82.168,47.364 C82.48,47.364 82.708,47.52 82.708,47.844 L82.708,53.676 C82.708,54 82.492,54.156 82.18,54.156 C81.856,54.156 81.628,54.012 81.628,53.712 L81.628,53.376 C81.628,53.244 81.664,53.004 81.7,52.812 C81.328,53.652 80.632,54.264 79.432,54.264 C78.016,54.264 77.236,53.376 77.236,51.912 Z M85.504,53.46 L85.504,53.712 C85.504,53.976 85.324,54.156 84.976,54.156 C84.64,54.156 84.436,54 84.436,53.676 L84.436,45.144 C84.436,44.82 84.64,44.664 84.976,44.664 C85.288,44.664 85.504,44.82 85.504,45.144 L85.504,47.76 C85.504,48.012 85.48,48.36 85.444,48.636 C85.888,47.784 86.596,47.268 87.7,47.268 C89.5,47.268 90.532,48.588 90.532,50.724 C90.532,52.836 89.44,54.264 87.664,54.264 C86.56,54.264 85.84,53.724 85.456,52.884 C85.48,53.064 85.504,53.304 85.504,53.46 Z M87.556,48.204 C86.236,48.204 85.48,49.272 85.48,50.748 C85.48,52.236 86.26,53.316 87.52,53.316 C88.732,53.316 89.428,52.284 89.428,50.736 C89.428,49.176 88.756,48.204 87.556,48.204 Z" id="ChallengeHub-Copy" fill="#FFFFFF"></path>
            </g>
        </g>
        <g id="arrow" transform="translate(168.078838, 104.526279) rotate(60.000000) translate(-168.078838, -104.526279) translate(156.078838, 66.526279)">
            <g id="Combined-Shape" transform="translate(11.900706, 37.936802) rotate(4.000000) translate(-11.900706, -37.936802) ">
                <use fill="black" fill-opacity="1" filter="url(#filter-10)" xlink:href="#path-9"></use>
                <use fill="url(#linearGradient-8)" fill-rule="evenodd" xlink:href="#path-9"></use>
            </g>
        </g>
    </g>
</svg>