<svg width="334" height="263" xmlns="http://www.w3.org/2000/svg" xmlns:xlink="http://www.w3.org/1999/xlink"><defs><filter x="-7.7%" y="-7.8%" width="115.4%" height="121.8%" filterUnits="objectBoundingBox" id="b"><feOffset dy="2" in="SourceAlpha" result="shadowOffsetOuter1"/><feGaussianBlur stdDeviation="2" in="shadowOffsetOuter1" result="shadowBlurOuter1"/><feColorMatrix values="0 0 0 0 0.184313725 0 0 0 0 0.376470588 0 0 0 0 0.439215686 0 0 0 1 0" in="shadowBlurOuter1"/></filter><filter x="-9.2%" y="-7.8%" width="118.5%" height="121.8%" filterUnits="objectBoundingBox" id="d"><feOffset dy="2" in="SourceAlpha" result="shadowOffsetOuter1"/><feGaussianBlur stdDeviation="2" in="shadowOffsetOuter1" result="shadowBlurOuter1"/><feColorMatrix values="0 0 0 0 0.184313725 0 0 0 0 0.376470588 0 0 0 0 0.439215686 0 0 0 1 0" in="shadowBlurOuter1"/></filter><filter x="-6.9%" y="-5.3%" width="113.9%" height="114.7%" filterUnits="objectBoundingBox" id="f"><feOffset dy="2" in="SourceAlpha" result="shadowOffsetOuter1"/><feGaussianBlur stdDeviation="2" in="shadowOffsetOuter1" result="shadowBlurOuter1"/><feColorMatrix values="0 0 0 0 0.184313725 0 0 0 0 0.376470588 0 0 0 0 0.439215686 0 0 0 1 0" in="shadowBlurOuter1"/></filter><filter x="-30.6%" y="-7.4%" width="172.2%" height="117.6%" filterUnits="objectBoundingBox" id="h"><feOffset dx="1" dy="1" in="SourceAlpha" result="shadowOffsetOuter1"/><feGaussianBlur stdDeviation="2" in="shadowOffsetOuter1" result="shadowBlurOuter1"/><feColorMatrix values="0 0 0 0 0.184313725 0 0 0 0 0.376470588 0 0 0 0 0.439215686 0 0 0 1 0" in="shadowBlurOuter1"/></filter><path d="M.731 32.338C.731 14.631 21.091.276 46.206.276c25.115 0 45.475 14.355 45.475 32.062 0 17.708-20.36 32.063-45.475 32.063C21.091 64.401.731 50.046.731 32.338z" id="c"/><path d="M.003 32.262C.003 14.554 16.969.199 37.898.199c20.93 0 37.896 14.355 37.896 32.063 0 17.707-16.966 32.062-37.896 32.062C16.97 64.324.003 49.97.003 32.262z" id="e"/><path d="M.003 47.897C.003 21.677 22.629.423 50.54.423c13.403 0 26.257 5.002 35.735 13.905 9.477 8.903 14.802 20.978 14.802 33.569 0 26.218-22.627 47.473-50.537 47.473C22.629 95.37.003 74.115.003 47.897z" id="g"/><path d="M7.9 17.937h-5l9-17 9 17h-6v57h-7v-57z" id="i"/><linearGradient x1="50%" y1="1.224%" x2="50%" y2="100%" id="a"><stop stop-color="#76C9AC" offset="0%"/><stop stop-color="#D2EADC" offset="100%"/></linearGradient><linearGradient x1="50%" y1="0%" x2="50%" y2="100%" id="j"><stop stop-color="#CB4343" offset="0%"/><stop stop-color="#F1B182" offset="100%"/></linearGradient></defs><g fill="none" fill-rule="evenodd"><path fill="url(#a)" d="M0 0h339v270H0z" transform="translate(-3 -3)"/><path d="M26.237 13.5v223.95M26 237h294.5" stroke="#2F6070" stroke-linejoin="round"/><path d="M149.468 248.304v.372h4.584c.228 0 .348.156.348.408s-.12.432-.348.432h-4.584v2.328c0 .768-.408 1.092-1.536 1.092-.408 0-.888-.048-1.248-.144-.18-.048-.288-.204-.288-.42 0-.036 0-.084.012-.132.06-.204.192-.324.372-.324.036 0 .06 0 .096.012.288.072.648.144.96.144.576 0 .72-.108.72-.42v-2.136h-4.62c-.228 0-.348-.18-.348-.432s.12-.408.348-.408h4.62v-.708c0-.228.192-.336.456-.336.048 0 .108 0 .144.012.72-.288 1.392-.648 1.92-.996.06-.036.096-.072.096-.096 0-.036-.06-.06-.156-.06h-5.028c-.228 0-.348-.192-.348-.42 0-.252.12-.42.348-.42h5.82c.396 0 .624.264.624.576 0 .204-.108.432-.324.6-.732.552-1.608 1.032-2.64 1.476zm2.436-4.536h1.188c.708 0 1.068.312 1.068.972v1.512c0 .228-.168.36-.456.36-.264 0-.444-.132-.444-.36v-1.356c0-.252-.132-.324-.372-.324h-7.824c-.24 0-.36.072-.36.324v1.356c0 .228-.18.36-.456.36s-.456-.132-.456-.36v-1.512c0-.66.36-.972 1.056-.972h1.176c-.252-.432-.6-.876-.84-1.188a.294.294 0 01-.072-.192c0-.132.096-.276.276-.336a.456.456 0 01.576.144c.336.42.684.936 1.032 1.572h1.704a9.471 9.471 0 00-.648-1.308.302.302 0 01-.06-.192c0-.156.108-.276.3-.336.072-.012.132-.024.192-.024.168 0 .288.072.396.24.228.372.444.876.72 1.62h1.32a8.021 8.021 0 001.02-1.572.375.375 0 01.36-.228c.072 0 .168.012.252.048.192.072.288.192.288.336 0 .06-.024.132-.06.192-.228.384-.54.828-.876 1.224zm9.324 4.104h2.7c.768 0 1.08.276 1.08.924v3.024c0 .672-.312.936-1.08.936h-5.832c-.756 0-1.08-.264-1.08-.936v-3.024c0-.648.324-.924 1.08-.924h2.172c.168-.276.3-.552.408-.78a.402.402 0 01.384-.24c.048 0 .108.012.168.024.204.06.312.192.312.336 0 .036-.012.072-.012.108-.072.144-.18.36-.3.552zm-3.3 1.968h6.168v-.876c0-.24-.108-.3-.348-.3h-5.484c-.24 0-.336.06-.336.3v.876zm0 .792v1.008c0 .24.096.3.336.3h5.484c.24 0 .348-.06.348-.3v-1.008h-6.168zm-1.932-8.388h3.72c.72 0 1.008.264 1.008.948v3c0 .672-.48.924-1.188.924-.372 0-.672-.024-.936-.084a.376.376 0 01-.3-.372c0-.036 0-.084.012-.12.048-.18.18-.288.348-.288.024 0 .06 0 .084.012.216.048.408.084.684.084.348 0 .432-.036.432-.336v-2.664c0-.24-.108-.3-.336-.3h-3.528c-.216 0-.348-.156-.348-.396 0-.252.132-.408.348-.408zm10.044.948v3.084c0 .672-.444.912-1.152.912-.432 0-.888-.036-1.128-.108a.377.377 0 01-.3-.372c0-.048 0-.084.012-.132.048-.18.18-.288.36-.288.036 0 .084 0 .12.012.18.048.468.096.768.096.348 0 .432-.048.432-.384v-2.664c0-.24-.108-.3-.336-.3h-3.396c-.204 0-.336-.156-.336-.396 0-.252.132-.408.336-.408h3.6c.732 0 1.02.264 1.02.948zm-1.98 1.596a.54.54 0 01.252-.072c.144 0 .252.072.336.204.024.06.048.132.048.204 0 .12-.048.24-.192.324-.696.42-1.8.948-2.664 1.2a.597.597 0 01-.192.036.364.364 0 01-.36-.24.411.411 0 01-.048-.192c0-.168.12-.312.3-.36.816-.24 1.86-.708 2.52-1.104zm-7.032-1.428c.396.144.972.408 1.404.684.12.084.192.216.192.348a.395.395 0 01-.072.228.483.483 0 01-.372.18.46.46 0 01-.228-.06 11.318 11.318 0 00-1.368-.696c-.12-.06-.18-.156-.18-.276 0-.072.024-.156.072-.228a.43.43 0 01.384-.216c.048 0 .108.012.168.036zm1.74 1.56a.588.588 0 01.3-.096c.132 0 .24.06.312.168a.504.504 0 01.072.252c0 .12-.06.24-.192.324-.744.468-1.968 1.044-2.88 1.404a.71.71 0 01-.252.048c-.192 0-.336-.096-.396-.252a.482.482 0 01-.036-.18c0-.168.108-.336.3-.396.888-.3 2.112-.864 2.772-1.272zm3.42-1.56c.396.144.96.42 1.38.672.12.084.192.204.192.336a.38.38 0 01-.048.192.454.454 0 01-.396.24.405.405 0 01-.204-.06 11.764 11.764 0 00-1.332-.684c-.144-.06-.216-.168-.216-.288 0-.084.024-.156.072-.228a.43.43 0 01.384-.216c.048 0 .108.012.168.036zm7.656 9.24v-4.5c0-.264.012-.72.096-1.056a11.54 11.54 0 01-1.788 1.596.631.631 0 01-.348.132c-.132 0-.252-.06-.348-.204a.48.48 0 01-.096-.276c0-.132.06-.252.216-.36 1.428-.924 2.64-2.316 3.432-3.78h-3.096c-.216 0-.336-.204-.336-.444 0-.252.12-.432.336-.432h3.528c.168-.396.312-.804.408-1.2.06-.216.192-.312.408-.312.048 0 .096 0 .144.012.252.048.348.192.348.348 0 .048-.012.096-.024.144-.096.336-.216.672-.348 1.008h5.76c.228 0 .348.18.348.432 0 .24-.12.444-.348.444h-6.168c-.252.468-.516.924-.816 1.368.228-.06.672-.084 1.008-.084h3.732c.732 0 1.068.3 1.068 1.008v5.244c0 .84-.432 1.152-1.452 1.152-.492 0-.948-.048-1.296-.132-.204-.048-.336-.192-.336-.408 0-.036 0-.084.012-.132.048-.204.192-.336.372-.336.036 0 .072 0 .12.024.276.072.672.144.996.144.564 0 .684-.096.684-.504v-1.236h-5.292v2.34c0 .216-.192.36-.456.36-.276 0-.468-.144-.468-.36zm.924-4.344v1.188h5.292v-1.188h-5.292zm5.292-.816v-.864c0-.24-.12-.324-.36-.324h-4.572c-.24 0-.36.084-.36.324v.864h5.292zm10.776-2.124h-1.14c-.216 0-.336-.168-.336-.42 0-.24.12-.408.336-.408h1.188a60.92 60.92 0 00.036-2.172c0-.288.168-.408.444-.408s.48.12.48.42c0 .768-.012 1.488-.048 2.16h1.356c.756 0 1.068.288 1.068 1.008-.012 3.084-.192 4.932-.432 5.976-.216.948-.6 1.284-1.392 1.284-.444 0-.852-.036-1.176-.12-.168-.036-.3-.216-.3-.444 0-.036 0-.084.012-.12.048-.228.216-.372.396-.372.024 0 .048 0 .072.012.288.072.576.12.816.12.396 0 .552-.132.672-.66.216-.984.408-2.772.408-5.52 0-.276-.132-.336-.396-.336h-1.152c-.108 1.512-.312 2.772-.672 3.876-.456 1.38-1.152 2.58-2.196 3.516a.627.627 0 01-.372.156.449.449 0 01-.348-.156.427.427 0 01-.132-.312c0-.132.072-.276.192-.384.936-.84 1.596-1.908 2.004-3.12.336-1.008.528-2.184.612-3.576zm-4.56 3.972a19.248 19.248 0 00-1.188-1.224.43.43 0 01-.132-.3c0-.096.048-.204.132-.3a.438.438 0 01.324-.156c.096 0 .18.036.252.108.336.3.708.66 1.068 1.056.204-.432.384-.888.516-1.368a.346.346 0 01.348-.252c.06 0 .132.012.192.024.204.06.312.192.312.36 0 .048-.012.096-.024.144a9.325 9.325 0 01-.732 1.788c.396.444.756.9 1.056 1.332a.58.58 0 01.108.324.39.39 0 01-.168.336.561.561 0 01-.336.108.425.425 0 01-.36-.192 11.73 11.73 0 00-.792-1.08c-.72 1.08-1.62 2.004-2.592 2.664a.527.527 0 01-.264.084c-.132 0-.264-.072-.372-.204a.588.588 0 01-.096-.3.41.41 0 01.192-.36 8.777 8.777 0 002.556-2.592zm.756-5.76h2.028c.216 0 .336.168.336.42 0 .24-.12.42-.336.42h-5.136c-.216 0-.336-.18-.336-.42 0-.252.12-.42.336-.42h2.208v-1.32c0-.228.192-.348.456-.348s.444.12.444.348v1.32zm-1.428 1.332a.402.402 0 01.252.372c0 .06-.012.132-.048.204-.372.876-.912 1.74-1.524 2.352a.486.486 0 01-.324.132.572.572 0 01-.348-.132.39.39 0 01-.132-.3c0-.12.048-.252.168-.372a6.405 6.405 0 001.344-2.076c.06-.156.216-.228.384-.228a.52.52 0 01.228.048zm2.004 0a.537.537 0 01.24-.048c.132 0 .264.06.336.204.276.552.828 1.284 1.284 1.764a.5.5 0 01.168.36c0 .12-.048.228-.144.312a.436.436 0 01-.312.132.467.467 0 01-.348-.156c-.48-.504-1.116-1.392-1.44-2.052a.482.482 0 01-.036-.18c0-.144.084-.264.252-.336zm14.76 3.792h-2.244c-.24 0-.384-.204-.384-.444 0-.228.12-.396.336-.396h2.292v-2.424h-1.752a10.382 10.382 0 01-.84 1.86c-.096.168-.228.252-.372.252a.504.504 0 01-.252-.072.367.367 0 01-.228-.336c0-.084.024-.168.084-.264.708-1.152 1.14-2.52 1.308-3.9.024-.216.156-.324.396-.324h.084c.24.024.372.168.372.372v.072a14.823 14.823 0 01-.288 1.488h1.488v-2.316c0-.228.168-.348.444-.348.288 0 .468.12.468.348v2.316h2.652c.216 0 .348.156.348.42 0 .252-.132.432-.348.432h-2.652v2.424h2.448c.216 0 .336.156.336.408 0 .24-.12.432-.336.432h-2.448v3.048h2.952c.228 0 .348.168.348.432 0 .252-.12.444-.348.444h-7.068c-.228 0-.348-.192-.348-.444 0-.264.12-.432.348-.432h3.204v-3.048zm-4.44-6.444v10.476c0 .228-.18.348-.456.348-.252 0-.432-.12-.432-.348v-10.476c0-.228.18-.348.432-.348.276 0 .456.12.456.348zm-1.668 2.052c.204.012.372.108.372.372v.024a13.93 13.93 0 01-.456 2.772c-.06.204-.204.288-.372.288-.048 0-.084-.012-.132-.024-.168-.048-.276-.168-.276-.336 0-.048.012-.096.024-.144.216-.708.384-1.752.432-2.628.012-.228.18-.324.372-.324h.036zm2.688.048c.144.42.312.972.372 1.308a.152.152 0 01.012.072c0 .18-.108.312-.276.36-.048.012-.084.012-.12.012a.327.327 0 01-.336-.288 10.94 10.94 0 00-.336-1.248.35.35 0 01-.024-.108c0-.156.108-.264.252-.312.06-.012.12-.024.168-.024.132 0 .228.072.288.228zM14.264 146.404v2.268c.252.384.492.78.708 1.2.036.072.06.156.06.24 0 .12-.06.252-.216.336a.64.64 0 01-.24.06c-.144 0-.264-.084-.336-.228a12.538 12.538 0 00-1.8-2.712v2.58c0 .216-.144.324-.348.324-.228 0-.372-.108-.372-.324v-2.124h-1.296v1.68c0 .204-.156.324-.372.324s-.372-.12-.372-.324v-1.68h-.996c-.216 0-.336-.18-.336-.42 0-.252.12-.42.336-.42h.996v-1.08c0-.204.144-.324.36-.324.228 0 .384.132.384.324v1.08h1.296v-.384a12 12 0 00-2.64-1.944.405.405 0 01-.216-.36.47.47 0 01.048-.216.426.426 0 01.36-.24c.072 0 .132.012.192.048.78.432 1.536.972 2.256 1.608v-.864c0-.18.12-.3.324-.3h.024c.204.012.372.144.372.348v1.512c.396.408.768.84 1.116 1.284v-1.752c0-.456.288-.696.6-.696.156 0 .324.06.456.204.372.36.756.924 1.032 1.428h.264c-.072-.684-.18-1.32-.276-1.884-.012-.036-.012-.06-.012-.084 0-.18.096-.312.312-.348.036-.012.072-.012.108-.012.18 0 .324.108.372.324.108.6.216 1.296.3 2.004h1.692c.72 0 .984.396.984 1.128 0 .384-.036.756-.084.984a.372.372 0 01-.384.3c-.036 0-.084 0-.12-.012-.228-.036-.336-.204-.336-.372 0-.024 0-.048.012-.072.036-.18.084-.432.084-.672 0-.372-.048-.444-.372-.444h-1.38c.072.78.132 1.572.18 2.316v.024c0 .216-.132.36-.396.384h-.06c-.228 0-.372-.12-.372-.312a33.396 33.396 0 00-.156-2.412h-.624c-.204 0-.312-.18-.312-.432v-.024a4.47 4.47 0 00-.612-.948c-.036-.036-.072-.06-.096-.06-.06 0-.096.072-.096.168zm-2.904-6.696v.516c.864.06 1.704.144 2.532.384.828.228 1.644.564 2.352 1.032.864-.588 1.572-1.308 2.22-2.232a.44.44 0 01.36-.192c.108 0 .216.036.312.108.144.108.228.252.228.396 0 .084-.036.18-.096.264a9.978 9.978 0 01-2.244 2.196c.864.684 1.632 1.548 2.28 2.568a.625.625 0 01.108.348.44.44 0 01-.192.36.461.461 0 01-.288.096.464.464 0 01-.396-.216c-.672-1.104-1.428-1.98-2.316-2.652-.936.504-1.956.864-3 1.056.288.156.552.312.804.492.108.072.168.18.168.312a.43.43 0 01-.12.288.434.434 0 01-.336.18.512.512 0 01-.276-.096c-1.272-.9-3.084-1.5-4.74-1.74-.252-.048-.348-.18-.348-.384 0-.048 0-.084.012-.12.036-.252.156-.384.372-.384h.084c.552.096 1.128.216 1.704.384v-2.952c0-.228.168-.348.396-.348.24 0 .42.108.42.336zm0 1.392v1.836c.24.072.468.168.708.264 1.128-.216 2.28-.528 3.312-1.056a8.296 8.296 0 00-2.304-.84c-.564-.12-1.14-.168-1.716-.204zm-1.452-5.22v-.78c0-.648.264-.984.876-.984h1.8c.612 0 .852.312.852 1.02v2.124h1.296v-2.196c0-.708.264-1.02.888-1.02h2.268c.648 0 .9.312.9 1.02v2.028c0 .708-.252 1.02-.9 1.02h-7.104c-.6 0-.876-.312-.876-.984v-.336a10.624 10.624 0 00-1.284-.516c-.168-.06-.24-.192-.24-.372 0-.048 0-.096.012-.156.036-.228.156-.348.3-.348.048 0 .084.012.12.024.336.108.72.264 1.092.456zm2.736 1.38v-1.932c0-.228-.06-.348-.276-.348H11c-.216 0-.288.12-.288.348v1.596c0 .228.072.336.288.336h1.644zm2.904 0h2.136c.228 0 .288-.108.288-.336v-1.668c0-.228-.06-.336-.288-.336h-1.848c-.216 0-.288.108-.288.336v2.004zm-4.356-7.128v-1.476c0-.636.276-.96.96-.96h4.824c.636 0 .948.396.948.996 0 .288-.012.564-.06.792-.048.228-.204.348-.396.348-.036 0-.072 0-.108-.012-.228-.036-.324-.192-.324-.36 0-.024 0-.06.012-.084.024-.12.048-.324.048-.468 0-.228-.084-.324-.3-.324h-4.488c-.24 0-.312.132-.312.336v1.212h7.164c.216 0 .336.18.336.444 0 .252-.12.444-.336.444h-7.164v1.008c0 .216.072.336.312.336h5.412c.228 0 .324.24.324.48 0 .228-.096.432-.324.432h-5.568c-.684 0-.96-.312-.96-.948v-1.308H9.704v2.4c0 .216-.168.336-.42.336-.24 0-.408-.12-.408-.336v-5.76c0-.216.156-.336.408-.336.24 0 .42.12.42.336v2.472h1.488zm.588-11.112v1.14c0 .216-.168.336-.42.336-.24 0-.408-.12-.408-.336v-1.188a60.92 60.92 0 00-2.172-.036c-.288 0-.408-.168-.408-.444s.12-.48.42-.48c.768 0 1.488.012 2.16.048v-1.356c0-.756.288-1.068 1.008-1.068 3.084.012 4.932.192 5.976.432.948.216 1.284.6 1.284 1.392 0 .444-.036.852-.12 1.176-.036.168-.216.3-.444.3-.036 0-.084 0-.12-.012-.228-.048-.372-.216-.372-.396 0-.024 0-.048.012-.072.072-.288.12-.576.12-.816 0-.396-.132-.552-.66-.672-.984-.216-2.772-.408-5.52-.408-.276 0-.336.132-.336.396v1.152c1.512.108 2.772.312 3.876.672 1.38.456 2.58 1.152 3.516 2.196.096.12.156.252.156.372a.449.449 0 01-.156.348.427.427 0 01-.312.132.541.541 0 01-.384-.192c-.84-.936-1.908-1.596-3.12-2.004-1.008-.336-2.184-.528-3.576-.612zm3.972 4.56c-.432.384-.852.792-1.224 1.188a.43.43 0 01-.3.132.478.478 0 01-.3-.132.438.438 0 01-.156-.324c0-.096.036-.18.108-.252.3-.336.66-.708 1.056-1.068a8.467 8.467 0 00-1.368-.516.346.346 0 01-.252-.348c0-.06.012-.132.024-.192.06-.204.192-.312.36-.312.048 0 .096.012.144.024.624.18 1.224.432 1.788.732.444-.396.9-.756 1.332-1.056a.58.58 0 01.324-.108.39.39 0 01.336.168.561.561 0 01.108.336c0 .132-.06.276-.192.36-.348.228-.72.492-1.08.792 1.08.72 2.004 1.62 2.664 2.592a.527.527 0 01.084.264c0 .132-.072.264-.204.372a.588.588 0 01-.3.096.41.41 0 01-.36-.192 8.777 8.777 0 00-2.592-2.556zm-5.76-.756v-2.028c0-.216.168-.336.42-.336.24 0 .42.12.42.336v5.136c0 .216-.18.336-.42.336-.252 0-.42-.12-.42-.336v-2.208h-1.32c-.228 0-.348-.192-.348-.456s.12-.444.348-.444h1.32zm1.332 1.428a.402.402 0 01.372-.252c.06 0 .132.012.204.048.876.372 1.74.912 2.352 1.524a.486.486 0 01.132.324c0 .12-.048.24-.132.348a.39.39 0 01-.3.132.524.524 0 01-.372-.168 6.405 6.405 0 00-2.076-1.344c-.156-.06-.228-.216-.228-.384a.52.52 0 01.048-.228zm0-2.004a.537.537 0 01-.048-.24c0-.132.06-.264.204-.336.552-.276 1.284-.828 1.764-1.284a.5.5 0 01.36-.168c.12 0 .228.048.312.144a.436.436 0 01.132.312c0 .12-.048.252-.156.348-.504.48-1.392 1.116-2.052 1.44a.482.482 0 01-.18.036c-.144 0-.264-.084-.336-.252zm-1.176-12.672v4.416c0 .216-.192.324-.432.324s-.408-.108-.408-.324v-4.596H8.66c-.228 0-.396-.156-.396-.456 0-.3.168-.468.396-.468h.648v-4.74c0-.216.168-.324.408-.324.24 0 .432.108.432.324v4.908c.6.348 1.176.744 1.68 1.212.228-.24.468-.48.72-.696a16.458 16.458 0 00-1.524-1.272.317.317 0 01-.12-.252c0-.084.024-.18.084-.276.084-.132.18-.192.288-.192.072 0 .156.036.228.084a19.71 19.71 0 012.676 2.556 24.99 24.99 0 00-.24-2.304c-.216.168-.42.324-.588.492a.25.25 0 01-.18.084c-.108 0-.204-.06-.288-.18a.365.365 0 01-.096-.24c0-.096.048-.18.132-.264.504-.48 1.164-.972 1.716-1.32a.387.387 0 01.216-.072c.132 0 .252.072.336.216a.38.38 0 01.048.192.403.403 0 01-.168.336c-.156.096-.336.204-.504.324.252 1.416.42 3 .468 4.308v.024c0 .252-.156.396-.396.408h-.024c-.24 0-.372-.168-.372-.384 0-.18 0-.372-.012-.552-.312-.348-.636-.684-.96-1.02-.06-.06-.108-.12-.168-.168a16.901 16.901 0 00-1.428 1.548.37.37 0 01-.276.12.325.325 0 01-.24-.096.375.375 0 01-.072-.54c.072-.096.156-.204.252-.3a7.346 7.346 0 00-1.188-.84zm6.804-.192v4.596c0 .216-.156.36-.42.36-.252 0-.42-.144-.42-.36v-4.596h-.72c-.204 0-.336-.18-.336-.444 0-.288.132-.444.336-.444h.72v-4.752c0-.228.156-.36.42-.36s.42.132.42.36v4.752h2.256c.216 0 .348.156.348.444 0 .264-.132.444-.348.444h-2.256zm-6.252 3.612a9.678 9.678 0 011.224-1.32.436.436 0 01.6.024c.072.096.12.216.12.336a.43.43 0 01-.132.3c-.36.3-.792.768-1.14 1.224a.375.375 0 01-.3.156.383.383 0 01-.276-.12.532.532 0 01-.168-.372.37.37 0 01.072-.228zm0-8.568a.378.378 0 01.312-.168c.096 0 .18.036.252.096.456.396.972.996 1.344 1.56a.433.433 0 01.072.24c0 .132-.06.264-.168.36a.36.36 0 01-.264.096c-.12 0-.24-.06-.3-.156-.312-.492-.804-1.092-1.188-1.416a.41.41 0 01-.156-.336c0-.084.036-.192.096-.276zm2.328 1.224c.336-.588.888-1.332 1.404-1.86a.385.385 0 01.3-.132c.108 0 .216.036.3.12a.467.467 0 01.156.336.417.417 0 01-.12.3c-.432.432-1.02 1.212-1.38 1.788a.383.383 0 01-.324.168.367.367 0 01-.24-.084.46.46 0 01-.18-.36c0-.084.024-.18.084-.276zm.072 6.144a.446.446 0 01-.096-.264c0-.12.06-.252.168-.324a.48.48 0 01.276-.096c.108 0 .216.048.3.156.504.648 1.02 1.512 1.332 2.256a.47.47 0 01.048.216c0 .168-.096.312-.264.396a.544.544 0 01-.192.036.4.4 0 01-.384-.264c-.288-.72-.756-1.572-1.188-2.112z" fill="#2F6070"/><g><g transform="translate(39 105)"><use fill="#000" filter="url(#b)" xlink:href="#c"/><use fill="#F3C68D" xlink:href="#c"/></g><path d="M69.312 136.744v-3.348c0-.672.036-1.296.108-1.788a5.42 5.42 0 01-.876.864.48.48 0 01-.276.096.438.438 0 01-.348-.18.517.517 0 01-.096-.288.42.42 0 01.168-.336c1.02-.804 1.716-1.668 2.376-2.796.084-.132.192-.204.336-.204a.58.58 0 01.252.072c.156.084.24.216.24.348a.352.352 0 01-.048.192 8.929 8.929 0 01-.924 1.344v6.024c0 .216-.18.336-.456.336s-.456-.12-.456-.336zm5.232-7.212h-2.688c-.228 0-.348-.168-.348-.42s.12-.42.348-.42h3.564c.504-.732.972-1.656 1.272-2.436.06-.156.192-.252.384-.252a.68.68 0 01.216.036c.204.072.324.216.324.384a.37.37 0 01-.036.156c-.276.648-.732 1.452-1.176 2.112h2.148c.216 0 .336.168.336.42s-.12.42-.336.42h-3.096v2.208h2.628c.216 0 .336.168.336.408 0 .24-.12.432-.336.432h-2.628v2.844c.132.036.276.06.42.084.588.096 1.248.144 2.04.144.24 0 .504 0 .78-.012h.024c.24 0 .396.192.396.468 0 .312-.168.48-.444.48-.228.012-.444.012-.648.012-.888 0-1.656-.06-2.304-.18-1.512-.276-2.472-.936-3.156-2.136a9.747 9.747 0 01-1.02 2.268.442.442 0 01-.372.216.588.588 0 01-.3-.096.458.458 0 01-.204-.372.55.55 0 01.096-.288c.924-1.32 1.38-3.192 1.452-4.944.012-.24.192-.348.432-.348h.036c.252.012.432.144.432.384v.024c-.036.708-.144 1.44-.3 2.16.384.78.948 1.416 1.728 1.812v-5.568zm-3.576-3.54c.144.072.228.192.228.336a.416.416 0 01-.084.24c-.66 1.008-1.548 1.86-2.436 2.532a.534.534 0 01-.312.12.414.414 0 01-.324-.168.438.438 0 01.048-.648c.9-.636 1.728-1.416 2.268-2.292a.434.434 0 01.348-.192c.084 0 .18.024.264.072zm1.764.096a.63.63 0 01.276-.072c.12 0 .24.06.324.144.408.504.732 1.008.996 1.584.024.06.036.12.036.18 0 .144-.084.276-.264.36a.702.702 0 01-.264.06c-.168 0-.312-.072-.372-.228a6.281 6.281 0 00-.912-1.5.357.357 0 01-.06-.18c0-.132.084-.264.24-.348zm13.116 5.052h1.044c.528-.744.996-1.716 1.296-2.448.072-.192.228-.264.396-.264a.61.61 0 01.204.036c.192.06.3.18.3.348a.592.592 0 01-.036.18c-.336.732-.768 1.524-1.224 2.148h2.784c.216 0 .336.156.336.42 0 .24-.12.432-.336.432h-4.248c1.26 1.644 2.784 2.748 4.416 3.516.156.072.24.228.24.408a.63.63 0 01-.072.276c-.096.192-.252.276-.408.276a.59.59 0 01-.24-.06c-1.668-.852-3.396-2.256-4.56-4.008.06.432.108.924.108 1.332v2.976c0 .204-.168.324-.444.324-.264 0-.444-.12-.444-.324v-2.928c0-.432.036-.852.108-1.368-.96 1.632-2.784 3.168-4.224 3.948a.53.53 0 01-.288.084c-.168 0-.312-.096-.408-.276a.584.584 0 01-.072-.264c0-.168.096-.324.276-.408 1.476-.756 3.048-2.04 4.08-3.504h-4.056c-.228 0-.336-.192-.336-.432 0-.264.108-.42.336-.42h4.584v-3.06h-3.972c-.216 0-.336-.18-.336-.432s.12-.42.336-.42h3.972v-1.044c0-.216.168-.336.444-.336s.444.12.444.336v1.044H90c.216 0 .336.156.336.42 0 .24-.12.432-.336.432h-4.152v3.06zm-3.84-2.616a.584.584 0 01.264-.072.36.36 0 01.336.192c.288.432.636 1.044.888 1.62a.592.592 0 01.036.18c0 .156-.108.276-.3.348a.557.557 0 01-.228.048c-.156 0-.288-.072-.348-.228-.228-.516-.54-1.14-.828-1.584a.339.339 0 01-.048-.18c0-.132.072-.252.228-.324zm16.032-.576c-.108 1.824-.372 3.504-.792 4.788-.42 1.236-.768 1.776-1.188 2.172-.384.372-.888.528-1.38.528-1.248 0-2.244-1.212-2.244-3.228 0-2.988 2.088-5.148 5.364-5.148 2.832 0 4.704 1.848 4.704 4.488 0 1.692-.732 2.976-1.98 3.768-.696.444-1.56.72-2.52.864-.048.012-.096.012-.132.012-.252 0-.456-.12-.504-.42-.012-.036-.012-.084-.012-.12 0-.24.156-.42.432-.468.876-.12 1.8-.42 2.4-.864.756-.564 1.308-1.536 1.308-2.796 0-2.028-1.332-3.504-3.456-3.576zm-.996.036c-2.196.204-3.636 1.884-3.636 4.212 0 1.44.612 2.196 1.248 2.196.276 0 .552-.096.804-.348.264-.252.54-.768.828-1.644.372-1.128.672-2.772.756-4.416zm-15.228 18.06h1.62c.66 0 .96.252.96.816v2.352h.42c.204 0 .312.144.312.36s-.108.372-.312.372h-.42v1.008c0 .672-.372.936-1.236.936-.372 0-.768-.012-1.092-.072a.356.356 0 01-.3-.372c0-.024 0-.06.012-.084.036-.216.18-.312.336-.312.024 0 .048 0 .072.012.264.048.588.084.864.084.468 0 .564-.072.564-.36v-.84h-4.284v1.752c0 .204-.144.312-.396.312-.24 0-.408-.108-.408-.312v-1.752h-.36c-.204 0-.324-.156-.324-.372s.12-.36.324-.36h.36v-2.352c0-.564.3-.816.96-.816h1.548v-.684h-2.82c-.192 0-.3-.156-.3-.348 0-.216.108-.348.3-.348h1.5v-.804h-1.128c-.168 0-.276-.156-.276-.324 0-.192.108-.36.276-.36h1.128v-.732h-1.392c-.18 0-.276-.168-.276-.36 0-.192.096-.336.276-.336h1.392v-.564c0-.216.156-.312.396-.312.264 0 .396.096.396.312v.564h1.824v-.576c0-.204.144-.312.396-.312s.396.108.396.312v.576h1.512c.168 0 .288.144.288.336 0 .204-.12.36-.288.36h-1.512v.732h1.212c.168 0 .276.168.276.36 0 .18-.108.324-.276.324h-1.212v.804h1.692c.192 0 .3.132.3.348 0 .192-.108.348-.3.348h-3v.684zm-.78 3.168v-.924h-1.704v.924h1.704zm.78 0h1.8v-.924h-1.8v.924zm-.78-1.56v-.936h-1.392c-.204 0-.312.06-.312.264v.672h1.704zm.78 0h1.8v-.672c0-.204-.108-.264-.312-.264h-1.488v.936zm-1.308-2.988h1.824v-.804h-1.824v.804zm0-1.488h1.824v-.732h-1.824v.732zm-6.18-.264h3.156c.216 0 .324.156.324.408 0 .228-.108.408-.324.408h-3.156c-.216 0-.324-.18-.324-.408 0-.24.108-.408.324-.408zm2.916 2.568h-2.616c-.204 0-.312-.18-.312-.396 0-.216.108-.396.312-.396h2.616c.192 0 .3.18.3.396 0 .204-.108.396-.3.396zm0 1.728h-2.628c-.204 0-.312-.192-.312-.396 0-.216.108-.396.312-.396h2.628c.204 0 .312.18.312.384 0 .216-.108.408-.312.408zm-2.604-6.036h2.616c.192 0 .312.168.312.408 0 .228-.12.384-.312.384H74.64c-.192 0-.312-.156-.312-.384 0-.24.12-.408.312-.408zm2.952 7.788v1.896c0 .636-.288.888-.924.888h-1.392c-.636 0-.924-.252-.924-.888v-1.896c0-.612.288-.852.924-.852h1.392c.636 0 .924.24.924.852zm-2.424.132v1.608c0 .216.12.3.324.3h.96c.204 0 .324-.084.324-.3v-1.608c0-.216-.12-.276-.324-.276h-.96c-.204 0-.324.06-.324.276zm14.34-1.608l2.64-.024c-.084-.42-.132-.864-.168-1.32v-.024c0-.216.168-.336.42-.348h.036c.24 0 .396.144.408.348.024.468.084.912.18 1.332l3.672-.024c.192.012.312.144.312.36s-.12.348-.312.384l-3.48.024c.132.396.288.768.492 1.116.036.06.06.108.096.156.396-.3.756-.624 1.044-.972a.409.409 0 01.3-.132.48.48 0 01.276.096c.096.072.144.18.144.288 0 .096-.036.18-.096.252a7.557 7.557 0 01-1.188 1.104c.372.432.816.756 1.284.948a.457.457 0 00.204.048c.12 0 .228-.06.312-.192.12-.192.204-.564.24-.876.024-.228.156-.324.336-.324.024 0 .048 0 .084.012.228.024.336.168.336.372v.06c-.06.528-.24 1.068-.456 1.38a.96.96 0 01-.816.42c-.216 0-.444-.048-.684-.168-.54-.24-1.08-.648-1.536-1.2-.816.516-1.74.948-2.604 1.188a.702.702 0 01-.156.024c-.192 0-.336-.096-.396-.276-.012-.06-.024-.108-.024-.156 0-.192.12-.324.324-.384a9.508 9.508 0 002.376-1.032c-.06-.096-.108-.192-.168-.288a7.129 7.129 0 01-.612-1.452l-2.82.024v.852a21.78 21.78 0 001.62-.288c.048-.012.084-.012.132-.012.168 0 .264.108.3.276.012.036.012.084.012.12 0 .168-.096.3-.276.336-.492.12-1.116.24-1.788.348v1.2c0 .648-.42.924-1.308.924-.324 0-.672-.036-.96-.108-.192-.048-.3-.18-.3-.36 0-.048.012-.096.012-.144.06-.204.204-.3.36-.3.036 0 .072 0 .096.012.216.06.48.096.792.096.348 0 .492-.06.492-.336v-.864c-.744.096-1.5.168-2.172.216h-.024c-.18 0-.336-.168-.348-.384v-.024c0-.216.132-.372.324-.384a31.153 31.153 0 002.22-.204v-.972l-2.448.024c-.204-.036-.312-.168-.312-.384s.108-.348.312-.36l2.448-.024v-.612c-.588.084-1.2.144-1.764.18h-.036c-.228 0-.324-.12-.348-.3v-.06c0-.168.108-.348.312-.36 1.32-.072 2.784-.288 3.708-.576a.471.471 0 01.168-.036c.144 0 .264.072.336.24.012.048.024.096.024.144 0 .144-.084.276-.288.336-.384.12-.828.216-1.296.3v.744zm1.488-4.848H86.88c-.192 0-.3-.168-.3-.36 0-.204.108-.36.3-.36h2.496a4.578 4.578 0 00-.48-.636.294.294 0 01-.072-.192c0-.12.084-.228.216-.288a.645.645 0 01.252-.06c.144 0 .276.06.372.18.204.228.456.588.708.996h2.148c.252-.312.516-.684.636-.936a.396.396 0 01.372-.24.61.61 0 01.204.036c.192.048.312.168.312.312a.264.264 0 01-.048.156c-.096.18-.3.444-.492.672h2.58c.192 0 .312.144.312.36 0 .192-.12.36-.312.36h-4.272v.72h3.624c.168 0 .276.156.276.36 0 .168-.108.36-.276.36h-3.624v.756h4.848c.192 0 .3.132.3.348 0 .192-.108.372-.3.372H86.34c-.192 0-.3-.18-.3-.372s.108-.348.3-.348h4.656v-.756h-3.468c-.18 0-.276-.192-.276-.36 0-.192.096-.36.276-.36h3.468v-.72zm3.336 3.144c.36.18.9.552 1.188.792.12.096.18.204.18.312a.318.318 0 01-.096.228.38.38 0 01-.312.156.476.476 0 01-.264-.096c-.3-.24-.792-.588-1.116-.768-.12-.072-.192-.18-.192-.3 0-.072.024-.156.084-.228a.375.375 0 01.3-.156c.072 0 .144.024.228.06z" fill="#2F6070"/></g><g><g transform="translate(145 157)"><use fill="#000" filter="url(#d)" xlink:href="#e"/><use fill="#E69877" xlink:href="#e"/></g><path d="M170.04 172.968h-10.092c-.252 0-.396-.276-.396-.528 0-.264.144-.516.396-.516h10.092c.252 0 .396.252.396.516 0 .252-.144.528-.396.528zm3.756-3.576a.482.482 0 01.18-.036c.132 0 .252.048.312.168.252.408.504.972.648 1.416.012.06.024.12.024.168 0 .168-.084.276-.24.324a.383.383 0 01-.168.036c-.144 0-.288-.084-.348-.276a8.741 8.741 0 00-.588-1.332.32.32 0 01-.036-.144c0-.156.108-.276.216-.324zm2.472-.444v2.736c.024-.012.06-.012.084-.024.048-.012.084-.012.12-.012.18 0 .276.12.3.324v.072c0 .168-.072.324-.252.372-.084.024-.168.036-.252.06v4.392c0 .72-.408 1.02-1.164 1.02-.324 0-.744-.036-.996-.084a.4.4 0 01-.336-.396c0-.036 0-.072.012-.108.048-.228.192-.336.36-.336.036 0 .072 0 .108.012.204.048.48.096.732.096.372 0 .468-.108.468-.468v-3.948c-.264.048-.54.096-.816.144v2.868c0 .204-.144.312-.372.312-.216 0-.372-.108-.372-.312v-2.76l-.816.108c-.084 1.872-.36 3.48-.936 4.608-.096.18-.228.264-.384.264a.59.59 0 01-.24-.06c-.168-.084-.24-.204-.24-.348a.54.54 0 01.072-.252c.492-.96.78-2.34.876-4.116-.168.012-.336.036-.504.048h-.048c-.216 0-.348-.144-.372-.408v-.06c0-.252.144-.36.36-.372.192-.012.396-.024.588-.048.012-.204.012-.42.012-.636v-2.688c0-.66.288-.912.936-.912h.48c.144-.312.288-.672.348-.924.048-.156.18-.252.372-.252.048 0 .096 0 .156.012.216.048.324.156.324.312 0 .024 0 .06-.012.084-.06.24-.18.54-.288.768h.78c.648 0 .912.252.912.912zm-.816 2.904v-2.736c0-.252-.108-.324-.348-.324h-1.656c-.228 0-.348.072-.348.324v3.072a30.81 30.81 0 002.352-.336zm2.052 1.068h-.372c-.228 0-.336-.18-.336-.408 0-.228.108-.408.336-.408h3.96c.528 0 .816.3.816.732 0 .132-.036.288-.096.456-.324.804-.876 1.632-1.584 2.376.6.54 1.308.984 2.196 1.368a.418.418 0 01.252.384.757.757 0 01-.06.264.461.461 0 01-.408.252.572.572 0 01-.24-.048 7.937 7.937 0 01-2.364-1.608 9.038 9.038 0 01-2.532 1.656.645.645 0 01-.252.06.387.387 0 01-.36-.216.547.547 0 01-.072-.264c0-.156.096-.3.276-.384a8.542 8.542 0 002.364-1.488c-.648-.828-1.14-1.74-1.524-2.724zm3.18 0h-2.34c.336.78.756 1.488 1.296 2.136.552-.576.984-1.212 1.224-1.812a.403.403 0 00.048-.18c0-.096-.072-.144-.228-.144zm-.636-2.448v-2.088c0-.228-.12-.3-.324-.3h-.924c-.204 0-.324.072-.324.3 0 1.5-.252 2.268-.972 3.036a.506.506 0 01-.36.168.51.51 0 01-.324-.132.394.394 0 01-.144-.324.41.41 0 01.12-.288c.696-.696.804-1.284.804-2.664 0-.636.324-.888.948-.888h1.416c.636 0 .948.264.948.876v2.016c0 .252.096.312.408.312.252 0 .36-.072.42-.264s.096-.516.108-.816c.012-.192.144-.324.384-.324h.036c.24.012.384.168.384.372-.012.528-.084 1.044-.252 1.356-.168.3-.432.432-1.128.432-.924 0-1.224-.156-1.224-.78zm12.9-.996h-3c-.3.6-.636 1.164-.984 1.584a.447.447 0 01-.36.168.546.546 0 01-.336-.12.436.436 0 01-.132-.312c0-.12.036-.24.132-.336.636-.744 1.26-2.064 1.56-3.288.06-.228.228-.312.42-.312.048 0 .096 0 .144.012.192.036.336.18.336.384 0 .048 0 .084-.012.132-.108.396-.24.792-.384 1.2h2.892c.744 0 1.068.324 1.068 1.068v.24c0 3.456-.252 5.628-.636 6.84-.252.792-.78 1.068-1.644 1.068a6.24 6.24 0 01-1.488-.18c-.192-.048-.288-.216-.288-.42 0-.048.012-.108.024-.168.06-.216.216-.324.396-.324.048 0 .096.012.144.024.3.096.696.156 1.14.156.516 0 .756-.12.9-.66.288-1.044.504-3.192.504-6.384 0-.288-.12-.372-.396-.372zm-6.816-.864h.756c.684 0 1.008.264 1.008.936v6.612c0 .684-.336.972-1.008.972h-2.076c-.684 0-1.02-.288-1.02-.972v-6.612c0-.672.324-.936 1.02-.936h.408c.192-.492.336-1.02.444-1.464.048-.18.192-.276.396-.276.048 0 .108 0 .156.012.252.048.36.168.36.36 0 .036 0 .072-.012.096a9.334 9.334 0 01-.432 1.272zm-1.428 3.648h2.28v-2.508c0-.264-.12-.324-.348-.324h-1.572c-.24 0-.36.06-.36.324v2.508zm0 .804v2.904c0 .276.12.336.36.336h1.572c.228 0 .348-.06.348-.336v-2.904h-2.28zm4.908-1.896a.636.636 0 01.324-.096c.108 0 .216.036.3.144.6.72 1.176 1.74 1.536 2.508a.47.47 0 01.048.216.445.445 0 01-.252.408.702.702 0 01-.264.06.426.426 0 01-.396-.276c-.3-.684-.84-1.692-1.38-2.388a.446.446 0 01-.096-.264c0-.12.06-.24.18-.312zm13.632-2.376a13.28 13.28 0 012.544 1.32c.168.108.24.288.24.444a.557.557 0 01-.072.276.499.499 0 01-.408.228.555.555 0 01-.3-.096c-.708-.492-1.608-.96-2.508-1.32-.156-.06-.228-.204-.228-.36a.512.512 0 01.516-.528.68.68 0 01.216.036zm-4.116 1.32c-.576 1.884-1.356 3.78-2.256 5.352-.12.204-.276.312-.444.312a.65.65 0 01-.336-.108.452.452 0 01-.228-.396c0-.108.036-.24.108-.36.828-1.404 1.632-3.12 2.124-4.74-.444.024-.912.036-1.38.036h-.456c-.276 0-.42-.18-.42-.468 0-.288.168-.468.444-.468h.516c.516 0 1.056-.012 1.572-.036.168-.588.312-1.188.432-1.8.024-.264.204-.396.444-.396a.45.45 0 01.12.012c.264.048.42.18.42.42 0 .048 0 .096-.012.156a45.813 45.813 0 01-.36 1.524 28.51 28.51 0 001.656-.168c.036-.012.072-.012.108-.012.24 0 .384.144.432.396v.072c0 .228-.144.408-.432.456-.624.096-1.332.156-2.052.216zm4.572 4.08c.804.384 1.656.948 2.256 1.548.12.12.18.264.18.396a.516.516 0 01-.48.504.569.569 0 01-.36-.156c-.468-.468-1.056-.96-1.56-1.248.024.144.024.3.024.408-.06 1.308-.9 1.92-2.532 1.92-1.5 0-2.496-.792-2.496-1.92 0-1.152 1.02-1.98 2.508-1.98.504 0 .996.072 1.488.204a24.735 24.735 0 01-.132-2.4c0-.348.204-.492.468-.492.288 0 .492.156.492.492 0 1.032.048 1.872.144 2.724zm-.9.636a3.783 3.783 0 00-1.536-.312c-.972 0-1.584.456-1.584 1.116 0 .66.588 1.032 1.572 1.032 1.02 0 1.572-.384 1.572-1.236 0-.192 0-.36-.024-.6zm-48.24 8.148h8.088c.54 0 .852.18 1.068.456.132.18.204.408.204.672 0 .228-.06.492-.18.756-.612 1.296-1.932 2.448-3.144 2.916a.757.757 0 01-.264.06.444.444 0 01-.408-.228.5.5 0 01.228-.72c1.056-.456 2.064-1.308 2.616-2.328a.815.815 0 00.084-.3c0-.168-.12-.288-.396-.288h-7.896c-.288 0-.432-.18-.432-.492s.156-.504.432-.504zm4.116 2.076c.324 0 .528.168.528.492-.012 2.1-.276 3.288-.756 4.248-.66 1.332-1.812 2.208-3.12 2.64a.627.627 0 01-.252.048c-.192 0-.336-.096-.432-.312a.61.61 0 01-.048-.24c0-.192.108-.348.348-.432 1.14-.384 2.088-1.152 2.568-2.184.408-.876.612-1.884.612-3.744 0-.348.228-.516.552-.516zm15.012-.312l-3.864.06c-.696 1.08-1.656 2.076-2.712 2.772a.63.63 0 01-.312.096.536.536 0 01-.408-.216.535.535 0 01-.096-.312c0-.156.072-.336.252-.444 1.188-.768 2.388-2.088 3.192-4.092.084-.216.228-.348.468-.348.06 0 .132.012.216.036.252.06.372.24.372.432a.702.702 0 01-.024.156c-.072.252-.24.588-.468.984l3.756-.072c.768-.012 1.248.42 1.248 1.2 0 .144-.012.288-.048.456-.72 3.396-3.108 6.144-7.2 7.128-.048.012-.096.012-.144.012-.24 0-.42-.12-.492-.348-.012-.06-.024-.12-.024-.18 0-.216.132-.396.396-.456 3.504-.924 5.652-3.06 6.372-6.312.012-.084.024-.144.024-.216 0-.228-.12-.336-.456-.336h-.048zm9.144 2.148h-4.512c-.276 0-.42-.216-.42-.492 0-.264.144-.468.432-.468h9.36c.3 0 .432.204.432.468 0 .276-.132.492-.42.492H183.9c-.012 1.44-.324 2.604-.936 3.54-.636 1.008-1.68 1.704-2.892 2.028a1.07 1.07 0 01-.264.036c-.204 0-.372-.096-.444-.288a.68.68 0 01-.036-.216c0-.216.12-.42.348-.48 1.056-.264 1.944-.876 2.436-1.704.468-.756.708-1.668.72-2.916zm-3.48-3.984h7.296c.3 0 .432.216.432.492 0 .264-.156.504-.432.504h-7.296c-.276 0-.432-.24-.432-.504 0-.276.144-.492.432-.492zm16.524 4.488v4.764c0 .252-.264.42-.504.42s-.48-.156-.48-.432v-4.2c-1.092.672-2.304 1.236-3.288 1.572a.815.815 0 01-.228.036.404.404 0 01-.408-.288.68.68 0 01-.036-.216c0-.204.108-.372.324-.444a16.817 16.817 0 003.648-1.776c1.044-.672 1.836-1.344 2.592-2.208a.38.38 0 01.312-.156c.12 0 .24.06.36.156a.506.506 0 01.168.36.568.568 0 01-.132.336c-.588.672-1.44 1.404-2.328 2.076zm6.216-3.804h7.26c.576 0 .924.144 1.152.432.168.216.252.516.252.864 0 .108-.012.216-.024.336-.516 3.648-3.036 6.384-7.02 7.368a.815.815 0 01-.228.036.438.438 0 01-.444-.336c-.024-.072-.024-.132-.024-.192a.5.5 0 01.384-.504c3.456-.912 5.808-3.18 6.204-6.408.012-.06.012-.12.012-.18 0-.312-.156-.396-.528-.396h-6.996c-.276 0-.432-.216-.432-.516 0-.288.168-.504.432-.504zm7.728-1.368c0-.168.168-.324.36-.324.168 0 .24.072.324.168.336.408.72 1.02.912 1.428a.74.74 0 01.06.324c0 .18-.18.312-.372.312s-.288-.096-.348-.24a8.338 8.338 0 00-.828-1.392.423.423 0 01-.108-.276zm1.548-.396c0-.192.18-.324.372-.324.132 0 .216.072.312.168.288.336.672.972.876 1.392.036.072.048.18.048.252 0 .24-.168.36-.372.36-.18 0-.252-.084-.324-.216a8.743 8.743 0 00-.792-1.356c-.096-.12-.12-.18-.12-.276zm-55.644 15.912h6.576c.252 0 .42.228.42.492 0 .252-.168.504-.42.504h-6.576c-.252 0-.42-.252-.42-.504 0-.264.168-.492.42-.492zm-.924 2.808h7.392c.564 0 .912.204 1.116.54.108.18.156.396.156.648 0 .18-.024.372-.072.576-.588 2.568-2.988 4.644-6.324 5.124-.036.012-.072.012-.108.012a.48.48 0 01-.504-.444c-.012-.036-.012-.072-.012-.108 0-.252.156-.432.42-.48 2.892-.444 4.944-2.148 5.472-4.272a.896.896 0 00.036-.24c0-.228-.132-.36-.528-.36H154.8c-.252 0-.408-.24-.408-.492 0-.264.156-.504.408-.504zm20.76 2.508h-9.132c-.3 0-.468-.192-.468-.516 0-.312.168-.54.48-.54h9.108c.312 0 .48.228.48.54 0 .324-.168.516-.468.516zm3.936-4.38h7.044c.276 0 .444.276.444.54 0 .288-.168.54-.432.54h-7.056c-.276 0-.444-.252-.444-.54 0-.264.168-.54.444-.54zm-.996 6.636h9.036c.288 0 .444.276.444.54 0 .288-.156.552-.432.552h-9.06c-.264 0-.432-.264-.432-.552 0-.264.168-.54.444-.54zm13.044-6.996c.876.552 1.968 1.404 2.664 2.256.096.12.144.252.144.384 0 .144-.06.288-.168.408a.492.492 0 01-.372.168c-.144 0-.3-.072-.444-.228-.66-.756-1.644-1.608-2.508-2.196a.466.466 0 01-.192-.384c0-.12.048-.252.132-.348a.47.47 0 01.384-.18c.132 0 .252.048.36.12zm8.04.876c.252.072.408.24.408.492 0 .072-.012.144-.024.216-.492 2.04-1.632 3.984-3.3 5.244-1.452 1.092-3.672 1.8-5.532 1.872h-.024c-.312 0-.54-.18-.564-.48v-.06c0-.288.18-.516.48-.528 1.776-.084 3.816-.78 5.016-1.704 1.404-1.092 2.448-2.844 2.88-4.62.084-.324.264-.456.48-.456.06 0 .12.012.18.024zm9.72.588l-3.864.06c-.696 1.08-1.656 2.076-2.712 2.772a.528.528 0 01-.312.096.502.502 0 01-.408-.216.533.533 0 01.156-.756c1.188-.768 2.388-2.088 3.192-4.092.084-.216.228-.348.468-.348.06 0 .132.012.216.036.252.072.372.24.372.444a.602.602 0 01-.024.144c-.072.252-.24.588-.468.984l3.756-.072c.768-.012 1.248.42 1.248 1.2 0 .144-.012.288-.048.456-.72 3.396-3.108 6.144-7.2 7.128-.048.012-.096.012-.144.012a.49.49 0 01-.492-.348c-.012-.06-.024-.12-.024-.168 0-.228.144-.408.396-.468 3.504-.924 5.652-3.06 6.372-6.312.012-.084.024-.156.024-.216 0-.228-.12-.336-.456-.336h-.048zm.432-2.436c0-.156.156-.324.348-.324.132 0 .216.036.312.132.372.372.804.948 1.032 1.344.036.072.084.156.084.312 0 .18-.168.336-.396.336-.144 0-.24-.06-.312-.204a7.91 7.91 0 00-.948-1.308.443.443 0 01-.12-.288zm1.5-.552c0-.156.18-.312.348-.312.132 0 .216.048.324.144.312.3.768.924.984 1.308a.647.647 0 01.072.3c0 .144-.144.336-.372.336-.144 0-.228-.06-.312-.192-.264-.456-.576-.924-.9-1.272-.108-.108-.144-.168-.144-.312z" fill="#2F6070"/></g><g><g transform="translate(201 17)"><use fill="#000" filter="url(#f)" xlink:href="#g"/><use fill="#CB4343" xlink:href="#g"/></g><path d="M215.704 61.556c2.112 0 3.06 1.104 3.492 2.16a.61.61 0 01.048.24c0 .252-.192.42-.372.48a.807.807 0 01-.288.048.524.524 0 01-.504-.312c-.36-.864-.96-1.572-2.328-1.572-1.8 0-2.988 1.452-2.988 3.816 0 2.316 1.188 3.804 2.988 3.804 1.44 0 2.124-.864 2.436-1.824a.544.544 0 01.54-.372c.072 0 .156.012.24.036.204.048.42.228.42.48a.61.61 0 01-.036.204c-.42 1.188-1.428 2.532-3.564 2.532-2.58 0-4.224-1.884-4.224-4.872 0-2.916 1.644-4.848 4.14-4.848zm10.512 5.052v4.068c0 .324-.24.48-.552.48-.324 0-.54-.156-.54-.48v-3.84c0-1.02-.42-1.584-1.32-1.584-.672 0-1.2.312-1.596.84-.3.408-.432.756-.432 1.224v3.36c0 .324-.204.48-.516.48-.336 0-.564-.156-.564-.48v-8.544c0-.312.228-.468.564-.468.312 0 .516.144.516.468v3.012c0 .156-.048.432-.072.612.396-.852 1.056-1.488 2.316-1.488 1.428 0 2.196.864 2.196 2.34zm5.736.228v-.516c0-.792-.432-1.14-1.38-1.14-.876 0-1.308.336-1.512.888-.084.228-.264.312-.468.312a.704.704 0 01-.276-.048c-.228-.072-.396-.24-.396-.456 0-.048.012-.096.024-.144.12-.372.432-.72.708-.936.42-.324.96-.528 1.932-.528 1.608 0 2.4.636 2.4 2.052v3.276c0 .42.06.828.132 1.056a.426.426 0 01.024.12c0 .192-.18.36-.48.384h-.108c-.24 0-.456-.072-.504-.288a3.413 3.413 0 01-.072-.6c-.456.516-1.092.984-2.28.984-1.32 0-2.124-.744-2.124-1.98 0-1.128.672-1.848 1.812-2.16.66-.18 1.284-.252 2.568-.276zm0 1.668V67.7c-1.404.036-2.064.156-2.544.396-.48.24-.732.612-.732 1.188 0 .624.48 1.044 1.2 1.044a2.26 2.26 0 001.764-.852c.228-.288.312-.516.312-.972zm2.808 2.172v-8.532c0-.324.216-.48.552-.48.324 0 .54.156.54.48v8.532c0 .324-.216.48-.54.48-.336 0-.552-.156-.552-.48zm2.796 0v-8.532c0-.324.216-.48.552-.48.324 0 .54.156.54.48v8.532c0 .324-.216.48-.54.48-.336 0-.552-.156-.552-.48zm7.788-2.712h-4.224c.024 1.476.756 2.4 2.052 2.4.864 0 1.344-.432 1.632-1.068.108-.216.264-.3.432-.3.084 0 .168.024.252.048.204.06.372.204.372.42a.37.37 0 01-.06.216c-.384.792-1.08 1.584-2.64 1.584-1.968 0-3.108-1.392-3.108-3.468s1.08-3.528 3.036-3.528c1.752 0 2.736 1.368 2.856 2.94v.096c0 .432-.228.66-.6.66zm-4.188-.876h3.516c.132 0 .18-.048.18-.156v-.06c-.144-.852-.66-1.728-1.764-1.728-1.152 0-1.776.768-1.932 1.944zm11.616-.48v4.068c0 .324-.24.48-.552.48-.324 0-.552-.156-.552-.48v-3.84c0-1.02-.408-1.596-1.308-1.596-.648 0-1.188.288-1.596.852-.3.408-.42.756-.42 1.224v3.36c0 .324-.228.48-.54.48-.336 0-.552-.156-.552-.48v-5.844c0-.312.228-.468.564-.468.312 0 .528.156.528.468v.324c0 .156-.036.276-.048.504.42-.852 1.14-1.392 2.28-1.392 1.428 0 2.196.864 2.196 2.34zm6.348-1.452v-.36c0-.252.168-.432.516-.432.324 0 .516.156.516.48V70.4c0 2.76-1.452 3.384-3.036 3.384-1.296 0-2.124-.432-2.58-1.02a.446.446 0 01-.096-.264c0-.156.084-.312.228-.42a.61.61 0 01.348-.12c.132 0 .252.048.348.156.444.516.972.768 1.704.768 1.5 0 2.04-.756 2.052-2.532 0-.144.024-.408.048-.576-.396.756-1.08 1.284-2.136 1.284-1.704 0-2.892-1.32-2.892-3.324 0-2.064 1.068-3.456 2.916-3.456 1.092 0 1.776.6 2.112 1.368-.012-.132-.048-.36-.048-.492zm-1.932.036c-1.224 0-1.944.996-1.944 2.544 0 1.524.816 2.448 1.932 2.448 1.224 0 1.968-1.044 1.968-2.532 0-1.428-.732-2.46-1.956-2.46zm9.66 2.772h-4.224c.024 1.476.756 2.4 2.052 2.4.864 0 1.344-.432 1.632-1.068.108-.216.264-.3.432-.3.084 0 .168.024.252.048.204.06.372.204.372.42a.37.37 0 01-.06.216c-.384.792-1.08 1.584-2.64 1.584-1.968 0-3.108-1.392-3.108-3.468s1.08-3.528 3.036-3.528c1.752 0 2.736 1.368 2.856 2.94v.096c0 .432-.228.66-.6.66zm-4.188-.876h3.516c.132 0 .18-.048.18-.156v-.06c-.144-.852-.66-1.728-1.764-1.728-1.152 0-1.776.768-1.932 1.944zm12.552-1.44v-3.492c0-.336.252-.492.6-.492.312 0 .552.156.552.492v8.508c0 .324-.24.492-.552.492-.348 0-.6-.168-.6-.492v-3.972H270.1v3.972c0 .324-.252.492-.576.492-.336 0-.576-.168-.576-.492v-8.508c0-.336.24-.492.576-.492.324 0 .576.156.576.492v3.492h5.112zm3.024 3.264v-4.068c0-.324.228-.48.552-.48.324 0 .552.156.552.48v3.84c0 1.032.42 1.608 1.308 1.608.636 0 1.152-.3 1.56-.864.288-.408.408-.78.408-1.248v-3.336c0-.324.228-.48.552-.48.312 0 .54.156.54.48v5.832c0 .324-.216.48-.528.48-.324 0-.552-.144-.552-.444v-.336c0-.132.036-.372.072-.564-.372.84-1.068 1.452-2.268 1.452-1.416 0-2.196-.888-2.196-2.352zm8.268 1.548v.252c0 .264-.18.444-.528.444-.336 0-.54-.156-.54-.48v-8.532c0-.324.204-.48.54-.48.312 0 .528.156.528.48v2.616c0 .252-.024.6-.06.876.444-.852 1.152-1.368 2.256-1.368 1.8 0 2.832 1.32 2.832 3.456 0 2.112-1.092 3.54-2.868 3.54-1.104 0-1.824-.54-2.208-1.38.024.18.048.42.048.576zm2.052-5.256c-1.32 0-2.076 1.068-2.076 2.544 0 1.488.78 2.568 2.04 2.568 1.212 0 1.908-1.032 1.908-2.58 0-1.56-.672-2.532-1.872-2.532z" fill="#FFF"/></g><g><g transform="rotate(64 36.804 196.145)"><use fill="#000" filter="url(#h)" xlink:href="#i"/><use fill="url(#j)" xlink:href="#i"/></g></g></g></svg>