<?xml version="1.0" encoding="UTF-8"?>
<svg width="334px" height="263px" viewBox="0 0 334 263" version="1.1" xmlns="http://www.w3.org/2000/svg" xmlns:xlink="http://www.w3.org/1999/xlink">
    <!-- Generator: Sketch 48.2 (47327) - http://www.bohemiancoding.com/sketch -->
    <title>effort-efficiency</title>
    <desc>Created with Sketch.</desc>
    <defs>
        <linearGradient x1="50%" y1="1.2236926%" x2="50%" y2="100%" id="linearGradient-1">
            <stop stop-color="#76C9AC" offset="0%"></stop>
            <stop stop-color="#D2EADC" offset="100%"></stop>
        </linearGradient>
        <path d="M0.73132,32.3384 C0.73132,14.630667 21.09103,0.275717 46.20605,0.275717 C71.32107,0.275717 91.68078,14.630667 91.68078,32.3384 C91.68078,50.046133 71.32107,64.401083 46.20605,64.401083 C21.09103,64.401083 0.73132,50.046133 0.73132,32.3384 Z" id="path-2"></path>
        <filter x="-7.7%" y="-7.8%" width="115.4%" height="121.8%" filterUnits="objectBoundingBox" id="filter-3">
            <feOffset dx="0" dy="2" in="SourceAlpha" result="shadowOffsetOuter1"></feOffset>
            <feGaussianBlur stdDeviation="2" in="shadowOffsetOuter1" result="shadowBlurOuter1"></feGaussianBlur>
            <feColorMatrix values="0 0 0 0 0.184313725   0 0 0 0 0.376470588   0 0 0 0 0.439215686  0 0 0 1 0" type="matrix" in="shadowBlurOuter1"></feColorMatrix>
        </filter>
        <path d="M0.0027,32.26157 C0.0027,14.553837 16.969192,0.198887 37.89833,0.198887 C58.82753,0.198887 75.79396,14.553837 75.79396,32.26157 C75.79396,49.969303 58.82753,64.324253 37.89833,64.324253 C16.969192,64.324253 0.0027,49.969303 0.0027,32.26157 Z" id="path-4"></path>
        <filter x="-9.2%" y="-7.8%" width="118.5%" height="121.8%" filterUnits="objectBoundingBox" id="filter-5">
            <feOffset dx="0" dy="2" in="SourceAlpha" result="shadowOffsetOuter1"></feOffset>
            <feGaussianBlur stdDeviation="2" in="shadowOffsetOuter1" result="shadowBlurOuter1"></feGaussianBlur>
            <feColorMatrix values="0 0 0 0 0.184313725   0 0 0 0 0.376470588   0 0 0 0 0.439215686  0 0 0 1 0" type="matrix" in="shadowBlurOuter1"></feColorMatrix>
        </filter>
        <path d="M0.0027,47.8966 C0.0027,21.67782 22.62886,0.423303 50.539626,0.423303 C63.942885,0.423303 76.797133,5.424951 86.274672,14.327905 C95.75215,23.23089 101.076552,35.305902 101.076552,47.8966 C101.076552,74.11538 78.450392,95.369897 50.539626,95.369897 C22.628859,95.369897 0.0027,74.11538 0.0027,47.8966 Z" id="path-6"></path>
        <filter x="-6.9%" y="-5.3%" width="113.9%" height="114.7%" filterUnits="objectBoundingBox" id="filter-7">
            <feOffset dx="0" dy="2" in="SourceAlpha" result="shadowOffsetOuter1"></feOffset>
            <feGaussianBlur stdDeviation="2" in="shadowOffsetOuter1" result="shadowBlurOuter1"></feGaussianBlur>
            <feColorMatrix values="0 0 0 0 0.184313725   0 0 0 0 0.376470588   0 0 0 0 0.439215686  0 0 0 1 0" type="matrix" in="shadowBlurOuter1"></feColorMatrix>
        </filter>
        <linearGradient x1="50%" y1="0%" x2="50%" y2="100%" id="linearGradient-8">
            <stop stop-color="#CB4343" offset="0%"></stop>
            <stop stop-color="#F1B182" offset="100%"></stop>
        </linearGradient>
        <path d="M7.90070581,17.936802 L2.90070581,17.936802 L11.9007058,0.936802026 L20.9007058,17.936802 L14.9007058,17.936802 L14.9007058,74.936802 L7.90070581,74.936802 L7.90070581,17.936802 Z" id="path-9"></path>
        <filter x="-30.6%" y="-7.4%" width="172.2%" height="117.6%" filterUnits="objectBoundingBox" id="filter-10">
            <feOffset dx="1" dy="1" in="SourceAlpha" result="shadowOffsetOuter1"></feOffset>
            <feGaussianBlur stdDeviation="2" in="shadowOffsetOuter1" result="shadowBlurOuter1"></feGaussianBlur>
            <feColorMatrix values="0 0 0 0 0.184313725   0 0 0 0 0.376470588   0 0 0 0 0.439215686  0 0 0 1 0" type="matrix" in="shadowBlurOuter1"></feColorMatrix>
        </filter>
    </defs>
    <g id="Page-1" stroke="none" stroke-width="1" fill="none" fill-rule="evenodd">
        <g id="ca" transform="translate(-3.000000, -3.000000)">
            <g id="Axis">
                <polygon id="Background" fill="url(#linearGradient-1)" points="4.32079797e-14 0 339 0 339 270 0 270"></polygon>
                <path d="M29.23666,16.5 L29.23666,240.45009" id="y-Axis" stroke="#2F6070" stroke-linejoin="round"></path>
                <path d="M29,240 L323.5,240" id="x-Axis" stroke="#2F6070" stroke-linejoin="round"></path>
                <path d="M116.174,250.704 L116.174,253.656 C116.174,253.932 116.354,254.04 116.618,254.04 L120.914,254.04 C121.226,254.04 121.394,254.256 121.394,254.556 C121.394,254.844 121.226,255.084 120.914,255.084 L116.27,255.084 C115.418,255.084 115.046,254.712 115.046,253.8 L115.046,247.032 C115.046,246.108 115.418,245.736 116.27,245.736 L120.806,245.736 C121.118,245.736 121.286,245.952 121.286,246.252 C121.286,246.552 121.118,246.78 120.806,246.78 L116.582,246.78 C116.294,246.78 116.174,246.912 116.174,247.2 L116.174,249.684 L120.266,249.684 C120.566,249.684 120.734,249.9 120.734,250.2 C120.734,250.476 120.554,250.704 120.266,250.704 L116.174,250.704 Z M123.434,248.436 L123.434,247.572 C123.434,246.024 124.382,245.604 125.294,245.604 C125.69,245.604 125.99,245.628 126.326,245.736 C126.554,245.808 126.65,245.988 126.65,246.168 C126.65,246.252 126.638,246.324 126.602,246.396 C126.53,246.6 126.362,246.756 126.146,246.756 C126.086,246.756 126.026,246.744 125.954,246.72 C125.75,246.636 125.546,246.6 125.294,246.6 C124.85,246.6 124.514,246.84 124.514,247.704 L124.514,248.436 L125.954,248.436 C126.254,248.436 126.398,248.64 126.398,248.928 C126.398,249.204 126.242,249.384 125.954,249.384 L124.514,249.384 L124.514,254.676 C124.514,255 124.286,255.156 123.974,255.156 C123.65,255.156 123.434,255 123.434,254.676 L123.434,249.384 L122.414,249.384 C122.126,249.384 121.982,249.204 121.982,248.928 C121.982,248.652 122.114,248.436 122.414,248.436 L123.434,248.436 Z M132.41,251.964 L128.186,251.964 C128.21,253.44 128.942,254.364 130.238,254.364 C131.102,254.364 131.582,253.932 131.87,253.296 C131.978,253.08 132.134,252.996 132.302,252.996 C132.386,252.996 132.47,253.02 132.554,253.044 C132.758,253.104 132.926,253.248 132.926,253.464 C132.926,253.536 132.914,253.608 132.866,253.68 C132.482,254.472 131.786,255.264 130.226,255.264 C128.258,255.264 127.118,253.872 127.118,251.796 C127.118,249.72 128.198,248.268 130.154,248.268 C131.906,248.268 132.89,249.636 133.01,251.208 L133.01,251.304 C133.01,251.736 132.782,251.964 132.41,251.964 Z M128.222,251.088 L131.738,251.088 C131.87,251.088 131.918,251.04 131.918,250.932 L131.918,250.872 C131.774,250.02 131.258,249.144 130.154,249.144 C129.002,249.144 128.378,249.912 128.222,251.088 Z M134.006,251.784 C134.006,249.732 135.062,248.256 137.03,248.256 C138.614,248.256 139.262,249.132 139.562,249.888 C139.586,249.948 139.598,250.02 139.598,250.068 C139.598,250.296 139.418,250.44 139.238,250.512 C139.154,250.536 139.058,250.548 138.974,250.548 C138.794,250.548 138.638,250.476 138.554,250.272 C138.326,249.66 137.966,249.192 137.054,249.192 C135.806,249.192 135.122,250.248 135.122,251.772 C135.122,253.344 135.794,254.34 137.066,254.34 C138.002,254.34 138.374,253.884 138.602,253.236 C138.686,253.008 138.854,252.912 139.046,252.912 C139.13,252.912 139.214,252.924 139.298,252.96 C139.514,253.008 139.682,253.152 139.682,253.368 C139.682,253.44 139.67,253.5 139.634,253.584 C139.31,254.412 138.674,255.276 137.042,255.276 C135.098,255.276 134.006,253.848 134.006,251.784 Z M141.674,248.436 L141.674,246.984 C141.674,246.672 141.878,246.504 142.214,246.504 C142.526,246.504 142.754,246.672 142.754,246.984 L142.754,248.436 L144.29,248.436 C144.59,248.436 144.734,248.628 144.734,248.916 C144.734,249.192 144.578,249.384 144.29,249.384 L142.754,249.384 L142.754,253.404 C142.754,253.992 143.006,254.244 143.45,254.244 C143.75,254.244 143.954,254.16 144.158,254.04 C144.23,254.004 144.302,253.98 144.374,253.98 C144.554,253.98 144.698,254.112 144.77,254.292 C144.806,254.376 144.818,254.472 144.818,254.556 C144.818,254.724 144.746,254.892 144.566,254.988 C144.218,255.156 143.894,255.252 143.378,255.252 C142.394,255.252 141.674,254.76 141.674,253.5 L141.674,249.384 L140.738,249.384 C140.45,249.384 140.318,249.192 140.318,248.916 C140.318,248.64 140.45,248.436 140.75,248.436 L141.674,248.436 Z M145.802,254.676 L145.802,248.832 C145.802,248.52 146.006,248.364 146.342,248.364 C146.666,248.364 146.894,248.52 146.894,248.832 L146.894,254.676 C146.894,255 146.666,255.156 146.342,255.156 C146.006,255.156 145.802,255 145.802,254.676 Z M146.354,245.652 C146.798,245.652 147.158,246 147.158,246.456 C147.158,246.924 146.798,247.272 146.354,247.272 C145.898,247.272 145.538,246.924 145.538,246.456 C145.538,246 145.898,245.652 146.354,245.652 Z M151.562,252.42 L152.93,248.712 C153.026,248.472 153.194,248.364 153.41,248.364 C153.482,248.364 153.554,248.376 153.638,248.4 C153.878,248.472 154.034,248.628 154.034,248.856 C154.034,248.916 154.022,248.988 153.986,249.06 L151.778,254.676 C151.634,255.048 151.37,255.156 151.058,255.156 C150.734,255.156 150.482,255.036 150.338,254.664 L148.13,249.06 C148.106,248.988 148.094,248.928 148.094,248.868 C148.094,248.64 148.25,248.46 148.478,248.4 C148.562,248.376 148.646,248.364 148.718,248.364 C148.934,248.364 149.114,248.46 149.198,248.7 L150.59,252.48 C150.734,252.888 150.974,253.692 151.07,254.124 C151.178,253.68 151.406,252.828 151.562,252.42 Z M155.21,254.676 L155.21,248.832 C155.21,248.52 155.414,248.364 155.75,248.364 C156.074,248.364 156.302,248.52 156.302,248.832 L156.302,254.676 C156.302,255 156.074,255.156 155.75,255.156 C155.414,255.156 155.21,255 155.21,254.676 Z M155.762,245.652 C156.206,245.652 156.566,246 156.566,246.456 C156.566,246.924 156.206,247.272 155.762,247.272 C155.306,247.272 154.946,246.924 154.946,246.456 C154.946,246 155.306,245.652 155.762,245.652 Z M158.726,248.436 L158.726,246.984 C158.726,246.672 158.93,246.504 159.266,246.504 C159.578,246.504 159.806,246.672 159.806,246.984 L159.806,248.436 L161.342,248.436 C161.642,248.436 161.786,248.628 161.786,248.916 C161.786,249.192 161.63,249.384 161.342,249.384 L159.806,249.384 L159.806,253.404 C159.806,253.992 160.058,254.244 160.502,254.244 C160.802,254.244 161.006,254.16 161.21,254.04 C161.282,254.004 161.354,253.98 161.426,253.98 C161.606,253.98 161.75,254.112 161.822,254.292 C161.858,254.376 161.87,254.472 161.87,254.556 C161.87,254.724 161.798,254.892 161.618,254.988 C161.27,255.156 160.946,255.252 160.43,255.252 C159.446,255.252 158.726,254.76 158.726,253.5 L158.726,249.384 L157.79,249.384 C157.502,249.384 157.37,249.192 157.37,248.916 C157.37,248.64 157.502,248.436 157.802,248.436 L158.726,248.436 Z M166.91,250.836 L166.91,250.32 C166.91,249.528 166.478,249.18 165.53,249.18 C164.654,249.18 164.222,249.516 164.018,250.068 C163.934,250.296 163.754,250.38 163.55,250.38 C163.454,250.38 163.358,250.368 163.274,250.332 C163.046,250.26 162.878,250.092 162.878,249.876 C162.878,249.828 162.89,249.78 162.902,249.732 C163.022,249.36 163.334,249.012 163.61,248.796 C164.03,248.472 164.57,248.268 165.542,248.268 C167.15,248.268 167.942,248.904 167.942,250.32 L167.942,253.596 C167.942,254.016 168.002,254.424 168.074,254.652 C168.086,254.688 168.098,254.736 168.098,254.772 C168.098,254.964 167.918,255.132 167.618,255.156 L167.51,255.156 C167.27,255.156 167.054,255.084 167.006,254.868 C166.97,254.724 166.946,254.508 166.934,254.268 C166.478,254.784 165.842,255.252 164.654,255.252 C163.334,255.252 162.53,254.508 162.53,253.272 C162.53,252.144 163.202,251.424 164.342,251.112 C165.002,250.932 165.626,250.86 166.91,250.836 Z M166.91,252.504 L166.91,251.7 C165.506,251.736 164.846,251.856 164.366,252.096 C163.886,252.336 163.634,252.708 163.634,253.284 C163.634,253.908 164.114,254.328 164.834,254.328 C165.59,254.328 166.214,253.956 166.598,253.476 C166.826,253.188 166.91,252.96 166.91,252.504 Z M170.438,248.436 L170.438,246.984 C170.438,246.672 170.642,246.504 170.978,246.504 C171.29,246.504 171.518,246.672 171.518,246.984 L171.518,248.436 L173.054,248.436 C173.354,248.436 173.498,248.628 173.498,248.916 C173.498,249.192 173.342,249.384 173.054,249.384 L171.518,249.384 L171.518,253.404 C171.518,253.992 171.77,254.244 172.214,254.244 C172.514,254.244 172.718,254.16 172.922,254.04 C172.994,254.004 173.066,253.98 173.138,253.98 C173.318,253.98 173.462,254.112 173.534,254.292 C173.57,254.376 173.582,254.472 173.582,254.556 C173.582,254.724 173.51,254.892 173.33,254.988 C172.982,255.156 172.658,255.252 172.142,255.252 C171.158,255.252 170.438,254.76 170.438,253.5 L170.438,249.384 L169.502,249.384 C169.214,249.384 169.082,249.192 169.082,248.916 C169.082,248.64 169.214,248.436 169.514,248.436 L170.438,248.436 Z M183.278,248.76 L183.278,246.144 C183.278,245.82 183.506,245.664 183.806,245.664 C184.142,245.664 184.346,245.82 184.346,246.144 L184.346,254.676 C184.346,255 184.13,255.156 183.794,255.156 C183.446,255.156 183.278,254.964 183.278,254.712 L183.278,254.46 C183.278,254.328 183.302,254.076 183.314,253.908 C182.906,254.748 182.222,255.264 181.106,255.264 C179.354,255.264 178.25,253.884 178.25,251.724 C178.25,249.624 179.342,248.268 181.118,248.268 C182.234,248.268 182.906,248.796 183.326,249.648 C183.302,249.372 183.278,249.024 183.278,248.76 Z M181.262,249.204 C180.05,249.204 179.354,250.212 179.354,251.736 C179.354,253.308 180.05,254.328 181.262,254.328 C182.522,254.328 183.302,253.236 183.302,251.748 C183.302,250.284 182.582,249.204 181.262,249.204 Z M191.042,251.964 L186.818,251.964 C186.842,253.44 187.574,254.364 188.87,254.364 C189.734,254.364 190.214,253.932 190.502,253.296 C190.61,253.08 190.766,252.996 190.934,252.996 C191.018,252.996 191.102,253.02 191.186,253.044 C191.39,253.104 191.558,253.248 191.558,253.464 C191.558,253.536 191.546,253.608 191.498,253.68 C191.114,254.472 190.418,255.264 188.858,255.264 C186.89,255.264 185.75,253.872 185.75,251.796 C185.75,249.72 186.83,248.268 188.786,248.268 C190.538,248.268 191.522,249.636 191.642,251.208 L191.642,251.304 C191.642,251.736 191.414,251.964 191.042,251.964 Z M186.854,251.088 L190.37,251.088 C190.502,251.088 190.55,251.04 190.55,250.932 L190.55,250.872 C190.406,250.02 189.89,249.144 188.786,249.144 C187.634,249.144 187.01,249.912 186.854,251.088 Z M196.934,254.676 L196.934,246.144 C196.934,245.82 197.15,245.664 197.486,245.664 C197.81,245.664 198.026,245.82 198.026,246.144 L198.026,254.676 C198.026,255 197.81,255.156 197.486,255.156 C197.15,255.156 196.934,255 196.934,254.676 Z M200.198,248.748 L200.006,246.168 L200.006,246.132 C200.006,245.844 200.282,245.664 200.63,245.664 C200.99,245.664 201.254,245.844 201.254,246.132 L201.254,246.168 L201.062,248.748 C201.05,249 200.87,249.108 200.63,249.108 C200.39,249.108 200.21,249 200.198,248.748 Z M208.202,251.964 L203.978,251.964 C204.002,253.44 204.734,254.364 206.03,254.364 C206.894,254.364 207.374,253.932 207.662,253.296 C207.77,253.08 207.926,252.996 208.094,252.996 C208.178,252.996 208.262,253.02 208.346,253.044 C208.55,253.104 208.718,253.248 208.718,253.464 C208.718,253.536 208.706,253.608 208.658,253.68 C208.274,254.472 207.578,255.264 206.018,255.264 C204.05,255.264 202.91,253.872 202.91,251.796 C202.91,249.72 203.99,248.268 205.946,248.268 C207.698,248.268 208.682,249.636 208.802,251.208 L208.802,251.304 C208.802,251.736 208.574,251.964 208.202,251.964 Z M204.014,251.088 L207.53,251.088 C207.662,251.088 207.71,251.04 207.71,250.932 L207.71,250.872 C207.566,250.02 207.05,249.144 205.946,249.144 C204.794,249.144 204.17,249.912 204.014,251.088 Z M212.69,252.168 L212.006,252.036 C210.53,251.748 209.918,251.232 209.918,250.092 C209.918,249 210.854,248.256 212.402,248.256 C213.734,248.256 214.586,248.82 214.886,249.696 C214.898,249.744 214.91,249.792 214.91,249.84 C214.91,250.068 214.706,250.224 214.49,250.284 C214.43,250.296 214.358,250.308 214.298,250.308 C214.082,250.308 213.866,250.212 213.806,249.984 C213.65,249.444 213.122,249.168 212.438,249.168 C211.466,249.168 211.01,249.564 211.01,250.068 C211.01,250.62 211.238,250.86 212.246,251.076 L212.99,251.232 C214.55,251.556 215.174,252.012 215.174,253.272 C215.174,254.424 214.19,255.276 212.51,255.276 C210.974,255.276 210.074,254.664 209.762,253.596 C209.75,253.536 209.738,253.488 209.738,253.44 C209.738,253.2 209.942,253.032 210.17,252.984 C210.23,252.972 210.29,252.96 210.338,252.96 C210.566,252.96 210.782,253.056 210.854,253.284 C211.07,253.98 211.562,254.328 212.51,254.328 C213.47,254.328 214.094,253.908 214.094,253.296 C214.094,252.708 213.782,252.384 212.69,252.168 Z M217.238,248.436 L217.238,246.984 C217.238,246.672 217.442,246.504 217.778,246.504 C218.09,246.504 218.318,246.672 218.318,246.984 L218.318,248.436 L219.854,248.436 C220.154,248.436 220.298,248.628 220.298,248.916 C220.298,249.192 220.142,249.384 219.854,249.384 L218.318,249.384 L218.318,253.404 C218.318,253.992 218.57,254.244 219.014,254.244 C219.314,254.244 219.518,254.16 219.722,254.04 C219.794,254.004 219.866,253.98 219.938,253.98 C220.118,253.98 220.262,254.112 220.334,254.292 C220.37,254.376 220.382,254.472 220.382,254.556 C220.382,254.724 220.31,254.892 220.13,254.988 C219.782,255.156 219.458,255.252 218.942,255.252 C217.958,255.252 217.238,254.76 217.238,253.5 L217.238,249.384 L216.302,249.384 C216.014,249.384 215.882,249.192 215.882,248.916 C215.882,248.64 216.014,248.436 216.314,248.436 L217.238,248.436 Z M221.33,252.912 L221.33,248.844 C221.33,248.52 221.558,248.364 221.882,248.364 C222.206,248.364 222.434,248.52 222.434,248.844 L222.434,252.684 C222.434,253.716 222.854,254.292 223.742,254.292 C224.378,254.292 224.894,253.992 225.302,253.428 C225.59,253.02 225.71,252.648 225.71,252.18 L225.71,248.844 C225.71,248.52 225.938,248.364 226.262,248.364 C226.574,248.364 226.802,248.52 226.802,248.844 L226.802,254.676 C226.802,255 226.586,255.156 226.274,255.156 C225.95,255.156 225.722,255.012 225.722,254.712 L225.722,254.376 C225.722,254.244 225.758,254.004 225.794,253.812 C225.422,254.652 224.726,255.264 223.526,255.264 C222.11,255.264 221.33,254.376 221.33,252.912 Z M233.246,248.76 L233.246,246.144 C233.246,245.82 233.474,245.664 233.774,245.664 C234.11,245.664 234.314,245.82 234.314,246.144 L234.314,254.676 C234.314,255 234.098,255.156 233.762,255.156 C233.414,255.156 233.246,254.964 233.246,254.712 L233.246,254.46 C233.246,254.328 233.27,254.076 233.282,253.908 C232.874,254.748 232.19,255.264 231.074,255.264 C229.322,255.264 228.218,253.884 228.218,251.724 C228.218,249.624 229.31,248.268 231.086,248.268 C232.202,248.268 232.874,248.796 233.294,249.648 C233.27,249.372 233.246,249.024 233.246,248.76 Z M231.23,249.204 C230.018,249.204 229.322,250.212 229.322,251.736 C229.322,253.308 230.018,254.328 231.23,254.328 C232.49,254.328 233.27,253.236 233.27,251.748 C233.27,250.284 232.55,249.204 231.23,249.204 Z M236.03,254.676 L236.03,248.832 C236.03,248.52 236.234,248.364 236.57,248.364 C236.894,248.364 237.122,248.52 237.122,248.832 L237.122,254.676 C237.122,255 236.894,255.156 236.57,255.156 C236.234,255.156 236.03,255 236.03,254.676 Z M236.582,245.652 C237.026,245.652 237.386,246 237.386,246.456 C237.386,246.924 237.026,247.272 236.582,247.272 C236.126,247.272 235.766,246.924 235.766,246.456 C235.766,246 236.126,245.652 236.582,245.652 Z" id="Efectivitat-de-l'est-Copy" fill="#2F6070"></path>
                <path d="M-41.206,130.204 L-41.206,133.156 C-41.206,133.432 -41.026,133.54 -40.762,133.54 L-36.466,133.54 C-36.154,133.54 -35.986,133.756 -35.986,134.056 C-35.986,134.344 -36.154,134.584 -36.466,134.584 L-41.11,134.584 C-41.962,134.584 -42.334,134.212 -42.334,133.3 L-42.334,126.532 C-42.334,125.608 -41.962,125.236 -41.11,125.236 L-36.574,125.236 C-36.262,125.236 -36.094,125.452 -36.094,125.752 C-36.094,126.052 -36.262,126.28 -36.574,126.28 L-40.798,126.28 C-41.086,126.28 -41.206,126.412 -41.206,126.7 L-41.206,129.184 L-37.114,129.184 C-36.814,129.184 -36.646,129.4 -36.646,129.7 C-36.646,129.976 -36.826,130.204 -37.114,130.204 L-41.206,130.204 Z M-33.946,127.936 L-33.946,127.072 C-33.946,125.524 -32.998,125.104 -32.086,125.104 C-31.69,125.104 -31.402,125.128 -31.054,125.236 C-30.826,125.308 -30.742,125.488 -30.742,125.668 C-30.742,125.752 -30.754,125.824 -30.79,125.896 C-30.85,126.1 -31.018,126.256 -31.234,126.256 C-31.294,126.256 -31.354,126.244 -31.426,126.22 C-31.63,126.136 -31.834,126.1 -32.086,126.1 C-32.53,126.1 -32.878,126.34 -32.878,127.204 L-32.878,127.936 L-31.426,127.936 C-31.126,127.936 -30.982,128.14 -30.982,128.428 C-30.982,128.704 -31.138,128.884 -31.426,128.884 L-32.878,128.884 L-32.878,134.176 C-32.878,134.5 -33.094,134.656 -33.406,134.656 C-33.73,134.656 -33.946,134.5 -33.946,134.176 L-33.946,128.884 L-34.966,128.884 C-35.254,128.884 -35.398,128.704 -35.398,128.428 C-35.398,128.152 -35.266,127.936 -34.966,127.936 L-33.946,127.936 Z M-29.938,134.176 L-29.938,128.332 C-29.938,128.02 -29.734,127.864 -29.398,127.864 C-29.074,127.864 -28.858,128.02 -28.858,128.332 L-28.858,134.176 C-28.858,134.5 -29.074,134.656 -29.398,134.656 C-29.734,134.656 -29.938,134.5 -29.938,134.176 Z M-29.386,125.152 C-28.942,125.152 -28.582,125.5 -28.582,125.956 C-28.582,126.424 -28.942,126.772 -29.386,126.772 C-29.842,126.772 -30.202,126.424 -30.202,125.956 C-30.202,125.5 -29.842,125.152 -29.386,125.152 Z M-27.454,131.284 C-27.454,129.232 -26.398,127.756 -24.43,127.756 C-22.846,127.756 -22.198,128.632 -21.898,129.388 C-21.874,129.448 -21.862,129.52 -21.862,129.568 C-21.862,129.796 -22.042,129.94 -22.222,130.012 C-22.306,130.036 -22.402,130.048 -22.486,130.048 C-22.666,130.048 -22.822,129.976 -22.906,129.772 C-23.134,129.16 -23.494,128.692 -24.406,128.692 C-25.654,128.692 -26.338,129.748 -26.338,131.272 C-26.338,132.844 -25.666,133.84 -24.394,133.84 C-23.458,133.84 -23.086,133.384 -22.858,132.736 C-22.774,132.508 -22.606,132.412 -22.414,132.412 C-22.33,132.412 -22.246,132.424 -22.162,132.46 C-21.946,132.508 -21.778,132.652 -21.778,132.868 C-21.778,132.94 -21.79,133 -21.826,133.084 C-22.15,133.912 -22.786,134.776 -24.418,134.776 C-26.362,134.776 -27.454,133.348 -27.454,131.284 Z M-20.494,134.176 L-20.494,128.332 C-20.494,128.02 -20.29,127.864 -19.954,127.864 C-19.63,127.864 -19.402,128.02 -19.402,128.332 L-19.402,134.176 C-19.402,134.5 -19.63,134.656 -19.954,134.656 C-20.29,134.656 -20.494,134.5 -20.494,134.176 Z M-19.942,125.152 C-19.498,125.152 -19.138,125.5 -19.138,125.956 C-19.138,126.424 -19.498,126.772 -19.942,126.772 C-20.398,126.772 -20.758,126.424 -20.758,125.956 C-20.758,125.5 -20.398,125.152 -19.942,125.152 Z M-12.706,131.464 L-16.93,131.464 C-16.906,132.94 -16.174,133.864 -14.878,133.864 C-14.014,133.864 -13.534,133.432 -13.246,132.796 C-13.138,132.58 -12.982,132.496 -12.814,132.496 C-12.73,132.496 -12.646,132.52 -12.562,132.544 C-12.358,132.604 -12.19,132.748 -12.19,132.964 C-12.19,133.036 -12.202,133.108 -12.25,133.18 C-12.634,133.972 -13.33,134.764 -14.89,134.764 C-16.858,134.764 -17.998,133.372 -17.998,131.296 C-17.998,129.22 -16.918,127.768 -14.962,127.768 C-13.21,127.768 -12.226,129.136 -12.106,130.708 L-12.106,130.804 C-12.106,131.236 -12.334,131.464 -12.706,131.464 Z M-16.894,130.588 L-13.378,130.588 C-13.246,130.588 -13.198,130.54 -13.198,130.432 L-13.198,130.372 C-13.342,129.52 -13.858,128.644 -14.962,128.644 C-16.114,128.644 -16.738,129.412 -16.894,130.588 Z M-15.826,125.236 L-14.434,126.7 C-14.374,126.772 -14.338,126.856 -14.338,126.94 C-14.338,127 -14.362,127.06 -14.41,127.12 C-14.482,127.192 -14.566,127.228 -14.65,127.228 C-14.722,127.228 -14.794,127.204 -14.866,127.156 L-16.558,126.028 C-16.678,125.944 -16.738,125.836 -16.738,125.704 C-16.738,125.56 -16.666,125.416 -16.546,125.296 C-16.438,125.176 -16.27,125.116 -16.126,125.116 C-16.006,125.116 -15.91,125.152 -15.826,125.236 Z M-5.278,130.108 L-5.278,134.176 C-5.278,134.5 -5.518,134.656 -5.83,134.656 C-6.154,134.656 -6.382,134.5 -6.382,134.176 L-6.382,130.336 C-6.382,129.316 -6.79,128.74 -7.69,128.74 C-8.338,128.74 -8.878,129.028 -9.286,129.592 C-9.586,130 -9.706,130.348 -9.706,130.816 L-9.706,134.176 C-9.706,134.5 -9.934,134.656 -10.246,134.656 C-10.582,134.656 -10.798,134.5 -10.798,134.176 L-10.798,128.332 C-10.798,128.02 -10.57,127.864 -10.234,127.864 C-9.922,127.864 -9.706,128.02 -9.706,128.332 L-9.706,128.656 C-9.706,128.812 -9.742,128.932 -9.754,129.16 C-9.334,128.308 -8.614,127.768 -7.474,127.768 C-6.046,127.768 -5.278,128.632 -5.278,130.108 Z M-3.91,131.284 C-3.91,129.232 -2.854,127.756 -0.886,127.756 C0.698,127.756 1.346,128.632 1.646,129.388 C1.67,129.448 1.682,129.52 1.682,129.568 C1.682,129.796 1.502,129.94 1.322,130.012 C1.238,130.036 1.142,130.048 1.058,130.048 C0.878,130.048 0.722,129.976 0.638,129.772 C0.41,129.16 0.05,128.692 -0.862,128.692 C-2.11,128.692 -2.794,129.748 -2.794,131.272 C-2.794,132.844 -2.122,133.84 -0.85,133.84 C0.086,133.84 0.458,133.384 0.686,132.736 C0.77,132.508 0.938,132.412 1.13,132.412 C1.214,132.412 1.298,132.424 1.382,132.46 C1.598,132.508 1.766,132.652 1.766,132.868 C1.766,132.94 1.754,133 1.718,133.084 C1.394,133.912 0.758,134.776 -0.874,134.776 C-2.818,134.776 -3.91,133.348 -3.91,131.284 Z M3.05,134.176 L3.05,128.332 C3.05,128.02 3.254,127.864 3.59,127.864 C3.914,127.864 4.142,128.02 4.142,128.332 L4.142,134.176 C4.142,134.5 3.914,134.656 3.59,134.656 C3.254,134.656 3.05,134.5 3.05,134.176 Z M3.602,125.152 C4.046,125.152 4.406,125.5 4.406,125.956 C4.406,126.424 4.046,126.772 3.602,126.772 C3.146,126.772 2.786,126.424 2.786,125.956 C2.786,125.5 3.146,125.152 3.602,125.152 Z M9.914,130.336 L9.914,129.82 C9.914,129.028 9.482,128.68 8.534,128.68 C7.658,128.68 7.226,129.016 7.022,129.568 C6.938,129.796 6.758,129.88 6.554,129.88 C6.458,129.88 6.362,129.868 6.278,129.832 C6.05,129.76 5.882,129.592 5.882,129.376 C5.882,129.328 5.894,129.28 5.906,129.232 C6.026,128.86 6.338,128.512 6.614,128.296 C7.034,127.972 7.574,127.768 8.546,127.768 C10.154,127.768 10.946,128.404 10.946,129.82 L10.946,133.096 C10.946,133.516 11.006,133.924 11.078,134.152 C11.09,134.188 11.102,134.236 11.102,134.272 C11.102,134.464 10.922,134.632 10.622,134.656 L10.514,134.656 C10.274,134.656 10.058,134.584 10.01,134.368 C9.974,134.224 9.95,134.008 9.938,133.768 C9.482,134.284 8.846,134.752 7.658,134.752 C6.338,134.752 5.534,134.008 5.534,132.772 C5.534,131.644 6.206,130.924 7.346,130.612 C8.006,130.432 8.63,130.36 9.914,130.336 Z M9.914,132.004 L9.914,131.2 C8.51,131.236 7.85,131.356 7.37,131.596 C6.89,131.836 6.638,132.208 6.638,132.784 C6.638,133.408 7.118,133.828 7.838,133.828 C8.594,133.828 9.218,133.456 9.602,132.976 C9.83,132.688 9.914,132.46 9.914,132.004 Z M21.446,128.26 L21.446,125.644 C21.446,125.32 21.674,125.164 21.974,125.164 C22.31,125.164 22.514,125.32 22.514,125.644 L22.514,134.176 C22.514,134.5 22.298,134.656 21.962,134.656 C21.614,134.656 21.446,134.464 21.446,134.212 L21.446,133.96 C21.446,133.828 21.47,133.576 21.482,133.408 C21.074,134.248 20.39,134.764 19.274,134.764 C17.522,134.764 16.418,133.384 16.418,131.224 C16.418,129.124 17.51,127.768 19.286,127.768 C20.402,127.768 21.074,128.296 21.494,129.148 C21.47,128.872 21.446,128.524 21.446,128.26 Z M19.43,128.704 C18.218,128.704 17.522,129.712 17.522,131.236 C17.522,132.808 18.218,133.828 19.43,133.828 C20.69,133.828 21.47,132.736 21.47,131.248 C21.47,129.784 20.75,128.704 19.43,128.704 Z M29.21,131.464 L24.986,131.464 C25.01,132.94 25.742,133.864 27.038,133.864 C27.902,133.864 28.382,133.432 28.67,132.796 C28.778,132.58 28.934,132.496 29.102,132.496 C29.186,132.496 29.27,132.52 29.354,132.544 C29.558,132.604 29.726,132.748 29.726,132.964 C29.726,133.036 29.714,133.108 29.666,133.18 C29.282,133.972 28.586,134.764 27.026,134.764 C25.058,134.764 23.918,133.372 23.918,131.296 C23.918,129.22 24.998,127.768 26.954,127.768 C28.706,127.768 29.69,129.136 29.81,130.708 L29.81,130.804 C29.81,131.236 29.582,131.464 29.21,131.464 Z M25.022,130.588 L28.538,130.588 C28.67,130.588 28.718,130.54 28.718,130.432 L28.718,130.372 C28.574,129.52 28.058,128.644 26.954,128.644 C25.802,128.644 25.178,129.412 25.022,130.588 Z M31.106,134.176 L31.106,125.644 C31.106,125.32 31.322,125.164 31.658,125.164 C31.982,125.164 32.198,125.32 32.198,125.644 L32.198,134.176 C32.198,134.5 31.982,134.656 31.658,134.656 C31.322,134.656 31.106,134.5 31.106,134.176 Z M42.626,128.26 L42.626,125.644 C42.626,125.32 42.854,125.164 43.154,125.164 C43.49,125.164 43.694,125.32 43.694,125.644 L43.694,134.176 C43.694,134.5 43.478,134.656 43.142,134.656 C42.794,134.656 42.626,134.464 42.626,134.212 L42.626,133.96 C42.626,133.828 42.65,133.576 42.662,133.408 C42.254,134.248 41.57,134.764 40.454,134.764 C38.702,134.764 37.598,133.384 37.598,131.224 C37.598,129.124 38.69,127.768 40.466,127.768 C41.582,127.768 42.254,128.296 42.674,129.148 C42.65,128.872 42.626,128.524 42.626,128.26 Z M40.61,128.704 C39.398,128.704 38.702,129.712 38.702,131.236 C38.702,132.808 39.398,133.828 40.61,133.828 C41.87,133.828 42.65,132.736 42.65,131.248 C42.65,129.784 41.93,128.704 40.61,128.704 Z M48.206,127.768 C50.126,127.768 51.254,129.16 51.254,131.248 C51.254,133.336 50.102,134.776 48.23,134.776 C46.25,134.776 45.098,133.384 45.098,131.248 C45.098,129.172 46.262,127.768 48.206,127.768 Z M48.242,128.692 C46.946,128.692 46.202,129.688 46.202,131.284 C46.202,132.808 46.922,133.852 48.158,133.852 C49.466,133.852 50.15,132.832 50.15,131.236 C50.15,129.724 49.466,128.692 48.242,128.692 Z M52.334,131.284 C52.334,129.232 53.39,127.756 55.358,127.756 C56.942,127.756 57.59,128.632 57.89,129.388 C57.914,129.448 57.926,129.52 57.926,129.568 C57.926,129.796 57.746,129.94 57.566,130.012 C57.482,130.036 57.386,130.048 57.302,130.048 C57.122,130.048 56.966,129.976 56.882,129.772 C56.654,129.16 56.294,128.692 55.382,128.692 C54.134,128.692 53.45,129.748 53.45,131.272 C53.45,132.844 54.122,133.84 55.394,133.84 C56.33,133.84 56.702,133.384 56.93,132.736 C57.014,132.508 57.182,132.412 57.374,132.412 C57.458,132.412 57.542,132.424 57.626,132.46 C57.842,132.508 58.01,132.652 58.01,132.868 C58.01,132.94 57.998,133 57.962,133.084 C57.638,133.912 57.002,134.776 55.37,134.776 C53.426,134.776 52.334,133.348 52.334,131.284 Z M64.274,131.464 L60.05,131.464 C60.074,132.94 60.806,133.864 62.102,133.864 C62.966,133.864 63.446,133.432 63.734,132.796 C63.842,132.58 63.998,132.496 64.166,132.496 C64.25,132.496 64.334,132.52 64.418,132.544 C64.622,132.604 64.79,132.748 64.79,132.964 C64.79,133.036 64.778,133.108 64.73,133.18 C64.346,133.972 63.65,134.764 62.09,134.764 C60.122,134.764 58.982,133.372 58.982,131.296 C58.982,129.22 60.062,127.768 62.018,127.768 C63.77,127.768 64.754,129.136 64.874,130.708 L64.874,130.804 C64.874,131.236 64.646,131.464 64.274,131.464 Z M60.086,130.588 L63.602,130.588 C63.734,130.588 63.782,130.54 63.782,130.432 L63.782,130.372 C63.638,129.52 63.122,128.644 62.018,128.644 C60.866,128.644 60.242,129.412 60.086,130.588 Z M71.702,130.108 L71.702,134.176 C71.702,134.5 71.462,134.656 71.15,134.656 C70.826,134.656 70.598,134.5 70.598,134.176 L70.598,130.336 C70.598,129.316 70.19,128.74 69.29,128.74 C68.642,128.74 68.102,129.028 67.694,129.592 C67.394,130 67.274,130.348 67.274,130.816 L67.274,134.176 C67.274,134.5 67.046,134.656 66.734,134.656 C66.398,134.656 66.182,134.5 66.182,134.176 L66.182,128.332 C66.182,128.02 66.41,127.864 66.746,127.864 C67.058,127.864 67.274,128.02 67.274,128.332 L67.274,128.656 C67.274,128.812 67.238,128.932 67.226,129.16 C67.646,128.308 68.366,127.768 69.506,127.768 C70.934,127.768 71.702,128.632 71.702,130.108 Z M74.09,127.936 L74.09,126.484 C74.09,126.172 74.294,126.004 74.63,126.004 C74.942,126.004 75.17,126.172 75.17,126.484 L75.17,127.936 L76.706,127.936 C77.006,127.936 77.15,128.128 77.15,128.416 C77.15,128.692 76.994,128.884 76.706,128.884 L75.17,128.884 L75.17,132.904 C75.17,133.492 75.422,133.744 75.866,133.744 C76.166,133.744 76.37,133.66 76.574,133.54 C76.646,133.504 76.718,133.48 76.79,133.48 C76.97,133.48 77.114,133.612 77.186,133.792 C77.222,133.876 77.234,133.972 77.234,134.056 C77.234,134.224 77.162,134.392 76.982,134.488 C76.634,134.656 76.31,134.752 75.794,134.752 C74.81,134.752 74.09,134.26 74.09,133 L74.09,128.884 L73.154,128.884 C72.866,128.884 72.734,128.692 72.734,128.416 C72.734,128.14 72.866,127.936 73.166,127.936 L74.09,127.936 Z" id="Eficiència-del-docen-Copy" fill="#2F6070" transform="translate(17.450000, 129.940000) rotate(270.000000) translate(-17.450000, -129.940000) "></path>
            </g>
            <g id="Traditional-Lectures" transform="translate(42.000000, 108.000000)">
                <g id="Trad-Ellipse">
                    <use fill="black" fill-opacity="1" filter="url(#filter-3)" xlink:href="#path-2"></use>
                    <use fill="#F3C68D" fill-rule="evenodd" xlink:href="#path-2"></use>
                </g>
                <path d="M28.914,18.556 C31.026,18.556 31.974,19.66 32.406,20.716 C32.442,20.8 32.454,20.884 32.454,20.956 C32.454,21.208 32.262,21.376 32.082,21.436 C31.986,21.472 31.89,21.484 31.794,21.484 C31.59,21.484 31.398,21.4 31.29,21.172 C30.93,20.308 30.33,19.6 28.962,19.6 C27.162,19.6 25.974,21.052 25.974,23.416 C25.974,25.732 27.162,27.22 28.962,27.22 C30.402,27.22 31.086,26.356 31.398,25.396 C31.494,25.132 31.71,25.024 31.938,25.024 C32.01,25.024 32.094,25.036 32.178,25.06 C32.382,25.108 32.598,25.288 32.598,25.54 C32.598,25.612 32.586,25.672 32.562,25.744 C32.142,26.932 31.134,28.276 28.998,28.276 C26.418,28.276 24.774,26.392 24.774,23.404 C24.774,20.488 26.418,18.556 28.914,18.556 Z M33.882,27.676 L33.882,19.144 C33.882,18.82 34.098,18.664 34.434,18.664 C34.758,18.664 34.974,18.82 34.974,19.144 L34.974,27.676 C34.974,28 34.758,28.156 34.434,28.156 C34.098,28.156 33.882,28 33.882,27.676 Z M40.746,23.836 L40.746,23.32 C40.746,22.528 40.314,22.18 39.366,22.18 C38.49,22.18 38.058,22.516 37.854,23.068 C37.77,23.296 37.59,23.38 37.386,23.38 C37.29,23.38 37.194,23.368 37.11,23.332 C36.882,23.26 36.714,23.092 36.714,22.876 C36.714,22.828 36.726,22.78 36.738,22.732 C36.858,22.36 37.17,22.012 37.446,21.796 C37.866,21.472 38.406,21.268 39.378,21.268 C40.986,21.268 41.778,21.904 41.778,23.32 L41.778,26.596 C41.778,27.016 41.838,27.424 41.91,27.652 C41.922,27.688 41.934,27.736 41.934,27.772 C41.934,27.964 41.754,28.132 41.454,28.156 L41.346,28.156 C41.106,28.156 40.89,28.084 40.842,27.868 C40.806,27.724 40.782,27.508 40.77,27.268 C40.314,27.784 39.678,28.252 38.49,28.252 C37.17,28.252 36.366,27.508 36.366,26.272 C36.366,25.144 37.038,24.424 38.178,24.112 C38.838,23.932 39.462,23.86 40.746,23.836 Z M40.746,25.504 L40.746,24.7 C39.342,24.736 38.682,24.856 38.202,25.096 C37.722,25.336 37.47,25.708 37.47,26.284 C37.47,26.908 37.95,27.328 38.67,27.328 C39.426,27.328 40.05,26.956 40.434,26.476 C40.662,26.188 40.746,25.96 40.746,25.504 Z M46.146,25.168 L45.462,25.036 C43.986,24.748 43.374,24.232 43.374,23.092 C43.374,22 44.31,21.256 45.858,21.256 C47.19,21.256 48.042,21.82 48.342,22.696 C48.354,22.744 48.366,22.792 48.366,22.84 C48.366,23.068 48.162,23.224 47.946,23.284 C47.886,23.296 47.814,23.308 47.754,23.308 C47.538,23.308 47.322,23.212 47.262,22.984 C47.106,22.444 46.578,22.168 45.894,22.168 C44.922,22.168 44.466,22.564 44.466,23.068 C44.466,23.62 44.694,23.86 45.702,24.076 L46.446,24.232 C48.006,24.556 48.63,25.012 48.63,26.272 C48.63,27.424 47.646,28.276 45.966,28.276 C44.43,28.276 43.53,27.664 43.218,26.596 C43.206,26.536 43.194,26.488 43.194,26.44 C43.194,26.2 43.398,26.032 43.626,25.984 C43.686,25.972 43.746,25.96 43.794,25.96 C44.022,25.96 44.238,26.056 44.31,26.284 C44.526,26.98 45.018,27.328 45.966,27.328 C46.926,27.328 47.55,26.908 47.55,26.296 C47.55,25.708 47.238,25.384 46.146,25.168 Z M52.566,25.168 L51.882,25.036 C50.406,24.748 49.794,24.232 49.794,23.092 C49.794,22 50.73,21.256 52.278,21.256 C53.61,21.256 54.462,21.82 54.762,22.696 C54.774,22.744 54.786,22.792 54.786,22.84 C54.786,23.068 54.582,23.224 54.366,23.284 C54.306,23.296 54.234,23.308 54.174,23.308 C53.958,23.308 53.742,23.212 53.682,22.984 C53.526,22.444 52.998,22.168 52.314,22.168 C51.342,22.168 50.886,22.564 50.886,23.068 C50.886,23.62 51.114,23.86 52.122,24.076 L52.866,24.232 C54.426,24.556 55.05,25.012 55.05,26.272 C55.05,27.424 54.066,28.276 52.386,28.276 C50.85,28.276 49.95,27.664 49.638,26.596 C49.626,26.536 49.614,26.488 49.614,26.44 C49.614,26.2 49.818,26.032 50.046,25.984 C50.106,25.972 50.166,25.96 50.214,25.96 C50.442,25.96 50.658,26.056 50.73,26.284 C50.946,26.98 51.438,27.328 52.386,27.328 C53.346,27.328 53.97,26.908 53.97,26.296 C53.97,25.708 53.658,25.384 52.566,25.168 Z M61.386,24.964 L57.162,24.964 C57.186,26.44 57.918,27.364 59.214,27.364 C60.078,27.364 60.558,26.932 60.846,26.296 C60.954,26.08 61.11,25.996 61.278,25.996 C61.362,25.996 61.446,26.02 61.53,26.044 C61.734,26.104 61.902,26.248 61.902,26.464 C61.902,26.536 61.89,26.608 61.842,26.68 C61.458,27.472 60.762,28.264 59.202,28.264 C57.234,28.264 56.094,26.872 56.094,24.796 C56.094,22.72 57.174,21.268 59.13,21.268 C60.882,21.268 61.866,22.636 61.986,24.208 L61.986,24.304 C61.986,24.736 61.758,24.964 61.386,24.964 Z M57.198,24.088 L60.714,24.088 C60.846,24.088 60.894,24.04 60.894,23.932 L60.894,23.872 C60.75,23.02 60.234,22.144 59.13,22.144 C57.978,22.144 57.354,22.912 57.198,24.088 Z M65.874,25.168 L65.19,25.036 C63.714,24.748 63.102,24.232 63.102,23.092 C63.102,22 64.038,21.256 65.586,21.256 C66.918,21.256 67.77,21.82 68.07,22.696 C68.082,22.744 68.094,22.792 68.094,22.84 C68.094,23.068 67.89,23.224 67.674,23.284 C67.614,23.296 67.542,23.308 67.482,23.308 C67.266,23.308 67.05,23.212 66.99,22.984 C66.834,22.444 66.306,22.168 65.622,22.168 C64.65,22.168 64.194,22.564 64.194,23.068 C64.194,23.62 64.422,23.86 65.43,24.076 L66.174,24.232 C67.734,24.556 68.358,25.012 68.358,26.272 C68.358,27.424 67.374,28.276 65.694,28.276 C64.158,28.276 63.258,27.664 62.946,26.596 C62.934,26.536 62.922,26.488 62.922,26.44 C62.922,26.2 63.126,26.032 63.354,25.984 C63.414,25.972 63.474,25.96 63.522,25.96 C63.75,25.96 63.966,26.056 64.038,26.284 C64.254,26.98 64.746,27.328 65.694,27.328 C66.654,27.328 67.278,26.908 67.278,26.296 C67.278,25.708 66.966,25.384 65.874,25.168 Z M14.466,36.436 L14.466,34.984 C14.466,34.672 14.67,34.504 15.006,34.504 C15.318,34.504 15.546,34.672 15.546,34.984 L15.546,36.436 L17.082,36.436 C17.382,36.436 17.526,36.628 17.526,36.916 C17.526,37.192 17.37,37.384 17.082,37.384 L15.546,37.384 L15.546,41.404 C15.546,41.992 15.798,42.244 16.242,42.244 C16.542,42.244 16.746,42.16 16.95,42.04 C17.022,42.004 17.094,41.98 17.166,41.98 C17.346,41.98 17.49,42.112 17.562,42.292 C17.598,42.376 17.61,42.472 17.61,42.556 C17.61,42.724 17.538,42.892 17.358,42.988 C17.01,43.156 16.686,43.252 16.17,43.252 C15.186,43.252 14.466,42.76 14.466,41.5 L14.466,37.384 L13.53,37.384 C13.242,37.384 13.11,37.192 13.11,36.916 C13.11,36.64 13.242,36.436 13.542,36.436 L14.466,36.436 Z M18.762,42.676 L18.762,36.832 C18.762,36.52 18.99,36.364 19.326,36.364 C19.626,36.364 19.866,36.52 19.866,36.832 L19.866,37.096 C19.866,37.264 19.818,37.468 19.794,37.66 C19.986,37.084 20.598,36.34 21.63,36.304 C21.726,36.292 21.81,36.292 21.894,36.292 C22.074,36.292 22.206,36.316 22.374,36.352 C22.65,36.388 22.758,36.556 22.758,36.784 C22.758,36.844 22.746,36.916 22.734,36.988 C22.686,37.24 22.518,37.456 22.266,37.456 C22.23,37.456 22.194,37.456 22.158,37.444 C21.99,37.408 21.834,37.372 21.582,37.372 C21.066,37.384 20.67,37.648 20.37,38.032 C20.058,38.416 19.878,38.86 19.866,39.364 L19.866,42.676 C19.866,43 19.626,43.156 19.326,43.156 C18.99,43.156 18.762,43 18.762,42.676 Z M27.834,38.836 L27.834,38.32 C27.834,37.528 27.402,37.18 26.454,37.18 C25.578,37.18 25.146,37.516 24.942,38.068 C24.858,38.296 24.678,38.38 24.474,38.38 C24.378,38.38 24.282,38.368 24.198,38.332 C23.97,38.26 23.802,38.092 23.802,37.876 C23.802,37.828 23.814,37.78 23.826,37.732 C23.946,37.36 24.258,37.012 24.534,36.796 C24.954,36.472 25.494,36.268 26.466,36.268 C28.074,36.268 28.866,36.904 28.866,38.32 L28.866,41.596 C28.866,42.016 28.926,42.424 28.998,42.652 C29.01,42.688 29.022,42.736 29.022,42.772 C29.022,42.964 28.842,43.132 28.542,43.156 L28.434,43.156 C28.194,43.156 27.978,43.084 27.93,42.868 C27.894,42.724 27.87,42.508 27.858,42.268 C27.402,42.784 26.766,43.252 25.578,43.252 C24.258,43.252 23.454,42.508 23.454,41.272 C23.454,40.144 24.126,39.424 25.266,39.112 C25.926,38.932 26.55,38.86 27.834,38.836 Z M27.834,40.504 L27.834,39.7 C26.43,39.736 25.77,39.856 25.29,40.096 C24.81,40.336 24.558,40.708 24.558,41.284 C24.558,41.908 25.038,42.328 25.758,42.328 C26.514,42.328 27.138,41.956 27.522,41.476 C27.75,41.188 27.834,40.96 27.834,40.504 Z M35.37,36.76 L35.37,34.144 C35.37,33.82 35.598,33.664 35.898,33.664 C36.234,33.664 36.438,33.82 36.438,34.144 L36.438,42.676 C36.438,43 36.222,43.156 35.886,43.156 C35.538,43.156 35.37,42.964 35.37,42.712 L35.37,42.46 C35.37,42.328 35.394,42.076 35.406,41.908 C34.998,42.748 34.314,43.264 33.198,43.264 C31.446,43.264 30.342,41.884 30.342,39.724 C30.342,37.624 31.434,36.268 33.21,36.268 C34.326,36.268 34.998,36.796 35.418,37.648 C35.394,37.372 35.37,37.024 35.37,36.76 Z M33.354,37.204 C32.142,37.204 31.446,38.212 31.446,39.736 C31.446,41.308 32.142,42.328 33.354,42.328 C34.614,42.328 35.394,41.236 35.394,39.748 C35.394,38.284 34.674,37.204 33.354,37.204 Z M38.154,42.676 L38.154,36.832 C38.154,36.52 38.358,36.364 38.694,36.364 C39.018,36.364 39.246,36.52 39.246,36.832 L39.246,42.676 C39.246,43 39.018,43.156 38.694,43.156 C38.358,43.156 38.154,43 38.154,42.676 Z M38.706,33.652 C39.15,33.652 39.51,34 39.51,34.456 C39.51,34.924 39.15,35.272 38.706,35.272 C38.25,35.272 37.89,34.924 37.89,34.456 C37.89,34 38.25,33.652 38.706,33.652 Z M40.65,39.784 C40.65,37.732 41.706,36.256 43.674,36.256 C45.258,36.256 45.906,37.132 46.206,37.888 C46.23,37.948 46.242,38.02 46.242,38.068 C46.242,38.296 46.062,38.44 45.882,38.512 C45.798,38.536 45.702,38.548 45.618,38.548 C45.438,38.548 45.282,38.476 45.198,38.272 C44.97,37.66 44.61,37.192 43.698,37.192 C42.45,37.192 41.766,38.248 41.766,39.772 C41.766,41.344 42.438,42.34 43.71,42.34 C44.646,42.34 45.018,41.884 45.246,41.236 C45.33,41.008 45.498,40.912 45.69,40.912 C45.774,40.912 45.858,40.924 45.942,40.96 C46.158,41.008 46.326,41.152 46.326,41.368 C46.326,41.44 46.314,41.5 46.278,41.584 C45.954,42.412 45.318,43.276 43.686,43.276 C41.742,43.276 40.65,41.848 40.65,39.784 Z M47.61,42.676 L47.61,36.832 C47.61,36.52 47.814,36.364 48.15,36.364 C48.474,36.364 48.702,36.52 48.702,36.832 L48.702,42.676 C48.702,43 48.474,43.156 48.15,43.156 C47.814,43.156 47.61,43 47.61,42.676 Z M48.162,33.652 C48.606,33.652 48.966,34 48.966,34.456 C48.966,34.924 48.606,35.272 48.162,35.272 C47.706,35.272 47.346,34.924 47.346,34.456 C47.346,34 47.706,33.652 48.162,33.652 Z M53.214,36.268 C55.134,36.268 56.262,37.66 56.262,39.748 C56.262,41.836 55.11,43.276 53.238,43.276 C51.258,43.276 50.106,41.884 50.106,39.748 C50.106,37.672 51.27,36.268 53.214,36.268 Z M53.25,37.192 C51.954,37.192 51.21,38.188 51.21,39.784 C51.21,41.308 51.93,42.352 53.166,42.352 C54.474,42.352 55.158,41.332 55.158,39.736 C55.158,38.224 54.474,37.192 53.25,37.192 Z M63.174,38.608 L63.174,42.676 C63.174,43 62.934,43.156 62.622,43.156 C62.298,43.156 62.07,43 62.07,42.676 L62.07,38.836 C62.07,37.816 61.662,37.24 60.762,37.24 C60.114,37.24 59.574,37.528 59.166,38.092 C58.866,38.5 58.746,38.848 58.746,39.316 L58.746,42.676 C58.746,43 58.518,43.156 58.206,43.156 C57.87,43.156 57.654,43 57.654,42.676 L57.654,36.832 C57.654,36.52 57.882,36.364 58.218,36.364 C58.53,36.364 58.746,36.52 58.746,36.832 L58.746,37.156 C58.746,37.312 58.71,37.432 58.698,37.66 C59.118,36.808 59.838,36.268 60.978,36.268 C62.406,36.268 63.174,37.132 63.174,38.608 Z M68.91,38.836 L68.91,38.32 C68.91,37.528 68.478,37.18 67.53,37.18 C66.654,37.18 66.222,37.516 66.018,38.068 C65.934,38.296 65.754,38.38 65.55,38.38 C65.454,38.38 65.358,38.368 65.274,38.332 C65.046,38.26 64.878,38.092 64.878,37.876 C64.878,37.828 64.89,37.78 64.902,37.732 C65.022,37.36 65.334,37.012 65.61,36.796 C66.03,36.472 66.57,36.268 67.542,36.268 C69.15,36.268 69.942,36.904 69.942,38.32 L69.942,41.596 C69.942,42.016 70.002,42.424 70.074,42.652 C70.086,42.688 70.098,42.736 70.098,42.772 C70.098,42.964 69.918,43.132 69.618,43.156 L69.51,43.156 C69.27,43.156 69.054,43.084 69.006,42.868 C68.97,42.724 68.946,42.508 68.934,42.268 C68.478,42.784 67.842,43.252 66.654,43.252 C65.334,43.252 64.53,42.508 64.53,41.272 C64.53,40.144 65.202,39.424 66.342,39.112 C67.002,38.932 67.626,38.86 68.91,38.836 Z M68.91,40.504 L68.91,39.7 C67.506,39.736 66.846,39.856 66.366,40.096 C65.886,40.336 65.634,40.708 65.634,41.284 C65.634,41.908 66.114,42.328 66.834,42.328 C67.59,42.328 68.214,41.956 68.598,41.476 C68.826,41.188 68.91,40.96 68.91,40.504 Z M71.718,42.676 L71.718,34.144 C71.718,33.82 71.934,33.664 72.27,33.664 C72.594,33.664 72.81,33.82 72.81,34.144 L72.81,42.676 C72.81,43 72.594,43.156 72.27,43.156 C71.934,43.156 71.718,43 71.718,42.676 Z M77.106,40.168 L76.422,40.036 C74.946,39.748 74.334,39.232 74.334,38.092 C74.334,37 75.27,36.256 76.818,36.256 C78.15,36.256 79.002,36.82 79.302,37.696 C79.314,37.744 79.326,37.792 79.326,37.84 C79.326,38.068 79.122,38.224 78.906,38.284 C78.846,38.296 78.774,38.308 78.714,38.308 C78.498,38.308 78.282,38.212 78.222,37.984 C78.066,37.444 77.538,37.168 76.854,37.168 C75.882,37.168 75.426,37.564 75.426,38.068 C75.426,38.62 75.654,38.86 76.662,39.076 L77.406,39.232 C78.966,39.556 79.59,40.012 79.59,41.272 C79.59,42.424 78.606,43.276 76.926,43.276 C75.39,43.276 74.49,42.664 74.178,41.596 C74.166,41.536 74.154,41.488 74.154,41.44 C74.154,41.2 74.358,41.032 74.586,40.984 C74.646,40.972 74.706,40.96 74.754,40.96 C74.982,40.96 75.198,41.056 75.27,41.284 C75.486,41.98 75.978,42.328 76.926,42.328 C77.886,42.328 78.51,41.908 78.51,41.296 C78.51,40.708 78.198,40.384 77.106,40.168 Z" id="Classes-tradicionals-Copy" fill="#2F6070"></path>
            </g>
            <g id="Typical-AL" transform="translate(148.000000, 160.000000)">
                <g id="Typical-Ellipse">
                    <use fill="black" fill-opacity="1" filter="url(#filter-5)" xlink:href="#path-4"></use>
                    <use fill="#E69877" fill-rule="evenodd" xlink:href="#path-4"></use>
                </g>
                <path d="M2.468,28.348 L1.544,30.82 C1.46,31.06 1.28,31.156 1.076,31.156 C0.992,31.156 0.92,31.144 0.836,31.12 C0.596,31.06 0.416,30.856 0.416,30.628 C0.416,30.556 0.428,30.496 0.452,30.424 L3.716,22.228 C3.872,21.82 4.172,21.664 4.544,21.664 C4.928,21.664 5.24,21.82 5.396,22.228 L8.66,30.448 C8.696,30.52 8.708,30.58 8.708,30.652 C8.708,30.892 8.516,31.072 8.276,31.132 C8.204,31.156 8.132,31.168 8.06,31.168 C7.844,31.168 7.652,31.06 7.568,30.832 L6.62,28.348 L2.468,28.348 Z M2.828,27.34 L6.26,27.34 L4.928,23.848 C4.796,23.5 4.664,23.116 4.556,22.708 C4.448,23.116 4.328,23.5 4.184,23.86 L2.828,27.34 Z M11.048,30.568 L11.048,33.208 C11.048,33.508 10.844,33.676 10.52,33.676 C10.184,33.676 9.98,33.508 9.98,33.208 L9.98,24.832 C9.98,24.52 10.184,24.364 10.52,24.364 C10.82,24.364 11.048,24.508 11.048,24.808 L11.048,25.024 C11.048,25.192 11.036,25.48 11,25.684 C11.42,24.832 12.08,24.268 13.244,24.268 C15.044,24.268 16.064,25.576 16.064,27.712 C16.064,29.848 14.984,31.264 13.196,31.264 C12.08,31.264 11.396,30.712 10.988,29.872 C11.036,30.1 11.048,30.352 11.048,30.568 Z M13.088,25.204 C11.768,25.204 11.024,26.272 11.024,27.748 C11.024,29.236 11.804,30.316 13.064,30.316 C14.276,30.316 14.96,29.284 14.96,27.736 C14.96,26.176 14.3,25.204 13.088,25.204 Z M17.636,30.676 L17.636,24.832 C17.636,24.52 17.864,24.364 18.2,24.364 C18.5,24.364 18.74,24.52 18.74,24.832 L18.74,25.096 C18.74,25.264 18.692,25.468 18.668,25.66 C18.86,25.084 19.472,24.34 20.504,24.304 C20.6,24.292 20.684,24.292 20.768,24.292 C20.948,24.292 21.08,24.316 21.248,24.352 C21.524,24.388 21.632,24.556 21.632,24.784 C21.632,24.844 21.62,24.916 21.608,24.988 C21.56,25.24 21.392,25.456 21.14,25.456 C21.104,25.456 21.068,25.456 21.032,25.444 C20.864,25.408 20.708,25.372 20.456,25.372 C19.94,25.384 19.544,25.648 19.244,26.032 C18.932,26.416 18.752,26.86 18.74,27.364 L18.74,30.676 C18.74,31 18.5,31.156 18.2,31.156 C17.864,31.156 17.636,31 17.636,30.676 Z M27.632,27.964 L23.408,27.964 C23.432,29.44 24.164,30.364 25.46,30.364 C26.324,30.364 26.804,29.932 27.092,29.296 C27.2,29.08 27.356,28.996 27.524,28.996 C27.608,28.996 27.692,29.02 27.776,29.044 C27.98,29.104 28.148,29.248 28.148,29.464 C28.148,29.536 28.136,29.608 28.088,29.68 C27.704,30.472 27.008,31.264 25.448,31.264 C23.48,31.264 22.34,29.872 22.34,27.796 C22.34,25.72 23.42,24.268 25.376,24.268 C27.128,24.268 28.112,25.636 28.232,27.208 L28.232,27.304 C28.232,27.736 28.004,27.964 27.632,27.964 Z M23.444,27.088 L26.96,27.088 C27.092,27.088 27.14,27.04 27.14,26.932 L27.14,26.872 C26.996,26.02 26.48,25.144 25.376,25.144 C24.224,25.144 23.6,25.912 23.444,27.088 Z M35.06,26.608 L35.06,30.676 C35.06,31 34.82,31.156 34.508,31.156 C34.184,31.156 33.956,31 33.956,30.676 L33.956,26.836 C33.956,25.816 33.548,25.24 32.648,25.24 C32,25.24 31.46,25.528 31.052,26.092 C30.752,26.5 30.632,26.848 30.632,27.316 L30.632,30.676 C30.632,31 30.404,31.156 30.092,31.156 C29.756,31.156 29.54,31 29.54,30.676 L29.54,24.832 C29.54,24.52 29.768,24.364 30.104,24.364 C30.416,24.364 30.632,24.52 30.632,24.832 L30.632,25.156 C30.632,25.312 30.596,25.432 30.584,25.66 C31.004,24.808 31.724,24.268 32.864,24.268 C34.292,24.268 35.06,25.132 35.06,26.608 Z M41.72,27.964 L37.496,27.964 C37.52,29.44 38.252,30.364 39.548,30.364 C40.412,30.364 40.892,29.932 41.18,29.296 C41.288,29.08 41.444,28.996 41.612,28.996 C41.696,28.996 41.78,29.02 41.864,29.044 C42.068,29.104 42.236,29.248 42.236,29.464 C42.236,29.536 42.224,29.608 42.176,29.68 C41.792,30.472 41.096,31.264 39.536,31.264 C37.568,31.264 36.428,29.872 36.428,27.796 C36.428,25.72 37.508,24.268 39.464,24.268 C41.216,24.268 42.2,25.636 42.32,27.208 L42.32,27.304 C42.32,27.736 42.092,27.964 41.72,27.964 Z M37.532,27.088 L41.048,27.088 C41.18,27.088 41.228,27.04 41.228,26.932 L41.228,26.872 C41.084,26.02 40.568,25.144 39.464,25.144 C38.312,25.144 37.688,25.912 37.532,27.088 Z M49.148,26.608 L49.148,30.676 C49.148,31 48.908,31.156 48.596,31.156 C48.272,31.156 48.044,31 48.044,30.676 L48.044,26.836 C48.044,25.816 47.636,25.24 46.736,25.24 C46.088,25.24 45.548,25.528 45.14,26.092 C44.84,26.5 44.72,26.848 44.72,27.316 L44.72,30.676 C44.72,31 44.492,31.156 44.18,31.156 C43.844,31.156 43.628,31 43.628,30.676 L43.628,24.832 C43.628,24.52 43.856,24.364 44.192,24.364 C44.504,24.364 44.72,24.52 44.72,24.832 L44.72,25.156 C44.72,25.312 44.684,25.432 44.672,25.66 C45.092,24.808 45.812,24.268 46.952,24.268 C48.38,24.268 49.148,25.132 49.148,26.608 Z M54.884,26.836 L54.884,26.32 C54.884,25.528 54.452,25.18 53.504,25.18 C52.628,25.18 52.196,25.516 51.992,26.068 C51.908,26.296 51.728,26.38 51.524,26.38 C51.428,26.38 51.332,26.368 51.248,26.332 C51.02,26.26 50.852,26.092 50.852,25.876 C50.852,25.828 50.864,25.78 50.876,25.732 C50.996,25.36 51.308,25.012 51.584,24.796 C52.004,24.472 52.544,24.268 53.516,24.268 C55.124,24.268 55.916,24.904 55.916,26.32 L55.916,29.596 C55.916,30.016 55.976,30.424 56.048,30.652 C56.06,30.688 56.072,30.736 56.072,30.772 C56.072,30.964 55.892,31.132 55.592,31.156 L55.484,31.156 C55.244,31.156 55.028,31.084 54.98,30.868 C54.944,30.724 54.92,30.508 54.908,30.268 C54.452,30.784 53.816,31.252 52.628,31.252 C51.308,31.252 50.504,30.508 50.504,29.272 C50.504,28.144 51.176,27.424 52.316,27.112 C52.976,26.932 53.6,26.86 54.884,26.836 Z M54.884,28.504 L54.884,27.7 C53.48,27.736 52.82,27.856 52.34,28.096 C51.86,28.336 51.608,28.708 51.608,29.284 C51.608,29.908 52.088,30.328 52.808,30.328 C53.564,30.328 54.188,29.956 54.572,29.476 C54.8,29.188 54.884,28.96 54.884,28.504 Z M58.412,24.436 L58.412,22.984 C58.412,22.672 58.616,22.504 58.952,22.504 C59.264,22.504 59.492,22.672 59.492,22.984 L59.492,24.436 L61.028,24.436 C61.328,24.436 61.472,24.628 61.472,24.916 C61.472,25.192 61.316,25.384 61.028,25.384 L59.492,25.384 L59.492,29.404 C59.492,29.992 59.744,30.244 60.188,30.244 C60.488,30.244 60.692,30.16 60.896,30.04 C60.968,30.004 61.04,29.98 61.112,29.98 C61.292,29.98 61.436,30.112 61.508,30.292 C61.544,30.376 61.556,30.472 61.556,30.556 C61.556,30.724 61.484,30.892 61.304,30.988 C60.956,31.156 60.632,31.252 60.116,31.252 C59.132,31.252 58.412,30.76 58.412,29.5 L58.412,25.384 L57.476,25.384 C57.188,25.384 57.056,25.192 57.056,24.916 C57.056,24.64 57.188,24.436 57.488,24.436 L58.412,24.436 Z M67.208,25.156 L67.208,24.796 C67.208,24.544 67.376,24.364 67.724,24.364 C68.048,24.364 68.24,24.52 68.24,24.844 L68.24,30.4 C68.24,33.16 66.788,33.784 65.204,33.784 C63.908,33.784 63.08,33.352 62.624,32.764 C62.564,32.68 62.528,32.596 62.528,32.5 C62.528,32.344 62.612,32.188 62.756,32.08 C62.852,32.008 62.984,31.96 63.104,31.96 C63.236,31.96 63.356,32.008 63.452,32.116 C63.896,32.632 64.424,32.884 65.156,32.884 C66.656,32.884 67.196,32.128 67.208,30.352 C67.208,30.208 67.232,29.944 67.256,29.776 C66.86,30.532 66.176,31.06 65.12,31.06 C63.416,31.06 62.228,29.74 62.228,27.736 C62.228,25.672 63.296,24.28 65.144,24.28 C66.236,24.28 66.92,24.88 67.256,25.648 C67.244,25.516 67.208,25.288 67.208,25.156 Z M65.276,25.192 C64.052,25.192 63.332,26.188 63.332,27.736 C63.332,29.26 64.148,30.184 65.264,30.184 C66.488,30.184 67.232,29.14 67.232,27.652 C67.232,26.224 66.5,25.192 65.276,25.192 Z M74.936,27.964 L70.712,27.964 C70.736,29.44 71.468,30.364 72.764,30.364 C73.628,30.364 74.108,29.932 74.396,29.296 C74.504,29.08 74.66,28.996 74.828,28.996 C74.912,28.996 74.996,29.02 75.08,29.044 C75.284,29.104 75.452,29.248 75.452,29.464 C75.452,29.536 75.44,29.608 75.392,29.68 C75.008,30.472 74.312,31.264 72.752,31.264 C70.784,31.264 69.644,29.872 69.644,27.796 C69.644,25.72 70.724,24.268 72.68,24.268 C74.432,24.268 75.416,25.636 75.536,27.208 L75.536,27.304 C75.536,27.736 75.308,27.964 74.936,27.964 Z M70.748,27.088 L74.264,27.088 C74.396,27.088 74.444,27.04 74.444,26.932 L74.444,26.872 C74.3,26.02 73.784,25.144 72.68,25.144 C71.528,25.144 70.904,25.912 70.748,27.088 Z M14.45,41.836 L14.45,41.32 C14.45,40.528 14.018,40.18 13.07,40.18 C12.194,40.18 11.762,40.516 11.558,41.068 C11.474,41.296 11.294,41.38 11.09,41.38 C10.994,41.38 10.898,41.368 10.814,41.332 C10.586,41.26 10.418,41.092 10.418,40.876 C10.418,40.828 10.43,40.78 10.442,40.732 C10.562,40.36 10.874,40.012 11.15,39.796 C11.57,39.472 12.11,39.268 13.082,39.268 C14.69,39.268 15.482,39.904 15.482,41.32 L15.482,44.596 C15.482,45.016 15.542,45.424 15.614,45.652 C15.626,45.688 15.638,45.736 15.638,45.772 C15.638,45.964 15.458,46.132 15.158,46.156 L15.05,46.156 C14.81,46.156 14.594,46.084 14.546,45.868 C14.51,45.724 14.486,45.508 14.474,45.268 C14.018,45.784 13.382,46.252 12.194,46.252 C10.874,46.252 10.07,45.508 10.07,44.272 C10.07,43.144 10.742,42.424 11.882,42.112 C12.542,41.932 13.166,41.86 14.45,41.836 Z M14.45,43.504 L14.45,42.7 C13.046,42.736 12.386,42.856 11.906,43.096 C11.426,43.336 11.174,43.708 11.174,44.284 C11.174,44.908 11.654,45.328 12.374,45.328 C13.13,45.328 13.754,44.956 14.138,44.476 C14.366,44.188 14.45,43.96 14.45,43.504 Z M16.958,42.784 C16.958,40.732 18.014,39.256 19.982,39.256 C21.566,39.256 22.214,40.132 22.514,40.888 C22.538,40.948 22.55,41.02 22.55,41.068 C22.55,41.296 22.37,41.44 22.19,41.512 C22.106,41.536 22.01,41.548 21.926,41.548 C21.746,41.548 21.59,41.476 21.506,41.272 C21.278,40.66 20.918,40.192 20.006,40.192 C18.758,40.192 18.074,41.248 18.074,42.772 C18.074,44.344 18.746,45.34 20.018,45.34 C20.954,45.34 21.326,44.884 21.554,44.236 C21.638,44.008 21.806,43.912 21.998,43.912 C22.082,43.912 22.166,43.924 22.25,43.96 C22.466,44.008 22.634,44.152 22.634,44.368 C22.634,44.44 22.622,44.5 22.586,44.584 C22.262,45.412 21.626,46.276 19.994,46.276 C18.05,46.276 16.958,44.848 16.958,42.784 Z M24.626,39.436 L24.626,37.984 C24.626,37.672 24.83,37.504 25.166,37.504 C25.478,37.504 25.706,37.672 25.706,37.984 L25.706,39.436 L27.242,39.436 C27.542,39.436 27.686,39.628 27.686,39.916 C27.686,40.192 27.53,40.384 27.242,40.384 L25.706,40.384 L25.706,44.404 C25.706,44.992 25.958,45.244 26.402,45.244 C26.702,45.244 26.906,45.16 27.11,45.04 C27.182,45.004 27.254,44.98 27.326,44.98 C27.506,44.98 27.65,45.112 27.722,45.292 C27.758,45.376 27.77,45.472 27.77,45.556 C27.77,45.724 27.698,45.892 27.518,45.988 C27.17,46.156 26.846,46.252 26.33,46.252 C25.346,46.252 24.626,45.76 24.626,44.5 L24.626,40.384 L23.69,40.384 C23.402,40.384 23.27,40.192 23.27,39.916 C23.27,39.64 23.402,39.436 23.702,39.436 L24.626,39.436 Z M28.754,45.676 L28.754,39.832 C28.754,39.52 28.958,39.364 29.294,39.364 C29.618,39.364 29.846,39.52 29.846,39.832 L29.846,45.676 C29.846,46 29.618,46.156 29.294,46.156 C28.958,46.156 28.754,46 28.754,45.676 Z M29.306,36.652 C29.75,36.652 30.11,37 30.11,37.456 C30.11,37.924 29.75,38.272 29.306,38.272 C28.85,38.272 28.49,37.924 28.49,37.456 C28.49,37 28.85,36.652 29.306,36.652 Z M31.526,43.912 L31.526,39.844 C31.526,39.52 31.754,39.364 32.078,39.364 C32.402,39.364 32.63,39.52 32.63,39.844 L32.63,43.684 C32.63,44.716 33.05,45.292 33.938,45.292 C34.574,45.292 35.09,44.992 35.498,44.428 C35.786,44.02 35.906,43.648 35.906,43.18 L35.906,39.844 C35.906,39.52 36.134,39.364 36.458,39.364 C36.77,39.364 36.998,39.52 36.998,39.844 L36.998,45.676 C36.998,46 36.782,46.156 36.47,46.156 C36.146,46.156 35.918,46.012 35.918,45.712 L35.918,45.376 C35.918,45.244 35.954,45.004 35.99,44.812 C35.618,45.652 34.922,46.264 33.722,46.264 C32.306,46.264 31.526,45.376 31.526,43.912 Z M43.43,39.436 L43.43,37.984 C43.43,37.672 43.634,37.504 43.97,37.504 C44.282,37.504 44.51,37.672 44.51,37.984 L44.51,39.436 L46.046,39.436 C46.346,39.436 46.49,39.628 46.49,39.916 C46.49,40.192 46.334,40.384 46.046,40.384 L44.51,40.384 L44.51,44.404 C44.51,44.992 44.762,45.244 45.206,45.244 C45.506,45.244 45.71,45.16 45.914,45.04 C45.986,45.004 46.058,44.98 46.13,44.98 C46.31,44.98 46.454,45.112 46.526,45.292 C46.562,45.376 46.574,45.472 46.574,45.556 C46.574,45.724 46.502,45.892 46.322,45.988 C45.974,46.156 45.65,46.252 45.134,46.252 C44.15,46.252 43.43,45.76 43.43,44.5 L43.43,40.384 L42.494,40.384 C42.206,40.384 42.074,40.192 42.074,39.916 C42.074,39.64 42.206,39.436 42.506,39.436 L43.43,39.436 Z M47.246,38.2 L48.578,36.736 C48.662,36.652 48.77,36.616 48.878,36.616 C49.034,36.616 49.19,36.676 49.298,36.796 C49.418,36.916 49.49,37.06 49.49,37.204 C49.49,37.336 49.43,37.444 49.31,37.528 L47.678,38.656 C47.618,38.704 47.534,38.728 47.462,38.728 C47.378,38.728 47.294,38.692 47.222,38.62 C47.174,38.56 47.15,38.5 47.15,38.44 C47.15,38.356 47.186,38.272 47.246,38.2 Z M47.558,45.676 L47.558,39.832 C47.558,39.52 47.762,39.364 48.098,39.364 C48.422,39.364 48.65,39.52 48.65,39.832 L48.65,45.676 C48.65,46 48.422,46.156 48.098,46.156 C47.762,46.156 47.558,46 47.558,45.676 Z M51.434,45.568 L51.434,48.208 C51.434,48.508 51.23,48.676 50.906,48.676 C50.57,48.676 50.366,48.508 50.366,48.208 L50.366,39.832 C50.366,39.52 50.57,39.364 50.906,39.364 C51.206,39.364 51.434,39.508 51.434,39.808 L51.434,40.024 C51.434,40.192 51.422,40.48 51.386,40.684 C51.806,39.832 52.466,39.268 53.63,39.268 C55.43,39.268 56.45,40.576 56.45,42.712 C56.45,44.848 55.37,46.264 53.582,46.264 C52.466,46.264 51.782,45.712 51.374,44.872 C51.422,45.1 51.434,45.352 51.434,45.568 Z M53.474,40.204 C52.154,40.204 51.41,41.272 51.41,42.748 C51.41,44.236 52.19,45.316 53.45,45.316 C54.662,45.316 55.346,44.284 55.346,42.736 C55.346,41.176 54.686,40.204 53.474,40.204 Z M57.854,45.676 L57.854,39.832 C57.854,39.52 58.058,39.364 58.394,39.364 C58.718,39.364 58.946,39.52 58.946,39.832 L58.946,45.676 C58.946,46 58.718,46.156 58.394,46.156 C58.058,46.156 57.854,46 57.854,45.676 Z M58.406,36.652 C58.85,36.652 59.21,37 59.21,37.456 C59.21,37.924 58.85,38.272 58.406,38.272 C57.95,38.272 57.59,37.924 57.59,37.456 C57.59,37 57.95,36.652 58.406,36.652 Z M60.35,42.784 C60.35,40.732 61.406,39.256 63.374,39.256 C64.958,39.256 65.606,40.132 65.906,40.888 C65.93,40.948 65.942,41.02 65.942,41.068 C65.942,41.296 65.762,41.44 65.582,41.512 C65.498,41.536 65.402,41.548 65.318,41.548 C65.138,41.548 64.982,41.476 64.898,41.272 C64.67,40.66 64.31,40.192 63.398,40.192 C62.15,40.192 61.466,41.248 61.466,42.772 C61.466,44.344 62.138,45.34 63.41,45.34 C64.346,45.34 64.718,44.884 64.946,44.236 C65.03,44.008 65.198,43.912 65.39,43.912 C65.474,43.912 65.558,43.924 65.642,43.96 C65.858,44.008 66.026,44.152 66.026,44.368 C66.026,44.44 66.014,44.5 65.978,44.584 C65.654,45.412 65.018,46.276 63.386,46.276 C61.442,46.276 60.35,44.848 60.35,42.784 Z" id="Aprenenatge-actiu-tí-Copy" fill="#2F6070"></path>
            </g>
            <g id="CH" transform="translate(204.000000, 20.000000)">
                <g id="CH-Ellipse">
                    <use fill="black" fill-opacity="1" filter="url(#filter-7)" xlink:href="#path-6"></use>
                    <use fill="#CB4343" fill-rule="evenodd" xlink:href="#path-6"></use>
                </g>
                <path d="M14.704,44.556 C16.816,44.556 17.764,45.66 18.196,46.716 C18.232,46.8 18.244,46.884 18.244,46.956 C18.244,47.208 18.052,47.376 17.872,47.436 C17.776,47.472 17.68,47.484 17.584,47.484 C17.38,47.484 17.188,47.4 17.08,47.172 C16.72,46.308 16.12,45.6 14.752,45.6 C12.952,45.6 11.764,47.052 11.764,49.416 C11.764,51.732 12.952,53.22 14.752,53.22 C16.192,53.22 16.876,52.356 17.188,51.396 C17.284,51.132 17.5,51.024 17.728,51.024 C17.8,51.024 17.884,51.036 17.968,51.06 C18.172,51.108 18.388,51.288 18.388,51.54 C18.388,51.612 18.376,51.672 18.352,51.744 C17.932,52.932 16.924,54.276 14.788,54.276 C12.208,54.276 10.564,52.392 10.564,49.404 C10.564,46.488 12.208,44.556 14.704,44.556 Z M25.216,49.608 L25.216,53.676 C25.216,54 24.976,54.156 24.664,54.156 C24.34,54.156 24.124,54 24.124,53.676 L24.124,49.836 C24.124,48.816 23.704,48.252 22.804,48.252 C22.132,48.252 21.604,48.564 21.208,49.092 C20.908,49.5 20.776,49.848 20.776,50.316 L20.776,53.676 C20.776,54 20.572,54.156 20.26,54.156 C19.924,54.156 19.696,54 19.696,53.676 L19.696,45.132 C19.696,44.82 19.924,44.664 20.26,44.664 C20.572,44.664 20.776,44.808 20.776,45.132 L20.776,48.144 C20.776,48.3 20.728,48.576 20.704,48.756 C21.1,47.904 21.76,47.268 23.02,47.268 C24.448,47.268 25.216,48.132 25.216,49.608 Z M30.952,49.836 L30.952,49.32 C30.952,48.528 30.52,48.18 29.572,48.18 C28.696,48.18 28.264,48.516 28.06,49.068 C27.976,49.296 27.796,49.38 27.592,49.38 C27.496,49.38 27.4,49.368 27.316,49.332 C27.088,49.26 26.92,49.092 26.92,48.876 C26.92,48.828 26.932,48.78 26.944,48.732 C27.064,48.36 27.376,48.012 27.652,47.796 C28.072,47.472 28.612,47.268 29.584,47.268 C31.192,47.268 31.984,47.904 31.984,49.32 L31.984,52.596 C31.984,53.016 32.044,53.424 32.116,53.652 C32.128,53.688 32.14,53.736 32.14,53.772 C32.14,53.964 31.96,54.132 31.66,54.156 L31.552,54.156 C31.312,54.156 31.096,54.084 31.048,53.868 C31.012,53.724 30.988,53.508 30.976,53.268 C30.52,53.784 29.884,54.252 28.696,54.252 C27.376,54.252 26.572,53.508 26.572,52.272 C26.572,51.144 27.244,50.424 28.384,50.112 C29.044,49.932 29.668,49.86 30.952,49.836 Z M30.952,51.504 L30.952,50.7 C29.548,50.736 28.888,50.856 28.408,51.096 C27.928,51.336 27.676,51.708 27.676,52.284 C27.676,52.908 28.156,53.328 28.876,53.328 C29.632,53.328 30.256,52.956 30.64,52.476 C30.868,52.188 30.952,51.96 30.952,51.504 Z M33.76,53.676 L33.76,45.144 C33.76,44.82 33.976,44.664 34.312,44.664 C34.636,44.664 34.852,44.82 34.852,45.144 L34.852,53.676 C34.852,54 34.636,54.156 34.312,54.156 C33.976,54.156 33.76,54 33.76,53.676 Z M36.556,53.676 L36.556,45.144 C36.556,44.82 36.772,44.664 37.108,44.664 C37.432,44.664 37.648,44.82 37.648,45.144 L37.648,53.676 C37.648,54 37.432,54.156 37.108,54.156 C36.772,54.156 36.556,54 36.556,53.676 Z M44.344,50.964 L40.12,50.964 C40.144,52.44 40.876,53.364 42.172,53.364 C43.036,53.364 43.516,52.932 43.804,52.296 C43.912,52.08 44.068,51.996 44.236,51.996 C44.32,51.996 44.404,52.02 44.488,52.044 C44.692,52.104 44.86,52.248 44.86,52.464 C44.86,52.536 44.848,52.608 44.8,52.68 C44.416,53.472 43.72,54.264 42.16,54.264 C40.192,54.264 39.052,52.872 39.052,50.796 C39.052,48.72 40.132,47.268 42.088,47.268 C43.84,47.268 44.824,48.636 44.944,50.208 L44.944,50.304 C44.944,50.736 44.716,50.964 44.344,50.964 Z M40.156,50.088 L43.672,50.088 C43.804,50.088 43.852,50.04 43.852,49.932 L43.852,49.872 C43.708,49.02 43.192,48.144 42.088,48.144 C40.936,48.144 40.312,48.912 40.156,50.088 Z M51.772,49.608 L51.772,53.676 C51.772,54 51.532,54.156 51.22,54.156 C50.896,54.156 50.668,54 50.668,53.676 L50.668,49.836 C50.668,48.816 50.26,48.24 49.36,48.24 C48.712,48.24 48.172,48.528 47.764,49.092 C47.464,49.5 47.344,49.848 47.344,50.316 L47.344,53.676 C47.344,54 47.116,54.156 46.804,54.156 C46.468,54.156 46.252,54 46.252,53.676 L46.252,47.832 C46.252,47.52 46.48,47.364 46.816,47.364 C47.128,47.364 47.344,47.52 47.344,47.832 L47.344,48.156 C47.344,48.312 47.308,48.432 47.296,48.66 C47.716,47.808 48.436,47.268 49.576,47.268 C51.004,47.268 51.772,48.132 51.772,49.608 Z M58.12,48.156 L58.12,47.796 C58.12,47.544 58.288,47.364 58.636,47.364 C58.96,47.364 59.152,47.52 59.152,47.844 L59.152,53.4 C59.152,56.16 57.7,56.784 56.116,56.784 C54.82,56.784 53.992,56.352 53.536,55.764 C53.476,55.68 53.44,55.596 53.44,55.5 C53.44,55.344 53.524,55.188 53.668,55.08 C53.764,55.008 53.896,54.96 54.016,54.96 C54.148,54.96 54.268,55.008 54.364,55.116 C54.808,55.632 55.336,55.884 56.068,55.884 C57.568,55.884 58.108,55.128 58.12,53.352 C58.12,53.208 58.144,52.944 58.168,52.776 C57.772,53.532 57.088,54.06 56.032,54.06 C54.328,54.06 53.14,52.74 53.14,50.736 C53.14,48.672 54.208,47.28 56.056,47.28 C57.148,47.28 57.832,47.88 58.168,48.648 C58.156,48.516 58.12,48.288 58.12,48.156 Z M56.188,48.192 C54.964,48.192 54.244,49.188 54.244,50.736 C54.244,52.26 55.06,53.184 56.176,53.184 C57.4,53.184 58.144,52.14 58.144,50.652 C58.144,49.224 57.412,48.192 56.188,48.192 Z M65.848,50.964 L61.624,50.964 C61.648,52.44 62.38,53.364 63.676,53.364 C64.54,53.364 65.02,52.932 65.308,52.296 C65.416,52.08 65.572,51.996 65.74,51.996 C65.824,51.996 65.908,52.02 65.992,52.044 C66.196,52.104 66.364,52.248 66.364,52.464 C66.364,52.536 66.352,52.608 66.304,52.68 C65.92,53.472 65.224,54.264 63.664,54.264 C61.696,54.264 60.556,52.872 60.556,50.796 C60.556,48.72 61.636,47.268 63.592,47.268 C65.344,47.268 66.328,48.636 66.448,50.208 L66.448,50.304 C66.448,50.736 66.22,50.964 65.848,50.964 Z M61.66,50.088 L65.176,50.088 C65.308,50.088 65.356,50.04 65.356,49.932 L65.356,49.872 C65.212,49.02 64.696,48.144 63.592,48.144 C62.44,48.144 61.816,48.912 61.66,50.088 Z M74.212,48.648 L74.212,45.156 C74.212,44.82 74.464,44.664 74.812,44.664 C75.124,44.664 75.364,44.82 75.364,45.156 L75.364,53.664 C75.364,53.988 75.124,54.156 74.812,54.156 C74.464,54.156 74.212,53.988 74.212,53.664 L74.212,49.692 L69.1,49.692 L69.1,53.664 C69.1,53.988 68.848,54.156 68.524,54.156 C68.188,54.156 67.948,53.988 67.948,53.664 L67.948,45.156 C67.948,44.82 68.188,44.664 68.524,44.664 C68.848,44.664 69.1,44.82 69.1,45.156 L69.1,48.648 L74.212,48.648 Z M77.236,51.912 L77.236,47.844 C77.236,47.52 77.464,47.364 77.788,47.364 C78.112,47.364 78.34,47.52 78.34,47.844 L78.34,51.684 C78.34,52.716 78.76,53.292 79.648,53.292 C80.284,53.292 80.8,52.992 81.208,52.428 C81.496,52.02 81.616,51.648 81.616,51.18 L81.616,47.844 C81.616,47.52 81.844,47.364 82.168,47.364 C82.48,47.364 82.708,47.52 82.708,47.844 L82.708,53.676 C82.708,54 82.492,54.156 82.18,54.156 C81.856,54.156 81.628,54.012 81.628,53.712 L81.628,53.376 C81.628,53.244 81.664,53.004 81.7,52.812 C81.328,53.652 80.632,54.264 79.432,54.264 C78.016,54.264 77.236,53.376 77.236,51.912 Z M85.504,53.46 L85.504,53.712 C85.504,53.976 85.324,54.156 84.976,54.156 C84.64,54.156 84.436,54 84.436,53.676 L84.436,45.144 C84.436,44.82 84.64,44.664 84.976,44.664 C85.288,44.664 85.504,44.82 85.504,45.144 L85.504,47.76 C85.504,48.012 85.48,48.36 85.444,48.636 C85.888,47.784 86.596,47.268 87.7,47.268 C89.5,47.268 90.532,48.588 90.532,50.724 C90.532,52.836 89.44,54.264 87.664,54.264 C86.56,54.264 85.84,53.724 85.456,52.884 C85.48,53.064 85.504,53.304 85.504,53.46 Z M87.556,48.204 C86.236,48.204 85.48,49.272 85.48,50.748 C85.48,52.236 86.26,53.316 87.52,53.316 C88.732,53.316 89.428,52.284 89.428,50.736 C89.428,49.176 88.756,48.204 87.556,48.204 Z" id="ChallengeHub-Copy-3" fill="#FFFFFF"></path>
            </g>
        </g>
        <g id="arrow" transform="translate(168.078838, 104.526279) rotate(60.000000) translate(-168.078838, -104.526279) translate(156.078838, 66.526279)">
            <g id="Combined-Shape" transform="translate(11.900706, 37.936802) rotate(4.000000) translate(-11.900706, -37.936802) ">
                <use fill="black" fill-opacity="1" filter="url(#filter-10)" xlink:href="#path-9"></use>
                <use fill="url(#linearGradient-8)" fill-rule="evenodd" xlink:href="#path-9"></use>
            </g>
        </g>
    </g>
</svg>