<svg width="334" height="263" xmlns="http://www.w3.org/2000/svg" xmlns:xlink="http://www.w3.org/1999/xlink"><defs><filter x="-7.7%" y="-7.8%" width="115.4%" height="121.8%" filterUnits="objectBoundingBox" id="b"><feOffset dy="2" in="SourceAlpha" result="shadowOffsetOuter1"/><feGaussianBlur stdDeviation="2" in="shadowOffsetOuter1" result="shadowBlurOuter1"/><feColorMatrix values="0 0 0 0 0.184313725 0 0 0 0 0.376470588 0 0 0 0 0.439215686 0 0 0 1 0" in="shadowBlurOuter1"/></filter><filter x="-9.2%" y="-7.8%" width="118.5%" height="121.8%" filterUnits="objectBoundingBox" id="d"><feOffset dy="2" in="SourceAlpha" result="shadowOffsetOuter1"/><feGaussianBlur stdDeviation="2" in="shadowOffsetOuter1" result="shadowBlurOuter1"/><feColorMatrix values="0 0 0 0 0.184313725 0 0 0 0 0.376470588 0 0 0 0 0.439215686 0 0 0 1 0" in="shadowBlurOuter1"/></filter><filter x="-6.9%" y="-5.3%" width="113.9%" height="114.7%" filterUnits="objectBoundingBox" id="f"><feOffset dy="2" in="SourceAlpha" result="shadowOffsetOuter1"/><feGaussianBlur stdDeviation="2" in="shadowOffsetOuter1" result="shadowBlurOuter1"/><feColorMatrix values="0 0 0 0 0.184313725 0 0 0 0 0.376470588 0 0 0 0 0.439215686 0 0 0 1 0" in="shadowBlurOuter1"/></filter><filter x="-30.6%" y="-7.4%" width="172.2%" height="117.6%" filterUnits="objectBoundingBox" id="h"><feOffset dx="1" dy="1" in="SourceAlpha" result="shadowOffsetOuter1"/><feGaussianBlur stdDeviation="2" in="shadowOffsetOuter1" result="shadowBlurOuter1"/><feColorMatrix values="0 0 0 0 0.184313725 0 0 0 0 0.376470588 0 0 0 0 0.439215686 0 0 0 1 0" in="shadowBlurOuter1"/></filter><path d="M.731 32.338C.731 14.631 21.091.276 46.206.276c25.115 0 45.475 14.355 45.475 32.062 0 17.708-20.36 32.063-45.475 32.063C21.091 64.401.731 50.046.731 32.338z" id="c"/><path d="M.003 32.262C.003 14.554 16.969.199 37.898.199c20.93 0 37.896 14.355 37.896 32.063 0 17.707-16.966 32.062-37.896 32.062C16.97 64.324.003 49.97.003 32.262z" id="e"/><path d="M.003 47.897C.003 21.677 22.629.423 50.54.423c13.403 0 26.257 5.002 35.735 13.905 9.477 8.903 14.802 20.978 14.802 33.569 0 26.218-22.627 47.473-50.537 47.473C22.629 95.37.003 74.115.003 47.897z" id="g"/><path d="M7.9 17.937h-5l9-17 9 17h-6v57h-7v-57z" id="i"/><linearGradient x1="50%" y1="1.224%" x2="50%" y2="100%" id="a"><stop stop-color="#76C9AC" offset="0%"/><stop stop-color="#D2EADC" offset="100%"/></linearGradient><linearGradient x1="50%" y1="0%" x2="50%" y2="100%" id="j"><stop stop-color="#CB4343" offset="0%"/><stop stop-color="#F1B182" offset="100%"/></linearGradient></defs><g fill="none" fill-rule="evenodd"><path fill="url(#a)" d="M0 0h339v270H0z" transform="translate(-3 -3)"/><path d="M26.237 13.5v223.95M26 237h294.5" stroke="#2F6070" stroke-linejoin="round"/><path d="M107.888 250.8v-7.62c0-.36.252-.516.576-.516.336 0 .576.156.576.504v7.416c0 .276.156.42.432.42h4.248c.312 0 .492.228.492.528 0 .288-.18.552-.492.552h-4.608c-.852 0-1.224-.372-1.224-1.284zm12.324-1.836h-4.224c.024 1.476.756 2.4 2.052 2.4.864 0 1.344-.432 1.632-1.068.108-.216.264-.3.432-.3.084 0 .168.024.252.048.204.06.372.204.372.42a.37.37 0 01-.06.216c-.384.792-1.08 1.584-2.64 1.584-1.968 0-3.108-1.392-3.108-3.468s1.08-3.528 3.036-3.528c1.752 0 2.736 1.368 2.856 2.94v.096c0 .432-.228.66-.6.66zm-4.188-.876h3.516c.132 0 .18-.048.18-.156v-.06c-.144-.852-.66-1.728-1.764-1.728-1.152 0-1.776.768-1.932 1.944zm10.152-.252v-.516c0-.792-.432-1.14-1.38-1.14-.876 0-1.308.336-1.512.888-.084.228-.264.312-.468.312a.704.704 0 01-.276-.048c-.228-.072-.396-.24-.396-.456 0-.048.012-.096.024-.144.12-.372.432-.72.708-.936.42-.324.96-.528 1.932-.528 1.608 0 2.4.636 2.4 2.052v3.276c0 .42.06.828.132 1.056a.426.426 0 01.024.12c0 .192-.18.36-.48.384h-.108c-.24 0-.456-.072-.504-.288a3.413 3.413 0 01-.072-.6c-.456.516-1.092.984-2.28.984-1.32 0-2.124-.744-2.124-1.98 0-1.128.672-1.848 1.812-2.16.66-.18 1.284-.252 2.568-.276zm0 1.668v-.804c-1.404.036-2.064.156-2.544.396-.48.24-.732.612-.732 1.188 0 .624.48 1.044 1.2 1.044a2.26 2.26 0 001.764-.852c.228-.288.312-.516.312-.972zm2.988 2.172v-5.844c0-.312.228-.468.564-.468.3 0 .54.156.54.468v.264c0 .168-.048.372-.072.564.192-.576.804-1.32 1.836-1.356.096-.012.18-.012.264-.012.18 0 .312.024.48.06.276.036.384.204.384.432 0 .06-.012.132-.024.204-.048.252-.216.468-.468.468-.036 0-.072 0-.108-.012-.168-.036-.324-.072-.576-.072-.516.012-.912.276-1.212.66a2.153 2.153 0 00-.504 1.332v3.312c0 .324-.24.48-.54.48-.336 0-.564-.156-.564-.48zm10.536-4.068v4.068c0 .324-.24.48-.552.48-.324 0-.552-.156-.552-.48v-3.84c0-1.02-.408-1.596-1.308-1.596-.648 0-1.188.288-1.596.852-.3.408-.42.756-.42 1.224v3.36c0 .324-.228.48-.54.48-.336 0-.552-.156-.552-.48v-5.844c0-.312.228-.468.564-.468.312 0 .528.156.528.468v.324c0 .156-.036.276-.048.504.42-.852 1.14-1.392 2.28-1.392 1.428 0 2.196.864 2.196 2.34zm1.68 4.068v-5.844c0-.312.204-.468.54-.468.324 0 .552.156.552.468v5.844c0 .324-.228.48-.552.48-.336 0-.54-.156-.54-.48zm.552-9.024c.444 0 .804.348.804.804a.8.8 0 01-.804.816.802.802 0 01-.816-.816.8.8 0 01.816-.804zm7.776 4.956v4.068c0 .324-.24.48-.552.48-.324 0-.552-.156-.552-.48v-3.84c0-1.02-.408-1.596-1.308-1.596-.648 0-1.188.288-1.596.852-.3.408-.42.756-.42 1.224v3.36c0 .324-.228.48-.54.48-.336 0-.552-.156-.552-.48v-5.844c0-.312.228-.468.564-.468.312 0 .528.156.528.468v.324c0 .156-.036.276-.048.504.42-.852 1.14-1.392 2.28-1.392 1.428 0 2.196.864 2.196 2.34zm6.348-1.452v-.36c0-.252.168-.432.516-.432.324 0 .516.156.516.48v5.556c0 2.76-1.452 3.384-3.036 3.384-1.296 0-2.124-.432-2.58-1.02a.446.446 0 01-.096-.264c0-.156.084-.312.228-.42a.61.61 0 01.348-.12c.132 0 .252.048.348.156.444.516.972.768 1.704.768 1.5 0 2.04-.756 2.052-2.532 0-.144.024-.408.048-.576-.396.756-1.08 1.284-2.136 1.284-1.704 0-2.892-1.32-2.892-3.324 0-2.064 1.068-3.456 2.916-3.456 1.092 0 1.776.6 2.112 1.368-.012-.132-.048-.36-.048-.492zm-1.932.036c-1.224 0-1.944.996-1.944 2.544 0 1.524.816 2.448 1.932 2.448 1.224 0 1.968-1.044 1.968-2.532 0-1.428-.732-2.46-1.956-2.46zm13.656 2.772h-4.224c.024 1.476.756 2.4 2.052 2.4.864 0 1.344-.432 1.632-1.068.108-.216.264-.3.432-.3.084 0 .168.024.252.048.204.06.372.204.372.42a.37.37 0 01-.06.216c-.384.792-1.08 1.584-2.64 1.584-1.968 0-3.108-1.392-3.108-3.468s1.08-3.528 3.036-3.528c1.752 0 2.736 1.368 2.856 2.94v.096c0 .432-.228.66-.6.66zm-4.188-.876h3.516c.132 0 .18-.048.18-.156v-.06c-.144-.852-.66-1.728-1.764-1.728-1.152 0-1.776.768-1.932 1.944zm10.848-1.704h-2.868v5.292c0 .324-.228.48-.54.48-.324 0-.54-.156-.54-.48v-5.292h-1.02c-.3 0-.432-.204-.432-.48s.132-.468.432-.468h1.02v-.864c0-1.548.948-1.968 1.86-1.968.396 0 .696.024 1.032.132.228.072.312.252.312.444a.68.68 0 01-.036.216c-.072.204-.252.36-.468.36a.532.532 0 01-.18-.036 1.66 1.66 0 00-.66-.12c-.444 0-.78.24-.78 1.104v.732h2.868v-.864c0-1.548.948-1.968 1.86-1.968.396 0 .696.024 1.032.132.228.072.312.252.312.444a.68.68 0 01-.036.216c-.072.204-.252.36-.468.36a.532.532 0 01-.18-.036 1.66 1.66 0 00-.66-.12c-.444 0-.78.24-.78 1.104v.732h1.452c.3 0 .432.18.432.468 0 .276-.132.48-.432.48h-1.452v5.292c0 .324-.228.48-.54.48-.324 0-.54-.156-.54-.48v-5.292zm8.976 2.58h-4.224c.024 1.476.756 2.4 2.052 2.4.864 0 1.344-.432 1.632-1.068.108-.216.264-.3.432-.3.084 0 .168.024.252.048.204.06.372.204.372.42a.37.37 0 01-.06.216c-.384.792-1.08 1.584-2.64 1.584-1.968 0-3.108-1.392-3.108-3.468s1.08-3.528 3.036-3.528c1.752 0 2.736 1.368 2.856 2.94v.096c0 .432-.228.66-.6.66zm-4.188-.876h3.516c.132 0 .18-.048.18-.156v-.06c-.144-.852-.66-1.728-1.764-1.728-1.152 0-1.776.768-1.932 1.944zm5.784.696c0-2.052 1.056-3.528 3.024-3.528 1.584 0 2.232.876 2.532 1.632.024.06.036.132.036.18 0 .228-.18.372-.36.444a1 1 0 01-.264.036c-.18 0-.336-.072-.42-.276-.228-.612-.588-1.08-1.5-1.08-1.248 0-1.932 1.056-1.932 2.58 0 1.572.672 2.568 1.944 2.568.936 0 1.308-.456 1.536-1.104.084-.228.252-.324.444-.324.084 0 .168.012.252.048.216.048.384.192.384.408a.506.506 0 01-.048.216c-.324.828-.96 1.692-2.592 1.692-1.944 0-3.036-1.428-3.036-3.492zm7.668-3.348v-1.452c0-.312.204-.48.54-.48.312 0 .54.168.54.48v1.452h1.536c.3 0 .444.192.444.48 0 .276-.156.468-.444.468h-1.536v4.02c0 .588.252.84.696.84.3 0 .504-.084.708-.204a.489.489 0 01.216-.06c.18 0 .324.132.396.312.036.084.048.18.048.264a.47.47 0 01-.252.432 2.486 2.486 0 01-1.188.264c-.984 0-1.704-.492-1.704-1.752v-4.116h-.936c-.288 0-.42-.192-.42-.468s.132-.48.432-.48h.924zm4.128 6.24v-5.844c0-.312.204-.468.54-.468.324 0 .552.156.552.468v5.844c0 .324-.228.48-.552.48-.336 0-.54-.156-.54-.48zm.552-9.024c.444 0 .804.348.804.804a.8.8 0 01-.804.816.802.802 0 01-.816-.816.8.8 0 01.816-.804zm5.208 6.768l1.368-3.708c.096-.24.264-.348.48-.348.072 0 .144.012.228.036.24.072.396.228.396.456 0 .06-.012.132-.048.204l-2.208 5.616c-.144.372-.408.48-.72.48-.324 0-.576-.12-.72-.492l-2.208-5.604a.597.597 0 01-.036-.192c0-.228.156-.408.384-.468a.896.896 0 01.24-.036c.216 0 .396.096.48.336l1.392 3.78c.144.408.384 1.212.48 1.644.108-.444.336-1.296.492-1.704zm8.628-.456h-4.224c.024 1.476.756 2.4 2.052 2.4.864 0 1.344-.432 1.632-1.068.108-.216.264-.3.432-.3.084 0 .168.024.252.048.204.06.372.204.372.42a.37.37 0 01-.06.216c-.384.792-1.08 1.584-2.64 1.584-1.968 0-3.108-1.392-3.108-3.468s1.08-3.528 3.036-3.528c1.752 0 2.736 1.368 2.856 2.94v.096c0 .432-.228.66-.6.66zm-4.188-.876h3.516c.132 0 .18-.048.18-.156v-.06c-.144-.852-.66-1.728-1.764-1.728-1.152 0-1.776.768-1.932 1.944zm11.616-.48v4.068c0 .324-.24.48-.552.48-.324 0-.552-.156-.552-.48v-3.84c0-1.02-.408-1.596-1.308-1.596-.648 0-1.188.288-1.596.852-.3.408-.42.756-.42 1.224v3.36c0 .324-.228.48-.54.48-.336 0-.552-.156-.552-.48v-5.844c0-.312.228-.468.564-.468.312 0 .528.156.528.468v.324c0 .156-.036.276-.048.504.42-.852 1.14-1.392 2.28-1.392 1.428 0 2.196.864 2.196 2.34zm6.66 1.356h-4.224c.024 1.476.756 2.4 2.052 2.4.864 0 1.344-.432 1.632-1.068.108-.216.264-.3.432-.3.084 0 .168.024.252.048.204.06.372.204.372.42a.37.37 0 01-.06.216c-.384.792-1.08 1.584-2.64 1.584-1.968 0-3.108-1.392-3.108-3.468s1.08-3.528 3.036-3.528c1.752 0 2.736 1.368 2.856 2.94v.096c0 .432-.228.66-.6.66zm-4.188-.876h3.516c.132 0 .18-.048.18-.156v-.06c-.144-.852-.66-1.728-1.764-1.728-1.152 0-1.776.768-1.932 1.944zm8.676 1.08l-.684-.132c-1.476-.288-2.088-.804-2.088-1.944 0-1.092.936-1.836 2.484-1.836 1.332 0 2.184.564 2.484 1.44.012.048.024.096.024.144 0 .228-.204.384-.42.444a1.05 1.05 0 01-.192.024c-.216 0-.432-.096-.492-.324-.156-.54-.684-.816-1.368-.816-.972 0-1.428.396-1.428.9 0 .552.228.792 1.236 1.008l.744.156c1.56.324 2.184.78 2.184 2.04 0 1.152-.984 2.004-2.664 2.004-1.536 0-2.436-.612-2.748-1.68-.012-.06-.024-.108-.024-.156 0-.24.204-.408.432-.456.06-.012.12-.024.168-.024.228 0 .444.096.516.324.216.696.708 1.044 1.656 1.044.96 0 1.584-.42 1.584-1.032 0-.588-.312-.912-1.404-1.128zm6.42 0l-.684-.132c-1.476-.288-2.088-.804-2.088-1.944 0-1.092.936-1.836 2.484-1.836 1.332 0 2.184.564 2.484 1.44.012.048.024.096.024.144 0 .228-.204.384-.42.444a1.05 1.05 0 01-.192.024c-.216 0-.432-.096-.492-.324-.156-.54-.684-.816-1.368-.816-.972 0-1.428.396-1.428.9 0 .552.228.792 1.236 1.008l.744.156c1.56.324 2.184.78 2.184 2.04 0 1.152-.984 2.004-2.664 2.004-1.536 0-2.436-.612-2.748-1.68-.012-.06-.024-.108-.024-.156 0-.24.204-.408.432-.456.06-.012.12-.024.168-.024.228 0 .444.096.516.324.216.696.708 1.044 1.656 1.044.96 0 1.584-.42 1.584-1.032 0-.588-.312-.912-1.404-1.128zM9.08 180.886v2.724c0 .3-.24.468-.516.468-.288 0-.54-.168-.54-.456v-6.612c0-.288.252-.456.54-.456.276 0 .516.18.516.456v2.724h7.872c.324 0 .492.252.492.576 0 .324-.168.576-.492.576H9.08zm5.172-10.452v4.224c1.476-.024 2.4-.756 2.4-2.052 0-.864-.432-1.344-1.068-1.632-.216-.108-.3-.264-.3-.432 0-.084.024-.168.048-.252.06-.204.204-.372.42-.372a.37.37 0 01.216.06c.792.384 1.584 1.08 1.584 2.64 0 1.968-1.392 3.108-3.468 3.108s-3.528-1.08-3.528-3.036c0-1.752 1.368-2.736 2.94-2.856h.096c.432 0 .66.228.66.6zm-.876 4.188v-3.516c0-.132-.048-.18-.156-.18h-.06c-.852.144-1.728.66-1.728 1.764 0 1.152.768 1.776 1.944 1.932zm-.252-10.152h-.516c-.792 0-1.14.432-1.14 1.38 0 .876.336 1.308.888 1.512.228.084.312.264.312.468a.704.704 0 01-.048.276c-.072.228-.24.396-.456.396a.602.602 0 01-.144-.024c-.372-.12-.72-.432-.936-.708-.324-.42-.528-.96-.528-1.932 0-1.608.636-2.4 2.052-2.4h3.276c.42 0 .828-.06 1.056-.132a.426.426 0 01.12-.024c.192 0 .36.18.384.48v.108c0 .24-.072.456-.288.504-.144.036-.36.06-.6.072.516.456.984 1.092.984 2.28 0 1.32-.744 2.124-1.98 2.124-1.128 0-1.848-.672-2.16-1.812-.18-.66-.252-1.284-.276-2.568zm1.668 0h-.804c.036 1.404.156 2.064.396 2.544.24.48.612.732 1.188.732.624 0 1.044-.48 1.044-1.2a2.26 2.26 0 00-.852-1.764c-.288-.228-.516-.312-.972-.312zm-.72-2.508c-2.052 0-3.528-1.056-3.528-3.024 0-1.584.876-2.232 1.632-2.532a.532.532 0 01.18-.036c.228 0 .372.18.444.36a1 1 0 01.036.264c0 .18-.072.336-.276.42-.612.228-1.08.588-1.08 1.5 0 1.248 1.056 1.932 2.58 1.932 1.572 0 2.568-.672 2.568-1.944 0-.936-.456-1.308-1.104-1.536-.228-.084-.324-.252-.324-.444 0-.084.012-.168.048-.252.048-.216.192-.384.408-.384.072 0 .132.012.216.048.828.324 1.692.96 1.692 2.592 0 1.944-1.428 3.036-3.492 3.036zm-1.176-12.492h4.068c.324 0 .48.24.48.552 0 .324-.156.54-.48.54h-3.84c-1.02 0-1.584.42-1.584 1.32 0 .672.312 1.2.84 1.596.408.3.756.432 1.224.432h3.36c.324 0 .48.204.48.516 0 .336-.156.564-.48.564H8.42c-.312 0-.468-.228-.468-.564 0-.312.144-.516.468-.516h3.012c.156 0 .432.048.612.072-.852-.396-1.488-1.056-1.488-2.316 0-1.428.864-2.196 2.34-2.196zm4.068-1.68H11.12c-.312 0-.468-.204-.468-.54 0-.324.156-.552.468-.552h5.844c.324 0 .48.228.48.552 0 .336-.156.54-.48.54zm-9.024-.552c0-.444.348-.804.804-.804a.8.8 0 01.816.804.802.802 0 01-.816.816.8.8 0 01-.804-.816zm4.956-7.776h4.068c.324 0 .48.24.48.552 0 .324-.156.552-.48.552h-3.84c-1.02 0-1.596.408-1.596 1.308 0 .648.288 1.188.852 1.596.408.3.756.42 1.224.42h3.36c.324 0 .48.228.48.54 0 .336-.156.552-.48.552H11.12c-.312 0-.468-.228-.468-.564 0-.312.156-.528.468-.528h.324c.156 0 .276.036.504.048-.852-.42-1.392-1.14-1.392-2.28 0-1.428.864-2.196 2.34-2.196zm-1.452-6.348h-.36c-.252 0-.432-.168-.432-.516 0-.324.156-.516.48-.516h5.556c2.76 0 3.384 1.452 3.384 3.036 0 1.296-.432 2.124-1.02 2.58a.446.446 0 01-.264.096.537.537 0 01-.42-.228.61.61 0 01-.12-.348c0-.132.048-.252.156-.348.516-.444.768-.972.768-1.704 0-1.5-.756-2.04-2.532-2.052-.144 0-.408-.024-.576-.048.756.396 1.284 1.08 1.284 2.136 0 1.704-1.32 2.892-3.324 2.892-2.064 0-3.456-1.068-3.456-2.916 0-1.092.6-1.776 1.368-2.112-.132.012-.36.048-.492.048zm.036 1.932c0 1.224.996 1.944 2.544 1.944 1.524 0 2.448-.816 2.448-1.932 0-1.224-1.044-1.968-2.532-1.968-1.428 0-2.46.732-2.46 1.956zm2.772-13.656v4.224c1.476-.024 2.4-.756 2.4-2.052 0-.864-.432-1.344-1.068-1.632-.216-.108-.3-.264-.3-.432 0-.084.024-.168.048-.252.06-.204.204-.372.42-.372a.37.37 0 01.216.06c.792.384 1.584 1.08 1.584 2.64 0 1.968-1.392 3.108-3.468 3.108s-3.528-1.08-3.528-3.036c0-1.752 1.368-2.736 2.94-2.856h.096c.432 0 .66.228.66.6zm-.876 4.188v-3.516c0-.132-.048-.18-.156-.18h-.06c-.852.144-1.728.66-1.728 1.764 0 1.152.768 1.776 1.944 1.932zm3.588-14.856H11.12c-.312 0-.468-.204-.468-.54 0-.324.156-.54.468-.54h5.844c.324 0 .48.216.48.54 0 .336-.156.54-.48.54zm-9.024-.552c0-.444.348-.804.804-.804a.8.8 0 01.816.804.802.802 0 01-.816.816.8.8 0 01-.804-.816zm2.784 4.56H9.86c-1.548 0-1.968-.948-1.968-1.86 0-.396.024-.696.132-1.032.072-.216.24-.3.432-.3.072 0 .156.012.228.036.204.072.36.24.36.456 0 .06-.012.12-.036.18a1.66 1.66 0 00-.12.66c0 .444.24.792 1.104.792h.732v-1.464c0-.3.18-.432.468-.432.276 0 .48.132.48.432v1.464h5.292c.324 0 .48.216.48.528 0 .324-.156.54-.48.54h-5.292v2.868h5.292c.324 0 .48.228.48.54 0 .324-.156.54-.48.54h-5.292v1.02c0 .3-.204.432-.48.432s-.468-.132-.468-.432v-1.02H9.86c-1.548 0-1.968-.948-1.968-1.86 0-.396.024-.696.132-1.032.072-.228.252-.312.444-.312a.68.68 0 01.216.036c.204.072.36.252.36.468 0 .048-.012.12-.036.18a1.66 1.66 0 00-.12.66c0 .444.24.78 1.104.78h.732v-2.868zm3.348-6.492c-2.052 0-3.528-1.056-3.528-3.024 0-1.584.876-2.232 1.632-2.532a.532.532 0 01.18-.036c.228 0 .372.18.444.36a1 1 0 01.036.264c0 .18-.072.336-.276.42-.612.228-1.08.588-1.08 1.5 0 1.248 1.056 1.932 2.58 1.932 1.572 0 2.568-.672 2.568-1.944 0-.936-.456-1.308-1.104-1.536-.228-.084-.324-.252-.324-.444 0-.084.012-.168.048-.252.048-.216.192-.384.408-.384.072 0 .132.012.216.048.828.324 1.692.96 1.692 2.592 0 1.944-1.428 3.036-3.492 3.036zm2.892-6.96H11.12c-.312 0-.468-.204-.468-.54 0-.324.156-.552.468-.552h5.844c.324 0 .48.228.48.552 0 .336-.156.54-.48.54zm-9.024-.552c0-.444.348-.804.804-.804a.8.8 0 01.816.804.802.802 0 01-.816.816.8.8 0 01-.804-.816zm6.312-7.236v4.224c1.476-.024 2.4-.756 2.4-2.052 0-.864-.432-1.344-1.068-1.632-.216-.108-.3-.264-.3-.432 0-.084.024-.168.048-.252.06-.204.204-.372.42-.372a.37.37 0 01.216.06c.792.384 1.584 1.08 1.584 2.64 0 1.968-1.392 3.108-3.468 3.108s-3.528-1.08-3.528-3.036c0-1.752 1.368-2.736 2.94-2.856h.096c.432 0 .66.228.66.6zm-.876 4.188v-3.516c0-.132-.048-.18-.156-.18h-.06c-.852.144-1.728.66-1.728 1.764 0 1.152.768 1.776 1.944 1.932zm-.48-11.616h4.068c.324 0 .48.24.48.552 0 .324-.156.552-.48.552h-3.84c-1.02 0-1.596.408-1.596 1.308 0 .648.288 1.188.852 1.596.408.3.756.42 1.224.42h3.36c.324 0 .48.228.48.54 0 .336-.156.552-.48.552H11.12c-.312 0-.468-.228-.468-.564 0-.312.156-.528.468-.528h.324c.156 0 .276.036.504.048-.852-.42-1.392-1.14-1.392-2.28 0-1.428.864-2.196 2.34-2.196zm1.176-1.368c-2.052 0-3.528-1.056-3.528-3.024 0-1.584.876-2.232 1.632-2.532a.532.532 0 01.18-.036c.228 0 .372.18.444.36a1 1 0 01.036.264c0 .18-.072.336-.276.42-.612.228-1.08.588-1.08 1.5 0 1.248 1.056 1.932 2.58 1.932 1.572 0 2.568-.672 2.568-1.944 0-.936-.456-1.308-1.104-1.536-.228-.084-.324-.252-.324-.444 0-.084.012-.168.048-.252.048-.216.192-.384.408-.384.072 0 .132.012.216.048.828.324 1.692.96 1.692 2.592 0 1.944-1.428 3.036-3.492 3.036zm.888-9.792l-3.984-1.512c-.228-.084-.312-.264-.312-.468 0-.072.012-.144.024-.216.06-.228.228-.396.444-.396.06 0 .132.012.204.036l7.02 2.832c1.032.42 1.716.912 1.716 2.088 0 .3-.048.588-.156.864-.084.24-.252.336-.432.336a.762.762 0 01-.276-.06c-.204-.084-.336-.24-.336-.444 0-.072.012-.144.048-.228.072-.168.156-.384.156-.6 0-.516-.456-.768-1.008-.984l-.84-.336-5.88 2.424a.544.544 0 01-.192.036c-.216 0-.396-.18-.468-.396a.914.914 0 01-.036-.252c0-.192.084-.372.3-.456l3.984-1.512c.384-.144.828-.252 1.2-.36a12.293 12.293 0 01-1.176-.396z" fill="#2F6070"/><g><g transform="translate(39 105)"><use fill="#000" filter="url(#b)" xlink:href="#c"/><use fill="#F3C68D" xlink:href="#c"/></g><path d="M58.416 127.792h-2.724c-.3 0-.468-.24-.468-.516 0-.288.168-.54.456-.54h6.612c.288 0 .456.252.456.54 0 .276-.18.516-.456.516h-2.724v7.872c0 .324-.252.492-.576.492-.324 0-.576-.168-.576-.492v-7.872zm4.56 7.884v-5.844c0-.312.228-.468.564-.468.3 0 .54.156.54.468v.264c0 .168-.048.372-.072.564.192-.576.804-1.32 1.836-1.356.096-.012.18-.012.264-.012.18 0 .312.024.48.06.276.036.384.204.384.432 0 .06-.012.132-.024.204-.048.252-.216.468-.468.468-.036 0-.072 0-.108-.012-.168-.036-.324-.072-.576-.072-.516.012-.912.276-1.212.66a2.153 2.153 0 00-.504 1.332v3.312c0 .324-.24.48-.54.48-.336 0-.564-.156-.564-.48zm9.072-3.84v-.516c0-.792-.432-1.14-1.38-1.14-.876 0-1.308.336-1.512.888-.084.228-.264.312-.468.312a.704.704 0 01-.276-.048c-.228-.072-.396-.24-.396-.456 0-.048.012-.096.024-.144.12-.372.432-.72.708-.936.42-.324.96-.528 1.932-.528 1.608 0 2.4.636 2.4 2.052v3.276c0 .42.06.828.132 1.056a.426.426 0 01.024.12c0 .192-.18.36-.48.384h-.108c-.24 0-.456-.072-.504-.288a3.413 3.413 0 01-.072-.6c-.456.516-1.092.984-2.28.984-1.32 0-2.124-.744-2.124-1.98 0-1.128.672-1.848 1.812-2.16.66-.18 1.284-.252 2.568-.276zm0 1.668v-.804c-1.404.036-2.064.156-2.544.396-.48.24-.732.612-.732 1.188 0 .624.48 1.044 1.2 1.044a2.26 2.26 0 001.764-.852c.228-.288.312-.516.312-.972zm7.536-3.744v-2.616c0-.324.228-.48.528-.48.336 0 .54.156.54.48v8.532c0 .324-.216.48-.552.48-.348 0-.516-.192-.516-.444v-.252c0-.132.024-.384.036-.552-.408.84-1.092 1.356-2.208 1.356-1.752 0-2.856-1.38-2.856-3.54 0-2.1 1.092-3.456 2.868-3.456 1.116 0 1.788.528 2.208 1.38a11.309 11.309 0 01-.048-.888zm-2.016.444c-1.212 0-1.908 1.008-1.908 2.532 0 1.572.696 2.592 1.908 2.592 1.26 0 2.04-1.092 2.04-2.58 0-1.464-.72-2.544-2.04-2.544zm4.8 5.472v-5.844c0-.312.204-.468.54-.468.324 0 .552.156.552.468v5.844c0 .324-.228.48-.552.48-.336 0-.54-.156-.54-.48zm.552-9.024c.444 0 .804.348.804.804a.8.8 0 01-.804.816.802.802 0 01-.816-.816.8.8 0 01.816-.804zm2.964 2.784v-1.452c0-.312.204-.48.54-.48.312 0 .54.168.54.48v1.452H88.5c.3 0 .444.192.444.48 0 .276-.156.468-.444.468h-1.536v4.02c0 .588.252.84.696.84.3 0 .504-.084.708-.204a.489.489 0 01.216-.06c.18 0 .324.132.396.312.036.084.048.18.048.264a.47.47 0 01-.252.432 2.486 2.486 0 01-1.188.264c-.984 0-1.704-.492-1.704-1.752v-4.116h-.936c-.288 0-.42-.192-.42-.468s.132-.48.432-.48h.924zm4.128 6.24v-5.844c0-.312.204-.468.54-.468.324 0 .552.156.552.468v5.844c0 .324-.228.48-.552.48-.336 0-.54-.156-.54-.48zm.552-9.024c.444 0 .804.348.804.804a.8.8 0 01-.804.816.802.802 0 01-.816-.816.8.8 0 01.816-.804zm5.052 2.616c1.92 0 3.048 1.392 3.048 3.48s-1.152 3.528-3.024 3.528c-1.98 0-3.132-1.392-3.132-3.528 0-2.076 1.164-3.48 3.108-3.48zm.036.924c-1.296 0-2.04.996-2.04 2.592 0 1.524.72 2.568 1.956 2.568 1.308 0 1.992-1.02 1.992-2.616 0-1.512-.684-2.544-1.908-2.544zm9.924 1.416v4.068c0 .324-.24.48-.552.48-.324 0-.552-.156-.552-.48v-3.84c0-1.02-.408-1.596-1.308-1.596-.648 0-1.188.288-1.596.852-.3.408-.42.756-.42 1.224v3.36c0 .324-.228.48-.54.48-.336 0-.552-.156-.552-.48v-5.844c0-.312.228-.468.564-.468.312 0 .528.156.528.468v.324c0 .156-.036.276-.048.504.42-.852 1.14-1.392 2.28-1.392 1.428 0 2.196.864 2.196 2.34zm5.736.228v-.516c0-.792-.432-1.14-1.38-1.14-.876 0-1.308.336-1.512.888-.084.228-.264.312-.468.312a.704.704 0 01-.276-.048c-.228-.072-.396-.24-.396-.456 0-.048.012-.096.024-.144.12-.372.432-.72.708-.936.42-.324.96-.528 1.932-.528 1.608 0 2.4.636 2.4 2.052v3.276c0 .42.06.828.132 1.056a.426.426 0 01.024.12c0 .192-.18.36-.48.384h-.108c-.24 0-.456-.072-.504-.288a3.413 3.413 0 01-.072-.6c-.456.516-1.092.984-2.28.984-1.32 0-2.124-.744-2.124-1.98 0-1.128.672-1.848 1.812-2.16.66-.18 1.284-.252 2.568-.276zm0 1.668v-.804c-1.404.036-2.064.156-2.544.396-.48.24-.732.612-.732 1.188 0 .624.48 1.044 1.2 1.044a2.26 2.26 0 001.764-.852c.228-.288.312-.516.312-.972zm2.808 2.172v-8.532c0-.324.216-.48.552-.48.324 0 .54.156.54.48v8.532c0 .324-.216.48-.54.48-.336 0-.552-.156-.552-.48zm-51.192 15v-8.532c0-.324.216-.48.552-.48.324 0 .54.156.54.48v8.532c0 .324-.216.48-.54.48-.336 0-.552-.156-.552-.48zm7.788-2.712h-4.224c.024 1.476.756 2.4 2.052 2.4.864 0 1.344-.432 1.632-1.068.108-.216.264-.3.432-.3.084 0 .168.024.252.048.204.06.372.204.372.42a.37.37 0 01-.06.216c-.384.792-1.08 1.584-2.64 1.584-1.968 0-3.108-1.392-3.108-3.468s1.08-3.528 3.036-3.528c1.752 0 2.736 1.368 2.856 2.94v.096c0 .432-.228.66-.6.66zm-4.188-.876h3.516c.132 0 .18-.048.18-.156v-.06c-.144-.852-.66-1.728-1.764-1.728-1.152 0-1.776.768-1.932 1.944zm5.784.696c0-2.052 1.056-3.528 3.024-3.528 1.584 0 2.232.876 2.532 1.632.024.06.036.132.036.18 0 .228-.18.372-.36.444a1 1 0 01-.264.036c-.18 0-.336-.072-.42-.276-.228-.612-.588-1.08-1.5-1.08-1.248 0-1.932 1.056-1.932 2.58 0 1.572.672 2.568 1.944 2.568.936 0 1.308-.456 1.536-1.104.084-.228.252-.324.444-.324.084 0 .168.012.252.048.216.048.384.192.384.408a.506.506 0 01-.048.216c-.324.828-.96 1.692-2.592 1.692-1.944 0-3.036-1.428-3.036-3.492zm7.668-3.348v-1.452c0-.312.204-.48.54-.48.312 0 .54.168.54.48v1.452h1.536c.3 0 .444.192.444.48 0 .276-.156.468-.444.468H81.06v4.02c0 .588.252.84.696.84.3 0 .504-.084.708-.204a.489.489 0 01.216-.06c.18 0 .324.132.396.312.036.084.048.18.048.264a.47.47 0 01-.252.432 2.486 2.486 0 01-1.188.264c-.984 0-1.704-.492-1.704-1.752v-4.116h-.936c-.288 0-.42-.192-.42-.468s.132-.48.432-.48h.924zm4.092 4.476v-4.068c0-.324.228-.48.552-.48.324 0 .552.156.552.48v3.84c0 1.032.42 1.608 1.308 1.608.636 0 1.152-.3 1.56-.864.288-.408.408-.78.408-1.248v-3.336c0-.324.228-.48.552-.48.312 0 .54.156.54.48v5.832c0 .324-.216.48-.528.48-.324 0-.552-.144-.552-.444v-.336c0-.132.036-.372.072-.564-.372.84-1.068 1.452-2.268 1.452-1.416 0-2.196-.888-2.196-2.352zm7.368 1.764v-5.844c0-.312.228-.468.564-.468.3 0 .54.156.54.468v.264c0 .168-.048.372-.072.564.192-.576.804-1.32 1.836-1.356.096-.012.18-.012.264-.012.18 0 .312.024.48.06.276.036.384.204.384.432 0 .06-.012.132-.024.204-.048.252-.216.468-.468.468-.036 0-.072 0-.108-.012-.168-.036-.324-.072-.576-.072-.516.012-.912.276-1.212.66a2.153 2.153 0 00-.504 1.332v3.312c0 .324-.24.48-.54.48-.336 0-.564-.156-.564-.48zm9.996-2.712h-4.224c.024 1.476.756 2.4 2.052 2.4.864 0 1.344-.432 1.632-1.068.108-.216.264-.3.432-.3.084 0 .168.024.252.048.204.06.372.204.372.42a.37.37 0 01-.06.216c-.384.792-1.08 1.584-2.64 1.584-1.968 0-3.108-1.392-3.108-3.468s1.08-3.528 3.036-3.528c1.752 0 2.736 1.368 2.856 2.94v.096c0 .432-.228.66-.6.66zm-4.188-.876h3.516c.132 0 .18-.048.18-.156v-.06c-.144-.852-.66-1.728-1.764-1.728-1.152 0-1.776.768-1.932 1.944zm8.676 1.08l-.684-.132c-1.476-.288-2.088-.804-2.088-1.944 0-1.092.936-1.836 2.484-1.836 1.332 0 2.184.564 2.484 1.44.012.048.024.096.024.144 0 .228-.204.384-.42.444a1.05 1.05 0 01-.192.024c-.216 0-.432-.096-.492-.324-.156-.54-.684-.816-1.368-.816-.972 0-1.428.396-1.428.9 0 .552.228.792 1.236 1.008l.744.156c1.56.324 2.184.78 2.184 2.04 0 1.152-.984 2.004-2.664 2.004-1.536 0-2.436-.612-2.748-1.68-.012-.06-.024-.108-.024-.156 0-.24.204-.408.432-.456.06-.012.12-.024.168-.024.228 0 .444.096.516.324.216.696.708 1.044 1.656 1.044.96 0 1.584-.42 1.584-1.032 0-.588-.312-.912-1.404-1.128z" fill="#2F6070"/></g><g><g transform="translate(145 157)"><use fill="#000" filter="url(#d)" xlink:href="#e"/><use fill="#E69877" xlink:href="#e"/></g><path d="M165.822 168.792h-2.724c-.3 0-.468-.24-.468-.516 0-.288.168-.54.456-.54h6.612c.288 0 .456.252.456.54 0 .276-.18.516-.456.516h-2.724v7.872c0 .324-.252.492-.576.492-.324 0-.576-.168-.576-.492v-7.872zm8.304 5.88l1.512-3.984c.084-.228.264-.312.468-.312.072 0 .144.012.216.024.228.06.396.228.396.444 0 .06-.012.132-.036.204l-2.832 7.02c-.42 1.032-.912 1.716-2.088 1.716-.3 0-.588-.048-.864-.156-.24-.084-.336-.252-.336-.432 0-.096.024-.18.06-.276.084-.204.24-.336.444-.336.072 0 .144.012.228.048.168.072.384.156.6.156.516 0 .768-.456.984-1.008l.336-.84-2.424-5.88a.544.544 0 01-.036-.192c0-.216.18-.396.396-.468a.914.914 0 01.252-.036c.192 0 .372.084.456.3l1.512 3.984c.144.384.252.828.36 1.2.096-.372.264-.828.396-1.176zm4.848 1.896v2.64c0 .3-.204.468-.528.468-.336 0-.54-.168-.54-.468v-8.376c0-.312.204-.468.54-.468.3 0 .528.144.528.444v.216c0 .168-.012.456-.048.66.42-.852 1.08-1.416 2.244-1.416 1.8 0 2.82 1.308 2.82 3.444s-1.08 3.552-2.868 3.552c-1.116 0-1.8-.552-2.208-1.392.048.228.06.48.06.696zm2.04-5.364c-1.32 0-2.064 1.068-2.064 2.544 0 1.488.78 2.568 2.04 2.568 1.212 0 1.896-1.032 1.896-2.58 0-1.56-.66-2.532-1.872-2.532zm4.38 5.472v-5.844c0-.312.204-.468.54-.468.324 0 .552.156.552.468v5.844c0 .324-.228.48-.552.48-.336 0-.54-.156-.54-.48zm.552-9.024c.444 0 .804.348.804.804a.8.8 0 01-.804.816.802.802 0 01-.816-.816.8.8 0 01.816-.804zm1.944 6.132c0-2.052 1.056-3.528 3.024-3.528 1.584 0 2.232.876 2.532 1.632.024.06.036.132.036.18 0 .228-.18.372-.36.444a1 1 0 01-.264.036c-.18 0-.336-.072-.42-.276-.228-.612-.588-1.08-1.5-1.08-1.248 0-1.932 1.056-1.932 2.58 0 1.572.672 2.568 1.944 2.568.936 0 1.308-.456 1.536-1.104.084-.228.252-.324.444-.324.084 0 .168.012.252.048.216.048.384.192.384.408a.506.506 0 01-.048.216c-.324.828-.96 1.692-2.592 1.692-1.944 0-3.036-1.428-3.036-3.492zm11.016-.948v-.516c0-.792-.432-1.14-1.38-1.14-.876 0-1.308.336-1.512.888-.084.228-.264.312-.468.312a.704.704 0 01-.276-.048c-.228-.072-.396-.24-.396-.456 0-.048.012-.096.024-.144.12-.372.432-.72.708-.936.42-.324.96-.528 1.932-.528 1.608 0 2.4.636 2.4 2.052v3.276c0 .42.06.828.132 1.056a.426.426 0 01.024.12c0 .192-.18.36-.48.384h-.108c-.24 0-.456-.072-.504-.288a3.413 3.413 0 01-.072-.6c-.456.516-1.092.984-2.28.984-1.32 0-2.124-.744-2.124-1.98 0-1.128.672-1.848 1.812-2.16.66-.18 1.284-.252 2.568-.276zm0 1.668v-.804c-1.404.036-2.064.156-2.544.396-.48.24-.732.612-.732 1.188 0 .624.48 1.044 1.2 1.044a2.26 2.26 0 001.764-.852c.228-.288.312-.516.312-.972zm2.808 2.172v-8.532c0-.324.216-.48.552-.48.324 0 .54.156.54.48v8.532c0 .324-.216.48-.54.48-.336 0-.552-.156-.552-.48zm-31.134 11.16v-.516c0-.792-.432-1.14-1.38-1.14-.876 0-1.308.336-1.512.888-.084.228-.264.312-.468.312a.704.704 0 01-.276-.048c-.228-.072-.396-.24-.396-.456 0-.048.012-.096.024-.144.12-.372.432-.72.708-.936.42-.324.96-.528 1.932-.528 1.608 0 2.4.636 2.4 2.052v3.276c0 .42.06.828.132 1.056a.426.426 0 01.024.12c0 .192-.18.36-.48.384h-.108c-.24 0-.456-.072-.504-.288a3.413 3.413 0 01-.072-.6c-.456.516-1.092.984-2.28.984-1.32 0-2.124-.744-2.124-1.98 0-1.128.672-1.848 1.812-2.16.66-.18 1.284-.252 2.568-.276zm0 1.668v-.804c-1.404.036-2.064.156-2.544.396-.48.24-.732.612-.732 1.188 0 .624.48 1.044 1.2 1.044a2.26 2.26 0 001.764-.852c.228-.288.312-.516.312-.972zm2.508-.72c0-2.052 1.056-3.528 3.024-3.528 1.584 0 2.232.876 2.532 1.632.024.06.036.132.036.18 0 .228-.18.372-.36.444a1 1 0 01-.264.036c-.18 0-.336-.072-.42-.276-.228-.612-.588-1.08-1.5-1.08-1.248 0-1.932 1.056-1.932 2.58 0 1.572.672 2.568 1.944 2.568.936 0 1.308-.456 1.536-1.104.084-.228.252-.324.444-.324.084 0 .168.012.252.048.216.048.384.192.384.408a.506.506 0 01-.048.216c-.324.828-.96 1.692-2.592 1.692-1.944 0-3.036-1.428-3.036-3.492zm7.668-3.348v-1.452c0-.312.204-.48.54-.48.312 0 .54.168.54.48v1.452h1.536c.3 0 .444.192.444.48 0 .276-.156.468-.444.468h-1.536v4.02c0 .588.252.84.696.84.3 0 .504-.084.708-.204a.489.489 0 01.216-.06c.18 0 .324.132.396.312.036.084.048.18.048.264a.47.47 0 01-.252.432 2.486 2.486 0 01-1.188.264c-.984 0-1.704-.492-1.704-1.752v-4.116h-.936c-.288 0-.42-.192-.42-.468s.132-.48.432-.48h.924zm4.128 6.24v-5.844c0-.312.204-.468.54-.468.324 0 .552.156.552.468v5.844c0 .324-.228.48-.552.48-.336 0-.54-.156-.54-.48zm.552-9.024c.444 0 .804.348.804.804a.8.8 0 01-.804.816.802.802 0 01-.816-.816.8.8 0 01.816-.804zm5.208 6.768l1.368-3.708c.096-.24.264-.348.48-.348.072 0 .144.012.228.036.24.072.396.228.396.456 0 .06-.012.132-.048.204l-2.208 5.616c-.144.372-.408.48-.72.48-.324 0-.576-.12-.72-.492l-2.208-5.604a.597.597 0 01-.036-.192c0-.228.156-.408.384-.468a.896.896 0 01.24-.036c.216 0 .396.096.48.336l1.392 3.78c.144.408.384 1.212.48 1.644.108-.444.336-1.296.492-1.704zm8.628-.456h-4.224c.024 1.476.756 2.4 2.052 2.4.864 0 1.344-.432 1.632-1.068.108-.216.264-.3.432-.3.084 0 .168.024.252.048.204.06.372.204.372.42a.37.37 0 01-.06.216c-.384.792-1.08 1.584-2.64 1.584-1.968 0-3.108-1.392-3.108-3.468s1.08-3.528 3.036-3.528c1.752 0 2.736 1.368 2.856 2.94v.096c0 .432-.228.66-.6.66zm-4.188-.876h3.516c.132 0 .18-.048.18-.156v-.06c-.144-.852-.66-1.728-1.764-1.728-1.152 0-1.776.768-1.932 1.944zm-34.428 18.588v-8.532c0-.324.216-.48.552-.48.324 0 .54.156.54.48v8.532c0 .324-.216.48-.54.48-.336 0-.552-.156-.552-.48zm7.788-2.712h-4.224c.024 1.476.756 2.4 2.052 2.4.864 0 1.344-.432 1.632-1.068.108-.216.264-.3.432-.3.084 0 .168.024.252.048.204.06.372.204.372.42a.37.37 0 01-.06.216c-.384.792-1.08 1.584-2.64 1.584-1.968 0-3.108-1.392-3.108-3.468s1.08-3.528 3.036-3.528c1.752 0 2.736 1.368 2.856 2.94v.096c0 .432-.228.66-.6.66zm-4.188-.876h3.516c.132 0 .18-.048.18-.156v-.06c-.144-.852-.66-1.728-1.764-1.728-1.152 0-1.776.768-1.932 1.944zm10.152-.252v-.516c0-.792-.432-1.14-1.38-1.14-.876 0-1.308.336-1.512.888-.084.228-.264.312-.468.312a.704.704 0 01-.276-.048c-.228-.072-.396-.24-.396-.456 0-.048.012-.096.024-.144.12-.372.432-.72.708-.936.42-.324.96-.528 1.932-.528 1.608 0 2.4.636 2.4 2.052v3.276c0 .42.06.828.132 1.056a.426.426 0 01.024.12c0 .192-.18.36-.48.384h-.108c-.24 0-.456-.072-.504-.288a3.413 3.413 0 01-.072-.6c-.456.516-1.092.984-2.28.984-1.32 0-2.124-.744-2.124-1.98 0-1.128.672-1.848 1.812-2.16.66-.18 1.284-.252 2.568-.276zm0 1.668v-.804c-1.404.036-2.064.156-2.544.396-.48.24-.732.612-.732 1.188 0 .624.48 1.044 1.2 1.044a2.26 2.26 0 001.764-.852c.228-.288.312-.516.312-.972zm2.988 2.172v-5.844c0-.312.228-.468.564-.468.3 0 .54.156.54.468v.264c0 .168-.048.372-.072.564.192-.576.804-1.32 1.836-1.356.096-.012.18-.012.264-.012.18 0 .312.024.48.06.276.036.384.204.384.432 0 .06-.012.132-.024.204-.048.252-.216.468-.468.468-.036 0-.072 0-.108-.012-.168-.036-.324-.072-.576-.072-.516.012-.912.276-1.212.66a2.153 2.153 0 00-.504 1.332v3.312c0 .324-.24.48-.54.48-.336 0-.564-.156-.564-.48zm10.536-4.068v4.068c0 .324-.24.48-.552.48-.324 0-.552-.156-.552-.48v-3.84c0-1.02-.408-1.596-1.308-1.596-.648 0-1.188.288-1.596.852-.3.408-.42.756-.42 1.224v3.36c0 .324-.228.48-.54.48-.336 0-.552-.156-.552-.48v-5.844c0-.312.228-.468.564-.468.312 0 .528.156.528.468v.324c0 .156-.036.276-.048.504.42-.852 1.14-1.392 2.28-1.392 1.428 0 2.196.864 2.196 2.34zm1.68 4.068v-5.844c0-.312.204-.468.54-.468.324 0 .552.156.552.468v5.844c0 .324-.228.48-.552.48-.336 0-.54-.156-.54-.48zm.552-9.024c.444 0 .804.348.804.804a.8.8 0 01-.804.816.802.802 0 01-.816-.816.8.8 0 01.816-.804zm7.776 4.956v4.068c0 .324-.24.48-.552.48-.324 0-.552-.156-.552-.48v-3.84c0-1.02-.408-1.596-1.308-1.596-.648 0-1.188.288-1.596.852-.3.408-.42.756-.42 1.224v3.36c0 .324-.228.48-.54.48-.336 0-.552-.156-.552-.48v-5.844c0-.312.228-.468.564-.468.312 0 .528.156.528.468v.324c0 .156-.036.276-.048.504.42-.852 1.14-1.392 2.28-1.392 1.428 0 2.196.864 2.196 2.34zm6.348-1.452v-.36c0-.252.168-.432.516-.432.324 0 .516.156.516.48v5.556c0 2.76-1.452 3.384-3.036 3.384-1.296 0-2.124-.432-2.58-1.02a.446.446 0 01-.096-.264c0-.156.084-.312.228-.42a.61.61 0 01.348-.12c.132 0 .252.048.348.156.444.516.972.768 1.704.768 1.5 0 2.04-.756 2.052-2.532 0-.144.024-.408.048-.576-.396.756-1.08 1.284-2.136 1.284-1.704 0-2.892-1.32-2.892-3.324 0-2.064 1.068-3.456 2.916-3.456 1.092 0 1.776.6 2.112 1.368-.012-.132-.048-.36-.048-.492zm-1.932.036c-1.224 0-1.944.996-1.944 2.544 0 1.524.816 2.448 1.932 2.448 1.224 0 1.968-1.044 1.968-2.532 0-1.428-.732-2.46-1.956-2.46z" fill="#2F6070"/></g><g><g transform="translate(201 17)"><use fill="#000" filter="url(#f)" xlink:href="#g"/><use fill="#CB4343" xlink:href="#g"/></g><path d="M215.704 61.556c2.112 0 3.06 1.104 3.492 2.16a.61.61 0 01.048.24c0 .252-.192.42-.372.48a.807.807 0 01-.288.048.524.524 0 01-.504-.312c-.36-.864-.96-1.572-2.328-1.572-1.8 0-2.988 1.452-2.988 3.816 0 2.316 1.188 3.804 2.988 3.804 1.44 0 2.124-.864 2.436-1.824a.544.544 0 01.54-.372c.072 0 .156.012.24.036.204.048.42.228.42.48a.61.61 0 01-.036.204c-.42 1.188-1.428 2.532-3.564 2.532-2.58 0-4.224-1.884-4.224-4.872 0-2.916 1.644-4.848 4.14-4.848zm10.512 5.052v4.068c0 .324-.24.48-.552.48-.324 0-.54-.156-.54-.48v-3.84c0-1.02-.42-1.584-1.32-1.584-.672 0-1.2.312-1.596.84-.3.408-.432.756-.432 1.224v3.36c0 .324-.204.48-.516.48-.336 0-.564-.156-.564-.48v-8.544c0-.312.228-.468.564-.468.312 0 .516.144.516.468v3.012c0 .156-.048.432-.072.612.396-.852 1.056-1.488 2.316-1.488 1.428 0 2.196.864 2.196 2.34zm5.736.228v-.516c0-.792-.432-1.14-1.38-1.14-.876 0-1.308.336-1.512.888-.084.228-.264.312-.468.312a.704.704 0 01-.276-.048c-.228-.072-.396-.24-.396-.456 0-.048.012-.096.024-.144.12-.372.432-.72.708-.936.42-.324.96-.528 1.932-.528 1.608 0 2.4.636 2.4 2.052v3.276c0 .42.06.828.132 1.056a.426.426 0 01.024.12c0 .192-.18.36-.48.384h-.108c-.24 0-.456-.072-.504-.288a3.413 3.413 0 01-.072-.6c-.456.516-1.092.984-2.28.984-1.32 0-2.124-.744-2.124-1.98 0-1.128.672-1.848 1.812-2.16.66-.18 1.284-.252 2.568-.276zm0 1.668V67.7c-1.404.036-2.064.156-2.544.396-.48.24-.732.612-.732 1.188 0 .624.48 1.044 1.2 1.044a2.26 2.26 0 001.764-.852c.228-.288.312-.516.312-.972zm2.808 2.172v-8.532c0-.324.216-.48.552-.48.324 0 .54.156.54.48v8.532c0 .324-.216.48-.54.48-.336 0-.552-.156-.552-.48zm2.796 0v-8.532c0-.324.216-.48.552-.48.324 0 .54.156.54.48v8.532c0 .324-.216.48-.54.48-.336 0-.552-.156-.552-.48zm7.788-2.712h-4.224c.024 1.476.756 2.4 2.052 2.4.864 0 1.344-.432 1.632-1.068.108-.216.264-.3.432-.3.084 0 .168.024.252.048.204.06.372.204.372.42a.37.37 0 01-.06.216c-.384.792-1.08 1.584-2.64 1.584-1.968 0-3.108-1.392-3.108-3.468s1.08-3.528 3.036-3.528c1.752 0 2.736 1.368 2.856 2.94v.096c0 .432-.228.66-.6.66zm-4.188-.876h3.516c.132 0 .18-.048.18-.156v-.06c-.144-.852-.66-1.728-1.764-1.728-1.152 0-1.776.768-1.932 1.944zm11.616-.48v4.068c0 .324-.24.48-.552.48-.324 0-.552-.156-.552-.48v-3.84c0-1.02-.408-1.596-1.308-1.596-.648 0-1.188.288-1.596.852-.3.408-.42.756-.42 1.224v3.36c0 .324-.228.48-.54.48-.336 0-.552-.156-.552-.48v-5.844c0-.312.228-.468.564-.468.312 0 .528.156.528.468v.324c0 .156-.036.276-.048.504.42-.852 1.14-1.392 2.28-1.392 1.428 0 2.196.864 2.196 2.34zm6.348-1.452v-.36c0-.252.168-.432.516-.432.324 0 .516.156.516.48V70.4c0 2.76-1.452 3.384-3.036 3.384-1.296 0-2.124-.432-2.58-1.02a.446.446 0 01-.096-.264c0-.156.084-.312.228-.42a.61.61 0 01.348-.12c.132 0 .252.048.348.156.444.516.972.768 1.704.768 1.5 0 2.04-.756 2.052-2.532 0-.144.024-.408.048-.576-.396.756-1.08 1.284-2.136 1.284-1.704 0-2.892-1.32-2.892-3.324 0-2.064 1.068-3.456 2.916-3.456 1.092 0 1.776.6 2.112 1.368-.012-.132-.048-.36-.048-.492zm-1.932.036c-1.224 0-1.944.996-1.944 2.544 0 1.524.816 2.448 1.932 2.448 1.224 0 1.968-1.044 1.968-2.532 0-1.428-.732-2.46-1.956-2.46zm9.66 2.772h-4.224c.024 1.476.756 2.4 2.052 2.4.864 0 1.344-.432 1.632-1.068.108-.216.264-.3.432-.3.084 0 .168.024.252.048.204.06.372.204.372.42a.37.37 0 01-.06.216c-.384.792-1.08 1.584-2.64 1.584-1.968 0-3.108-1.392-3.108-3.468s1.08-3.528 3.036-3.528c1.752 0 2.736 1.368 2.856 2.94v.096c0 .432-.228.66-.6.66zm-4.188-.876h3.516c.132 0 .18-.048.18-.156v-.06c-.144-.852-.66-1.728-1.764-1.728-1.152 0-1.776.768-1.932 1.944zm12.552-1.44v-3.492c0-.336.252-.492.6-.492.312 0 .552.156.552.492v8.508c0 .324-.24.492-.552.492-.348 0-.6-.168-.6-.492v-3.972H270.1v3.972c0 .324-.252.492-.576.492-.336 0-.576-.168-.576-.492v-8.508c0-.336.24-.492.576-.492.324 0 .576.156.576.492v3.492h5.112zm3.024 3.264v-4.068c0-.324.228-.48.552-.48.324 0 .552.156.552.48v3.84c0 1.032.42 1.608 1.308 1.608.636 0 1.152-.3 1.56-.864.288-.408.408-.78.408-1.248v-3.336c0-.324.228-.48.552-.48.312 0 .54.156.54.48v5.832c0 .324-.216.48-.528.48-.324 0-.552-.144-.552-.444v-.336c0-.132.036-.372.072-.564-.372.84-1.068 1.452-2.268 1.452-1.416 0-2.196-.888-2.196-2.352zm8.268 1.548v.252c0 .264-.18.444-.528.444-.336 0-.54-.156-.54-.48v-8.532c0-.324.204-.48.54-.48.312 0 .528.156.528.48v2.616c0 .252-.024.6-.06.876.444-.852 1.152-1.368 2.256-1.368 1.8 0 2.832 1.32 2.832 3.456 0 2.112-1.092 3.54-2.868 3.54-1.104 0-1.824-.54-2.208-1.38.024.18.048.42.048.576zm2.052-5.256c-1.32 0-2.076 1.068-2.076 2.544 0 1.488.78 2.568 2.04 2.568 1.212 0 1.908-1.032 1.908-2.58 0-1.56-.672-2.532-1.872-2.532z" fill="#FFF"/></g><g><g transform="rotate(64 36.804 196.145)"><use fill="#000" filter="url(#h)" xlink:href="#i"/><use fill="url(#j)" xlink:href="#i"/></g></g></g></svg>