<?xml version="1.0" encoding="UTF-8"?>
<svg width="334px" height="263px" viewBox="0 0 334 263" version="1.1" xmlns="http://www.w3.org/2000/svg" xmlns:xlink="http://www.w3.org/1999/xlink">
    <!-- Generator: Sketch 48.2 (47327) - http://www.bohemiancoding.com/sketch -->
    <title>effort-efficiency</title>
    <desc>Created with Sketch.</desc>
    <defs>
        <linearGradient x1="50%" y1="1.2236926%" x2="50%" y2="100%" id="linearGradient-1">
            <stop stop-color="#76C9AC" offset="0%"></stop>
            <stop stop-color="#D2EADC" offset="100%"></stop>
        </linearGradient>
        <path d="M52.73132,130.3384 C52.73132,112.630667 73.09103,98.275717 98.20605,98.275717 C123.32107,98.275717 143.68078,112.630667 143.68078,130.3384 C143.68078,148.046133 123.32107,162.401083 98.20605,162.401083 C73.09103,162.401083 52.73132,148.046133 52.73132,130.3384 Z" id="path-2"></path>
        <filter x="-7.7%" y="-7.8%" width="115.4%" height="121.8%" filterUnits="objectBoundingBox" id="filter-3">
            <feOffset dx="0" dy="2" in="SourceAlpha" result="shadowOffsetOuter1"></feOffset>
            <feGaussianBlur stdDeviation="2" in="shadowOffsetOuter1" result="shadowBlurOuter1"></feGaussianBlur>
            <feColorMatrix values="0 0 0 0 0.184313725   0 0 0 0 0.376470588   0 0 0 0 0.439215686  0 0 0 1 0" type="matrix" in="shadowBlurOuter1"></feColorMatrix>
        </filter>
        <path d="M204.0027,48.26157 C204.0027,30.553837 220.969192,16.198887 241.89833,16.198887 C262.82753,16.198887 279.79396,30.553837 279.79396,48.26157 C279.79396,65.969303 262.82753,80.324253 241.89833,80.324253 C220.969192,80.324253 204.0027,65.969303 204.0027,48.26157 Z" id="path-4"></path>
        <filter x="-9.2%" y="-7.8%" width="118.5%" height="121.8%" filterUnits="objectBoundingBox" id="filter-5">
            <feOffset dx="0" dy="2" in="SourceAlpha" result="shadowOffsetOuter1"></feOffset>
            <feGaussianBlur stdDeviation="2" in="shadowOffsetOuter1" result="shadowBlurOuter1"></feGaussianBlur>
            <feColorMatrix values="0 0 0 0 0.184313725   0 0 0 0 0.376470588   0 0 0 0 0.439215686  0 0 0 1 0" type="matrix" in="shadowBlurOuter1"></feColorMatrix>
        </filter>
        <path d="M204.0027,167.8966 C204.0027,141.67782 226.62886,120.423303 254.539626,120.423303 C267.942885,120.423303 280.797133,125.424951 290.274672,134.327905 C299.75215,143.23089 305.076552,155.305902 305.076552,167.8966 C305.076552,194.11538 282.450392,215.369897 254.539626,215.369897 C226.628859,215.369897 204.0027,194.11538 204.0027,167.8966 Z" id="path-6"></path>
        <filter x="-6.9%" y="-5.3%" width="113.9%" height="114.7%" filterUnits="objectBoundingBox" id="filter-7">
            <feOffset dx="0" dy="2" in="SourceAlpha" result="shadowOffsetOuter1"></feOffset>
            <feGaussianBlur stdDeviation="2" in="shadowOffsetOuter1" result="shadowBlurOuter1"></feGaussianBlur>
            <feColorMatrix values="0 0 0 0 0.184313725   0 0 0 0 0.376470588   0 0 0 0 0.439215686  0 0 0 1 0" type="matrix" in="shadowBlurOuter1"></feColorMatrix>
        </filter>
    </defs>
    <g id="Page-1" stroke="none" stroke-width="1" fill="none" fill-rule="evenodd">
        <g id="Shapes" transform="translate(-3.000000, -3.000000)">
            <polygon id="Background" fill="url(#linearGradient-1)" points="4.32079797e-14 0 339 0 339 270 0 270"></polygon>
            <path d="M29.23666,16.5 L29.23666,240.45009" id="y-Axis" stroke="#2F6070" stroke-linejoin="round"></path>
            <path d="M29,240 L323.5,240" id="x-Axis" stroke="#2F6070" stroke-linejoin="round"></path>
            <g id="Trad-Ellipse">
                <use fill="black" fill-opacity="1" filter="url(#filter-3)" xlink:href="#path-2"></use>
                <use fill="#F3C68D" fill-rule="evenodd" xlink:href="#path-2"></use>
            </g>
            <g id="Typical-Ellipse">
                <use fill="black" fill-opacity="1" filter="url(#filter-5)" xlink:href="#path-4"></use>
                <use fill="#E69877" fill-rule="evenodd" xlink:href="#path-4"></use>
            </g>
            <g id="CH-Ellipse">
                <use fill="black" fill-opacity="1" filter="url(#filter-7)" xlink:href="#path-6"></use>
                <use fill="#CB4343" fill-rule="evenodd" xlink:href="#path-6"></use>
            </g>
        </g>
        <g id="English-Text" transform="translate(8.000000, 18.000000)">
            <text id="Learning-Efficiency" font-family="HiraMaruProN-W4, Hiragino Maru Gothic ProN" font-size="12" font-weight="normal" fill="#2F6070">
                <tspan x="109.374" y="234">Learning Efficiency</tspan>
            </text>
            <text id="Teaching-Effort" transform="translate(6.000000, 108.500000) rotate(270.000000) translate(-6.000000, -108.500000) " font-family="HiraMaruProN-W4, Hiragino Maru Gothic ProN" font-size="12" font-weight="normal" fill="#2F6070">
                <tspan x="-39.462" y="113.5">Teaching Effort</tspan>
            </text>
            <path d="M60.416,99.792 L57.692,99.792 C57.392,99.792 57.224,99.552 57.224,99.276 C57.224,98.988 57.392,98.736 57.68,98.736 L64.292,98.736 C64.58,98.736 64.748,98.988 64.748,99.276 C64.748,99.552 64.568,99.792 64.292,99.792 L61.568,99.792 L61.568,107.664 C61.568,107.988 61.316,108.156 60.992,108.156 C60.668,108.156 60.416,107.988 60.416,107.664 L60.416,99.792 Z M64.976,107.676 L64.976,101.832 C64.976,101.52 65.204,101.364 65.54,101.364 C65.84,101.364 66.08,101.52 66.08,101.832 L66.08,102.096 C66.08,102.264 66.032,102.468 66.008,102.66 C66.2,102.084 66.812,101.34 67.844,101.304 C67.94,101.292 68.024,101.292 68.108,101.292 C68.288,101.292 68.42,101.316 68.588,101.352 C68.864,101.388 68.972,101.556 68.972,101.784 C68.972,101.844 68.96,101.916 68.948,101.988 C68.9,102.24 68.732,102.456 68.48,102.456 C68.444,102.456 68.408,102.456 68.372,102.444 C68.204,102.408 68.048,102.372 67.796,102.372 C67.28,102.384 66.884,102.648 66.584,103.032 C66.272,103.416 66.092,103.86 66.08,104.364 L66.08,107.676 C66.08,108 65.84,108.156 65.54,108.156 C65.204,108.156 64.976,108 64.976,107.676 Z M74.048,103.836 L74.048,103.32 C74.048,102.528 73.616,102.18 72.668,102.18 C71.792,102.18 71.36,102.516 71.156,103.068 C71.072,103.296 70.892,103.38 70.688,103.38 C70.592,103.38 70.496,103.368 70.412,103.332 C70.184,103.26 70.016,103.092 70.016,102.876 C70.016,102.828 70.028,102.78 70.04,102.732 C70.16,102.36 70.472,102.012 70.748,101.796 C71.168,101.472 71.708,101.268 72.68,101.268 C74.288,101.268 75.08,101.904 75.08,103.32 L75.08,106.596 C75.08,107.016 75.14,107.424 75.212,107.652 C75.224,107.688 75.236,107.736 75.236,107.772 C75.236,107.964 75.056,108.132 74.756,108.156 L74.648,108.156 C74.408,108.156 74.192,108.084 74.144,107.868 C74.108,107.724 74.084,107.508 74.072,107.268 C73.616,107.784 72.98,108.252 71.792,108.252 C70.472,108.252 69.668,107.508 69.668,106.272 C69.668,105.144 70.34,104.424 71.48,104.112 C72.14,103.932 72.764,103.86 74.048,103.836 Z M74.048,105.504 L74.048,104.7 C72.644,104.736 71.984,104.856 71.504,105.096 C71.024,105.336 70.772,105.708 70.772,106.284 C70.772,106.908 71.252,107.328 71.972,107.328 C72.728,107.328 73.352,106.956 73.736,106.476 C73.964,106.188 74.048,105.96 74.048,105.504 Z M81.584,101.76 L81.584,99.144 C81.584,98.82 81.812,98.664 82.112,98.664 C82.448,98.664 82.652,98.82 82.652,99.144 L82.652,107.676 C82.652,108 82.436,108.156 82.1,108.156 C81.752,108.156 81.584,107.964 81.584,107.712 L81.584,107.46 C81.584,107.328 81.608,107.076 81.62,106.908 C81.212,107.748 80.528,108.264 79.412,108.264 C77.66,108.264 76.556,106.884 76.556,104.724 C76.556,102.624 77.648,101.268 79.424,101.268 C80.54,101.268 81.212,101.796 81.632,102.648 C81.608,102.372 81.584,102.024 81.584,101.76 Z M79.568,102.204 C78.356,102.204 77.66,103.212 77.66,104.736 C77.66,106.308 78.356,107.328 79.568,107.328 C80.828,107.328 81.608,106.236 81.608,104.748 C81.608,103.284 80.888,102.204 79.568,102.204 Z M84.368,107.676 L84.368,101.832 C84.368,101.52 84.572,101.364 84.908,101.364 C85.232,101.364 85.46,101.52 85.46,101.832 L85.46,107.676 C85.46,108 85.232,108.156 84.908,108.156 C84.572,108.156 84.368,108 84.368,107.676 Z M84.92,98.652 C85.364,98.652 85.724,99 85.724,99.456 C85.724,99.924 85.364,100.272 84.92,100.272 C84.464,100.272 84.104,99.924 84.104,99.456 C84.104,99 84.464,98.652 84.92,98.652 Z M87.884,101.436 L87.884,99.984 C87.884,99.672 88.088,99.504 88.424,99.504 C88.736,99.504 88.964,99.672 88.964,99.984 L88.964,101.436 L90.5,101.436 C90.8,101.436 90.944,101.628 90.944,101.916 C90.944,102.192 90.788,102.384 90.5,102.384 L88.964,102.384 L88.964,106.404 C88.964,106.992 89.216,107.244 89.66,107.244 C89.96,107.244 90.164,107.16 90.368,107.04 C90.44,107.004 90.512,106.98 90.584,106.98 C90.764,106.98 90.908,107.112 90.98,107.292 C91.016,107.376 91.028,107.472 91.028,107.556 C91.028,107.724 90.956,107.892 90.776,107.988 C90.428,108.156 90.104,108.252 89.588,108.252 C88.604,108.252 87.884,107.76 87.884,106.5 L87.884,102.384 L86.948,102.384 C86.66,102.384 86.528,102.192 86.528,101.916 C86.528,101.64 86.66,101.436 86.96,101.436 L87.884,101.436 Z M92.012,107.676 L92.012,101.832 C92.012,101.52 92.216,101.364 92.552,101.364 C92.876,101.364 93.104,101.52 93.104,101.832 L93.104,107.676 C93.104,108 92.876,108.156 92.552,108.156 C92.216,108.156 92.012,108 92.012,107.676 Z M92.564,98.652 C93.008,98.652 93.368,99 93.368,99.456 C93.368,99.924 93.008,100.272 92.564,100.272 C92.108,100.272 91.748,99.924 91.748,99.456 C91.748,99 92.108,98.652 92.564,98.652 Z M97.616,101.268 C99.536,101.268 100.664,102.66 100.664,104.748 C100.664,106.836 99.512,108.276 97.64,108.276 C95.66,108.276 94.508,106.884 94.508,104.748 C94.508,102.672 95.672,101.268 97.616,101.268 Z M97.652,102.192 C96.356,102.192 95.612,103.188 95.612,104.784 C95.612,106.308 96.332,107.352 97.568,107.352 C98.876,107.352 99.56,106.332 99.56,104.736 C99.56,103.224 98.876,102.192 97.652,102.192 Z M107.576,103.608 L107.576,107.676 C107.576,108 107.336,108.156 107.024,108.156 C106.7,108.156 106.472,108 106.472,107.676 L106.472,103.836 C106.472,102.816 106.064,102.24 105.164,102.24 C104.516,102.24 103.976,102.528 103.568,103.092 C103.268,103.5 103.148,103.848 103.148,104.316 L103.148,107.676 C103.148,108 102.92,108.156 102.608,108.156 C102.272,108.156 102.056,108 102.056,107.676 L102.056,101.832 C102.056,101.52 102.284,101.364 102.62,101.364 C102.932,101.364 103.148,101.52 103.148,101.832 L103.148,102.156 C103.148,102.312 103.112,102.432 103.1,102.66 C103.52,101.808 104.24,101.268 105.38,101.268 C106.808,101.268 107.576,102.132 107.576,103.608 Z M113.312,103.836 L113.312,103.32 C113.312,102.528 112.88,102.18 111.932,102.18 C111.056,102.18 110.624,102.516 110.42,103.068 C110.336,103.296 110.156,103.38 109.952,103.38 C109.856,103.38 109.76,103.368 109.676,103.332 C109.448,103.26 109.28,103.092 109.28,102.876 C109.28,102.828 109.292,102.78 109.304,102.732 C109.424,102.36 109.736,102.012 110.012,101.796 C110.432,101.472 110.972,101.268 111.944,101.268 C113.552,101.268 114.344,101.904 114.344,103.32 L114.344,106.596 C114.344,107.016 114.404,107.424 114.476,107.652 C114.488,107.688 114.5,107.736 114.5,107.772 C114.5,107.964 114.32,108.132 114.02,108.156 L113.912,108.156 C113.672,108.156 113.456,108.084 113.408,107.868 C113.372,107.724 113.348,107.508 113.336,107.268 C112.88,107.784 112.244,108.252 111.056,108.252 C109.736,108.252 108.932,107.508 108.932,106.272 C108.932,105.144 109.604,104.424 110.744,104.112 C111.404,103.932 112.028,103.86 113.312,103.836 Z M113.312,105.504 L113.312,104.7 C111.908,104.736 111.248,104.856 110.768,105.096 C110.288,105.336 110.036,105.708 110.036,106.284 C110.036,106.908 110.516,107.328 111.236,107.328 C111.992,107.328 112.616,106.956 113,106.476 C113.228,106.188 113.312,105.96 113.312,105.504 Z M116.12,107.676 L116.12,99.144 C116.12,98.82 116.336,98.664 116.672,98.664 C116.996,98.664 117.212,98.82 117.212,99.144 L117.212,107.676 C117.212,108 116.996,108.156 116.672,108.156 C116.336,108.156 116.12,108 116.12,107.676 Z M62.774,121.8 L62.774,114.18 C62.774,113.82 63.026,113.664 63.35,113.664 C63.686,113.664 63.926,113.82 63.926,114.168 L63.926,121.584 C63.926,121.86 64.082,122.004 64.358,122.004 L68.606,122.004 C68.918,122.004 69.098,122.232 69.098,122.532 C69.098,122.82 68.918,123.084 68.606,123.084 L63.998,123.084 C63.146,123.084 62.774,122.712 62.774,121.8 Z M75.098,119.964 L70.874,119.964 C70.898,121.44 71.63,122.364 72.926,122.364 C73.79,122.364 74.27,121.932 74.558,121.296 C74.666,121.08 74.822,120.996 74.99,120.996 C75.074,120.996 75.158,121.02 75.242,121.044 C75.446,121.104 75.614,121.248 75.614,121.464 C75.614,121.536 75.602,121.608 75.554,121.68 C75.17,122.472 74.474,123.264 72.914,123.264 C70.946,123.264 69.806,121.872 69.806,119.796 C69.806,117.72 70.886,116.268 72.842,116.268 C74.594,116.268 75.578,117.636 75.698,119.208 L75.698,119.304 C75.698,119.736 75.47,119.964 75.098,119.964 Z M70.91,119.088 L74.426,119.088 C74.558,119.088 74.606,119.04 74.606,118.932 L74.606,118.872 C74.462,118.02 73.946,117.144 72.842,117.144 C71.69,117.144 71.066,117.912 70.91,119.088 Z M76.694,119.784 C76.694,117.732 77.75,116.256 79.718,116.256 C81.302,116.256 81.95,117.132 82.25,117.888 C82.274,117.948 82.286,118.02 82.286,118.068 C82.286,118.296 82.106,118.44 81.926,118.512 C81.842,118.536 81.746,118.548 81.662,118.548 C81.482,118.548 81.326,118.476 81.242,118.272 C81.014,117.66 80.654,117.192 79.742,117.192 C78.494,117.192 77.81,118.248 77.81,119.772 C77.81,121.344 78.482,122.34 79.754,122.34 C80.69,122.34 81.062,121.884 81.29,121.236 C81.374,121.008 81.542,120.912 81.734,120.912 C81.818,120.912 81.902,120.924 81.986,120.96 C82.202,121.008 82.37,121.152 82.37,121.368 C82.37,121.44 82.358,121.5 82.322,121.584 C81.998,122.412 81.362,123.276 79.73,123.276 C77.786,123.276 76.694,121.848 76.694,119.784 Z M84.362,116.436 L84.362,114.984 C84.362,114.672 84.566,114.504 84.902,114.504 C85.214,114.504 85.442,114.672 85.442,114.984 L85.442,116.436 L86.978,116.436 C87.278,116.436 87.422,116.628 87.422,116.916 C87.422,117.192 87.266,117.384 86.978,117.384 L85.442,117.384 L85.442,121.404 C85.442,121.992 85.694,122.244 86.138,122.244 C86.438,122.244 86.642,122.16 86.846,122.04 C86.918,122.004 86.99,121.98 87.062,121.98 C87.242,121.98 87.386,122.112 87.458,122.292 C87.494,122.376 87.506,122.472 87.506,122.556 C87.506,122.724 87.434,122.892 87.254,122.988 C86.906,123.156 86.582,123.252 86.066,123.252 C85.082,123.252 84.362,122.76 84.362,121.5 L84.362,117.384 L83.426,117.384 C83.138,117.384 83.006,117.192 83.006,116.916 C83.006,116.64 83.138,116.436 83.438,116.436 L84.362,116.436 Z M88.454,120.912 L88.454,116.844 C88.454,116.52 88.682,116.364 89.006,116.364 C89.33,116.364 89.558,116.52 89.558,116.844 L89.558,120.684 C89.558,121.716 89.978,122.292 90.866,122.292 C91.502,122.292 92.018,121.992 92.426,121.428 C92.714,121.02 92.834,120.648 92.834,120.18 L92.834,116.844 C92.834,116.52 93.062,116.364 93.386,116.364 C93.698,116.364 93.926,116.52 93.926,116.844 L93.926,122.676 C93.926,123 93.71,123.156 93.398,123.156 C93.074,123.156 92.846,123.012 92.846,122.712 L92.846,122.376 C92.846,122.244 92.882,122.004 92.918,121.812 C92.546,122.652 91.85,123.264 90.65,123.264 C89.234,123.264 88.454,122.376 88.454,120.912 Z M95.822,122.676 L95.822,116.832 C95.822,116.52 96.05,116.364 96.386,116.364 C96.686,116.364 96.926,116.52 96.926,116.832 L96.926,117.096 C96.926,117.264 96.878,117.468 96.854,117.66 C97.046,117.084 97.658,116.34 98.69,116.304 C98.786,116.292 98.87,116.292 98.954,116.292 C99.134,116.292 99.266,116.316 99.434,116.352 C99.71,116.388 99.818,116.556 99.818,116.784 C99.818,116.844 99.806,116.916 99.794,116.988 C99.746,117.24 99.578,117.456 99.326,117.456 C99.29,117.456 99.254,117.456 99.218,117.444 C99.05,117.408 98.894,117.372 98.642,117.372 C98.126,117.384 97.73,117.648 97.43,118.032 C97.118,118.416 96.938,118.86 96.926,119.364 L96.926,122.676 C96.926,123 96.686,123.156 96.386,123.156 C96.05,123.156 95.822,123 95.822,122.676 Z M105.818,119.964 L101.594,119.964 C101.618,121.44 102.35,122.364 103.646,122.364 C104.51,122.364 104.99,121.932 105.278,121.296 C105.386,121.08 105.542,120.996 105.71,120.996 C105.794,120.996 105.878,121.02 105.962,121.044 C106.166,121.104 106.334,121.248 106.334,121.464 C106.334,121.536 106.322,121.608 106.274,121.68 C105.89,122.472 105.194,123.264 103.634,123.264 C101.666,123.264 100.526,121.872 100.526,119.796 C100.526,117.72 101.606,116.268 103.562,116.268 C105.314,116.268 106.298,117.636 106.418,119.208 L106.418,119.304 C106.418,119.736 106.19,119.964 105.818,119.964 Z M101.63,119.088 L105.146,119.088 C105.278,119.088 105.326,119.04 105.326,118.932 L105.326,118.872 C105.182,118.02 104.666,117.144 103.562,117.144 C102.41,117.144 101.786,117.912 101.63,119.088 Z M110.306,120.168 L109.622,120.036 C108.146,119.748 107.534,119.232 107.534,118.092 C107.534,117 108.47,116.256 110.018,116.256 C111.35,116.256 112.202,116.82 112.502,117.696 C112.514,117.744 112.526,117.792 112.526,117.84 C112.526,118.068 112.322,118.224 112.106,118.284 C112.046,118.296 111.974,118.308 111.914,118.308 C111.698,118.308 111.482,118.212 111.422,117.984 C111.266,117.444 110.738,117.168 110.054,117.168 C109.082,117.168 108.626,117.564 108.626,118.068 C108.626,118.62 108.854,118.86 109.862,119.076 L110.606,119.232 C112.166,119.556 112.79,120.012 112.79,121.272 C112.79,122.424 111.806,123.276 110.126,123.276 C108.59,123.276 107.69,122.664 107.378,121.596 C107.366,121.536 107.354,121.488 107.354,121.44 C107.354,121.2 107.558,121.032 107.786,120.984 C107.846,120.972 107.906,120.96 107.954,120.96 C108.182,120.96 108.398,121.056 108.47,121.284 C108.686,121.98 109.178,122.328 110.126,122.328 C111.086,122.328 111.71,121.908 111.71,121.296 C111.71,120.708 111.398,120.384 110.306,120.168 Z" id="Traditional-Lectures-Copy" fill="#2F6070"></path>
            <path d="M213.822,6.792 L211.098,6.792 C210.798,6.792 210.63,6.552 210.63,6.276 C210.63,5.988 210.798,5.736 211.086,5.736 L217.698,5.736 C217.986,5.736 218.154,5.988 218.154,6.276 C218.154,6.552 217.974,6.792 217.698,6.792 L214.974,6.792 L214.974,14.664 C214.974,14.988 214.722,15.156 214.398,15.156 C214.074,15.156 213.822,14.988 213.822,14.664 L213.822,6.792 Z M222.126,12.672 L223.638,8.688 C223.722,8.46 223.902,8.376 224.106,8.376 C224.178,8.376 224.25,8.388 224.322,8.4 C224.55,8.46 224.718,8.628 224.718,8.844 C224.718,8.904 224.706,8.976 224.682,9.048 L221.85,16.068 C221.43,17.1 220.938,17.784 219.762,17.784 C219.462,17.784 219.174,17.736 218.898,17.628 C218.658,17.544 218.562,17.376 218.562,17.196 C218.562,17.1 218.586,17.016 218.622,16.92 C218.706,16.716 218.862,16.584 219.066,16.584 C219.138,16.584 219.21,16.596 219.294,16.632 C219.462,16.704 219.678,16.788 219.894,16.788 C220.41,16.788 220.662,16.332 220.878,15.78 L221.214,14.94 L218.79,9.06 C218.766,9 218.754,8.928 218.754,8.868 C218.754,8.652 218.934,8.472 219.15,8.4 C219.234,8.376 219.318,8.364 219.402,8.364 C219.594,8.364 219.774,8.448 219.858,8.664 L221.37,12.648 C221.514,13.032 221.622,13.476 221.73,13.848 C221.826,13.476 221.994,13.02 222.126,12.672 Z M226.974,14.568 L226.974,17.208 C226.974,17.508 226.77,17.676 226.446,17.676 C226.11,17.676 225.906,17.508 225.906,17.208 L225.906,8.832 C225.906,8.52 226.11,8.364 226.446,8.364 C226.746,8.364 226.974,8.508 226.974,8.808 L226.974,9.024 C226.974,9.192 226.962,9.48 226.926,9.684 C227.346,8.832 228.006,8.268 229.17,8.268 C230.97,8.268 231.99,9.576 231.99,11.712 C231.99,13.848 230.91,15.264 229.122,15.264 C228.006,15.264 227.322,14.712 226.914,13.872 C226.962,14.1 226.974,14.352 226.974,14.568 Z M229.014,9.204 C227.694,9.204 226.95,10.272 226.95,11.748 C226.95,13.236 227.73,14.316 228.99,14.316 C230.202,14.316 230.886,13.284 230.886,11.736 C230.886,10.176 230.226,9.204 229.014,9.204 Z M233.394,14.676 L233.394,8.832 C233.394,8.52 233.598,8.364 233.934,8.364 C234.258,8.364 234.486,8.52 234.486,8.832 L234.486,14.676 C234.486,15 234.258,15.156 233.934,15.156 C233.598,15.156 233.394,15 233.394,14.676 Z M233.946,5.652 C234.39,5.652 234.75,6 234.75,6.456 C234.75,6.924 234.39,7.272 233.946,7.272 C233.49,7.272 233.13,6.924 233.13,6.456 C233.13,6 233.49,5.652 233.946,5.652 Z M235.89,11.784 C235.89,9.732 236.946,8.256 238.914,8.256 C240.498,8.256 241.146,9.132 241.446,9.888 C241.47,9.948 241.482,10.02 241.482,10.068 C241.482,10.296 241.302,10.44 241.122,10.512 C241.038,10.536 240.942,10.548 240.858,10.548 C240.678,10.548 240.522,10.476 240.438,10.272 C240.21,9.66 239.85,9.192 238.938,9.192 C237.69,9.192 237.006,10.248 237.006,11.772 C237.006,13.344 237.678,14.34 238.95,14.34 C239.886,14.34 240.258,13.884 240.486,13.236 C240.57,13.008 240.738,12.912 240.93,12.912 C241.014,12.912 241.098,12.924 241.182,12.96 C241.398,13.008 241.566,13.152 241.566,13.368 C241.566,13.44 241.554,13.5 241.518,13.584 C241.194,14.412 240.558,15.276 238.926,15.276 C236.982,15.276 235.89,13.848 235.89,11.784 Z M246.906,10.836 L246.906,10.32 C246.906,9.528 246.474,9.18 245.526,9.18 C244.65,9.18 244.218,9.516 244.014,10.068 C243.93,10.296 243.75,10.38 243.546,10.38 C243.45,10.38 243.354,10.368 243.27,10.332 C243.042,10.26 242.874,10.092 242.874,9.876 C242.874,9.828 242.886,9.78 242.898,9.732 C243.018,9.36 243.33,9.012 243.606,8.796 C244.026,8.472 244.566,8.268 245.538,8.268 C247.146,8.268 247.938,8.904 247.938,10.32 L247.938,13.596 C247.938,14.016 247.998,14.424 248.07,14.652 C248.082,14.688 248.094,14.736 248.094,14.772 C248.094,14.964 247.914,15.132 247.614,15.156 L247.506,15.156 C247.266,15.156 247.05,15.084 247.002,14.868 C246.966,14.724 246.942,14.508 246.93,14.268 C246.474,14.784 245.838,15.252 244.65,15.252 C243.33,15.252 242.526,14.508 242.526,13.272 C242.526,12.144 243.198,11.424 244.338,11.112 C244.998,10.932 245.622,10.86 246.906,10.836 Z M246.906,12.504 L246.906,11.7 C245.502,11.736 244.842,11.856 244.362,12.096 C243.882,12.336 243.63,12.708 243.63,13.284 C243.63,13.908 244.11,14.328 244.83,14.328 C245.586,14.328 246.21,13.956 246.594,13.476 C246.822,13.188 246.906,12.96 246.906,12.504 Z M249.714,14.676 L249.714,6.144 C249.714,5.82 249.93,5.664 250.266,5.664 C250.59,5.664 250.806,5.82 250.806,6.144 L250.806,14.676 C250.806,15 250.59,15.156 250.266,15.156 C249.93,15.156 249.714,15 249.714,14.676 Z M215.01,27.348 L214.086,29.82 C214.002,30.06 213.822,30.156 213.618,30.156 C213.534,30.156 213.462,30.144 213.378,30.12 C213.138,30.06 212.958,29.856 212.958,29.628 C212.958,29.556 212.97,29.496 212.994,29.424 L216.258,21.228 C216.414,20.82 216.714,20.664 217.086,20.664 C217.47,20.664 217.782,20.82 217.938,21.228 L221.202,29.448 C221.238,29.52 221.25,29.58 221.25,29.652 C221.25,29.892 221.058,30.072 220.818,30.132 C220.746,30.156 220.674,30.168 220.602,30.168 C220.386,30.168 220.194,30.06 220.11,29.832 L219.162,27.348 L215.01,27.348 Z M215.37,26.34 L218.802,26.34 L217.47,22.848 C217.338,22.5 217.206,22.116 217.098,21.708 C216.99,22.116 216.87,22.5 216.726,22.86 L215.37,26.34 Z M222.21,26.784 C222.21,24.732 223.266,23.256 225.234,23.256 C226.818,23.256 227.466,24.132 227.766,24.888 C227.79,24.948 227.802,25.02 227.802,25.068 C227.802,25.296 227.622,25.44 227.442,25.512 C227.358,25.536 227.262,25.548 227.178,25.548 C226.998,25.548 226.842,25.476 226.758,25.272 C226.53,24.66 226.17,24.192 225.258,24.192 C224.01,24.192 223.326,25.248 223.326,26.772 C223.326,28.344 223.998,29.34 225.27,29.34 C226.206,29.34 226.578,28.884 226.806,28.236 C226.89,28.008 227.058,27.912 227.25,27.912 C227.334,27.912 227.418,27.924 227.502,27.96 C227.718,28.008 227.886,28.152 227.886,28.368 C227.886,28.44 227.874,28.5 227.838,28.584 C227.514,29.412 226.878,30.276 225.246,30.276 C223.302,30.276 222.21,28.848 222.21,26.784 Z M229.878,23.436 L229.878,21.984 C229.878,21.672 230.082,21.504 230.418,21.504 C230.73,21.504 230.958,21.672 230.958,21.984 L230.958,23.436 L232.494,23.436 C232.794,23.436 232.938,23.628 232.938,23.916 C232.938,24.192 232.782,24.384 232.494,24.384 L230.958,24.384 L230.958,28.404 C230.958,28.992 231.21,29.244 231.654,29.244 C231.954,29.244 232.158,29.16 232.362,29.04 C232.434,29.004 232.506,28.98 232.578,28.98 C232.758,28.98 232.902,29.112 232.974,29.292 C233.01,29.376 233.022,29.472 233.022,29.556 C233.022,29.724 232.95,29.892 232.77,29.988 C232.422,30.156 232.098,30.252 231.582,30.252 C230.598,30.252 229.878,29.76 229.878,28.5 L229.878,24.384 L228.942,24.384 C228.654,24.384 228.522,24.192 228.522,23.916 C228.522,23.64 228.654,23.436 228.954,23.436 L229.878,23.436 Z M234.006,29.676 L234.006,23.832 C234.006,23.52 234.21,23.364 234.546,23.364 C234.87,23.364 235.098,23.52 235.098,23.832 L235.098,29.676 C235.098,30 234.87,30.156 234.546,30.156 C234.21,30.156 234.006,30 234.006,29.676 Z M234.558,20.652 C235.002,20.652 235.362,21 235.362,21.456 C235.362,21.924 235.002,22.272 234.558,22.272 C234.102,22.272 233.742,21.924 233.742,21.456 C233.742,21 234.102,20.652 234.558,20.652 Z M239.766,27.42 L241.134,23.712 C241.23,23.472 241.398,23.364 241.614,23.364 C241.686,23.364 241.758,23.376 241.842,23.4 C242.082,23.472 242.238,23.628 242.238,23.856 C242.238,23.916 242.226,23.988 242.19,24.06 L239.982,29.676 C239.838,30.048 239.574,30.156 239.262,30.156 C238.938,30.156 238.686,30.036 238.542,29.664 L236.334,24.06 C236.31,23.988 236.298,23.928 236.298,23.868 C236.298,23.64 236.454,23.46 236.682,23.4 C236.766,23.376 236.85,23.364 236.922,23.364 C237.138,23.364 237.318,23.46 237.402,23.7 L238.794,27.48 C238.938,27.888 239.178,28.692 239.274,29.124 C239.382,28.68 239.61,27.828 239.766,27.42 Z M248.394,26.964 L244.17,26.964 C244.194,28.44 244.926,29.364 246.222,29.364 C247.086,29.364 247.566,28.932 247.854,28.296 C247.962,28.08 248.118,27.996 248.286,27.996 C248.37,27.996 248.454,28.02 248.538,28.044 C248.742,28.104 248.91,28.248 248.91,28.464 C248.91,28.536 248.898,28.608 248.85,28.68 C248.466,29.472 247.77,30.264 246.21,30.264 C244.242,30.264 243.102,28.872 243.102,26.796 C243.102,24.72 244.182,23.268 246.138,23.268 C247.89,23.268 248.874,24.636 248.994,26.208 L248.994,26.304 C248.994,26.736 248.766,26.964 248.394,26.964 Z M244.206,26.088 L247.722,26.088 C247.854,26.088 247.902,26.04 247.902,25.932 L247.902,25.872 C247.758,25.02 247.242,24.144 246.138,24.144 C244.986,24.144 244.362,24.912 244.206,26.088 Z M206.502,43.8 L206.502,36.18 C206.502,35.82 206.754,35.664 207.078,35.664 C207.414,35.664 207.654,35.82 207.654,36.168 L207.654,43.584 C207.654,43.86 207.81,44.004 208.086,44.004 L212.334,44.004 C212.646,44.004 212.826,44.232 212.826,44.532 C212.826,44.82 212.646,45.084 212.334,45.084 L207.726,45.084 C206.874,45.084 206.502,44.712 206.502,43.8 Z M218.826,41.964 L214.602,41.964 C214.626,43.44 215.358,44.364 216.654,44.364 C217.518,44.364 217.998,43.932 218.286,43.296 C218.394,43.08 218.55,42.996 218.718,42.996 C218.802,42.996 218.886,43.02 218.97,43.044 C219.174,43.104 219.342,43.248 219.342,43.464 C219.342,43.536 219.33,43.608 219.282,43.68 C218.898,44.472 218.202,45.264 216.642,45.264 C214.674,45.264 213.534,43.872 213.534,41.796 C213.534,39.72 214.614,38.268 216.57,38.268 C218.322,38.268 219.306,39.636 219.426,41.208 L219.426,41.304 C219.426,41.736 219.198,41.964 218.826,41.964 Z M214.638,41.088 L218.154,41.088 C218.286,41.088 218.334,41.04 218.334,40.932 L218.334,40.872 C218.19,40.02 217.674,39.144 216.57,39.144 C215.418,39.144 214.794,39.912 214.638,41.088 Z M224.79,40.836 L224.79,40.32 C224.79,39.528 224.358,39.18 223.41,39.18 C222.534,39.18 222.102,39.516 221.898,40.068 C221.814,40.296 221.634,40.38 221.43,40.38 C221.334,40.38 221.238,40.368 221.154,40.332 C220.926,40.26 220.758,40.092 220.758,39.876 C220.758,39.828 220.77,39.78 220.782,39.732 C220.902,39.36 221.214,39.012 221.49,38.796 C221.91,38.472 222.45,38.268 223.422,38.268 C225.03,38.268 225.822,38.904 225.822,40.32 L225.822,43.596 C225.822,44.016 225.882,44.424 225.954,44.652 C225.966,44.688 225.978,44.736 225.978,44.772 C225.978,44.964 225.798,45.132 225.498,45.156 L225.39,45.156 C225.15,45.156 224.934,45.084 224.886,44.868 C224.85,44.724 224.826,44.508 224.814,44.268 C224.358,44.784 223.722,45.252 222.534,45.252 C221.214,45.252 220.41,44.508 220.41,43.272 C220.41,42.144 221.082,41.424 222.222,41.112 C222.882,40.932 223.506,40.86 224.79,40.836 Z M224.79,42.504 L224.79,41.7 C223.386,41.736 222.726,41.856 222.246,42.096 C221.766,42.336 221.514,42.708 221.514,43.284 C221.514,43.908 221.994,44.328 222.714,44.328 C223.47,44.328 224.094,43.956 224.478,43.476 C224.706,43.188 224.79,42.96 224.79,42.504 Z M227.778,44.676 L227.778,38.832 C227.778,38.52 228.006,38.364 228.342,38.364 C228.642,38.364 228.882,38.52 228.882,38.832 L228.882,39.096 C228.882,39.264 228.834,39.468 228.81,39.66 C229.002,39.084 229.614,38.34 230.646,38.304 C230.742,38.292 230.826,38.292 230.91,38.292 C231.09,38.292 231.222,38.316 231.39,38.352 C231.666,38.388 231.774,38.556 231.774,38.784 C231.774,38.844 231.762,38.916 231.75,38.988 C231.702,39.24 231.534,39.456 231.282,39.456 C231.246,39.456 231.21,39.456 231.174,39.444 C231.006,39.408 230.85,39.372 230.598,39.372 C230.082,39.384 229.686,39.648 229.386,40.032 C229.074,40.416 228.894,40.86 228.882,41.364 L228.882,44.676 C228.882,45 228.642,45.156 228.342,45.156 C228.006,45.156 227.778,45 227.778,44.676 Z M238.314,40.608 L238.314,44.676 C238.314,45 238.074,45.156 237.762,45.156 C237.438,45.156 237.21,45 237.21,44.676 L237.21,40.836 C237.21,39.816 236.802,39.24 235.902,39.24 C235.254,39.24 234.714,39.528 234.306,40.092 C234.006,40.5 233.886,40.848 233.886,41.316 L233.886,44.676 C233.886,45 233.658,45.156 233.346,45.156 C233.01,45.156 232.794,45 232.794,44.676 L232.794,38.832 C232.794,38.52 233.022,38.364 233.358,38.364 C233.67,38.364 233.886,38.52 233.886,38.832 L233.886,39.156 C233.886,39.312 233.85,39.432 233.838,39.66 C234.258,38.808 234.978,38.268 236.118,38.268 C237.546,38.268 238.314,39.132 238.314,40.608 Z M239.994,44.676 L239.994,38.832 C239.994,38.52 240.198,38.364 240.534,38.364 C240.858,38.364 241.086,38.52 241.086,38.832 L241.086,44.676 C241.086,45 240.858,45.156 240.534,45.156 C240.198,45.156 239.994,45 239.994,44.676 Z M240.546,35.652 C240.99,35.652 241.35,36 241.35,36.456 C241.35,36.924 240.99,37.272 240.546,37.272 C240.09,37.272 239.73,36.924 239.73,36.456 C239.73,36 240.09,35.652 240.546,35.652 Z M248.322,40.608 L248.322,44.676 C248.322,45 248.082,45.156 247.77,45.156 C247.446,45.156 247.218,45 247.218,44.676 L247.218,40.836 C247.218,39.816 246.81,39.24 245.91,39.24 C245.262,39.24 244.722,39.528 244.314,40.092 C244.014,40.5 243.894,40.848 243.894,41.316 L243.894,44.676 C243.894,45 243.666,45.156 243.354,45.156 C243.018,45.156 242.802,45 242.802,44.676 L242.802,38.832 C242.802,38.52 243.03,38.364 243.366,38.364 C243.678,38.364 243.894,38.52 243.894,38.832 L243.894,39.156 C243.894,39.312 243.858,39.432 243.846,39.66 C244.266,38.808 244.986,38.268 246.126,38.268 C247.554,38.268 248.322,39.132 248.322,40.608 Z M254.67,39.156 L254.67,38.796 C254.67,38.544 254.838,38.364 255.186,38.364 C255.51,38.364 255.702,38.52 255.702,38.844 L255.702,44.4 C255.702,47.16 254.25,47.784 252.666,47.784 C251.37,47.784 250.542,47.352 250.086,46.764 C250.026,46.68 249.99,46.596 249.99,46.5 C249.99,46.344 250.074,46.188 250.218,46.08 C250.314,46.008 250.446,45.96 250.566,45.96 C250.698,45.96 250.818,46.008 250.914,46.116 C251.358,46.632 251.886,46.884 252.618,46.884 C254.118,46.884 254.658,46.128 254.67,44.352 C254.67,44.208 254.694,43.944 254.718,43.776 C254.322,44.532 253.638,45.06 252.582,45.06 C250.878,45.06 249.69,43.74 249.69,41.736 C249.69,39.672 250.758,38.28 252.606,38.28 C253.698,38.28 254.382,38.88 254.718,39.648 C254.706,39.516 254.67,39.288 254.67,39.156 Z M252.738,39.192 C251.514,39.192 250.794,40.188 250.794,41.736 C250.794,43.26 251.61,44.184 252.726,44.184 C253.95,44.184 254.694,43.14 254.694,41.652 C254.694,40.224 253.962,39.192 252.738,39.192 Z" id="Typical-Active-Learn-Copy" fill="#2F6070"></path>
            <text id="ChallengeHub" font-family="HiraMaruProN-W4, Hiragino Maru Gothic ProN" font-size="12" font-weight="normal" fill="#FFFFFF">
                <tspan x="202.928" y="153">ChallengeHub</tspan>
            </text>
        </g>
    </g>
</svg>