<?xml version="1.0" encoding="UTF-8"?>
<svg width="447px" height="328px" viewBox="0 0 447 328" version="1.1" xmlns="http://www.w3.org/2000/svg" xmlns:xlink="http://www.w3.org/1999/xlink">
    <!-- Generator: Sketch 48.2 (47327) - http://www.bohemiancoding.com/sketch -->
    <title>effort-efficiency</title>
    <desc>Created with Sketch.</desc>
    <defs>
        <polygon id="path-1" points="0 0 1152 0 1152 864 0 864"></polygon>
    </defs>
    <g id="Page-1" stroke="none" stroke-width="1" fill="none" fill-rule="evenodd">
        <g id="effort-efficiency" transform="translate(-346.000000, -226.000000)">
            <mask id="mask-2" fill="white">
                <use xlink:href="#path-1"></use>
            </mask>
            <g id="Shape"></g>
            <g id="Group" mask="url(#mask-2)">
                <polygon id="Shape" fill-opacity="0" fill="#000000" points="0 0 1152 0 1152 864 0 864"></polygon>
                <polygon id="Shape" fill="#F3C68D" points="346.44516 225.96616 792.42572 225.96616 792.42572 552.8169 346.44516 552.8169"></polygon>
                <polygon id="Shape" stroke="#000000" stroke-linejoin="round" points="346.44516 225.96616 792.42572 225.96616 792.42572 552.8169 346.44516 552.8169"></polygon>
                <path d="M400.23666,288.3452 L400.23666,510.45009" id="Shape" fill-opacity="0" fill="#000000"></path>
                <path d="M400.23666,288.3452 L400.23666,510.45009" id="Shape" stroke="#000000" stroke-linejoin="round"></path>
                <path d="M401.2147,510.46115 L694.623,510.46115" id="Shape" fill-opacity="0" fill="#000000"></path>
                <path d="M401.2147,510.46115 L694.623,510.46115" id="Shape" stroke="#000000" stroke-linejoin="round"></path>
                <polygon id="Shape" fill-opacity="0" fill="#000000" points="364.03787 477.62323 364.03787 323.05359 400.23666 323.05359 400.23666 477.62323"></polygon>
                <path d="M390.95786,463.77948 L379.17661,463.77948 L379.17661,468.18573 L377.598485,468.18573 L377.598485,457.607605 L379.17661,457.607605 L379.17661,462.013855 L390.95786,462.013855 L390.95786,463.77948 Z M387.848485,451.43689 L388.05161,449.74939 C389.041193,450.020223 389.812027,450.515015 390.36411,451.233765 C390.905777,451.952515 391.17661,452.87439 391.17661,453.99939 C391.17661,455.416057 390.744318,456.541057 389.879735,457.37439 C389.004735,458.197307 387.780777,458.608765 386.20786,458.608765 C384.572443,458.608765 383.306818,458.192098 382.410985,457.358765 C381.515152,456.515015 381.067235,455.426473 381.067235,454.09314 C381.067235,452.801473 381.509943,451.74939 382.39536,450.93689 C383.27036,450.113973 384.504735,449.702515 386.098485,449.702515 C386.202652,449.702515 386.348485,449.702515 386.535985,449.702515 L386.535985,456.921265 C387.598485,456.858765 388.416193,456.556682 388.98911,456.015015 C389.55161,455.473348 389.83286,454.801473 389.83286,453.99939 C389.83286,453.395223 389.67661,452.879598 389.36411,452.452515 C389.041193,452.025432 388.535985,451.68689 387.848485,451.43689 Z M385.192235,456.827515 L385.192235,451.421265 C384.379735,451.494182 383.77036,451.702515 383.36411,452.046265 C382.728693,452.567098 382.410985,453.244182 382.410985,454.077515 C382.410985,454.827515 382.666193,455.462932 383.17661,455.983765 C383.67661,456.494182 384.348485,456.775432 385.192235,456.827515 Z M389.77036,441.373658 C390.280777,441.988241 390.64536,442.576783 390.86411,443.139283 C391.072443,443.691366 391.17661,444.290325 391.17661,444.936158 C391.17661,445.998658 390.916193,446.816366 390.39536,447.389283 C389.874527,447.9622 389.213068,448.248658 388.410985,448.248658 C387.931818,448.248658 387.499527,448.139283 387.11411,447.920533 C386.718277,447.701783 386.405777,447.420533 386.17661,447.076783 C385.937027,446.722616 385.754735,446.326783 385.629735,445.889283 C385.546402,445.576783 385.463068,445.092408 385.379735,444.436158 C385.223485,443.113241 385.035985,442.139283 384.817235,441.514283 C384.588068,441.503866 384.447443,441.498658 384.39536,441.498658 C383.728693,441.498658 383.254735,441.654908 382.973485,441.967408 C382.608902,442.384075 382.42661,443.009075 382.42661,443.842408 C382.42661,444.613241 382.562027,445.18095 382.83286,445.545533 C383.103693,445.910116 383.577652,446.18095 384.254735,446.358033 L384.035985,447.967408 C383.358902,447.821575 382.812027,447.581991 382.39536,447.248658 C381.968277,446.915325 381.640152,446.43095 381.410985,445.795533 C381.181818,445.160116 381.067235,444.43095 381.067235,443.608033 C381.067235,442.7747 381.166193,442.102825 381.36411,441.592408 C381.55161,441.071575 381.796402,440.691366 382.098485,440.451783 C382.390152,440.201783 382.759943,440.029908 383.20786,439.936158 C383.48911,439.884075 383.994318,439.858033 384.723485,439.858033 L386.910985,439.858033 C388.431818,439.858033 389.39536,439.821575 389.80161,439.748658 C390.197443,439.675741 390.58286,439.540325 390.95786,439.342408 L390.95786,441.045533 C390.61411,441.222616 390.218277,441.331991 389.77036,441.373658 Z M386.098485,441.514283 C386.348485,442.108033 386.556818,442.998658 386.723485,444.186158 C386.817235,444.863241 386.92661,445.342408 387.05161,445.623658 C387.17661,445.904908 387.353693,446.123658 387.58286,446.279908 C387.812027,446.425741 388.072443,446.498658 388.36411,446.498658 C388.80161,446.498658 389.166193,446.331991 389.45786,445.998658 C389.749527,445.665325 389.89536,445.18095 389.89536,444.545533 C389.89536,443.920533 389.759943,443.363241 389.48911,442.873658 C389.20786,442.373658 388.827652,442.009075 388.348485,441.779908 C387.973485,441.602825 387.42661,441.514283 386.70786,441.514283 L386.098485,441.514283 Z M387.410985,430.997956 L387.629735,429.388581 C388.733902,429.565664 389.603693,430.018789 390.23911,430.747956 C390.86411,431.466706 391.17661,432.357331 391.17661,433.419831 C391.17661,434.742748 390.744318,435.805248 389.879735,436.607331 C389.015152,437.409414 387.775568,437.810456 386.160985,437.810456 C385.108902,437.810456 384.192235,437.638581 383.410985,437.294831 C382.629735,436.951081 382.046402,436.425039 381.660985,435.716706 C381.265152,435.008373 381.067235,434.237539 381.067235,433.404206 C381.067235,432.352123 381.33286,431.492748 381.86411,430.826081 C382.39536,430.159414 383.150568,429.732331 384.129735,429.544831 L384.36411,431.138581 C383.718277,431.294831 383.233902,431.565664 382.910985,431.951081 C382.577652,432.336498 382.410985,432.800039 382.410985,433.341706 C382.410985,434.164623 382.70786,434.836498 383.30161,435.357331 C383.89536,435.878164 384.83286,436.138581 386.11411,436.138581 C387.416193,436.138581 388.36411,435.888581 388.95786,435.388581 C389.541193,434.888581 389.83286,434.237539 389.83286,433.435456 C389.83286,432.789623 389.634943,432.253164 389.23911,431.826081 C388.843277,431.388581 388.233902,431.112539 387.410985,430.997956 Z M390.95786,427.982331 L377.598485,427.982331 L377.598485,426.341706 L382.39536,426.341706 C381.509943,425.581289 381.067235,424.617748 381.067235,423.451081 C381.067235,422.732331 381.20786,422.112539 381.48911,421.591706 C381.77036,421.060456 382.160985,420.680248 382.660985,420.451081 C383.160985,420.221914 383.884943,420.107331 384.83286,420.107331 L390.95786,420.107331 L390.95786,421.747956 L384.83286,421.747956 C384.009943,421.747956 383.410985,421.925039 383.035985,422.279206 C382.660985,422.633373 382.473485,423.138581 382.473485,423.794831 C382.473485,424.273998 382.603693,424.727123 382.86411,425.154206 C383.11411,425.581289 383.452652,425.888581 383.879735,426.076081 C384.306818,426.253164 384.900568,426.341706 385.660985,426.341706 L390.95786,426.341706 L390.95786,427.982331 Z M379.48911,417.606599 L377.598485,417.606599 L377.598485,415.965974 L379.48911,415.965974 L379.48911,417.606599 Z M390.95786,417.606599 L381.285985,417.606599 L381.285985,415.965974 L390.95786,415.965974 L390.95786,417.606599 Z M390.95786,413.461793 L381.285985,413.461793 L381.285985,411.993043 L382.660985,411.993043 C381.598485,411.28471 381.067235,410.258668 381.067235,408.914918 C381.067235,408.331585 381.171402,407.795126 381.379735,407.305543 C381.588068,406.81596 381.86411,406.451376 382.20786,406.211793 C382.541193,405.961793 382.942235,405.789918 383.410985,405.696168 C383.713068,405.633668 384.244318,405.602418 385.004735,405.602418 L390.95786,405.602418 L390.95786,407.243043 L385.067235,407.243043 C384.400568,407.243043 383.905777,407.310751 383.58286,407.446168 C383.249527,407.571168 382.983902,407.795126 382.785985,408.118043 C382.588068,408.44096 382.48911,408.821168 382.48911,409.258668 C382.48911,409.956585 382.713068,410.560751 383.160985,411.071168 C383.598485,411.571168 384.437027,411.821168 385.67661,411.821168 L390.95786,411.821168 L390.95786,413.461793 Z M391.754735,403.398561 L391.98911,401.804811 C392.48911,401.731894 392.848485,401.544394 393.067235,401.242311 C393.369318,400.836061 393.52036,400.278769 393.52036,399.570436 C393.52036,398.810019 393.369318,398.226686 393.067235,397.820436 C392.765152,397.403769 392.343277,397.122519 391.80161,396.976686 C391.468277,396.893353 390.765152,396.856894 389.692235,396.867311 C390.535985,397.575644 390.95786,398.466269 390.95786,399.539186 C390.95786,400.872519 390.478693,401.903769 389.52036,402.632936 C388.562027,403.362103 387.410985,403.726686 386.067235,403.726686 C385.140152,403.726686 384.285985,403.560019 383.504735,403.226686 C382.723485,402.882936 382.124527,402.398561 381.70786,401.773561 C381.280777,401.138144 381.067235,400.388144 381.067235,399.523561 C381.067235,398.388144 381.525568,397.450644 382.442235,396.711061 L381.285985,396.711061 L381.285985,395.195436 L389.64536,395.195436 C391.155777,395.195436 392.223485,395.351686 392.848485,395.664186 C393.473485,395.966269 393.968277,396.450644 394.33286,397.117311 C394.697443,397.773561 394.879735,398.591269 394.879735,399.570436 C394.879735,400.716269 394.619318,401.648561 394.098485,402.367311 C393.588068,403.075644 392.806818,403.419394 391.754735,403.398561 Z M385.942235,402.039186 C387.213068,402.039186 388.140152,401.789186 388.723485,401.289186 C389.306818,400.778769 389.598485,400.143353 389.598485,399.382936 C389.598485,398.632936 389.312027,398.002728 388.73911,397.492311 C388.155777,396.981894 387.244318,396.726686 386.004735,396.726686 C384.817235,396.726686 383.92661,396.992311 383.33286,397.523561 C382.728693,398.044394 382.42661,398.674603 382.42661,399.414186 C382.42661,400.143353 382.723485,400.763144 383.317235,401.273561 C383.900568,401.783978 384.775568,402.039186 385.942235,402.039186 Z M387.848485,380.90204 L388.05161,379.21454 C389.041193,379.485373 389.812027,379.980165 390.36411,380.698915 C390.905777,381.417665 391.17661,382.33954 391.17661,383.46454 C391.17661,384.881207 390.744318,386.006207 389.879735,386.83954 C389.004735,387.662457 387.780777,388.073915 386.20786,388.073915 C384.572443,388.073915 383.306818,387.657248 382.410985,386.823915 C381.515152,385.980165 381.067235,384.891623 381.067235,383.55829 C381.067235,382.266623 381.509943,381.21454 382.39536,380.40204 C383.27036,379.579123 384.504735,379.167665 386.098485,379.167665 C386.202652,379.167665 386.348485,379.167665 386.535985,379.167665 L386.535985,386.386415 C387.598485,386.323915 388.416193,386.021832 388.98911,385.480165 C389.55161,384.938498 389.83286,384.266623 389.83286,383.46454 C389.83286,382.860373 389.67661,382.344748 389.36411,381.917665 C389.041193,381.490582 388.535985,381.15204 387.848485,380.90204 Z M385.192235,386.292665 L385.192235,380.886415 C384.379735,380.959332 383.77036,381.167665 383.36411,381.511415 C382.728693,382.032248 382.410985,382.709332 382.410985,383.542665 C382.410985,384.292665 382.666193,384.928082 383.17661,385.448915 C383.67661,385.959332 384.348485,386.240582 385.192235,386.292665 Z M390.95786,376.760713 L382.55161,376.760713 L382.55161,378.213838 L381.285985,378.213838 L381.285985,376.760713 L380.254735,376.760713 C379.608902,376.760713 379.124527,376.703421 378.80161,376.588838 C378.374527,376.432588 378.030777,376.156546 377.77036,375.760713 C377.509943,375.36488 377.379735,374.807588 377.379735,374.088838 C377.379735,373.630505 377.431818,373.120088 377.535985,372.557588 L378.973485,372.807588 C378.910985,373.140921 378.879735,373.45863 378.879735,373.760713 C378.879735,374.260713 378.98911,374.61488 379.20786,374.823213 C379.416193,375.031546 379.812027,375.135713 380.39536,375.135713 L381.285985,375.135713 L381.285985,373.245088 L382.55161,373.245088 L382.55161,375.135713 L390.95786,375.135713 L390.95786,376.760713 Z M390.95786,371.914644 L382.55161,371.914644 L382.55161,373.367769 L381.285985,373.367769 L381.285985,371.914644 L380.254735,371.914644 C379.608902,371.914644 379.124527,371.857352 378.80161,371.742769 C378.374527,371.586519 378.030777,371.310477 377.77036,370.914644 C377.509943,370.51881 377.379735,369.961519 377.379735,369.242769 C377.379735,368.784435 377.431818,368.274019 377.535985,367.711519 L378.973485,367.961519 C378.910985,368.294852 378.879735,368.61256 378.879735,368.914644 C378.879735,369.414644 378.98911,369.76881 379.20786,369.977144 C379.416193,370.185477 379.812027,370.289644 380.39536,370.289644 L381.285985,370.289644 L381.285985,368.399019 L382.55161,368.399019 L382.55161,370.289644 L390.95786,370.289644 L390.95786,371.914644 Z M386.11411,367.731325 C384.322443,367.731325 382.999527,367.236533 382.14536,366.24695 C381.42661,365.413616 381.067235,364.397991 381.067235,363.200075 C381.067235,361.866741 381.504735,360.7782 382.379735,359.93445 C383.244318,359.0907 384.447443,358.668825 385.98911,358.668825 C387.228693,358.668825 388.20786,358.856325 388.92661,359.231325 C389.634943,359.606325 390.187027,360.1532 390.58286,360.87195 C390.978693,361.580283 391.17661,362.356325 391.17661,363.200075 C391.17661,364.554241 390.744318,365.647991 389.879735,366.481325 C389.004735,367.314658 387.749527,367.731325 386.11411,367.731325 Z M386.11411,366.043825 C387.353693,366.043825 388.285985,365.7782 388.910985,365.24695 C389.525568,364.705283 389.83286,364.022991 389.83286,363.200075 C389.83286,362.387575 389.525568,361.710491 388.910985,361.168825 C388.285985,360.627158 387.338068,360.356325 386.067235,360.356325 C384.869318,360.356325 383.963068,360.627158 383.348485,361.168825 C382.733902,361.710491 382.42661,362.387575 382.42661,363.200075 C382.42661,364.022991 382.733902,364.705283 383.348485,365.24695 C383.952652,365.7782 384.874527,366.043825 386.11411,366.043825 Z M390.95786,356.761873 L381.285985,356.761873 L381.285985,355.293123 L382.754735,355.293123 C382.067235,354.918123 381.61411,354.574373 381.39536,354.261873 C381.17661,353.938956 381.067235,353.584789 381.067235,353.199373 C381.067235,352.647289 381.244318,352.084789 381.598485,351.511873 L383.11411,352.074373 C382.874527,352.480623 382.754735,352.881664 382.754735,353.277498 C382.754735,353.642081 382.86411,353.964998 383.08286,354.246248 C383.30161,354.527498 383.598485,354.730623 383.973485,354.855623 C384.556818,355.043123 385.197443,355.136873 385.89536,355.136873 L390.95786,355.136873 L390.95786,356.761873 Z M389.48911,346.955446 L390.942235,346.721071 C391.035985,347.179404 391.08286,347.590862 391.08286,347.955446 C391.08286,348.549196 390.98911,349.012737 390.80161,349.346071 C390.61411,349.668987 390.369318,349.898154 390.067235,350.033571 C389.754735,350.168987 389.108902,350.236696 388.129735,350.236696 L382.55161,350.236696 L382.55161,351.439821 L381.285985,351.439821 L381.285985,350.236696 L378.89536,350.236696 L377.910985,348.611696 L381.285985,348.611696 L381.285985,346.955446 L382.55161,346.955446 L382.55161,348.611696 L388.223485,348.611696 C388.681818,348.611696 388.978693,348.585654 389.11411,348.533571 C389.249527,348.471071 389.358902,348.377321 389.442235,348.252321 C389.515152,348.116904 389.55161,347.924196 389.55161,347.674196 C389.55161,347.497112 389.530777,347.257529 389.48911,346.955446 Z" id="Shape" fill="#000000" fill-rule="nonzero"></path>
                <polygon id="Shape" fill-opacity="0" fill="#000000" points="454.5084 510.44968 641.3282 510.515903 641.3282 552.890933 454.5084 552.82471"></polygon>
                <path d="M471.66483,537.37573 L471.66483,524.016355 L473.44608,524.017026 L473.44608,535.798276 L480.00858,535.800596 L480.00858,537.378721 L471.66483,537.37573 Z M488.540562,534.272336 L490.228062,534.476072 C489.957229,535.465574 489.462437,536.236244 488.743687,536.788083 C488.024937,537.329465 487.103062,537.599973 485.978062,537.599607 C484.561395,537.599078 483.436395,537.166379 482.603062,536.301511 C481.780145,535.426226 481.368687,534.202126 481.368687,532.629209 C481.368687,530.993792 481.785354,529.72831 482.618687,528.832761 C483.462437,527.937213 484.550979,527.489683 485.884312,527.490171 C487.175979,527.490618 488.228062,527.933693 489.040562,528.819394 C489.863479,529.69472 490.274937,530.929258 490.274937,532.523008 C490.274937,532.627174 490.274937,532.773008 490.274937,532.960508 L483.056187,532.957944 C483.118687,534.020444 483.42077,534.838254 483.962437,535.411375 C484.504104,535.974078 485.175979,536.255572 485.978062,536.255857 C486.582229,536.25606 487.097854,536.099993 487.524937,535.787656 C487.95202,535.464862 488.290562,534.959755 488.540562,534.272336 Z M483.149937,531.614194 L488.556187,531.616148 C488.48327,530.803607 488.274937,530.19415 487.931187,529.787778 C487.410354,529.152158 486.73327,528.834206 485.899937,528.833921 C485.149937,528.833677 484.51452,529.088661 483.993687,529.598875 C483.48327,530.098712 483.20202,530.770485 483.149937,531.614194 Z M498.603764,536.197812 C497.989181,536.708026 497.400639,537.072405 496.838139,537.290952 C496.286056,537.499082 495.687097,537.603025 495.041264,537.602781 C493.978764,537.602414 493.161056,537.341713 492.588139,536.820676 C492.015222,536.299639 491.728764,535.638079 491.728764,534.835996 C491.728764,534.356829 491.838139,533.924578 492.056889,533.539243 C492.275639,533.143491 492.556889,532.831093 492.900639,532.602048 C493.254806,532.362587 493.650639,532.180438 494.088139,532.0556 C494.400639,531.972348 494.885014,531.889178 495.541264,531.806089 C496.864181,531.650327 497.838139,531.463173 498.463139,531.244626 C498.473556,531.01546 498.478764,530.874835 498.478764,530.822751 C498.478764,530.156085 498.322514,529.682065 498.010014,529.400693 C497.593347,529.035988 496.968347,528.853493 496.135014,528.853208 C495.364181,528.852923 494.796472,528.988136 494.431889,529.258848 C494.067306,529.529559 493.796472,530.003415 493.619389,530.680417 L492.010014,530.461118 C492.155847,529.784075 492.395431,529.237282 492.728764,528.820737 C493.062097,528.393776 493.546472,528.065814 494.181889,527.83685 C494.817306,527.607928 495.546472,527.493609 496.369389,527.493894 C497.202722,527.494179 497.874597,527.593381 498.385014,527.791501 C498.905847,527.979164 499.286056,528.224078 499.525639,528.526242 C499.775639,528.817991 499.947514,529.187843 500.041264,529.635801 C500.093347,529.917091 500.119389,530.42232 500.119389,531.151487 L500.119389,533.338987 C500.119389,534.85982 500.155847,535.823362 500.228764,536.229612 C500.301681,536.625486 500.437097,537.010963 500.635014,537.386045 L498.931889,537.385434 C498.754806,537.041603 498.645431,536.645729 498.603764,536.197812 L498.603764,536.197812 Z M498.463139,532.525876 C497.869389,532.775673 496.978764,532.983701 495.791264,533.149961 C495.114181,533.243467 494.635014,533.352659 494.353764,533.477537 C494.072514,533.602455 493.853764,533.779457 493.697514,534.008542 C493.551681,534.237668 493.478764,534.498065 493.478764,534.789731 C493.478764,535.227231 493.645431,535.591876 493.978764,535.883665 C494.312097,536.175453 494.796472,536.321449 495.431889,536.321653 C496.056889,536.321897 496.614181,536.186684 497.103764,535.916013 C497.603764,535.634967 497.968347,535.254901 498.197514,534.775815 C498.374597,534.400856 498.463139,533.854001 498.463139,533.135251 L498.463139,532.525876 Z M502.651371,537.386716 L502.651371,527.714841 L504.120121,527.715391 L504.120121,529.184141 C504.495121,528.496763 504.838871,528.04376 505.151371,527.825132 C505.474288,527.606504 505.828455,527.497251 506.213871,527.497373 C506.765955,527.497577 507.328455,527.674863 507.901371,528.029233 L507.338871,529.544675 C506.932621,529.304929 506.53158,529.184995 506.135746,529.184873 C505.771163,529.18471 505.448246,529.293963 505.166996,529.512632 C504.885746,529.731301 504.682621,530.028094 504.557621,530.403013 C504.370121,530.986305 504.276371,531.62691 504.276371,532.324827 L504.276371,537.387327 L502.651371,537.386716 Z M508.879673,537.388975 L508.879673,527.7171 L510.348423,527.717588 L510.348423,529.092588 C511.056757,528.030332 512.082788,527.499448 513.426518,527.499937 C514.009851,527.50014 514.54631,527.60449 515.035893,527.812986 C515.525476,528.021523 515.89006,528.297707 516.129643,528.641538 C516.379643,528.974953 516.551518,529.376056 516.645268,529.844846 C516.707768,530.14693 516.739018,530.67818 516.739018,531.438596 L516.739018,537.391721 L515.098393,537.391172 L515.098393,531.500547 C515.098393,530.83388 515.030685,530.339068 514.895268,530.016111 C514.770268,529.682696 514.54631,529.41699 514.223393,529.218992 C513.900476,529.020953 513.520268,528.921852 513.082768,528.92169 C512.384851,528.921445 511.780695,529.14518 511.270298,529.592893 C510.770298,530.03023 510.520298,530.868691 510.520298,532.108274 L510.520298,537.389524 L508.879673,537.388975 Z M519.255375,525.923887 L519.255375,524.033262 L520.896,524.033811 L520.896,525.924436 L519.255375,525.923887 Z M519.255375,537.392637 L519.255375,527.720762 L520.896,527.721311 L520.896,537.393186 L519.255375,537.392637 Z M523.400212,537.394102 L523.400212,527.722227 L524.868962,527.722715 L524.868962,529.097715 C525.577295,528.0355 526.603337,527.504616 527.947087,527.505063 C528.53042,527.505267 529.066878,527.609637 529.556462,527.818174 C530.046045,528.02667 530.410628,528.302834 530.650212,528.646665 C530.900212,528.98008 531.072087,529.381182 531.165837,529.849973 C531.228337,530.152097 531.259587,530.683367 531.259587,531.443784 L531.259587,537.396909 L529.618962,537.396299 L529.618962,531.505674 C529.618962,530.839007 529.551253,530.344195 529.415837,530.021238 C529.290837,529.687864 529.066878,529.422157 528.743962,529.224119 C528.421045,529.02608 528.040837,528.926979 527.603337,528.926816 C526.90542,528.926572 526.301253,529.150327 525.790837,529.598081 C525.290837,530.035378 525.040837,530.873817 525.040837,532.113401 L525.040837,537.394651 L523.400212,537.394101 Z M533.463444,538.194517 L535.057194,538.429502 C535.13011,538.929502 535.31761,539.288938 535.619694,539.50781 C536.025944,539.810015 536.583235,539.961261 537.291569,539.961545 C538.051985,539.96179 538.635319,539.810951 539.041569,539.509031 C539.458235,539.207069 539.739485,538.785296 539.885319,538.243711 C539.968652,537.910378 540.00511,537.207253 539.994694,536.134336 C539.28636,536.977842 538.395735,537.399412 537.322819,537.399045 C535.989485,537.398557 534.958235,536.919024 534.229069,535.960447 C533.499902,535.001829 533.135319,533.850645 533.135319,532.506895 C533.135319,531.579811 533.301985,530.725706 533.635319,529.944578 C533.979069,529.16345 534.463444,528.564674 535.088444,528.148252 C535.72386,527.721372 536.47386,527.508095 537.338444,527.50842 C538.47386,527.508827 539.41136,527.967486 540.150944,528.884397 L540.150944,527.728147 L541.666569,527.728696 L541.666569,536.088071 C541.666569,537.598488 541.510319,538.666135 541.197819,539.291013 C540.895735,539.915932 540.41136,540.410561 539.744694,540.7749 C539.088444,541.139239 538.270735,541.321246 537.291569,541.320921 C536.145735,541.320514 535.213444,541.059751 534.494694,540.538633 C533.78636,540.027972 533.44261,539.2466 533.463444,538.194517 L533.463444,538.194517 Z M534.822819,532.382505 C534.822819,533.653338 535.072819,534.580523 535.572819,535.16406 C536.083235,535.747556 536.718652,536.039447 537.479069,536.039731 C538.229069,536.039976 538.859277,535.753741 539.369694,535.181028 C539.88011,534.597857 540.135319,533.68648 540.135319,532.446897 C540.135319,531.259397 539.869694,530.36867 539.338444,529.774717 C538.81761,529.170387 538.187402,528.86808 537.447819,528.867795 C536.718652,528.867551 536.09886,529.164223 535.588444,529.75781 C535.078027,530.34094 534.822819,531.215838 534.822819,532.382505 Z M555.959965,534.296262 L557.647465,534.499998 C557.376631,535.489459 556.88184,536.260109 556.16309,536.811948 C555.44434,537.353371 554.522465,537.623879 553.397465,537.623472 C551.980798,537.622983 550.855798,537.190285 550.022465,536.325376 C549.199548,535.450091 548.78809,534.22599 548.78809,532.653074 C548.78809,531.017657 549.204756,529.752195 550.03809,528.856687 C550.88184,527.961139 551.970381,527.513608 553.303715,527.514097 C554.595381,527.514544 555.647465,527.957619 556.459965,528.84332 C557.282881,529.718605 557.69434,530.953123 557.69434,532.546873 C557.69434,532.651039 557.69434,532.796873 557.69434,532.984373 L550.47559,532.981809 C550.53809,534.04435 550.840173,534.86216 551.38184,535.435239 C551.923506,535.997943 552.595381,536.279437 553.397465,536.279722 C554.001631,536.279925 554.517256,536.123858 554.94434,535.811521 C555.371423,535.488767 555.709965,534.983681 555.959965,534.296262 Z M550.56934,531.63812 L555.97559,531.640012 C555.902673,530.827472 555.69434,530.218015 555.35059,529.811643 C554.829756,529.176064 554.152673,528.858132 553.31934,528.857847 C552.56934,528.857562 551.933923,529.112546 551.41309,529.6228 C550.902673,530.122597 550.621423,530.79437 550.56934,531.63812 Z M560.101261,537.407102 L560.101261,529.000852 L558.648136,529.000364 L558.648136,527.734739 L560.101261,527.735227 L560.101261,526.703977 C560.101261,526.058144 560.158552,525.573789 560.273136,525.250913 C560.429386,524.823871 560.705427,524.480222 561.101261,524.219968 C561.497094,523.959674 562.054386,523.829669 562.773136,523.829954 C563.231469,523.830076 563.741886,523.882322 564.304386,523.986692 L564.054386,525.424131 C563.721052,525.361509 563.403344,525.330137 563.101261,525.330015 C562.601261,525.329852 562.247094,525.439105 562.038761,525.657774 C561.830427,525.866026 561.726261,526.261818 561.726261,526.845152 L561.726261,527.735777 L563.616886,527.736448 L563.616886,529.002073 L561.726261,529.001402 L561.726261,537.407652 L560.101261,537.407102 Z M564.94733,537.408811 L564.94733,529.002561 L563.494205,529.002073 L563.494205,527.736448 L564.94733,527.736936 L564.94733,526.705686 C564.94733,526.059853 565.004622,525.575498 565.119205,525.252622 C565.275455,524.82558 565.551497,524.481931 565.94733,524.221677 C566.343163,523.961383 566.900455,523.831378 567.619205,523.831663 C568.077538,523.831825 568.587955,523.884092 569.150455,523.988462 L568.900455,525.42584 C568.567122,525.363218 568.249413,525.331866 567.94733,525.331785 C567.44733,525.331581 567.093163,525.440814 566.88483,525.659483 C566.676497,525.867775 566.57233,526.263588 566.57233,526.846922 L566.57233,527.737547 L568.462955,527.738218 L568.462955,529.003843 L566.57233,529.003172 L566.57233,537.409422 L564.94733,537.408811 Z M569.740055,525.94177 L569.740055,524.051145 L571.38068,524.051694 L571.38068,525.942319 L569.740055,525.94177 Z M569.740055,537.41052 L569.740055,527.738645 L571.38068,527.739194 L571.38068,537.41113 L569.740055,537.41052 Z M580.19733,533.867368 L581.806705,534.086668 C581.629621,535.190753 581.176496,536.060382 580.44733,536.695554 C579.72858,537.32031 578.837955,537.632505 577.775455,537.632139 C576.452538,537.631651 575.390038,537.198972 574.587955,536.334104 C573.785871,535.469236 573.38483,534.22951 573.38483,532.614927 C573.38483,531.562844 573.556705,530.646238 573.900455,529.86511 C574.244205,529.083982 574.770246,528.500832 575.47858,528.115659 C576.186913,527.72007 576.957746,527.522438 577.79108,527.522764 C578.843163,527.52313 579.702538,527.78906 580.369205,528.320554 C581.035871,528.852008 581.462955,529.607358 581.650455,530.586606 L580.056705,530.820432 C579.900455,530.174558 579.629621,529.690081 579.244205,529.367002 C578.858788,529.033546 578.395246,528.866717 577.85358,528.866514 C577.030663,528.866229 576.358788,529.16286 575.837955,529.756406 C575.317121,530.349993 575.056705,531.287412 575.056705,532.568662 C575.056705,533.870745 575.306705,534.818743 575.806705,535.412656 C576.306705,535.996193 576.957746,536.288104 577.75983,536.288389 C578.405663,536.288592 578.942121,536.090858 579.369205,535.695188 C579.806705,535.299517 580.082746,534.690244 580.19733,533.867368 L580.19733,533.867368 Z M583.212955,525.946531 L583.212955,524.055906 L584.85358,524.056516 L584.85358,525.947141 L583.212955,525.946531 Z M583.212955,537.415281 L583.212955,527.743406 L584.85358,527.744016 L584.85358,537.415891 L583.212955,537.415281 Z M593.982791,534.309751 L595.670291,534.513486 C595.399457,535.502948 594.904666,536.273598 594.185916,536.825437 C593.467166,537.36686 592.545291,537.637367 591.420291,537.636961 C590.003624,537.636472 588.878624,537.203774 588.045291,536.338865 C587.222374,535.46358 586.810916,534.239479 586.810916,532.666563 C586.810916,531.031146 587.227582,529.765663 588.060916,528.870115 C588.904666,527.974607 589.993207,527.527077 591.326541,527.527525 C592.618207,527.528013 593.670291,527.971108 594.482791,528.856809 C595.305707,529.732094 595.717166,530.966611 595.717166,532.560361 C595.717166,532.664528 595.717166,532.810361 595.717166,532.997861 L588.498416,532.995298 C588.560916,534.057798 588.862999,534.875608 589.404666,535.448728 C589.946332,536.011432 590.618207,536.292926 591.420291,536.293211 C592.024457,536.293414 592.540082,536.137347 592.967166,535.82501 C593.394249,535.502256 593.732791,534.99717 593.982791,534.309751 Z M588.592166,531.651548 L593.998416,531.653501 C593.925499,530.84096 593.717166,530.231504 593.373416,529.825132 C592.852582,529.189553 592.175499,528.8716 591.342166,528.871275 C590.592166,528.87103 589.956749,529.126015 589.435916,529.636228 C588.925499,530.136065 588.644249,530.807839 588.592166,531.651548 Z M597.733523,537.420469 L597.733523,527.748594 L599.202273,527.749082 L599.202273,529.124082 C599.910606,528.061826 600.936648,527.530943 602.280398,527.531431 C602.863731,527.531634 603.400189,527.635984 603.889773,527.84448 C604.379356,528.053017 604.743939,528.329201 604.983523,528.673032 C605.233523,529.006447 605.405398,529.40755 605.499148,529.876341 C605.561648,530.178424 605.592898,530.709674 605.592898,531.470091 L605.592898,537.423216 L603.952273,537.422666 L603.952273,531.532041 C603.952273,530.865375 603.884564,530.370542 603.749148,530.047544 C603.624148,529.71417 603.400189,529.448484 603.077273,529.250486 C602.754356,529.052447 602.374148,528.953347 601.936648,528.953184 C601.238731,528.95294 600.634564,529.176674 600.124148,529.624387 C599.624148,530.061725 599.374148,530.900185 599.374148,532.139768 L599.374148,537.421018 L597.733523,537.420469 Z M614.421694,533.879453 L616.031069,534.098814 C615.853985,535.202899 615.40086,536.072528 614.671694,536.7077 C613.952944,537.332456 613.062319,537.644631 611.999819,537.644224 C610.676902,537.643776 609.614402,537.211118 608.812319,536.34625 C608.010235,535.481382 607.609194,534.241656 607.609194,532.627073 C607.609194,531.57499 607.781069,530.658384 608.124819,529.877256 C608.468569,529.096128 608.99461,528.512978 609.702944,528.127805 C610.411277,527.732216 611.18211,527.534564 612.015444,527.534849 C613.067527,527.535256 613.926902,527.801186 614.593569,528.332639 C615.260235,528.864133 615.687319,529.619505 615.874819,530.598753 L614.281069,530.832578 C614.124819,530.186664 613.853985,529.702187 613.468569,529.379148 C613.083152,529.045693 612.61961,528.878863 612.077944,528.87866 C611.255027,528.878375 610.583152,529.175006 610.062319,529.768552 C609.541485,530.36214 609.281069,531.299558 609.281069,532.580808 C609.281069,533.882892 609.531069,534.83089 610.031069,535.424802 C610.531069,536.008298 611.18211,536.300189 611.984194,536.300474 C612.630027,536.300718 613.166485,536.103005 613.593569,535.707334 C614.031069,535.311623 614.30711,534.702329 614.421694,533.879453 L614.421694,533.879453 Z M617.359194,541.146116 L617.171694,539.614805 C617.536277,539.708718 617.848777,539.755715 618.109194,539.755796 C618.473777,539.755918 618.765444,539.69352 618.984194,539.568601 C619.202944,539.454099 619.385235,539.287494 619.531069,539.068784 C619.635235,538.902158 619.801902,538.49597 620.031069,537.850218 C620.062319,537.756468 620.109194,537.621071 620.171694,537.444029 L616.499819,527.755186 L618.265444,527.755857 L620.281069,533.350278 C620.541485,534.06915 620.77586,534.819252 620.984194,535.600584 C621.171694,534.850624 621.395652,534.11631 621.656069,533.397642 L623.734194,527.757749 L625.374819,527.758359 L621.687319,537.585202 C621.291485,538.657956 620.984194,539.392209 620.765444,539.787961 C620.473777,540.329546 620.140444,540.725258 619.765444,540.975095 C619.390444,541.224973 618.942527,541.34983 618.421694,541.349668 C618.098777,541.349546 617.74461,541.281695 617.359194,541.146115 L617.359194,541.146116 Z" id="Shape" fill="#000000" fill-rule="nonzero"></path>
                <path d="M422.73132,400.3384 C422.73132,382.630667 443.09103,368.275717 468.20605,368.275717 C493.32107,368.275717 513.68078,382.630667 513.68078,400.3384 C513.68078,418.046133 493.32107,432.401083 468.20605,432.401083 C443.09103,432.401083 422.73132,418.046133 422.73132,400.3384 Z" id="Shape" fill="#D2EADC"></path>
                <path d="M422.73132,400.3384 C422.73132,382.630667 443.09103,368.275717 468.20605,368.275717 C493.32107,368.275717 513.68078,382.630667 513.68078,400.3384 C513.68078,418.046133 493.32107,432.401083 468.20605,432.401083 C443.09103,432.401083 422.73132,418.046133 422.73132,400.3384 Z" id="Shape" stroke="#000000" stroke-linejoin="round"></path>
                <path d="M447.8162,391.0784 L447.8162,384.344025 L445.300575,384.344025 L445.300575,383.4534 L451.34745,383.4534 L451.34745,384.344025 L448.8162,384.344025 L448.8162,391.0784 L447.8162,391.0784 Z M451.851509,391.0784 L451.851509,385.54715 L452.695259,385.54715 L452.695259,386.3909 C452.914009,385.995067 453.111926,385.73465 453.289009,385.60965 C453.476509,385.48465 453.679634,385.42215 453.898384,385.42215 C454.210884,385.42215 454.528592,385.526317 454.851509,385.73465 L454.539009,386.594025 C454.309842,386.458608 454.080676,386.3909 453.851509,386.3909 C453.643176,386.3909 453.455676,386.4534 453.289009,386.5784 C453.132759,386.7034 453.018176,386.875275 452.945259,387.094025 C452.841092,387.427358 452.789009,387.791942 452.789009,388.187775 L452.789009,391.0784 L451.851509,391.0784 Z M459.025123,390.3909 C458.670957,390.692983 458.332415,390.906525 458.009498,391.031525 C457.696998,391.146108 457.358457,391.2034 456.993873,391.2034 C456.37929,391.2034 455.91054,391.057567 455.587623,390.7659 C455.264707,390.463817 455.103248,390.083608 455.103248,389.625275 C455.103248,389.354442 455.16054,389.10965 455.275123,388.8909 C455.400123,388.661733 455.561582,388.479442 455.759498,388.344025 C455.967832,388.208608 456.196998,388.104442 456.446998,388.031525 C456.624082,387.989858 456.900123,387.942983 457.275123,387.8909 C458.025123,387.807567 458.582415,387.7034 458.946998,387.5784 C458.946998,387.442983 458.946998,387.35965 458.946998,387.3284 C458.946998,386.942983 458.858457,386.67215 458.681373,386.5159 C458.44179,386.307567 458.087623,386.2034 457.618873,386.2034 C457.181373,386.2034 456.853248,386.281525 456.634498,386.437775 C456.426165,386.594025 456.275123,386.864858 456.181373,387.250275 L455.259498,387.125275 C455.342832,386.739858 455.478248,386.427358 455.665748,386.187775 C455.863665,385.937775 456.139707,385.750275 456.493873,385.625275 C456.858457,385.489858 457.275123,385.42215 457.743873,385.42215 C458.22304,385.42215 458.608457,385.479442 458.900123,385.594025 C459.19179,385.708608 459.405332,385.849233 459.540748,386.0159 C459.686582,386.182567 459.78554,386.396108 459.837623,386.656525 C459.868873,386.812775 459.884498,387.099233 459.884498,387.5159 L459.884498,388.7659 C459.884498,389.630483 459.905332,390.182567 459.946998,390.42215 C459.988665,390.651317 460.06679,390.870067 460.181373,391.0784 L459.212623,391.0784 C459.108457,390.880483 459.045957,390.651317 459.025123,390.3909 Z M458.946998,388.312775 C458.603248,388.448192 458.092832,388.562775 457.415748,388.656525 C457.030332,388.708608 456.75429,388.771108 456.587623,388.844025 C456.431373,388.916942 456.311582,389.021108 456.228248,389.156525 C456.144915,389.281525 456.103248,389.427358 456.103248,389.594025 C456.103248,389.844025 456.196998,390.052358 456.384498,390.219025 C456.571998,390.385692 456.84804,390.469025 457.212623,390.469025 C457.56679,390.469025 457.884498,390.3909 458.165748,390.23465 C458.446998,390.0784 458.655332,389.85965 458.790748,389.5784 C458.894915,389.370067 458.946998,389.057567 458.946998,388.6409 L458.946998,388.312775 Z M464.920356,391.0784 L464.920356,390.375275 C464.576606,390.927358 464.060981,391.2034 463.373481,391.2034 C462.935981,391.2034 462.529731,391.083608 462.154731,390.844025 C461.790148,390.594025 461.50369,390.255483 461.295356,389.8284 C461.09744,389.3909 460.998481,388.8909 460.998481,388.3284 C460.998481,387.776317 461.092231,387.276317 461.279731,386.8284 C461.467231,386.370067 461.743273,386.021108 462.107856,385.781525 C462.47244,385.541942 462.883898,385.42215 463.342231,385.42215 C463.675565,385.42215 463.97244,385.495067 464.232856,385.6409 C464.493273,385.776317 464.701606,385.958608 464.857856,386.187775 L464.857856,383.4534 L465.795356,383.4534 L465.795356,391.0784 L464.920356,391.0784 Z M461.967231,388.3284 C461.967231,389.026317 462.113065,389.552358 462.404731,389.906525 C462.706815,390.260692 463.060981,390.437775 463.467231,390.437775 C463.873481,390.437775 464.217231,390.271108 464.498481,389.937775 C464.790148,389.594025 464.935981,389.083608 464.935981,388.406525 C464.935981,387.646108 464.790148,387.088817 464.498481,386.73465 C464.206815,386.380483 463.84744,386.2034 463.420356,386.2034 C463.014106,386.2034 462.670356,386.375275 462.389106,386.719025 C462.107856,387.052358 461.967231,387.588817 461.967231,388.3284 Z M467.268745,384.531525 L467.268745,383.4534 L468.206245,383.4534 L468.206245,384.531525 L467.268745,384.531525 Z M467.268745,391.0784 L467.268745,385.54715 L468.206245,385.54715 L468.206245,391.0784 L467.268745,391.0784 Z M471.683082,390.23465 L471.808082,391.062775 C471.547666,391.125275 471.313291,391.156525 471.104957,391.156525 C470.771624,391.156525 470.511207,391.104442 470.323707,391.000275 C470.136207,390.885692 470.000791,390.739858 469.917457,390.562775 C469.844541,390.385692 469.808082,390.0159 469.808082,389.4534 L469.808082,386.281525 L469.120582,386.281525 L469.120582,385.54715 L469.808082,385.54715 L469.808082,384.187775 L470.745582,383.625275 L470.745582,385.54715 L471.683082,385.54715 L471.683082,386.281525 L470.745582,386.281525 L470.745582,389.5159 C470.745582,389.776317 470.761207,389.948192 470.792457,390.031525 C470.823707,390.104442 470.875791,390.166942 470.948707,390.219025 C471.021624,390.260692 471.130999,390.281525 471.276832,390.281525 C471.380999,390.281525 471.516416,390.2659 471.683082,390.23465 Z M472.59687,384.531525 L472.59687,383.4534 L473.53437,383.4534 L473.53437,384.531525 L472.59687,384.531525 Z M472.59687,391.0784 L472.59687,385.54715 L473.53437,385.54715 L473.53437,391.0784 L472.59687,391.0784 Z M474.620582,388.312775 C474.620582,387.291942 474.901832,386.536733 475.464332,386.04715 C475.943499,385.630483 476.521624,385.42215 477.198707,385.42215 C477.959124,385.42215 478.578916,385.67215 479.058082,386.17215 C479.547666,386.67215 479.792457,387.35965 479.792457,388.23465 C479.792457,388.942983 479.683082,389.505483 479.464332,389.92215 C479.255999,390.3284 478.948707,390.646108 478.542457,390.875275 C478.136207,391.094025 477.688291,391.2034 477.198707,391.2034 C476.427874,391.2034 475.802874,390.958608 475.323707,390.469025 C474.854957,389.969025 474.620582,389.250275 474.620582,388.312775 Z M475.573707,388.312775 C475.573707,389.021108 475.729957,389.552358 476.042457,389.906525 C476.354957,390.260692 476.740374,390.437775 477.198707,390.437775 C477.667457,390.437775 478.052874,390.260692 478.354957,389.906525 C478.667457,389.552358 478.823707,389.010692 478.823707,388.281525 C478.823707,387.604442 478.667457,387.088817 478.354957,386.73465 C478.052874,386.380483 477.667457,386.2034 477.198707,386.2034 C476.740374,386.2034 476.354957,386.380483 476.042457,386.73465 C475.729957,387.0784 475.573707,387.604442 475.573707,388.312775 Z M480.890846,391.0784 L480.890846,385.54715 L481.734596,385.54715 L481.734596,386.344025 C482.140846,385.729442 482.724179,385.42215 483.484596,385.42215 C483.817929,385.42215 484.125221,385.48465 484.406471,385.60965 C484.687721,385.724233 484.896054,385.880483 485.031471,386.0784 C485.177304,386.276317 485.276263,386.505483 485.328346,386.7659 C485.359596,386.942983 485.375221,387.250275 485.375221,387.687775 L485.375221,391.0784 L484.437721,391.0784 L484.437721,387.719025 C484.437721,387.333608 484.401263,387.04715 484.328346,386.85965 C484.255429,386.67215 484.125221,386.521108 483.937721,386.406525 C483.760638,386.291942 483.547096,386.23465 483.297096,386.23465 C482.901263,386.23465 482.557513,386.364858 482.265846,386.625275 C481.974179,386.875275 481.828346,387.354442 481.828346,388.062775 L481.828346,391.0784 L480.890846,391.0784 Z" id="Shape" fill="#000000" fill-rule="nonzero"></path>
                <path d="M449.36307,403.3909 C449.008903,403.692983 448.670362,403.906525 448.347445,404.031525 C448.034945,404.146108 447.696403,404.2034 447.33182,404.2034 C446.717237,404.2034 446.248487,404.057567 445.92557,403.7659 C445.602653,403.463817 445.441195,403.083608 445.441195,402.625275 C445.441195,402.354442 445.498487,402.10965 445.61307,401.8909 C445.73807,401.661733 445.899528,401.479442 446.097445,401.344025 C446.305778,401.208608 446.534945,401.104442 446.784945,401.031525 C446.962028,400.989858 447.23807,400.942983 447.61307,400.8909 C448.36307,400.807567 448.920362,400.7034 449.284945,400.5784 C449.284945,400.442983 449.284945,400.35965 449.284945,400.3284 C449.284945,399.942983 449.196403,399.67215 449.01932,399.5159 C448.779737,399.307567 448.42557,399.2034 447.95682,399.2034 C447.51932,399.2034 447.191195,399.281525 446.972445,399.437775 C446.764112,399.594025 446.61307,399.864858 446.51932,400.250275 L445.597445,400.125275 C445.680778,399.739858 445.816195,399.427358 446.003695,399.187775 C446.201612,398.937775 446.477653,398.750275 446.83182,398.625275 C447.196403,398.489858 447.61307,398.42215 448.08182,398.42215 C448.560987,398.42215 448.946403,398.479442 449.23807,398.594025 C449.529737,398.708608 449.743278,398.849233 449.878695,399.0159 C450.024528,399.182567 450.123487,399.396108 450.17557,399.656525 C450.20682,399.812775 450.222445,400.099233 450.222445,400.5159 L450.222445,401.7659 C450.222445,402.630483 450.243278,403.182567 450.284945,403.42215 C450.326612,403.651317 450.404737,403.870067 450.51932,404.0784 L449.55057,404.0784 C449.446403,403.880483 449.383903,403.651317 449.36307,403.3909 Z M449.284945,401.312775 C448.941195,401.448192 448.430778,401.562775 447.753695,401.656525 C447.368278,401.708608 447.092237,401.771108 446.92557,401.844025 C446.76932,401.916942 446.649528,402.021108 446.566195,402.156525 C446.482862,402.281525 446.441195,402.427358 446.441195,402.594025 C446.441195,402.844025 446.534945,403.052358 446.722445,403.219025 C446.909945,403.385692 447.185987,403.469025 447.55057,403.469025 C447.904737,403.469025 448.222445,403.3909 448.503695,403.23465 C448.784945,403.0784 448.993278,402.85965 449.128695,402.5784 C449.232862,402.370067 449.284945,402.057567 449.284945,401.6409 L449.284945,401.312775 Z M451.664553,404.0784 L451.664553,396.4534 L452.602053,396.4534 L452.602053,404.0784 L451.664553,404.0784 Z" id="Shape" fill="#000000" fill-rule="nonzero"></path>
                <path d="M445.73807,417.0784 L445.73807,409.4534 L446.67557,409.4534 L446.67557,417.0784 L445.73807,417.0784 Z M451.902407,415.29715 L452.871157,415.42215 C452.714907,415.98465 452.428449,416.42215 452.011782,416.73465 C451.605532,417.04715 451.07949,417.2034 450.433657,417.2034 C449.631574,417.2034 448.990949,416.9534 448.511782,416.4534 C448.043032,415.9534 447.808657,415.255483 447.808657,414.35965 C447.808657,413.432567 448.04824,412.713817 448.527407,412.2034 C449.006574,411.682567 449.626365,411.42215 450.386782,411.42215 C451.126365,411.42215 451.730532,411.677358 452.199282,412.187775 C452.668032,412.687775 452.902407,413.396108 452.902407,414.312775 C452.902407,414.364858 452.902407,414.442983 452.902407,414.54715 L448.777407,414.54715 C448.808657,415.161733 448.980532,415.630483 449.293032,415.9534 C449.605532,416.276317 449.990949,416.437775 450.449282,416.437775 C450.793032,416.437775 451.084699,416.349233 451.324282,416.17215 C451.563865,415.98465 451.756574,415.692983 451.902407,415.29715 Z M448.824282,413.781525 L451.918032,413.781525 C451.876365,413.323192 451.756574,412.974233 451.558657,412.73465 C451.256574,412.380483 450.871157,412.2034 450.402407,412.2034 C449.975324,412.2034 449.61074,412.349233 449.308657,412.6409 C449.01699,412.92215 448.855532,413.302358 448.824282,413.781525 Z M457.657046,415.04715 L458.578921,415.17215 C458.474754,415.807567 458.214338,416.307567 457.797671,416.67215 C457.381004,417.026317 456.870588,417.2034 456.266421,417.2034 C455.516421,417.2034 454.912254,416.958608 454.453921,416.469025 C453.995588,415.969025 453.766421,415.260692 453.766421,414.344025 C453.766421,413.739858 453.865379,413.213817 454.063296,412.7659 C454.261213,412.317983 454.558088,411.98465 454.953921,411.7659 C455.360171,411.536733 455.802879,411.42215 456.282046,411.42215 C456.875796,411.42215 457.365379,411.5784 457.750796,411.8909 C458.136213,412.192983 458.381004,412.620067 458.485171,413.17215 L457.578921,413.312775 C457.485171,412.948192 457.328921,412.67215 457.110171,412.48465 C456.891421,412.29715 456.625796,412.2034 456.313296,412.2034 C455.844546,412.2034 455.459129,412.375275 455.157046,412.719025 C454.865379,413.052358 454.719546,413.583608 454.719546,414.312775 C454.719546,415.052358 454.860171,415.594025 455.141421,415.937775 C455.433088,416.271108 455.808088,416.437775 456.266421,416.437775 C456.631004,416.437775 456.933088,416.323192 457.172671,416.094025 C457.422671,415.864858 457.584129,415.5159 457.657046,415.04715 Z M461.422671,416.23465 L461.547671,417.062775 C461.287254,417.125275 461.052879,417.156525 460.844546,417.156525 C460.511213,417.156525 460.250796,417.104442 460.063296,417.000275 C459.875796,416.885692 459.740379,416.739858 459.657046,416.562775 C459.584129,416.385692 459.547671,416.0159 459.547671,415.4534 L459.547671,412.281525 L458.860171,412.281525 L458.860171,411.54715 L459.547671,411.54715 L459.547671,410.187775 L460.485171,409.625275 L460.485171,411.54715 L461.422671,411.54715 L461.422671,412.281525 L460.485171,412.281525 L460.485171,415.5159 C460.485171,415.776317 460.500796,415.948192 460.532046,416.031525 C460.563296,416.104442 460.615379,416.166942 460.688296,416.219025 C460.761213,416.260692 460.870588,416.281525 461.016421,416.281525 C461.120588,416.281525 461.256004,416.2659 461.422671,416.23465 Z M465.961428,417.0784 L465.961428,416.2659 C465.523928,416.8909 464.940595,417.2034 464.211428,417.2034 C463.878095,417.2034 463.570803,417.1409 463.289553,417.0159 C463.008303,416.8909 462.79997,416.73465 462.664553,416.54715 C462.529137,416.35965 462.430178,416.125275 462.367678,415.844025 C462.336428,415.666942 462.320803,415.375275 462.320803,414.969025 L462.320803,411.54715 L463.258303,411.54715 L463.258303,414.60965 C463.258303,415.099233 463.273928,415.432567 463.305178,415.60965 C463.367678,415.849233 463.492678,416.041942 463.680178,416.187775 C463.878095,416.323192 464.11247,416.3909 464.383303,416.3909 C464.664553,416.3909 464.930178,416.323192 465.180178,416.187775 C465.430178,416.041942 465.602053,415.844025 465.695803,415.594025 C465.79997,415.344025 465.852053,414.98465 465.852053,414.5159 L465.852053,411.54715 L466.789553,411.54715 L466.789553,417.0784 L465.961428,417.0784 Z M468.247317,417.0784 L468.247317,411.54715 L469.091067,411.54715 L469.091067,412.3909 C469.309817,411.995067 469.507734,411.73465 469.684817,411.60965 C469.872317,411.48465 470.075442,411.42215 470.294192,411.42215 C470.606692,411.42215 470.9244,411.526317 471.247317,411.73465 L470.934817,412.594025 C470.70565,412.458608 470.476484,412.3909 470.247317,412.3909 C470.038984,412.3909 469.851484,412.4534 469.684817,412.5784 C469.528567,412.7034 469.413984,412.875275 469.341067,413.094025 C469.2369,413.427358 469.184817,413.791942 469.184817,414.187775 L469.184817,417.0784 L468.247317,417.0784 Z M475.592806,415.29715 L476.561556,415.42215 C476.405306,415.98465 476.118848,416.42215 475.702181,416.73465 C475.295931,417.04715 474.76989,417.2034 474.124056,417.2034 C473.321973,417.2034 472.681348,416.9534 472.202181,416.4534 C471.733431,415.9534 471.499056,415.255483 471.499056,414.35965 C471.499056,413.432567 471.73864,412.713817 472.217806,412.2034 C472.696973,411.682567 473.316765,411.42215 474.077181,411.42215 C474.816765,411.42215 475.420931,411.677358 475.889681,412.187775 C476.358431,412.687775 476.592806,413.396108 476.592806,414.312775 C476.592806,414.364858 476.592806,414.442983 476.592806,414.54715 L472.467806,414.54715 C472.499056,415.161733 472.670931,415.630483 472.983431,415.9534 C473.295931,416.276317 473.681348,416.437775 474.139681,416.437775 C474.483431,416.437775 474.775098,416.349233 475.014681,416.17215 C475.254265,415.98465 475.446973,415.692983 475.592806,415.29715 Z M472.514681,413.781525 L475.608431,413.781525 C475.566765,413.323192 475.446973,412.974233 475.249056,412.73465 C474.946973,412.380483 474.561556,412.2034 474.092806,412.2034 C473.665723,412.2034 473.30114,412.349233 472.999056,412.6409 C472.70739,412.92215 472.545931,413.302358 472.514681,413.781525 Z M477.363039,415.42215 L478.284914,415.281525 C478.336998,415.656525 478.482831,415.942983 478.722414,416.1409 C478.961998,416.338817 479.295331,416.437775 479.722414,416.437775 C480.149498,416.437775 480.467206,416.349233 480.675539,416.17215 C480.883873,415.995067 480.988039,415.786733 480.988039,415.54715 C480.988039,415.338817 480.894289,415.17215 480.706789,415.04715 C480.581789,414.963817 480.264081,414.85965 479.753664,414.73465 C479.066164,414.557567 478.586998,414.406525 478.316164,414.281525 C478.055748,414.156525 477.857831,413.98465 477.722414,413.7659 C477.586998,413.536733 477.519289,413.286733 477.519289,413.0159 C477.519289,412.776317 477.576581,412.552358 477.691164,412.344025 C477.805748,412.125275 477.956789,411.948192 478.144289,411.812775 C478.290123,411.708608 478.488039,411.620067 478.738039,411.54715 C478.998456,411.463817 479.269289,411.42215 479.550539,411.42215 C479.988039,411.42215 480.368248,411.48465 480.691164,411.60965 C481.024498,411.73465 481.269289,411.906525 481.425539,412.125275 C481.581789,412.333608 481.685956,412.620067 481.738039,412.98465 L480.831789,413.10965 C480.790123,412.817983 480.665123,412.594025 480.456789,412.437775 C480.258873,412.281525 479.982831,412.2034 479.628664,412.2034 C479.191164,412.2034 478.878664,412.276317 478.691164,412.42215 C478.514081,412.557567 478.425539,412.719025 478.425539,412.906525 C478.425539,413.031525 478.461998,413.1409 478.534914,413.23465 C478.618248,413.338817 478.738039,413.42215 478.894289,413.48465 C478.988039,413.526317 479.264081,413.60965 479.722414,413.73465 C480.389081,413.911733 480.852623,414.057567 481.113039,414.17215 C481.373456,414.276317 481.576581,414.437775 481.722414,414.656525 C481.878664,414.864858 481.956789,415.130483 481.956789,415.4534 C481.956789,415.7659 481.863039,416.062775 481.675539,416.344025 C481.498456,416.614858 481.238039,416.8284 480.894289,416.98465 C480.550539,417.130483 480.159914,417.2034 479.722414,417.2034 C479.003664,417.2034 478.456789,417.057567 478.081789,416.7659 C477.706789,416.463817 477.467206,416.0159 477.363039,415.42215 Z" id="Shape" fill="#000000" fill-rule="nonzero"></path>
                <path d="M574.0027,318.26157 C574.0027,300.553837 590.969192,286.198887 611.89833,286.198887 C632.82753,286.198887 649.79396,300.553837 649.79396,318.26157 C649.79396,335.969303 632.82753,350.324253 611.89833,350.324253 C590.969192,350.324253 574.0027,335.969303 574.0027,318.26157 Z" id="Shape" fill="#D2EADC"></path>
                <path d="M574.0027,318.26157 C574.0027,300.553837 590.969192,286.198887 611.89833,286.198887 C632.82753,286.198887 649.79396,300.553837 649.79396,318.26157 C649.79396,335.969303 632.82753,350.324253 611.89833,350.324253 C590.969192,350.324253 574.0027,335.969303 574.0027,318.26157 Z" id="Shape" stroke="#000000" stroke-linejoin="round"></path>
                <path d="M596.86774,302.50156 L596.86774,295.767185 L594.352115,295.767185 L594.352115,294.87656 L600.39899,294.87656 L600.39899,295.767185 L597.86774,295.767185 L597.86774,302.50156 L596.86774,302.50156 Z M600.67908,304.62656 L600.58533,303.75156 C600.783247,303.803643 600.96033,303.829685 601.11658,303.829685 C601.324914,303.829685 601.49158,303.793227 601.61658,303.72031 C601.74158,303.65781 601.845747,303.56406 601.92908,303.43906 C601.981164,303.34531 602.074914,303.110935 602.21033,302.735935 C602.231164,302.683852 602.257205,302.610935 602.288455,302.517185 L600.194705,296.97031 L601.21033,296.97031 L602.350955,300.173435 C602.507205,300.579685 602.642622,301.006768 602.757205,301.454685 C602.861372,301.027602 602.986372,300.605727 603.132205,300.18906 L604.319705,296.97031 L605.257205,296.97031 L603.14783,302.59531 C602.92908,303.199477 602.757205,303.616143 602.632205,303.84531 C602.465539,304.15781 602.27283,304.386977 602.05408,304.53281 C601.845747,304.678643 601.590539,304.75156 601.288455,304.75156 C601.111372,304.75156 600.908247,304.709893 600.67908,304.62656 Z M606.05408,304.62656 L606.05408,296.97031 L606.913455,296.97031 L606.913455,297.68906 C607.111372,297.40781 607.33533,297.199477 607.58533,297.06406 C607.845747,296.918227 608.153039,296.84531 608.507205,296.84531 C608.975955,296.84531 609.392622,296.97031 609.757205,297.22031 C610.121789,297.459893 610.392622,297.803643 610.569705,298.25156 C610.757205,298.68906 610.850955,299.173435 610.850955,299.704685 C610.850955,300.267185 610.746789,300.777602 610.538455,301.235935 C610.340539,301.683852 610.048872,302.027602 609.663455,302.267185 C609.278039,302.506768 608.871789,302.62656 608.444705,302.62656 C608.132205,302.62656 607.850955,302.56406 607.600955,302.43906 C607.350955,302.303643 607.14783,302.131768 606.99158,301.923435 L606.99158,304.62656 L606.05408,304.62656 Z M606.89783,299.767185 C606.89783,300.475518 607.043664,301.00156 607.33533,301.34531 C607.626997,301.68906 607.975955,301.860935 608.382205,301.860935 C608.798872,301.860935 609.153039,301.683852 609.444705,301.329685 C609.746789,300.975518 609.89783,300.428643 609.89783,299.68906 C609.89783,298.991143 609.751997,298.465102 609.46033,298.110935 C609.168664,297.756768 608.819705,297.579685 608.413455,297.579685 C608.017622,297.579685 607.663455,297.767185 607.350955,298.142185 C607.048872,298.517185 606.89783,299.058852 606.89783,299.767185 Z M611.980533,295.954685 L611.980533,294.87656 L612.918033,294.87656 L612.918033,295.954685 L611.980533,295.954685 Z M611.980533,302.50156 L611.980533,296.97031 L612.918033,296.97031 L612.918033,302.50156 L611.980533,302.50156 Z M617.957401,300.47031 L618.879276,300.59531 C618.775109,301.230727 618.514692,301.730727 618.098026,302.09531 C617.681359,302.449477 617.170942,302.62656 616.566776,302.62656 C615.816776,302.62656 615.212609,302.381768 614.754276,301.892185 C614.295942,301.392185 614.066776,300.683852 614.066776,299.767185 C614.066776,299.163018 614.165734,298.636977 614.363651,298.18906 C614.561567,297.741143 614.858442,297.40781 615.254276,297.18906 C615.660526,296.959893 616.103234,296.84531 616.582401,296.84531 C617.176151,296.84531 617.665734,297.00156 618.051151,297.31406 C618.436567,297.616143 618.681359,298.043227 618.785526,298.59531 L617.879276,298.735935 C617.785526,298.371352 617.629276,298.09531 617.410526,297.90781 C617.191776,297.72031 616.926151,297.62656 616.613651,297.62656 C616.144901,297.62656 615.759484,297.798435 615.457401,298.142185 C615.165734,298.475518 615.019901,299.006768 615.019901,299.735935 C615.019901,300.475518 615.160526,301.017185 615.441776,301.360935 C615.733442,301.694268 616.108442,301.860935 616.566776,301.860935 C616.931359,301.860935 617.233442,301.746352 617.473026,301.517185 C617.723026,301.288018 617.884484,300.93906 617.957401,300.47031 Z M623.285526,301.81406 C622.931359,302.116143 622.592817,302.329685 622.269901,302.454685 C621.957401,302.569268 621.618859,302.62656 621.254276,302.62656 C620.639692,302.62656 620.170942,302.480727 619.848026,302.18906 C619.525109,301.886977 619.363651,301.506768 619.363651,301.048435 C619.363651,300.777602 619.420942,300.53281 619.535526,300.31406 C619.660526,300.084893 619.821984,299.902602 620.019901,299.767185 C620.228234,299.631768 620.457401,299.527602 620.707401,299.454685 C620.884484,299.413018 621.160526,299.366143 621.535526,299.31406 C622.285526,299.230727 622.842817,299.12656 623.207401,299.00156 C623.207401,298.866143 623.207401,298.78281 623.207401,298.75156 C623.207401,298.366143 623.118859,298.09531 622.941776,297.93906 C622.702192,297.730727 622.348026,297.62656 621.879276,297.62656 C621.441776,297.62656 621.113651,297.704685 620.894901,297.860935 C620.686567,298.017185 620.535526,298.288018 620.441776,298.673435 L619.519901,298.548435 C619.603234,298.163018 619.738651,297.850518 619.926151,297.610935 C620.124067,297.360935 620.400109,297.173435 620.754276,297.048435 C621.118859,296.913018 621.535526,296.84531 622.004276,296.84531 C622.483442,296.84531 622.868859,296.902602 623.160526,297.017185 C623.452192,297.131768 623.665734,297.272393 623.801151,297.43906 C623.946984,297.605727 624.045942,297.819268 624.098026,298.079685 C624.129276,298.235935 624.144901,298.522393 624.144901,298.93906 L624.144901,300.18906 C624.144901,301.053643 624.165734,301.605727 624.207401,301.84531 C624.249067,302.074477 624.327192,302.293227 624.441776,302.50156 L623.473026,302.50156 C623.368859,302.303643 623.306359,302.074477 623.285526,301.81406 Z M623.207401,299.735935 C622.863651,299.871352 622.353234,299.985935 621.676151,300.079685 C621.290734,300.131768 621.014692,300.194268 620.848026,300.267185 C620.691776,300.340102 620.571984,300.444268 620.488651,300.579685 C620.405317,300.704685 620.363651,300.850518 620.363651,301.017185 C620.363651,301.267185 620.457401,301.475518 620.644901,301.642185 C620.832401,301.808852 621.108442,301.892185 621.473026,301.892185 C621.827192,301.892185 622.144901,301.81406 622.426151,301.65781 C622.707401,301.50156 622.915734,301.28281 623.051151,301.00156 C623.155317,300.793227 623.207401,300.480727 623.207401,300.06406 L623.207401,299.735935 Z M625.587039,302.50156 L625.587039,294.87656 L626.524539,294.87656 L626.524539,302.50156 L625.587039,302.50156 Z" id="Shape" fill="#000000" fill-rule="nonzero"></path>
                <path d="M598.4146,314.81406 C598.060433,315.116143 597.721892,315.329685 597.398975,315.454685 C597.086475,315.569268 596.747933,315.62656 596.38335,315.62656 C595.768767,315.62656 595.300017,315.480727 594.9771,315.18906 C594.654183,314.886977 594.492725,314.506768 594.492725,314.048435 C594.492725,313.777602 594.550017,313.53281 594.6646,313.31406 C594.7896,313.084893 594.951058,312.902602 595.148975,312.767185 C595.357308,312.631768 595.586475,312.527602 595.836475,312.454685 C596.013558,312.413018 596.2896,312.366143 596.6646,312.31406 C597.4146,312.230727 597.971892,312.12656 598.336475,312.00156 C598.336475,311.866143 598.336475,311.78281 598.336475,311.75156 C598.336475,311.366143 598.247933,311.09531 598.07085,310.93906 C597.831267,310.730727 597.4771,310.62656 597.00835,310.62656 C596.57085,310.62656 596.242725,310.704685 596.023975,310.860935 C595.815642,311.017185 595.6646,311.288018 595.57085,311.673435 L594.648975,311.548435 C594.732308,311.163018 594.867725,310.850518 595.055225,310.610935 C595.253142,310.360935 595.529183,310.173435 595.88335,310.048435 C596.247933,309.913018 596.6646,309.84531 597.13335,309.84531 C597.612517,309.84531 597.997933,309.902602 598.2896,310.017185 C598.581267,310.131768 598.794808,310.272393 598.930225,310.43906 C599.076058,310.605727 599.175017,310.819268 599.2271,311.079685 C599.25835,311.235935 599.273975,311.522393 599.273975,311.93906 L599.273975,313.18906 C599.273975,314.053643 599.294808,314.605727 599.336475,314.84531 C599.378142,315.074477 599.456267,315.293227 599.57085,315.50156 L598.6021,315.50156 C598.497933,315.303643 598.435433,315.074477 598.4146,314.81406 Z M598.336475,312.735935 C597.992725,312.871352 597.482308,312.985935 596.805225,313.079685 C596.419808,313.131768 596.143767,313.194268 595.9771,313.267185 C595.82085,313.340102 595.701058,313.444268 595.617725,313.579685 C595.534392,313.704685 595.492725,313.850518 595.492725,314.017185 C595.492725,314.267185 595.586475,314.475518 595.773975,314.642185 C595.961475,314.808852 596.237517,314.892185 596.6021,314.892185 C596.956267,314.892185 597.273975,314.81406 597.555225,314.65781 C597.836475,314.50156 598.044808,314.28281 598.180225,314.00156 C598.284392,313.793227 598.336475,313.480727 598.336475,313.06406 L598.336475,312.735935 Z M604.341053,313.47031 L605.262928,313.59531 C605.158761,314.230727 604.898344,314.730727 604.481678,315.09531 C604.065011,315.449477 603.554594,315.62656 602.950428,315.62656 C602.200428,315.62656 601.596261,315.381768 601.137928,314.892185 C600.679594,314.392185 600.450428,313.683852 600.450428,312.767185 C600.450428,312.163018 600.549386,311.636977 600.747303,311.18906 C600.945219,310.741143 601.242094,310.40781 601.637928,310.18906 C602.044178,309.959893 602.486886,309.84531 602.966053,309.84531 C603.559803,309.84531 604.049386,310.00156 604.434803,310.31406 C604.820219,310.616143 605.065011,311.043227 605.169178,311.59531 L604.262928,311.735935 C604.169178,311.371352 604.012928,311.09531 603.794178,310.90781 C603.575428,310.72031 603.309803,310.62656 602.997303,310.62656 C602.528553,310.62656 602.143136,310.798435 601.841053,311.142185 C601.549386,311.475518 601.403553,312.006768 601.403553,312.735935 C601.403553,313.475518 601.544178,314.017185 601.825428,314.360935 C602.117094,314.694268 602.492094,314.860935 602.950428,314.860935 C603.315011,314.860935 603.617094,314.746352 603.856678,314.517185 C604.106678,314.288018 604.268136,313.93906 604.341053,313.47031 Z M608.106678,314.65781 L608.231678,315.485935 C607.971261,315.548435 607.736886,315.579685 607.528553,315.579685 C607.195219,315.579685 606.934803,315.527602 606.747303,315.423435 C606.559803,315.308852 606.424386,315.163018 606.341053,314.985935 C606.268136,314.808852 606.231678,314.43906 606.231678,313.87656 L606.231678,310.704685 L605.544178,310.704685 L605.544178,309.97031 L606.231678,309.97031 L606.231678,308.610935 L607.169178,308.048435 L607.169178,309.97031 L608.106678,309.97031 L608.106678,310.704685 L607.169178,310.704685 L607.169178,313.93906 C607.169178,314.199477 607.184803,314.371352 607.216053,314.454685 C607.247303,314.527602 607.299386,314.590102 607.372303,314.642185 C607.445219,314.683852 607.554594,314.704685 607.700428,314.704685 C607.804594,314.704685 607.940011,314.68906 608.106678,314.65781 Z M609.020496,308.954685 L609.020496,307.87656 L609.957996,307.87656 L609.957996,308.954685 L609.020496,308.954685 Z M609.020496,315.50156 L609.020496,309.97031 L609.957996,309.97031 L609.957996,315.50156 L609.020496,315.50156 Z M612.919178,315.50156 L610.825428,309.97031 L611.809803,309.97031 L612.997303,313.28281 C613.122303,313.636977 613.242094,314.006768 613.356678,314.392185 C613.429594,314.100518 613.544178,313.75156 613.700428,313.34531 L614.919178,309.97031 L615.887928,309.97031 L613.794178,315.50156 L612.919178,315.50156 Z M620.497303,313.72031 L621.466053,313.84531 C621.309803,314.40781 621.023344,314.84531 620.606678,315.15781 C620.200428,315.47031 619.674386,315.62656 619.028553,315.62656 C618.226469,315.62656 617.585844,315.37656 617.106678,314.87656 C616.637928,314.37656 616.403553,313.678643 616.403553,312.78281 C616.403553,311.855727 616.643136,311.136977 617.122303,310.62656 C617.601469,310.105727 618.221261,309.84531 618.981678,309.84531 C619.721261,309.84531 620.325428,310.100518 620.794178,310.610935 C621.262928,311.110935 621.497303,311.819268 621.497303,312.735935 C621.497303,312.788018 621.497303,312.866143 621.497303,312.97031 L617.372303,312.97031 C617.403553,313.584893 617.575428,314.053643 617.887928,314.37656 C618.200428,314.699477 618.585844,314.860935 619.044178,314.860935 C619.387928,314.860935 619.679594,314.772393 619.919178,314.59531 C620.158761,314.40781 620.351469,314.116143 620.497303,313.72031 Z M617.419178,312.204685 L620.512928,312.204685 C620.471261,311.746352 620.351469,311.397393 620.153553,311.15781 C619.851469,310.803643 619.466053,310.62656 618.997303,310.62656 C618.570219,310.62656 618.205636,310.772393 617.903553,311.06406 C617.611886,311.34531 617.450428,311.725518 617.419178,312.204685 Z" id="Shape" fill="#000000" fill-rule="nonzero"></path>
                <path d="M594.7896,328.50156 L594.7896,320.87656 L595.7271,320.87656 L595.7271,328.50156 L594.7896,328.50156 Z M600.953907,326.72031 L601.922657,326.84531 C601.766407,327.40781 601.479948,327.84531 601.063282,328.15781 C600.657032,328.47031 600.13099,328.62656 599.485157,328.62656 C598.683073,328.62656 598.042448,328.37656 597.563282,327.87656 C597.094532,327.37656 596.860157,326.678643 596.860157,325.78281 C596.860157,324.855727 597.09974,324.136977 597.578907,323.62656 C598.058073,323.105727 598.677865,322.84531 599.438282,322.84531 C600.177865,322.84531 600.782032,323.100518 601.250782,323.610935 C601.719532,324.110935 601.953907,324.819268 601.953907,325.735935 C601.953907,325.788018 601.953907,325.866143 601.953907,325.97031 L597.828907,325.97031 C597.860157,326.584893 598.032032,327.053643 598.344532,327.37656 C598.657032,327.699477 599.042448,327.860935 599.500782,327.860935 C599.844532,327.860935 600.136198,327.772393 600.375782,327.59531 C600.615365,327.40781 600.808073,327.116143 600.953907,326.72031 Z M597.875782,325.204685 L600.969532,325.204685 C600.927865,324.746352 600.808073,324.397393 600.610157,324.15781 C600.308073,323.803643 599.922657,323.62656 599.453907,323.62656 C599.026823,323.62656 598.66224,323.772393 598.360157,324.06406 C598.06849,324.34531 597.907032,324.725518 597.875782,325.204685 Z M606.708546,327.81406 C606.354379,328.116143 606.015837,328.329685 605.692921,328.454685 C605.380421,328.569268 605.041879,328.62656 604.677296,328.62656 C604.062712,328.62656 603.593962,328.480727 603.271046,328.18906 C602.948129,327.886977 602.786671,327.506768 602.786671,327.048435 C602.786671,326.777602 602.843962,326.53281 602.958546,326.31406 C603.083546,326.084893 603.245004,325.902602 603.442921,325.767185 C603.651254,325.631768 603.880421,325.527602 604.130421,325.454685 C604.307504,325.413018 604.583546,325.366143 604.958546,325.31406 C605.708546,325.230727 606.265837,325.12656 606.630421,325.00156 C606.630421,324.866143 606.630421,324.78281 606.630421,324.75156 C606.630421,324.366143 606.541879,324.09531 606.364796,323.93906 C606.125212,323.730727 605.771046,323.62656 605.302296,323.62656 C604.864796,323.62656 604.536671,323.704685 604.317921,323.860935 C604.109587,324.017185 603.958546,324.288018 603.864796,324.673435 L602.942921,324.548435 C603.026254,324.163018 603.161671,323.850518 603.349171,323.610935 C603.547087,323.360935 603.823129,323.173435 604.177296,323.048435 C604.541879,322.913018 604.958546,322.84531 605.427296,322.84531 C605.906462,322.84531 606.291879,322.902602 606.583546,323.017185 C606.875212,323.131768 607.088754,323.272393 607.224171,323.43906 C607.370004,323.605727 607.468962,323.819268 607.521046,324.079685 C607.552296,324.235935 607.567921,324.522393 607.567921,324.93906 L607.567921,326.18906 C607.567921,327.053643 607.588754,327.605727 607.630421,327.84531 C607.672087,328.074477 607.750212,328.293227 607.864796,328.50156 L606.896046,328.50156 C606.791879,328.303643 606.729379,328.074477 606.708546,327.81406 Z M606.630421,325.735935 C606.286671,325.871352 605.776254,325.985935 605.099171,326.079685 C604.713754,326.131768 604.437712,326.194268 604.271046,326.267185 C604.114796,326.340102 603.995004,326.444268 603.911671,326.579685 C603.828337,326.704685 603.786671,326.850518 603.786671,327.017185 C603.786671,327.267185 603.880421,327.475518 604.067921,327.642185 C604.255421,327.808852 604.531462,327.892185 604.896046,327.892185 C605.250212,327.892185 605.567921,327.81406 605.849171,327.65781 C606.130421,327.50156 606.338754,327.28281 606.474171,327.00156 C606.578337,326.793227 606.630421,326.480727 606.630421,326.06406 L606.630421,325.735935 Z M609.010059,328.50156 L609.010059,322.97031 L609.853809,322.97031 L609.853809,323.81406 C610.072559,323.418227 610.270476,323.15781 610.447559,323.03281 C610.635059,322.90781 610.838184,322.84531 611.056934,322.84531 C611.369434,322.84531 611.687143,322.949477 612.010059,323.15781 L611.697559,324.017185 C611.468393,323.881768 611.239226,323.81406 611.010059,323.81406 C610.801726,323.81406 610.614226,323.87656 610.447559,324.00156 C610.291309,324.12656 610.176726,324.298435 610.103809,324.517185 C609.999643,324.850518 609.947559,325.215102 609.947559,325.610935 L609.947559,328.50156 L609.010059,328.50156 Z M612.574268,328.50156 L612.574268,322.97031 L613.418018,322.97031 L613.418018,323.767185 C613.824268,323.152602 614.407602,322.84531 615.168018,322.84531 C615.501352,322.84531 615.808643,322.90781 616.089893,323.03281 C616.371143,323.147393 616.579477,323.303643 616.714893,323.50156 C616.860727,323.699477 616.959685,323.928643 617.011768,324.18906 C617.043018,324.366143 617.058643,324.673435 617.058643,325.110935 L617.058643,328.50156 L616.121143,328.50156 L616.121143,325.142185 C616.121143,324.756768 616.084685,324.47031 616.011768,324.28281 C615.938852,324.09531 615.808643,323.944268 615.621143,323.829685 C615.44406,323.715102 615.230518,323.65781 614.980518,323.65781 C614.584685,323.65781 614.240935,323.788018 613.949268,324.048435 C613.657602,324.298435 613.511768,324.777602 613.511768,325.485935 L613.511768,328.50156 L612.574268,328.50156 Z M618.500782,321.954685 L618.500782,320.87656 L619.438282,320.87656 L619.438282,321.954685 L618.500782,321.954685 Z M618.500782,328.50156 L618.500782,322.97031 L619.438282,322.97031 L619.438282,328.50156 L618.500782,328.50156 Z M620.868275,328.50156 L620.868275,322.97031 L621.712025,322.97031 L621.712025,323.767185 C622.118275,323.152602 622.701608,322.84531 623.462025,322.84531 C623.795358,322.84531 624.10265,322.90781 624.3839,323.03281 C624.66515,323.147393 624.873483,323.303643 625.0089,323.50156 C625.154733,323.699477 625.253691,323.928643 625.305775,324.18906 C625.337025,324.366143 625.35265,324.673435 625.35265,325.110935 L625.35265,328.50156 L624.41515,328.50156 L624.41515,325.142185 C624.41515,324.756768 624.378691,324.47031 624.305775,324.28281 C624.232858,324.09531 624.10265,323.944268 623.91515,323.829685 C623.738066,323.715102 623.524525,323.65781 623.274525,323.65781 C622.878691,323.65781 622.534941,323.788018 622.243275,324.048435 C621.951608,324.298435 621.805775,324.777602 621.805775,325.485935 L621.805775,328.50156 L620.868275,328.50156 Z" id="Shape" fill="#000000" fill-rule="nonzero"></path>
                <path d="M594.63336,341.95468 L595.53961,342.095305 C595.581277,342.376555 595.690652,342.57968 595.867735,342.70468 C596.096902,342.881763 596.409402,342.970305 596.805235,342.970305 C597.242735,342.970305 597.576068,342.881763 597.805235,342.70468 C598.044818,342.538013 598.206277,342.29843 598.28961,341.98593 C598.341693,341.788013 598.367735,341.386972 598.367735,340.782805 C597.951068,341.261972 597.440652,341.501555 596.836485,341.501555 C596.076068,341.501555 595.487527,341.230722 595.07086,340.689055 C594.654193,340.136972 594.44586,339.475513 594.44586,338.70468 C594.44586,338.183847 594.53961,337.699472 594.72711,337.251555 C594.925027,336.803638 595.201068,336.459888 595.555235,336.220305 C595.919818,335.970305 596.346902,335.845305 596.836485,335.845305 C597.492735,335.845305 598.029193,336.11093 598.44586,336.64218 L598.44586,335.970305 L599.32086,335.970305 L599.32086,340.751555 C599.32086,341.616138 599.232318,342.225513 599.055235,342.57968 C598.878152,342.944263 598.596902,343.230722 598.211485,343.439055 C597.836485,343.647388 597.372943,343.751555 596.82086,343.751555 C596.16461,343.751555 595.63336,343.600513 595.22711,343.29843 C594.82086,343.006763 594.622943,342.558847 594.63336,341.95468 Z M595.41461,338.64218 C595.41461,339.36093 595.555235,339.886972 595.836485,340.220305 C596.128152,340.553638 596.487527,340.720305 596.91461,340.720305 C597.35211,340.720305 597.716693,340.558847 598.00836,340.23593 C598.300027,339.902597 598.44586,339.381763 598.44586,338.67343 C598.44586,337.996347 598.294818,337.48593 597.992735,337.14218 C597.690652,336.79843 597.326068,336.626555 596.898985,336.626555 C596.492735,336.626555 596.143777,336.79843 595.85211,337.14218 C595.560443,337.475513 595.41461,337.975513 595.41461,338.64218 Z" id="Shape" fill="#000000" fill-rule="nonzero"></path>
                <path d="M574.0027,437.8966 C574.0027,411.67782 596.62886,390.423303 624.539626,390.423303 C637.942885,390.423303 650.797133,395.424951 660.274672,404.327905 C669.75215,413.23089 675.076552,425.305902 675.076552,437.8966 C675.076552,464.11538 652.450392,485.369897 624.539626,485.369897 C596.628859,485.369897 574.0027,464.11538 574.0027,437.8966 Z" id="Shape" fill="#D2EADC"></path>
                <path d="M574.0027,437.8966 C574.0027,411.67782 596.62886,390.423303 624.539626,390.423303 C637.942885,390.423303 650.797133,395.424951 660.274672,404.327905 C669.75215,413.23089 675.076552,425.305902 675.076552,437.8966 C675.076552,464.11538 652.450392,485.369897 624.539626,485.369897 C596.628859,485.369897 574.0027,464.11538 574.0027,437.8966 Z" id="Shape" stroke="#000000" stroke-linejoin="round"></path>
                <path d="M604.07025,432.46475 L605.085875,432.71475 C604.867125,433.548083 604.481708,434.1835 603.929625,434.621 C603.387958,435.048083 602.716083,435.261625 601.914,435.261625 C601.091083,435.261625 600.424417,435.094958 599.914,434.761625 C599.403583,434.428292 599.012958,433.943917 598.742125,433.3085 C598.471292,432.673083 598.335875,431.990792 598.335875,431.261625 C598.335875,430.469958 598.486917,429.77725 598.789,429.1835 C599.091083,428.58975 599.523375,428.141833 600.085875,427.83975 C600.648375,427.52725 601.262958,427.371 601.929625,427.371 C602.700458,427.371 603.346292,427.568917 603.867125,427.96475 C604.387958,428.350167 604.747333,428.897042 604.94525,429.605375 L603.960875,429.83975 C603.783792,429.27725 603.523375,428.871 603.179625,428.621 C602.846292,428.371 602.424417,428.246 601.914,428.246 C601.330667,428.246 600.841083,428.386625 600.44525,428.667875 C600.049417,428.949125 599.773375,429.329333 599.617125,429.8085 C599.460875,430.27725 599.38275,430.761625 599.38275,431.261625 C599.38275,431.907458 599.4765,432.475167 599.664,432.96475 C599.8515,433.443917 600.143167,433.803292 600.539,434.042875 C600.934833,434.282458 601.367125,434.40225 601.835875,434.40225 C602.398375,434.40225 602.877542,434.240792 603.273375,433.917875 C603.669208,433.584542 603.934833,433.100167 604.07025,432.46475 Z M606.203368,435.136625 L606.203368,427.511625 L607.140868,427.511625 L607.140868,430.246 C607.578368,429.735583 608.130451,429.480375 608.797118,429.480375 C609.203368,429.480375 609.557534,429.563708 609.859618,429.730375 C610.161701,429.886625 610.375243,430.110583 610.500243,430.40225 C610.635659,430.6835 610.703368,431.094958 610.703368,431.636625 L610.703368,435.136625 L609.765868,435.136625 L609.765868,431.636625 C609.765868,431.167875 609.661701,430.829333 609.453368,430.621 C609.255451,430.40225 608.968993,430.292875 608.593993,430.292875 C608.323159,430.292875 608.062743,430.365792 607.812743,430.511625 C607.573159,430.657458 607.401284,430.855375 607.297118,431.105375 C607.192951,431.344958 607.140868,431.6835 607.140868,432.121 L607.140868,435.136625 L606.203368,435.136625 Z M615.739257,434.449125 C615.38509,434.751208 615.046548,434.96475 614.723632,435.08975 C614.411132,435.204333 614.07259,435.261625 613.708007,435.261625 C613.093423,435.261625 612.624673,435.115792 612.301757,434.824125 C611.97884,434.522042 611.817382,434.141833 611.817382,433.6835 C611.817382,433.412667 611.874673,433.167875 611.989257,432.949125 C612.114257,432.719958 612.275715,432.537667 612.473632,432.40225 C612.681965,432.266833 612.911132,432.162667 613.161132,432.08975 C613.338215,432.048083 613.614257,432.001208 613.989257,431.949125 C614.739257,431.865792 615.296548,431.761625 615.661132,431.636625 C615.661132,431.501208 615.661132,431.417875 615.661132,431.386625 C615.661132,431.001208 615.57259,430.730375 615.395507,430.574125 C615.155923,430.365792 614.801757,430.261625 614.333007,430.261625 C613.895507,430.261625 613.567382,430.33975 613.348632,430.496 C613.140298,430.65225 612.989257,430.923083 612.895507,431.3085 L611.973632,431.1835 C612.056965,430.798083 612.192382,430.485583 612.379882,430.246 C612.577798,429.996 612.85384,429.8085 613.208007,429.6835 C613.57259,429.548083 613.989257,429.480375 614.458007,429.480375 C614.937173,429.480375 615.32259,429.537667 615.614257,429.65225 C615.905923,429.766833 616.119465,429.907458 616.254882,430.074125 C616.400715,430.240792 616.499673,430.454333 616.551757,430.71475 C616.583007,430.871 616.598632,431.157458 616.598632,431.574125 L616.598632,432.824125 C616.598632,433.688708 616.619465,434.240792 616.661132,434.480375 C616.702798,434.709542 616.780923,434.928292 616.895507,435.136625 L615.926757,435.136625 C615.82259,434.938708 615.76009,434.709542 615.739257,434.449125 Z M615.661132,432.371 C615.317382,432.506417 614.806965,432.621 614.129882,432.71475 C613.744465,432.766833 613.468423,432.829333 613.301757,432.90225 C613.145507,432.975167 613.025715,433.079333 612.942382,433.21475 C612.859048,433.33975 612.817382,433.485583 612.817382,433.65225 C612.817382,433.90225 612.911132,434.110583 613.098632,434.27725 C613.286132,434.443917 613.562173,434.52725 613.926757,434.52725 C614.280923,434.52725 614.598632,434.449125 614.879882,434.292875 C615.161132,434.136625 615.369465,433.917875 615.504882,433.636625 C615.609048,433.428292 615.661132,433.115792 615.661132,432.699125 L615.661132,432.371 Z M618.040709,435.136625 L618.040709,427.511625 L618.978209,427.511625 L618.978209,435.136625 L618.040709,435.136625 Z M620.408202,435.136625 L620.408202,427.511625 L621.345702,427.511625 L621.345702,435.136625 L620.408202,435.136625 Z M626.57257,433.355375 L627.54132,433.480375 C627.38507,434.042875 627.098611,434.480375 626.681945,434.792875 C626.275695,435.105375 625.749653,435.261625 625.10382,435.261625 C624.301736,435.261625 623.661111,435.011625 623.181945,434.511625 C622.713195,434.011625 622.47882,433.313708 622.47882,432.417875 C622.47882,431.490792 622.718403,430.772042 623.19757,430.261625 C623.676736,429.740792 624.296528,429.480375 625.056945,429.480375 C625.796528,429.480375 626.400695,429.735583 626.869445,430.246 C627.338195,430.746 627.57257,431.454333 627.57257,432.371 C627.57257,432.423083 627.57257,432.501208 627.57257,432.605375 L623.44757,432.605375 C623.47882,433.219958 623.650695,433.688708 623.963195,434.011625 C624.275695,434.334542 624.661111,434.496 625.119445,434.496 C625.463195,434.496 625.754861,434.407458 625.994445,434.230375 C626.234028,434.042875 626.426736,433.751208 626.57257,433.355375 Z M623.494445,431.83975 L626.588195,431.83975 C626.546528,431.381417 626.426736,431.032458 626.22882,430.792875 C625.926736,430.438708 625.54132,430.261625 625.07257,430.261625 C624.645486,430.261625 624.280903,430.407458 623.97882,430.699125 C623.687153,430.980375 623.525695,431.360583 623.494445,431.83975 Z M628.717833,435.136625 L628.717833,429.605375 L629.561583,429.605375 L629.561583,430.40225 C629.967833,429.787667 630.551167,429.480375 631.311583,429.480375 C631.644917,429.480375 631.952208,429.542875 632.233458,429.667875 C632.514708,429.782458 632.723042,429.938708 632.858458,430.136625 C633.004292,430.334542 633.10325,430.563708 633.155333,430.824125 C633.186583,431.001208 633.202208,431.3085 633.202208,431.746 L633.202208,435.136625 L632.264708,435.136625 L632.264708,431.77725 C632.264708,431.391833 632.22825,431.105375 632.155333,430.917875 C632.082417,430.730375 631.952208,430.579333 631.764708,430.46475 C631.587625,430.350167 631.374083,430.292875 631.124083,430.292875 C630.72825,430.292875 630.3845,430.423083 630.092833,430.6835 C629.801167,430.9335 629.655333,431.412667 629.655333,432.121 L629.655333,435.136625 L628.717833,435.136625 Z M634.472411,435.58975 L635.378661,435.730375 C635.420328,436.011625 635.529703,436.21474 635.706786,436.33972 C635.935953,436.516803 636.248453,436.605345 636.644286,436.605345 C637.081786,436.605345 637.415119,436.516803 637.644286,436.33972 C637.883869,436.173073 638.045328,435.9335 638.128661,435.621 C638.180744,435.423083 638.206786,435.022042 638.206786,434.417875 C637.790119,434.897042 637.279703,435.136625 636.675536,435.136625 C635.915119,435.136625 635.326578,434.865792 634.909911,434.324125 C634.493244,433.772042 634.284911,433.110583 634.284911,432.33975 C634.284911,431.818917 634.378661,431.334542 634.566161,430.886625 C634.764078,430.438708 635.040119,430.094958 635.394286,429.855375 C635.758869,429.605375 636.185953,429.480375 636.675536,429.480375 C637.331786,429.480375 637.868244,429.746 638.284911,430.27725 L638.284911,429.605375 L639.159911,429.605375 L639.159911,434.386625 C639.159911,435.251208 639.071369,435.860583 638.894286,436.21475 C638.717203,436.579313 638.435953,436.865761 638.050536,437.074095 C637.675536,437.282428 637.211994,437.386595 636.659911,437.386595 C636.003661,437.386595 635.472411,437.235553 635.066161,436.93347 C634.659911,436.641803 634.461994,436.193896 634.472411,435.58975 Z M635.253661,432.27725 C635.253661,432.996 635.394286,433.522042 635.675536,433.855375 C635.967203,434.188708 636.326578,434.355375 636.753661,434.355375 C637.191161,434.355375 637.555744,434.193917 637.847411,433.871 C638.139078,433.537667 638.284911,433.016833 638.284911,432.3085 C638.284911,431.631417 638.133869,431.121 637.831786,430.77725 C637.529703,430.4335 637.165119,430.261625 636.738036,430.261625 C636.331786,430.261625 635.982828,430.4335 635.691161,430.77725 C635.399494,431.110583 635.253661,431.610583 635.253661,432.27725 Z M644.35205,433.355375 L645.3208,433.480375 C645.16455,434.042875 644.878092,434.480375 644.461425,434.792875 C644.055175,435.105375 643.529133,435.261625 642.8833,435.261625 C642.081217,435.261625 641.440592,435.011625 640.961425,434.511625 C640.492675,434.011625 640.2583,433.313708 640.2583,432.417875 C640.2583,431.490792 640.497883,430.772042 640.97705,430.261625 C641.456217,429.740792 642.076008,429.480375 642.836425,429.480375 C643.576008,429.480375 644.180175,429.735583 644.648925,430.246 C645.117675,430.746 645.35205,431.454333 645.35205,432.371 C645.35205,432.423083 645.35205,432.501208 645.35205,432.605375 L641.22705,432.605375 C641.2583,433.219958 641.430175,433.688708 641.742675,434.011625 C642.055175,434.334542 642.440592,434.496 642.898925,434.496 C643.242675,434.496 643.534342,434.407458 643.773925,434.230375 C644.013508,434.042875 644.206217,433.751208 644.35205,433.355375 Z M641.273925,431.83975 L644.367675,431.83975 C644.326008,431.381417 644.206217,431.032458 644.0083,430.792875 C643.706217,430.438708 643.3208,430.261625 642.85205,430.261625 C642.424967,430.261625 642.060383,430.407458 641.7583,430.699125 C641.466633,430.980375 641.305175,431.360583 641.273925,431.83975 Z M646.137939,432.83975 L646.137939,431.90225 L649.012939,431.90225 L649.012939,432.83975 L646.137939,432.83975 Z" id="Shape" fill="#000000" fill-rule="nonzero"></path>
                <path d="M598.664,448.1366 L598.664,440.5116 L599.664,440.5116 L599.664,443.6366 L603.63275,443.6366 L603.63275,440.5116 L604.648375,440.5116 L604.648375,448.1366 L603.63275,448.1366 L603.63275,444.54285 L599.664,444.54285 L599.664,448.1366 L598.664,448.1366 Z M609.828368,448.1366 L609.828368,447.3241 C609.390868,447.9491 608.807535,448.2616 608.078368,448.2616 C607.745035,448.2616 607.437743,448.1991 607.156493,448.0741 C606.875243,447.9491 606.66691,447.79285 606.531493,447.60535 C606.396076,447.41785 606.297118,447.183475 606.234618,446.902225 C606.203368,446.725142 606.187743,446.433475 606.187743,446.027225 L606.187743,442.60535 L607.125243,442.60535 L607.125243,445.66785 C607.125243,446.157433 607.140868,446.490767 607.172118,446.66785 C607.234618,446.907433 607.359618,447.100142 607.547118,447.245975 C607.745035,447.381392 607.97941,447.4491 608.250243,447.4491 C608.531493,447.4491 608.797118,447.381392 609.047118,447.245975 C609.297118,447.100142 609.468993,446.902225 609.562743,446.652225 C609.66691,446.402225 609.718993,446.04285 609.718993,445.5741 L609.718993,442.60535 L610.656493,442.60535 L610.656493,448.1366 L609.828368,448.1366 Z M612.989257,448.1366 L612.129882,448.1366 L612.129882,440.5116 L613.067382,440.5116 L613.067382,443.23035 C613.463215,442.73035 613.963215,442.48035 614.567382,442.48035 C614.911132,442.48035 615.234048,442.553267 615.536132,442.6991 C615.838215,442.834517 616.088215,443.027225 616.286132,443.277225 C616.484048,443.516808 616.63509,443.813683 616.739257,444.16785 C616.85384,444.522017 616.911132,444.897017 616.911132,445.29285 C616.911132,446.240767 616.676757,446.975142 616.208007,447.495975 C615.739257,448.006392 615.176757,448.2616 614.520507,448.2616 C613.874673,448.2616 613.364257,447.990767 612.989257,447.4491 L612.989257,448.1366 Z M612.989257,445.339725 C612.989257,445.995975 613.077798,446.469933 613.254882,446.7616 C613.546548,447.251183 613.942382,447.495975 614.442382,447.495975 C614.859048,447.495975 615.213215,447.318892 615.504882,446.964725 C615.806965,446.600142 615.958007,446.068892 615.958007,445.370975 C615.958007,444.652225 615.812173,444.120975 615.520507,443.777225 C615.239257,443.433475 614.895507,443.2616 614.489257,443.2616 C614.083007,443.2616 613.72884,443.438683 613.426757,443.79285 C613.13509,444.147017 612.989257,444.662642 612.989257,445.339725 Z" id="Shape" fill="#000000" fill-rule="nonzero"></path>
            </g>
        </g>
    </g>
</svg>