<?xml version="1.0" encoding="UTF-8"?>
<svg width="334px" height="263px" viewBox="0 0 334 263" version="1.1" xmlns="http://www.w3.org/2000/svg" xmlns:xlink="http://www.w3.org/1999/xlink">
    <!-- Generator: Sketch 48.2 (47327) - http://www.bohemiancoding.com/sketch -->
    <title>effort-efficiency</title>
    <desc>Created with Sketch.</desc>
    <defs>
        <linearGradient x1="50%" y1="1.2236926%" x2="50%" y2="100%" id="linearGradient-1">
            <stop stop-color="#76C9AC" offset="0%"></stop>
            <stop stop-color="#D2EADC" offset="100%"></stop>
        </linearGradient>
        <path d="M52.73132,130.3384 C52.73132,112.630667 73.09103,98.275717 98.20605,98.275717 C123.32107,98.275717 143.68078,112.630667 143.68078,130.3384 C143.68078,148.046133 123.32107,162.401083 98.20605,162.401083 C73.09103,162.401083 52.73132,148.046133 52.73132,130.3384 Z" id="path-2"></path>
        <filter x="-7.7%" y="-7.8%" width="115.4%" height="121.8%" filterUnits="objectBoundingBox" id="filter-3">
            <feOffset dx="0" dy="2" in="SourceAlpha" result="shadowOffsetOuter1"></feOffset>
            <feGaussianBlur stdDeviation="2" in="shadowOffsetOuter1" result="shadowBlurOuter1"></feGaussianBlur>
            <feColorMatrix values="0 0 0 0 0.184313725   0 0 0 0 0.376470588   0 0 0 0 0.439215686  0 0 0 1 0" type="matrix" in="shadowBlurOuter1"></feColorMatrix>
        </filter>
        <path d="M204.0027,48.26157 C204.0027,30.553837 220.969192,16.198887 241.89833,16.198887 C262.82753,16.198887 279.79396,30.553837 279.79396,48.26157 C279.79396,65.969303 262.82753,80.324253 241.89833,80.324253 C220.969192,80.324253 204.0027,65.969303 204.0027,48.26157 Z" id="path-4"></path>
        <filter x="-9.2%" y="-7.8%" width="118.5%" height="121.8%" filterUnits="objectBoundingBox" id="filter-5">
            <feOffset dx="0" dy="2" in="SourceAlpha" result="shadowOffsetOuter1"></feOffset>
            <feGaussianBlur stdDeviation="2" in="shadowOffsetOuter1" result="shadowBlurOuter1"></feGaussianBlur>
            <feColorMatrix values="0 0 0 0 0.184313725   0 0 0 0 0.376470588   0 0 0 0 0.439215686  0 0 0 1 0" type="matrix" in="shadowBlurOuter1"></feColorMatrix>
        </filter>
        <path d="M204.0027,167.8966 C204.0027,141.67782 226.62886,120.423303 254.539626,120.423303 C267.942885,120.423303 280.797133,125.424951 290.274672,134.327905 C299.75215,143.23089 305.076552,155.305902 305.076552,167.8966 C305.076552,194.11538 282.450392,215.369897 254.539626,215.369897 C226.628859,215.369897 204.0027,194.11538 204.0027,167.8966 Z" id="path-6"></path>
        <filter x="-6.9%" y="-5.3%" width="113.9%" height="114.7%" filterUnits="objectBoundingBox" id="filter-7">
            <feOffset dx="0" dy="2" in="SourceAlpha" result="shadowOffsetOuter1"></feOffset>
            <feGaussianBlur stdDeviation="2" in="shadowOffsetOuter1" result="shadowBlurOuter1"></feGaussianBlur>
            <feColorMatrix values="0 0 0 0 0.184313725   0 0 0 0 0.376470588   0 0 0 0 0.439215686  0 0 0 1 0" type="matrix" in="shadowBlurOuter1"></feColorMatrix>
        </filter>
    </defs>
    <g id="Page-1" stroke="none" stroke-width="1" fill="none" fill-rule="evenodd">
        <g id="Shapes" transform="translate(-3.000000, -3.000000)">
            <polygon id="Background" fill="url(#linearGradient-1)" points="4.32079797e-14 0 339 0 339 270 0 270"></polygon>
            <path d="M29.23666,16.5 L29.23666,240.45009" id="y-Axis" stroke="#2F6070" stroke-linejoin="round"></path>
            <path d="M29,240 L323.5,240" id="x-Axis" stroke="#2F6070" stroke-linejoin="round"></path>
            <g id="Trad-Ellipse">
                <use fill="black" fill-opacity="1" filter="url(#filter-3)" xlink:href="#path-2"></use>
                <use fill="#F3C68D" fill-rule="evenodd" xlink:href="#path-2"></use>
            </g>
            <g id="Typical-Ellipse">
                <use fill="black" fill-opacity="1" filter="url(#filter-5)" xlink:href="#path-4"></use>
                <use fill="#E69877" fill-rule="evenodd" xlink:href="#path-4"></use>
            </g>
            <g id="CH-Ellipse">
                <use fill="black" fill-opacity="1" filter="url(#filter-7)" xlink:href="#path-6"></use>
                <use fill="#CB4343" fill-rule="evenodd" xlink:href="#path-6"></use>
            </g>
        </g>
        <g id="Japanese-Text" transform="translate(8.000000, 18.000000)">
            <text id="生徒の学習効率" font-family="HiraMaruProN-W4, Hiragino Maru Gothic ProN" font-size="12" font-weight="normal" fill="#2F6070">
                <tspan x="123" y="234">生徒の学習効率</tspan>
            </text>
            <text id="教師の仕事量" transform="translate(6.000000, 108.500000) rotate(270.000000) translate(-6.000000, -108.500000) " font-family="HiraMaruProN-W4, Hiragino Maru Gothic ProN" font-size="12" font-weight="normal" fill="#2F6070">
                <tspan x="-30" y="113.5">教師の仕事量</tspan>
            </text>
            <path d="M71.312,108.744 L71.312,105.396 C71.312,104.724 71.348,104.1 71.42,103.608 C71.168,103.92 70.856,104.232 70.544,104.472 C70.46,104.532 70.364,104.568 70.268,104.568 C70.136,104.568 70.016,104.508 69.92,104.388 C69.86,104.304 69.824,104.196 69.824,104.1 C69.824,103.968 69.884,103.848 69.992,103.764 C71.012,102.96 71.708,102.096 72.368,100.968 C72.452,100.836 72.56,100.764 72.704,100.764 C72.776,100.764 72.86,100.788 72.956,100.836 C73.112,100.92 73.196,101.052 73.196,101.184 C73.196,101.256 73.184,101.316 73.148,101.376 C72.884,101.844 72.584,102.288 72.224,102.72 L72.224,108.744 C72.224,108.96 72.044,109.08 71.768,109.08 C71.492,109.08 71.312,108.96 71.312,108.744 Z M76.544,101.532 L73.856,101.532 C73.628,101.532 73.508,101.364 73.508,101.112 C73.508,100.86 73.628,100.692 73.856,100.692 L77.42,100.692 C77.924,99.96 78.392,99.036 78.692,98.256 C78.752,98.1 78.884,98.004 79.076,98.004 C79.148,98.004 79.22,98.016 79.292,98.04 C79.496,98.112 79.616,98.256 79.616,98.424 C79.616,98.472 79.604,98.532 79.58,98.58 C79.304,99.228 78.848,100.032 78.404,100.692 L80.552,100.692 C80.768,100.692 80.888,100.86 80.888,101.112 C80.888,101.364 80.768,101.532 80.552,101.532 L77.456,101.532 L77.456,103.74 L80.084,103.74 C80.3,103.74 80.42,103.908 80.42,104.148 C80.42,104.388 80.3,104.58 80.084,104.58 L77.456,104.58 L77.456,107.424 C77.588,107.46 77.732,107.484 77.876,107.508 C78.464,107.604 79.124,107.652 79.916,107.652 C80.156,107.652 80.42,107.652 80.696,107.64 L80.72,107.64 C80.96,107.64 81.116,107.832 81.116,108.108 C81.116,108.42 80.948,108.588 80.672,108.588 C80.444,108.6 80.228,108.6 80.024,108.6 C79.136,108.6 78.368,108.54 77.72,108.42 C76.208,108.144 75.248,107.484 74.564,106.284 C74.312,107.1 73.964,107.88 73.544,108.552 C73.448,108.696 73.316,108.768 73.172,108.768 C73.076,108.768 72.968,108.732 72.872,108.672 C72.74,108.576 72.668,108.444 72.668,108.3 C72.668,108.204 72.704,108.108 72.764,108.012 C73.688,106.692 74.144,104.82 74.216,103.068 C74.228,102.828 74.408,102.72 74.648,102.72 L74.684,102.72 C74.936,102.732 75.116,102.864 75.116,103.104 L75.116,103.128 C75.08,103.836 74.972,104.568 74.816,105.288 C75.2,106.068 75.764,106.704 76.544,107.1 L76.544,101.532 Z M72.968,97.992 C73.112,98.064 73.196,98.184 73.196,98.328 C73.196,98.4 73.172,98.484 73.112,98.568 C72.452,99.576 71.564,100.428 70.676,101.1 C70.58,101.172 70.472,101.22 70.364,101.22 C70.256,101.22 70.136,101.172 70.04,101.052 C69.956,100.956 69.92,100.848 69.92,100.74 C69.92,100.62 69.98,100.488 70.088,100.404 C70.988,99.768 71.816,98.988 72.356,98.112 C72.44,97.992 72.572,97.92 72.704,97.92 C72.788,97.92 72.884,97.944 72.968,97.992 Z M74.732,98.088 C74.828,98.04 74.924,98.016 75.008,98.016 C75.128,98.016 75.248,98.076 75.332,98.16 C75.74,98.664 76.064,99.168 76.328,99.744 C76.352,99.804 76.364,99.864 76.364,99.924 C76.364,100.068 76.28,100.2 76.1,100.284 C76.016,100.32 75.92,100.344 75.836,100.344 C75.668,100.344 75.524,100.272 75.464,100.116 C75.236,99.588 74.972,99.144 74.552,98.616 C74.516,98.556 74.492,98.496 74.492,98.436 C74.492,98.304 74.576,98.172 74.732,98.088 Z M87.848,103.14 L88.892,103.14 C89.42,102.396 89.888,101.424 90.188,100.692 C90.26,100.5 90.416,100.428 90.584,100.428 C90.656,100.428 90.716,100.44 90.788,100.464 C90.98,100.524 91.088,100.644 91.088,100.812 C91.088,100.86 91.076,100.92 91.052,100.992 C90.716,101.724 90.284,102.516 89.828,103.14 L92.612,103.14 C92.828,103.14 92.948,103.296 92.948,103.56 C92.948,103.8 92.828,103.992 92.612,103.992 L88.364,103.992 C89.624,105.636 91.148,106.74 92.78,107.508 C92.936,107.58 93.02,107.736 93.02,107.916 C93.02,108 92.996,108.096 92.948,108.192 C92.852,108.384 92.696,108.468 92.54,108.468 C92.456,108.468 92.384,108.444 92.3,108.408 C90.632,107.556 88.904,106.152 87.74,104.4 C87.8,104.832 87.848,105.324 87.848,105.732 L87.848,108.708 C87.848,108.912 87.68,109.032 87.404,109.032 C87.14,109.032 86.96,108.912 86.96,108.708 L86.96,105.78 C86.96,105.348 86.996,104.928 87.068,104.412 C86.108,106.044 84.284,107.58 82.844,108.36 C82.748,108.42 82.652,108.444 82.556,108.444 C82.388,108.444 82.244,108.348 82.148,108.168 C82.1,108.072 82.076,107.988 82.076,107.904 C82.076,107.736 82.172,107.58 82.352,107.496 C83.828,106.74 85.4,105.456 86.432,103.992 L82.376,103.992 C82.148,103.992 82.04,103.8 82.04,103.56 C82.04,103.296 82.148,103.14 82.376,103.14 L86.96,103.14 L86.96,100.08 L82.988,100.08 C82.772,100.08 82.652,99.9 82.652,99.648 C82.652,99.396 82.772,99.228 82.988,99.228 L86.96,99.228 L86.96,98.184 C86.96,97.968 87.128,97.848 87.404,97.848 C87.68,97.848 87.848,97.968 87.848,98.184 L87.848,99.228 L92,99.228 C92.216,99.228 92.336,99.384 92.336,99.648 C92.336,99.888 92.216,100.08 92,100.08 L87.848,100.08 L87.848,103.14 Z M84.008,100.524 C84.104,100.476 84.188,100.452 84.272,100.452 C84.416,100.452 84.536,100.512 84.608,100.644 C84.896,101.076 85.244,101.688 85.496,102.264 C85.52,102.336 85.532,102.396 85.532,102.444 C85.532,102.6 85.424,102.72 85.232,102.792 C85.148,102.828 85.076,102.84 85.004,102.84 C84.848,102.84 84.716,102.768 84.656,102.612 C84.428,102.096 84.116,101.472 83.828,101.028 C83.792,100.968 83.78,100.908 83.78,100.848 C83.78,100.716 83.852,100.596 84.008,100.524 Z M100.04,99.948 C99.932,101.772 99.668,103.452 99.248,104.736 C98.828,105.972 98.48,106.512 98.06,106.908 C97.676,107.28 97.172,107.436 96.68,107.436 C95.432,107.436 94.436,106.224 94.436,104.208 C94.436,101.22 96.524,99.06 99.8,99.06 C102.632,99.06 104.504,100.908 104.504,103.548 C104.504,105.24 103.772,106.524 102.524,107.316 C101.828,107.76 100.964,108.036 100.004,108.18 C99.956,108.192 99.908,108.192 99.872,108.192 C99.62,108.192 99.416,108.072 99.368,107.772 C99.356,107.736 99.356,107.688 99.356,107.652 C99.356,107.412 99.512,107.232 99.788,107.184 C100.664,107.064 101.588,106.764 102.188,106.32 C102.944,105.756 103.496,104.784 103.496,103.524 C103.496,101.496 102.164,100.02 100.04,99.948 Z M99.044,99.984 C96.848,100.188 95.408,101.868 95.408,104.196 C95.408,105.636 96.02,106.392 96.656,106.392 C96.932,106.392 97.208,106.296 97.46,106.044 C97.724,105.792 98,105.276 98.288,104.4 C98.66,103.272 98.96,101.628 99.044,99.984 Z M83.816,118.044 L85.436,118.044 C86.096,118.044 86.396,118.296 86.396,118.86 L86.396,121.212 L86.816,121.212 C87.02,121.212 87.128,121.356 87.128,121.572 C87.128,121.788 87.02,121.944 86.816,121.944 L86.396,121.944 L86.396,122.952 C86.396,123.624 86.024,123.888 85.16,123.888 C84.788,123.888 84.392,123.876 84.068,123.816 C83.888,123.78 83.768,123.648 83.768,123.444 C83.768,123.42 83.768,123.384 83.78,123.36 C83.816,123.144 83.96,123.048 84.116,123.048 C84.14,123.048 84.164,123.048 84.188,123.06 C84.452,123.108 84.776,123.144 85.052,123.144 C85.52,123.144 85.616,123.072 85.616,122.784 L85.616,121.944 L81.332,121.944 L81.332,123.696 C81.332,123.9 81.188,124.008 80.936,124.008 C80.696,124.008 80.528,123.9 80.528,123.696 L80.528,121.944 L80.168,121.944 C79.964,121.944 79.844,121.788 79.844,121.572 C79.844,121.356 79.964,121.212 80.168,121.212 L80.528,121.212 L80.528,118.86 C80.528,118.296 80.828,118.044 81.488,118.044 L83.036,118.044 L83.036,117.36 L80.216,117.36 C80.024,117.36 79.916,117.204 79.916,117.012 C79.916,116.796 80.024,116.664 80.216,116.664 L81.716,116.664 L81.716,115.86 L80.588,115.86 C80.42,115.86 80.312,115.704 80.312,115.536 C80.312,115.344 80.42,115.176 80.588,115.176 L81.716,115.176 L81.716,114.444 L80.324,114.444 C80.144,114.444 80.048,114.276 80.048,114.084 C80.048,113.892 80.144,113.748 80.324,113.748 L81.716,113.748 L81.716,113.184 C81.716,112.968 81.872,112.872 82.112,112.872 C82.376,112.872 82.508,112.968 82.508,113.184 L82.508,113.748 L84.332,113.748 L84.332,113.172 C84.332,112.968 84.476,112.86 84.728,112.86 C84.98,112.86 85.124,112.968 85.124,113.172 L85.124,113.748 L86.636,113.748 C86.804,113.748 86.924,113.892 86.924,114.084 C86.924,114.288 86.804,114.444 86.636,114.444 L85.124,114.444 L85.124,115.176 L86.336,115.176 C86.504,115.176 86.612,115.344 86.612,115.536 C86.612,115.716 86.504,115.86 86.336,115.86 L85.124,115.86 L85.124,116.664 L86.816,116.664 C87.008,116.664 87.116,116.796 87.116,117.012 C87.116,117.204 87.008,117.36 86.816,117.36 L83.816,117.36 L83.816,118.044 Z M83.036,121.212 L83.036,120.288 L81.332,120.288 L81.332,121.212 L83.036,121.212 Z M83.816,121.212 L85.616,121.212 L85.616,120.288 L83.816,120.288 L83.816,121.212 Z M83.036,119.652 L83.036,118.716 L81.644,118.716 C81.44,118.716 81.332,118.776 81.332,118.98 L81.332,119.652 L83.036,119.652 Z M83.816,119.652 L85.616,119.652 L85.616,118.98 C85.616,118.776 85.508,118.716 85.304,118.716 L83.816,118.716 L83.816,119.652 Z M82.508,116.664 L84.332,116.664 L84.332,115.86 L82.508,115.86 L82.508,116.664 Z M82.508,115.176 L84.332,115.176 L84.332,114.444 L82.508,114.444 L82.508,115.176 Z M76.328,114.912 L79.484,114.912 C79.7,114.912 79.808,115.068 79.808,115.32 C79.808,115.548 79.7,115.728 79.484,115.728 L76.328,115.728 C76.112,115.728 76.004,115.548 76.004,115.32 C76.004,115.08 76.112,114.912 76.328,114.912 Z M79.244,117.48 L76.628,117.48 C76.424,117.48 76.316,117.3 76.316,117.084 C76.316,116.868 76.424,116.688 76.628,116.688 L79.244,116.688 C79.436,116.688 79.544,116.868 79.544,117.084 C79.544,117.288 79.436,117.48 79.244,117.48 Z M79.244,119.208 L76.616,119.208 C76.412,119.208 76.304,119.016 76.304,118.812 C76.304,118.596 76.412,118.416 76.616,118.416 L79.244,118.416 C79.448,118.416 79.556,118.596 79.556,118.8 C79.556,119.016 79.448,119.208 79.244,119.208 Z M76.64,113.172 L79.256,113.172 C79.448,113.172 79.568,113.34 79.568,113.58 C79.568,113.808 79.448,113.964 79.256,113.964 L76.64,113.964 C76.448,113.964 76.328,113.808 76.328,113.58 C76.328,113.34 76.448,113.172 76.64,113.172 Z M79.592,120.96 L79.592,122.856 C79.592,123.492 79.304,123.744 78.668,123.744 L77.276,123.744 C76.64,123.744 76.352,123.492 76.352,122.856 L76.352,120.96 C76.352,120.348 76.64,120.108 77.276,120.108 L78.668,120.108 C79.304,120.108 79.592,120.348 79.592,120.96 Z M77.168,121.092 L77.168,122.7 C77.168,122.916 77.288,123 77.492,123 L78.452,123 C78.656,123 78.776,122.916 78.776,122.7 L78.776,121.092 C78.776,120.876 78.656,120.816 78.452,120.816 L77.492,120.816 C77.288,120.816 77.168,120.876 77.168,121.092 Z M91.508,119.484 L94.148,119.46 C94.064,119.04 94.016,118.596 93.98,118.14 L93.98,118.116 C93.98,117.9 94.148,117.78 94.4,117.768 L94.436,117.768 C94.676,117.768 94.832,117.912 94.844,118.116 C94.868,118.584 94.928,119.028 95.024,119.448 L98.696,119.424 C98.888,119.436 99.008,119.568 99.008,119.784 C99.008,120 98.888,120.132 98.696,120.168 L95.216,120.192 C95.348,120.588 95.504,120.96 95.708,121.308 C95.744,121.368 95.768,121.416 95.804,121.464 C96.2,121.164 96.56,120.84 96.848,120.492 C96.92,120.408 97.04,120.36 97.148,120.36 C97.244,120.36 97.34,120.396 97.424,120.456 C97.52,120.528 97.568,120.636 97.568,120.744 C97.568,120.84 97.532,120.924 97.472,120.996 C97.148,121.38 96.74,121.752 96.284,122.1 C96.656,122.532 97.1,122.856 97.568,123.048 C97.64,123.084 97.712,123.096 97.772,123.096 C97.892,123.096 98,123.036 98.084,122.904 C98.204,122.712 98.288,122.34 98.324,122.028 C98.348,121.8 98.48,121.704 98.66,121.704 C98.684,121.704 98.708,121.704 98.744,121.716 C98.972,121.74 99.08,121.884 99.08,122.088 L99.08,122.148 C99.02,122.676 98.84,123.216 98.624,123.528 C98.432,123.804 98.144,123.948 97.808,123.948 C97.592,123.948 97.364,123.9 97.124,123.78 C96.584,123.54 96.044,123.132 95.588,122.58 C94.772,123.096 93.848,123.528 92.984,123.768 C92.936,123.78 92.876,123.792 92.828,123.792 C92.636,123.792 92.492,123.696 92.432,123.516 C92.42,123.456 92.408,123.408 92.408,123.36 C92.408,123.168 92.528,123.036 92.732,122.976 C93.56,122.748 94.376,122.388 95.108,121.944 C95.048,121.848 95,121.752 94.94,121.656 C94.688,121.212 94.484,120.72 94.328,120.204 L91.508,120.228 L91.508,121.08 C92.12,120.996 92.684,120.888 93.128,120.792 C93.176,120.78 93.212,120.78 93.26,120.78 C93.428,120.78 93.524,120.888 93.56,121.056 C93.572,121.092 93.572,121.14 93.572,121.176 C93.572,121.344 93.476,121.476 93.296,121.512 C92.804,121.632 92.18,121.752 91.508,121.86 L91.508,123.06 C91.508,123.708 91.088,123.984 90.2,123.984 C89.876,123.984 89.528,123.948 89.24,123.876 C89.048,123.828 88.94,123.696 88.94,123.516 C88.94,123.468 88.952,123.42 88.952,123.372 C89.012,123.168 89.156,123.072 89.312,123.072 C89.348,123.072 89.384,123.072 89.408,123.084 C89.624,123.144 89.888,123.18 90.2,123.18 C90.548,123.18 90.692,123.12 90.692,122.844 L90.692,121.98 C89.948,122.076 89.192,122.148 88.52,122.196 L88.496,122.196 C88.316,122.196 88.16,122.028 88.148,121.812 L88.148,121.788 C88.148,121.572 88.28,121.416 88.472,121.404 C89.156,121.368 89.936,121.296 90.692,121.2 L90.692,120.228 L88.244,120.252 C88.04,120.216 87.932,120.084 87.932,119.868 C87.932,119.652 88.04,119.52 88.244,119.508 L90.692,119.484 L90.692,118.872 C90.104,118.956 89.492,119.016 88.928,119.052 L88.892,119.052 C88.664,119.052 88.568,118.932 88.544,118.752 L88.544,118.692 C88.544,118.524 88.652,118.344 88.856,118.332 C90.176,118.26 91.64,118.044 92.564,117.756 C92.624,117.732 92.684,117.72 92.732,117.72 C92.876,117.72 92.996,117.792 93.068,117.96 C93.08,118.008 93.092,118.056 93.092,118.104 C93.092,118.248 93.008,118.38 92.804,118.44 C92.42,118.56 91.976,118.656 91.508,118.74 L91.508,119.484 Z M92.996,114.636 L88.88,114.636 C88.688,114.636 88.58,114.468 88.58,114.276 C88.58,114.072 88.688,113.916 88.88,113.916 L91.376,113.916 C91.22,113.676 91.028,113.412 90.896,113.28 C90.848,113.22 90.824,113.16 90.824,113.088 C90.824,112.968 90.908,112.86 91.04,112.8 C91.124,112.764 91.208,112.74 91.292,112.74 C91.436,112.74 91.568,112.8 91.664,112.92 C91.868,113.148 92.12,113.508 92.372,113.916 L94.52,113.916 C94.772,113.604 95.036,113.232 95.156,112.98 C95.24,112.812 95.372,112.74 95.528,112.74 C95.6,112.74 95.66,112.752 95.732,112.776 C95.924,112.824 96.044,112.944 96.044,113.088 C96.044,113.136 96.032,113.196 95.996,113.244 C95.9,113.424 95.696,113.688 95.504,113.916 L98.084,113.916 C98.276,113.916 98.396,114.06 98.396,114.276 C98.396,114.468 98.276,114.636 98.084,114.636 L93.812,114.636 L93.812,115.356 L97.436,115.356 C97.604,115.356 97.712,115.512 97.712,115.716 C97.712,115.884 97.604,116.076 97.436,116.076 L93.812,116.076 L93.812,116.832 L98.66,116.832 C98.852,116.832 98.96,116.964 98.96,117.18 C98.96,117.372 98.852,117.552 98.66,117.552 L88.34,117.552 C88.148,117.552 88.04,117.372 88.04,117.18 C88.04,116.988 88.148,116.832 88.34,116.832 L92.996,116.832 L92.996,116.076 L89.528,116.076 C89.348,116.076 89.252,115.884 89.252,115.716 C89.252,115.524 89.348,115.356 89.528,115.356 L92.996,115.356 L92.996,114.636 Z M96.332,117.78 C96.692,117.96 97.232,118.332 97.52,118.572 C97.64,118.668 97.7,118.776 97.7,118.884 C97.7,118.956 97.676,119.04 97.604,119.112 C97.52,119.22 97.412,119.268 97.292,119.268 C97.208,119.268 97.112,119.232 97.028,119.172 C96.728,118.932 96.236,118.584 95.912,118.404 C95.792,118.332 95.72,118.224 95.72,118.104 C95.72,118.032 95.744,117.948 95.804,117.876 C95.888,117.768 95.996,117.72 96.104,117.72 C96.176,117.72 96.248,117.744 96.332,117.78 Z" id="従来の-講義-copy" fill="#2F6070"></path>
            <path d="M218.04,10.968 L207.948,10.968 C207.696,10.968 207.552,10.692 207.552,10.44 C207.552,10.176 207.696,9.924 207.948,9.924 L218.04,9.924 C218.292,9.924 218.436,10.176 218.436,10.44 C218.436,10.692 218.292,10.968 218.04,10.968 Z M221.796,7.392 C221.856,7.368 221.916,7.356 221.976,7.356 C222.108,7.356 222.228,7.404 222.288,7.524 C222.54,7.932 222.792,8.496 222.936,8.94 C222.948,9 222.96,9.06 222.96,9.108 C222.96,9.276 222.876,9.384 222.72,9.432 C222.672,9.456 222.612,9.468 222.552,9.468 C222.408,9.468 222.264,9.384 222.204,9.192 C222.084,8.82 221.856,8.304 221.616,7.86 C221.592,7.812 221.58,7.764 221.58,7.716 C221.58,7.56 221.688,7.44 221.796,7.392 Z M224.268,6.948 L224.268,9.684 C224.292,9.672 224.328,9.672 224.352,9.66 C224.4,9.648 224.436,9.648 224.472,9.648 C224.652,9.648 224.748,9.768 224.772,9.972 L224.772,10.044 C224.772,10.212 224.7,10.368 224.52,10.416 C224.436,10.44 224.352,10.452 224.268,10.476 L224.268,14.868 C224.268,15.588 223.86,15.888 223.104,15.888 C222.78,15.888 222.36,15.852 222.108,15.804 C221.916,15.768 221.772,15.612 221.772,15.408 C221.772,15.372 221.772,15.336 221.784,15.3 C221.832,15.072 221.976,14.964 222.144,14.964 C222.18,14.964 222.216,14.964 222.252,14.976 C222.456,15.024 222.732,15.072 222.984,15.072 C223.356,15.072 223.452,14.964 223.452,14.604 L223.452,10.656 C223.188,10.704 222.912,10.752 222.636,10.8 L222.636,13.668 C222.636,13.872 222.492,13.98 222.264,13.98 C222.048,13.98 221.892,13.872 221.892,13.668 L221.892,10.908 C221.616,10.944 221.352,10.98 221.076,11.016 C220.992,12.888 220.716,14.496 220.14,15.624 C220.044,15.804 219.912,15.888 219.756,15.888 C219.672,15.888 219.6,15.864 219.516,15.828 C219.348,15.744 219.276,15.624 219.276,15.48 C219.276,15.408 219.3,15.312 219.348,15.228 C219.84,14.268 220.128,12.888 220.224,11.112 C220.056,11.124 219.888,11.148 219.72,11.16 L219.672,11.16 C219.456,11.16 219.324,11.016 219.3,10.752 L219.3,10.692 C219.3,10.44 219.444,10.332 219.66,10.32 C219.852,10.308 220.056,10.296 220.248,10.272 C220.26,10.068 220.26,9.852 220.26,9.636 L220.26,6.948 C220.26,6.288 220.548,6.036 221.196,6.036 L221.676,6.036 C221.82,5.724 221.964,5.364 222.024,5.112 C222.072,4.956 222.204,4.86 222.396,4.86 C222.444,4.86 222.492,4.86 222.552,4.872 C222.768,4.92 222.876,5.028 222.876,5.184 C222.876,5.208 222.876,5.244 222.864,5.268 C222.804,5.508 222.684,5.808 222.576,6.036 L223.356,6.036 C224.004,6.036 224.268,6.288 224.268,6.948 Z M223.452,9.852 L223.452,7.116 C223.452,6.864 223.344,6.792 223.104,6.792 L221.448,6.792 C221.22,6.792 221.1,6.864 221.1,7.116 L221.1,10.188 C221.892,10.104 222.672,9.996 223.452,9.852 Z M225.504,10.92 L225.132,10.92 C224.904,10.92 224.796,10.74 224.796,10.512 C224.796,10.284 224.904,10.104 225.132,10.104 L229.092,10.104 C229.62,10.104 229.908,10.404 229.908,10.836 C229.908,10.968 229.872,11.124 229.812,11.292 C229.488,12.096 228.936,12.924 228.228,13.668 C228.828,14.208 229.536,14.652 230.424,15.036 C230.58,15.108 230.676,15.252 230.676,15.42 C230.676,15.504 230.652,15.588 230.616,15.684 C230.544,15.828 230.388,15.936 230.208,15.936 C230.124,15.936 230.052,15.924 229.968,15.888 C229.08,15.492 228.3,14.964 227.604,14.28 C226.848,14.976 225.972,15.552 225.072,15.936 C224.988,15.972 224.904,15.996 224.82,15.996 C224.676,15.996 224.544,15.936 224.46,15.78 C224.412,15.696 224.388,15.6 224.388,15.516 C224.388,15.36 224.484,15.216 224.664,15.132 C225.516,14.784 226.332,14.256 227.028,13.644 C226.38,12.816 225.888,11.904 225.504,10.92 Z M228.684,10.92 L226.344,10.92 C226.68,11.7 227.1,12.408 227.64,13.056 C228.192,12.48 228.624,11.844 228.864,11.244 C228.9,11.172 228.912,11.112 228.912,11.064 C228.912,10.968 228.84,10.92 228.684,10.92 Z M228.048,8.472 L228.048,6.384 C228.048,6.156 227.928,6.084 227.724,6.084 L226.8,6.084 C226.596,6.084 226.476,6.156 226.476,6.384 C226.476,7.884 226.224,8.652 225.504,9.42 C225.396,9.528 225.276,9.588 225.144,9.588 C225.036,9.588 224.916,9.54 224.82,9.456 C224.724,9.384 224.676,9.264 224.676,9.132 C224.676,9.036 224.712,8.928 224.796,8.844 C225.492,8.148 225.6,7.56 225.6,6.18 C225.6,5.544 225.924,5.292 226.548,5.292 L227.964,5.292 C228.6,5.292 228.912,5.556 228.912,6.168 L228.912,8.184 C228.912,8.436 229.008,8.496 229.32,8.496 C229.572,8.496 229.68,8.424 229.74,8.232 C229.8,8.04 229.836,7.716 229.848,7.416 C229.86,7.224 229.992,7.092 230.232,7.092 L230.268,7.092 C230.508,7.104 230.652,7.26 230.652,7.464 C230.64,7.992 230.568,8.508 230.4,8.82 C230.232,9.12 229.968,9.252 229.272,9.252 C228.348,9.252 228.048,9.096 228.048,8.472 Z M240.948,7.476 L237.948,7.476 C237.648,8.076 237.312,8.64 236.964,9.06 C236.868,9.18 236.736,9.228 236.604,9.228 C236.484,9.228 236.352,9.18 236.268,9.108 C236.184,9.024 236.136,8.916 236.136,8.796 C236.136,8.676 236.172,8.556 236.268,8.46 C236.904,7.716 237.528,6.396 237.828,5.172 C237.888,4.944 238.056,4.86 238.248,4.86 C238.296,4.86 238.344,4.86 238.392,4.872 C238.584,4.908 238.728,5.052 238.728,5.256 C238.728,5.304 238.728,5.34 238.716,5.388 C238.608,5.784 238.476,6.18 238.332,6.588 L241.224,6.588 C241.968,6.588 242.292,6.912 242.292,7.656 L242.292,7.896 C242.292,11.352 242.04,13.524 241.656,14.736 C241.404,15.528 240.876,15.804 240.012,15.804 C239.496,15.804 238.932,15.732 238.524,15.624 C238.332,15.576 238.236,15.408 238.236,15.204 C238.236,15.156 238.248,15.096 238.26,15.036 C238.32,14.82 238.476,14.712 238.656,14.712 C238.704,14.712 238.752,14.724 238.8,14.736 C239.1,14.832 239.496,14.892 239.94,14.892 C240.456,14.892 240.696,14.772 240.84,14.232 C241.128,13.188 241.344,11.04 241.344,7.848 C241.344,7.56 241.224,7.476 240.948,7.476 Z M234.132,6.612 L234.888,6.612 C235.572,6.612 235.896,6.876 235.896,7.548 L235.896,14.16 C235.896,14.844 235.56,15.132 234.888,15.132 L232.812,15.132 C232.128,15.132 231.792,14.844 231.792,14.16 L231.792,7.548 C231.792,6.876 232.116,6.612 232.812,6.612 L233.22,6.612 C233.412,6.12 233.556,5.592 233.664,5.148 C233.712,4.968 233.856,4.872 234.06,4.872 C234.108,4.872 234.168,4.872 234.216,4.884 C234.468,4.932 234.576,5.052 234.576,5.244 C234.576,5.28 234.576,5.316 234.564,5.34 C234.456,5.748 234.3,6.228 234.132,6.612 Z M232.704,10.26 L234.984,10.26 L234.984,7.752 C234.984,7.488 234.864,7.428 234.636,7.428 L233.064,7.428 C232.824,7.428 232.704,7.488 232.704,7.752 L232.704,10.26 Z M232.704,11.064 L232.704,13.968 C232.704,14.244 232.824,14.304 233.064,14.304 L234.636,14.304 C234.864,14.304 234.984,14.244 234.984,13.968 L234.984,11.064 L232.704,11.064 Z M237.612,9.168 C237.708,9.108 237.828,9.072 237.936,9.072 C238.044,9.072 238.152,9.108 238.236,9.216 C238.836,9.936 239.412,10.956 239.772,11.724 C239.808,11.796 239.82,11.868 239.82,11.94 C239.82,12.108 239.736,12.264 239.568,12.348 C239.484,12.384 239.388,12.408 239.304,12.408 C239.148,12.408 238.992,12.324 238.908,12.132 C238.608,11.448 238.068,10.44 237.528,9.744 C237.468,9.66 237.432,9.576 237.432,9.48 C237.432,9.36 237.492,9.24 237.612,9.168 Z M251.244,6.792 C252.156,7.14 253.116,7.656 253.788,8.112 C253.956,8.22 254.028,8.4 254.028,8.556 C254.028,8.652 254.004,8.748 253.956,8.832 C253.86,8.976 253.704,9.06 253.548,9.06 C253.44,9.06 253.344,9.024 253.248,8.964 C252.54,8.472 251.64,8.004 250.74,7.644 C250.584,7.584 250.512,7.44 250.512,7.284 C250.512,7.188 250.536,7.092 250.584,7.008 C250.692,6.84 250.848,6.756 251.028,6.756 C251.1,6.756 251.172,6.768 251.244,6.792 Z M247.128,8.112 C246.552,9.996 245.772,11.892 244.872,13.464 C244.752,13.668 244.596,13.776 244.428,13.776 C244.32,13.776 244.212,13.74 244.092,13.668 C243.936,13.572 243.864,13.428 243.864,13.272 C243.864,13.164 243.9,13.032 243.972,12.912 C244.8,11.508 245.604,9.792 246.096,8.172 C245.652,8.196 245.184,8.208 244.716,8.208 L244.26,8.208 C243.984,8.208 243.84,8.028 243.84,7.74 C243.84,7.452 244.008,7.272 244.284,7.272 L244.8,7.272 C245.316,7.272 245.856,7.26 246.372,7.236 C246.54,6.648 246.684,6.048 246.804,5.436 C246.828,5.172 247.008,5.04 247.248,5.04 C247.284,5.04 247.32,5.04 247.368,5.052 C247.632,5.1 247.788,5.232 247.788,5.472 C247.788,5.52 247.788,5.568 247.776,5.628 C247.668,6.12 247.548,6.636 247.416,7.152 C248.004,7.104 248.568,7.056 249.072,6.984 C249.108,6.972 249.144,6.972 249.18,6.972 C249.42,6.972 249.564,7.116 249.612,7.368 L249.612,7.44 C249.612,7.668 249.468,7.848 249.18,7.896 C248.556,7.992 247.848,8.052 247.128,8.112 Z M251.7,12.192 C252.504,12.576 253.356,13.14 253.956,13.74 C254.076,13.86 254.136,14.004 254.136,14.136 C254.136,14.256 254.088,14.376 254.004,14.472 C253.896,14.58 253.776,14.64 253.656,14.64 C253.536,14.64 253.404,14.58 253.296,14.484 C252.828,14.016 252.24,13.524 251.736,13.236 C251.76,13.38 251.76,13.536 251.76,13.644 C251.7,14.952 250.86,15.564 249.228,15.564 C247.728,15.564 246.732,14.772 246.732,13.644 C246.732,12.492 247.752,11.664 249.24,11.664 C249.744,11.664 250.236,11.736 250.728,11.868 C250.656,11.196 250.596,10.248 250.596,9.468 C250.596,9.12 250.8,8.976 251.064,8.976 C251.352,8.976 251.556,9.132 251.556,9.468 C251.556,10.5 251.604,11.34 251.7,12.192 Z M250.8,12.828 C250.32,12.612 249.78,12.516 249.264,12.516 C248.292,12.516 247.68,12.972 247.68,13.632 C247.68,14.292 248.268,14.664 249.252,14.664 C250.272,14.664 250.824,14.28 250.824,13.428 C250.824,13.236 250.824,13.068 250.8,12.828 Z M202.56,20.976 L210.648,20.976 C211.188,20.976 211.5,21.156 211.716,21.432 C211.848,21.612 211.92,21.84 211.92,22.104 C211.92,22.332 211.86,22.596 211.74,22.86 C211.128,24.156 209.808,25.308 208.596,25.776 C208.5,25.812 208.416,25.836 208.332,25.836 C208.164,25.836 208.008,25.764 207.924,25.608 C207.876,25.524 207.852,25.428 207.852,25.344 C207.852,25.14 207.972,24.972 208.152,24.888 C209.208,24.432 210.216,23.58 210.768,22.56 C210.816,22.452 210.852,22.344 210.852,22.26 C210.852,22.092 210.732,21.972 210.456,21.972 L202.56,21.972 C202.272,21.972 202.128,21.792 202.128,21.48 C202.128,21.168 202.284,20.976 202.56,20.976 Z M206.676,23.052 C207,23.052 207.204,23.22 207.204,23.544 C207.192,25.644 206.928,26.832 206.448,27.792 C205.788,29.124 204.636,30 203.328,30.432 C203.244,30.468 203.16,30.48 203.076,30.48 C202.884,30.48 202.74,30.384 202.644,30.168 C202.608,30.084 202.596,30 202.596,29.928 C202.596,29.736 202.704,29.58 202.944,29.496 C204.084,29.112 205.032,28.344 205.512,27.312 C205.92,26.436 206.124,25.428 206.124,23.568 C206.124,23.22 206.352,23.052 206.676,23.052 Z M221.688,22.74 L217.824,22.8 C217.128,23.88 216.168,24.876 215.112,25.572 C215.004,25.632 214.908,25.668 214.8,25.668 C214.644,25.668 214.5,25.584 214.392,25.452 C214.332,25.368 214.296,25.26 214.296,25.14 C214.296,24.984 214.368,24.804 214.548,24.696 C215.736,23.928 216.936,22.608 217.74,20.604 C217.824,20.388 217.968,20.256 218.208,20.256 C218.268,20.256 218.34,20.268 218.424,20.292 C218.676,20.352 218.796,20.532 218.796,20.724 C218.796,20.772 218.784,20.832 218.772,20.88 C218.7,21.132 218.532,21.468 218.304,21.864 L222.06,21.792 C222.828,21.78 223.308,22.212 223.308,22.992 C223.308,23.136 223.296,23.28 223.26,23.448 C222.54,26.844 220.152,29.592 216.06,30.576 C216.012,30.588 215.964,30.588 215.916,30.588 C215.676,30.588 215.496,30.468 215.424,30.24 C215.412,30.18 215.4,30.12 215.4,30.06 C215.4,29.844 215.532,29.664 215.796,29.604 C219.3,28.68 221.448,26.544 222.168,23.292 C222.18,23.208 222.192,23.148 222.192,23.076 C222.192,22.848 222.072,22.74 221.736,22.74 L221.688,22.74 Z M230.832,24.888 L226.32,24.888 C226.044,24.888 225.9,24.672 225.9,24.396 C225.9,24.132 226.044,23.928 226.332,23.928 L235.692,23.928 C235.992,23.928 236.124,24.132 236.124,24.396 C236.124,24.672 235.992,24.888 235.704,24.888 L231.9,24.888 C231.888,26.328 231.576,27.492 230.964,28.428 C230.328,29.436 229.284,30.132 228.072,30.456 C227.976,30.48 227.892,30.492 227.808,30.492 C227.604,30.492 227.436,30.396 227.364,30.204 C227.34,30.132 227.328,30.06 227.328,29.988 C227.328,29.772 227.448,29.568 227.676,29.508 C228.732,29.244 229.62,28.632 230.112,27.804 C230.58,27.048 230.82,26.136 230.832,24.888 Z M227.352,20.904 L234.648,20.904 C234.948,20.904 235.08,21.12 235.08,21.396 C235.08,21.66 234.924,21.9 234.648,21.9 L227.352,21.9 C227.076,21.9 226.92,21.66 226.92,21.396 C226.92,21.12 227.064,20.904 227.352,20.904 Z M243.876,25.392 L243.876,30.156 C243.876,30.408 243.612,30.576 243.372,30.576 C243.132,30.576 242.892,30.42 242.892,30.144 L242.892,25.944 C241.8,26.616 240.588,27.18 239.604,27.516 C239.52,27.54 239.448,27.552 239.376,27.552 C239.172,27.552 239.028,27.444 238.968,27.264 C238.944,27.192 238.932,27.12 238.932,27.048 C238.932,26.844 239.04,26.676 239.256,26.604 C240.36,26.232 241.608,25.656 242.904,24.828 C243.948,24.156 244.74,23.484 245.496,22.62 C245.58,22.512 245.688,22.464 245.808,22.464 C245.928,22.464 246.048,22.524 246.168,22.62 C246.276,22.728 246.336,22.848 246.336,22.98 C246.336,23.088 246.288,23.208 246.204,23.316 C245.616,23.988 244.764,24.72 243.876,25.392 Z M250.092,21.588 L257.352,21.588 C257.928,21.588 258.276,21.732 258.504,22.02 C258.672,22.236 258.756,22.536 258.756,22.884 C258.756,22.992 258.744,23.1 258.732,23.22 C258.216,26.868 255.696,29.604 251.712,30.588 C251.628,30.612 251.556,30.624 251.484,30.624 C251.268,30.624 251.1,30.504 251.04,30.288 C251.016,30.216 251.016,30.156 251.016,30.096 C251.016,29.856 251.148,29.664 251.4,29.592 C254.856,28.68 257.208,26.412 257.604,23.184 C257.616,23.124 257.616,23.064 257.616,23.004 C257.616,22.692 257.46,22.608 257.088,22.608 L250.092,22.608 C249.816,22.608 249.66,22.392 249.66,22.092 C249.66,21.804 249.828,21.588 250.092,21.588 Z M257.82,20.22 C257.82,20.052 257.988,19.896 258.18,19.896 C258.348,19.896 258.42,19.968 258.504,20.064 C258.84,20.472 259.224,21.084 259.416,21.492 C259.452,21.576 259.476,21.66 259.476,21.816 C259.476,21.996 259.296,22.128 259.104,22.128 C258.912,22.128 258.816,22.032 258.756,21.888 C258.564,21.456 258.228,20.904 257.928,20.496 C257.856,20.412 257.82,20.316 257.82,20.22 Z M259.368,19.824 C259.368,19.632 259.548,19.5 259.74,19.5 C259.872,19.5 259.956,19.572 260.052,19.668 C260.34,20.004 260.724,20.64 260.928,21.06 C260.964,21.132 260.976,21.24 260.976,21.312 C260.976,21.552 260.808,21.672 260.604,21.672 C260.424,21.672 260.352,21.588 260.28,21.456 C260.052,20.976 259.776,20.496 259.488,20.1 C259.392,19.98 259.368,19.92 259.368,19.824 Z M203.724,35.736 L210.3,35.736 C210.552,35.736 210.72,35.964 210.72,36.228 C210.72,36.48 210.552,36.732 210.3,36.732 L203.724,36.732 C203.472,36.732 203.304,36.48 203.304,36.228 C203.304,35.964 203.472,35.736 203.724,35.736 Z M202.8,38.544 L210.192,38.544 C210.756,38.544 211.104,38.748 211.308,39.084 C211.416,39.264 211.464,39.48 211.464,39.732 C211.464,39.912 211.44,40.104 211.392,40.308 C210.804,42.876 208.404,44.952 205.068,45.432 C205.032,45.444 204.996,45.444 204.96,45.444 C204.684,45.444 204.492,45.276 204.456,45 C204.444,44.964 204.444,44.928 204.444,44.892 C204.444,44.64 204.6,44.46 204.864,44.412 C207.756,43.968 209.808,42.264 210.336,40.14 C210.36,40.056 210.372,39.972 210.372,39.9 C210.372,39.672 210.24,39.54 209.844,39.54 L202.8,39.54 C202.548,39.54 202.392,39.3 202.392,39.048 C202.392,38.784 202.548,38.544 202.8,38.544 Z M223.56,41.052 L214.428,41.052 C214.128,41.052 213.96,40.86 213.96,40.536 C213.96,40.224 214.128,39.996 214.44,39.996 L223.548,39.996 C223.86,39.996 224.028,40.224 224.028,40.536 C224.028,40.86 223.86,41.052 223.56,41.052 Z M227.496,36.672 L234.54,36.672 C234.816,36.672 234.984,36.948 234.984,37.212 C234.984,37.5 234.816,37.752 234.552,37.752 L227.496,37.752 C227.22,37.752 227.052,37.5 227.052,37.212 C227.052,36.948 227.22,36.672 227.496,36.672 Z M226.5,43.308 L235.536,43.308 C235.824,43.308 235.98,43.584 235.98,43.848 C235.98,44.136 235.824,44.4 235.548,44.4 L226.488,44.4 C226.224,44.4 226.056,44.136 226.056,43.848 C226.056,43.584 226.224,43.308 226.5,43.308 Z M239.544,36.312 C240.42,36.864 241.512,37.716 242.208,38.568 C242.304,38.688 242.352,38.82 242.352,38.952 C242.352,39.096 242.292,39.24 242.184,39.36 C242.088,39.468 241.956,39.528 241.812,39.528 C241.668,39.528 241.512,39.456 241.368,39.3 C240.708,38.544 239.724,37.692 238.86,37.104 C238.728,37.008 238.668,36.864 238.668,36.72 C238.668,36.6 238.716,36.468 238.8,36.372 C238.908,36.24 239.04,36.192 239.184,36.192 C239.316,36.192 239.436,36.24 239.544,36.312 Z M247.584,37.188 C247.836,37.26 247.992,37.428 247.992,37.68 C247.992,37.752 247.98,37.824 247.968,37.896 C247.476,39.936 246.336,41.88 244.668,43.14 C243.216,44.232 240.996,44.94 239.136,45.012 L239.112,45.012 C238.8,45.012 238.572,44.832 238.548,44.532 L238.548,44.472 C238.548,44.184 238.728,43.956 239.028,43.944 C240.804,43.86 242.844,43.164 244.044,42.24 C245.448,41.148 246.492,39.396 246.924,37.62 C247.008,37.296 247.188,37.164 247.404,37.164 C247.464,37.164 247.524,37.176 247.584,37.188 Z M257.304,37.776 L253.44,37.836 C252.744,38.916 251.784,39.912 250.728,40.608 C250.62,40.68 250.524,40.704 250.416,40.704 C250.26,40.704 250.116,40.632 250.008,40.488 C249.948,40.404 249.912,40.296 249.912,40.188 C249.912,40.02 249.984,39.852 250.164,39.732 C251.352,38.964 252.552,37.644 253.356,35.64 C253.44,35.424 253.584,35.292 253.824,35.292 C253.884,35.292 253.956,35.304 254.04,35.328 C254.292,35.4 254.412,35.568 254.412,35.772 C254.412,35.82 254.4,35.868 254.388,35.916 C254.316,36.168 254.148,36.504 253.92,36.9 L257.676,36.828 C258.444,36.816 258.924,37.248 258.924,38.028 C258.924,38.172 258.912,38.316 258.876,38.484 C258.156,41.88 255.768,44.628 251.676,45.612 C251.628,45.624 251.58,45.624 251.532,45.624 C251.304,45.624 251.112,45.504 251.04,45.276 C251.028,45.216 251.016,45.156 251.016,45.108 C251.016,44.88 251.16,44.7 251.412,44.64 C254.916,43.716 257.064,41.58 257.784,38.328 C257.796,38.244 257.808,38.172 257.808,38.112 C257.808,37.884 257.688,37.776 257.352,37.776 L257.304,37.776 Z M257.736,35.34 C257.736,35.184 257.892,35.016 258.084,35.016 C258.216,35.016 258.3,35.052 258.396,35.148 C258.768,35.52 259.2,36.096 259.428,36.492 C259.464,36.564 259.512,36.648 259.512,36.804 C259.512,36.984 259.344,37.14 259.116,37.14 C258.972,37.14 258.876,37.08 258.804,36.936 C258.552,36.492 258.192,36 257.856,35.628 C257.784,35.544 257.736,35.448 257.736,35.34 Z M259.236,34.788 C259.236,34.632 259.416,34.476 259.584,34.476 C259.716,34.476 259.8,34.524 259.908,34.62 C260.22,34.92 260.676,35.544 260.892,35.928 C260.928,36 260.964,36.096 260.964,36.228 C260.964,36.372 260.82,36.564 260.592,36.564 C260.448,36.564 260.364,36.504 260.28,36.372 C260.016,35.916 259.704,35.448 259.38,35.1 C259.272,34.992 259.236,34.932 259.236,34.788 Z" id="一般的な-アクティブ-ラーニング-copy" fill="#2F6070"></path>
            <text id="Challenge-Hub" font-family="HiraMaruProN-W4, Hiragino Maru Gothic ProN" font-size="12" font-weight="normal" fill="#FFFFFF">
                <tspan x="200.264" y="153">Challenge-Hub</tspan>
            </text>
        </g>
    </g>
</svg>