<?xml version="1.0" encoding="UTF-8"?>
<svg width="445px" height="326px" viewBox="0 0 445 326" version="1.1" xmlns="http://www.w3.org/2000/svg" xmlns:xlink="http://www.w3.org/1999/xlink">
    <!-- Generator: Sketch 55.2 (78181) - https://sketchapp.com -->
    <title>effort-efficiency</title>
    <desc>Created with Sketch.</desc>
    <defs>
        <polygon id="path-1" points="0 0 1152 0 1152 864 0 864"></polygon>
    </defs>
    <g id="Page-1" stroke="none" stroke-width="1" fill="none" fill-rule="evenodd">
        <g id="effort-efficiency" transform="translate(-347.000000, -226.000000)">
            <mask id="mask-2" fill="white">
                <use xlink:href="#path-1"></use>
            </mask>
            <g id="Shape"></g>
            <g id="Group" mask="url(#mask-2)">
                <polygon id="Shape" fill="#D2EADC" points="346.44516 225.96616 792.42572 225.96616 792.42572 552.8169 346.44516 552.8169"></polygon>
                <path d="M400.23666,288.3452 L400.23666,510.45009" id="Shape" fill-opacity="0" fill="#000000"></path>
                <path d="M400.23666,288.3452 L400.23666,510.45009" id="Shape" stroke="#2F6070" stroke-linejoin="round"></path>
                <path d="M401.2147,510.46115 L694.623,510.46115" id="Shape" fill-opacity="0" fill="#000000"></path>
                <path d="M401.2147,510.46115 L694.623,510.46115" id="Shape" stroke="#2F6070" stroke-linejoin="round"></path>
                <polygon id="Shape" fill-opacity="0" fill="#000000" points="364.03787 477.62323 364.03787 323.05359 400.23666 323.05359 400.23666 477.62323"></polygon>
                <polygon id="Shape" fill-opacity="0" fill="#000000" points="454.5084 510.44968 641.3282 510.515903 641.3282 552.890933 454.5084 552.82471"></polygon>
                <path d="M422.73132,400.3384 L422.73132,400.3384 C422.73132,382.630667 443.09103,368.275717 468.20605,368.275717 L468.20605,368.275717 C493.32107,368.275717 513.68078,382.630667 513.68078,400.3384 L513.68078,400.3384 C513.68078,418.046133 493.32107,432.401083 468.20605,432.401083 L468.20605,432.401083 C443.09103,432.401083 422.73132,418.046133 422.73132,400.3384 Z" id="Shape" fill="#F3C68D"></path>
                <path d="M422.73132,400.3384 L422.73132,400.3384 C422.73132,382.630667 443.09103,368.275717 468.20605,368.275717 L468.20605,368.275717 C493.32107,368.275717 513.68078,382.630667 513.68078,400.3384 L513.68078,400.3384 C513.68078,418.046133 493.32107,432.401083 468.20605,432.401083 L468.20605,432.401083 C443.09103,432.401083 422.73132,418.046133 422.73132,400.3384 Z" id="Shape" stroke="#2F6070" stroke-linejoin="round"></path>
                <path d="M574.0027,333.198887 L574.0027,333.198887 C574.0027,307.241501 596.612374,286.198887 624.5027,286.198887 L624.5027,286.198887 C652.393108,286.198887 675.0027,307.241501 675.0027,333.198887 L675.0027,333.198887 C675.0027,359.156273 652.393108,380.198887 624.5027,380.198887 L624.5027,380.198887 C596.612374,380.198887 574.0027,359.156273 574.0027,333.198887 Z" id="Shape" fill="#F3C68D"></path>
                <path d="M574.0027,333.198887 L574.0027,333.198887 C574.0027,307.241501 596.612374,286.198887 624.5027,286.198887 L624.5027,286.198887 C652.393108,286.198887 675.0027,307.241501 675.0027,333.198887 L675.0027,333.198887 C675.0027,359.156273 652.393108,380.198887 624.5027,380.198887 L624.5027,380.198887 C596.612374,380.198887 574.0027,359.156273 574.0027,333.198887 Z" id="Shape" stroke="#2F6070" stroke-linejoin="round"></path>
                <path d="M574.0027,451.423303 L574.0027,451.423303 C574.0027,425.465918 596.612328,404.423303 624.5027,404.423303 L624.5027,404.423303 C637.896166,404.423303 650.741021,409.375086 660.211635,418.18928 C669.682188,427.003504 675.0027,438.958131 675.0027,451.423303 L675.0027,451.423303 C675.0027,477.380688 652.393072,498.423303 624.5027,498.423303 L624.5027,498.423303 C596.612327,498.423303 574.0027,477.380688 574.0027,451.423303 Z" id="Shape" fill="#F3C68D" transform="translate(624.502700, 451.423303) rotate(4.000000) translate(-624.502700, -451.423303) "></path>
                <path d="M574.0027,451.423303 L574.0027,451.423303 C574.0027,425.465918 596.612328,404.423303 624.5027,404.423303 L624.5027,404.423303 C637.896166,404.423303 650.741021,409.375086 660.211635,418.18928 C669.682188,427.003504 675.0027,438.958131 675.0027,451.423303 L675.0027,451.423303 C675.0027,477.380688 652.393072,498.423303 624.5027,498.423303 L624.5027,498.423303 C596.612327,498.423303 574.0027,477.380688 574.0027,451.423303 Z" id="Shape" stroke="#2F6070" stroke-linejoin="round"></path>
            </g>
            <text id="Traditional-Lectures" mask="url(#mask-2)" font-family="HiraMaruProN-W4, Hiragino Maru Gothic ProN" font-size="12" font-weight="normal" fill="#2F6070">
                <tspan x="437.384" y="398">Traditional</tspan>
                <tspan x="442.706" y="410">Lectures</tspan>
            </text>
            <text id="Learning-Efficiency" mask="url(#mask-2)" font-family="HiraMaruProN-W4, Hiragino Maru Gothic ProN" font-size="16" font-weight="normal" fill="#2F6070">
                <tspan x="470.832" y="534">Learning Efficiency</tspan>
            </text>
            <text id="Teaching-Effort" mask="url(#mask-2)" transform="translate(382.000000, 401.500000) rotate(270.000000) translate(-382.000000, -401.500000) " font-family="HiraMaruProN-W4, Hiragino Maru Gothic ProN" font-size="16" font-weight="normal" fill="#2F6070">
                <tspan x="321.384" y="407.5">Teaching Effort</tspan>
            </text>
            <text id="Typical-Active-Learn" mask="url(#mask-2)" font-family="HiraMaruProN-W4, Hiragino Maru Gothic ProN" font-size="12" font-weight="normal" fill="#2F6070">
                <tspan x="602.33" y="324">Typical</tspan>
                <tspan x="604.55" y="336">Active</tspan>
                <tspan x="597.434" y="348">Learning</tspan>
            </text>
            <text id="Challenge-Hub" mask="url(#mask-2)" font-family="HiraMaruProN-W4, Hiragino Maru Gothic ProN" font-size="12" font-weight="normal" fill="#2F6070">
                <tspan x="581.264" y="456">Challenge-Hub</tspan>
            </text>
        </g>
    </g>
</svg>