<?xml version="1.0" encoding="UTF-8"?>
<svg width="445px" height="326px" viewBox="0 0 445 326" version="1.1" xmlns="http://www.w3.org/2000/svg" xmlns:xlink="http://www.w3.org/1999/xlink">
    <!-- Generator: Sketch 48.2 (47327) - http://www.bohemiancoding.com/sketch -->
    <title>effort-efficiency</title>
    <desc>Created with Sketch.</desc>
    <defs>
        <polygon id="path-1" points="0 0 1152 0 1152 864 0 864"></polygon>
    </defs>
    <g id="Page-1" stroke="none" stroke-width="1" fill="none" fill-rule="evenodd">
        <g id="effort-efficiency" transform="translate(-347.000000, -226.000000)">
            <mask id="mask-2" fill="white">
                <use xlink:href="#path-1"></use>
            </mask>
            <g id="Shape"></g>
            <g id="Group" mask="url(#mask-2)">
                <polygon id="Shape" fill="#D2EADC" points="346.44516 225.96616 792.42572 225.96616 792.42572 552.8169 346.44516 552.8169"></polygon>
                <path d="M400.23666,288.3452 L400.23666,510.45009" id="Shape" fill-opacity="0" fill="#000000"></path>
                <path d="M400.23666,288.3452 L400.23666,510.45009" id="Shape" stroke="#2F6070" stroke-linejoin="round"></path>
                <path d="M401.2147,510.46115 L694.623,510.46115" id="Shape" fill-opacity="0" fill="#000000"></path>
                <path d="M401.2147,510.46115 L694.623,510.46115" id="Shape" stroke="#2F6070" stroke-linejoin="round"></path>
                <polygon id="Shape" fill-opacity="0" fill="#000000" points="364.03787 477.62323 364.03787 323.05359 400.23666 323.05359 400.23666 477.62323"></polygon>
                <polygon id="Shape" fill-opacity="0" fill="#000000" points="454.5084 510.44968 641.3282 510.515903 641.3282 552.890933 454.5084 552.82471"></polygon>
                <path d="M422.73132,400.3384 C422.73132,382.630667 443.09103,368.275717 468.20605,368.275717 C493.32107,368.275717 513.68078,382.630667 513.68078,400.3384 C513.68078,418.046133 493.32107,432.401083 468.20605,432.401083 C443.09103,432.401083 422.73132,418.046133 422.73132,400.3384 Z" id="Shape" fill="#F3C68D"></path>
                <path d="M422.73132,400.3384 C422.73132,382.630667 443.09103,368.275717 468.20605,368.275717 C493.32107,368.275717 513.68078,382.630667 513.68078,400.3384 C513.68078,418.046133 493.32107,432.401083 468.20605,432.401083 C443.09103,432.401083 422.73132,418.046133 422.73132,400.3384 Z" id="Shape" stroke="#2F6070" stroke-linejoin="round"></path>
                <path d="M574.0027,318.26157 C574.0027,300.553837 590.969192,286.198887 611.89833,286.198887 C632.82753,286.198887 649.79396,300.553837 649.79396,318.26157 C649.79396,335.969303 632.82753,350.324253 611.89833,350.324253 C590.969192,350.324253 574.0027,335.969303 574.0027,318.26157 Z" id="Shape" fill="#F3C68D"></path>
                <path d="M574.0027,318.26157 C574.0027,300.553837 590.969192,286.198887 611.89833,286.198887 C632.82753,286.198887 649.79396,300.553837 649.79396,318.26157 C649.79396,335.969303 632.82753,350.324253 611.89833,350.324253 C590.969192,350.324253 574.0027,335.969303 574.0027,318.26157 Z" id="Shape" stroke="#2F6070" stroke-linejoin="round"></path>
                <path d="M574.0027,437.8966 C574.0027,411.67782 596.62886,390.423303 624.539626,390.423303 C637.942885,390.423303 650.797133,395.424951 660.274672,404.327905 C669.75215,413.23089 675.076552,425.305902 675.076552,437.8966 C675.076552,464.11538 652.450392,485.369897 624.539626,485.369897 C596.628859,485.369897 574.0027,464.11538 574.0027,437.8966 Z" id="Shape" fill="#F3C68D"></path>
                <path d="M574.0027,437.8966 C574.0027,411.67782 596.62886,390.423303 624.539626,390.423303 C637.942885,390.423303 650.797133,395.424951 660.274672,404.327905 C669.75215,413.23089 675.076552,425.305902 675.076552,437.8966 C675.076552,464.11538 652.450392,485.369897 624.539626,485.369897 C596.628859,485.369897 574.0027,464.11538 574.0027,437.8966 Z" id="Shape" stroke="#2F6070" stroke-linejoin="round"></path>
            </g>
            <text id="Traditional-Lectures" mask="url(#mask-2)" font-family="HiraMaruProN-W4, Hiragino Maru Gothic ProN" font-size="12" font-weight="normal" fill="#2F6070">
                <tspan x="437.384" y="398">Traditional</tspan>
                <tspan x="442.706" y="410">Lectures</tspan>
            </text>
            <text id="Learning-Efficiency" mask="url(#mask-2)" font-family="HiraMaruProN-W4, Hiragino Maru Gothic ProN" font-size="12" font-weight="normal" fill="#2F6070">
                <tspan x="492.374" y="537">Learning Efficiency</tspan>
            </text>
            <text id="Teaching-Effort" mask="url(#mask-2)" transform="translate(385.000000, 411.500000) rotate(270.000000) translate(-385.000000, -411.500000) " font-family="HiraMaruProN-W4, Hiragino Maru Gothic ProN" font-size="12" font-weight="normal" fill="#2F6070">
                <tspan x="339.538" y="416.5">Teaching Effort</tspan>
            </text>
            <text id="Typical-Active-Learn" mask="url(#mask-2)" font-family="HiraMaruProN-W4, Hiragino Maru Gothic ProN" font-size="12" font-weight="normal" fill="#2F6070">
                <tspan x="590.33" y="312">Typical</tspan>
                <tspan x="592.55" y="324">Active</tspan>
                <tspan x="585.434" y="336">Learning</tspan>
            </text>
            <text id="Challenge-Hub" mask="url(#mask-2)" font-family="HiraMaruProN-W4, Hiragino Maru Gothic ProN" font-size="12" font-weight="normal" fill="#2F6070">
                <tspan x="581.264" y="443">Challenge-Hub</tspan>
            </text>
        </g>
    </g>
</svg>