<?xml version="1.0" encoding="UTF-8"?>
<svg width="334px" height="263px" viewBox="0 0 334 263" version="1.1" xmlns="http://www.w3.org/2000/svg" xmlns:xlink="http://www.w3.org/1999/xlink">
    <!-- Generator: Sketch 48.2 (47327) - http://www.bohemiancoding.com/sketch -->
    <title>effort-efficiency</title>
    <desc>Created with Sketch.</desc>
    <defs>
        <linearGradient x1="50%" y1="1.2236926%" x2="50%" y2="100%" id="linearGradient-1">
            <stop stop-color="#76C9AC" offset="0%"></stop>
            <stop stop-color="#D2EADC" offset="100%"></stop>
        </linearGradient>
        <path d="M0.73132,32.3384 C0.73132,14.630667 21.09103,0.275717 46.20605,0.275717 C71.32107,0.275717 91.68078,14.630667 91.68078,32.3384 C91.68078,50.046133 71.32107,64.401083 46.20605,64.401083 C21.09103,64.401083 0.73132,50.046133 0.73132,32.3384 Z" id="path-2"></path>
        <filter x="-7.7%" y="-7.8%" width="115.4%" height="121.8%" filterUnits="objectBoundingBox" id="filter-3">
            <feOffset dx="0" dy="2" in="SourceAlpha" result="shadowOffsetOuter1"></feOffset>
            <feGaussianBlur stdDeviation="2" in="shadowOffsetOuter1" result="shadowBlurOuter1"></feGaussianBlur>
            <feColorMatrix values="0 0 0 0 0.184313725   0 0 0 0 0.376470588   0 0 0 0 0.439215686  0 0 0 1 0" type="matrix" in="shadowBlurOuter1"></feColorMatrix>
        </filter>
        <path d="M0.0027,32.26157 C0.0027,14.553837 16.969192,0.198887 37.89833,0.198887 C58.82753,0.198887 75.79396,14.553837 75.79396,32.26157 C75.79396,49.969303 58.82753,64.324253 37.89833,64.324253 C16.969192,64.324253 0.0027,49.969303 0.0027,32.26157 Z" id="path-4"></path>
        <filter x="-9.2%" y="-7.8%" width="118.5%" height="121.8%" filterUnits="objectBoundingBox" id="filter-5">
            <feOffset dx="0" dy="2" in="SourceAlpha" result="shadowOffsetOuter1"></feOffset>
            <feGaussianBlur stdDeviation="2" in="shadowOffsetOuter1" result="shadowBlurOuter1"></feGaussianBlur>
            <feColorMatrix values="0 0 0 0 0.184313725   0 0 0 0 0.376470588   0 0 0 0 0.439215686  0 0 0 1 0" type="matrix" in="shadowBlurOuter1"></feColorMatrix>
        </filter>
        <path d="M0.0027,47.8966 C0.0027,21.67782 22.62886,0.423303 50.539626,0.423303 C63.942885,0.423303 76.797133,5.424951 86.274672,14.327905 C95.75215,23.23089 101.076552,35.305902 101.076552,47.8966 C101.076552,74.11538 78.450392,95.369897 50.539626,95.369897 C22.628859,95.369897 0.0027,74.11538 0.0027,47.8966 Z" id="path-6"></path>
        <filter x="-6.9%" y="-5.3%" width="113.9%" height="114.7%" filterUnits="objectBoundingBox" id="filter-7">
            <feOffset dx="0" dy="2" in="SourceAlpha" result="shadowOffsetOuter1"></feOffset>
            <feGaussianBlur stdDeviation="2" in="shadowOffsetOuter1" result="shadowBlurOuter1"></feGaussianBlur>
            <feColorMatrix values="0 0 0 0 0.184313725   0 0 0 0 0.376470588   0 0 0 0 0.439215686  0 0 0 1 0" type="matrix" in="shadowBlurOuter1"></feColorMatrix>
        </filter>
    </defs>
    <g id="Page-1" stroke="none" stroke-width="1" fill="none" fill-rule="evenodd">
        <g id="effort-efficiency" transform="translate(-27.000000, -48.000000)">
            <polygon id="Background" fill="url(#linearGradient-1)" points="0.44516 0.96616 446.42572 0.96616 446.42572 327.8169 0.44516 327.8169"></polygon>
            <g id="Axis" transform="translate(52.000000, 61.000000)" stroke="#2F6070" stroke-linejoin="round">
                <path d="M1.23666,0.5 L1.23666,224.45009" id="Shape"></path>
                <path d="M1,224 L295.5,224" id="Shape"></path>
            </g>
            <g id="Traditional-Lectures" transform="translate(76.000000, 143.000000)">
                <g id="Shape">
                    <use fill="black" fill-opacity="1" filter="url(#filter-3)" xlink:href="#path-2"></use>
                    <use fill="#F3C68D" fill-rule="evenodd" xlink:href="#path-2"></use>
                </g>
                <path d="M19.416,22.792 L16.692,22.792 C16.392,22.792 16.224,22.552 16.224,22.276 C16.224,21.988 16.392,21.736 16.68,21.736 L23.292,21.736 C23.58,21.736 23.748,21.988 23.748,22.276 C23.748,22.552 23.568,22.792 23.292,22.792 L20.568,22.792 L20.568,30.664 C20.568,30.988 20.316,31.156 19.992,31.156 C19.668,31.156 19.416,30.988 19.416,30.664 L19.416,22.792 Z M23.976,30.676 L23.976,24.832 C23.976,24.52 24.204,24.364 24.54,24.364 C24.84,24.364 25.08,24.52 25.08,24.832 L25.08,25.096 C25.08,25.264 25.032,25.468 25.008,25.66 C25.2,25.084 25.812,24.34 26.844,24.304 C26.94,24.292 27.024,24.292 27.108,24.292 C27.288,24.292 27.42,24.316 27.588,24.352 C27.864,24.388 27.972,24.556 27.972,24.784 C27.972,24.844 27.96,24.916 27.948,24.988 C27.9,25.24 27.732,25.456 27.48,25.456 C27.444,25.456 27.408,25.456 27.372,25.444 C27.204,25.408 27.048,25.372 26.796,25.372 C26.28,25.384 25.884,25.648 25.584,26.032 C25.272,26.416 25.092,26.86 25.08,27.364 L25.08,30.676 C25.08,31 24.84,31.156 24.54,31.156 C24.204,31.156 23.976,31 23.976,30.676 Z M33.048,26.836 L33.048,26.32 C33.048,25.528 32.616,25.18 31.668,25.18 C30.792,25.18 30.36,25.516 30.156,26.068 C30.072,26.296 29.892,26.38 29.688,26.38 C29.592,26.38 29.496,26.368 29.412,26.332 C29.184,26.26 29.016,26.092 29.016,25.876 C29.016,25.828 29.028,25.78 29.04,25.732 C29.16,25.36 29.472,25.012 29.748,24.796 C30.168,24.472 30.708,24.268 31.68,24.268 C33.288,24.268 34.08,24.904 34.08,26.32 L34.08,29.596 C34.08,30.016 34.14,30.424 34.212,30.652 C34.224,30.688 34.236,30.736 34.236,30.772 C34.236,30.964 34.056,31.132 33.756,31.156 L33.648,31.156 C33.408,31.156 33.192,31.084 33.144,30.868 C33.108,30.724 33.084,30.508 33.072,30.268 C32.616,30.784 31.98,31.252 30.792,31.252 C29.472,31.252 28.668,30.508 28.668,29.272 C28.668,28.144 29.34,27.424 30.48,27.112 C31.14,26.932 31.764,26.86 33.048,26.836 Z M33.048,28.504 L33.048,27.7 C31.644,27.736 30.984,27.856 30.504,28.096 C30.024,28.336 29.772,28.708 29.772,29.284 C29.772,29.908 30.252,30.328 30.972,30.328 C31.728,30.328 32.352,29.956 32.736,29.476 C32.964,29.188 33.048,28.96 33.048,28.504 Z M40.584,24.76 L40.584,22.144 C40.584,21.82 40.812,21.664 41.112,21.664 C41.448,21.664 41.652,21.82 41.652,22.144 L41.652,30.676 C41.652,31 41.436,31.156 41.1,31.156 C40.752,31.156 40.584,30.964 40.584,30.712 L40.584,30.46 C40.584,30.328 40.608,30.076 40.62,29.908 C40.212,30.748 39.528,31.264 38.412,31.264 C36.66,31.264 35.556,29.884 35.556,27.724 C35.556,25.624 36.648,24.268 38.424,24.268 C39.54,24.268 40.212,24.796 40.632,25.648 C40.608,25.372 40.584,25.024 40.584,24.76 Z M38.568,25.204 C37.356,25.204 36.66,26.212 36.66,27.736 C36.66,29.308 37.356,30.328 38.568,30.328 C39.828,30.328 40.608,29.236 40.608,27.748 C40.608,26.284 39.888,25.204 38.568,25.204 Z M43.368,30.676 L43.368,24.832 C43.368,24.52 43.572,24.364 43.908,24.364 C44.232,24.364 44.46,24.52 44.46,24.832 L44.46,30.676 C44.46,31 44.232,31.156 43.908,31.156 C43.572,31.156 43.368,31 43.368,30.676 Z M43.92,21.652 C44.364,21.652 44.724,22 44.724,22.456 C44.724,22.924 44.364,23.272 43.92,23.272 C43.464,23.272 43.104,22.924 43.104,22.456 C43.104,22 43.464,21.652 43.92,21.652 Z M46.884,24.436 L46.884,22.984 C46.884,22.672 47.088,22.504 47.424,22.504 C47.736,22.504 47.964,22.672 47.964,22.984 L47.964,24.436 L49.5,24.436 C49.8,24.436 49.944,24.628 49.944,24.916 C49.944,25.192 49.788,25.384 49.5,25.384 L47.964,25.384 L47.964,29.404 C47.964,29.992 48.216,30.244 48.66,30.244 C48.96,30.244 49.164,30.16 49.368,30.04 C49.44,30.004 49.512,29.98 49.584,29.98 C49.764,29.98 49.908,30.112 49.98,30.292 C50.016,30.376 50.028,30.472 50.028,30.556 C50.028,30.724 49.956,30.892 49.776,30.988 C49.428,31.156 49.104,31.252 48.588,31.252 C47.604,31.252 46.884,30.76 46.884,29.5 L46.884,25.384 L45.948,25.384 C45.66,25.384 45.528,25.192 45.528,24.916 C45.528,24.64 45.66,24.436 45.96,24.436 L46.884,24.436 Z M51.012,30.676 L51.012,24.832 C51.012,24.52 51.216,24.364 51.552,24.364 C51.876,24.364 52.104,24.52 52.104,24.832 L52.104,30.676 C52.104,31 51.876,31.156 51.552,31.156 C51.216,31.156 51.012,31 51.012,30.676 Z M51.564,21.652 C52.008,21.652 52.368,22 52.368,22.456 C52.368,22.924 52.008,23.272 51.564,23.272 C51.108,23.272 50.748,22.924 50.748,22.456 C50.748,22 51.108,21.652 51.564,21.652 Z M56.616,24.268 C58.536,24.268 59.664,25.66 59.664,27.748 C59.664,29.836 58.512,31.276 56.64,31.276 C54.66,31.276 53.508,29.884 53.508,27.748 C53.508,25.672 54.672,24.268 56.616,24.268 Z M56.652,25.192 C55.356,25.192 54.612,26.188 54.612,27.784 C54.612,29.308 55.332,30.352 56.568,30.352 C57.876,30.352 58.56,29.332 58.56,27.736 C58.56,26.224 57.876,25.192 56.652,25.192 Z M66.576,26.608 L66.576,30.676 C66.576,31 66.336,31.156 66.024,31.156 C65.7,31.156 65.472,31 65.472,30.676 L65.472,26.836 C65.472,25.816 65.064,25.24 64.164,25.24 C63.516,25.24 62.976,25.528 62.568,26.092 C62.268,26.5 62.148,26.848 62.148,27.316 L62.148,30.676 C62.148,31 61.92,31.156 61.608,31.156 C61.272,31.156 61.056,31 61.056,30.676 L61.056,24.832 C61.056,24.52 61.284,24.364 61.62,24.364 C61.932,24.364 62.148,24.52 62.148,24.832 L62.148,25.156 C62.148,25.312 62.112,25.432 62.1,25.66 C62.52,24.808 63.24,24.268 64.38,24.268 C65.808,24.268 66.576,25.132 66.576,26.608 Z M72.312,26.836 L72.312,26.32 C72.312,25.528 71.88,25.18 70.932,25.18 C70.056,25.18 69.624,25.516 69.42,26.068 C69.336,26.296 69.156,26.38 68.952,26.38 C68.856,26.38 68.76,26.368 68.676,26.332 C68.448,26.26 68.28,26.092 68.28,25.876 C68.28,25.828 68.292,25.78 68.304,25.732 C68.424,25.36 68.736,25.012 69.012,24.796 C69.432,24.472 69.972,24.268 70.944,24.268 C72.552,24.268 73.344,24.904 73.344,26.32 L73.344,29.596 C73.344,30.016 73.404,30.424 73.476,30.652 C73.488,30.688 73.5,30.736 73.5,30.772 C73.5,30.964 73.32,31.132 73.02,31.156 L72.912,31.156 C72.672,31.156 72.456,31.084 72.408,30.868 C72.372,30.724 72.348,30.508 72.336,30.268 C71.88,30.784 71.244,31.252 70.056,31.252 C68.736,31.252 67.932,30.508 67.932,29.272 C67.932,28.144 68.604,27.424 69.744,27.112 C70.404,26.932 71.028,26.86 72.312,26.836 Z M72.312,28.504 L72.312,27.7 C70.908,27.736 70.248,27.856 69.768,28.096 C69.288,28.336 69.036,28.708 69.036,29.284 C69.036,29.908 69.516,30.328 70.236,30.328 C70.992,30.328 71.616,29.956 72,29.476 C72.228,29.188 72.312,28.96 72.312,28.504 Z M75.12,30.676 L75.12,22.144 C75.12,21.82 75.336,21.664 75.672,21.664 C75.996,21.664 76.212,21.82 76.212,22.144 L76.212,30.676 C76.212,31 75.996,31.156 75.672,31.156 C75.336,31.156 75.12,31 75.12,30.676 Z M21.774,44.8 L21.774,37.18 C21.774,36.82 22.026,36.664 22.35,36.664 C22.686,36.664 22.926,36.82 22.926,37.168 L22.926,44.584 C22.926,44.86 23.082,45.004 23.358,45.004 L27.606,45.004 C27.918,45.004 28.098,45.232 28.098,45.532 C28.098,45.82 27.918,46.084 27.606,46.084 L22.998,46.084 C22.146,46.084 21.774,45.712 21.774,44.8 Z M34.098,42.964 L29.874,42.964 C29.898,44.44 30.63,45.364 31.926,45.364 C32.79,45.364 33.27,44.932 33.558,44.296 C33.666,44.08 33.822,43.996 33.99,43.996 C34.074,43.996 34.158,44.02 34.242,44.044 C34.446,44.104 34.614,44.248 34.614,44.464 C34.614,44.536 34.602,44.608 34.554,44.68 C34.17,45.472 33.474,46.264 31.914,46.264 C29.946,46.264 28.806,44.872 28.806,42.796 C28.806,40.72 29.886,39.268 31.842,39.268 C33.594,39.268 34.578,40.636 34.698,42.208 L34.698,42.304 C34.698,42.736 34.47,42.964 34.098,42.964 Z M29.91,42.088 L33.426,42.088 C33.558,42.088 33.606,42.04 33.606,41.932 L33.606,41.872 C33.462,41.02 32.946,40.144 31.842,40.144 C30.69,40.144 30.066,40.912 29.91,42.088 Z M35.694,42.784 C35.694,40.732 36.75,39.256 38.718,39.256 C40.302,39.256 40.95,40.132 41.25,40.888 C41.274,40.948 41.286,41.02 41.286,41.068 C41.286,41.296 41.106,41.44 40.926,41.512 C40.842,41.536 40.746,41.548 40.662,41.548 C40.482,41.548 40.326,41.476 40.242,41.272 C40.014,40.66 39.654,40.192 38.742,40.192 C37.494,40.192 36.81,41.248 36.81,42.772 C36.81,44.344 37.482,45.34 38.754,45.34 C39.69,45.34 40.062,44.884 40.29,44.236 C40.374,44.008 40.542,43.912 40.734,43.912 C40.818,43.912 40.902,43.924 40.986,43.96 C41.202,44.008 41.37,44.152 41.37,44.368 C41.37,44.44 41.358,44.5 41.322,44.584 C40.998,45.412 40.362,46.276 38.73,46.276 C36.786,46.276 35.694,44.848 35.694,42.784 Z M43.362,39.436 L43.362,37.984 C43.362,37.672 43.566,37.504 43.902,37.504 C44.214,37.504 44.442,37.672 44.442,37.984 L44.442,39.436 L45.978,39.436 C46.278,39.436 46.422,39.628 46.422,39.916 C46.422,40.192 46.266,40.384 45.978,40.384 L44.442,40.384 L44.442,44.404 C44.442,44.992 44.694,45.244 45.138,45.244 C45.438,45.244 45.642,45.16 45.846,45.04 C45.918,45.004 45.99,44.98 46.062,44.98 C46.242,44.98 46.386,45.112 46.458,45.292 C46.494,45.376 46.506,45.472 46.506,45.556 C46.506,45.724 46.434,45.892 46.254,45.988 C45.906,46.156 45.582,46.252 45.066,46.252 C44.082,46.252 43.362,45.76 43.362,44.5 L43.362,40.384 L42.426,40.384 C42.138,40.384 42.006,40.192 42.006,39.916 C42.006,39.64 42.138,39.436 42.438,39.436 L43.362,39.436 Z M47.454,43.912 L47.454,39.844 C47.454,39.52 47.682,39.364 48.006,39.364 C48.33,39.364 48.558,39.52 48.558,39.844 L48.558,43.684 C48.558,44.716 48.978,45.292 49.866,45.292 C50.502,45.292 51.018,44.992 51.426,44.428 C51.714,44.02 51.834,43.648 51.834,43.18 L51.834,39.844 C51.834,39.52 52.062,39.364 52.386,39.364 C52.698,39.364 52.926,39.52 52.926,39.844 L52.926,45.676 C52.926,46 52.71,46.156 52.398,46.156 C52.074,46.156 51.846,46.012 51.846,45.712 L51.846,45.376 C51.846,45.244 51.882,45.004 51.918,44.812 C51.546,45.652 50.85,46.264 49.65,46.264 C48.234,46.264 47.454,45.376 47.454,43.912 Z M54.822,45.676 L54.822,39.832 C54.822,39.52 55.05,39.364 55.386,39.364 C55.686,39.364 55.926,39.52 55.926,39.832 L55.926,40.096 C55.926,40.264 55.878,40.468 55.854,40.66 C56.046,40.084 56.658,39.34 57.69,39.304 C57.786,39.292 57.87,39.292 57.954,39.292 C58.134,39.292 58.266,39.316 58.434,39.352 C58.71,39.388 58.818,39.556 58.818,39.784 C58.818,39.844 58.806,39.916 58.794,39.988 C58.746,40.24 58.578,40.456 58.326,40.456 C58.29,40.456 58.254,40.456 58.218,40.444 C58.05,40.408 57.894,40.372 57.642,40.372 C57.126,40.384 56.73,40.648 56.43,41.032 C56.118,41.416 55.938,41.86 55.926,42.364 L55.926,45.676 C55.926,46 55.686,46.156 55.386,46.156 C55.05,46.156 54.822,46 54.822,45.676 Z M64.818,42.964 L60.594,42.964 C60.618,44.44 61.35,45.364 62.646,45.364 C63.51,45.364 63.99,44.932 64.278,44.296 C64.386,44.08 64.542,43.996 64.71,43.996 C64.794,43.996 64.878,44.02 64.962,44.044 C65.166,44.104 65.334,44.248 65.334,44.464 C65.334,44.536 65.322,44.608 65.274,44.68 C64.89,45.472 64.194,46.264 62.634,46.264 C60.666,46.264 59.526,44.872 59.526,42.796 C59.526,40.72 60.606,39.268 62.562,39.268 C64.314,39.268 65.298,40.636 65.418,42.208 L65.418,42.304 C65.418,42.736 65.19,42.964 64.818,42.964 Z M60.63,42.088 L64.146,42.088 C64.278,42.088 64.326,42.04 64.326,41.932 L64.326,41.872 C64.182,41.02 63.666,40.144 62.562,40.144 C61.41,40.144 60.786,40.912 60.63,42.088 Z M69.306,43.168 L68.622,43.036 C67.146,42.748 66.534,42.232 66.534,41.092 C66.534,40 67.47,39.256 69.018,39.256 C70.35,39.256 71.202,39.82 71.502,40.696 C71.514,40.744 71.526,40.792 71.526,40.84 C71.526,41.068 71.322,41.224 71.106,41.284 C71.046,41.296 70.974,41.308 70.914,41.308 C70.698,41.308 70.482,41.212 70.422,40.984 C70.266,40.444 69.738,40.168 69.054,40.168 C68.082,40.168 67.626,40.564 67.626,41.068 C67.626,41.62 67.854,41.86 68.862,42.076 L69.606,42.232 C71.166,42.556 71.79,43.012 71.79,44.272 C71.79,45.424 70.806,46.276 69.126,46.276 C67.59,46.276 66.69,45.664 66.378,44.596 C66.366,44.536 66.354,44.488 66.354,44.44 C66.354,44.2 66.558,44.032 66.786,43.984 C66.846,43.972 66.906,43.96 66.954,43.96 C67.182,43.96 67.398,44.056 67.47,44.284 C67.686,44.98 68.178,45.328 69.126,45.328 C70.086,45.328 70.71,44.908 70.71,44.296 C70.71,43.708 70.398,43.384 69.306,43.168 Z" id="Traditional-Lectures-Copy" fill="#2F6070"></path>
            </g>
            <g id="Typical" transform="translate(228.000000, 61.000000)">
                <g id="Shape">
                    <use fill="black" fill-opacity="1" filter="url(#filter-5)" xlink:href="#path-4"></use>
                    <use fill="#E69877" fill-rule="evenodd" xlink:href="#path-4"></use>
                </g>
                <path d="M20.822,11.792 L18.098,11.792 C17.798,11.792 17.63,11.552 17.63,11.276 C17.63,10.988 17.798,10.736 18.086,10.736 L24.698,10.736 C24.986,10.736 25.154,10.988 25.154,11.276 C25.154,11.552 24.974,11.792 24.698,11.792 L21.974,11.792 L21.974,19.664 C21.974,19.988 21.722,20.156 21.398,20.156 C21.074,20.156 20.822,19.988 20.822,19.664 L20.822,11.792 Z M29.126,17.672 L30.638,13.688 C30.722,13.46 30.902,13.376 31.106,13.376 C31.178,13.376 31.25,13.388 31.322,13.4 C31.55,13.46 31.718,13.628 31.718,13.844 C31.718,13.904 31.706,13.976 31.682,14.048 L28.85,21.068 C28.43,22.1 27.938,22.784 26.762,22.784 C26.462,22.784 26.174,22.736 25.898,22.628 C25.658,22.544 25.562,22.376 25.562,22.196 C25.562,22.1 25.586,22.016 25.622,21.92 C25.706,21.716 25.862,21.584 26.066,21.584 C26.138,21.584 26.21,21.596 26.294,21.632 C26.462,21.704 26.678,21.788 26.894,21.788 C27.41,21.788 27.662,21.332 27.878,20.78 L28.214,19.94 L25.79,14.06 C25.766,14 25.754,13.928 25.754,13.868 C25.754,13.652 25.934,13.472 26.15,13.4 C26.234,13.376 26.318,13.364 26.402,13.364 C26.594,13.364 26.774,13.448 26.858,13.664 L28.37,17.648 C28.514,18.032 28.622,18.476 28.73,18.848 C28.826,18.476 28.994,18.02 29.126,17.672 Z M33.974,19.568 L33.974,22.208 C33.974,22.508 33.77,22.676 33.446,22.676 C33.11,22.676 32.906,22.508 32.906,22.208 L32.906,13.832 C32.906,13.52 33.11,13.364 33.446,13.364 C33.746,13.364 33.974,13.508 33.974,13.808 L33.974,14.024 C33.974,14.192 33.962,14.48 33.926,14.684 C34.346,13.832 35.006,13.268 36.17,13.268 C37.97,13.268 38.99,14.576 38.99,16.712 C38.99,18.848 37.91,20.264 36.122,20.264 C35.006,20.264 34.322,19.712 33.914,18.872 C33.962,19.1 33.974,19.352 33.974,19.568 Z M36.014,14.204 C34.694,14.204 33.95,15.272 33.95,16.748 C33.95,18.236 34.73,19.316 35.99,19.316 C37.202,19.316 37.886,18.284 37.886,16.736 C37.886,15.176 37.226,14.204 36.014,14.204 Z M40.394,19.676 L40.394,13.832 C40.394,13.52 40.598,13.364 40.934,13.364 C41.258,13.364 41.486,13.52 41.486,13.832 L41.486,19.676 C41.486,20 41.258,20.156 40.934,20.156 C40.598,20.156 40.394,20 40.394,19.676 Z M40.946,10.652 C41.39,10.652 41.75,11 41.75,11.456 C41.75,11.924 41.39,12.272 40.946,12.272 C40.49,12.272 40.13,11.924 40.13,11.456 C40.13,11 40.49,10.652 40.946,10.652 Z M42.89,16.784 C42.89,14.732 43.946,13.256 45.914,13.256 C47.498,13.256 48.146,14.132 48.446,14.888 C48.47,14.948 48.482,15.02 48.482,15.068 C48.482,15.296 48.302,15.44 48.122,15.512 C48.038,15.536 47.942,15.548 47.858,15.548 C47.678,15.548 47.522,15.476 47.438,15.272 C47.21,14.66 46.85,14.192 45.938,14.192 C44.69,14.192 44.006,15.248 44.006,16.772 C44.006,18.344 44.678,19.34 45.95,19.34 C46.886,19.34 47.258,18.884 47.486,18.236 C47.57,18.008 47.738,17.912 47.93,17.912 C48.014,17.912 48.098,17.924 48.182,17.96 C48.398,18.008 48.566,18.152 48.566,18.368 C48.566,18.44 48.554,18.5 48.518,18.584 C48.194,19.412 47.558,20.276 45.926,20.276 C43.982,20.276 42.89,18.848 42.89,16.784 Z M53.906,15.836 L53.906,15.32 C53.906,14.528 53.474,14.18 52.526,14.18 C51.65,14.18 51.218,14.516 51.014,15.068 C50.93,15.296 50.75,15.38 50.546,15.38 C50.45,15.38 50.354,15.368 50.27,15.332 C50.042,15.26 49.874,15.092 49.874,14.876 C49.874,14.828 49.886,14.78 49.898,14.732 C50.018,14.36 50.33,14.012 50.606,13.796 C51.026,13.472 51.566,13.268 52.538,13.268 C54.146,13.268 54.938,13.904 54.938,15.32 L54.938,18.596 C54.938,19.016 54.998,19.424 55.07,19.652 C55.082,19.688 55.094,19.736 55.094,19.772 C55.094,19.964 54.914,20.132 54.614,20.156 L54.506,20.156 C54.266,20.156 54.05,20.084 54.002,19.868 C53.966,19.724 53.942,19.508 53.93,19.268 C53.474,19.784 52.838,20.252 51.65,20.252 C50.33,20.252 49.526,19.508 49.526,18.272 C49.526,17.144 50.198,16.424 51.338,16.112 C51.998,15.932 52.622,15.86 53.906,15.836 Z M53.906,17.504 L53.906,16.7 C52.502,16.736 51.842,16.856 51.362,17.096 C50.882,17.336 50.63,17.708 50.63,18.284 C50.63,18.908 51.11,19.328 51.83,19.328 C52.586,19.328 53.21,18.956 53.594,18.476 C53.822,18.188 53.906,17.96 53.906,17.504 Z M56.714,19.676 L56.714,11.144 C56.714,10.82 56.93,10.664 57.266,10.664 C57.59,10.664 57.806,10.82 57.806,11.144 L57.806,19.676 C57.806,20 57.59,20.156 57.266,20.156 C56.93,20.156 56.714,20 56.714,19.676 Z M22.01,32.348 L21.086,34.82 C21.002,35.06 20.822,35.156 20.618,35.156 C20.534,35.156 20.462,35.144 20.378,35.12 C20.138,35.06 19.958,34.856 19.958,34.628 C19.958,34.556 19.97,34.496 19.994,34.424 L23.258,26.228 C23.414,25.82 23.714,25.664 24.086,25.664 C24.47,25.664 24.782,25.82 24.938,26.228 L28.202,34.448 C28.238,34.52 28.25,34.58 28.25,34.652 C28.25,34.892 28.058,35.072 27.818,35.132 C27.746,35.156 27.674,35.168 27.602,35.168 C27.386,35.168 27.194,35.06 27.11,34.832 L26.162,32.348 L22.01,32.348 Z M22.37,31.34 L25.802,31.34 L24.47,27.848 C24.338,27.5 24.206,27.116 24.098,26.708 C23.99,27.116 23.87,27.5 23.726,27.86 L22.37,31.34 Z M29.21,31.784 C29.21,29.732 30.266,28.256 32.234,28.256 C33.818,28.256 34.466,29.132 34.766,29.888 C34.79,29.948 34.802,30.02 34.802,30.068 C34.802,30.296 34.622,30.44 34.442,30.512 C34.358,30.536 34.262,30.548 34.178,30.548 C33.998,30.548 33.842,30.476 33.758,30.272 C33.53,29.66 33.17,29.192 32.258,29.192 C31.01,29.192 30.326,30.248 30.326,31.772 C30.326,33.344 30.998,34.34 32.27,34.34 C33.206,34.34 33.578,33.884 33.806,33.236 C33.89,33.008 34.058,32.912 34.25,32.912 C34.334,32.912 34.418,32.924 34.502,32.96 C34.718,33.008 34.886,33.152 34.886,33.368 C34.886,33.44 34.874,33.5 34.838,33.584 C34.514,34.412 33.878,35.276 32.246,35.276 C30.302,35.276 29.21,33.848 29.21,31.784 Z M36.878,28.436 L36.878,26.984 C36.878,26.672 37.082,26.504 37.418,26.504 C37.73,26.504 37.958,26.672 37.958,26.984 L37.958,28.436 L39.494,28.436 C39.794,28.436 39.938,28.628 39.938,28.916 C39.938,29.192 39.782,29.384 39.494,29.384 L37.958,29.384 L37.958,33.404 C37.958,33.992 38.21,34.244 38.654,34.244 C38.954,34.244 39.158,34.16 39.362,34.04 C39.434,34.004 39.506,33.98 39.578,33.98 C39.758,33.98 39.902,34.112 39.974,34.292 C40.01,34.376 40.022,34.472 40.022,34.556 C40.022,34.724 39.95,34.892 39.77,34.988 C39.422,35.156 39.098,35.252 38.582,35.252 C37.598,35.252 36.878,34.76 36.878,33.5 L36.878,29.384 L35.942,29.384 C35.654,29.384 35.522,29.192 35.522,28.916 C35.522,28.64 35.654,28.436 35.954,28.436 L36.878,28.436 Z M41.006,34.676 L41.006,28.832 C41.006,28.52 41.21,28.364 41.546,28.364 C41.87,28.364 42.098,28.52 42.098,28.832 L42.098,34.676 C42.098,35 41.87,35.156 41.546,35.156 C41.21,35.156 41.006,35 41.006,34.676 Z M41.558,25.652 C42.002,25.652 42.362,26 42.362,26.456 C42.362,26.924 42.002,27.272 41.558,27.272 C41.102,27.272 40.742,26.924 40.742,26.456 C40.742,26 41.102,25.652 41.558,25.652 Z M46.766,32.42 L48.134,28.712 C48.23,28.472 48.398,28.364 48.614,28.364 C48.686,28.364 48.758,28.376 48.842,28.4 C49.082,28.472 49.238,28.628 49.238,28.856 C49.238,28.916 49.226,28.988 49.19,29.06 L46.982,34.676 C46.838,35.048 46.574,35.156 46.262,35.156 C45.938,35.156 45.686,35.036 45.542,34.664 L43.334,29.06 C43.31,28.988 43.298,28.928 43.298,28.868 C43.298,28.64 43.454,28.46 43.682,28.4 C43.766,28.376 43.85,28.364 43.922,28.364 C44.138,28.364 44.318,28.46 44.402,28.7 L45.794,32.48 C45.938,32.888 46.178,33.692 46.274,34.124 C46.382,33.68 46.61,32.828 46.766,32.42 Z M55.394,31.964 L51.17,31.964 C51.194,33.44 51.926,34.364 53.222,34.364 C54.086,34.364 54.566,33.932 54.854,33.296 C54.962,33.08 55.118,32.996 55.286,32.996 C55.37,32.996 55.454,33.02 55.538,33.044 C55.742,33.104 55.91,33.248 55.91,33.464 C55.91,33.536 55.898,33.608 55.85,33.68 C55.466,34.472 54.77,35.264 53.21,35.264 C51.242,35.264 50.102,33.872 50.102,31.796 C50.102,29.72 51.182,28.268 53.138,28.268 C54.89,28.268 55.874,29.636 55.994,31.208 L55.994,31.304 C55.994,31.736 55.766,31.964 55.394,31.964 Z M51.206,31.088 L54.722,31.088 C54.854,31.088 54.902,31.04 54.902,30.932 L54.902,30.872 C54.758,30.02 54.242,29.144 53.138,29.144 C51.986,29.144 51.362,29.912 51.206,31.088 Z M13.502,48.8 L13.502,41.18 C13.502,40.82 13.754,40.664 14.078,40.664 C14.414,40.664 14.654,40.82 14.654,41.168 L14.654,48.584 C14.654,48.86 14.81,49.004 15.086,49.004 L19.334,49.004 C19.646,49.004 19.826,49.232 19.826,49.532 C19.826,49.82 19.646,50.084 19.334,50.084 L14.726,50.084 C13.874,50.084 13.502,49.712 13.502,48.8 Z M25.826,46.964 L21.602,46.964 C21.626,48.44 22.358,49.364 23.654,49.364 C24.518,49.364 24.998,48.932 25.286,48.296 C25.394,48.08 25.55,47.996 25.718,47.996 C25.802,47.996 25.886,48.02 25.97,48.044 C26.174,48.104 26.342,48.248 26.342,48.464 C26.342,48.536 26.33,48.608 26.282,48.68 C25.898,49.472 25.202,50.264 23.642,50.264 C21.674,50.264 20.534,48.872 20.534,46.796 C20.534,44.72 21.614,43.268 23.57,43.268 C25.322,43.268 26.306,44.636 26.426,46.208 L26.426,46.304 C26.426,46.736 26.198,46.964 25.826,46.964 Z M21.638,46.088 L25.154,46.088 C25.286,46.088 25.334,46.04 25.334,45.932 L25.334,45.872 C25.19,45.02 24.674,44.144 23.57,44.144 C22.418,44.144 21.794,44.912 21.638,46.088 Z M31.79,45.836 L31.79,45.32 C31.79,44.528 31.358,44.18 30.41,44.18 C29.534,44.18 29.102,44.516 28.898,45.068 C28.814,45.296 28.634,45.38 28.43,45.38 C28.334,45.38 28.238,45.368 28.154,45.332 C27.926,45.26 27.758,45.092 27.758,44.876 C27.758,44.828 27.77,44.78 27.782,44.732 C27.902,44.36 28.214,44.012 28.49,43.796 C28.91,43.472 29.45,43.268 30.422,43.268 C32.03,43.268 32.822,43.904 32.822,45.32 L32.822,48.596 C32.822,49.016 32.882,49.424 32.954,49.652 C32.966,49.688 32.978,49.736 32.978,49.772 C32.978,49.964 32.798,50.132 32.498,50.156 L32.39,50.156 C32.15,50.156 31.934,50.084 31.886,49.868 C31.85,49.724 31.826,49.508 31.814,49.268 C31.358,49.784 30.722,50.252 29.534,50.252 C28.214,50.252 27.41,49.508 27.41,48.272 C27.41,47.144 28.082,46.424 29.222,46.112 C29.882,45.932 30.506,45.86 31.79,45.836 Z M31.79,47.504 L31.79,46.7 C30.386,46.736 29.726,46.856 29.246,47.096 C28.766,47.336 28.514,47.708 28.514,48.284 C28.514,48.908 28.994,49.328 29.714,49.328 C30.47,49.328 31.094,48.956 31.478,48.476 C31.706,48.188 31.79,47.96 31.79,47.504 Z M34.778,49.676 L34.778,43.832 C34.778,43.52 35.006,43.364 35.342,43.364 C35.642,43.364 35.882,43.52 35.882,43.832 L35.882,44.096 C35.882,44.264 35.834,44.468 35.81,44.66 C36.002,44.084 36.614,43.34 37.646,43.304 C37.742,43.292 37.826,43.292 37.91,43.292 C38.09,43.292 38.222,43.316 38.39,43.352 C38.666,43.388 38.774,43.556 38.774,43.784 C38.774,43.844 38.762,43.916 38.75,43.988 C38.702,44.24 38.534,44.456 38.282,44.456 C38.246,44.456 38.21,44.456 38.174,44.444 C38.006,44.408 37.85,44.372 37.598,44.372 C37.082,44.384 36.686,44.648 36.386,45.032 C36.074,45.416 35.894,45.86 35.882,46.364 L35.882,49.676 C35.882,50 35.642,50.156 35.342,50.156 C35.006,50.156 34.778,50 34.778,49.676 Z M45.314,45.608 L45.314,49.676 C45.314,50 45.074,50.156 44.762,50.156 C44.438,50.156 44.21,50 44.21,49.676 L44.21,45.836 C44.21,44.816 43.802,44.24 42.902,44.24 C42.254,44.24 41.714,44.528 41.306,45.092 C41.006,45.5 40.886,45.848 40.886,46.316 L40.886,49.676 C40.886,50 40.658,50.156 40.346,50.156 C40.01,50.156 39.794,50 39.794,49.676 L39.794,43.832 C39.794,43.52 40.022,43.364 40.358,43.364 C40.67,43.364 40.886,43.52 40.886,43.832 L40.886,44.156 C40.886,44.312 40.85,44.432 40.838,44.66 C41.258,43.808 41.978,43.268 43.118,43.268 C44.546,43.268 45.314,44.132 45.314,45.608 Z M46.994,49.676 L46.994,43.832 C46.994,43.52 47.198,43.364 47.534,43.364 C47.858,43.364 48.086,43.52 48.086,43.832 L48.086,49.676 C48.086,50 47.858,50.156 47.534,50.156 C47.198,50.156 46.994,50 46.994,49.676 Z M47.546,40.652 C47.99,40.652 48.35,41 48.35,41.456 C48.35,41.924 47.99,42.272 47.546,42.272 C47.09,42.272 46.73,41.924 46.73,41.456 C46.73,41 47.09,40.652 47.546,40.652 Z M55.322,45.608 L55.322,49.676 C55.322,50 55.082,50.156 54.77,50.156 C54.446,50.156 54.218,50 54.218,49.676 L54.218,45.836 C54.218,44.816 53.81,44.24 52.91,44.24 C52.262,44.24 51.722,44.528 51.314,45.092 C51.014,45.5 50.894,45.848 50.894,46.316 L50.894,49.676 C50.894,50 50.666,50.156 50.354,50.156 C50.018,50.156 49.802,50 49.802,49.676 L49.802,43.832 C49.802,43.52 50.03,43.364 50.366,43.364 C50.678,43.364 50.894,43.52 50.894,43.832 L50.894,44.156 C50.894,44.312 50.858,44.432 50.846,44.66 C51.266,43.808 51.986,43.268 53.126,43.268 C54.554,43.268 55.322,44.132 55.322,45.608 Z M61.67,44.156 L61.67,43.796 C61.67,43.544 61.838,43.364 62.186,43.364 C62.51,43.364 62.702,43.52 62.702,43.844 L62.702,49.4 C62.702,52.16 61.25,52.784 59.666,52.784 C58.37,52.784 57.542,52.352 57.086,51.764 C57.026,51.68 56.99,51.596 56.99,51.5 C56.99,51.344 57.074,51.188 57.218,51.08 C57.314,51.008 57.446,50.96 57.566,50.96 C57.698,50.96 57.818,51.008 57.914,51.116 C58.358,51.632 58.886,51.884 59.618,51.884 C61.118,51.884 61.658,51.128 61.67,49.352 C61.67,49.208 61.694,48.944 61.718,48.776 C61.322,49.532 60.638,50.06 59.582,50.06 C57.878,50.06 56.69,48.74 56.69,46.736 C56.69,44.672 57.758,43.28 59.606,43.28 C60.698,43.28 61.382,43.88 61.718,44.648 C61.706,44.516 61.67,44.288 61.67,44.156 Z M59.738,44.192 C58.514,44.192 57.794,45.188 57.794,46.736 C57.794,48.26 58.61,49.184 59.726,49.184 C60.95,49.184 61.694,48.14 61.694,46.652 C61.694,45.224 60.962,44.192 59.738,44.192 Z" id="Typical-Active-Learn-Copy" fill="#2F6070"></path>
            </g>
            <g id="Challenge-Hub" transform="translate(228.000000, 165.000000)">
                <g id="Shape">
                    <use fill="black" fill-opacity="1" filter="url(#filter-7)" xlink:href="#path-6"></use>
                    <use fill="#CB4343" fill-rule="evenodd" xlink:href="#path-6"></use>
                </g>
                <text font-family="HiraMaruProN-W4, Hiragino Maru Gothic ProN" font-size="12" font-weight="normal" fill="#FFFFFF">
                    <tspan x="7.264" y="54">Challenge-Hub</tspan>
                </text>
            </g>
            <text id="Learning-Efficiency" font-family="HiraMaruProN-W4, Hiragino Maru Gothic ProN" font-size="12" font-weight="normal" fill="#2F6070">
                <tspan x="144.374" y="300">Learning Efficiency</tspan>
            </text>
            <text id="Teaching-Effort" transform="translate(41.000000, 174.500000) rotate(270.000000) translate(-41.000000, -174.500000) " font-family="HiraMaruProN-W4, Hiragino Maru Gothic ProN" font-size="12" font-weight="normal" fill="#2F6070">
                <tspan x="-4.462" y="179.5">Teaching Effort</tspan>
            </text>
        </g>
    </g>
</svg>